<svg xmlns="http://www.w3.org/2000/svg" viewBox="0 0 128.26 128.26"><title>chainring</title><path d="M82.38 63.6L94.67 59a1.65 1.65 0 0 1 2.15 1l5.72-1.86-3.74-11.45-5.72 1.86a1.65 1.65 0 0 1-1.08 2.1l-12.68 3.51A8.12 8.12 0 0 1 69 46.68l-.57-13.05a1.65 1.65 0 0 1 1.65-1.72v-6.1H58v6.1a1.65 1.65 0 0 1 1.65 1.72l-.55 13.06a8.12 8.12 0 0 1-10.29 7.47l-12.63-3.5A1.66 1.66 0 0 1 35 48.55l-5.72-1.86-3.7 11.5 5.72 1.86a1.65 1.65 0 0 1 2.15-1l12.3 4.55a8.12 8.12 0 0 1 3.93 12.09l-7.28 11a1.65 1.65 0 0 1-2.35.42l-3.33 4.59 1.61 1.17 6.57 4.77 1.6 1.16 3.33-4.59a1.65 1.65 0 0 1-.32-2.36l8.21-10.32a8.12 8.12 0 0 1 12.71 0l8.21 10.32a1.65 1.65 0 0 1-.32 2.36l3.38 4.66 9.79-7.11-3.41-4.66a1.65 1.65 0 0 1-2.35-.42l-7.28-11a8.12 8.12 0 0 1 3.93-12.08z" fill="#c0c4cc"/><path d="M64.13 113.22a49.09 49.09 0 1 1 49.09-49.09 49.15 49.15 0 0 1-49.09 49.09zm0-95.11a46 46 0 1 0 46 46 46.07 46.07 0 0 0-46-45.99z" fill="#ced1d6"/><path d="M116.19 63.39l-3-2.24a.93.93 0 0 1-.1-1.39l2.6-2.65a.93.93 0 0 0-.22-1.47l-3.26-1.77a.93.93 0 0 1-.31-1.36l2.17-3a.93.93 0 0 0-.44-1.42l-3.49-1.26a.93.93 0 0 1-.51-1.3l1.7-3.3a.93.93 0 0 0-.65-1.34l-3.64-.73a.93.93 0 0 1-.7-1.21l1.18-3.52a.93.93 0 0 0-.84-1.23L103 34a.93.93 0 0 1-.87-1.09l.65-3.65a.93.93 0 0 0-1-1.09l-3.69.37a.93.93 0 0 1-1-1l.1-3.71A.93.93 0 0 0 96 23l-3.6.92a.93.93 0 0 1-1.15-.79l-.45-3.68a.93.93 0 0 0-1.29-.74l-3.41 1.4a.93.93 0 0 1-1.26-.61l-1-3.57a.93.93 0 0 0-1.38-.54l-3.16 1.94a.93.93 0 0 1-1.3-.41l-1.52-3.38a.93.93 0 0 0-1.48-.33l-2.84 2.39a.93.93 0 0 1-1.38-.21l-2-3.12a.93.93 0 0 0-1.48-.11l-2.45 2.79a.93.93 0 0 1-1.4 0L61 12.16a.93.93 0 0 0-1.48.11l-2 3.12a.93.93 0 0 1-1.38.21l-2.84-2.39a.93.93 0 0 0-1.45.33l-1.55 3.38a.93.93 0 0 1-1.33.41l-3.17-1.94a.93.93 0 0 0-1.38.54l-1 3.57a.93.93 0 0 1-1.26.61l-3.42-1.44a.93.93 0 0 0-1.29.74L37 23.1a.93.93 0 0 1-1.15.79l-3.6-.89a.93.93 0 0 0-1.16.93l.1 3.71a.93.93 0 0 1-1 1l-3.69-.37a.93.93 0 0 0-1 1.09l.65 3.65a.93.93 0 0 1-.91.99l-3.71.18a.93.93 0 0 0-.84 1.23l1.18 3.52a.93.93 0 0 1-.7 1.21l-3.64.73a.93.93 0 0 0-.65 1.34l1.7 3.3a.93.93 0 0 1-.51 1.3l-3.49 1.26a.93.93 0 0 0-.44 1.42l2.17 3a.93.93 0 0 1-.31 1.37l-3.26 1.77a.93.93 0 0 0-.22 1.47l2.6 2.65a.93.93 0 0 1-.1 1.39l-3 2.24a.93.93 0 0 0 0 1.48l3 2.24a.93.93 0 0 1 .1 1.39l-2.6 2.65a.93.93 0 0 0 .22 1.47L16 74.4a.93.93 0 0 1 .31 1.36l-2.17 3a.93.93 0 0 0 .44 1.42l3.49 1.26a.93.93 0 0 1 .51 1.3l-1.7 3.3a.93.93 0 0 0 .65 1.34l3.64.73a.93.93 0 0 1 .7 1.21l-1.17 3.53a.93.93 0 0 0 .84 1.23l3.71.18a.93.93 0 0 1 .87 1.09L25.47 99a.93.93 0 0 0 1 1.09l3.69-.37a.93.93 0 0 1 1 1l-.1 3.71a.93.93 0 0 0 1.16.93l3.6-.92a.93.93 0 0 1 1.15.79l.45 3.68a.93.93 0 0 0 1.29.74l3.42-1.44a.93.93 0 0 1 1.26.61l1 3.57a.93.93 0 0 0 1.38.54l3.23-2a.93.93 0 0 1 1.33.41l1.52 3.38a.93.93 0 0 0 1.45.33l2.84-2.39a.93.93 0 0 1 1.38.21l2 3.12a.93.93 0 0 0 1.48.11l2.45-2.79a.93.93 0 0 1 1.4 0l2.45 2.79a.93.93 0 0 0 1.48-.11l2-3.12a.93.93 0 0 1 1.38-.21l2.84 2.4a.93.93 0 0 0 1.45-.33l1.55-3.38a.93.93 0 0 1 1.33-.41l3.16 1.94a.93.93 0 0 0 1.38-.54l1-3.57a.93.93 0 0 1 1.26-.61l3.42 1.44a.93.93 0 0 0 1.29-.74l.45-3.68a.93.93 0 0 1 1.15-.79l3.6.92a.93.93 0 0 0 1.16-.93l-.1-3.71a.93.93 0 0 1 1-1l3.69.37a.93.93 0 0 0 1-1.09l-.65-3.65a.93.93 0 0 1 .87-1.09l3.71-.18a.93.93 0 0 0 .84-1.23l-1.18-3.52a.93.93 0 0 1 .7-1.21l3.64-.73a.93.93 0 0 0 .65-1.34l-1.7-3.3a.93.93 0 0 1 .51-1.3l3.49-1.26a.93.93 0 0 0 .44-1.42l-2.17-3a.93.93 0 0 1 .31-1.36l3.26-1.77a.93.93 0 0 0 .22-1.47l-2.6-2.65a.93.93 0 0 1 .1-1.39l3-2.24a.93.93 0 0 0-.04-1.45zm-52.06 48.2a47.46 47.46 0 1 1 47.46-47.46 47.46 47.46 0 0 1-47.46 47.46z" fill="#c0c4cc"/><path d="M127.92 63.42L125 61.13a.9.9 0 0 1-.08-1.35l2.63-2.62a.9.9 0 0 0-.17-1.41l-3.18-1.93a.9.9 0 0 1-.24-1.33l2.29-2.92a.9.9 0 0 0-.34-1.38l-3.39-1.53a.9.9 0 0 1-.4-1.29l1.88-3.2a.9.9 0 0 0-.51-1.33l-3.49-1.1a.9.9 0 0 1-.56-1.23l1.56-3.4a.9.9 0 0 0-.66-1.26l-3.65-.67a.9.9 0 0 1-.7-1.16l1.1-3.55a.9.9 0 0 0-.81-1.17l-3.71-.22a.9.9 0 0 1-.84-1.07l.67-3.65a.9.9 0 0 0-.94-1.07l-3.71.22a.9.9 0 0 1-1-1l.22-3.71a.9.9 0 0 0-1.07-.94l-3.65.67a.9.9 0 0 1-1.07-.84L101 12a.9.9 0 0 0-1.17-.81l-3.55 1.1a.9.9 0 0 1-1.16-.7L94.41 8a.9.9 0 0 0-1.26-.66l-3.39 1.49a.9.9 0 0 1-1.23-.56l-1.11-3.54a.9.9 0 0 0-1.33-.51l-3.18 1.92a.9.9 0 0 1-1.29-.4l-1.53-3.38A.9.9 0 0 0 78.71 2l-2.92 2.31a.9.9 0 0 1-1.33-.24L72.53.89a.9.9 0 0 0-1.42-.17l-2.62 2.63a.9.9 0 0 1-1.35-.08L64.84.35a.9.9 0 0 0-1.42 0L60.5 4.07 57.15.72a.9.9 0 0 0-1.41.17l-1.93 3.18a.9.9 0 0 1-1.33.24L49.56 2a.9.9 0 0 0-1.38.34l-1.53 3.4a.9.9 0 0 1-1.29.4l-3.19-1.92a.9.9 0 0 0-1.33.51l-1.1 3.55a.9.9 0 0 1-1.23.56l-3.4-1.53a.9.9 0 0 0-1.26.69l-.67 3.65a.9.9 0 0 1-1.16.7l-3.55-1.1a.9.9 0 0 0-1.17.81l-.22 3.71a.9.9 0 0 1-1.07.84l-3.65-.67a.9.9 0 0 0-1.07.94l.22 3.71a.9.9 0 0 1-1 1l-3.71-.22a.9.9 0 0 0-.94 1.07l.72 3.56a.9.9 0 0 1-.84 1.07l-3.74.24a.9.9 0 0 0-.81 1.17L12.33 32a.9.9 0 0 1-.7 1.16L8 33.85a.9.9 0 0 0-.66 1.26l1.49 3.39a.9.9 0 0 1-.56 1.23l-3.54 1.11a.9.9 0 0 0-.51 1.33l1.92 3.18a.9.9 0 0 1-.4 1.29l-3.38 1.53A.9.9 0 0 0 2 49.56l2.29 2.92a.9.9 0 0 1-.24 1.33L.89 55.74a.9.9 0 0 0-.17 1.41l2.63 2.62a.9.9 0 0 1-.08 1.35l-2.92 2.3a.9.9 0 0 0 0 1.42l2.92 2.29a.9.9 0 0 1 .08 1.35L.72 71.11a.9.9 0 0 0 .17 1.41l3.18 1.93a.9.9 0 0 1 .24 1.33L2 78.71a.9.9 0 0 0 .34 1.38l3.39 1.53a.9.9 0 0 1 .4 1.29l-1.91 3.18a.9.9 0 0 0 .51 1.33l3.55 1.1a.9.9 0 0 1 .56 1.23l-1.53 3.4A.9.9 0 0 0 8 94.41l3.65.67a.9.9 0 0 1 .7 1.16l-1.1 3.55A.9.9 0 0 0 12 101l3.71.22a.9.9 0 0 1 .84 1.07l-.67 3.65a.9.9 0 0 0 .94 1.07l3.71-.22a.9.9 0 0 1 1 1l-.22 3.71a.9.9 0 0 0 1.07.94l3.65-.67a.9.9 0 0 1 1.07.84l.22 3.71a.9.9 0 0 0 1.17.81l3.55-1.1a.9.9 0 0 1 1.16.7l.67 3.65a.9.9 0 0 0 1.26.66l3.39-1.52a.9.9 0 0 1 1.23.56l1.11 3.55a.9.9 0 0 0 1.33.51l3.18-1.92a.9.9 0 0 1 1.29.4l1.53 3.39a.9.9 0 0 0 1.38.34l2.91-2.35a.9.9 0 0 1 1.33.24l1.93 3.18a.9.9 0 0 0 1.41.17l3.35-3.35 2.92 3.73a.9.9 0 0 0 1.42 0l2.3-2.97a.9.9 0 0 1 1.35-.08l2.62 2.63a.9.9 0 0 0 1.41-.17l1.93-3.18a.9.9 0 0 1 1.33-.24l2.92 2.29a.9.9 0 0 0 1.38-.34l1.53-3.39a.9.9 0 0 1 1.29-.4l3.19 1.88a.9.9 0 0 0 1.33-.51l1.1-3.55a.9.9 0 0 1 1.23-.56l3.4 1.62a.9.9 0 0 0 1.26-.66l.67-3.65a.9.9 0 0 1 1.16-.7l3.55 1.1a.9.9 0 0 0 1.17-.81l.22-3.71a.9.9 0 0 1 1.07-.84l3.65.67a.9.9 0 0 0 1.07-.94l-.22-3.71a.9.9 0 0 1 1-1l3.71.22a.9.9 0 0 0 .94-1.07l-.67-3.65a.9.9 0 0 1 .84-1.07l3.71-.22a.9.9 0 0 0 .81-1.17l-1.1-3.55a.9.9 0 0 1 .7-1.16l3.65-.67a.9.9 0 0 0 .66-1.26l-1.52-3.39a.9.9 0 0 1 .56-1.23l3.55-1.11a.9.9 0 0 0 .51-1.33l-1.92-3.18a.9.9 0 0 1 .4-1.29l3.39-1.53a.9.9 0 0 0 .34-1.38L124 75.79a.9.9 0 0 1 .24-1.33l3.18-1.93a.9.9 0 0 0 .17-1.41l-2.63-2.62a.9.9 0 0 1 .08-1.35l2.92-2.29a.9.9 0 0 0-.04-1.44zm-63.79 60.43a59.72 59.72 0 1 1 59.72-59.72 59.72 59.72 0 0 1-59.72 59.72z" fill="#c0c4cc"/><path d="M64.13 3.47a60.67 60.67 0 1 0 60.67 60.66A60.73 60.73 0 0 0 64.13 3.47zm15.32 8.35A54.72 54.72 0 0 1 109 33.28a6.47 6.47 0 0 1-3.34 9.82h-.13a6.46 6.46 0 0 1-7.32-2.43 41.58 41.58 0 0 0-22.4-16.3 6.51 6.51 0 0 1-4.71-6.23V18a6.47 6.47 0 0 1 8.35-6.19zM57 18.06v.15a6.51 6.51 0 0 1-4.69 6.22A41.58 41.58 0 0 0 30 40.7a6.51 6.51 0 0 1-7.37 2.46 6.54 6.54 0 0 1-3.38-9.93A54.72 54.72 0 0 1 48.7 11.85a6.47 6.47 0 0 1 8.3 6.21zM31.28 97.17a6.46 6.46 0 0 1-10.34.18A54.23 54.23 0 0 1 9.62 64.13v-1.58a6.47 6.47 0 0 1 8.47-6h.15A6.48 6.48 0 0 1 22.73 63v1.15a41.2 41.2 0 0 0 8.52 25.13 6.51 6.51 0 0 1 .14 7.79zm32.85 21.47a54.25 54.25 0 0 1-18.41-3.2 6.47 6.47 0 0 1-3-9.89l.09-.13a6.44 6.44 0 0 1 7.37-2.3 41.42 41.42 0 0 0 27.89 0 6.44 6.44 0 0 1 7.36 2.31l.09.13a6.47 6.47 0 0 1-3 9.89 54.26 54.26 0 0 1-18.39 3.19zm0-17.4a37.11 37.11 0 1 1 37.11-37.11 37.15 37.15 0 0 1-37.11 37.11zm32.8-4l-.09-.12a6.51 6.51 0 0 1 .15-7.8 41.2 41.2 0 0 0 8.56-25.19v-1.18a6.48 6.48 0 0 1 4.45-6.36h.15a6.47 6.47 0 0 1 8.47 6v1.61a54.23 54.23 0 0 1-11.38 33.3 6.46 6.46 0 0 1-10.31-.26z" fill="#ced1d6"/><path d="M105 52.92a2.71 2.71 0 0 1 .17-5.41h.18a2.71 2.71 0 0 1-.17 5.41z" fill="#595f72"/><path d="M105.18 48h.14a2.21 2.21 0 0 1-.14 4.41H105a2.21 2.21 0 0 1 .14-4.41m0-1a3.21 3.21 0 0 0-.2 6.41h.21a3.21 3.21 0 0 0 .2-6.41z" fill="#a8aeb2"/><path d="M88.87 101.9a2.71 2.71 0 0 1 .13-5.4h.18a2.71 2.71 0 0 1-.17 5.41z" fill="#595f72"/><path d="M89 97h.14a2.21 2.21 0 0 1-.14 4.41h-.1A2.21 2.21 0 0 1 89 97m0-1a3.21 3.21 0 0 0-.2 6.41h.2a3.21 3.21 0 0 0 .2-6.41z" fill="#a8aeb2"/><path d="M37.71 102.62a2.71 2.71 0 0 1 .17-5.41h.18a2.71 2.71 0 0 1-.17 5.41z" fill="#595f72"/><path d="M37.87 97.71H38a2.21 2.21 0 0 1-.14 4.41h-.14a2.21 2.21 0 0 1 .14-4.41m0-1a3.21 3.21 0 0 0-.2 6.41h.21a3.21 3.21 0 0 0 .2-6.41z" fill="#a8aeb2"/><g><path d="M23.43 52.92a2.71 2.71 0 0 1 .17-5.41h.18a2.71 2.71 0 0 1-.17 5.41z" fill="#595f72"/><path d="M23.6 48h.14a2.21 2.21 0 0 1-.14 4.41h-.14A2.21 2.21 0 0 1 23.6 48m0-1a3.21 3.21 0 0 0-.2 6.41h.21a3.21 3.21 0 0 0 .2-6.41z" fill="#a8aeb2"/></g><g><path d="M63.91 23.08a2.71 2.71 0 0 1 .17-5.41h.17a2.71 2.71 0 0 1-.17 5.41z" fill="#595f72"/><path d="M64.07 18.17h.14a2.21 2.21 0 0 1-.14 4.41h-.14a2.21 2.21 0 0 1 .14-4.41m0-1a3.21 3.21 0 0 0-.2 6.41h.21a3.21 3.21 0 0 0 .2-6.41z" fill="#a8aeb2"/></g></svg>