<svg xmlns="http://www.w3.org/2000/svg" viewBox="0 0 109.79 49"><title>crankshaft-front</title><path d="M99.9 19h-1.13a29.21 29.21 0 0 0-3.1.37A42.19 42.19 0 0 0 91 20.51c-.88.25-1.8.56-2.77.88l-3.07 1-14.6 4.78-16.7 5.58-8.47 2.88c-2.79.95-5.54 1.89-8.19 2.81l-7.6 2.67-6.84 2.41c-2.13.75-4.06 1.48-5.76 2.06l-4.45 1.61-3.89 1.42a6.44 6.44 0 0 1-4.44-12.09l.16-.06 3.9-1.32 4.47-1.54c1.73-.6 3.67-1.26 5.79-2l6.85-2.41L33 26.46c2.65-.94 5.38-1.93 8.15-2.94l8.4-3.06 16.51-6.11 14.4-5.42 3-1.14c1-.36 1.87-.7 2.71-1.05a42.19 42.19 0 0 0 4.29-2.06A29.2 29.2 0 0 0 93.12 3c.59-.43.9-.69.9-.69A9.52 9.52 0 1 1 99.9 19z" fill="#d1d5de"/><circle cx="100.24" cy="9.54" r="5.61" transform="translate(41.75 91.51) rotate(-59.92)" fill="#595f72" stroke="#a8aeb2" stroke-miterlimit="10" stroke-width="1.5"/></svg>