<svg xmlns="http://www.w3.org/2000/svg" viewBox="0 0 79.04 57.59"><title>pedal-front</title><path d="M12.37 6.72a98.33 98.33 0 0 0 21.69 8.78c8.78 2.35 17.67 2.34 26.53 4 8.46 1.63 19.55 6.36 15 17.15-3.62 8.5-14.19 7.94-21.91 8a1.25 1.25 0 0 0 0 2.5c7.3-.07 16.11.31 21.61-5.42 5.09-5.3 5.2-14.49-.56-19.26-6.88-5.69-16.94-5.89-25.34-6.78A95.19 95.19 0 0 1 13.63 4.56c-1.41-.77-2.63 1.39-1.26 2.16z" fill="#636c7c"/><path d="M53.32 38.92a1.7 1.7 0 0 0-1.72 1.67v1.53l-24-1.92-24 1.28V40a1.7 1.7 0 1 0-3.39 0L0 55.19a1.7 1.7 0 1 0 3.39 0v-1.53l24 1.92 24-1.28v1.53a1.7 1.7 0 1 0 3.39 0L55 40.64a1.7 1.7 0 0 0-1.68-1.72z" fill="#c0c4cc"/><circle cx="27.46" cy="47.91" r="5.57" transform="translate(-20.53 75.23) rotate(-89.83)" fill="#595f72"/><circle cx="27.46" cy="47.91" r="3" transform="translate(-20.53 75.23) rotate(-89.83)" fill="#595f72" stroke="#a8aeb2" stroke-miterlimit="10" stroke-width="1.5"/><rect x="4.68" y=".05" width="9.57" height="48.54" rx=".57" ry=".57" transform="translate(0.33 -0.12) rotate(0.77)" fill="#595f72"/><rect x="3.42" y="12.76" width="12.21" height="19.07" rx="4" ry="4" transform="translate(0.3 -0.13) rotate(0.77)" fill="none" stroke="#c5cdd3" stroke-miterlimit="10" stroke-width="2"/></svg>