<svg xmlns="http://www.w3.org/2000/svg" viewBox="0 0 423.18 423.18"><title>wheel</title><g fill="none" stroke="#ccc" stroke-miterlimit="10"><path d="M198.24 208.31l99.81-172.88M216.57 225.33L369.49 97.02M200.49 200.95l187.59-68.28M205.26 225.77h199.62M211.82 198.14l187.59 68.28M198.24 219.15l152.92 128.31M220.23 198.7l100.72 174.45M196.33 206.07l35.19 199.6M225.3 210.68l-34.66 196.59M202.26 200.95l-99.81 172.88M222.7 220.41L71.28 347.46M211.3 198.14L23.72 266.42M216.18 225.33H16.56M221.2 200.95L33.62 132.67M206.16 225.33L53.24 97.02M226.11 210.24L126.3 37.36M198.54 221.71L163.87 25.12M223.52 222.96l35.1-199.05"/><g><path d="M198.54 216.3l172.88 99.81M222.69 221.71V22.08M200.49 221.71V22.08M225.55 211.07L97.24 58.15M208.55 225.33L80.23 72.41M223.38 203.47L26.79 168.81M219.53 225.33L22.94 190.67M212.9 197.07L40.02 296.88M224 216.3L51.12 316.11M204.69 199.3l-68.27 187.58M225.55 206.89l-68.27 187.58M197.35 206.89l68.28 187.58M218.21 199.3l68.27 187.58M209.64 197.07l172.88 99.81M204.38 223.85l196.59-34.66M200.53 201.99l196.59-34.66M214.35 225.83L342.67 72.91M197.35 211.56L325.67 58.64"/></g></g><path d="M211.59 16c108 0 195.59 87.57 195.59 195.59s-87.57 195.59-195.59 195.59S16 319.61 16 211.59 103.57 16 211.59 16m0-16a211.64 211.64 0 0 0-82.37 406.55A211.64 211.64 0 0 0 294 16.63 210.28 210.28 0 0 0 211.59 0z" fill="#333"/><path d="M211.59 25.71c102.66 0 185.88 83.22 185.88 185.88s-83.22 185.88-185.88 185.88S25.71 314.25 25.71 211.59 108.93 25.71 211.59 25.71m0-16A201.93 201.93 0 0 0 133 397.6a201.93 201.93 0 0 0 157.17-372 200.63 200.63 0 0 0-78.58-15.89z" fill="#b7833d"/><circle cx="211.59" cy="211.59" r="188.65" fill="none" stroke="#ddd" stroke-miterlimit="10" stroke-width="10"/></svg>