<svg data-name="Layer 5" xmlns="http://www.w3.org/2000/svg" viewBox="0 0 616.9 180.5" width="616.9" height="180.5"><path d="M383.9 95l28.5-74.5h13.3l-24.9 65.3h18l-3.5 9.2zM419.5 95l28.4-74.5h31l-3.6 9.4h-17.7l-8.3 21.7h14l-3.5 9.4h-14l-9.5 24.8h18l-3.5 9.2zM474.1 95.9q-18.3 0-12.9-19.7l.9-2.9 12.6-2.5q-.6 1.8-1.1 3.4-3.2 11.6 4.1 11.6a8.2 8.2 0 0 0 5.5-1.9 12.6 12.6 0 0 0 3.5-5.2l.5-1.6a12.7 12.7 0 0 0 .5-4.1 9.9 9.9 0 0 0-1-4.2 33 33 0 0 0-2.7-4l-6.7-8.8a16.6 16.6 0 0 1-3.3-7.8 17.4 17.4 0 0 1 .7-6.9q.4-1.5 1.1-3.2A27.9 27.9 0 0 1 486 24.7a27.5 27.5 0 0 1 15.7-4.9h.4a17.7 17.7 0 0 1 6.4.9 8.9 8.9 0 0 1 4.1 2.8 9.3 9.3 0 0 1 1.8 4.4 17.1 17.1 0 0 1 0 5.5 37 37 0 0 1-1.1 5.1l-.4 1.3-12.3 2.3q.5-1.5.9-2.8a16.5 16.5 0 0 0 .5-2 17.2 17.2 0 0 0 .4-4 3.5 3.5 0 0 0-1.3-2.7 4.7 4.7 0 0 0-2.9-.8h-.5a9.7 9.7 0 0 0-5.6 2 11.5 11.5 0 0 0-3.6 5l-.5 1.6a8.5 8.5 0 0 0-.3 4.2 13 13 0 0 0 2.5 4.9l6.7 8.7a24.1 24.1 0 0 1 4.4 9.7 19.6 19.6 0 0 1-.5 8.8 31.2 31.2 0 0 1-1 3.1A28.3 28.3 0 0 1 489.6 91a25.9 25.9 0 0 1-15.5 4.9zM516.5 95.9q-18.3 0-12.9-19.7l.9-2.9 12.6-2.5q-.6 1.8-1.1 3.4-3.2 11.6 4.1 11.6a8.2 8.2 0 0 0 5.5-1.9 12.6 12.6 0 0 0 3.5-5.2l.5-1.6a12.7 12.7 0 0 0 .5-4.1 9.9 9.9 0 0 0-1-4.2 33.2 33.2 0 0 0-2.7-4l-6.7-8.8a16.6 16.6 0 0 1-3.3-7.8 17.4 17.4 0 0 1 .7-6.9q.4-1.5 1.1-3.2a27.9 27.9 0 0 1 10.2-13.4 27.5 27.5 0 0 1 15.7-4.9h.4a17.7 17.7 0 0 1 6.4.9 8.9 8.9 0 0 1 4.1 2.8 9.3 9.3 0 0 1 1.8 4.4 17.1 17.1 0 0 1 0 5.5 37.1 37.1 0 0 1-1.1 5.1l-.4 1.3-12.3 2.3q.5-1.5.9-2.8a16.7 16.7 0 0 0 .5-2 17.2 17.2 0 0 0 .4-4 3.5 3.5 0 0 0-1.3-2.7 4.7 4.7 0 0 0-2.9-.8h-.5a9.7 9.7 0 0 0-5.6 2 11.5 11.5 0 0 0-3.6 5l-.5 1.5a8.5 8.5 0 0 0-.3 4.2 12.9 12.9 0 0 0 2.5 4.9l6.7 8.7a24.1 24.1 0 0 1 4.4 9.7 19.6 19.6 0 0 1-.5 8.8 31.5 31.5 0 0 1-1 3.1A28.3 28.3 0 0 1 532 90.9a25.9 25.9 0 0 1-15.5 5z" fill="#fff"/><path fill="#fff" d="M396.1 0l-78.2 66.5 36.6-5.5-32.1 52.5 73.1-66.1-31.7 3.7L396.1 0z" id="Shape_1_copy_Clipping_Path" data-name="Shape 1 copy Clipping Path"/><path d="M84.1 94.1q-17.7 0-12.4-19l.9-2.8 12.1-2.4q-.6 1.7-1 3.3-3.1 11.2 3.9 11.2a7.9 7.9 0 0 0 5.3-1.8 12.2 12.2 0 0 0 3.3-5.3l.5-1.6a12.2 12.2 0 0 0 .5-3.9 9.6 9.6 0 0 0-1-4.1 31.9 31.9 0 0 0-2.6-3.9l-6.5-8.5a16 16 0 0 1-3.2-7.5 16.7 16.7 0 0 1 .7-6.7q.4-1.5 1-3.1a26.9 26.9 0 0 1 9.8-13 26.5 26.5 0 0 1 15.2-4.7h.3a17.1 17.1 0 0 1 6.2.9 8.5 8.5 0 0 1 4 2.7 9 9 0 0 1 1.7 4.3 16.5 16.5 0 0 1 0 5.3 35.8 35.8 0 0 1-1.1 4.9l-.4 1.3-11.8 2.3q.5-1.4.9-2.7a16.2 16.2 0 0 0 .5-2 16.6 16.6 0 0 0 .4-3.9 3.3 3.3 0 0 0-1.2-2.6 4.5 4.5 0 0 0-2.8-.8h-.5a9.3 9.3 0 0 0-5.4 2 11.1 11.1 0 0 0-3.5 4.8l-.5 1.6a8.2 8.2 0 0 0-.3 4.1 12.5 12.5 0 0 0 2.5 4.8l6.5 8.4a23.3 23.3 0 0 1 4.2 9.3 18.9 18.9 0 0 1-.5 8.5 30.6 30.6 0 0 1-1 3A27.3 27.3 0 0 1 99 89.2a25 25 0 0 1-14.9 4.9zM107.3 93.2l27.4-72h29.9l-3.5 9.1h-16.9l-8 20.9h13.6l-3.4 9.1h-13.7l-9.2 24h17.3l-3.4 8.9zM142.4 93.2l27.4-72H186a38.7 38.7 0 0 1 9.4 1 12.5 12.5 0 0 1 5.9 3.1 8.2 8.2 0 0 1 2.2 5.9 21.1 21.1 0 0 1-.9 5.6q-.5 1.6-1.1 3.5-5.1 13.8-15.5 17.4l-3.2 35.5h-12.6l3.6-32.9h-6l-12.5 32.9zM171 52h3q5.9 0 9.4-2.5t5.8-8.5.9-2.6q1.1-3.8.1-5.7t-7-2.5h-3.8zM199.6 93.2l12.7-72h11.5l-9.5 50.3 28.2-50.2h11.6l-42.3 72zM231.4 93.2l27.4-72h29.9l-3.5 9.1h-17l-8 20.9h13.6l-3.4 9.1h-13.6l-9.2 24h17.3l-3.4 8.9zM266.5 93.2l27.4-72h16.2a38.7 38.7 0 0 1 9.4 1 12.5 12.5 0 0 1 5.9 3.1 8.2 8.2 0 0 1 2.2 5.9 21.2 21.2 0 0 1-.9 5.6q-.5 1.6-1.1 3.5-5.2 13.8-15.5 17.4l-3.2 35.5h-12.6l3.6-32.9h-6l-12.6 32.9zM295.1 52h3q5.9 0 9.4-2.5t5.8-8.5.9-2.6q1.1-3.8.1-5.7t-7-2.5h-3.9zM0 119.6h292.6v1H0zM365.7 119.6h251.2v1H365.7z" fill="#fff"/><g fill="#fff"><path d="M76.3 180.6l10.2-28.1h8.2q3.8 0 4.9 2a6 6 0 0 1 .1 4.3l-.5 1.6a11.3 11.3 0 0 1-4.1 5.7 11 11 0 0 1-6.3 1.8h-2.7l-4.6 12.6zm11.1-16.2h1.7a5.6 5.6 0 0 0 3.4-.9 6.9 6.9 0 0 0 2-3.2 15.6 15.6 0 0 0 .6-1.7 6.8 6.8 0 0 0 .2-.9 1.3 1.3 0 0 0-.6-1.4 5 5 0 0 0-2.4-.4h-1.9zM146.9 180.6l16.2-28.1h5.3l-4.3 28.1h-4.8l1.2-6.6h-5.1l-3.6 6.6zm10.2-9.9h4l2.2-11.6zM222 180.6l10.2-28.1h6.5a16.1 16.1 0 0 1 3.8.4 5.2 5.2 0 0 1 2.4 1.2 3.3 3.3 0 0 1 1 2.3 7.9 7.9 0 0 1-.3 2.2l-.4 1.4q-1.9 5.3-6.1 6.8l-.9 13.9h-5.1l1.1-12.9h-2.4l-4.7 12.9zm11-16.1h1.2a6.4 6.4 0 0 0 3.7-1 6.8 6.8 0 0 0 2.2-3.3l.3-1a3.3 3.3 0 0 0 0-2.2q-.5-1-2.9-1H236zM299.6 180.6l8.9-24.4h-4.9l1.3-3.7h14.8l-1.3 3.7h-4.8l-8.9 24.4zM366.9 180.6l10.2-28.1h3.5l1.3 16.2 5.9-16.2h4.3l-10.2 28.1h-3.4l-1.1-17-6.2 17zM441.5 180.6l10.2-28.1h12l-1.3 3.6h-6.9l-3 8.2h5.5l-1.3 3.5h-5.5l-3.4 9.4h7l-1.3 3.5zM511.8 180.6l10.2-28.1h6.5a16.1 16.1 0 0 1 3.8.4 5.2 5.2 0 0 1 2.4 1.2 3.3 3.3 0 0 1 1 2.3 7.9 7.9 0 0 1-.3 2.2l-.4 1.4q-1.9 5.3-6.1 6.8l-.9 13.9h-5.1l1.1-12.9h-2.4l-4.7 12.9zm11-16.1h1.2a6.4 6.4 0 0 0 3.7-1 6.8 6.8 0 0 0 2.2-3.3l.3-1a3.3 3.3 0 0 0 0-2.2q-.5-1-2.9-1h-1.5z"/></g></svg>