<svg xmlns="http://www.w3.org/2000/svg" width="392.35" height="151.78" viewBox="0 0 392.35 151.78"><defs><style>.a{fill:#f90}.a,.c{fill-rule:evenodd}.b{stroke:#000}</style></defs><path class="a" d="M50.52 145.64l-23.06-8.27v-33.81l23.06 7.86v34.22zM54.76 145.64l23.06-8.27v-33.81l-23.06 7.86v34.22zM29.83 101.03l23.34-6.57 21.65 6.98-21.65 7.35-23.34-7.76zM23.07 98.41L0 90.14V56.33l23.07 7.86v34.22zM27.3 98.41l23.06-8.27V56.33L27.3 64.19v34.22zM2.37 53.8l23.34-6.57 21.65 6.98-21.65 7.35L2.37 53.8zM76.89 98.41l-23.07-8.27V56.33l23.07 7.86v34.22zM81.11 98.41l23.07-8.27V56.33l-23.07 7.86v34.22zM56.19 53.8l23.34-6.57 21.65 6.98-21.65 7.35-23.34-7.76z"/><g><path class="a" d="M104.34 51.18l-23.06-8.27V9.1l23.06 7.86v34.22zM108.58 51.18l23.06-8.27V9.1l-23.06 7.86v34.22zM83.65 6.57L106.99 0l21.65 6.98-21.65 7.35-23.34-7.76z"/></g><g><path class="a" d="M158.16 51.18l-23.06-8.27V9.1l23.06 7.86v34.22zM162.4 51.18l23.06-8.27V9.1l-23.06 7.86v34.22zM137.47 6.57L160.81 0l21.65 6.98-21.65 7.35-23.34-7.76z"/></g><g><path class="b" d="M146.43 123.62l-7.75 26.92h-3.37l-6-20-5.53 20h-3.43l-8.05-26.92h4.16l5.86 20.06 5.58-20.06h3.1l6 20.12 6-20.12zM167.86 142.5l3.9.8a11 11 0 0 1-4.15 5.71 12 12 0 0 1-7.26 2.26 11.29 11.29 0 0 1-8.91-3.88q-3.41-3.88-3.4-10.18t3.54-10.39a11.41 11.41 0 0 1 8.89-4 10.73 10.73 0 0 1 8.47 3.65q3.21 3.65 3.29 10.91h-19.55q0 6.11 2.55 8.24a8.3 8.3 0 0 0 5.4 2.13q5.13.05 7.23-5.25zm-.23-8.19a11.68 11.68 0 0 0-.74-4 6.86 6.86 0 0 0-2.34-3 6.41 6.41 0 0 0-4-1.24 7.07 7.07 0 0 0-5.28 2.24 9.27 9.27 0 0 0-2.43 6zM179.75 150.53h-2v-36.34h4.19v13.91q2.87-5.23 7.92-5.23a9.79 9.79 0 0 1 7.75 3.66q3.12 3.65 3.12 10.62a16.23 16.23 0 0 1-3.07 10.07 9.57 9.57 0 0 1-8 4.07q-5.48 0-8.41-5.2zm2.17-10.53q.29 4.15 2.54 6a7.33 7.33 0 0 0 4.75 1.87 6 6 0 0 0 5.15-2.77 13 13 0 0 0 2-7.6q0-5.2-1.89-8.17a5.91 5.91 0 0 0-5.24-3 6.57 6.57 0 0 0-4.75 2.12 9 9 0 0 0-2.52 5.47zM211.4 143.56l4-.83q1.33 5.07 8.42 5.07a8 8 0 0 0 4.42-1.17 3.71 3.71 0 0 0 1.81-3.3q0-3.16-4.61-4l-5.67-1.08a10.35 10.35 0 0 1-5.3-2.51 6.48 6.48 0 0 1-2-4.93 7.13 7.13 0 0 1 2.69-5.66 10.83 10.83 0 0 1 7.24-2.28q8.76 0 10.81 6.85l-3.84.83q-1.65-4.19-6.78-4.19a7.65 7.65 0 0 0-4.19 1 3.3 3.3 0 0 0-1.64 2.93q0 3 4.18 3.74l5.24 1q8.23 1.49 8.23 8a7.12 7.12 0 0 1-3.06 6 13.32 13.32 0 0 1-8.15 2.28q-9.54-.03-11.8-7.75zM256.75 142.5l3.9.8a11 11 0 0 1-4.15 5.7 11.94 11.94 0 0 1-7.26 2.26 11.28 11.28 0 0 1-8.91-3.88q-3.41-3.88-3.41-10.18t3.54-10.39a11.41 11.41 0 0 1 8.89-4 10.73 10.73 0 0 1 8.47 3.65q3.21 3.65 3.29 10.91h-19.54q0 6.11 2.55 8.24a8.3 8.3 0 0 0 5.4 2.13q5.13.06 7.23-5.24zm-.23-8.19a11.7 11.7 0 0 0-.74-4 6.87 6.87 0 0 0-2.34-3 6.41 6.41 0 0 0-4-1.24 7.07 7.07 0 0 0-5.28 2.24 9.26 9.26 0 0 0-2.43 6zM269.8 150.53h-4.19v-26.91h3.67v6.27q1.94-4.41 3.9-5.71a7.13 7.13 0 0 1 4-1.31q.64 0 1.65.1v4H278a7.36 7.36 0 0 0-5.74 2.57 10.4 10.4 0 0 0-2.45 6.75zM304.89 123.62l-9.29 26.92h-4.35l-9.6-26.92h4.64l7.47 21.88 7.41-21.88zM312.72 114.19v4.65h-4.49v-4.65zm-.1 9.43v26.92h-4.19v-26.92zM334.53 141.11l3.77.66a12 12 0 0 1-3.54 7 10.69 10.69 0 0 1-15.32-1.58 16.89 16.89 0 0 1-2.92-10 16.44 16.44 0 0 1 3.08-10.2 9.93 9.93 0 0 1 8.37-4.07 9.56 9.56 0 0 1 7 2.63 11.79 11.79 0 0 1 3.29 6.79l-3.77.72q-1.06-6.66-6.44-6.66a5.94 5.94 0 0 0-5.32 2.94 14.06 14.06 0 0 0-1.86 7.63q0 5.17 1.85 8a5.86 5.86 0 0 0 5.2 2.86q5.23-.03 6.61-6.72zM362 142.5l3.9.8a11 11 0 0 1-4.2 5.7 11.94 11.94 0 0 1-7.26 2.26 11.29 11.29 0 0 1-8.91-3.88q-3.41-3.88-3.41-10.18t3.54-10.39a11.41 11.41 0 0 1 8.89-4 10.73 10.73 0 0 1 8.47 3.65q3.21 3.65 3.29 10.91h-19.54q0 6.11 2.55 8.24a8.3 8.3 0 0 0 5.4 2.13q5.13.06 7.28-5.24zm-.23-8.19a11.68 11.68 0 0 0-.75-4 6.86 6.86 0 0 0-2.34-3 6.41 6.41 0 0 0-4-1.24 7.07 7.07 0 0 0-5.28 2.24 9.25 9.25 0 0 0-2.43 6zM368.67 143.56l4-.83q1.33 5.07 8.42 5.07a8 8 0 0 0 4.42-1.17 3.71 3.71 0 0 0 1.81-3.3q0-3.16-4.61-4l-5.67-1.08a10.35 10.35 0 0 1-5.3-2.51 6.48 6.48 0 0 1-2-4.93 7.13 7.13 0 0 1 2.69-5.66 10.83 10.83 0 0 1 7.24-2.28q8.76 0 10.81 6.85l-3.84.83q-1.65-4.19-6.78-4.19a7.65 7.65 0 0 0-4.19 1 3.3 3.3 0 0 0-1.64 2.93q0 3 4.18 3.74l5.24 1q8.23 1.49 8.23 8a7.12 7.12 0 0 1-3.06 6 13.32 13.32 0 0 1-8.15 2.28q-9.53-.03-11.8-7.75z"/></g><g><path class="c" d="M274.16 66.09v-6.46A1.6 1.6 0 0 1 275.8 58h29a1.62 1.62 0 0 1 1.67 1.63v5.54c0 .93-.79 2.14-2.18 4.07l-15 21.43c5.57-.13 11.47.7 16.53 3.55a3 3 0 0 1 1.54 2.52v6.9c0 1-1 2.05-2.13 1.48a33.38 33.38 0 0 0-30.62.06c-1 .54-2.06-.55-2.06-1.5v-6.57a7.8 7.8 0 0 1 1.08-4.44L291 67.72h-15.17a1.61 1.61 0 0 1-1.67-1.63zM170.45 106.47h-8.82a1.66 1.66 0 0 1-1.58-1.49V59.74a1.66 1.66 0 0 1 1.7-1.63H170a1.66 1.66 0 0 1 1.6 1.52v5.91h.16c2.14-5.71 6.17-8.38 11.6-8.38s9 2.67 11.44 8.38a13 13 0 0 1 22.38-3.43c2.8 3.81 2.22 9.33 2.22 14.19v28.55a1.66 1.66 0 0 1-1.7 1.63h-8.81a1.66 1.66 0 0 1-1.58-1.62v-24c0-1.9.16-6.67-.25-8.47-.66-3-2.63-3.9-5.18-3.9a5.85 5.85 0 0 0-5.27 3.71c-.91 2.29-.82 6.09-.82 8.66v24a1.66 1.66 0 0 1-1.7 1.63h-8.81a1.66 1.66 0 0 1-1.58-1.62v-24c0-5 .82-12.47-5.43-12.47s-6.09 7.24-6.09 12.47v24a1.66 1.66 0 0 1-1.73 1.6zM327.73 57.15c13 0 20 11.24 20 25.52 0 13.81-7.75 24.76-20 24.76-12.74 0-19.67-11.24-19.67-25.23s7.02-25.05 19.67-25.05zm.08 10.4c-6.45 0-6.86 8.85-6.86 14.38s-.08 16.16 6.78 16.16 7.1-8.36 7.1-14.16c0-3.81-.16-8.38-1.31-12-.97-3.14-2.93-4.38-5.7-4.38zM366.52 106.47h-8.78a1.66 1.66 0 0 1-1.58-1.62V59.58a1.67 1.67 0 0 1 1.69-1.48H366a1.68 1.68 0 0 1 1.57 1.27v6.92h.17c2.47-6.19 5.92-9.14 12-9.14A11.56 11.56 0 0 1 390 62.49c2.3 3.62 2.3 9.71 2.3 14.09V105a1.67 1.67 0 0 1-1.69 1.43h-8.84a1.66 1.66 0 0 1-1.57-1.43V80.48c0-5 .58-12.19-5.51-12.19a5.77 5.77 0 0 0-5.1 3.62 20.11 20.11 0 0 0-1.4 8.57v24.36a1.69 1.69 0 0 1-1.67 1.63zM252.06 84.87c0 3.44.08 6.3-1.65 9.35a7.16 7.16 0 0 1-6.1 4c-3.38 0-5.36-2.58-5.36-6.39 0-7.51 6.74-8.87 13.11-8.87zm8.89 21.49a1.82 1.82 0 0 1-2.08.21 21.52 21.52 0 0 1-5.05-5.87c-4.84 4.93-8.27 6.41-14.54 6.41-7.42 0-13.2-4.58-13.2-13.74a15 15 0 0 1 9.4-14.41c4.78-2.1 11.46-2.48 16.58-3.05v-1.16c0-2.1.17-4.58-1.07-6.39a5.89 5.89 0 0 0-4.99-2.29c-3.36 0-6.35 1.72-7.09 5.29a1.86 1.86 0 0 1-1.49 1.64l-8.54-.92a1.55 1.55 0 0 1-1.32-1.84c2-10.37 11.33-13.5 19.71-13.5 4.29 0 9.9 1.14 13.28 4.39 4.29 4 3.88 9.35 3.88 15.17V90c0 4.13 1.72 5.94 3.33 8.17a1.66 1.66 0 0 1 0 2.34c-1.8 1.51-5 4.29-6.76 5.86zM137.49 84.87c0 3.44.08 6.3-1.65 9.35a7.16 7.16 0 0 1-6.1 4c-3.38 0-5.36-2.58-5.36-6.39 0-7.51 6.74-8.87 13.11-8.87zm8.89 21.49a1.82 1.82 0 0 1-2.08.21 21.51 21.51 0 0 1-5.05-5.87c-4.84 4.93-8.27 6.41-14.53 6.41-7.42 0-13.2-4.58-13.2-13.74a15 15 0 0 1 9.4-14.41c4.78-2.1 11.46-2.48 16.58-3.05v-1.16c0-2.1.16-4.58-1.07-6.39a5.89 5.89 0 0 0-4.95-2.29c-3.36 0-6.35 1.72-7.09 5.29a1.86 1.86 0 0 1-1.54 1.64l-8.54-.92a1.55 1.55 0 0 1-1.31-1.87c2-10.37 11.32-13.5 19.71-13.5 4.29 0 9.9 1.14 13.28 4.39 4.29 4 3.88 9.35 3.88 15.17V90c0 4.13 1.72 5.94 3.33 8.17a1.66 1.66 0 0 1 0 2.34c-1.8 1.51-5 4.29-6.76 5.86z"/></g></svg>