<svg xmlns="http://www.w3.org/2000/svg" viewBox="-290.907 385.549 17.085 17.084"><path fill="#ED1C24" d="M-278.776 394.09l4.582 4.607c.21.194.33.424.364.69.033.268-.032.49-.194.668a13.77 13.77 0 0 1-2.376 2.376c-.178.162-.4.227-.667.195s-.505-.145-.715-.34l-4.582-4.605-4.606 4.606a1.152 1.152 0 0 1-.69.34.883.883 0 0 1-.692-.195 14.685 14.685 0 0 1-2.352-2.35.88.88 0 0 1-.194-.692c.032-.267.145-.497.34-.69l4.605-4.607-4.582-4.58c-.21-.21-.33-.45-.364-.716-.032-.267.033-.49.195-.667a14.242 14.242 0 0 1 2.352-2.376.876.876 0 0 1 .69-.193c.268.032.498.153.692.364l4.605 4.39 4.582-4.39a1.2 1.2 0 0 1 .715-.363c.267-.033.49.032.667.194a13.84 13.84 0 0 1 2.375 2.377c.16.178.226.4.194.667a1.198 1.198 0 0 1-.365.715l-4.58 4.58z"/></svg>