<svg xmlns="http://www.w3.org/2000/svg" width="861.19" height="312.79" viewBox="0 0 861.19 312.79"><g opacity=".03"><path d="M0 0h33.2v133.2c9.6-19.6 32.8-36.8 67.2-36.8 43.2 0 73.6 23.6 73.6 84.4v128.4h-33.2V178.4c0-36.8-15.6-53.2-49.2-53.2-30.8 0-58.4 19.6-58.4 57.2v126.8H0zM223.6 206.8v-3.2c0-63.2 40.4-107.2 98-107.2 48.4 0 94 29.2 94 104v10.8H258c1.6 47.6 24.4 74 67.2 74 32.4 0 51.2-12 55.6-36.4H414c-7.2 42-42 64-89.2 64-59.2-.01-101.2-41.6-101.2-106zm158-22.4c-3.2-43.2-25.6-60.4-60-60.4-34 0-56.8 23.2-62.4 60.4zM467.19 0h33.6v309.2h-33.6zM569.59 0h33.6v309.2h-33.6zM655.59 206.4v-3.2c0-62.8 43.6-106.8 102.8-106.8s102.8 43.6 102.8 106.4v3.2c0 63.2-43.6 106.8-103.2 106.8s-102.4-45.2-102.4-106.4zm171.2 0v-2.8c0-48.4-26.8-79.6-68.4-79.6-42 0-68.4 31.2-68.4 79.2v3.2c0 47.6 26 78.8 68.4 78.8 42 0 68.4-31.6 68.4-78.8z"/></g></svg>