<svg xmlns="http://www.w3.org/2000/svg" width="1459.18" height="469.21" viewBox="0 0 1459.18 469.21"><g opacity=".03"><path class="a" d="M0 0h50.4v463.8H0zM126.6 376.8c0-72.6 76.8-97.2 157.2-97.2h45v-22.8c0-49.8-19.2-70.8-67.2-70.8-43.2 0-67.2 18-72 56.4h-49.8c6.6-71.4 63.6-97.8 124.2-97.8 60 0 114.6 24.6 114.6 112.2v207h-49.8v-39.6c-23.4 29.4-51.6 45-97.8 45-58.2.01-104.4-28.2-104.4-92.4zM328.8 354v-39h-43.2c-63 0-109.2 15.6-109.2 61.8 0 32.4 15.6 52.8 59.4 52.8 52.8 0 93-27 93-75.6zM487.19 385.2V192h-45v-42h45V78.6H537V150h73.2v42H537v188.4c0 30.6 13.8 45.6 39 45.6 15.6 0 27.6-2.4 38.4-6.6v42c-10.2 3.6-22.2 6.6-42.6 6.6-57.01 0-84.61-33.6-84.61-82.8zM666 310.2v-4.8c0-94.8 60.6-160.8 147-160.8 72.6 0 141 43.8 141 156v16.2H717.59c2.4 71.4 36.6 111 100.8 111 48.6 0 76.8-18 83.4-54.6h49.8c-10.8 63-63 96-133.8 96C729 469.21 666 406.8 666 310.2zm237-33.6c-4.8-64.8-38.4-90.6-90-90.6-51 0-85.2 34.8-93.6 90.6zM1007.38 367.2H1056c3.6 37.2 23.4 60.6 73.8 60.6 47.4 0 68.4-16.2 68.4-49.8 0-33-24.6-43.8-73.2-52.8-81.6-15-109.2-37.8-109.2-92.4 0-58.2 57-88.2 106.2-88.2 56.4 0 105 22.8 113.4 90.6h-48c-7.2-34.2-26.4-49.2-66-49.2-36 0-59.4 18-59.4 45 0 28.2 15.6 39.6 73.2 49.8 64.8 12 110.4 26.4 110.4 93 0 57-39 95.4-115.2 95.4-75.02.01-120.02-37.8-123.02-102zM1332 385.2V192h-45v-42h45V78.6h49.8V150h73.2v42h-73.2v188.4c0 30.6 13.8 45.6 39 45.6 15.6 0 27.6-2.4 38.4-6.6v42c-10.2 3.6-22.2 6.6-42.6 6.6-57.02 0-84.6-33.6-84.6-82.8z"/></g></svg>