<svg xmlns="http://www.w3.org/2000/svg" viewBox="0 0 300.95 420.08" width="300.95" height="420.08"><path fill="#333" d="M50.16 420.08H0v-269.6C0 67.5 67.5 0 150.48 0c80.87 0 147 64.13 150.35 144.21h.17v6.27h-.07c-3.06 140-108.83 159.93-160 169.58-9.64 1.82-18.75 3.54-23.57 5.31a100.64 100.64 0 0 0-67.2 94.71zM150.48 50.16A100.43 100.43 0 0 0 50.16 150.48v157.45a149.93 149.93 0 0 1 50.05-29.73c8.46-3.12 19.06-5.12 31.34-7.44C184 260.88 249.16 248.6 250.76 148a100.43 100.43 0 0 0-100.28-97.84z"/></svg>