<svg xmlns="http://www.w3.org/2000/svg" width="1341.59" height="469.21" viewBox="0 0 1341.59 469.21"><g opacity=".03"><path d="M0 150h54l73.2 252.6L203.4 150h43.2L318 402.6 391.8 150h51L345 463.8h-55.2l-65.4-235.2-73.2 235.2H96.6zM480.6 309.6v-4.8c0-94.2 65.4-160.2 154.2-160.2S789 210 789 304.2v4.8c0 94.8-65.4 160.2-154.8 160.2s-153.6-67.8-153.6-159.6zm256.8 0v-4.2c0-72.6-40.2-119.4-102.6-119.4-63 0-102.6 46.8-102.6 118.8v4.8c0 71.4 39 118.2 102.6 118.2 63 0 102.6-47.4 102.6-118.2zM866.39 150h49.8v56.4c19.8-35.4 46.8-60 103.2-61.8v46.8c-63 3-103.2 22.8-103.2 100.2v172.2h-49.8zM1092 0h49.8v294.6L1272 150h58.2l-134.4 145.8 145.8 168H1281l-139.2-162.6v162.6H1092z"/></g></svg>