<svg xmlns="http://www.w3.org/2000/svg" viewBox="0 0 118 118"><title>chainwheel</title><path d="M101.17 21.52l.42-2.84a1.08 1.08 0 0 0-1.2-1.23l-2.85.35a1.08 1.08 0 0 1-1.21-1.1l.08-2.86a1.08 1.08 0 0 0-1.34-1.08l-2.78.69A1.08 1.08 0 0 1 91 12.5l-.26-2.85a1.08 1.08 0 0 0-1.46-.91l-2.68 1A1.08 1.08 0 0 1 85.14 9l-.61-2.8A1.08 1.08 0 0 0 83 5.46L80.44 6.8a1.08 1.08 0 0 1-1.52-.6L78 3.5a1.08 1.08 0 0 0-1.66-.5L74 4.6a1.08 1.08 0 0 1-1.58-.41l-1.27-2.57a1.08 1.08 0 0 0-1.68-.33L67.32 3.2a1.08 1.08 0 0 1-1.61-.2L64.14.58a1.08 1.08 0 0 0-1.71-.13L60.54 2.6a1.08 1.08 0 0 1-1.63 0L57.06.39a1.08 1.08 0 0 0-1.71.08l-1.62 2.36A1.08 1.08 0 0 1 52.1 3L50 1a1.08 1.08 0 0 0-1.69.29L47 3.87a1.08 1.08 0 0 1-1.59.37l-2.32-1.7a1.08 1.08 0 0 0-1.65.46l-1 2.68a1.08 1.08 0 0 1-1.53.56l-2.5-1.4a1.08 1.08 0 0 0-1.57.68l-.68 2.78a1.08 1.08 0 0 1-1.46.74L30 8a1.08 1.08 0 0 0-1.48.87l-.34 2.85a1.08 1.08 0 0 1-1.35.91l-2.76-.76a1.08 1.08 0 0 0-1.36 1v2.87a1.08 1.08 0 0 1-1.24 1.07l-2.84-.42a1.08 1.08 0 0 0-1.23 1.2l.35 2.85a1.08 1.08 0 0 1-1.1 1.21l-2.86-.08a1.08 1.08 0 0 0-1.08 1.34l.69 2.78a1.08 1.08 0 0 1-.9 1.31l-2.85.26a1.08 1.08 0 0 0-.91 1.46l1 2.68A1.08 1.08 0 0 1 9 32.86l-2.8.61A1.08 1.08 0 0 0 5.46 35l1.34 2.56a1.08 1.08 0 0 1-.6 1.52L3.5 40a1.08 1.08 0 0 0-.5 1.66L4.6 44a1.08 1.08 0 0 1-.41 1.58l-2.57 1.27a1.08 1.08 0 0 0-.33 1.68l1.91 2.15a1.08 1.08 0 0 1-.2 1.61L.58 53.86a1.08 1.08 0 0 0-.12 1.71l2.15 1.9a1.08 1.08 0 0 1 0 1.63L.39 60.94a1.08 1.08 0 0 0 .08 1.71l2.36 1.62A1.08 1.08 0 0 1 3 65.9L1 68a1.08 1.08 0 0 0 .29 1.69L3.87 71a1.08 1.08 0 0 1 .37 1.59l-1.7 2.32A1.08 1.08 0 0 0 3 76.56l2.68 1a1.08 1.08 0 0 1 .56 1.53l-1.4 2.5a1.08 1.08 0 0 0 .68 1.57l2.78.68a1.08 1.08 0 0 1 .74 1.46L8 88a1.08 1.08 0 0 0 .87 1.48l2.85.34a1.08 1.08 0 0 1 .91 1.35l-.76 2.76a1.08 1.08 0 0 0 1 1.36h2.87a1.08 1.08 0 0 1 1.07 1.24l-.42 2.84a1.08 1.08 0 0 0 1.2 1.23l2.85-.35a1.08 1.08 0 0 1 1.21 1.1l-.08 2.86a1.08 1.08 0 0 0 1.34 1.08l2.78-.69a1.08 1.08 0 0 1 1.33.95l.26 2.85a1.08 1.08 0 0 0 1.46.91l2.68-1a1.08 1.08 0 0 1 1.44.78l.61 2.8a1.08 1.08 0 0 0 1.56.72l2.53-1.34a1.08 1.08 0 0 1 1.52.6l.92 2.63a1.08 1.08 0 0 0 1.63.53L44 113.4a1.08 1.08 0 0 1 1.58.41l1.26 2.57a1.08 1.08 0 0 0 1.68.33l2.14-1.91a1.08 1.08 0 0 1 1.62.22l1.56 2.4a1.08 1.08 0 0 0 1.71.12l1.9-2.15a1.08 1.08 0 0 1 1.63 0l1.84 2.2a1.08 1.08 0 0 0 1.71-.08l1.62-2.36a1.08 1.08 0 0 1 1.65-.15l2.1 2a1.08 1.08 0 0 0 1.69-.29l1.31-2.58a1.08 1.08 0 0 1 1.59-.37l2.31 1.69a1.08 1.08 0 0 0 1.64-.49l1-2.68a1.08 1.08 0 0 1 1.53-.56l2.5 1.4a1.08 1.08 0 0 0 1.57-.68l.68-2.78a1.08 1.08 0 0 1 1.46-.74L88 110a1.08 1.08 0 0 0 1.48-.87l.34-2.85a1.08 1.08 0 0 1 1.35-.91l2.77.76a1.08 1.08 0 0 0 1.36-1v-2.87a1.08 1.08 0 0 1 1.24-1.07l2.84.42a1.08 1.08 0 0 0 1.23-1.2l-.35-2.85a1.08 1.08 0 0 1 1.1-1.21l2.86.08a1.08 1.08 0 0 0 1.08-1.34l-.69-2.78a1.08 1.08 0 0 1 .89-1.31l2.85-.26a1.08 1.08 0 0 0 .91-1.46l-1-2.68a1.08 1.08 0 0 1 .78-1.44l2.8-.61a1.08 1.08 0 0 0 .72-1.56l-1.34-2.53a1.08 1.08 0 0 1 .6-1.52l2.68-.94a1.08 1.08 0 0 0 .53-1.63L113.4 74a1.08 1.08 0 0 1 .41-1.58l2.57-1.26a1.08 1.08 0 0 0 .33-1.68l-1.91-2.14a1.08 1.08 0 0 1 .22-1.62l2.4-1.56a1.08 1.08 0 0 0 .12-1.71l-2.15-1.9a1.08 1.08 0 0 1 0-1.63l2.2-1.84a1.08 1.08 0 0 0-.08-1.71l-2.36-1.62a1.08 1.08 0 0 1-.15-1.65l2-2.1a1.08 1.08 0 0 0-.29-1.69L114.13 47a1.08 1.08 0 0 1-.37-1.59l1.69-2.31a1.08 1.08 0 0 0-.49-1.64l-2.68-1a1.08 1.08 0 0 1-.56-1.53l1.4-2.5a1.08 1.08 0 0 0-.68-1.57l-2.78-.68a1.08 1.08 0 0 1-.74-1.46L110 30a1.08 1.08 0 0 0-.87-1.48l-2.85-.34a1.08 1.08 0 0 1-.91-1.35l.76-2.76a1.08 1.08 0 0 0-1-1.36h-2.87a1.08 1.08 0 0 1-1.09-1.19zm13.59 38.35C104 131.32 13.25 130.16 4.34 58.47a1.19 1.19 0 0 1 0-.32c10.73-71.45 101.51-70.3 110.41 1.4a1.19 1.19 0 0 1 0 .32z" fill="#c0c4cc"/><path d="M59.2 114.91A55.91 55.91 0 1 1 115.12 59a56 56 0 0 1-55.92 55.91zm0-108.67A52.75 52.75 0 1 0 112 59 52.81 52.81 0 0 0 59.2 6.25z" fill="#a8aeb2"/><path d="M108.41 50.42a29.33 29.33 0 0 0-5.61-5.77c.27-1 .47-1.9.65-2.84a27.32 27.32 0 0 0-.79-13.63 28.71 28.71 0 0 0-6.82-11.28 29 29 0 0 0-8.08-5.83 28.85 28.85 0 0 0-21.64-1.51 27.16 27.16 0 0 0-5.66 2.55c-.51.31-1 .62-1.52 1-.51-.34-1-.66-1.55-1a27.37 27.37 0 0 0-14.1-4 29 29 0 0 0-29 29 27.39 27.39 0 0 0 1 7.55c0 .14.07.28.11.42l-.33.28a27.81 27.81 0 0 0-9.19 13.1A29 29 0 0 0 24.5 95a27.4 27.4 0 0 0 7.5 1.34h.44c.05.14.12.28.17.42a27.82 27.82 0 0 0 9.62 12.81 28.71 28.71 0 0 0 12.15 5.12l.53-3.12A25.57 25.57 0 0 1 44.08 107a24.05 24.05 0 0 1-7-8.14l-4.39-10.08L30 93a25.88 25.88 0 0 1-19.3-13.38 53 53 0 0 1-2.81-8.55 25.57 25.57 0 0 1 1-11.64 24.17 24.17 0 0 1 6.11-9.8l5.6-7.41v-.29l-2.87-1a25.83 25.83 0 0 1 6.91-21.68 53 53 0 0 1 7.26-5.32 25.57 25.57 0 0 1 11.4-2.67 24 24 0 0 1 11.4 2.94l-.31 5.14a29.19 29.19 0 0 1 8.36.19l.62-5.69a36.19 36.19 0 0 1 3.73-1.27 25.69 25.69 0 0 1 19.22 1.31 53 53 0 0 1 7.31 5.27 25.57 25.57 0 0 1 6 10 24.1 24.1 0 0 1 .88 11l-2.2 10.3 4.85-1.34A26 26 0 0 1 110.54 71a53.06 53.06 0 0 1-2.75 8.58 25.56 25.56 0 0 1-7.65 8.82 23.82 23.82 0 0 1-9.53 4.09l-12.42-.69 4.41 5.36a24.15 24.15 0 0 1-2.44 4.17 25.71 25.71 0 0 1-16.38 10.24l.55 3.11a28.85 28.85 0 0 0 18.39-11.5 26.66 26.66 0 0 0 3.07-5.44c.23-.54.44-1.08.64-1.64.61 0 1.21-.07 1.8-.13A27.38 27.38 0 0 0 102 90.92a28.7 28.7 0 0 0 8.63-10 29 29 0 0 0-2.21-30.53z" fill="#a8aeb2"/><rect x="54.5" y="13.26" width="9" fill="#c0c4cc"/><path d="M63.75 17l-.25-3.77h-9L54.25 17a40 40 0 0 1 9.5 0zM89.06 93.41l-1.94-3.14a42.26 42.26 0 0 1-6.93 5l2.39 2.81zM28.94 93.41l6.47 4.7 2.39-2.81a42.26 42.26 0 0 1-6.93-5z" fill="#a8aeb2"/><path fill="#c0c4cc" d="M17.04 40.98l-2.47 7.61 2.47-7.61z"/><path d="M17 41l-2.47 7.61 3.25 1.34a41.8 41.8 0 0 1 2.66-8.12z" fill="#a8aeb2"/><g><path fill="#c0c4cc" d="M103.63 48.59l-1.3-4 1.3 4zM79.24 58.64l21-8.63a41.79 41.79 0 0 0-2.65-8.15l-21.88 5.29a8.5 8.5 0 0 1-10.49-7.71L63.75 17a40 40 0 0 0-9.5 0l-1.47 22.39a8.5 8.5 0 0 1-10.49 7.71l-21.81-5.28a41.8 41.8 0 0 0-2.66 8.12l21 8.64a8.5 8.5 0 0 1 4 12.32L30.88 90.27a42.26 42.26 0 0 0 6.93 5L52.52 78a8.5 8.5 0 0 1 13 0l14.67 17.3a42.26 42.26 0 0 0 6.93-5L75.24 71a8.5 8.5 0 0 1 4-12.36z"/><path fill="#a8aeb2" d="M97.54 41.86l3.62-.88 1.17 3.61-1.24-3.81"/><path d="M103.63 48.59l-1.3-4-1.17-3.59-3.62.88A41.79 41.79 0 0 1 100.2 50z" fill="#a8aeb2"/></g><circle cx="22.25" cy="47.3" r="2.11" transform="translate(-25.11 69.43) rotate(-89.87)" fill="#595f72" stroke="#a8aeb2" stroke-miterlimit="10"/><circle cx="95.43" cy="47.3" r="2.11" transform="translate(47.91 142.62) rotate(-89.87)" fill="#595f72" stroke="#a8aeb2" stroke-miterlimit="10"/><circle cx="81.12" cy="89.44" r="2.11" transform="translate(-8.51 170.36) rotate(-89.87)" fill="#595f72" stroke="#a8aeb2" stroke-miterlimit="10"/><circle cx="36.88" cy="89.44" r="2.11" transform="translate(-52.65 126.11) rotate(-89.87)" fill="#595f72" stroke="#a8aeb2" stroke-miterlimit="10"/><circle cx="59" cy="22.01" r="2.11" transform="translate(36.85 80.96) rotate(-89.87)" fill="#595f72" stroke="#a8aeb2" stroke-miterlimit="10"/></svg>