<svg xmlns="http://www.w3.org/2000/svg" viewBox="0 0 110.64 40.91"><defs><linearGradient id="a" x1="67.03" y1="39.7" x2="44.06" y2="-.09" gradientUnits="userSpaceOnUse"><stop offset="0" stop-color="#fff"/><stop offset="1"/></linearGradient></defs><title>crankshaft</title><path d="M7.76 21.29L102 .17a7.09 7.09 0 0 1 3.5 13.73L12.66 40.52a9.93 9.93 0 1 1-5.47-19.08z" fill="#c0c4cc"/><path d="M7.76 21.29L102 .17a7.09 7.09 0 0 1 3.5 13.73L12.66 40.52a9.93 9.93 0 1 1-5.47-19.08z" fill="url(#a)" opacity=".1"/><path d="M11.59 37h-.47a6.09 6.09 0 0 1-5.6-6.53 6.11 6.11 0 0 1 6.06-5.62h.47a6.09 6.09 0 0 1 5.6 6.53A6.11 6.11 0 0 1 11.59 37z" fill="#595f72"/><path d="M11.57 25.79h.4A5.09 5.09 0 0 1 11.59 36h-.4a5.09 5.09 0 0 1-4.68-5.46 5.11 5.11 0 0 1 5.06-4.7m0-2a7.09 7.09 0 0 0-.57 14.1h.55a7.09 7.09 0 0 0 .53-14.15h-.55z" fill="#a8aeb2"/></svg>