<svg xmlns="http://www.w3.org/2000/svg" viewBox="0 0 622.83 515.41"><title>frame</title><g style="isolation:isolate"><path fill="none" stroke="#a8aeb2" stroke-miterlimit="10" stroke-width="16" d="M459.7 136.97l17.54 45.51"/><path d="M37.38 419.23c0 .75-2.06 1.34-2.16 2.06s1.69 1.88 1.49 2.59-2.33.75-2.62 1.43 1.15 2.25.77 2.89-2.45.12-2.9.7.53 2.47 0 3-2.39-.52-3-.07-.13 2.52-.77 2.89-2.17-1.12-2.87-.84-.77 2.4-1.5 2.59-1.81-1.65-2.55-1.56-1.36 2.09-2.12 2.09-1.34-2.06-2.06-2.16-1.88 1.69-2.59 1.49-.75-2.33-1.43-2.62-2.25 1.15-2.89.77-.12-2.45-.7-2.9-2.47.53-3 0 .52-2.39.07-3-2.52-.13-2.89-.77 1.12-2.17.84-2.87-2.4-.77-2.59-1.5 1.65-1.81 1.56-2.55-2.12-1.37-2.11-2.12 2.06-1.34 2.16-2.06-1.69-1.88-1.49-2.59 2.33-.75 2.62-1.43-1.15-2.25-.77-2.89 2.45-.12 2.9-.7-.53-2.47 0-3 2.39.52 3 .07.13-2.52.77-2.89 2.17 1.12 2.87.84.77-2.4 1.5-2.59 1.81 1.65 2.55 1.56 1.39-2.09 2.14-2.09 1.34 2.06 2.06 2.16 1.88-1.69 2.59-1.49.74 2.33 1.44 2.62 2.25-1.15 2.89-.77.12 2.45.7 2.9 2.47-.53 3 0-.52 2.39-.07 3 2.52.13 2.89.77-1.12 2.17-.84 2.87 2.4.77 2.59 1.5-1.65 1.81-1.56 2.55 2.09 1.36 2.08 2.12z" fill="#c0c4cc"/><path fill="#ccc" d="M145.28 82h-21l-18-48h21l18 48z"/><path d="M77.23 42.35l9.66 7.59a9.62 9.62 0 0 0 8.49 1.71L159.83 34a9.62 9.62 0 0 1 2.24-.34l24.93-.78a9.62 9.62 0 0 0 7.53-4l2-2.86-123.15 5.75z" fill="#a63d40"/><path d="M200.54 29.9a2.89 2.89 0 0 0 2.73-2.9c0-5.25-.76-10.7-4.64-14S189 9.78 183.9 10.08c-6.26.36-10.34.72-16.6 1.08-14 .8-28 1.61-42 .76a94.28 94.28 0 0 1-15.37-2c-4-.93-8-2.24-12-3.4A163.34 163.34 0 0 0 57.38 0a7 7 0 0 0-7.11 8 59 59 0 0 0 8 21.83C61.69 35.22 66.38 40 72.38 42a35 35 0 0 0 11.14 1.3 167.43 167.43 0 0 0 30.79-2.95c7.06-1.34 14-3.14 21-4.79a131.66 131.66 0 0 1 23.05-3.33z" fill="#302c2d"/><circle cx="565.04" cy="434.68" r="19.84" fill="#c0c4cc"/><circle cx="550.11" cy="436.37" r="1.42" fill="#595f72" stroke="#a8aeb2" stroke-miterlimit="10"/><circle cx="573.92" cy="444.87" r="1.42" fill="#595f72" stroke="#a8aeb2" stroke-miterlimit="10"/><circle cx="565.04" cy="434.68" r="8.5" fill="none" stroke="#a8aeb2" stroke-miterlimit="10" stroke-width=".5"/><circle cx="569.67" cy="421.06" r="1.42" fill="#595f72" stroke="#a8aeb2" stroke-miterlimit="10"/><path d="M565.31 438.25l-2.38-.45a3.57 3.57 0 0 1-2.71-2.35l-22.33-64.86a1.59 1.59 0 0 1 1-2l4.88-1.68a1.59 1.59 0 0 1 2 1l22.9 66.5a3 3 0 0 1-3.36 3.84z" fill="#fff"/><path d="M567.49 431.26l-18.63-3.54a9 9 0 0 1-6.83-5.91l-56.25-163.36a4 4 0 0 1 2.48-5.08l12.29-4.23a4 4 0 0 1 5.08 2.48z" fill="#fff"/><g style="mix-blend-mode:multiply" fill="#0b2c7f"><path d="M506.85 294l3.15-2.5-5.69 1.89-.93-2.8 10-3.31 1.28 3.84-3.74 2.88 4.67.17 1.2 3.62-10 3.31-.95-2.85 5.7-1.89-4-.1zM508.33 305.58l-.88-2.66 4.41-1.46-.27-.83 2.29-.76 1.16 3.49zm7.87-5.91a1.63 1.63 0 1 1-1 2.06 1.61 1.61 0 0 1 1-2.07zM516.89 309.13h.06l.88 2.66-7.13 2.37a2.05 2.05 0 0 1-2.82-1.5l-1.06-3.2 2.24-.74.75 2.26c.08.24.21.45.55.34l.87-.29a2.52 2.52 0 0 1-1.37-1.55 3.3 3.3 0 0 1 2.31-4.13 3.35 3.35 0 0 1 4.36 1.95 2.49 2.49 0 0 1-.13 2.12 1.84 1.84 0 0 1 .49-.29zm-4.56.41a1.19 1.19 0 1 0 .77-1.46 1.15 1.15 0 0 0-.77 1.46zM514 314.36l4.18-1.39.88 2.66-3.67 1.22a.74.74 0 0 0-.58 1c.11.33.41.62 1 .41l3.67-1.22.89 2.68-4.19 1.39c-1.41.47-3-.16-3.8-2.47s.25-3.81 1.62-4.28zM518 329.24a4 4 0 0 1-2.92-2.86 3.71 3.71 0 1 1 7.05-2.32c.59 1.78 0 4-2.91 4.95l-1.53-4.6a1.14 1.14 0 0 0-.34 1.31 1.39 1.39 0 0 0 .8.84zm1-5.25l.62 1.85a1 1 0 0 0-.62-1.85zM517.56 333.39l-.88-2.66 10-3.31.88 2.66zM529 334.43l.95 2.86-10 3.31-.95-2.86zM527.28 342.64a2.56 2.56 0 0 1 1.51 1.59 2.42 2.42 0 0 1-1.62 3.22l-4.46 1.48-.88-2.66 3.53-1.17a.71.71 0 0 0 .54-1 1.39 1.39 0 0 0-.61-.65l-4 1.31-.88-2.66 6.71-2.22.87 2.62a2.48 2.48 0 0 1-.71.14zM535.45 354l-10 3.31-.88-2.66.64-.21a2.29 2.29 0 0 1-1.41-1.54 3.75 3.75 0 0 1 7.05-2.32 2.37 2.37 0 0 1-.17 2.14 4.86 4.86 0 0 1 .85-.38l3-1zm-6.72-1.83a1.15 1.15 0 1 0-.74 1.45 1.13 1.13 0 0 0 .73-1.49zM528.4 357.63l4.18-1.39.88 2.66-3.67 1.22a.75.75 0 0 0-.58 1c.11.33.41.62 1 .41l3.67-1.22.89 2.68-4.18 1.39c-1.41.47-3-.16-3.81-2.47s.22-3.81 1.62-4.28zM536.09 366.82l-.21.07a3.61 3.61 0 0 1-.89.17 1.64 1.64 0 0 1 1.6 1.05 3.67 3.67 0 0 1 .15.55l-2.76.92-.29-.87c-.25-.74-.6-.89-1.18-.7l-3.12 1-.88-2.66 6.71-2.22zM535.65 373.76c.18-.06.33-.3.15-.84a5.86 5.86 0 0 0-1.21-2l1.81-1.46a7.9 7.9 0 0 1 1.74 2.92c.54 1.62.43 3.35-1.5 4l-4.33 1.44-.88-2.66.57-.16a2.23 2.23 0 0 1-1.32-1.46 2.17 2.17 0 0 1 1.25-2.86 2.12 2.12 0 0 1 2.83 1.61l.38 1.14c.11.33.29.44.5.37zm-2.94.23a.69.69 0 0 0 .95.43l.47-.16c-.18 0-.25-.23-.29-.36l-.08-.23c-.11-.34-.36-.56-.7-.45a.57.57 0 0 0-.35.78zM533.74 382.15l-.88-2.66 4.41-1.46-.27-.82 2.29-.76 1.16 3.49zm7.87-5.91a1.64 1.64 0 1 1-1 2.06 1.61 1.61 0 0 1 1-2.06zM541 384a2.57 2.57 0 0 1 1.51 1.59 2.42 2.42 0 0 1-1.62 3.22l-4.46 1.48-.88-2.66 3.53-1.17a.71.71 0 0 0 .54-1 1.4 1.4 0 0 0-.61-.65l-4 1.31-.88-2.66 6.71-2.22.87 2.62a2.36 2.36 0 0 1-.71.14z"/></g><path d="M494.36 180.66c-7.33-5.67-11-18-11-18s-19.67 7.33-29 9-68.33-6-117-12-176-85-176-85-54.33-.33-57 1-23.67 19 37 52 64.67 83.33 64 105-29 66-29 66 5.33 8.33 6 17c.26 3.37-4.07 8.81-9.46 14.19a117.12 117.12 0 0 1-33.76 23.37L8.36 413.66l3 15s15 2 25 2 49 6 49 6l171 33s16-59.33 27-100 29.67-82.67 47-107 109.35-23.87 122-19c11.5 4.43 13 11.4 13 11.4l39-12.4a28.54 28.54 0 0 1 0-6c.33-3.67 5-16 13-28s-15.67-22.33-23-28zM148.73 415c-33.24 4.45-63.13 1.78-64.81-7-1.65-8.63 25.62-19.31 61.9-23.71 36.25-3.8 54.65 4 54.25 11.22-.28 7.49-17.96 14.82-51.34 19.49z" fill="#fff"/><g fill="#fff"><path d="M270.54 390.51v-1M285.95 399.01v-1"/></g><path d="M161.3 74.66s-16.89-.1-32.3 0h32.35z" fill="#fff"/><path d="M328.64 265.26V265l-.15.22zM340.14 256.76v-1h-2c-.57.35-1.11.7-1.64 1.06z" fill="none"/><path d="M191.88 271.21q1.09-2.14 2.16-4.34M196 262.68q1-2.14 1.91-4.28M179 303.87c-.51-1.15-1-2.15-1.45-3M199.7 254.13q.84-2.1 1.59-4.17M177.56 296.66c.65-1.06 1.54-2.5 2.59-4.26M182.62 288.19c.78-1.35 1.61-2.8 2.47-4.33M187.4 279.71q1.15-2.12 2.34-4.36M204 211c-.1-.62-.19-1.25-.3-1.88M205 219.57q-.12-1.52-.29-3.12M204.9 236.75q.28-1.77.37-3.4M202.78 245.56q.6-1.94 1.08-3.81M205.36 228.13c0-1 0-2.11-.07-3.23" fill="#fbcc00"/><path d="M194 266.87q-1.07 2.2-2.16 4.34l126.26 1.55v1l-128.4 1.58q-1.18 2.24-2.34 4.36l123.74 1.56v1l-126 1.59c-.86 1.53-1.69 3-2.47 4.33l123.52 1.59v1l-126 1.62c-1 1.76-1.93 3.2-2.59 4.26l124.33 1.63v1l-124.3 1.63c.43.81.93 1.81 1.45 3h128.17a273.44 273.44 0 0 1 21.28-38.61zM328.64 265q.83-1.22 1.66-2.38a24.7 24.7 0 0 1 6.23-5.86l-138.6 1.6q-.93 2.14-1.91 4.28l132.63 1.58z" fill="#fbcc00"/><path d="M145.76 384.32c-4.48.54-8.81 1.18-13 1.9l52.54-.74c-9.04-2.14-22.3-2.97-39.54-1.16z" fill="none"/><path fill="#01207d" d="M97.57 372.41l5.94-2.74M179.43 322.36a17.82 17.82 0 0 0 2.56-4.62M162.22 339.19q2.69-2.08 5.24-4.33M149.86 347.56q3.28-1.93 6.43-4.06M115.48 364.14l6.96-3.21M79.66 380.69l4.91-2.27M61.78 388.95l3.85-1.78M43.89 397.22l2.78-1.28M133.4 355.86l5.69-2.63c.73-.34 1.43-.7 2.15-1M171.86 330.8c.33-.32.67-.62 1-.94 1.2-1.2 2.34-2.4 3.4-3.58M99.08 395.19l-52.41.75-2.78 1.29 49.21.71c1.77-.94 3.78-1.85 5.98-2.75zM32.58 404.63l51.67.71a7.49 7.49 0 0 1 .87-1.46z"/><path d="M181.08 309.36a32.76 32.76 0 0 1 1 4.48l110 1.46v1L182 317.75a17.82 17.82 0 0 1-2.56 4.62l106.71 1.43v1l-109.89 1.48c-1.06 1.18-2.2 2.38-3.4 3.58-.32.32-.66.63-1 .94l110.78 1.5v1l-115.18 1.56q-2.56 2.24-5.24 4.33l118.56 1.61v1l-124.49 1.7q-3.14 2.13-6.43 4.06l127.53 1.75v1l-136.15 1.87c-.72.35-1.43.71-2.15 1l-5.69 2.63 141.49 2v1l-152.45 2.11-7 3.21 156.66 2.18v1l-168.63 2.35-5.93 2.74 172 2.41v1l-185 2.6-4.91 2.27 186.66 2.64v1l-81 1.15c5.83 1.38 9.94 3.29 12.3 5.41l66.77 1v1l-64.68.92a4.41 4.41 0 0 1 .29 1.78 6.38 6.38 0 0 1-1.75 3.89l63.13.91v1l-66.51 1a45.88 45.88 0 0 1-9.2 4.42l72.53 1v1l-83.06 1.2q-6.41 1.66-14.42 3.13l96.7 1.4v1l-202.64 3.6-22.62.32L255.34 423v1l-221.57 3.59h.08l219.83 3.94v1l-178.59 2.62c6 .87 10.22 1.52 10.22 1.52l5.11 1L252.13 440v1l-134 2 20 3.86 113 1.67v1l-92.12 1.36 27 5.21 62.83.93v1l-49 .73 56.44 10.89s16-59.33 27-100a427.15 427.15 0 0 1 22.61-62.95l-7.84.07" style="mix-blend-mode:multiply" fill="#0b2c7f"/><path d="M31.76 411.7l55.42.35a11.41 11.41 0 0 1-1-.71zM132.78 386.22l-67.15 1-3.85 1.78 54.42.77c5.1-1.34 10.66-2.53 16.58-3.55z" fill="#01207d"/><path d="M148.73 415c-33.24 4.45-63.13 1.78-64.81-7-.33-1.75.53-3.58 2.4-5.42a3.59 3.59 0 0 1-1.06.23 2.36 2.36 0 0 1-1.63-.6l-2.31.05a2.36 2.36 0 0 1-1.6.68 4 4 0 0 1-1.22-.22l-.41-.11a6.48 6.48 0 0 0-1.6-.21 6.55 6.55 0 0 0-1.6.27l-.45.15a4.09 4.09 0 0 1-1.23.28 2.36 2.36 0 0 1-1.63-.6l-2.31.05a2.36 2.36 0 0 1-1.6.68 4 4 0 0 1-1.22-.22l-.41-.11a6.48 6.48 0 0 0-1.6-.21 6.54 6.54 0 0 0-1.6.27l-.45.15a4.09 4.09 0 0 1-1.23.28 2.36 2.36 0 0 1-1.63-.6l-2.31.05a2.36 2.36 0 0 1-1.6.68 4 4 0 0 1-1.22-.22l-.41-.11a6.48 6.48 0 0 0-1.6-.21 6.54 6.54 0 0 0-1.6.27l-.45.15a4.08 4.08 0 0 1-1.23.28 2.36 2.36 0 0 1-1.63-.6l-2.31.05a2.36 2.36 0 0 1-1.6.68 4 4 0 0 1-1.22-.22l-.41-.11a6.48 6.48 0 0 0-1.59-.21 6.54 6.54 0 0 0-1.6.27l-.45.15a4.09 4.09 0 0 1-1.23.28 2.36 2.36 0 0 1-1.63-.6l-2.31.05a2.36 2.36 0 0 1-1.6.68h-.09a4 4 0 0 1-1.22-.22l-.41-.11a6.46 6.46 0 0 0-1.57-.21 6.56 6.56 0 0 0-1.58.27l-.45.15a4.09 4.09 0 0 1-1.23.28h-.09a2.33 2.33 0 0 1-1.62-.6l-2.31.05a2.39 2.39 0 0 1-1.61.68 3.44 3.44 0 0 1-1.13-.2l-.37-.11a3.51 3.51 0 0 0-1.43-.08 3.43 3.43 0 0 0-1.33.54l-.35.23a3.44 3.44 0 0 1-.92.6 2.27 2.27 0 0 1-1.55 0 4.64 4.64 0 0 0-.65.36c-.4.25-.8.48-1.1.71a2.24 2.24 0 0 1-.71 1.38 3.26 3.26 0 0 1-.94.53l-.33.18a3.54 3.54 0 0 0-1.1.91H7a3.54 3.54 0 0 0-.62 1.3c0 .13-.06.27-.09.41a6.07 6.07 0 0 1-.29 1.14 1.84 1.84 0 0 1-.5.63 2.19 2.19 0 0 1-.64.42c-.08.23-.17.46-.26.7l-.33 1.27a2.14 2.14 0 0 1 .4 1.5 4 4 0 0 1-.32 1l-.14.36a4.16 4.16 0 0 0-.21 1.49 4.15 4.15 0 0 0 .44 1.34c.06.12.14.24.21.36a4.9 4.9 0 0 1 .51 1 2.25 2.25 0 0 1-.16 1.58c.09.22.19.46.31.68a12.26 12.26 0 0 0 .69 1.16 2.15 2.15 0 0 1 1.3.84 3 3 0 0 1 .46 1c0 .12.1.24.15.35a3.55 3.55 0 0 0 .82 1.18 3.82 3.82 0 0 0 1.24.74 2.48 2.48 0 0 0 .4.13 4.1 4.1 0 0 1 1 .38 2.26 2.26 0 0 1 .94 1.24l.69.36 1.28.49a2.34 2.34 0 0 1 1.73 0 4 4 0 0 1 1.06.65l.34.26a6.5 6.5 0 0 0 1.41.78 6.52 6.52 0 0 0 1.59.33h.47a4.07 4.07 0 0 1 1.25.19 2.38 2.38 0 0 1 1.3 1.16l2.17.79a2.34 2.34 0 0 1 1.73 0 4 4 0 0 1 1.06.65l.35.26a6.5 6.5 0 0 0 1.41.78 6.52 6.52 0 0 0 1.58.33h.47a4.07 4.07 0 0 1 1.25.19 2.37 2.37 0 0 1 1.3 1.16l2.17.79a2.34 2.34 0 0 1 1.73 0 4 4 0 0 1 1.06.65l.35.26a6.49 6.49 0 0 0 1.41.78 6.53 6.53 0 0 0 1.58.33h.47A4.07 4.07 0 0 1 45 443a2.37 2.37 0 0 1 1.3 1.16l2.17.79a2.35 2.35 0 0 1 1.73 0 4 4 0 0 1 1.06.65l.34.26a6.5 6.5 0 0 0 1.41.78 6.53 6.53 0 0 0 1.59.33h.47a4.07 4.07 0 0 1 1.25.19 2.37 2.37 0 0 1 1.3 1.15l2.17.79a2.35 2.35 0 0 1 1.73 0 4 4 0 0 1 1.06.65l.42.25a6.49 6.49 0 0 0 1.41.78 6.53 6.53 0 0 0 1.58.33h.47a4.08 4.08 0 0 1 1.25.19 2.37 2.37 0 0 1 1.3 1.16l2.17.79a2.35 2.35 0 0 1 1.73 0 4 4 0 0 1 1.05.65l.34.26a6.5 6.5 0 0 0 1.41.78 6.52 6.52 0 0 0 1.59.33h.47a4.08 4.08 0 0 1 1.25.19 2.37 2.37 0 0 1 1.3 1.15l2.17.79a2.35 2.35 0 0 1 1.73 0 4 4 0 0 1 1.05.65l.34.26a6.49 6.49 0 0 0 1.41.78 6.53 6.53 0 0 0 1.58.33h.47a4.08 4.08 0 0 1 1.25.19 2.37 2.37 0 0 1 1.3 1.15l2.17.79a2.35 2.35 0 0 1 1.73 0 4 4 0 0 1 1.05.65l.34.26a6.49 6.49 0 0 0 1.41.78 6.54 6.54 0 0 0 1.58.33h.47a4.08 4.08 0 0 1 1.25.19 2.37 2.37 0 0 1 1.3 1.15l2.17.79a2.35 2.35 0 0 1 1.73 0 4 4 0 0 1 1.05.65l.34.26a6.49 6.49 0 0 0 1.41.78 6.53 6.53 0 0 0 1.59.33h.47a4.08 4.08 0 0 1 1.25.19 2.36 2.36 0 0 1 1.3 1.15l2.17.79a2.35 2.35 0 0 1 1.73 0 4 4 0 0 1 1.05.65l.34.26a6.49 6.49 0 0 0 1.41.78 6.54 6.54 0 0 0 1.58.33h.47a4.08 4.08 0 0 1 1.25.19 2.36 2.36 0 0 1 1.3 1.15l2.17.79a2.35 2.35 0 0 1 1.73 0 4 4 0 0 1 1.05.65l.34.26a6.48 6.48 0 0 0 1.41.78 6.52 6.52 0 0 0 1.59.33h.47a4.09 4.09 0 0 1 1.25.19 2.37 2.37 0 0 1 1.3 1.15l2.17.79a2.35 2.35 0 0 1 1.73 0 4 4 0 0 1 1.05.65l.34.26a6.49 6.49 0 0 0 1.41.78 6.54 6.54 0 0 0 1.58.33h.47a4.08 4.08 0 0 1 1.25.19 2.37 2.37 0 0 1 1.3 1.15l2.17.79a2.35 2.35 0 0 1 1.73 0 4 4 0 0 1 1.05.65l.34.26a6.48 6.48 0 0 0 1.41.78 6.53 6.53 0 0 0 1.59.33h.47a4.08 4.08 0 0 1 1.25.19 2.37 2.37 0 0 1 1.3 1.15l2.17.79a2.35 2.35 0 0 1 1.73 0 4 4 0 0 1 1.05.65l.34.26a6.48 6.48 0 0 0 1.41.78 6.55 6.55 0 0 0 1.59.33h.47a4.08 4.08 0 0 1 1.25.19 2.36 2.36 0 0 1 1.3 1.15l2.17.79a2.36 2.36 0 0 1 1.73 0 4 4 0 0 1 1.05.65l.34.26a6.48 6.48 0 0 0 1.41.78 6.55 6.55 0 0 0 1.58.33h.47a4.09 4.09 0 0 1 1.25.19 2.36 2.36 0 0 1 1.3 1.15l2.17.79a2.36 2.36 0 0 1 1.74 0 4 4 0 0 1 1.05.65l.34.26a6.47 6.47 0 0 0 1.41.78 6.55 6.55 0 0 0 1.59.33h.47a4.09 4.09 0 0 1 2.17.23 2.36 2.36 0 0 1 1.3 1.15l2.17.79a2.36 2.36 0 0 1 1.74 0 4 4 0 0 1 1.05.65l.34.26a6.48 6.48 0 0 0 1.41.78 6.54 6.54 0 0 0 1.58.33h.47a4.09 4.09 0 0 1 1.25.19 2.36 2.36 0 0 1 1.3 1.15l2.17.79a2.36 2.36 0 0 1 1.74 0 4 4 0 0 1 1.05.65l.34.26a6.48 6.48 0 0 0 1.41.78 6.54 6.54 0 0 0 1.59.33h.47a4.09 4.09 0 0 1 1.25.19 2.4 2.4 0 0 1 1.32 1.16l.8.29c.5.19 1 .39 1.37.55a2.32 2.32 0 0 1 1.69 0 3.71 3.71 0 0 1 1 .62l.34.24a5.45 5.45 0 0 0 1.39.7 5.42 5.42 0 0 0 1.56.21h.46a4.24 4.24 0 0 1 1.21 0 2.34 2.34 0 0 1 1.38 1l.8.16 1.4.26a2.34 2.34 0 0 1 1.64-.39 4.12 4.12 0 0 1 1.12.4l.38.17a5.3 5.3 0 0 0 1.51.4 5.39 5.39 0 0 0 1.57-.12l.45-.11a3.82 3.82 0 0 1 1.2-.21 2.29 2.29 0 0 1 1.55.66h2.25a2.46 2.46 0 0 1 1.52-.72 3.72 3.72 0 0 1 1.18.16l.41.09a4.86 4.86 0 0 0 1.56.08 6.13 6.13 0 0 0 1.51-.43 3.41 3.41 0 0 0 .41-.2 3.84 3.84 0 0 1 1.13-.46 2.36 2.36 0 0 1 1.65.34l.79-.18 1.39-.32a2.39 2.39 0 0 1 1.34-1 3.73 3.73 0 0 1 1.19-.08h.42a6 6 0 0 0 1.53-.26 5 5 0 0 0 1.38-.73l.36-.29a3.8 3.8 0 0 1 1-.67 2.44 2.44 0 0 1 1.68 0l.74-.33c.47-.21.92-.42 1.29-.61a2.26 2.26 0 0 1 1.1-1.28 4.69 4.69 0 0 1 1.15-.33l.4-.09a6.08 6.08 0 0 0 1.46-.55 5.1 5.1 0 0 0 1.19-1l.3-.35a4.1 4.1 0 0 1 .86-.86 2.24 2.24 0 0 1 1.64-.38l.66-.47 1.13-.88a2.27 2.27 0 0 1 .82-1.46 3.69 3.69 0 0 1 1-.57l.38-.17a4.8 4.8 0 0 0 1.31-.84 6.15 6.15 0 0 0 1-1.24c.08-.12.15-.26.22-.4a4.17 4.17 0 0 1 .64-1 2.28 2.28 0 0 1 1.54-.69c.18-.19.36-.4.54-.61l.93-1.08a2.42 2.42 0 0 1 .49-1.61 3.72 3.72 0 0 1 .92-.76l.34-.24a5.88 5.88 0 0 0 1.09-1.11 5.17 5.17 0 0 0 .69-1.41c0-.14.08-.29.12-.44a3.82 3.82 0 0 1 .43-1.14 2.44 2.44 0 0 1 1.35-1l.4-.7c.26-.45.51-.88.69-1.25a2.26 2.26 0 0 1 .14-1.68 4.71 4.71 0 0 1 .74-.94l.28-.31a6.09 6.09 0 0 0 .86-1.3 5.06 5.06 0 0 0 .37-1.53v-.46a4 4 0 0 1 .2-1.2 2.23 2.23 0 0 1 1.1-1.27l.26-.77c.15-.48.29-1 .4-1.36a2.23 2.23 0 0 1-.19-1.67 3.75 3.75 0 0 1 .51-1.08l.21-.36a5.17 5.17 0 0 0 .58-1.45 6.17 6.17 0 0 0 0-1.57c0-.14 0-.3-.06-.45a5 5 0 0 1-.08-1.21 2.26 2.26 0 0 1 .83-1.47c0-.26.06-.53.09-.81l.11-1.42a2.38 2.38 0 0 1-.54-1.59 3.69 3.69 0 0 1 .28-1.16l.13-.39a4.7 4.7 0 0 0 .26-1.54 6.15 6.15 0 0 0-.27-1.55c0-.14-.09-.28-.15-.43a4.64 4.64 0 0 1-.33-1.17 2.27 2.27 0 0 1 .52-1.61c0-.26 0-.53-.08-.81l-.18-1.41a2.43 2.43 0 0 1-.86-1.45 3.69 3.69 0 0 1 0-1.19l.05-.41a4.74 4.74 0 0 0-.07-1.56 6.11 6.11 0 0 0-.58-1.46 3.81 3.81 0 0 0-.24-.39 3.84 3.84 0 0 1-.57-1.08 2.33 2.33 0 0 1 .18-1.68c-.08-.25-.17-.51-.26-.77l-.46-1.35a2.39 2.39 0 0 1-1.15-1.23 3.72 3.72 0 0 1-.2-1.18v-.42a6.06 6.06 0 0 0-.41-1.5 5 5 0 0 0-.87-1.31l-.32-.33a3.8 3.8 0 0 1-.77-.94 2.43 2.43 0 0 1-.19-1.67l-.4-.7c-.25-.45-.51-.88-.73-1.23a2.26 2.26 0 0 1-1.38-1 4.77 4.77 0 0 1-.44-1.11l-.13-.39a6.09 6.09 0 0 0-.69-1.4 5.28 5.28 0 0 0-1.13-1.09l-.38-.26a4.3 4.3 0 0 1-.94-.77 2.24 2.24 0 0 1-.53-1.59l-.53-.61-1-1a2.3 2.3 0 0 1-1.54-.68 3.71 3.71 0 0 1-.67-1l-.2-.36a4.72 4.72 0 0 0-1-1.22 6.15 6.15 0 0 0-1.33-.84l-.42-.18a4 4 0 0 1-1.09-.54 2.3 2.3 0 0 1-.84-1.46l-.66-.48-1.16-.83a2.4 2.4 0 0 1-1.65-.33 3.73 3.73 0 0 1-.85-.84l-.27-.32a6 6 0 0 0-1.21-1 5.08 5.08 0 0 0-1.46-.55l-.45-.08a3.81 3.81 0 0 1-1.17-.32 2.43 2.43 0 0 1-1.13-1.25l-.74-.33c-.47-.21-.92-.42-1.31-.57a2.26 2.26 0 0 1-1.68 0 4.7 4.7 0 0 1-1-.64l-.33-.24a6.08 6.08 0 0 0-1.38-.73 5 5 0 0 0-1.56-.22h-.46a3.82 3.82 0 0 1-1.21-.08 2.23 2.23 0 0 1-1.37-1l-.79-.18-1.39-.27a2.24 2.24 0 0 1-1.65.36 4.1 4.1 0 0 1-1.12-.4l-.38-.17a5.72 5.72 0 0 0-1.5-.44 6.17 6.17 0 0 0-1.57.11l-.45.1a4.88 4.88 0 0 1-1.2.19 2.23 2.23 0 0 1-1.53-.68h-2.26a2.36 2.36 0 0 1-1.6.68 4 4 0 0 1-1.22-.22l-.41-.11a6.44 6.44 0 0 0-1.59-.21 6.54 6.54 0 0 0-1.6.27l-.45.15a4.09 4.09 0 0 1-1.23.28 2.33 2.33 0 0 1-1.62-.6l-2.29.05a2.36 2.36 0 0 1-1.6.68 4 4 0 0 1-1.22-.22l-.41-.11a6.48 6.48 0 0 0-1.6-.21 6.54 6.54 0 0 0-1.6.27l-.45.15a4.09 4.09 0 0 1-1.23.28 2.36 2.36 0 0 1-1.63-.6l-2.31.05a2.36 2.36 0 0 1-1.6.68 4 4 0 0 1-1.22-.22l-.41-.11a6.47 6.47 0 0 0-1.59-.21 6.55 6.55 0 0 0-1.6.27l-.45.15a4.08 4.08 0 0 1-1.23.28 2.36 2.36 0 0 1-1.63-.6l-2.31.05a2.36 2.36 0 0 1-1.6.68 4 4 0 0 1-1.22-.22l-.41-.11a7.74 7.74 0 0 0-1-.17c-5.17 5.27-21.97 10.88-49.24 14.69z" fill="none"/><g><path d="M85.36 436.66s-39-6-49-6-25-2-25-2l-3-15 21.29-9.84h-.14a6.46 6.46 0 0 0-1.57-.21 6.56 6.56 0 0 0-1.58.27l-.45.15a4.09 4.09 0 0 1-1.23.28h-.09a2.33 2.33 0 0 1-1.62-.6l-2.31.05a2.39 2.39 0 0 1-1.61.68 3.44 3.44 0 0 1-1.13-.2l-.37-.11a3.51 3.51 0 0 0-1.43-.08 3.43 3.43 0 0 0-1.33.54l-.35.23a3.44 3.44 0 0 1-.92.6 2.27 2.27 0 0 1-1.55 0 4.64 4.64 0 0 0-.65.36c-.4.25-.8.48-1.1.71a2.24 2.24 0 0 1-.71 1.38 3.26 3.26 0 0 1-.94.53l-.33.18a3.54 3.54 0 0 0-1.1.91H7a3.54 3.54 0 0 0-.62 1.3c0 .13-.06.27-.09.41a6.07 6.07 0 0 1-.29 1.09 1.84 1.84 0 0 1-.5.63 2.19 2.19 0 0 1-.64.42c-.08.23-.17.46-.26.7l-.33 1.27a2.14 2.14 0 0 1 .4 1.5 4 4 0 0 1-.32 1l-.14.36a4.16 4.16 0 0 0-.21 1.49 4.15 4.15 0 0 0 .44 1.34c.06.12.14.24.21.36a4.9 4.9 0 0 1 .51 1 2.25 2.25 0 0 1-.16 1.58c.09.22.19.46.31.68a12.26 12.26 0 0 0 .69 1.16 2.15 2.15 0 0 1 1.3.84 3 3 0 0 1 .46 1c0 .12.1.24.15.35a3.55 3.55 0 0 0 .82 1.18 3.82 3.82 0 0 0 1.24.74 2.48 2.48 0 0 0 .4.13 4.1 4.1 0 0 1 1 .38 2.26 2.26 0 0 1 .94 1.24l.69.36 1.28.49a2.34 2.34 0 0 1 1.73 0 4 4 0 0 1 1.06.65l.34.26a6.5 6.5 0 0 0 1.41.78 6.52 6.52 0 0 0 1.59.33h.47a4.07 4.07 0 0 1 1.25.19 2.38 2.38 0 0 1 1.3 1.16l2.17.79a2.34 2.34 0 0 1 1.73 0 4 4 0 0 1 1.06.65l.35.26a6.5 6.5 0 0 0 1.41.78 6.52 6.52 0 0 0 1.58.33h.47a4.07 4.07 0 0 1 1.25.19 2.37 2.37 0 0 1 1.3 1.16l2.17.79a2.34 2.34 0 0 1 1.73 0 4 4 0 0 1 1.06.65l.35.26a6.49 6.49 0 0 0 1.41.78 6.53 6.53 0 0 0 1.58.33h.47A4.07 4.07 0 0 1 45 443a2.37 2.37 0 0 1 1.3 1.16l2.17.79a2.35 2.35 0 0 1 1.73 0 4 4 0 0 1 1.06.65l.34.26a6.5 6.5 0 0 0 1.41.78 6.53 6.53 0 0 0 1.59.33h.47a4.07 4.07 0 0 1 1.25.19 2.37 2.37 0 0 1 1.3 1.15l2.17.79a2.35 2.35 0 0 1 1.73 0 4 4 0 0 1 1.06.65l.42.25a6.49 6.49 0 0 0 1.41.78 6.53 6.53 0 0 0 1.58.33h.47a4.08 4.08 0 0 1 1.25.19 2.37 2.37 0 0 1 1.3 1.16l2.17.79a2.35 2.35 0 0 1 1.73 0 4 4 0 0 1 1.05.65l.34.26a6.5 6.5 0 0 0 1.41.78 6.52 6.52 0 0 0 1.59.33h.47a4.08 4.08 0 0 1 1.25.19 2.37 2.37 0 0 1 1.3 1.15l2.17.79a2.35 2.35 0 0 1 1.73 0 4 4 0 0 1 1.05.65l.34.26a6.49 6.49 0 0 0 1.41.78 6.53 6.53 0 0 0 1.58.33h.47a4.08 4.08 0 0 1 1.25.19 2.37 2.37 0 0 1 1.3 1.15l2.17.79a2.35 2.35 0 0 1 1.73 0 4 4 0 0 1 1.05.65l.34.26a6.49 6.49 0 0 0 1.41.78 6.54 6.54 0 0 0 1.58.33h.47a4.08 4.08 0 0 1 1.25.19 2.37 2.37 0 0 1 1.3 1.15l2.17.79a2.35 2.35 0 0 1 1.73 0 4 4 0 0 1 1.05.65l.34.26a6.49 6.49 0 0 0 1.41.78 6.53 6.53 0 0 0 1.59.33h.47a4.08 4.08 0 0 1 1.25.19 2.36 2.36 0 0 1 1.3 1.15l2.17.79a2.35 2.35 0 0 1 1.73 0 4 4 0 0 1 1.05.65l.34.26a6.49 6.49 0 0 0 1.41.78 6.54 6.54 0 0 0 1.58.33h.47a4.08 4.08 0 0 1 1.25.19 2.36 2.36 0 0 1 1.3 1.15l2.17.79a2.35 2.35 0 0 1 1.73 0 4 4 0 0 1 1.05.65l.34.26a6.48 6.48 0 0 0 1.41.78 6.52 6.52 0 0 0 1.59.33h.47a4.09 4.09 0 0 1 1.25.19 2.37 2.37 0 0 1 1.3 1.15l2.17.79a2.35 2.35 0 0 1 1.73 0 4 4 0 0 1 1.05.65l.34.26a6.49 6.49 0 0 0 1.41.78 6.54 6.54 0 0 0 1.58.33h.47a4.08 4.08 0 0 1 1.25.19 2.37 2.37 0 0 1 1.3 1.15l2.17.79a2.35 2.35 0 0 1 1.73 0 4 4 0 0 1 1.05.65l.34.26a6.48 6.48 0 0 0 1.41.78 6.53 6.53 0 0 0 1.59.33h.47a4.08 4.08 0 0 1 1.25.19 2.37 2.37 0 0 1 1.3 1.15l2.17.79a2.35 2.35 0 0 1 1.73 0 4 4 0 0 1 1.05.65l.34.26a6.48 6.48 0 0 0 1.41.78 6.55 6.55 0 0 0 1.59.33h.47a4.08 4.08 0 0 1 1.25.19 2.36 2.36 0 0 1 1.3 1.15l2.17.79a2.36 2.36 0 0 1 1.73 0 4 4 0 0 1 1.05.65l.34.26a6.48 6.48 0 0 0 1.41.78 6.55 6.55 0 0 0 1.58.33h.47a4.09 4.09 0 0 1 1.25.19 2.36 2.36 0 0 1 1.3 1.15l2.17.79a2.36 2.36 0 0 1 1.74 0 4 4 0 0 1 1.05.65l.34.26a6.47 6.47 0 0 0 1.41.78 6.55 6.55 0 0 0 1.59.33h.47a4.09 4.09 0 0 1 2.17.23 2.36 2.36 0 0 1 1.3 1.15l2.17.79a2.36 2.36 0 0 1 1.74 0 4 4 0 0 1 1.05.65l.34.26a6.48 6.48 0 0 0 1.41.78 6.54 6.54 0 0 0 1.58.33h.47a4.09 4.09 0 0 1 1.25.19 2.36 2.36 0 0 1 1.3 1.15l2.17.79a2.36 2.36 0 0 1 1.74 0 4 4 0 0 1 1.05.65l.34.26a6.48 6.48 0 0 0 1.41.78 6.54 6.54 0 0 0 1.59.33h.47a4.09 4.09 0 0 1 1.25.19 2.4 2.4 0 0 1 1.32 1.16l.8.29c.5.19 1 .39 1.37.55a2.32 2.32 0 0 1 1.69 0 3.71 3.71 0 0 1 1 .62l.34.24a5.45 5.45 0 0 0 1.39.7 5.42 5.42 0 0 0 1.56.21h.46a4.24 4.24 0 0 1 1.21 0 2.34 2.34 0 0 1 1.38 1l.8.16 1.4.26a2.34 2.34 0 0 1 1.64-.39 4.12 4.12 0 0 1 1.12.4l.38.17a5.3 5.3 0 0 0 1.51.4 5.39 5.39 0 0 0 1.57-.12l.45-.11a3.82 3.82 0 0 1 1.2-.21 2.29 2.29 0 0 1 1.55.66h2.25a2.46 2.46 0 0 1 1.52-.72 3.72 3.72 0 0 1 1.18.16l.41.09a4.86 4.86 0 0 0 1.56.08 6.13 6.13 0 0 0 1.51-.43 3.41 3.41 0 0 0 .41-.2 3.84 3.84 0 0 1 1.13-.46 2.36 2.36 0 0 1 1.65.34l.79-.18 1.39-.32a2.39 2.39 0 0 1 1.34-1 3.73 3.73 0 0 1 1.19-.08h.42a6 6 0 0 0 1.53-.26 5 5 0 0 0 1.38-.73l.36-.29a3.8 3.8 0 0 1 1-.67 2.44 2.44 0 0 1 1.68 0l.74-.33c.47-.21.92-.42 1.29-.61a2.26 2.26 0 0 1 1.1-1.28 4.69 4.69 0 0 1 1.15-.33l.4-.09a6.08 6.08 0 0 0 1.46-.55 5.1 5.1 0 0 0 1.19-1l.3-.35a4.1 4.1 0 0 1 .86-.86 2.24 2.24 0 0 1 1.64-.38l.66-.47 1.13-.88a2.27 2.27 0 0 1 .82-1.46 3.69 3.69 0 0 1 1-.57l.38-.17a4.8 4.8 0 0 0 1.31-.84 6.15 6.15 0 0 0 1-1.24c.08-.12.15-.26.22-.4a4.17 4.17 0 0 1 .64-1 2.28 2.28 0 0 1 1.54-.69c.18-.19.36-.4.54-.61l.93-1.08a2.42 2.42 0 0 1 .49-1.61 3.72 3.72 0 0 1 .92-.76l.34-.24a5.88 5.88 0 0 0 1.09-1.11 5.17 5.17 0 0 0 .69-1.41c0-.14.08-.29.12-.44a3.82 3.82 0 0 1 .43-1.14 2.44 2.44 0 0 1 1.35-1l.4-.7c.26-.45.51-.88.69-1.25a2.26 2.26 0 0 1 .14-1.68 4.71 4.71 0 0 1 .74-.94l.28-.31a6.09 6.09 0 0 0 .86-1.3 5.06 5.06 0 0 0 .37-1.53v-.46a4 4 0 0 1 .2-1.2 2.23 2.23 0 0 1 1.1-1.27l.26-.77c.15-.48.29-1 .4-1.36a2.23 2.23 0 0 1-.19-1.67 3.75 3.75 0 0 1 .51-1.08l.21-.36a5.17 5.17 0 0 0 .58-1.45 6.17 6.17 0 0 0 0-1.57c0-.14 0-.3-.06-.45a5 5 0 0 1-.08-1.21 2.26 2.26 0 0 1 .83-1.47c0-.26.06-.53.09-.81l.11-1.42a2.38 2.38 0 0 1-.54-1.59 3.69 3.69 0 0 1 .28-1.16l.13-.39a4.7 4.7 0 0 0 .26-1.54 6.15 6.15 0 0 0-.27-1.55c0-.14-.09-.28-.15-.43a4.64 4.64 0 0 1-.33-1.17 2.27 2.27 0 0 1 .52-1.61c0-.26 0-.53-.08-.81l-.18-1.41a2.43 2.43 0 0 1-.86-1.45 3.69 3.69 0 0 1 0-1.19l.05-.41a4.74 4.74 0 0 0-.07-1.56 6.11 6.11 0 0 0-.58-1.46 3.81 3.81 0 0 0-.24-.39 3.84 3.84 0 0 1-.57-1.08 2.33 2.33 0 0 1 .18-1.68c-.08-.25-.17-.51-.26-.77l-.46-1.35a2.39 2.39 0 0 1-1.15-1.23 3.72 3.72 0 0 1-.2-1.18v-.42a6.06 6.06 0 0 0-.41-1.5 5 5 0 0 0-.87-1.31l-.32-.33a3.8 3.8 0 0 1-.77-.94 2.43 2.43 0 0 1-.19-1.67l-.4-.7c-.25-.45-.51-.88-.73-1.23a2.26 2.26 0 0 1-1.38-1 4.77 4.77 0 0 1-.44-1.11l-.13-.39a6.09 6.09 0 0 0-.69-1.4 5.28 5.28 0 0 0-1.13-1.09l-.38-.26a4.3 4.3 0 0 1-.94-.77 2.24 2.24 0 0 1-.53-1.59l-.53-.61-1-1a2.3 2.3 0 0 1-1.54-.68 3.71 3.71 0 0 1-.67-1l-.2-.36a4.72 4.72 0 0 0-1-1.22 6.15 6.15 0 0 0-1.33-.84l-.42-.18a4 4 0 0 1-1.09-.54 2.3 2.3 0 0 1-.84-1.46l-.66-.48-.47-.33c-8.5 31.49-16.39 60.73-16.39 60.73z" fill="none"/><path d="M198.17 399.6a9.55 9.55 0 0 0 .74-.94 9.64 9.64 0 0 1-.74.94zM199.55 397.58a7.22 7.22 0 0 1-.55 1 7.2 7.2 0 0 0 .55-1zM200.06 395.54a4.89 4.89 0 0 1-.13.91 4.93 4.93 0 0 0 .13-.91zM199.88 396.67a5.69 5.69 0 0 1-.32.9 5.7 5.7 0 0 0 .32-.9zM86.32 402.61a28 28 0 0 1 6.36-4.43 28 28 0 0 0-6.36 4.43z" fill="#636c7c"/><path d="M273.22 409.27l.66.48a2.3 2.3 0 0 0 .84 1.46 4 4 0 0 0 1.09.54l.42.18a6.15 6.15 0 0 1 1.33.84 4.72 4.72 0 0 1 1 1.22l.2.36a3.71 3.71 0 0 0 .67 1 2.3 2.3 0 0 0 1.54.68l1 1 .53.61a2.24 2.24 0 0 0 .53 1.59 4.3 4.3 0 0 0 .94.77l.38.26a5.28 5.28 0 0 1 1.13 1.09 6.09 6.09 0 0 1 .69 1.4l.13.39a4.77 4.77 0 0 0 .44 1.11 2.26 2.26 0 0 0 1.38 1c.23.35.48.78.73 1.23l.4.7a2.43 2.43 0 0 0 .19 1.67 3.8 3.8 0 0 0 .77.94l.32.33a5 5 0 0 1 .87 1.31 6.06 6.06 0 0 1 .41 1.5v.42a3.72 3.72 0 0 0 .2 1.18 2.39 2.39 0 0 0 1.15 1.23l.46 1.35c.09.26.18.52.26.77a2.33 2.33 0 0 0-.18 1.68 3.84 3.84 0 0 0 .57 1.08 3.81 3.81 0 0 1 .24.39 6.11 6.11 0 0 1 .58 1.46 4.74 4.74 0 0 1 .07 1.56l-.05.41a3.69 3.69 0 0 0 0 1.19 2.43 2.43 0 0 0 .86 1.45l.18 1.41c0 .27.07.55.08.81a2.27 2.27 0 0 0-.52 1.61 4.64 4.64 0 0 0 .33 1.17c.05.15.11.29.15.43a6.15 6.15 0 0 1 .27 1.55 4.7 4.7 0 0 1-.26 1.54l-.13.39a3.69 3.69 0 0 0-.28 1.16 2.38 2.38 0 0 0 .54 1.59l-.11 1.42c0 .27-.06.55-.09.81a2.26 2.26 0 0 0-.83 1.47 5 5 0 0 0 .08 1.21c0 .16 0 .31.06.45a6.17 6.17 0 0 1 0 1.57 5.17 5.17 0 0 1-.58 1.45l-.21.36a3.75 3.75 0 0 0-.51 1.08 2.23 2.23 0 0 0 .19 1.67c-.11.4-.25.88-.4 1.36l-.26.77a2.23 2.23 0 0 0-1.1 1.27 4 4 0 0 0-.2 1.2v.46a5.06 5.06 0 0 1-.37 1.53 6.09 6.09 0 0 1-.86 1.3l-.28.31a4.71 4.71 0 0 0-.74.94 2.26 2.26 0 0 0-.14 1.68c-.19.37-.44.8-.69 1.25l-.4.7a2.44 2.44 0 0 0-1.35 1 3.82 3.82 0 0 0-.43 1.14c0 .16-.08.31-.12.44a5.17 5.17 0 0 1-.69 1.41 5.88 5.88 0 0 1-1.09 1.11l-.34.24a3.72 3.72 0 0 0-.92.76 2.42 2.42 0 0 0-.49 1.61l-.93 1.08c-.18.21-.36.42-.54.61a2.28 2.28 0 0 0-1.54.69 4.17 4.17 0 0 0-.64 1c-.08.14-.15.28-.22.4a6.15 6.15 0 0 1-1 1.24 4.8 4.8 0 0 1-1.31.84l-.38.17a3.69 3.69 0 0 0-1 .57 2.27 2.27 0 0 0-.82 1.46l-1.13.88-.66.47a2.24 2.24 0 0 0-1.64.38 4.1 4.1 0 0 0-.86.86l-.3.35a5.1 5.1 0 0 1-1.19 1 6.08 6.08 0 0 1-1.46.55l-.4.09a4.69 4.69 0 0 0-1.15.33 2.26 2.26 0 0 0-1.1 1.28c-.37.19-.82.4-1.29.61l-.74.33a2.44 2.44 0 0 0-1.68 0 3.8 3.8 0 0 0-1 .67l-.36.29a5 5 0 0 1-1.38.73 6 6 0 0 1-1.53.26h-.42a3.73 3.73 0 0 0-1.19.08 2.39 2.39 0 0 0-1.34 1l-1.39.32-.79.18a2.36 2.36 0 0 0-1.65-.34 3.84 3.84 0 0 0-1.13.46 3.41 3.41 0 0 1-.41.2 6.13 6.13 0 0 1-1.51.43 4.86 4.86 0 0 1-1.56-.08l-.41-.09a3.72 3.72 0 0 0-1.18-.16 2.46 2.46 0 0 0-1.52.72h-2.25a2.29 2.29 0 0 0-1.55-.66 3.82 3.82 0 0 0-1.2.21l-.45.11a5.39 5.39 0 0 1-1.57.12 5.3 5.3 0 0 1-1.51-.4l-.38-.17a4.12 4.12 0 0 0-1.12-.4 2.34 2.34 0 0 0-1.64.39l-1.4-.26-.8-.16a2.34 2.34 0 0 0-1.38-1 4.24 4.24 0 0 0-1.21 0h-.46a5.42 5.42 0 0 1-1.56-.21 5.45 5.45 0 0 1-1.39-.7l-.84.54a3.71 3.71 0 0 0-1-.62 2.32 2.32 0 0 0-1.69 0c-.4-.16-.87-.36-1.37-.55l-.8-.29a2.4 2.4 0 0 0-1.32-1.16 4.09 4.09 0 0 0-1.25-.19h-.47a6.54 6.54 0 0 1-1.59-.33A6.48 6.48 0 0 1 211 504l-.34-.26a4 4 0 0 0-1.05-.65 2.36 2.36 0 0 0-1.74 0l-2.17-.79a2.36 2.36 0 0 0-1.3-1.15 4.09 4.09 0 0 0-1.25-.19h-.47a6.54 6.54 0 0 1-1.58-.33 6.48 6.48 0 0 1-1.41-.78l-.34-.26a4 4 0 0 0-1.05-.65 2.36 2.36 0 0 0-1.74 0l-2.17-.79a2.36 2.36 0 0 0-1.3-1.15 4.09 4.09 0 0 0-1.25-.19h-.47a6.55 6.55 0 0 1-1.59-.33 6.47 6.47 0 0 1-1.41-.78l-.34-.26a4 4 0 0 0-1.05-.65 2.36 2.36 0 0 0-1.74 0l-2.17-.79a2.36 2.36 0 0 0-1.3-1.15 4.09 4.09 0 0 0-1.25-.19h-.47a6.55 6.55 0 0 1-1.58-.33 6.48 6.48 0 0 1-1.41-.78l-.34-.26a4 4 0 0 0-1.05-.65 2.36 2.36 0 0 0-1.73 0l-2.17-.79a2.36 2.36 0 0 0-1.3-1.15 4.08 4.08 0 0 0-1.25-.19h-.47a6.55 6.55 0 0 1-1.59-.33 6.48 6.48 0 0 1-1.41-.78l-.34-.26a4 4 0 0 0-1.05-.65 2.35 2.35 0 0 0-1.73 0l-2.17-.79a2.37 2.37 0 0 0-1.3-1.15 4.08 4.08 0 0 0-1.25-.19h-.47a6.53 6.53 0 0 1-1.59-.33 6.48 6.48 0 0 1-1.41-.78l-.34-.26a4 4 0 0 0-1.05-.65 2.35 2.35 0 0 0-1.73 0l-2.17-.79a2.37 2.37 0 0 0-1.3-1.15 4.08 4.08 0 0 0-1.25-.19h-.47a6.54 6.54 0 0 1-1.58-.33 6.49 6.49 0 0 1-1.41-.78l-.34-.26a4 4 0 0 0-1.05-.65 2.35 2.35 0 0 0-1.73 0l-2.17-.79a2.37 2.37 0 0 0-1.3-1.15 4.09 4.09 0 0 0-1.25-.19h-.47a6.52 6.52 0 0 1-1.59-.33 6.48 6.48 0 0 1-1.41-.78l-.34-.26a4 4 0 0 0-1.05-.65 2.35 2.35 0 0 0-1.73 0l-2.17-.79a2.36 2.36 0 0 0-1.3-1.15 4.08 4.08 0 0 0-1.25-.19h-.47a6.54 6.54 0 0 1-1.58-.33 6.49 6.49 0 0 1-1.41-.78l-.34-.26a4 4 0 0 0-1.05-.65 2.35 2.35 0 0 0-1.73 0l-2.17-.79a2.36 2.36 0 0 0-1.3-1.15 4.08 4.08 0 0 0-1.25-.19h-.47a6.53 6.53 0 0 1-1.59-.33 6.49 6.49 0 0 1-1.41-.78l-.34-.26a4 4 0 0 0-1.05-.65 2.35 2.35 0 0 0-1.73 0l-2.17-.79a2.37 2.37 0 0 0-1.3-1.15 4.08 4.08 0 0 0-1.25-.19h-.47a6.54 6.54 0 0 1-1.58-.33 6.49 6.49 0 0 1-1.41-.78l-.34-.26a4 4 0 0 0-1.05-.65 2.35 2.35 0 0 0-1.73 0l-2.17-.79a2.37 2.37 0 0 0-1.3-1.15 4.08 4.08 0 0 0-1.25-.19h-.47a6.53 6.53 0 0 1-1.58-.33 6.49 6.49 0 0 1-1.41-.78l-.34-.26a4 4 0 0 0-1.05-.65 2.35 2.35 0 0 0-1.73 0l-2.17-.79a2.37 2.37 0 0 0-1.3-1.15 4.08 4.08 0 0 0-1.25-.19h-.47a6.52 6.52 0 0 1-1.59-.33 6.5 6.5 0 0 1-1.41-.78l-.34-.26a4 4 0 0 0-1.05-.65 2.35 2.35 0 0 0-1.73 0l-2.17-.79a2.37 2.37 0 0 0-1.3-1.16 4.08 4.08 0 0 0-1.25-.19H67a6.53 6.53 0 0 1-1.58-.33A6.49 6.49 0 0 1 63 450l-.34-.26a4 4 0 0 0-1.06-.65 2.35 2.35 0 0 0-1.73 0l-2.17-.79a2.37 2.37 0 0 0-1.3-1.15 4.07 4.07 0 0 0-1.25-.19h-.47a6.53 6.53 0 0 1-1.59-.33 6.5 6.5 0 0 1-1.41-.78l-.34-.26a4 4 0 0 0-1.06-.65 2.35 2.35 0 0 0-1.73 0l-2.17-.79A2.37 2.37 0 0 0 45 443a4.07 4.07 0 0 0-1.25-.19h-.47a6.53 6.53 0 0 1-1.58-.33 6.49 6.49 0 0 1-1.41-.78l-.35-.26a4 4 0 0 0-1.06-.65 2.34 2.34 0 0 0-1.73 0l-2.23-.79a2.37 2.37 0 0 0-1.3-1.16 4.07 4.07 0 0 0-1.25-.19h-.47a6.52 6.52 0 0 1-1.58-.33 6.5 6.5 0 0 1-1.41-.78l-.35-.26a4 4 0 0 0-1.06-.65 2.34 2.34 0 0 0-1.73 0l-2.17-.79a2.38 2.38 0 0 0-1.3-1.16 4.07 4.07 0 0 0-1.25-.19h-.47a6.52 6.52 0 0 1-1.59-.33 6.5 6.5 0 0 1-1.41-.78l-.34-.26a4 4 0 0 0-1.06-.65 2.34 2.34 0 0 0-1.73 0L13 432l-.68-.31a2.26 2.26 0 0 0-.94-1.24 4.1 4.1 0 0 0-1-.38 2.48 2.48 0 0 1-.4-.13 3.82 3.82 0 0 1-1.24-.74 3.55 3.55 0 0 1-.85-1.2c-.05-.11-.11-.23-.15-.35a3 3 0 0 0-.46-1 2.15 2.15 0 0 0-1.3-.84 12.26 12.26 0 0 1-.61-1.16c-.11-.23-.22-.46-.31-.68a2.25 2.25 0 0 0 .13-1.54 4.9 4.9 0 0 0-.51-1c-.08-.13-.15-.24-.21-.36a4.15 4.15 0 0 1-.47-1.4 4.16 4.16 0 0 1 .21-1.41l.14-.36a4 4 0 0 0 .32-1 2.14 2.14 0 0 0-.4-1.5l.33-1.27c.09-.24.18-.48.26-.7a2.19 2.19 0 0 0 .64-.42 1.84 1.84 0 0 0 .5-.63 6.07 6.07 0 0 0 .28-1.06c0-.14.06-.28.09-.41a3.54 3.54 0 0 1 .62-1.3H7a3.54 3.54 0 0 1 1.1-.91l.33-.18a3.26 3.26 0 0 0 .94-.53 2.24 2.24 0 0 0 .71-1.38c.3-.23.71-.46 1.1-.71a4.64 4.64 0 0 1 .65-.36 2.27 2.27 0 0 0 1.55 0 3.44 3.44 0 0 0 .92-.6l.35-.23a3.43 3.43 0 0 1 1.33-.54 3.51 3.51 0 0 1 1.43.08l.37.11a3.44 3.44 0 0 0 1.13.2 2.39 2.39 0 0 0 1.61-.68l2.31-.05a2.33 2.33 0 0 0 1.62.6h.09a4.09 4.09 0 0 0 1.23-.28l.45-.15a6.56 6.56 0 0 1 1.58-.27 6.46 6.46 0 0 1 1.57.21h.14l8.92-4.12a5.69 5.69 0 0 1-.62-.17 3.87 3.87 0 0 0-1.26-.24A2.36 2.36 0 0 0 35 400l-2.25.05a2.36 2.36 0 0 0-1.66-.62 3.42 3.42 0 0 0-1.12.27l-.4.14a6.63 6.63 0 0 1-1.42.26h-.3a6.65 6.65 0 0 1-1.4-.12 5.72 5.72 0 0 1-.62-.17 3.87 3.87 0 0 0-1.26-.24 2.39 2.39 0 0 0-1.63.7l-2.25.05a2.34 2.34 0 0 0-1.65-.62 3.82 3.82 0 0 0-1.2.29l-.44.15-.42.11-.83.21-.29.07-.34.06c-.52.06-1 .16-1.54.19h-.72a4.21 4.21 0 0 0-1.44.23 2.45 2.45 0 0 0-1.4 1.36 6.49 6.49 0 0 0-.78.44c-.48.3-1 .58-1.34.86a2.47 2.47 0 0 0-1.85.62 4.11 4.11 0 0 0-.77 1l-.21.42a12.82 12.82 0 0 1-.87 1.34l-.19.27c-.3.43-.69.79-1 1.18-.15.17-.33.32-.51.49a3.28 3.28 0 0 0-.92 1.12 2.92 2.92 0 0 0-.28 1 2.53 2.53 0 0 0 .16.94l-.3.84c-.15.55-.29 1.09-.4 1.54a2.53 2.53 0 0 0-1 1.71 3.38 3.38 0 0 0 .15 1.29l.11.45c.08.52.22 1 .26 1.58v.54a10.63 10.63 0 0 1 .06 1.57v.71a3.51 3.51 0 0 0 .09 1.45 2.46 2.46 0 0 0 1.24 1.52c.11.27.23.54.36.81a15.29 15.29 0 0 0 .57 1.43 2.52 2.52 0 0 0 .45 1.9 4.13 4.13 0 0 0 1 .85c.13.09.27.17.39.25a16 16 0 0 1 1.26 1l.25.22c.37.36.75.72 1.08 1.11l.44.56a3.87 3.87 0 0 0 1 1H9a2.43 2.43 0 0 0 1.93.29c.26.13.54.25.81.37l1.44.55a2.38 2.38 0 0 0 1.32 1.18 3.38 3.38 0 0 0 1.14.16h.42a6.57 6.57 0 0 1 1.41.28l.29.1A6.65 6.65 0 0 1 19 438a5.69 5.69 0 0 1 .51.38 3.89 3.89 0 0 0 1.09.69 2.35 2.35 0 0 0 1.76-.06l2.12.77a2.38 2.38 0 0 0 1.38 1.22 3.38 3.38 0 0 0 1.14.16h.42a6.57 6.57 0 0 1 1.41.28l.28.1a6.67 6.67 0 0 1 1.26.62 5.83 5.83 0 0 1 .51.38 3.88 3.88 0 0 0 1.09.69 2.35 2.35 0 0 0 1.76-.06l2.12.77a2.37 2.37 0 0 0 1.32 1.18 3.39 3.39 0 0 0 1.14.16h.42a6.58 6.58 0 0 1 1.41.28l.28.1a6.65 6.65 0 0 1 1.26.62 5.68 5.68 0 0 1 .51.38 3.89 3.89 0 0 0 1.09.69 2.35 2.35 0 0 0 1.76-.06l2.12.77a2.37 2.37 0 0 0 1.32 1.18 3.38 3.38 0 0 0 1.14.16h.42a6.58 6.58 0 0 1 1.41.28l.29.1a6.65 6.65 0 0 1 1.26.62 5.75 5.75 0 0 1 .51.38 3.88 3.88 0 0 0 1.09.69 2.35 2.35 0 0 0 1.76-.06l2.12.77a2.37 2.37 0 0 0 1.52 1.29 3.38 3.38 0 0 0 1.14.16h.42a6.57 6.57 0 0 1 1.41.28l.29.1a6.66 6.66 0 0 1 1.26.62 5.68 5.68 0 0 1 .51.38 3.89 3.89 0 0 0 1.09.69 2.35 2.35 0 0 0 1.76-.06l2.12.77a2.37 2.37 0 0 0 1.32 1.18 3.39 3.39 0 0 0 1.14.16h.42a6.57 6.57 0 0 1 1.41.28l.29.1a6.65 6.65 0 0 1 1.26.62 5.76 5.76 0 0 1 .51.38 3.88 3.88 0 0 0 1.09.69 2.35 2.35 0 0 0 1.76-.06l2.12.77a2.37 2.37 0 0 0 1.32 1.18 3.39 3.39 0 0 0 1.14.16h.42a6.58 6.58 0 0 1 1.41.28l.28.1a6.65 6.65 0 0 1 1.26.62 5.74 5.74 0 0 1 .51.38 3.89 3.89 0 0 0 1.09.69 2.35 2.35 0 0 0 1.76-.06l2.12.77a2.37 2.37 0 0 0 1.32 1.18 3.39 3.39 0 0 0 1.14.16h.42a6.58 6.58 0 0 1 1.41.28l.29.1a6.64 6.64 0 0 1 1.26.62 5.74 5.74 0 0 1 .51.38 3.88 3.88 0 0 0 1.09.69 2.35 2.35 0 0 0 1.77-.06l2.12.77a2.37 2.37 0 0 0 1.32 1.18 3.39 3.39 0 0 0 1.14.16h.42a6.58 6.58 0 0 1 1.41.28l.29.1a6.67 6.67 0 0 1 1.26.62 5.75 5.75 0 0 1 .51.38 3.88 3.88 0 0 0 1.09.69 2.35 2.35 0 0 0 1.77-.06l2.12.77a2.37 2.37 0 0 0 1.32 1.18 3.39 3.39 0 0 0 1.14.16h.42a6.58 6.58 0 0 1 1.41.28l.29.1a6.65 6.65 0 0 1 1.26.62 5.75 5.75 0 0 1 .51.38 3.89 3.89 0 0 0 1.09.69 2.35 2.35 0 0 0 1.77-.06l2.12.77a2.37 2.37 0 0 0 1.32 1.18 3.39 3.39 0 0 0 1.14.16h.42a6.59 6.59 0 0 1 1.41.28l.29.1a6.66 6.66 0 0 1 1.26.62 5.68 5.68 0 0 1 .51.38 3.88 3.88 0 0 0 1.09.69 2.35 2.35 0 0 0 1.77-.06l2.12.77a2.37 2.37 0 0 0 1.32 1.18 3.39 3.39 0 0 0 1.14.16h.42a6.58 6.58 0 0 1 1.41.28l.29.1a6.65 6.65 0 0 1 1.26.62 5.74 5.74 0 0 1 .51.38 3.88 3.88 0 0 0 1.09.69 2.36 2.36 0 0 0 1.77-.06l2.12.77a2.37 2.37 0 0 0 1.32 1.18 3.39 3.39 0 0 0 1.14.16h.42a6.59 6.59 0 0 1 1.41.28l.28.1a6.64 6.64 0 0 1 1.26.62 5.68 5.68 0 0 1 .51.38 3.88 3.88 0 0 0 1.09.69 2.36 2.36 0 0 0 1.77-.06l2.12.77a2.36 2.36 0 0 0 1.32 1.18 3.4 3.4 0 0 0 1.14.16h.42a6.59 6.59 0 0 1 1.41.28l.29.1a6.64 6.64 0 0 1 1.26.62 5.73 5.73 0 0 1 .51.38 3.88 3.88 0 0 0 1.09.69 2.36 2.36 0 0 0 1.77-.06l2.12.77a2.36 2.36 0 0 0 1.32 1.18 3.4 3.4 0 0 0 1.14.16h.42a6.59 6.59 0 0 1 1.42.28l.29.1a6.66 6.66 0 0 1 1.26.62 5.74 5.74 0 0 1 .51.38 3.87 3.87 0 0 0 1.09.69 2.36 2.36 0 0 0 1.77-.06l2.12.77a2.36 2.36 0 0 0 1.31 1.18 3.39 3.39 0 0 0 1.14.16h.42a6.58 6.58 0 0 1 1.41.28l.29.1a6.62 6.62 0 0 1 1.26.62 5.69 5.69 0 0 1 .51.38 3.88 3.88 0 0 0 1.09.69 2.36 2.36 0 0 0 1.77-.06l2.12.77a2.36 2.36 0 0 0 1.31 1.18 3.4 3.4 0 0 0 1.14.16h.42a6.59 6.59 0 0 1 1.42.28l.28.1a6.64 6.64 0 0 1 1.26.62 5.74 5.74 0 0 1 .51.38 3.87 3.87 0 0 0 1.09.69 2.36 2.36 0 0 0 1.77-.06l2.12.77a2.36 2.36 0 0 0 1.31 1.18 3.4 3.4 0 0 0 1.14.16h.42a6.59 6.59 0 0 1 2.22.81l.29.1a6.64 6.64 0 0 1 1.26.62 5.62 5.62 0 0 1 .51.38 3.87 3.87 0 0 0 1.09.69 2.32 2.32 0 0 0 1.74-.07l.75.27c.48.18.94.38 1.34.54a2.4 2.4 0 0 0 1.34 1.22 3.62 3.62 0 0 0 1.19.16h.49a7.45 7.45 0 0 1 1.47.24l.3.08a8.3 8.3 0 0 1 1.34.54 6.17 6.17 0 0 1 .56.34 3.77 3.77 0 0 0 1.2.59 2.38 2.38 0 0 0 1.8-.27l.82.17 1.46.27a2.38 2.38 0 0 0 1.57.91 3.34 3.34 0 0 0 1.19-.09l.43-.08a8.58 8.58 0 0 1 1.48-.07h.31a8.5 8.5 0 0 1 1.42.25 6.17 6.17 0 0 1 .62.22 4.1 4.1 0 0 0 1.29.32 2.42 2.42 0 0 0 1.71-.64h2.31a2.28 2.28 0 0 0 1.73.57 3.62 3.62 0 0 0 1.15-.33l.4-.16a10.6 10.6 0 0 1 1.44-.38h.31a7.12 7.12 0 0 1 1.45 0c.21 0 .43.06.65.09a4.1 4.1 0 0 0 1.33 0 2.35 2.35 0 0 0 1.54-1l.81-.19 1.45-.33a2.33 2.33 0 0 0 1.81.19 3.61 3.61 0 0 0 1.06-.55l.36-.24a7.32 7.32 0 0 1 1.32-.68l.29-.11a8.7 8.7 0 0 1 1.41-.33 6.09 6.09 0 0 1 .65-.06A4.12 4.12 0 0 0 263 511a2.3 2.3 0 0 0 1.3-1.27l.76-.34c.48-.22 1-.43 1.35-.63a2.45 2.45 0 0 0 1.81-.19 3.08 3.08 0 0 0 .92-.76l.3-.32a7.09 7.09 0 0 1 1.16-.93l.27-.16a9.33 9.33 0 0 1 1.3-.63 6.18 6.18 0 0 1 .63-.19 3.88 3.88 0 0 0 1.25-.48 2.47 2.47 0 0 0 1-1.52l.68-.48 1.17-.91a2.44 2.44 0 0 0 1.75-.54 3.63 3.63 0 0 0 .73-1l.23-.37a8.94 8.94 0 0 1 .95-1.14l.22-.22A7.09 7.09 0 0 1 282 498a6.26 6.26 0 0 1 .59-.31 3.78 3.78 0 0 0 1.1-.75 2.44 2.44 0 0 0 .69-1.69c.18-.2.37-.41.55-.62l1-1.12a2.3 2.3 0 0 0 1.58-.9 3.6 3.6 0 0 0 .53-1.07c.05-.14.1-.28.15-.4a8 8 0 0 1 .68-1.33l.17-.26a8.23 8.23 0 0 1 .95-1.09 6.09 6.09 0 0 1 .5-.43 4.11 4.11 0 0 0 .93-1 2.3 2.3 0 0 0 .31-1.79l.42-.72c.27-.46.52-.91.72-1.3a2.46 2.46 0 0 0 1.36-1.21 3.07 3.07 0 0 0 .3-1.16l.05-.43a7 7 0 0 1 .4-1.43l.12-.29a9.6 9.6 0 0 1 .68-1.28 6.13 6.13 0 0 1 .4-.52 4 4 0 0 0 .73-1.12 2.48 2.48 0 0 0-.08-1.83l.27-.79c.16-.51.3-1 .42-1.43a2.48 2.48 0 0 0 1.1-1.46 3.59 3.59 0 0 0 0-1.2v-.43a7.16 7.16 0 0 1 .11-1.48v-.3a7.11 7.11 0 0 1 .4-1.4 6.12 6.12 0 0 1 .29-.59 3.37 3.37 0 0 0 .46-1.25 2.46 2.46 0 0 0-.44-1.77c0-.27.06-.55.09-.83l.11-1.48a2.35 2.35 0 0 0 .77-1.66 3.64 3.64 0 0 0-.21-1.18l-.12-.42a9.58 9.58 0 0 1-.21-1.47v-.31a7.11 7.11 0 0 1 .11-1.44 6.19 6.19 0 0 1 .17-.64 3.52 3.52 0 0 0 .19-1.32 2.45 2.45 0 0 0-.79-1.64c0-.27 0-.55-.09-.83l-.19-1.47a2.31 2.31 0 0 0 .41-1.78 3.62 3.62 0 0 0-.45-1.11c-.07-.13-.14-.26-.2-.38a11.19 11.19 0 0 1-.52-1.39l-.08-.3a7.14 7.14 0 0 1-.18-1.44v-.66a4.09 4.09 0 0 0-.09-1.33 2.38 2.38 0 0 0-1.11-1.44c-.08-.26-.17-.52-.26-.79l-.48-1.41a2.32 2.32 0 0 0 0-1.82 3.61 3.61 0 0 0-.66-1l-.27-.34a7.38 7.38 0 0 1-.81-1.25l-.14-.28a8.86 8.86 0 0 1-.47-1.37 6.1 6.1 0 0 1-.12-.65 4.12 4.12 0 0 0-.35-1.29 2.3 2.3 0 0 0-1.4-1.17l-.42-.72c-.26-.46-.52-.91-.76-1.27a2.46 2.46 0 0 0-.36-1.79 3 3 0 0 0-.85-.84l-.35-.27a7.08 7.08 0 0 1-1-1.07l-.19-.25a8.67 8.67 0 0 1-.76-1.23 6.22 6.22 0 0 1-.25-.61 3.75 3.75 0 0 0-.6-1.19 2.47 2.47 0 0 0-1.61-.85l-.55-.63-1-1.08a2.42 2.42 0 0 0-.71-1.69 3.64 3.64 0 0 0-1-.63l-.39-.19a9.48 9.48 0 0 1-1.23-.83l-.24-.2a7.1 7.1 0 0 1-1-1.06 6.22 6.22 0 0 1-.36-.56 3.93 3.93 0 0 0-.85-1 2.42 2.42 0 0 0-1.74-.52l-.67-.49-1.21-.86a2.18 2.18 0 0 0-.21-.57l-1 3.85z" fill="#636c7c"/><path d="M199.93 396.46l-.06.22zM199.55 397.57zM199 398.54l-.09.12z" fill="#fff"/></g><g fill="#fcd535"><path d="M205.29 224.9c0 1.11.06 2.2.07 3.23l89.57.84c-2.18-1.35-4.79-3-7.57-4.83zM203.69 209.12c.11.64.2 1.26.3 1.88l64.6.58-3.59-2.46zM204.7 216.46q.17 1.59.29 3.12l76.51.71c-2.26-1.5-4.51-3-6.66-4.46zM402.49 236.73s-76.73-3.49-96.79-4.32l-100.43.95q-.09 1.62-.37 3.4l199.49 2v1l-200.53 2q-.48 1.86-1.08 3.81l152.87 1.7v1L201.29 250q-.74 2.06-1.59 4.17l138.46 1.6c17.19-10.55 51.81-14.34 78.7-14.7l-2.88-1.3z" style="mix-blend-mode:multiply"/></g><g style="mix-blend-mode:multiply"><g fill="#0b2c7f"><path d="M366.74 203.7l-1-.11a1.62 1.62 0 0 1-.11-.33c-.19-2.16-.19-2.16 2-2.16a13.71 13.71 0 0 1 2.3 0 1.77 1.77 0 0 1 1.19.79c.9 2 1.68 4.07 2.52 6.11a5.58 5.58 0 0 0 .6.86v-5.17l-1.17-.15a14.36 14.36 0 0 1 0-1.92.87.87 0 0 1 .66-.51h4.91a.93.93 0 0 1 .65.61 11.34 11.34 0 0 1 0 1.82l-1.15.12V214l1.09.14v2.23a44.76 44.76 0 0 1-4.75-.07c-.39 0-.77-.91-1-1.46-.88-2-1.7-4.05-2.7-6.08V214l1.25.13v2.18h-6.36v-2.19l1.07-.11zM482.73 208.9v2.1c.14 2.22-1.76 4.52-3.77 5.39a6.37 6.37 0 0 1-7.38-1.83 5.41 5.41 0 0 1-1.33-3.45v-4.41a6 6 0 0 1 3.46-5.23 5.71 5.71 0 0 1 4.43-.45 6 6 0 0 1 4.58 5.57c.01.78.01 1.54.01 2.31zm-7.75-.07v3.71c0 1.24.51 1.73 1.46 1.75s1.58-.63 1.59-1.75v-7.32c0-1.16-.59-1.75-1.59-1.73s-1.46.6-1.48 1.74.04 2.4.04 3.6zM417.16 216.42h-3.4c-.21 0-.47-.31-.61-.54-.54-.93-1.05-1.88-1.57-2.83a24.75 24.75 0 0 0-1.7-2.82v3.87l1.07.1v2.19h-6.37v-2.18l1.28-.15v-10.3l-1.33-.17a18.31 18.31 0 0 1 0-2c0-.17.4-.44.62-.44a52.35 52.35 0 0 1 6.62 0c3.55.4 5.3 2.84 4 6.46a2.79 2.79 0 0 1-1.26 1.56c-1.06.44-.77 1-.38 1.61a24.09 24.09 0 0 1 1.41 2.46c.32.72.69 1.11 1.58.81zm-7.3-12.72v3.81c1.62.1 2.38-.52 2.38-1.89s-.81-2.01-2.37-1.92zM422.93 216.36v-2.18l1.13-.11V203.7l-1-.1c-.06-.08-.12-.13-.13-.19-.23-2.3-.23-2.3 2.08-2.3h8.33c.73 0 1 .19 1 .95v3.72c-1.6.66-2.27-.38-2.8-1.38a1.2 1.2 0 0 0-1.32-.74h-2v3.5c0 .16.25.46.36.45a.72.72 0 0 0 .52-.37c.17-.41.14-1.14.37-1.22a6.37 6.37 0 0 1 1.9-.06v5.61h-2c-.32-.49.14-1.53-1.07-1.37v3.93h2.5c.2 0 .42-.25.56-.44a8 8 0 0 1 1.16-1.69 4.84 4.84 0 0 1 1.78-.47v4.86zM387.43 214.07l1 .1v2.21h-4.56v-2.12l.21.12a4.59 4.59 0 0 0 .81-1.08c1.09-3.06 2.13-6.15 3.2-9.22a15.86 15.86 0 0 1 .83-2.2 1.5 1.5 0 0 1 1-.73 18.52 18.52 0 0 1 3 0 1.1 1.1 0 0 1 .8.53c.34.78.56 1.6.83 2.41.85 2.55 1.7 5.1 2.53 7.66.24.75.39 1.54.59 2.33l1.39.11v2.22h-6.3v-2.22l1.09-.12c-.18-.7-.3-1.35-.53-2a.84.84 0 0 0-.63-.43c-1.34 0-2.68-.05-4 0a1.06 1.06 0 0 0-.74.56 13.62 13.62 0 0 0-.52 1.87zm3.35-9.88l-1.8 5.08h3.49zM341.93 210.35v3.72l1.1.1v2.17h-6.42v-2.16l1.13-.12c0-.33.05-.65.06-1 0-2.94.08-5.88 0-8.82 0-.3-.62-.58-.95-.88l-.33.19a11.26 11.26 0 0 1 0-1.85 1 1 0 0 1 .7-.59 49 49 0 0 1 6.62 0c3.09.36 5.06 2.39 4.22 5.84a3.32 3.32 0 0 1-2.34 2.55c-1.16.41-2.42.58-3.79.85zm0-6.65v3.8c1.44.12 2.35-.58 2.39-1.78s-.81-2.09-2.38-2.02zM446.11 203.58l-1.12.12V214c1.16.47 1.43-.54 1.87-1.17s.72-1.3 1.69-1.24a.85.85 0 0 1 .93.92 31.38 31.38 0 0 1 0 3.21 1 1 0 0 1-.64.67h-8.53c-.92 0-.66-.74-.68-1.26s-.14-1.07.67-1a6.87 6.87 0 0 0 .74-.06v-10.28c-.46-.34-1.43.17-1.43-1 0-1.52.11-1.72 1.66-1.72 1.27 0 2.55.05 3.81 0 .88 0 1.13.33 1.07 1.12-.07.45-.04.88-.04 1.39zM456 203.7l-1-.11a1.28 1.28 0 0 1-.11-.31c-.11-2.17-.11-2.17 2.06-2.17h3.41c.72 0 1.07.2 1 1v1.57c-1.43-.24-1.4.6-1.39 1.52v7.92a1.29 1.29 0 0 0 .5 1 .81.81 0 0 0 1.15-.57 3.65 3.65 0 0 1 1.07-1.62c.41-.31 1.1-.24 1.75-.35v4.81h-9.52v-2.17l1.08-.1zM357.9 214.07l1.08.09v2.21h-6.16v-2.17l1.1-.15v-10.34l-1.15-.13a14.67 14.67 0 0 1 0-1.93.86.86 0 0 1 .65-.51h4.91a1 1 0 0 1 .67.61 10.9 10.9 0 0 1 0 1.81l-1.15.14z"/></g></g><g fill="#c62020"><path d="M483.3 162.66s-19.67 7.33-29 9-68.33-6-117-12c-48.19-5.94-173.49-83.45-175.94-85H129c-12.23.11-23.52.37-24.7 1a12.42 12.42 0 0 0-5.56 9l60.87 1v1l-60.9 1a18.27 18.27 0 0 0 1.42 5.43L171 94.16v1l-69.22 1.08a38.6 38.6 0 0 0 3.71 5.18l84.19 1.25v1l-81 1.2c1.58 1.59 3.39 3.25 5.45 5l93.74 1.33v1l-89.18 1.27q3.16 2.36 7 4.86l100.56 1.37v1l-94.87 1.3q3.88 2.36 8.36 4.83l105.4 1.38v1l-98.88 1.29q4 2.36 7.64 4.81l111.47 1.4v1L159.19 139q3.17 2.35 6.06 4.77l115.52 1.41v1l-111.21 1.35q2.52 2.3 4.8 4.64l130 1.51v1l-126.31 1.46q2 2.28 3.88 4.59l125.43 1.45v1l-122.47 1.42q1.61 2.21 3.05 4.42l154.17 1.67v1l-151.49 1.64q1.23 2.1 2.33 4.18L328.86 179l164.27.68c-6.55-6.01-9.83-17.02-9.83-17.02zM195.14 181.87q1 2 1.8 4.05l75.93.91 3.34-5.83z" style="mix-blend-mode:multiply"/></g><path fill="none" stroke="#ccc" stroke-linecap="round" stroke-miterlimit="10" stroke-width="4" d="M455.73 151.42l17-5.36"/><path fill="none" stroke="#ccc" stroke-linecap="round" stroke-miterlimit="10" stroke-width="6" d="M459.8 162.07l16.23-5.12M457.06 168.28l24.78-7.81"/><circle cx="17.68" cy="419.85" r="4.5" transform="translate(-402.2 436.55) rotate(-89.87)" fill="#595f72" stroke="#a8aeb2" stroke-miterlimit="10" stroke-width="2"/><path d="M145.82 384.32c-36.27 4.4-63.54 15.07-61.9 23.71 1.68 8.8 31.57 11.47 64.81 7 33.38-4.72 51.06-12.06 51.33-19.5.41-7.21-17.99-15.01-54.24-11.21z" fill="none" stroke="#333" stroke-miterlimit="10" stroke-width="5"/><path d="M86.49 402.56l.45-.15a6.54 6.54 0 0 1 1.6-.27 6.48 6.48 0 0 1 1.6.21l.41.11a4 4 0 0 0 1.22.22 2.36 2.36 0 0 0 1.6-.68l2.31-.05a2.36 2.36 0 0 0 1.63.6 4.09 4.09 0 0 0 1.23-.28l.45-.15a6.54 6.54 0 0 1 1.6-.27 6.48 6.48 0 0 1 1.6.21l.41.11a4 4 0 0 0 1.22.22 2.36 2.36 0 0 0 1.6-.68l2.31-.05a2.36 2.36 0 0 0 1.63.6 4.09 4.09 0 0 0 1.23-.28l.45-.15a6.55 6.55 0 0 1 1.6-.27 6.47 6.47 0 0 1 1.59.21l.41.11a4 4 0 0 0 1.22.22 2.36 2.36 0 0 0 1.6-.68l2.31-.05a2.36 2.36 0 0 0 1.63.6 4.09 4.09 0 0 0 1.23-.28l.45-.15a6.54 6.54 0 0 1 1.6-.27 6.47 6.47 0 0 1 1.59.21l.41.11a4 4 0 0 0 1.22.22 2.36 2.36 0 0 0 1.6-.68l2.31-.05a2.36 2.36 0 0 0 1.63.6 4.08 4.08 0 0 0 1.23-.28l.45-.15A6.54 6.54 0 0 1 137 401a6.48 6.48 0 0 1 1.6.21l.41.11a4 4 0 0 0 1.22.22 2.36 2.36 0 0 0 1.6-.68l2.31-.05a2.36 2.36 0 0 0 1.63.6 4.09 4.09 0 0 0 1.23-.28l.45-.15a6.54 6.54 0 0 1 1.6-.27 6.48 6.48 0 0 1 1.6.21l.41.11a4 4 0 0 0 1.22.22 2.36 2.36 0 0 0 1.6-.68l2.31-.05a2.36 2.36 0 0 0 1.63.6 4.09 4.09 0 0 0 1.23-.28l.45-.15a6.54 6.54 0 0 1 1.6-.27 6.48 6.48 0 0 1 1.6.21l.41.11a4 4 0 0 0 1.22.22 2.36 2.36 0 0 0 1.6-.68l2.31-.05a2.36 2.36 0 0 0 1.63.6 4.09 4.09 0 0 0 1.23-.28l.45-.15a6.55 6.55 0 0 1 1.6-.27 6.48 6.48 0 0 1 1.6.21l.41.11a4 4 0 0 0 1.22.22 2.36 2.36 0 0 0 1.6-.68l2.31-.05a2.36 2.36 0 0 0 1.63.6 4.09 4.09 0 0 0 1.23-.28l.45-.15a6.54 6.54 0 0 1 1.6-.27 6.48 6.48 0 0 1 1.6.21l.41.11a4 4 0 0 0 1.22.22 2.36 2.36 0 0 0 1.6-.68l2.31-.05a2.36 2.36 0 0 0 1.63.6 4.09 4.09 0 0 0 1.23-.28l.45-.15a6.54 6.54 0 0 1 1.6-.27 5.07 5.07 0 0 1 .57 0 6.49 6.49 0 0 0 1.89-4.05l-.46.16-.4.14a6.6 6.6 0 0 1-1.42.26h-.3a6.64 6.64 0 0 1-1.4-.12 5.69 5.69 0 0 1-.62-.17 3.88 3.88 0 0 0-1.26-.24 2.36 2.36 0 0 0-1.62.7l-2.25.05a2.36 2.36 0 0 0-1.66-.62 3.4 3.4 0 0 0-1.12.27l-.4.14a6.59 6.59 0 0 1-1.42.26h-.3a6.65 6.65 0 0 1-1.4-.12 5.67 5.67 0 0 1-.62-.17 3.87 3.87 0 0 0-1.26-.24 2.36 2.36 0 0 0-1.62.7l-2.25.05a2.36 2.36 0 0 0-1.66-.62 3.4 3.4 0 0 0-1.12.27l-.4.14a6.59 6.59 0 0 1-1.42.26h-.3a6.64 6.64 0 0 1-1.4-.12 5.74 5.74 0 0 1-.62-.17 3.87 3.87 0 0 0-1.26-.24 2.36 2.36 0 0 0-1.62.7l-2.25.05a2.36 2.36 0 0 0-1.66-.62 3.4 3.4 0 0 0-1.12.27l-.4.14a6.6 6.6 0 0 1-1.42.26h-.3a6.64 6.64 0 0 1-1.4-.12 5.72 5.72 0 0 1-.62-.17 3.87 3.87 0 0 0-1.26-.24 2.36 2.36 0 0 0-1.62.7l-2.25.05a2.36 2.36 0 0 0-1.66-.62 3.4 3.4 0 0 0-1.12.27l-.4.14a6.59 6.59 0 0 1-1.42.26H149a6.64 6.64 0 0 1-1.4-.12 5.71 5.71 0 0 1-.6-.02 3.87 3.87 0 0 0-1.26-.24 2.36 2.36 0 0 0-1.62.7l-2.25.05a2.36 2.36 0 0 0-1.66-.62 3.39 3.39 0 0 0-1.12.27l-.4.14a6.59 6.59 0 0 1-1.42.26h-.3a6.64 6.64 0 0 1-1.4-.12 5.72 5.72 0 0 1-.62-.17 3.87 3.87 0 0 0-1.26-.24 2.36 2.36 0 0 0-1.62.7l-2.25.05a2.36 2.36 0 0 0-1.66-.62 3.4 3.4 0 0 0-1.12.27l-.4.14a6.59 6.59 0 0 1-1.42.26h-.3a6.64 6.64 0 0 1-1.4-.12 5.69 5.69 0 0 1-.62-.17 3.87 3.87 0 0 0-1.26-.24 2.36 2.36 0 0 0-1.62.7l-2.25.05a2.36 2.36 0 0 0-1.66-.62 3.4 3.4 0 0 0-1.12.27l-.4.14a6.59 6.59 0 0 1-1.42.26h-.3a6.64 6.64 0 0 1-1.4-.12 5.71 5.71 0 0 1-.62-.17 3.87 3.87 0 0 0-1.26-.24 2.36 2.36 0 0 0-1.62.7l-2.25.05a2.36 2.36 0 0 0-1.66-.62 3.4 3.4 0 0 0-1.12.27l-.4.14a6.6 6.6 0 0 1-1.42.26h-.3a6.64 6.64 0 0 1-1.4-.12 5.72 5.72 0 0 1-.62-.17 3.87 3.87 0 0 0-1.26-.24 2.36 2.36 0 0 0-1.62.7l-2.25.05a2.38 2.38 0 0 0-.67-.42 28 28 0 0 0-6.36 4.43zM273 404.17a3.6 3.6 0 0 0-1.12-.43l-.42-.11a7.58 7.58 0 0 1-1.39-.54l-.27-.15a8.57 8.57 0 0 1-1.18-.84 6.13 6.13 0 0 1-.48-.45 4.12 4.12 0 0 0-1-.84 2.3 2.3 0 0 0-1.82-.14l-.76-.34c-.48-.22-1-.43-1.36-.59a2.45 2.45 0 0 0-1.34-1.24 3.07 3.07 0 0 0-1.18-.18h-.44a7.07 7.07 0 0 1-1.46-.26l-.3-.09a9.75 9.75 0 0 1-1.33-.55 6.23 6.23 0 0 1-.56-.35 4.11 4.11 0 0 0-1.19-.62 2.49 2.49 0 0 0-1.81.26l-.81-.19-1.46-.29a2.48 2.48 0 0 0-1.56-.94 3.32 3.32 0 0 0-1.19.08l-.43.08a7 7 0 0 1-1.48 0h-.3a7.07 7.07 0 0 1-1.43-.26 6.21 6.21 0 0 1-.62-.23 3.45 3.45 0 0 0-1.29-.35 2.48 2.48 0 0 0-1.73.62h-2.28a2.33 2.33 0 0 0-1.65-.62 3.4 3.4 0 0 0-1.12.27l-.4.14a6.59 6.59 0 0 1-1.42.26h-.31a6.62 6.62 0 0 1-1.4-.12 5.64 5.64 0 0 1-.61-.17 3.85 3.85 0 0 0-1.26-.24 2.36 2.36 0 0 0-1.62.7l-2.25.05a2.36 2.36 0 0 0-1.66-.62 3.39 3.39 0 0 0-1.12.27l-.4.14a6.59 6.59 0 0 1-1.42.26h-.3a6.64 6.64 0 0 1-1.4-.12 5.72 5.72 0 0 1-.62-.17 3.87 3.87 0 0 0-1.26-.24 2.36 2.36 0 0 0-1.62.7l-2.25.05a2.36 2.36 0 0 0-1.66-.62 3.4 3.4 0 0 0-1.12.27l-.4.14a6.59 6.59 0 0 1-1.42.26h-.3a6.63 6.63 0 0 1-1.4-.12 5.69 5.69 0 0 1-.62-.17 3.87 3.87 0 0 0-1.26-.24 2.36 2.36 0 0 0-1.62.7l-2.25.05a2.36 2.36 0 0 0-1.66-.62 2.49 2.49 0 0 0-.66.12 4.93 4.93 0 0 1-.13.91l-.06.22a5.7 5.7 0 0 1-.32.9 7.2 7.2 0 0 1-.55 1l-.09.12a9.55 9.55 0 0 1-.74.94 7.74 7.74 0 0 1 1 .17l.41.11a4 4 0 0 0 1.22.22 2.36 2.36 0 0 0 1.6-.68l2.31-.05a2.36 2.36 0 0 0 1.63.6 4.08 4.08 0 0 0 1.23-.28l.45-.15a6.55 6.55 0 0 1 1.6-.27 6.47 6.47 0 0 1 1.59.21l.41.11a4 4 0 0 0 1.22.22 2.36 2.36 0 0 0 1.6-.68l2.31-.05a2.36 2.36 0 0 0 1.63.6 4.09 4.09 0 0 0 1.23-.28l.45-.15a6.54 6.54 0 0 1 1.6-.27 6.48 6.48 0 0 1 1.6.21l.41.11a4 4 0 0 0 1.22.22 2.36 2.36 0 0 0 1.6-.68l2.29-.05a2.33 2.33 0 0 0 1.62.6 4.09 4.09 0 0 0 1.23-.28l.45-.15a6.54 6.54 0 0 1 1.6-.27 6.44 6.44 0 0 1 1.59.21l.41.11a4 4 0 0 0 1.22.22 2.36 2.36 0 0 0 1.6-.68h2.26a2.23 2.23 0 0 0 1.53.68 4.88 4.88 0 0 0 1.2-.19l.45-.1a6.17 6.17 0 0 1 1.57-.11 5.72 5.72 0 0 1 1.5.44l.38.17a4.1 4.1 0 0 0 1.12.4 2.24 2.24 0 0 0 1.65-.36l1.39.27.79.18a2.23 2.23 0 0 0 1.37 1 3.82 3.82 0 0 0 1.21.08h.46a5 5 0 0 1 1.56.22 6.08 6.08 0 0 1 1.38.73l.33.24a4.7 4.7 0 0 0 1 .64 2.26 2.26 0 0 0 1.68 0c.39.15.84.36 1.31.57l.74.33a2.43 2.43 0 0 0 1.13 1.25 3.81 3.81 0 0 0 1.17.32l.45.08a5.08 5.08 0 0 1 1.46.55 6 6 0 0 1 1.21 1l.27.32a3.73 3.73 0 0 0 .85.84 2.4 2.4 0 0 0 1.65.33l.69.49 1-3.85a2.4 2.4 0 0 0-.75-.93z" fill="#636c7c"/><path d="M145.82 384.32c-36.27 4.4-63.54 15.07-61.9 23.71 1.68 8.8 31.57 11.47 64.81 7" fill="none" stroke="#333" stroke-miterlimit="10" stroke-width="5"/><path fill="none" stroke="#ccc" stroke-linecap="round" stroke-miterlimit="10" stroke-width="6" d="M481.72 253.05l21.95-7.25"/><circle cx="565.04" cy="434.68" r="4.5" transform="translate(129.04 998.7) rotate(-89.87)" fill="#595f72" stroke="#a8aeb2" stroke-miterlimit="10" stroke-width="2"/><path fill="none" stroke="#ccc" stroke-linecap="round" stroke-miterlimit="10" stroke-width="15" d="M460.6 132.84l-5.86-.01"/><path d="M592.64 123a25.51 25.51 0 0 1-20.11 9.82h-112" fill="none" stroke="#ccc" stroke-linecap="round" stroke-miterlimit="10" stroke-width="16"/><path d="M615 86.15l-2.55 11.42L592.64 123a25.51 25.51 0 0 1-10.64 8" fill="none" stroke="#f2f2f2" stroke-miterlimit="10" stroke-width="16"/><path fill="#333" d="M516.68 123.48h17.01v18.14h-17.01z"/><path fill="none" stroke="#333" stroke-linecap="round" stroke-miterlimit="10" stroke-width="16" d="M464.05 132.82h-2.84"/></g></svg>