<svg xmlns="http://www.w3.org/2000/svg" viewBox="0 0 342.01 342.01"><defs><clipPath id="ag"><path fill="#eee" d="M162.86 152.71z"/></clipPath><clipPath id="l"><path d="M140 102.23c0 .16.07.32.11.48l.13.48a75.33 75.33 0 0 1 17.34-4.81v-1a76.53 76.53 0 0 0-17.58 4.85z" fill="#eee" clip-path="url(#a)"/></clipPath><clipPath id="c"><path d="M315 174.59l1 .55a147 147 0 0 0-2.35-33.14l-1.06-.35a146 146 0 0 1 2.41 32.94z" fill="#eee" clip-path="url(#b)"/></clipPath><clipPath id="d"><path d="M310.91 172.43l1 .51a143 143 0 0 0-2.73-32.26l-1.06-.27a142 142 0 0 1 2.79 32.02z" fill="#eee" clip-path="url(#c)"/></clipPath><clipPath id="e"><path d="M273 160.12l1 .17a106.39 106.39 0 0 0-3.52-19.82c-.39-1.42-.82-2.82-1.27-4.21h-1c.48 1.46.93 2.94 1.34 4.44a105.41 105.41 0 0 1 3.45 19.42z" fill="#eee" clip-path="url(#d)"/></clipPath><clipPath id="f"><path d="M285.75 162.9l1 .29a118.74 118.74 0 0 0-4.19-26.06c-.07-.26-.15-.51-.22-.77l-1-.06c.1.36.22.72.32 1.09a117.76 117.76 0 0 1 4.09 25.51z" fill="#eee" clip-path="url(#e)"/></clipPath><clipPath id="g"><path d="M281.51 161.84l1 .25a114.62 114.62 0 0 0-4-23.85c-.19-.69-.39-1.37-.6-2.05h-1c.23.78.46 1.56.68 2.35a113.64 113.64 0 0 1 3.92 23.3z" fill="#eee" clip-path="url(#f)"/></clipPath><clipPath id="h"><path d="M290.37 164.22l.61.2a122.84 122.84 0 0 0-4.22-27.73l-1-.09a121.88 121.88 0 0 1 4.24 27.51z" fill="#eee" clip-path="url(#g)"/></clipPath><clipPath id="i"><path d="M272.54 136.16z" fill="#eee" clip-path="url(#h)"/></clipPath><clipPath id="j"><path d="M277.26 160.92l1 .21a110.48 110.48 0 0 0-3.74-21.77c-.3-1.08-.62-2.14-.94-3.2h-1c.36 1.14.7 2.29 1 3.45a109.52 109.52 0 0 1 3.68 21.31z" fill="#eee" clip-path="url(#i)"/></clipPath><clipPath id="k"><path d="M294.21 165.48l1 .32a126.89 126.89 0 0 0-4-28.64l-1-.12a126 126 0 0 1 4 28.44z" fill="#eee" clip-path="url(#j)"/></clipPath><clipPath id="m"><path d="M268.76 159.44l1 .13a102.3 102.3 0 0 0-3.3-18q-.72-2.59-1.56-5.1l-1 .07q.88 2.61 1.63 5.3a101.32 101.32 0 0 1 3.23 17.6z" fill="#eee" clip-path="url(#k)"/></clipPath><clipPath id="w"><path d="M143.53 114.34l.32.93a61.91 61.91 0 0 1 14.62-4.33c0-.32-.06-.65-.1-1a62.85 62.85 0 0 0-14.84 4.38z" fill="#eee" clip-path="url(#l)"/></clipPath><clipPath id="n"><path d="M263.89 136.55h-.39.39z" fill="#eee" clip-path="url(#m)"/></clipPath><clipPath id="o"><path d="M264.5 158.88l1 .13a98.11 98.11 0 0 0-3.06-16.31c-.55-2-1.17-3.94-1.83-5.87l-1 .09c.69 2 1.33 4 1.89 6a97.16 97.16 0 0 1 3 15.96z" fill="#eee" clip-path="url(#n)"/></clipPath><clipPath id="p"><path fill="#eee" clip-path="url(#o)" d="M151.98 177.53z"/></clipPath><clipPath id="q"><path d="M147.89 178.47a25.87 25.87 0 0 1-1-5.51l-.95.37a26.83 26.83 0 0 0 1 5.42c.18.62.38 1.22.6 1.81l.84-.57c-.17-.5-.38-.99-.49-1.52z" fill="#eee" clip-path="url(#p)"/></clipPath><clipPath id="r"><path d="M143.88 179.62a30.08 30.08 0 0 1-1-5.15l-1 .34a31.07 31.07 0 0 0 1 5.09q.43 1.51 1 2.95l.85-.54c-.28-.88-.59-1.77-.85-2.69z" fill="#eee" clip-path="url(#q)"/></clipPath><clipPath id="s"><path d="M151.07 171.27l-1 .41a22.69 22.69 0 0 0 .87 5.92l1-.06-.07-.21a21.66 21.66 0 0 1-.8-6.06z" fill="#eee" clip-path="url(#r)"/></clipPath><clipPath id="t"><path d="M133.84 177.36a38.9 38.9 0 0 0 2.81 9.67l.86-.48a37.93 37.93 0 0 1-2.72-9.46z" fill="#eee" clip-path="url(#s)"/></clipPath><clipPath id="u"><path d="M139.87 180.77a34.33 34.33 0 0 1-1-4.93l-.95.31a34.51 34.51 0 0 0 2.42 8.82l.86-.48a34.5 34.5 0 0 1-1.33-3.72z" fill="#eee" clip-path="url(#t)"/></clipPath><clipPath id="v"><path d="M101.88 182.71h-1a70.77 70.77 0 0 0 4.72 16.64l1-.26a69.78 69.78 0 0 1-4.69-16.43z" fill="#eee" clip-path="url(#u)"/></clipPath><clipPath id="x"><path d="M84 182.73A89.88 89.88 0 0 0 86.74 196q1 3.59 2.33 7l1-.15q-1.33-3.49-2.38-7.13a88.89 88.89 0 0 1-2.69-13z" fill="#eee" clip-path="url(#v)"/></clipPath><clipPath id="H"><path d="M142.25 110.35l.29.94a65.8 65.8 0 0 1 15.52-4.51c0-.33 0-.66-.07-1a66.7 66.7 0 0 0-15.73 4.55z" fill="#eee" clip-path="url(#w)"/></clipPath><clipPath id="y"><path d="M79.75 182.43a94 94 0 0 0 3 14.73q1 3.32 2.13 6.51l1-.15q-1.2-3.25-2.17-6.63a93 93 0 0 1-2.91-14.37z" fill="#eee" clip-path="url(#x)"/></clipPath><clipPath id="z"><path d="M97.67 182.9h-1a76.53 76.53 0 0 0 4.86 17.55l.48-.11.48-.13a75.33 75.33 0 0 1-4.83-17.33z" fill="#eee" clip-path="url(#y)"/></clipPath><clipPath id="A"><path d="M111.77 188.83a63.8 63.8 0 0 1-1.55-6.84l-1 .1a62.83 62.83 0 0 0 4.4 14.83l.93-.32a63.77 63.77 0 0 1-2.78-7.77z" fill="#eee" clip-path="url(#z)"/></clipPath><clipPath id="B"><path d="M105.07 182.48a66.71 66.71 0 0 0 4.57 15.73l.94-.29a65.8 65.8 0 0 1-4.53-15.51z" fill="#eee" clip-path="url(#A)"/></clipPath><clipPath id="C"><path d="M21.76 164.57l-1-.6a151 151 0 0 0 2.16 34l1.07.38a150.07 150.07 0 0 1-2.23-33.78z" fill="#eee" clip-path="url(#B)"/></clipPath><clipPath id="D"><path d="M92.46 183a81.49 81.49 0 0 0 2.31 10.73q1.13 4 2.63 7.7l1-.22A80.63 80.63 0 0 1 93.45 183h-1z" fill="#eee" clip-path="url(#C)"/></clipPath><clipPath id="E"><path d="M88.23 182.91a85.73 85.73 0 0 0 2.52 11.95c.73 2.53 1.57 5 2.5 7.41l1-.19c-1-2.44-1.81-4.93-2.55-7.5a84.66 84.66 0 0 1-2.47-11.66z" fill="#eee" clip-path="url(#D)"/></clipPath><clipPath id="F"><path d="M94.61 202l-.37.07z" fill="#eee" clip-path="url(#E)"/></clipPath><clipPath id="G"><path d="M130.75 178.19l-1 .25a42.65 42.65 0 0 0 3.13 10.5l.88-.45a41.7 41.7 0 0 1-3.06-10.3z" fill="#eee" clip-path="url(#F)"/></clipPath><clipPath id="I"><path d="M126.68 179.18l-1 .22a46.69 46.69 0 0 0 3.44 11.35l.89-.43a45.71 45.71 0 0 1-3.37-11.15z" fill="#eee" clip-path="url(#G)"/></clipPath><clipPath id="S"><path d="M142.65 23.67l-.38 1.07A150.07 150.07 0 0 1 176 22.51c.19-.32.4-.63.6-1a151 151 0 0 0-33.95 2.16z" fill="#eee" clip-path="url(#H)"/></clipPath><clipPath id="J"><path d="M119.79 186.53a55.48 55.48 0 0 1-1.31-5.71l-1 .16a55 55 0 0 0 4 13.08l.91-.36a55.36 55.36 0 0 1-2.6-7.17z" fill="#eee" clip-path="url(#I)"/></clipPath><clipPath id="K"><path d="M122.6 180.06l-1 .19a50.86 50.86 0 0 0 3.72 12.21l.9-.4a49.87 49.87 0 0 1-3.65-12z" fill="#eee" clip-path="url(#J)"/></clipPath><clipPath id="L"><path d="M114.36 181.46l-1 .13a58.94 58.94 0 0 0 4.2 14l.93-.33a58 58 0 0 1-4.16-13.75z" fill="#eee" clip-path="url(#K)"/></clipPath><clipPath id="M"><path d="M34.13 171l-1-.45a138.92 138.92 0 0 0 3.38 31.34l1.05.22A138 138 0 0 1 34.13 171z" fill="#eee" clip-path="url(#L)"/></clipPath><clipPath id="N"><path d="M41 202.77l-.29-.05z" fill="#eee" clip-path="url(#M)"/></clipPath><clipPath id="O"><path d="M38.32 172.73l-1-.4A134.9 134.9 0 0 0 41 202.76l1.06.18a134 134 0 0 1-3.74-30.21z" fill="#eee" clip-path="url(#N)"/></clipPath><clipPath id="P"><path d="M42.52 174.35l-1-.36a130.88 130.88 0 0 0 4 29.53l1 .15a129.92 129.92 0 0 1-4-29.32z" fill="#eee" clip-path="url(#O)"/></clipPath><clipPath id="Q"><path d="M25.86 166.88l-1-.55a147 147 0 0 0 2.61 33.1l1.07.34a146 146 0 0 1-2.68-32.89z" fill="#eee" clip-path="url(#P)"/></clipPath><clipPath id="R"><path d="M30 169l-1-.5a143 143 0 0 0 3 32.23l1.06.26A142 142 0 0 1 30 169z" fill="#eee" clip-path="url(#Q)"/></clipPath><clipPath id="T"><path d="M68 181l-1-.16a106.38 106.38 0 0 0 3.69 19.79c.41 1.42.85 2.81 1.31 4.2h1c-.49-1.46-1-2.93-1.38-4.43A105.41 105.41 0 0 1 68 181z" fill="#eee" clip-path="url(#R)"/></clipPath><clipPath id="ab"><path d="M139.06 98.09l.21 1a80.64 80.64 0 0 1 18.23-4.89v-.41-.58a81.49 81.49 0 0 0-10.74 2.29q-3.95 1.1-7.7 2.59z" fill="#eee" clip-path="url(#S)"/></clipPath><clipPath id="U"><path d="M55.22 178.32l-1-.28a118.74 118.74 0 0 0 4.42 26c.07.26.16.51.23.77h1l-.33-1.08a117.75 117.75 0 0 1-4.32-25.41z" fill="#eee" clip-path="url(#T)"/></clipPath><clipPath id="V"><path d="M59.48 179.34l-1-.24a114.62 114.62 0 0 0 4.18 23.81c.2.69.41 1.37.62 2h1c-.24-.78-.48-1.56-.7-2.34a113.64 113.64 0 0 1-4.1-23.23z" fill="#eee" clip-path="url(#U)"/></clipPath><clipPath id="W"><path d="M50.59 177l-.61-.19a122.84 122.84 0 0 0 4.46 27.69l1 .08A121.88 121.88 0 0 1 51 177.15z" fill="#eee" clip-path="url(#V)"/></clipPath><clipPath id="X"><path d="M68.67 204.94h.51-.51z" fill="#eee" clip-path="url(#W)"/></clipPath><clipPath id="Y"><path d="M63.73 180.22l-1-.2a110.47 110.47 0 0 0 3.93 21.74c.31 1.07.63 2.14 1 3.19h1c-.37-1.14-.72-2.28-1.06-3.44a109.52 109.52 0 0 1-3.87-21.29z" fill="#eee" clip-path="url(#X)"/></clipPath><clipPath id="Z"><path d="M46.74 175.82l-1-.32A126.89 126.89 0 0 0 50 204.11l1 .11a126 126 0 0 1-4.26-28.4z" fill="#eee" clip-path="url(#Y)"/></clipPath><clipPath id="aa"><path d="M71.24 181.5a102.3 102.3 0 0 0 3.45 18q.74 2.58 1.6 5.09l1-.08q-.9-2.6-1.67-5.28a101.31 101.31 0 0 1-3.4-17.57z" fill="#eee" clip-path="url(#Z)"/></clipPath><clipPath id="bQ"><path d="M77.7 204.44h-.39z" fill="#eee" clip-path="url(#aa)"/></clipPath><clipPath id="ac"><path d="M138.21 93.95c.06.33.12.66.19 1 2.44-.95 4.94-1.81 7.5-2.54a84.65 84.65 0 0 1 11.66-2.46v-1a85.71 85.71 0 0 0-11.95 2.5c-2.52.73-4.99 1.55-7.4 2.5z" fill="#eee" clip-path="url(#ab)"/></clipPath><clipPath id="ad"><path d="M138.46 95.3c0-.12 0-.24-.07-.37z" fill="#eee" clip-path="url(#ac)"/></clipPath><clipPath id="ae"><path d="M151.48 133.64l.45.88a41.7 41.7 0 0 1 10.31-3c-.08-.32-.17-.63-.25-1a42.66 42.66 0 0 0-10.51 3.12z" fill="#eee" clip-path="url(#ad)"/></clipPath><clipPath id="af"><path d="M149.67 129.88c.14.3.28.59.42.89a45.72 45.72 0 0 1 11.15-3.35c-.07-.32-.15-.64-.22-1a46.68 46.68 0 0 0-11.36 3.42z" fill="#eee" clip-path="url(#ae)"/></clipPath><clipPath id="ah"><path d="M146.38 122.2l.36.91a54.06 54.06 0 0 1 12.89-3.9c-.05-.32-.1-.65-.16-1a55 55 0 0 0-13.09 4z" fill="#eee" clip-path="url(#af)"/></clipPath><clipPath id="ar"><path d="M167.44 147.68l-.36-.95a26.84 26.84 0 0 0-5.42.95c-.62.18-1.22.38-1.81.6l.57.84c.5-.18 1-.34 1.52-.49a25.87 25.87 0 0 1 5.5-.95z" fill="#eee" clip-path="url(#ag)"/></clipPath><clipPath id="ai"><path d="M148 126.06l.4.9a49.87 49.87 0 0 1 12-3.64l-.19-1a50.86 50.86 0 0 0-12.22 3.7z" fill="#eee" clip-path="url(#ah)"/></clipPath><clipPath id="aj"><path d="M144.9 118.3l.33.93a58 58 0 0 1 13.77-4.14c0-.32-.08-.65-.12-1a58.94 58.94 0 0 0-14 4.18z" fill="#eee" clip-path="url(#ai)"/></clipPath><clipPath id="ak"><path d="M138.5 38.28a138 138 0 0 1 31.12-3.41l.45-1a138.92 138.92 0 0 0-31.35 3.33c-.08.38-.14.74-.22 1.08z" fill="#eee" clip-path="url(#aj)"/></clipPath><clipPath id="al"><path d="M137.79 41.73l.05-.29z" fill="#eee" clip-path="url(#ak)"/></clipPath><clipPath id="am"><path d="M137.61 42.78a134 134 0 0 1 30.22-3.73l.41-1a134.91 134.91 0 0 0-30.44 3.66z" fill="#eee" clip-path="url(#al)"/></clipPath><clipPath id="an"><path d="M136.88 47.26a129.92 129.92 0 0 1 29.33-4c.12-.33.24-.66.36-1A130.88 130.88 0 0 0 137 46.21q0 .53-.12 1.05z" fill="#eee" clip-path="url(#am)"/></clipPath><clipPath id="ao"><path d="M140.79 29.27a146 146 0 0 1 32.9-2.66c.18-.33.37-.64.55-1a147 147 0 0 0-33.11 2.56c-.13.39-.23.74-.34 1.1z" fill="#eee" clip-path="url(#an)"/></clipPath><clipPath id="ap"><path d="M139.57 33.78a142 142 0 0 1 32-3.05c.16-.33.33-.65.5-1a143 143 0 0 0-32.24 3c-.09.34-.17.7-.26 1.05z" fill="#eee" clip-path="url(#ao)"/></clipPath><clipPath id="aq"><path d="M135.7 72.68v1c1.46-.49 2.94-.95 4.43-1.38a105.41 105.41 0 0 1 19.36-3.61c.05-.33.1-.67.16-1a106.39 106.39 0 0 0-19.79 3.67c-1.38.42-2.77.86-4.16 1.32z" fill="#eee" clip-path="url(#ap)"/></clipPath><clipPath id="as"><path d="M135.7 59.56v1l1.08-.32a117.76 117.76 0 0 1 25.48-4.32c.09-.34.19-.67.28-1a118.74 118.74 0 0 0-26 4.38z" fill="#eee" clip-path="url(#aq)"/></clipPath><clipPath id="aC"><path d="M165.94 143.63l-.34-1a31.08 31.08 0 0 0-5.09 1q-1.52.43-2.95 1c.18.29.36.56.54.85.87-.34 1.77-.65 2.68-.91a30.08 30.08 0 0 1 5.16-.94z" fill="#eee" clip-path="url(#ar)"/></clipPath><clipPath id="at"><path d="M135.56 64v1c.78-.24 1.56-.48 2.34-.7a113.64 113.64 0 0 1 23.31-4.08c.08-.34.16-.67.24-1a114.62 114.62 0 0 0-23.82 4.14z" fill="#eee" clip-path="url(#as)"/></clipPath><clipPath id="au"><path d="M135.92 56.17a121.89 121.89 0 0 1 27.48-4.47l.11-.38c.06-.21.13-.41.2-.61A122.84 122.84 0 0 0 136 55.13z" fill="#eee" clip-path="url(#at)"/></clipPath><clipPath id="av"><path d="M135.59 69.87v-.52c-.01.18 0 .35 0 .52z" fill="#eee" clip-path="url(#au)"/></clipPath><clipPath id="aw"><path d="M135.56 68.33v1c1.14-.37 2.28-.72 3.44-1a109.52 109.52 0 0 1 21.27-3.85l.2-1a110.48 110.48 0 0 0-21.74 3.9c-1.05.29-2.11.62-3.17.95z" fill="#eee" clip-path="url(#av)"/></clipPath><clipPath id="ax"><path d="M136.32 51.73a126 126 0 0 1 28.41-4.26c.11-.33.21-.67.32-1a126.89 126.89 0 0 0-28.61 4.2c-.05.33-.08.71-.12 1.06z" fill="#eee" clip-path="url(#aw)"/></clipPath><clipPath id="ay"><path d="M136 77l.08 1q2.6-.9 5.28-1.67A101.32 101.32 0 0 1 158.89 73c0-.33.08-.67.12-1a102.29 102.29 0 0 0-18 3.43q-2.54.7-5.01 1.57z" fill="#eee" clip-path="url(#ax)"/></clipPath><clipPath id="az"><path d="M136.06 78.39V78z" fill="#eee" clip-path="url(#ay)"/></clipPath><clipPath id="aA"><path d="M136.34 81.28c0 .34.06.67.1 1 2-.7 4-1.36 6-1.94a97.17 97.17 0 0 1 15.89-3.12c0-.34.09-.67.12-1a98.1 98.1 0 0 0-16.29 3.18c-1.95.6-3.9 1.2-5.82 1.88z" fill="#eee" clip-path="url(#az)"/></clipPath><clipPath id="aB"><path fill="#eee" clip-path="url(#aA)" d="M177.49 189.51z"/></clipPath><clipPath id="aD"><path d="M172.89 194.52l.36 1a26.83 26.83 0 0 0 5.42-.93c.62-.17 1.22-.37 1.82-.59l-.56-.84c-.5.17-1 .34-1.52.48a25.87 25.87 0 0 1-5.52.88z" fill="#eee" clip-path="url(#aB)"/></clipPath><clipPath id="aN"><path d="M169.13 151.81c-.14-.32-.27-.65-.41-1a22.69 22.69 0 0 0-5.92.86l.06 1 .21-.07a21.66 21.66 0 0 1 6.06-.79z" fill="#eee" clip-path="url(#aC)"/></clipPath><clipPath id="aE"><path d="M174.38 198.58l.33 1a31.06 31.06 0 0 0 5.09-1q1.52-.43 3-1l-.53-.85c-.87.34-1.77.64-2.69.9a30.07 30.07 0 0 1-5.2.95z" fill="#eee" clip-path="url(#aD)"/></clipPath><clipPath id="aF"><path d="M171.22 190.38c.14.32.27.66.4 1a22.68 22.68 0 0 0 5.92-.84l-.05-1-.21.07a21.66 21.66 0 0 1-6.06.77z" fill="#eee" clip-path="url(#aE)"/></clipPath><clipPath id="aG"><path d="M176.95 206.69c.09.32.19.63.27 1a38.89 38.89 0 0 0 9.68-2.76c-.15-.29-.32-.57-.48-.86a37.93 37.93 0 0 1-9.48 2.67z" fill="#eee" clip-path="url(#aF)"/></clipPath><clipPath id="aH"><path d="M175.73 202.64l.3 1a34.52 34.52 0 0 0 8.84-2.37c-.16-.29-.31-.58-.48-.86a33.69 33.69 0 0 1-8.66 2.29z" fill="#eee" clip-path="url(#aG)"/></clipPath><clipPath id="aI"><path d="M182.4 239.64v1a70.77 70.77 0 0 0 16.71-4.64c-.09-.32-.16-.64-.25-1a69.79 69.79 0 0 1-16.45 4.61z" fill="#eee" clip-path="url(#aH)"/></clipPath><clipPath id="aJ"><path d="M182.38 256.52c0 .33 0 .66-.06 1a89.88 89.88 0 0 0 13.3-2.67q3.59-1 7-2.29c-.05-.33-.09-.66-.15-1q-3.49 1.31-7.15 2.34a88.91 88.91 0 0 1-12.94 2.62z" fill="#eee" clip-path="url(#aI)"/></clipPath><clipPath id="aK"><path d="M182.1 260.76c0 .33-.06.67-.09 1a94 94 0 0 0 14.74-2.89q3.32-.93 6.52-2.09c0-.33-.1-.66-.15-1q-3.25 1.18-6.64 2.14a93 93 0 0 1-14.38 2.84z" fill="#eee" clip-path="url(#aJ)"/></clipPath><clipPath id="aL"><path d="M182.57 243.85v1a76.53 76.53 0 0 0 17.58-4.77c0-.16-.07-.32-.11-.48l-.13-.48a75.34 75.34 0 0 1-17.36 4.74z" fill="#eee" clip-path="url(#aK)"/></clipPath><clipPath id="aM"><path d="M181.73 231.29c0 .32.06.65.09 1a62.82 62.82 0 0 0 14.86-4.32l-.32-.93a61.9 61.9 0 0 1-14.63 4.27z" fill="#eee" clip-path="url(#aL)"/></clipPath><clipPath id="aO"><path d="M182.12 235.46c0 .33 0 .66.07 1a66.7 66.7 0 0 0 15.75-4.49l-.29-.95a65.8 65.8 0 0 1-15.53 4.45z" fill="#eee" clip-path="url(#aM)"/></clipPath><clipPath id="aY"><path d="M153.39 137.37c.16.29.32.57.48.86a37.94 37.94 0 0 1 9.47-2.7c-.09-.32-.19-.63-.28-1a38.89 38.89 0 0 0-9.67 2.79z" fill="#eee" clip-path="url(#aN)"/></clipPath><clipPath id="aP"><path d="M163.83 319.65c-.2.32-.4.63-.6 1a151 151 0 0 0 34-2l.39-1.07a150.07 150.07 0 0 1-33.79 2.07z" fill="#eee" clip-path="url(#aO)"/></clipPath><clipPath id="aQ"><path d="M182.62 248.06v.99a81.48 81.48 0 0 0 10.74-2.25q4-1.11 7.72-2.59l-.21-1a80.64 80.64 0 0 1-18.24 4.82z" fill="#eee" clip-path="url(#aP)"/></clipPath><clipPath id="aR"><path d="M182.55 252.29v1a85.72 85.72 0 0 0 12-2.46c2.54-.71 5-1.54 7.43-2.46-.06-.33-.12-.66-.18-1a83.69 83.69 0 0 1-7.51 2.51 84.65 84.65 0 0 1-11.74 2.41z" fill="#eee" clip-path="url(#aQ)"/></clipPath><clipPath id="aS"><path d="M201.74 247.37l-.07-.36c0 .12 0 .24.07.37z" fill="#eee" clip-path="url(#aR)"/></clipPath><clipPath id="aT"><path d="M178 210.74c.08.32.17.63.25 1a42.63 42.63 0 0 0 10.52-3.08c-.15-.3-.3-.58-.45-.88a41.7 41.7 0 0 1-10.32 3z" fill="#eee" clip-path="url(#aS)"/></clipPath><clipPath id="aU"><path d="M179 214.81c.07.32.15.64.21 1a46.69 46.69 0 0 0 11.37-3.38c-.14-.3-.28-.59-.42-.89a45.73 45.73 0 0 1-11.16 3.27z" fill="#eee" clip-path="url(#aT)"/></clipPath><clipPath id="aV"><path d="M180.6 223c.05.32.1.65.15 1a55 55 0 0 0 13.1-3.91l-.36-.92A54.07 54.07 0 0 1 180.6 223z" fill="#eee" clip-path="url(#aU)"/></clipPath><clipPath id="aW"><path d="M179.86 218.9l.18 1a50.87 50.87 0 0 0 12.23-3.66l-.39-.9a49.87 49.87 0 0 1-12 3.59z" fill="#eee" clip-path="url(#aV)"/></clipPath><clipPath id="aX"><path d="M181.22 227.14c0 .32.08.65.12 1a59 59 0 0 0 14-4.13l-.33-.93a58 58 0 0 1-13.78 4.08z" fill="#eee" clip-path="url(#aW)"/></clipPath><clipPath id="aZ"><path d="M170.28 307.31l-.45 1a138.93 138.93 0 0 0 31.36-3.21c.08-.35.14-.7.22-1.05a138 138 0 0 1-31.13 3.26z" fill="#eee" clip-path="url(#aX)"/></clipPath><clipPath id="bj"><path d="M155.44 141c.16.28.32.58.48.86a33.7 33.7 0 0 1 8.65-2.32l-.31-.95a34.52 34.52 0 0 0-8.83 2.41z" fill="#eee" clip-path="url(#aY)"/></clipPath><clipPath id="ba"><path d="M202.14 300.58l-.05.29z" fill="#eee" clip-path="url(#aZ)"/></clipPath><clipPath id="bb"><path d="M172.09 303.14l-.41 1a134.9 134.9 0 0 0 30.45-3.54l.19-1.06a134 134 0 0 1-30.23 3.6z" fill="#eee" clip-path="url(#ba)"/></clipPath><clipPath id="bc"><path d="M173.72 299c-.12.33-.24.66-.36 1a130.88 130.88 0 0 0 29.55-3.84q.08-.52.16-1a129.92 129.92 0 0 1-29.35 3.84z" fill="#eee" clip-path="url(#bb)"/></clipPath><clipPath id="bd"><path d="M166.17 315.57c-.18.33-.37.64-.55 1a147 147 0 0 0 33.12-2.43c.11-.36.23-.71.34-1.06a146 146 0 0 1-32.91 2.49z" fill="#eee" clip-path="url(#bc)"/></clipPath><clipPath id="be"><path d="M168.32 311.46c-.16.33-.34.65-.5 1a143 143 0 0 0 32.25-2.84c.1-.35.17-.71.27-1.06a142 142 0 0 1-32.02 2.9z" fill="#eee" clip-path="url(#bd)"/></clipPath><clipPath id="bf"><path d="M180.5 273.52c-.06.33-.11.67-.17 1a106.37 106.37 0 0 0 19.81-3.59c1.42-.4 2.82-.83 4.21-1.28v-1c-1.46.48-2.94.94-4.44 1.36a105.41 105.41 0 0 1-19.41 3.51z" fill="#eee" clip-path="url(#be)"/></clipPath><clipPath id="bg"><path d="M177.76 286.27c-.09.34-.19.67-.28 1a118.75 118.75 0 0 0 26-4.28l.77-.23.05-1-1.09.32a117.75 117.75 0 0 1-25.45 4.19z" fill="#eee" clip-path="url(#bf)"/></clipPath><clipPath id="bh"><path d="M178.8 282c-.08.34-.16.67-.24 1a114.62 114.62 0 0 0 23.84-4l2.05-.6v-1c-.78.24-1.56.47-2.35.69a113.65 113.65 0 0 1-23.3 3.91z" fill="#eee" clip-path="url(#bg)"/></clipPath><clipPath id="bi"><path d="M176.46 290.89c-.06.21-.13.41-.2.61a122.83 122.83 0 0 0 27.74-4.31l.09-1a121.88 121.88 0 0 1-27.5 4.36z" fill="#eee" clip-path="url(#bh)"/></clipPath><clipPath id="bk"><path d="M204.46 273v-.51.52z" fill="#eee" clip-path="url(#bi)"/></clipPath><clipPath id="bu"><path d="M141.07 106.31c.09.32.16.64.26 1a69.77 69.77 0 0 1 16.44-4.67v-1a70.77 70.77 0 0 0-16.65 4.7z" fill="#eee" clip-path="url(#bj)"/></clipPath><clipPath id="bl"><path d="M179.71 277.77l-.2 1a110.48 110.48 0 0 0 21.76-3.82c1.07-.3 2.14-.62 3.2-1v-1c-1.14.36-2.29.71-3.45 1a109.53 109.53 0 0 1-21.31 3.82z" fill="#eee" clip-path="url(#bk)"/></clipPath><clipPath id="bm"><path d="M175.22 294.74c-.11.33-.21.67-.32 1a126.88 126.88 0 0 0 28.63-4.1c0-.35.08-.7.11-1a126 126 0 0 1-28.42 4.1z" fill="#eee" clip-path="url(#bl)"/></clipPath><clipPath id="bn"><path d="M181.16 269.26c0 .33-.08.67-.13 1a102.3 102.3 0 0 0 18-3.36q2.58-.73 5.1-1.58l-.07-1q-2.61.89-5.29 1.65a101.3 101.3 0 0 1-17.61 3.29z" fill="#eee" clip-path="url(#bm)"/></clipPath><clipPath id="bo"><path d="M204 264.31v-.39.39z" fill="#eee" clip-path="url(#bn)"/></clipPath><clipPath id="bp"><path d="M181.71 265c0 .34-.09.67-.13 1a98.11 98.11 0 0 0 16.3-3.12c2-.56 3.94-1.18 5.86-1.85 0-.34-.06-.67-.09-1-2 .7-4 1.34-6 1.92a97.17 97.17 0 0 1-15.94 3.05z" fill="#eee" clip-path="url(#bo)"/></clipPath><clipPath id="bq"><path fill="#eee" clip-path="url(#bp)" d="M188.99 162.83z"/></clipPath><clipPath id="br"><path d="M194 161.67c-.17-.62-.37-1.22-.58-1.82l-.84.56c.17.5.33 1 .48 1.52a25.87 25.87 0 0 1 .9 5.52l1-.36a26.84 26.84 0 0 0-.96-5.42z" fill="#eee" clip-path="url(#bq)"/></clipPath><clipPath id="bs"><path d="M198.05 160.55q-.42-1.52-1-3l-.85.53c.33.87.63 1.77.89 2.69A30.08 30.08 0 0 1 198 166l1-.33a31.07 31.07 0 0 0-.95-5.12z" fill="#eee" clip-path="url(#br)"/></clipPath><clipPath id="bt"><path d="M189.84 169.11l1-.4a22.69 22.69 0 0 0-.82-5.92h-1l.07.21a21.66 21.66 0 0 1 .75 6.11z" fill="#eee" clip-path="url(#bs)"/></clipPath><clipPath id="bv"><path d="M206.17 163.44l1-.27a38.9 38.9 0 0 0-2.72-9.69l-.87.48a37.94 37.94 0 0 1 2.63 9.49z" fill="#eee" clip-path="url(#bt)"/></clipPath><clipPath id="bF"><path d="M137.46 89.76c.05.33.09.66.15 1 2.33-.88 4.7-1.68 7.14-2.37a88.87 88.87 0 0 1 13-2.67c0-.33 0-.66.05-1a89.88 89.88 0 0 0-13.29 2.72q-3.62 1.02-7.05 2.32z" fill="#eee" clip-path="url(#bu)"/></clipPath><clipPath id="bw"><path d="M202.08 159.44a35.46 35.46 0 0 0-1.36-3.94l-.86.47a33.69 33.69 0 0 1 2.26 8.67l1-.3a35.37 35.37 0 0 0-1.04-4.9z" fill="#eee" clip-path="url(#bv)"/></clipPath><clipPath id="bx"><path d="M239.14 158.1h1a70.77 70.77 0 0 0-4.57-16.68l-1 .25a69.78 69.78 0 0 1 4.55 16.47z" fill="#eee" clip-path="url(#bw)"/></clipPath><clipPath id="by"><path d="M256 158.18l1 .06a89.88 89.88 0 0 0-2.62-13.31q-1-3.59-2.27-7l-1 .14q1.3 3.5 2.32 7.15a88.89 88.89 0 0 1 2.57 12.96z" fill="#eee" clip-path="url(#bx)"/></clipPath><clipPath id="bz"><path d="M260.26 158.48l1 .1a94 94 0 0 0-2.84-14.75q-.92-3.33-2.07-6.53l-1 .14q1.17 3.26 2.11 6.65a93 93 0 0 1 2.8 14.39z" fill="#eee" clip-path="url(#by)"/></clipPath><clipPath id="bA"><path d="M238.67 140.57a75.33 75.33 0 0 1 4.68 17.37h1a76.53 76.53 0 0 0-4.7-17.6l-.48.11z" fill="#eee" clip-path="url(#bz)"/></clipPath><clipPath id="bB"><path d="M227.5 143.78l-.93.31a61.92 61.92 0 0 1 4.22 14.65l1-.09a62.83 62.83 0 0 0-4.27-14.87z" fill="#eee" clip-path="url(#bA)"/></clipPath><clipPath id="bC"><path d="M235 158.37l1-.06a66.7 66.7 0 0 0-4.43-15.77l-.95.28a65.79 65.79 0 0 1 4.4 15.55z" fill="#eee" clip-path="url(#bB)"/></clipPath><clipPath id="bD"><path d="M319.09 176.95l1 .61a151 151 0 0 0-1.86-34l-1.07-.39a150.07 150.07 0 0 1 1.93 33.78z" fill="#eee" clip-path="url(#bC)"/></clipPath><clipPath id="bE"><path d="M248 157.9h.58a81.51 81.51 0 0 0-2.21-10.75q-1.1-4-2.57-7.73l-1 .21a80.62 80.62 0 0 1 4.76 18.26z" fill="#eee" clip-path="url(#bD)"/></clipPath><clipPath id="bG"><path d="M252.79 158a85.72 85.72 0 0 0-2.42-12c-.7-2.54-1.52-5-2.44-7.44l-1 .18c.93 2.45 1.77 4.95 2.48 7.52a84.65 84.65 0 0 1 2.38 11.74z" fill="#eee" clip-path="url(#bE)"/></clipPath><clipPath id="a"><path d="M136.83 85.54c0 .33.1.66.15 1q3.25-1.19 6.63-2.16a93 93 0 0 1 14.39-2.9c0-.33.06-.67.09-1a94 94 0 0 0-14.73 2.95q-3.36.94-6.53 2.11z" fill="#eee" clip-path="url(#bF)"/></clipPath><clipPath id="bH"><path d="M246.57 138.86l.37-.07z" fill="#eee" clip-path="url(#bG)"/></clipPath><clipPath id="bI"><path d="M210.23 162.36l1-.24a42.64 42.64 0 0 0-3-10.53l-.88.44a41.7 41.7 0 0 1 3 10.33z" fill="#eee" clip-path="url(#bH)"/></clipPath><clipPath id="bJ"><path d="M214.3 161.41l1-.21a46.68 46.68 0 0 0-3.34-11.38l-.89.42a45.72 45.72 0 0 1 3.27 11.18z" fill="#eee" clip-path="url(#bI)"/></clipPath><clipPath id="bK"><path d="M222.51 159.85l1-.15a55 55 0 0 0-3.86-13.12l-.92.35a54.05 54.05 0 0 1 3.81 12.91z" fill="#eee" clip-path="url(#bJ)"/></clipPath><clipPath id="bL"><path d="M217.23 155.24a51.19 51.19 0 0 1 1.17 5.33l1-.18a50.86 50.86 0 0 0-3.61-12.25l-.9.39a51.17 51.17 0 0 1 2.34 6.71z" fill="#eee" clip-path="url(#bK)"/></clipPath><clipPath id="bM"><path d="M225.28 153a59.58 59.58 0 0 1 1.36 6.23l1-.12a58.94 58.94 0 0 0-4.08-14l-.93.32a59.57 59.57 0 0 1 2.65 7.57z" fill="#eee" clip-path="url(#bL)"/></clipPath><clipPath id="bN"><path d="M306.77 170.45l1 .46a138.92 138.92 0 0 0-3.1-31.37l-1.05-.23a138 138 0 0 1 3.15 31.14z" fill="#eee" clip-path="url(#bM)"/></clipPath><clipPath id="bO"><path d="M300.15 138.58l.29.05z" fill="#eee" clip-path="url(#bN)"/></clipPath><clipPath id="bP"><path d="M302.6 168.64l1 .41a134.89 134.89 0 0 0-3.43-30.46l-1.06-.19a134 134 0 0 1 3.49 30.24z" fill="#eee" clip-path="url(#bO)"/></clipPath><clipPath id="b"><path d="M298.42 167l1 .37a130.89 130.89 0 0 0-3.73-29.56l-1-.16a129.92 129.92 0 0 1 3.73 29.35z" fill="#eee" clip-path="url(#bP)"/></clipPath><clipPath id="bR"><path d="M75.5 182a98.12 98.12 0 0 0 3.21 16.28c.57 2 1.2 3.93 1.88 5.85l1-.1c-.71-2-1.36-4-1.95-6a97.15 97.15 0 0 1-3.15-15.89z" fill="#eee" clip-path="url(#bQ)"/></clipPath></defs><title>wheel</title><circle cx="171" cy="171" r="164.47" transform="translate(-8.72 9.18) rotate(-3)" fill="#eee"/><path d="M74.33 239.24a117.74 117.74 0 0 1-21.42-61.06 122.48 122.48 0 0 1-37.48-17.31 157.47 157.47 0 0 0-.11 18.3 155.37 155.37 0 0 0 16 61.21 126.15 126.15 0 0 0 43.01-1.14zM266.94 101.74a117.74 117.74 0 0 1 22.14 61.9 120.64 120.64 0 0 1 37.45 18.18 157.44 157.44 0 0 0 .16-19 155.36 155.36 0 0 0-16.29-61.71 125 125 0 0 0-43.46.63zM100.19 32.07a126.29 126.29 0 0 0 1.22 43.24A117.71 117.71 0 0 1 162.56 53a121.9 121.9 0 0 1 17.65-37.62 157.55 157.55 0 0 0-17.37-.06 155.35 155.35 0 0 0-62.65 16.75z" fill="#c62020"/><path d="M238.9 267.91a117.76 117.76 0 0 1-61.71 21.25h-.09a121.23 121.23 0 0 1-17.84 37.32 157.42 157.42 0 0 0 19.89.21 155.4 155.4 0 0 0 60.26-15.56 124.8 124.8 0 0 0-.51-43.22z" fill="#ca0000"/><path d="M116.12 224.35a76.22 76.22 0 0 1-20.66-41 148.16 148.16 0 0 1-42.55-5.2 117.74 117.74 0 0 0 21.42 61.06 150.38 150.38 0 0 0 39.77-13.82c.68-.32 1.34-.68 2.02-1.04zM224.68 116.42a76.27 76.27 0 0 1 21.73 41.4 147.24 147.24 0 0 1 42.68 5.82 117.74 117.74 0 0 0-22.14-61.9 150.08 150.08 0 0 0-41.11 14.07zM116.49 117.25a76.27 76.27 0 0 1 40.71-21.54A147.94 147.94 0 0 1 162.56 53a117.71 117.71 0 0 0-61.16 22.32 150.47 150.47 0 0 0 13.76 39.43c.44.84.84 1.67 1.33 2.5zM224.42 225.82a76.22 76.22 0 0 1-41.67 20.84 147.48 147.48 0 0 1-5.65 42.5h.09a117.76 117.76 0 0 0 61.71-21.25 150 150 0 0 0-14.13-41.43z" fill="#fcd535"/><path d="M174.41 176.92l1-.59zM175.33 157.89c-.86.63-1.72 1.25-2.6 1.86.18.34.36.67.54 1q1-1.43 2.06-2.86z" fill="#01207d"/><path d="M164.61 183.33c-1.71 1.24-3.38 2.51-5 3.83a104.35 104.35 0 0 1 7-15.64q-3.27-2-6.47-4.21a145.48 145.48 0 0 1-59.69 15.88c-1.67.09-3.32.14-5 .17a76.22 76.22 0 0 0 20.66 41c20.19-10.7 36.69-25.05 48.5-41.03zM175.33 157.89c1.71-1.24 3.38-2.51 5-3.83a102.2 102.2 0 0 1-4.64 11.11q2.44 4.25 5.15 8.2A145.84 145.84 0 0 1 239.5 158q3.47-.18 6.9-.21a76.27 76.27 0 0 0-21.73-41.4c-20.57 10.76-37.37 25.29-49.34 41.5z" fill="#0b2c7f"/><path d="M167.21 181.47c.51-.35 1-.69 1.56-1 .68-.45 1.36-.9 2-1.34l2-1.23 1.6-1 1-.6q-2.28-1.11-4.54-2.34-2.87 4.75-6.27 9.35c.86-.63 1.72-1.25 2.6-1.86z" fill="#01207d"/><path d="M166.6 171.52a104.35 104.35 0 0 0-7 15.64c1.61-1.32 3.28-2.59 5-3.83q3.39-4.59 6.27-9.35-2.15-1.17-4.27-2.46zM175.68 165.17a102.2 102.2 0 0 0 4.64-11.11c-1.61 1.32-3.28 2.59-5 3.83q-1.06 1.43-2.06 2.88 1.18 2.23 2.42 4.4z" fill="#01207d"/><path d="M160.12 167.31a122.54 122.54 0 0 0 12.6-7.56 145.84 145.84 0 0 1-15.34-58.68c-.09-1.8-.15-3.58-.18-5.36a76.27 76.27 0 0 0-40.71 21.54c11.3 21.16 26.63 38.24 43.63 50.06z" fill="#0b2c7f"/><path d="M175.41 176.32c1.44-.82 2.89-1.64 4.38-2.41q-2.22 1.17-4.38 2.41zM182.7 176c-.63-.87-1.26-1.73-1.87-2.62l-1 .54c.95.66 1.91 1.36 2.87 2.08zM172.72 159.75a122.54 122.54 0 0 1-12.6 7.56q3.2 2.23 6.47 4.21a117.22 117.22 0 0 1 6.67-10.75c-.17-.34-.36-.68-.54-1.02z" fill="#01207d"/><path d="M175.41 176.32q2.16-1.24 4.39-2.41l1-.54q-2.71-3.94-5.15-8.2-2.17 4.46-4.8 8.82 2.28 1.23 4.56 2.33z" fill="#01207d"/><path d="M175.68 165.17q-1.24-2.16-2.41-4.4a117.22 117.22 0 0 0-6.67 10.75q2.13 1.28 4.28 2.46 2.63-4.35 4.8-8.81z" fill="#01207d"/><path d="M182.7 176c1.24 1.7 2.51 3.37 3.82 5a102.2 102.2 0 0 1-11.09-4.64l-1 .59-1.6 1-2 1.23c-.69.44-1.37.89-2 1.34-.52.35-1.05.69-1.56 1a145.84 145.84 0 0 1 15.34 58.68q.17 3.27.21 6.51a76.22 76.22 0 0 0 41.67-20.84C213.67 205 199 188.06 182.7 176z" fill="#0b2c7f"/><path fill="#01207d" d="M167.21 181.47zM179.8 173.91c-1.49.78-2.94 1.59-4.38 2.41a102.2 102.2 0 0 0 11.1 4.68c-1.31-1.6-2.58-3.27-3.82-5-1-.71-1.92-1.41-2.89-2.08z"/><g><path fill="#eee" d="M162.86 152.71zM167.44 147.68l-.36-.95a26.84 26.84 0 0 0-5.42.95c-.62.18-1.22.38-1.81.6l.57.84c.5-.18 1-.34 1.52-.49a25.87 25.87 0 0 1 5.5-.95zM165.94 143.63l-.34-1a31.08 31.08 0 0 0-5.09 1q-1.52.43-2.95 1c.18.29.36.56.54.85.87-.34 1.77-.65 2.68-.91a30.08 30.08 0 0 1 5.16-.94zM169.13 151.81c-.14-.32-.27-.65-.41-1a22.69 22.69 0 0 0-5.92.86l.06 1 .21-.07a21.66 21.66 0 0 1 6.06-.79zM153.39 137.37c.16.29.32.57.48.86a37.94 37.94 0 0 1 9.47-2.7c-.09-.32-.19-.63-.28-1a38.89 38.89 0 0 0-9.67 2.79zM155.44 141c.16.28.32.58.48.86a33.7 33.7 0 0 1 8.65-2.32l-.31-.95a34.52 34.52 0 0 0-8.83 2.41zM141.07 106.31c.09.32.16.64.26 1a69.77 69.77 0 0 1 16.44-4.67v-1a70.77 70.77 0 0 0-16.65 4.7zM137.46 89.76c.05.33.09.66.15 1 2.33-.88 4.7-1.68 7.14-2.37a88.87 88.87 0 0 1 13-2.67c0-.33 0-.66.05-1a89.88 89.88 0 0 0-13.29 2.72q-3.62 1.02-7.05 2.32zM136.83 85.54c0 .33.1.66.15 1q3.25-1.19 6.63-2.16a93 93 0 0 1 14.39-2.9c0-.33.06-.67.09-1a94 94 0 0 0-14.73 2.95q-3.36.94-6.53 2.11zM140 102.23c0 .16.07.32.11.48l.13.48a75.33 75.33 0 0 1 17.34-4.81v-1a76.53 76.53 0 0 0-17.58 4.85zM143.53 114.34l.32.93a61.91 61.91 0 0 1 14.62-4.33c0-.32-.06-.65-.1-1a62.85 62.85 0 0 0-14.84 4.38zM142.25 110.35l.29.94a65.8 65.8 0 0 1 15.52-4.51c0-.33 0-.66-.07-1a66.7 66.7 0 0 0-15.73 4.55zM142.65 23.67l-.38 1.07A150.07 150.07 0 0 1 176 22.51c.19-.32.4-.63.6-1a151 151 0 0 0-33.95 2.16zM139.06 98.09l.21 1a80.64 80.64 0 0 1 18.23-4.89v-.41-.58a81.49 81.49 0 0 0-10.74 2.29q-3.95 1.1-7.7 2.59zM138.21 93.95c.06.33.12.66.19 1 2.44-.95 4.94-1.81 7.5-2.54a84.65 84.65 0 0 1 11.66-2.46v-1a85.71 85.71 0 0 0-11.95 2.5c-2.52.73-4.99 1.55-7.4 2.5z"/><path d="M138.46 95.3c0-.12 0-.24-.07-.37zM151.48 133.64l.45.88a41.7 41.7 0 0 1 10.31-3c-.08-.32-.17-.63-.25-1a42.66 42.66 0 0 0-10.51 3.12zM149.67 129.88c.14.3.28.59.42.89a45.72 45.72 0 0 1 11.15-3.35c-.07-.32-.15-.64-.22-1a46.68 46.68 0 0 0-11.36 3.42zM146.38 122.2l.36.91a54.06 54.06 0 0 1 12.89-3.9c-.05-.32-.1-.65-.16-1a55 55 0 0 0-13.09 4zM148 126.06l.4.9a49.87 49.87 0 0 1 12-3.64l-.19-1a50.86 50.86 0 0 0-12.22 3.7zM144.9 118.3l.33.93a58 58 0 0 1 13.77-4.14c0-.32-.08-.65-.12-1a58.94 58.94 0 0 0-14 4.18zM138.5 38.28a138 138 0 0 1 31.12-3.41l.45-1a138.92 138.92 0 0 0-31.35 3.33c-.08.38-.14.74-.22 1.08zM137.79 41.73l.05-.29zM137.61 42.78a134 134 0 0 1 30.22-3.73l.41-1a134.91 134.91 0 0 0-30.44 3.66zM136.88 47.26a129.92 129.92 0 0 1 29.33-4c.12-.33.24-.66.36-1A130.88 130.88 0 0 0 137 46.21q0 .53-.12 1.05zM140.79 29.27a146 146 0 0 1 32.9-2.66c.18-.33.37-.64.55-1a147 147 0 0 0-33.11 2.56c-.13.39-.23.74-.34 1.1zM139.57 33.78a142 142 0 0 1 32-3.05c.16-.33.33-.65.5-1a143 143 0 0 0-32.24 3c-.09.34-.17.7-.26 1.05zM135.7 72.68v1c1.46-.49 2.94-.95 4.43-1.38a105.41 105.41 0 0 1 19.36-3.61c.05-.33.1-.67.16-1a106.39 106.39 0 0 0-19.79 3.67c-1.38.42-2.77.86-4.16 1.32zM135.7 59.56v1l1.08-.32a117.76 117.76 0 0 1 25.48-4.32c.09-.34.19-.67.28-1a118.74 118.74 0 0 0-26 4.38zM135.56 64v1c.78-.24 1.56-.48 2.34-.7a113.64 113.64 0 0 1 23.31-4.08c.08-.34.16-.67.24-1a114.62 114.62 0 0 0-23.82 4.14zM135.92 56.17a121.89 121.89 0 0 1 27.48-4.47l.11-.38c.06-.21.13-.41.2-.61A122.84 122.84 0 0 0 136 55.13zM135.59 69.87v-.52c-.01.18 0 .35 0 .52zM135.56 68.33v1c1.14-.37 2.28-.72 3.44-1a109.52 109.52 0 0 1 21.27-3.85l.2-1a110.48 110.48 0 0 0-21.74 3.9c-1.05.29-2.11.62-3.17.95zM136.32 51.73a126 126 0 0 1 28.41-4.26c.11-.33.21-.67.32-1a126.89 126.89 0 0 0-28.61 4.2c-.05.33-.08.71-.12 1.06zM136 77l.08 1q2.6-.9 5.28-1.67A101.32 101.32 0 0 1 158.89 73c0-.33.08-.67.12-1a102.29 102.29 0 0 0-18 3.43q-2.54.7-5.01 1.57zM136.06 78.39V78zM136.34 81.28c0 .34.06.67.1 1 2-.7 4-1.36 6-1.94a97.17 97.17 0 0 1 15.89-3.12c0-.34.09-.67.12-1a98.1 98.1 0 0 0-16.29 3.18c-1.95.6-3.9 1.2-5.82 1.88zM177.49 189.51zM172.89 194.52l.36 1a26.83 26.83 0 0 0 5.42-.93c.62-.17 1.22-.37 1.82-.59l-.56-.84c-.5.17-1 .34-1.52.48a25.87 25.87 0 0 1-5.52.88zM174.38 198.58l.33 1a31.06 31.06 0 0 0 5.09-1q1.52-.43 3-1l-.53-.85c-.87.34-1.77.64-2.69.9a30.07 30.07 0 0 1-5.2.95zM171.22 190.38c.14.32.27.66.4 1a22.68 22.68 0 0 0 5.92-.84l-.05-1-.21.07a21.66 21.66 0 0 1-6.06.77zM176.95 206.69c.09.32.19.63.27 1a38.89 38.89 0 0 0 9.68-2.76c-.15-.29-.32-.57-.48-.86a37.93 37.93 0 0 1-9.48 2.67zM175.73 202.64l.3 1a34.52 34.52 0 0 0 8.84-2.37c-.16-.29-.31-.58-.48-.86a33.69 33.69 0 0 1-8.66 2.29zM182.4 239.64v1a70.77 70.77 0 0 0 16.71-4.64c-.09-.32-.16-.64-.25-1a69.79 69.79 0 0 1-16.45 4.61zM182.38 256.52c0 .33 0 .66-.06 1a89.88 89.88 0 0 0 13.3-2.67q3.59-1 7-2.29c-.05-.33-.09-.66-.15-1q-3.49 1.31-7.15 2.34a88.91 88.91 0 0 1-12.94 2.62zM182.1 260.76c0 .33-.06.67-.09 1a94 94 0 0 0 14.74-2.89q3.32-.93 6.52-2.09c0-.33-.1-.66-.15-1q-3.25 1.18-6.64 2.14a93 93 0 0 1-14.38 2.84zM182.57 243.85v1a76.53 76.53 0 0 0 17.58-4.77c0-.16-.07-.32-.11-.48l-.13-.48a75.34 75.34 0 0 1-17.36 4.74zM181.73 231.29c0 .32.06.65.09 1a62.82 62.82 0 0 0 14.86-4.32l-.32-.93a61.9 61.9 0 0 1-14.63 4.27zM182.12 235.46c0 .33 0 .66.07 1a66.7 66.7 0 0 0 15.75-4.49l-.29-.95a65.8 65.8 0 0 1-15.53 4.45zM163.83 319.65c-.2.32-.4.63-.6 1a151 151 0 0 0 34-2l.39-1.07a150.07 150.07 0 0 1-33.79 2.07zM182.62 248.06v.99a81.48 81.48 0 0 0 10.74-2.25q4-1.11 7.72-2.59l-.21-1a80.64 80.64 0 0 1-18.24 4.82zM182.55 252.29v1a85.72 85.72 0 0 0 12-2.46c2.54-.71 5-1.54 7.43-2.46-.06-.33-.12-.66-.18-1a83.69 83.69 0 0 1-7.51 2.51 84.65 84.65 0 0 1-11.74 2.41zM201.74 247.37l-.07-.36c0 .12 0 .24.07.37zM178 210.74c.08.32.17.63.25 1a42.63 42.63 0 0 0 10.52-3.08c-.15-.3-.3-.58-.45-.88a41.7 41.7 0 0 1-10.32 3zM179 214.81c.07.32.15.64.21 1a46.69 46.69 0 0 0 11.37-3.38c-.14-.3-.28-.59-.42-.89a45.73 45.73 0 0 1-11.16 3.27zM180.6 223c.05.32.1.65.15 1a55 55 0 0 0 13.1-3.91l-.36-.92A54.07 54.07 0 0 1 180.6 223zM179.86 218.9l.18 1a50.87 50.87 0 0 0 12.23-3.66l-.39-.9a49.87 49.87 0 0 1-12 3.59zM181.22 227.14c0 .32.08.65.12 1a59 59 0 0 0 14-4.13l-.33-.93a58 58 0 0 1-13.78 4.08zM170.28 307.31l-.45 1a138.93 138.93 0 0 0 31.36-3.21c.08-.35.14-.7.22-1.05a138 138 0 0 1-31.13 3.26zM202.14 300.58l-.05.29zM172.09 303.14l-.41 1a134.9 134.9 0 0 0 30.45-3.54l.19-1.06a134 134 0 0 1-30.23 3.6zM173.72 299c-.12.33-.24.66-.36 1a130.88 130.88 0 0 0 29.55-3.84q.08-.52.16-1a129.92 129.92 0 0 1-29.35 3.84zM166.17 315.57c-.18.33-.37.64-.55 1a147 147 0 0 0 33.12-2.43c.11-.36.23-.71.34-1.06a146 146 0 0 1-32.91 2.49zM168.32 311.46c-.16.33-.34.65-.5 1a143 143 0 0 0 32.25-2.84c.1-.35.17-.71.27-1.06a142 142 0 0 1-32.02 2.9zM180.5 273.52c-.06.33-.11.67-.17 1a106.37 106.37 0 0 0 19.81-3.59c1.42-.4 2.82-.83 4.21-1.28v-1c-1.46.48-2.94.94-4.44 1.36a105.41 105.41 0 0 1-19.41 3.51zM177.76 286.27c-.09.34-.19.67-.28 1a118.75 118.75 0 0 0 26-4.28l.77-.23.05-1-1.09.32a117.75 117.75 0 0 1-25.45 4.19zM178.8 282c-.08.34-.16.67-.24 1a114.62 114.62 0 0 0 23.84-4l2.05-.6v-1c-.78.24-1.56.47-2.35.69a113.65 113.65 0 0 1-23.3 3.91zM176.46 290.89c-.06.21-.13.41-.2.61a122.83 122.83 0 0 0 27.74-4.31l.09-1a121.88 121.88 0 0 1-27.5 4.36zM204.46 273v-.51.52zM179.71 277.77l-.2 1a110.48 110.48 0 0 0 21.76-3.82c1.07-.3 2.14-.62 3.2-1v-1c-1.14.36-2.29.71-3.45 1a109.53 109.53 0 0 1-21.31 3.82zM175.22 294.74c-.11.33-.21.67-.32 1a126.88 126.88 0 0 0 28.63-4.1c0-.35.08-.7.11-1a126 126 0 0 1-28.42 4.1zM181.16 269.26c0 .33-.08.67-.13 1a102.3 102.3 0 0 0 18-3.36q2.58-.73 5.1-1.58l-.07-1q-2.61.89-5.29 1.65a101.3 101.3 0 0 1-17.61 3.29zM204 264.31v-.39.39zM181.71 265c0 .34-.09.67-.13 1a98.11 98.11 0 0 0 16.3-3.12c2-.56 3.94-1.18 5.86-1.85 0-.34-.06-.67-.09-1-2 .7-4 1.34-6 1.92a97.17 97.17 0 0 1-15.94 3.05zM188.99 162.83zM194 161.67c-.17-.62-.37-1.22-.58-1.82l-.84.56c.17.5.33 1 .48 1.52a25.87 25.87 0 0 1 .9 5.52l1-.36a26.84 26.84 0 0 0-.96-5.42zM198.05 160.55q-.42-1.52-1-3l-.85.53c.33.87.63 1.77.89 2.69A30.08 30.08 0 0 1 198 166l1-.33a31.07 31.07 0 0 0-.95-5.12zM189.84 169.11l1-.4a22.69 22.69 0 0 0-.82-5.92h-1l.07.21a21.66 21.66 0 0 1 .75 6.11zM206.17 163.44l1-.27a38.9 38.9 0 0 0-2.72-9.69l-.87.48a37.94 37.94 0 0 1 2.63 9.49zM202.08 159.44a35.46 35.46 0 0 0-1.36-3.94l-.86.47a33.69 33.69 0 0 1 2.26 8.67l1-.3a35.37 35.37 0 0 0-1.04-4.9zM239.14 158.1h1a70.77 70.77 0 0 0-4.57-16.68l-1 .25a69.78 69.78 0 0 1 4.55 16.47zM256 158.18l1 .06a89.88 89.88 0 0 0-2.62-13.31q-1-3.59-2.27-7l-1 .14q1.3 3.5 2.32 7.15a88.89 88.89 0 0 1 2.57 12.96zM260.26 158.48l1 .1a94 94 0 0 0-2.84-14.75q-.92-3.33-2.07-6.53l-1 .14q1.17 3.26 2.11 6.65a93 93 0 0 1 2.8 14.39zM238.67 140.57a75.33 75.33 0 0 1 4.68 17.37h1a76.53 76.53 0 0 0-4.7-17.6l-.48.11zM227.5 143.78l-.93.31a61.92 61.92 0 0 1 4.22 14.65l1-.09a62.83 62.83 0 0 0-4.27-14.87zM235 158.37l1-.06a66.7 66.7 0 0 0-4.43-15.77l-.95.28a65.79 65.79 0 0 1 4.4 15.55zM319.09 176.95l1 .61a151 151 0 0 0-1.86-34l-1.07-.39a150.07 150.07 0 0 1 1.93 33.78zM248 157.9h.58a81.51 81.51 0 0 0-2.21-10.75q-1.1-4-2.57-7.73l-1 .21a80.62 80.62 0 0 1 4.76 18.26zM252.79 158a85.72 85.72 0 0 0-2.42-12c-.7-2.54-1.52-5-2.44-7.44l-1 .18c.93 2.45 1.77 4.95 2.48 7.52a84.65 84.65 0 0 1 2.38 11.74zM246.57 138.86l.37-.07zM210.23 162.36l1-.24a42.64 42.64 0 0 0-3-10.53l-.88.44a41.7 41.7 0 0 1 3 10.33zM214.3 161.41l1-.21a46.68 46.68 0 0 0-3.34-11.38l-.89.42a45.72 45.72 0 0 1 3.27 11.18zM222.51 159.85l1-.15a55 55 0 0 0-3.86-13.12l-.92.35a54.05 54.05 0 0 1 3.81 12.91zM217.23 155.24a51.19 51.19 0 0 1 1.17 5.33l1-.18a50.86 50.86 0 0 0-3.61-12.25l-.9.39a51.17 51.17 0 0 1 2.34 6.71zM225.28 153a59.58 59.58 0 0 1 1.36 6.23l1-.12a58.94 58.94 0 0 0-4.08-14l-.93.32a59.57 59.57 0 0 1 2.65 7.57zM306.77 170.45l1 .46a138.92 138.92 0 0 0-3.1-31.37l-1.05-.23a138 138 0 0 1 3.15 31.14zM300.15 138.58l.29.05zM302.6 168.64l1 .41a134.89 134.89 0 0 0-3.43-30.46l-1.06-.19a134 134 0 0 1 3.49 30.24zM298.42 167l1 .37a130.89 130.89 0 0 0-3.73-29.56l-1-.16a129.92 129.92 0 0 1 3.73 29.35zM315 174.59l1 .55a147 147 0 0 0-2.35-33.14l-1.06-.35a146 146 0 0 1 2.41 32.94zM310.91 172.43l1 .51a143 143 0 0 0-2.73-32.26l-1.06-.27a142 142 0 0 1 2.79 32.02zM273 160.12l1 .17a106.39 106.39 0 0 0-3.52-19.82c-.39-1.42-.82-2.82-1.27-4.21h-1c.48 1.46.93 2.94 1.34 4.44a105.41 105.41 0 0 1 3.45 19.42zM285.75 162.9l1 .29a118.74 118.74 0 0 0-4.19-26.06c-.07-.26-.15-.51-.22-.77l-1-.06c.1.36.22.72.32 1.09a117.76 117.76 0 0 1 4.09 25.51zM281.51 161.84l1 .25a114.62 114.62 0 0 0-4-23.85c-.19-.69-.39-1.37-.6-2.05h-1c.23.78.46 1.56.68 2.35a113.64 113.64 0 0 1 3.92 23.3zM290.37 164.22l.61.2a122.84 122.84 0 0 0-4.22-27.73l-1-.09a121.88 121.88 0 0 1 4.24 27.51zM272.54 136.16zM277.26 160.92l1 .21a110.48 110.48 0 0 0-3.74-21.77c-.3-1.08-.62-2.14-.94-3.2h-1c.36 1.14.7 2.29 1 3.45a109.52 109.52 0 0 1 3.68 21.31zM294.21 165.48l1 .32a126.89 126.89 0 0 0-4-28.64l-1-.12a126 126 0 0 1 4 28.44zM268.76 159.44l1 .13a102.3 102.3 0 0 0-3.3-18q-.72-2.59-1.56-5.1l-1 .07q.88 2.61 1.63 5.3a101.32 101.32 0 0 1 3.23 17.6zM263.89 136.55h-.39.39zM264.5 158.88l1 .13a98.11 98.11 0 0 0-3.06-16.31c-.55-2-1.17-3.94-1.83-5.87l-1 .09c.69 2 1.33 4 1.89 6a97.16 97.16 0 0 1 3 15.96zM151.98 177.53zM147.89 178.47a25.87 25.87 0 0 1-1-5.51l-.95.37a26.83 26.83 0 0 0 1 5.42c.18.62.38 1.22.6 1.81l.84-.57c-.17-.5-.38-.99-.49-1.52zM143.88 179.62a30.08 30.08 0 0 1-1-5.15l-1 .34a31.07 31.07 0 0 0 1 5.09q.43 1.51 1 2.95l.85-.54c-.28-.88-.59-1.77-.85-2.69zM151.07 171.27l-1 .41a22.69 22.69 0 0 0 .87 5.92l1-.06-.07-.21a21.66 21.66 0 0 1-.8-6.06zM133.84 177.36a38.9 38.9 0 0 0 2.81 9.67l.86-.48a37.93 37.93 0 0 1-2.72-9.46zM139.87 180.77a34.33 34.33 0 0 1-1-4.93l-.95.31a34.51 34.51 0 0 0 2.42 8.82l.86-.48a34.5 34.5 0 0 1-1.33-3.72zM101.88 182.71h-1a70.77 70.77 0 0 0 4.72 16.64l1-.26a69.78 69.78 0 0 1-4.69-16.43zM84 182.73A89.88 89.88 0 0 0 86.74 196q1 3.59 2.33 7l1-.15q-1.33-3.49-2.38-7.13a88.89 88.89 0 0 1-2.69-13zM79.75 182.43a94 94 0 0 0 3 14.73q1 3.32 2.13 6.51l1-.15q-1.2-3.25-2.17-6.63a93 93 0 0 1-2.91-14.37zM97.67 182.9h-1a76.53 76.53 0 0 0 4.86 17.55l.48-.11.48-.13a75.33 75.33 0 0 1-4.83-17.33zM111.77 188.83a63.8 63.8 0 0 1-1.55-6.84l-1 .1a62.83 62.83 0 0 0 4.4 14.83l.93-.32a63.77 63.77 0 0 1-2.78-7.77zM105.07 182.48a66.71 66.71 0 0 0 4.57 15.73l.94-.29a65.8 65.8 0 0 1-4.53-15.51zM21.76 164.57l-1-.6a151 151 0 0 0 2.16 34l1.07.38a150.07 150.07 0 0 1-2.23-33.78zM92.46 183a81.49 81.49 0 0 0 2.31 10.73q1.13 4 2.63 7.7l1-.22A80.63 80.63 0 0 1 93.45 183h-1zM88.23 182.91a85.73 85.73 0 0 0 2.52 11.95c.73 2.53 1.57 5 2.5 7.41l1-.19c-1-2.44-1.81-4.93-2.55-7.5a84.66 84.66 0 0 1-2.47-11.66zM94.61 202l-.37.07zM130.75 178.19l-1 .25a42.65 42.65 0 0 0 3.13 10.5l.88-.45a41.7 41.7 0 0 1-3.06-10.3zM126.68 179.18l-1 .22a46.69 46.69 0 0 0 3.44 11.35l.89-.43a45.71 45.71 0 0 1-3.37-11.15zM119.79 186.53a55.48 55.48 0 0 1-1.31-5.71l-1 .16a55 55 0 0 0 4 13.08l.91-.36a55.36 55.36 0 0 1-2.6-7.17zM122.6 180.06l-1 .19a50.86 50.86 0 0 0 3.72 12.21l.9-.4a49.87 49.87 0 0 1-3.65-12zM114.36 181.46l-1 .13a58.94 58.94 0 0 0 4.2 14l.93-.33a58 58 0 0 1-4.16-13.75zM34.13 171l-1-.45a138.92 138.92 0 0 0 3.38 31.34l1.05.22A138 138 0 0 1 34.13 171zM41 202.77l-.29-.05zM38.32 172.73l-1-.4A134.9 134.9 0 0 0 41 202.76l1.06.18a134 134 0 0 1-3.74-30.21zM42.52 174.35l-1-.36a130.88 130.88 0 0 0 4 29.53l1 .15a129.92 129.92 0 0 1-4-29.32zM25.86 166.88l-1-.55a147 147 0 0 0 2.61 33.1l1.07.34a146 146 0 0 1-2.68-32.89zM30 169l-1-.5a143 143 0 0 0 3 32.23l1.06.26A142 142 0 0 1 30 169zM68 181l-1-.16a106.38 106.38 0 0 0 3.69 19.79c.41 1.42.85 2.81 1.31 4.2h1c-.49-1.46-1-2.93-1.38-4.43A105.41 105.41 0 0 1 68 181zM55.22 178.32l-1-.28a118.74 118.74 0 0 0 4.42 26c.07.26.16.51.23.77h1l-.33-1.08a117.75 117.75 0 0 1-4.32-25.41zM59.48 179.34l-1-.24a114.62 114.62 0 0 0 4.18 23.81c.2.69.41 1.37.62 2h1c-.24-.78-.48-1.56-.7-2.34a113.64 113.64 0 0 1-4.1-23.23zM50.59 177l-.61-.19a122.84 122.84 0 0 0 4.46 27.69l1 .08A121.88 121.88 0 0 1 51 177.15zM68.67 204.94h.51-.51zM63.73 180.22l-1-.2a110.47 110.47 0 0 0 3.93 21.74c.31 1.07.63 2.14 1 3.19h1c-.37-1.14-.72-2.28-1.06-3.44a109.52 109.52 0 0 1-3.87-21.29zM46.74 175.82l-1-.32A126.89 126.89 0 0 0 50 204.11l1 .11a126 126 0 0 1-4.26-28.4zM71.24 181.5a102.3 102.3 0 0 0 3.45 18q.74 2.58 1.6 5.09l1-.08q-.9-2.6-1.67-5.28a101.31 101.31 0 0 1-3.4-17.57zM77.7 204.44h-.39zM75.5 182a98.12 98.12 0 0 0 3.21 16.28c.57 2 1.2 3.93 1.88 5.85l1-.1c-.71-2-1.36-4-1.95-6a97.15 97.15 0 0 1-3.15-15.89z" fill="#eee"/><g clip-path="url(#bR)"><path d="M100.19 32.07a126.29 126.29 0 0 0 1.22 43.24 150.47 150.47 0 0 0 13.76 39.44c.43.85.88 1.67 1.33 2.51 11.3 21.16 26.63 38.24 43.63 50.06a145.48 145.48 0 0 1-59.69 15.88c-1.67.09-3.32.14-5 .17a148.16 148.16 0 0 1-42.55-5.2 122.48 122.48 0 0 1-37.48-17.31 157.47 157.47 0 0 0-.11 18.3 155.37 155.37 0 0 0 16 61.21 126.14 126.14 0 0 0 43-1.14 150.38 150.38 0 0 0 39.77-13.82c.68-.35 1.34-.71 2-1.07 20.18-10.69 36.68-25 48.49-41 .86-.63 1.72-1.25 2.6-1.86a145.84 145.84 0 0 1 15.34 58.68q.17 3.27.21 6.51a147.48 147.48 0 0 1-5.65 42.5 121.23 121.23 0 0 1-17.84 37.32 157.42 157.42 0 0 0 19.89.21 155.4 155.4 0 0 0 60.26-15.56 124.8 124.8 0 0 0-.52-43.22 150 150 0 0 0-14.13-41.43l-.35-.66C213.67 205 199 188.06 182.7 176c-.63-.86-1.26-1.73-1.87-2.62A145.84 145.84 0 0 1 239.5 158q3.47-.18 6.9-.21a147.24 147.24 0 0 1 42.68 5.82 120.64 120.64 0 0 1 37.45 18.18 157.44 157.44 0 0 0 .16-19 155.36 155.36 0 0 0-16.29-61.71 125 125 0 0 0-43.47.6 150.08 150.08 0 0 0-41.11 14.07l-1.16.61c-20.58 10.73-37.38 25.27-49.35 41.47-.86.63-1.72 1.25-2.6 1.86a145.84 145.84 0 0 1-15.34-58.68c-.09-1.8-.15-3.58-.18-5.36A147.94 147.94 0 0 1 162.56 53a121.9 121.9 0 0 1 17.65-37.62 157.55 157.55 0 0 0-17.37-.06 155.35 155.35 0 0 0-62.65 16.75z" fill="#eee"/></g></g><path d="M171.15 17.81A153.19 153.19 0 0 1 179 324c-2.71.14-5.45.21-8.16.21A153.19 153.19 0 0 1 163 18c2.71-.14 5.45-.21 8.15-.21m0-9q-4.29 0-8.63.23a162.19 162.19 0 0 0 8.35 324.16q4.29 0 8.63-.23a162.19 162.19 0 0 0-8.36-324.14z" fill="#bbb"/><g fill="none" stroke-miterlimit="10"><circle cx="171" cy="171" r="167" transform="translate(-8.72 9.18) rotate(-3)" stroke="#333" stroke-width="8"/><circle cx="171.16" cy="171" r="162.78" transform="translate(-8.71 9.19) rotate(-3)" stroke="#f7dc86" stroke-width="5"/></g><path d="M108.503 278.898a6.62 6.62 0 0 1 2.58 9l-11.455 20.667-11.59-6.424 11.452-20.659a6.62 6.62 0 0 1 9.013-2.584zM73.83 76.69a8.4 8.4 0 0 1-.7 4.54C70.71 78.92 70.28 81 70 82c-.59 2.39 1.28 4.91 1.5 5.61.37 1.21-.3 1.13-.71.59-1.11-1.45-2.57-3.85-2.46-4.08.25-.53 1.09-4.06-.36-6.56-.74-1.27-1.81-.52-2 .7a13.92 13.92 0 0 0 1.28 6.94c-.8 1.39-2.06 2.8-3.76 1.86-2-1.11.37-5.2.37-5.2s-3.17 4.26-.59 6c1.5 1 3.39-.4 4.23-1.92 0 0 .47 1 .78 1.69a5.45 5.45 0 0 1 .23.52l-.26.74c-2.09-1.74-2.76.48-2.72 1.74s.06 2.26 1.54 5c.3.56 0 2-.63 1.12-.87-1.29-1.74-4.44-2.79-3.6-.53.43-.68 1.81-.87 2.51l-.33-.39s-.94 1.65-.93 1.66c.52 1 .86 1.58 1.52 3.07a5.16 5.16 0 0 1 .48 3.47c-.06.26-2.73-5.21-2.74-5.23l-.78 1.6.16.48a2.4 2.4 0 0 0-1.23 1.6c-.44 2.42 1 4.2 1.46 6.45.1.5-.2 1.62-.82.55-.47-.82-.47-1.29-2.2-4.33l-.81 1.46s.13.5.12.51c-1.46.63-1.4 2.17-1.23 3.37.26 1.85 1 2.52 1.57 4.71.13.5-.25 1.87-1.31-.37-.24-.52-1.25-3.19-2.07-2.69s-1 2.22-1 2.61c0 .05-.24-.26-.35-.4a18.75 18.75 0 0 0-.87 1.66s1.41 2.8 2.15 4.77a1.28 1.28 0 0 1-.07 1.24c-.38.44-.6-.17-1.38-1.57-.27-.48-.83-1.87-1.33-2.19s-.75.1-1.12.83a4.82 4.82 0 0 0-.38 2.2c0 .24-.32-.17-.56-.12a.9.9 0 0 0-.5.43 3.48 3.48 0 0 0-.49 1.74c0 .31 0 .71-.08.6s-.31-.27-.43-.43c0 0-.92 1.63-.92 1.64.33.78 1.8 3.07 2.09 5.09.12.82-.11 2.07-.83.57-1-2-1-2.29-2.07-4.18l-.88 1.65a4.75 4.75 0 0 1 .16.5 1.47 1.47 0 0 0-1.16 1.18c-.62 2 .65 4.62.94 5.37.07.19.5 2.41-.5 3.13-1.4 1-3.2-3-3.17-3.1a11.55 11.55 0 0 0 1.11-4.48c.19-2.2-.17-5.74-1.48-5.46-1.07.23-2 2.44-2 4.61v1a36.86 36.86 0 0 0 1.25 5.71 33.56 33.56 0 0 1-4.87 8c-.06.06-.09 1.29-.22 2.11s5.12-8.47 5.43-9.37a9.28 9.28 0 0 0 2.52 3.47 1.36 1.36 0 0 0 2.27-.45 8.56 8.56 0 0 0 .37-4.1c0-.1 1.39.83 1.95 0a4.58 4.58 0 0 0 .33-2.59c.94.46 1.78-.21 1.55-2.65 0 0 .53.78.53.76.35-.63.92-1.61.91-1.63-.56-1.12-1.91-4-2.39-5.11-.41-.9.22-1.91.91-.7.43.75 1.73 3.63 2.23 4.42l.94-1.68c-.55-1.23-1.82-3.31-2.33-4.8s.48-1.86.89-1a30.13 30.13 0 0 0 1.65 3.26c.83 1.25 1.47-.52 1.57-1s.14-.78.18-1.15v-.44.06l.81 1.31.23.42c.32.59.76 1.42.93 1.72 0 0 .92-1.6.92-1.61a.31.31 0 0 0 0-.06V123.2L57 123l-.06-.12-.09-.18-.09-.18-.09-.19-.26-.51-.28-.53-.68-1.3a49.43 49.43 0 0 1-2.18-4.64c-.3-.88.3-1.73.83-1 .4.56 1.75 3.8 2.33 4 1.49.4 1.3-3.28 1.22-3.78 0 0 1 .75 1.57-.13a3.4 3.4 0 0 0 .39-2.6s2 1.32 1.43-3.56c1.9 1.09 2.18-1.63 2.18-1.63l.06.09V108.47c0 2.45.07 3.63 1 5.16.81 1.34 1.65-.13 1.69-.51V112.56v-.45-.09-.44V111q0-.22-.05-.44v-.08c0-.14 0-.27-.07-.41 0-.14-.05-.29-.08-.43v-.09l-.1-.41v-.07l-.1-.38v-.05l-.11-.4v-.08l-.12-.38v-.05l-.12-.35-.13-.36v-.06l-.13-.35-.14-.36-.13-.34-.1-.24-.09-.23v-.05l-.06-.16v-.06l-.07-.2.28-2c.26.3.37.6.56.84 0 0 .94-1.7.93-1.72-.2-.54-2.21-4.46-2.44-5.3s.32-1.59.92-.61c.72 1.17 1.44 3.63 2.25 3.75s1.18-1.33 1.22-1.68a8.3 8.3 0 0 0 0-2c1.84.85 2-1.89 2-2.06a12.6 12.6 0 0 0-.88-4.36s.21-.83.22-.82c.29.41.84 1.37 1.21 1.8a1.44 1.44 0 0 0 1 .64c1.37.1 1-3.19 1-3.18 1.79.48 1.9-1.59 1.91-1.87a14.55 14.55 0 0 0-.7-4.35 9.55 9.55 0 0 0 .79-2.28s.61 1.51 1.11 2.49l.12.23v.07l.09.18v.07l.12.22.14.26.14.25.54.93v.12c-2.47 4.53-7.87 13.72-8.59 20.25 0 0 1.51-1.18 1.51-1.19.44-5.22 3.44-12 7.56-19.15l-.48-.81-.29-.5-.06-.1-.05-.09v-.05l-.06-.1-.06-.1v-.24l-.06-.11-.06-.1v-.19A15.08 15.08 0 0 1 74.53 79a12.16 12.16 0 0 1-.18-2.32c-.06-.68-.58-.47-.52.01zm-6.25 6a7.15 7.15 0 0 1-.31-1 9.44 9.44 0 0 1-.19-.93 10.37 10.37 0 0 1-.14-1.06 9.44 9.44 0 0 1 0-.95.69.69 0 0 1 0-.26c0-.12.07-.21.19-.26a.33.33 0 0 1 .28 0 .56.56 0 0 1 .29.25 2.42 2.42 0 0 1 .22.56 5.69 5.69 0 0 1 .15.61c.06.28.09.44.13.72a7.12 7.12 0 0 1 .08.84 4.88 4.88 0 0 1 0 .91 4 4 0 0 1-.08.47c0 .12 0 .19-.08.31s-.15.46-.16.47-.28-.37-.39-.67zm-27.8 44.8c.37-.66.69-.51 1 0s.89 4.65-.26 6.75c-.95-1.67-1.46-5.46-.75-6.74zm6.59 6c-.35.38-.53.18-.79 0-.82-.54-2-3.19-1.29-4.27.27-.41.71 0 .79 0 1.23.78 1.71 3.87 1.29 4.33zm12-21.72c-.35.38-.55.3-.81.13-.82-.54-2-3.19-1.29-4.27.27-.41.71 0 .79 0 1.22.74 1.72 3.75 1.29 4.2zm6.22.38a4 4 0 0 1-.3-.44 3.9 3.9 0 0 1-.34-1.07 6.38 6.38 0 0 1-.15-1.2 6.3 6.3 0 0 1 0-.73 3.89 3.89 0 0 1 .11-1 3.67 3.67 0 0 1 .38.56 5.08 5.08 0 0 1 .37.8 7.49 7.49 0 0 1 .34 1.09 5.85 5.85 0 0 1 .21 1.13 3 3 0 0 1 0 .59.36.36 0 0 1-.16.29.31.31 0 0 1-.2.07.29.29 0 0 1-.27-.03zm-2.8-6.63c-.35.38-.55.3-.81.13-.82-.54-2-3.19-1.29-4.27.27-.41.71 0 .79 0 1.22.73 1.72 3.74 1.29 4.2zm5-16.5a1.86 1.86 0 0 0 .86 1.63.52.52 0 0 0 .63 0s.85 2.12.18 2.77a.45.45 0 0 1-.61.07 3.83 3.83 0 0 1-1.45-2.32 4.37 4.37 0 0 1 0-1.66l.13-.28.1-.15.12-.06h-.08l.19-.08-.11.06zm5.27-6.47a.51.51 0 0 0 .63 0s.85 2.12.17 2.77a.45.45 0 0 1-.61.07 4.43 4.43 0 0 1-1.49-4l.1-.26.12-.18.16-.06a2.12 2.12 0 0 0 .93 1.71z" fill="#bbb" opacity=".8"/><path d="M95.17 303.6l9-16.15z" fill="none" stroke="#aaa" stroke-miterlimit="10" stroke-width="3"/><path d="M104.31 290.93l-3.23-1.79 2-3.55a1.85 1.85 0 0 1 2.51-.72 1.85 1.85 0 0 1 .72 2.51z" fill="#595959"/></svg>