<svg xmlns="http://www.w3.org/2000/svg" viewBox="0 0 143 143"><title>Asset 10</title><circle cx="72.5" cy="71" r="45" fill="none" stroke="#a8aeb2" stroke-miterlimit="10" stroke-width="6"/><path d="M52.74 27.45L49.54 26a1.22 1.22 0 0 0-1.69.91l-.59 3.45a1.22 1.22 0 0 1-1.5 1l-3.38-.87a1.22 1.22 0 0 0-1.52 1.17v3.49a1.22 1.22 0 0 1-1.32 1.21l-3.48-.3a1.22 1.22 0 0 0-1.3 1.41l.56 3.45a1.22 1.22 0 0 1-1.1 1.41l-3.48.28a1.22 1.22 0 0 0-1.05 1.61l1.13 3.31a1.22 1.22 0 0 1-.85 1.57l-3.41.9a1.22 1.22 0 0 0-.77 1.76l1.65 3.08a1.22 1.22 0 0 1-.59 1.69l-3.2 1.4a1.22 1.22 0 0 0-.48 1.86l2.13 2.77a1.22 1.22 0 0 1-.3 1.74l-2.93 1.9a1.22 1.22 0 0 0-.17 1.91l2.56 2.38a1.22 1.22 0 0 1 0 1.79l-2.58 2.36a1.22 1.22 0 0 0 .12 1.92l3 1.92a1.22 1.22 0 0 1 .29 1.77L23.1 83a1.22 1.22 0 0 0 .47 1.86l3.19 1.41a1.22 1.22 0 0 1 .58 1.73l-1.67 3a1.22 1.22 0 0 0 .77 1.76l3.38.87a1.22 1.22 0 0 1 .85 1.58l-1.14 3.3a1.22 1.22 0 0 0 1 1.61l3.48.3a1.22 1.22 0 0 1 1.09 1.42l-.59 3.45a1.22 1.22 0 0 0 1.29 1.42l3.48-.28a1.22 1.22 0 0 1 1.31 1.22v3.49a1.22 1.22 0 0 0 1.51 1.18l3.39-.85a1.22 1.22 0 0 1 1.49 1l.57 3.45a1.22 1.22 0 0 0 1.69.92l3.2-1.4a1.22 1.22 0 0 1 1.64.72l1.13 3.31a1.22 1.22 0 0 0 1.81.63l2.98-1.9a1.22 1.22 0 0 1 1.73.44l1.65 3.08a1.22 1.22 0 0 0 1.89.32l2.58-2.36a1.22 1.22 0 0 1 1.78.15l2.14 2.76a1.22 1.22 0 0 0 1.92 0l2.16-2.75a1.22 1.22 0 0 1 1.78-.14l2.56 2.37a1.22 1.22 0 0 0 1.89-.31l1.67-3.07a1.22 1.22 0 0 1 1.73-.44l2.92 1.91a1.22 1.22 0 0 0 1.82-.62l1.14-3.3a1.22 1.22 0 0 1 1.64-.72l3.2 1.48a1.22 1.22 0 0 0 1.69-.91l.59-3.45a1.22 1.22 0 0 1 1.5-1l3.38.87a1.22 1.22 0 0 0 1.52-1.17v-3.49a1.22 1.22 0 0 1 1.32-1.21l3.48.3a1.22 1.22 0 0 0 1.3-1.41l-.56-3.45a1.22 1.22 0 0 1 1.1-1.41l3.48-.28a1.22 1.22 0 0 0 1.05-1.61l-1.13-3.31a1.22 1.22 0 0 1 .85-1.57l3.39-.85a1.22 1.22 0 0 0 .77-1.76l-1.65-3.08a1.22 1.22 0 0 1 .59-1.69l3.2-1.4a1.22 1.22 0 0 0 .48-1.86l-2.13-2.77a1.22 1.22 0 0 1 .3-1.76l2.93-1.9a1.22 1.22 0 0 0 .17-1.91l-2.56-2.38a1.22 1.22 0 0 1 0-1.79l2.58-2.36a1.22 1.22 0 0 0-.15-1.91l-2.92-1.92a1.22 1.22 0 0 1-.29-1.77l2.16-2.79a1.22 1.22 0 0 0-.47-1.86L119 56.73a1.22 1.22 0 0 1-.58-1.69l1.65-3.04a1.22 1.22 0 0 0-.77-1.76l-3.38-.87a1.22 1.22 0 0 1-.85-1.58l1.14-3.3a1.22 1.22 0 0 0-1-1.61l-3.48-.3a1.22 1.22 0 0 1-1.09-1.42l.59-3.44a1.22 1.22 0 0 0-1.29-1.42l-3.48.28a1.22 1.22 0 0 1-1.31-1.22v-3.53a1.22 1.22 0 0 0-1.51-1.18l-3.39.85a1.22 1.22 0 0 1-1.49-1l-.57-3.45a1.22 1.22 0 0 0-1.69-.92l-3.2 1.4a1.22 1.22 0 0 1-1.64-.72l-1.16-3.29a1.22 1.22 0 0 0-1.81-.63l-2.93 1.9a1.22 1.22 0 0 1-1.76-.44l-1.65-3.08a1.22 1.22 0 0 0-1.87-.27l-2.58 2.31a1.22 1.22 0 0 1-1.78-.15L74 20.39a1.22 1.22 0 0 0-1.92 0l-2.18 2.75a1.22 1.22 0 0 1-1.78.14l-2.56-2.37a1.22 1.22 0 0 0-1.89.31L62 24.29a1.22 1.22 0 0 1-1.73.44l-2.92-1.91a1.22 1.22 0 0 0-1.82.62l-1.14 3.3a1.22 1.22 0 0 1-1.65.71zm60.83 22.13A46.23 46.23 0 1 1 51 30.78a46.28 46.28 0 0 1 62.57 18.8z" fill="#c0c4cc"/><path d="M122.6 26.07l.51-3.44a1.31 1.31 0 0 0-1.45-1.49l-3.45.42a1.31 1.31 0 0 1-1.46-1.33l.1-3.47a1.31 1.31 0 0 0-1.62-1.3l-3.37.84a1.31 1.31 0 0 1-1.61-1.15l-.32-3.46a1.31 1.31 0 0 0-1.76-1.1l-3.25 1.24a1.31 1.31 0 0 1-1.74-.94l-.74-3.39a1.31 1.31 0 0 0-1.88-.88l-3.08 1.62a1.31 1.31 0 0 1-1.84-.72L94.5 4.24a1.31 1.31 0 0 0-2-.64l-2.85 2a1.31 1.31 0 0 1-1.92-.5L86.22 2a1.31 1.31 0 0 0-2-.4l-2.63 2.27a1.31 1.31 0 0 1-2-.26L77.73.7a1.31 1.31 0 0 0-2.07-.15l-2.3 2.61a1.31 1.31 0 0 1-2 0L69.15.47a1.31 1.31 0 0 0-2.08.1l-2 2.86a1.31 1.31 0 0 1-2 .21l-2.46-2.38a1.31 1.31 0 0 0-2 .35l-1.66 3.08a1.31 1.31 0 0 1-1.95.45l-2.8-2.05a1.31 1.31 0 0 0-2 .59L49 6.92a1.31 1.31 0 0 1-1.86.68l-3-1.7a1.31 1.31 0 0 0-1.91.83l-.82 3.37a1.31 1.31 0 0 1-1.76.9L36.4 9.68a1.31 1.31 0 0 0-1.79 1.05l-.41 3.45a1.31 1.31 0 0 1-1.64 1.11l-3.35-.92a1.31 1.31 0 0 0-1.65 1.26v3.47a1.31 1.31 0 0 1-1.5 1.29l-3.44-.51a1.31 1.31 0 0 0-1.49 1.45l.42 3.45a1.31 1.31 0 0 1-1.33 1.46l-3.47-.1a1.31 1.31 0 0 0-1.3 1.62l.83 3.37a1.31 1.31 0 0 1-1.15 1.61l-3.46.32a1.31 1.31 0 0 0-1.1 1.76l1.24 3.25a1.31 1.31 0 0 1-.94 1.74l-3.39.74a1.31 1.31 0 0 0-.88 1.88l1.62 3.07a1.31 1.31 0 0 1-.72 1.84L4.24 48.5a1.31 1.31 0 0 0-.64 2l2 2.85a1.31 1.31 0 0 1-.5 1.92L2 56.78a1.31 1.31 0 0 0-.4 2l2.31 2.59a1.31 1.31 0 0 1-.26 2L.7 65.27a1.31 1.31 0 0 0-.15 2.07l2.61 2.3a1.31 1.31 0 0 1 0 2L.47 73.85a1.31 1.31 0 0 0 .1 2.08l2.86 2a1.31 1.31 0 0 1 .21 2l-2.38 2.46a1.31 1.31 0 0 0 .35 2L4.69 86a1.31 1.31 0 0 1 .45 2l-2.05 2.8a1.31 1.31 0 0 0 .59 2L6.92 94a1.31 1.31 0 0 1 .68 1.86l-1.7 3a1.31 1.31 0 0 0 .83 1.91l3.37.82a1.31 1.31 0 0 1 .9 1.76l-1.32 3.25a1.31 1.31 0 0 0 1.05 1.79l3.45.41a1.31 1.31 0 0 1 1.11 1.64l-.92 3.35a1.31 1.31 0 0 0 1.26 1.65h3.47a1.31 1.31 0 0 1 1.3 1.5l-.51 3.44a1.31 1.31 0 0 0 1.45 1.49l3.45-.42a1.31 1.31 0 0 1 1.46 1.33l-.1 3.47a1.31 1.31 0 0 0 1.62 1.3l3.37-.84a1.31 1.31 0 0 1 1.61 1.15l.32 3.46a1.31 1.31 0 0 0 1.76 1.1l3.25-1.24a1.31 1.31 0 0 1 1.74.94l.74 3.39a1.31 1.31 0 0 0 1.88.88l3.07-1.62a1.31 1.31 0 0 1 1.84.72l1.14 3.28a1.31 1.31 0 0 0 2 .64l2.85-2a1.31 1.31 0 0 1 1.92.5l1.52 3.09a1.31 1.31 0 0 0 2 .4l2.59-2.31a1.31 1.31 0 0 1 2 .26l1.89 2.91a1.31 1.31 0 0 0 2.07.15l2.3-2.6a1.31 1.31 0 0 1 2 0l2.23 2.66a1.31 1.31 0 0 0 2.08-.1l2-2.86a1.31 1.31 0 0 1 2-.21l2.53 2.38a1.31 1.31 0 0 0 2-.35l1.61-3.08a1.31 1.31 0 0 1 1.93-.45l2.8 2.05a1.31 1.31 0 0 0 2-.59l1.19-3.18a1.31 1.31 0 0 1 1.86-.68l3 1.7a1.31 1.31 0 0 0 1.91-.83l.82-3.37a1.31 1.31 0 0 1 1.76-.9l3.21 1.32a1.31 1.31 0 0 0 1.79-1.05l.41-3.45a1.31 1.31 0 0 1 1.64-1.11l3.35.92a1.31 1.31 0 0 0 1.65-1.26v-3.47a1.31 1.31 0 0 1 1.5-1.29l3.44.51a1.31 1.31 0 0 0 1.49-1.45l-.42-3.45a1.31 1.31 0 0 1 1.33-1.46l3.47.1a1.31 1.31 0 0 0 1.3-1.62l-.83-3.37a1.31 1.31 0 0 1 1.15-1.61l3.46-.32a1.31 1.31 0 0 0 1.1-1.76l-1.24-3.25a1.31 1.31 0 0 1 .94-1.74l3.39-.74a1.31 1.31 0 0 0 .88-1.88l-1.62-3.07a1.31 1.31 0 0 1 .72-1.84l3.28-1.14a1.31 1.31 0 0 0 .64-2l-2-2.85a1.31 1.31 0 0 1 .5-1.92l3.12-1.53a1.31 1.31 0 0 0 .4-2l-2.31-2.59a1.31 1.31 0 0 1 .26-2l2.91-1.89a1.31 1.31 0 0 0 .15-2.07l-2.61-2.3a1.31 1.31 0 0 1 0-2l2.66-2.23a1.31 1.31 0 0 0-.1-2.08l-2.86-2a1.31 1.31 0 0 1-.21-2l2.38-2.53a1.31 1.31 0 0 0-.35-2l-3.08-1.61a1.31 1.31 0 0 1-.45-1.93l2.05-2.8a1.31 1.31 0 0 0-.59-2L136.08 49a1.31 1.31 0 0 1-.68-1.86l1.7-3a1.31 1.31 0 0 0-.83-1.91l-3.37-.82a1.31 1.31 0 0 1-.9-1.76l1.32-3.21a1.31 1.31 0 0 0-1.05-1.79l-3.45-.41a1.31 1.31 0 0 1-1.11-1.64l.92-3.35a1.31 1.31 0 0 0-1.26-1.65h-3.47a1.31 1.31 0 0 1-1.3-1.53zm16.47 46.48C126.06 159.14 16.8 157.74 6 70.85a1.44 1.44 0 0 1 0-.39c13-86.59 122.27-85.19 133.07 1.7a1.44 1.44 0 0 1 0 .39z" fill="#c0c4cc"/><circle cx="72.5" cy="71" r="64" fill="none" stroke="#a8aeb2" stroke-miterlimit="10" stroke-width="6"/><path d="M137.24 72.57l-19.59-14.21A4.61 4.61 0 0 1 116 56a4.61 4.61 0 0 1 0-2.85l7.49-23M90.94 134.14l7.47-23a4.61 4.61 0 0 1 1.68-2.31 4.61 4.61 0 0 1 2.71-.88H127M18.55 107.94h24.2a4.61 4.61 0 0 1 2.71.88 4.61 4.61 0 0 1 1.68 2.31l7.47 23M21.53 30.18L29 53.2a4.61 4.61 0 0 1 0 2.8 4.61 4.61 0 0 1-1.68 2.31L7.76 72.57" fill="none" stroke="#a8aeb2" stroke-miterlimit="10" stroke-width="5"/><path d="M118.62 60.26l-2.39-7.37L85.09 60a4 4 0 0 1-4.88-3.54l-2.84-31.8h-7.74l-2.84 31.8A4 4 0 0 1 61.92 60l-31.15-7.11-2.39 7.36L57.74 72.8a4 4 0 0 1 1.86 5.73l-16.38 27.4 6.26 4.55 21-24a4 4 0 0 1 6 0l21 24 6.26-4.55-16.35-27.42a4 4 0 0 1 1.86-5.73z" fill="#a8aeb2"/><circle cx="100.98" cy="107.02" r="1.98" transform="translate(-6.27 207.75) rotate(-89.87)" fill="#595f72" stroke="#a8aeb2" stroke-miterlimit="10"/><circle cx="114.98" cy="56.98" r="1.98" transform="translate(57.73 171.83) rotate(-89.87)" fill="#595f72" stroke="#a8aeb2" stroke-miterlimit="10"/><circle cx="30.02" cy="56.98" r="1.98" transform="translate(-27.03 86.87) rotate(-89.87)" fill="#595f72" stroke="#a8aeb2" stroke-miterlimit="10"/><circle cx="46.02" cy="107.98" r="1.98" transform="translate(-62.07 153.75) rotate(-89.87)" fill="#595f72" stroke="#a8aeb2" stroke-miterlimit="10"/><path d="M95 11.88L75.43 26.12a4.61 4.61 0 0 1-2.71.88 4.61 4.61 0 0 1-2.72-.88L50.43 11.88" fill="none" stroke="#a8aeb2" stroke-miterlimit="10" stroke-width="5"/><circle cx="73.02" cy="26.98" r="1.98" transform="translate(45.86 99.94) rotate(-89.87)" fill="#595f72" stroke="#a8aeb2" stroke-miterlimit="10"/></svg>