<svg xmlns="http://www.w3.org/2000/svg" viewBox="0 0 65.68 28.72"><title>Asset 11</title><path d="M65 4.57L61.78.9A2.66 2.66 0 0 0 59.3 0l-4 .73a2.66 2.66 0 0 0-2.07 1.88l-.83 2.86a2.66 2.66 0 0 1-2.29 1.91L8.08 11.73a2.66 2.66 0 0 1-1.61-.35L4 9.95A2.66 2.66 0 0 0 .26 11.1a2.66 2.66 0 0 0 .63 3.13 76.08 76.08 0 0 0 5.87 5c.44.13 4.91 5.84 7 8.49a2.65 2.65 0 0 0 2.69 1c3.89-.89 13.39-3.13 14.65-4.09s8.71-6.87 10.45-8.26a2.64 2.64 0 0 1 .83-.45l21.49-7A2.66 2.66 0 0 0 65 4.57z" fill="#c62114"/></svg>