<svg id="Layer_1" xmlns="http://www.w3.org/2000/svg" viewBox="0 0 434 434"><style>.st0{fill:#c62114}.st1{fill:#ffdc0d}.st2{fill:#aaa}.st3,.st4,.st5{fill:none;stroke:#333;stroke-width:24;stroke-miterlimit:10}.st4,.st5{stroke:#ccc}.st5{stroke:url(#SVGID_1_);stroke-width:26}</style><path class="st0" d="M99.5 88.8c22.4 18.6 43.9 38.2 65.1 58 21.2 19.8 42 40 62.5 60.5s40.7 41.3 60.5 62.5c19.8 21.2 39.3 42.7 58 65.1l-10.7 10.7c-22.4-18.6-43.9-38.2-65.1-58-21.2-19.8-42-40-62.5-60.5s-40.7-41.3-60.5-62.5c-19.8-21.2-39.3-42.7-58-65.1l10.7-10.7z"/><path class="st0" d="M88.8 334.8c18.6-22.4 38.2-43.9 58-65.1 19.8-21.2 40-42 60.5-62.5s41.3-40.7 62.5-60.5c21.2-19.8 42.7-39.3 65.1-58l10.7 10.7c-18.6 22.4-38.2 43.9-58 65.1-19.8 21.2-40 42-60.5 62.5s-41.3 40.7-62.5 60.5c-21.2 19.8-42.7 39.3-65.1 58l-10.7-10.7z"/><path class="st1" d="M204.9 201.7c0-.5-.1-1.1-.2-1.6-.2-.5-.5-.9-.8-1.3-.5-.5-1-.8-1.4-.9s-.8 0-1.2.3c-.1.1-.2.3-.2.5s0 .4.1.6c.1.2.2.4.4.6s.3.5.6.8c.4.5.7.9.9 1.2.2.3.4.7.5 1 .1.4.1.8 0 1.2-.1.4-.3.8-.7 1.1-.3.3-.6.5-1 .6s-.8.1-1.2 0c-.4-.1-.9-.2-1.3-.5-.4-.2-.8-.5-1.2-.9-1.1-1.1-1.6-2.3-1.6-3.7l1.7.1c0 .6.1 1.1.3 1.5s.4.8.8 1.1c.5.5.9.7 1.3.8.4.1.7 0 1-.3.1-.1.2-.3.2-.5s0-.4-.1-.6l-.3-.6c-.1-.2-.3-.5-.6-.8-.3-.5-.6-.9-.8-1.2s-.4-.7-.5-1.1c-.1-.4-.1-.8 0-1.2.1-.4.3-.8.7-1.2.3-.3.7-.6 1.2-.7.4-.1.9-.1 1.4-.1.5.1.9.2 1.4.5.5.3.9.6 1.3.9.5.5.9 1.1 1.2 1.8.3.7.4 1.5.4 2.3l-2.3.3zM191 197.4l-1.2-1.2 3.7-3.7c.6-.6.9-1.2.9-1.9s-.2-1.3-.7-1.8c-.5-.5-1.1-.7-1.8-.7s-1.3.3-1.9.9l-3.7 3.7-1.2-1.2 3.9-3.9c.4-.4.8-.7 1.3-.9.5-.2 1-.3 1.5-.3s1 .1 1.6.3 1 .5 1.4 1c.4.4.8.9 1 1.4.2.5.3 1 .3 1.6 0 .5-.1 1-.3 1.5-.2.5-.5.9-.9 1.3l-3.9 3.9zM184.8 182l.8.8-1.2 1.2-.8-.8-3.4 3.4-3.2-3.2c-.7-.7-1.1-1.5-1.1-2.4 0-.9.3-1.6 1-2.3.7-.7 1.4-1 2.3-1 .9 0 1.7.4 2.4 1.1l1.9 1.9 2.1-2.1 1.2 1.2-2 2.2zm-2.4-.1l-1.8-1.8c-.4-.4-.8-.6-1.3-.6-.4 0-.8.2-1.1.5-.3.3-.5.7-.5 1.1 0 .4.2.8.6 1.3l1.8 1.8 2.3-2.3zM174 172.6l.8.8-1.2 1.2-.8-.8-2.7 2.7-5.1-5.1 1.2-1.2 3.9 3.9 1.5-1.5-2.7-2.7 1.2-1.2 2.7 2.7 1.7-1.7-3.9-3.9 1.2-1.2 5.1 5.1-2.9 2.9zM165.1 162.3l.8.8-1.2 1.2-.8-.8-3.4 3.4-3.2-3.2c-.7-.7-1.1-1.5-1.1-2.4 0-.9.3-1.6 1-2.3.5-.5 1-.7 1.7-.8s1.3.1 1.9.4l.7-4 1.5 1.5-.7 3.5 1.5 1.5 2.1-2.1 1.2 1.2-2 2.1zm-2.4-.1l-1.8-1.8c-.4-.4-.8-.6-1.3-.6-.4 0-.8.2-1.1.5-.3.3-.5.7-.5 1.1 0 .4.2.8.6 1.3l1.8 1.8 2.3-2.3zM144.5 151.1v-6h-6l6.8-6.8 1.2 1.2-4.1 4.1 3.5-.1-.1 3.5 4.1-4.1 1.2 1.2-6.6 7zM133.5 137.6l1.5 1.5-1.1 1.1-2.8-2.8 3.8-9.5 1.3 1.3-.7 1.8 2.8 2.8 1.8-.7 1.3 1.3-7.9 3.2zm1.4-5l-1.4 3.4 3.4-1.4-2-2zM128.9 126.1l.8.8-1.2 1.2-.8-.8-3.4 3.4-3.2-3.2c-.7-.7-1.1-1.5-1.1-2.4 0-.9.3-1.6 1-2.3.5-.5 1-.7 1.7-.8s1.3.1 1.9.4l.7-4 1.5 1.5-.7 3.5 1.5 1.5 2.1-2.1 1.2 1.2-2 2.1zm-2.4-.1l-1.8-1.8c-.4-.4-.8-.6-1.3-.6-.4 0-.8.2-1.1.5-.3.3-.5.7-.5 1.1 0 .4.2.8.6 1.3l1.8 1.8 2.3-2.3zM114.4 120.7l-1.2-1.2 6.7-6.7 1.2 1.2-6.7 6.7zM110.5 112.9c-.6.2-1.2.4-1.9.3-.6 0-1.3-.1-1.9-.4s-1.2-.6-1.7-1.1c-.5-.5-.9-1-1.1-1.7s-.4-1.2-.4-1.9.1-1.3.3-1.9c.2-.6.6-1.1 1.1-1.6.5-.5 1-.8 1.6-1.1.6-.2 1.2-.4 1.9-.3.6 0 1.3.1 1.9.4.6.3 1.2.6 1.7 1.1.5.5.9 1 1.1 1.6.3.6.4 1.2.4 1.9 0 .6-.1 1.3-.3 1.9-.2.6-.6 1.1-1.1 1.6-.4.6-1 .9-1.6 1.2zm1.1-3.5c.2-.4.2-.8.2-1.2 0-.4-.1-.8-.2-1.2s-.4-.7-.7-1c-.3-.3-.6-.5-1-.7s-.8-.2-1.2-.2c-.4 0-.8.1-1.2.2-.4.2-.8.4-1.1.7s-.6.7-.7 1.1-.2.8-.2 1.2c0 .4.1.8.2 1.2.2.4.4.7.7 1 .3.3.6.5 1 .7s.8.2 1.2.2c.4 0 .8-.1 1.2-.2.4-.2.8-.4 1.1-.7s.5-.7.7-1.1zM229.1 231.3c0 .5.1 1.1.2 1.6.2.5.5.9.8 1.3.5.5 1 .8 1.4.9s.8 0 1.2-.3c.1-.1.2-.3.2-.5s0-.4-.1-.6c-.1-.2-.2-.4-.4-.6s-.3-.5-.6-.8c-.4-.5-.7-.9-.9-1.2-.2-.3-.4-.7-.5-1-.1-.4-.1-.8 0-1.2.1-.4.3-.8.7-1.1.3-.3.6-.5 1-.6s.8-.1 1.2 0c.4.1.9.2 1.3.5.4.2.8.5 1.2.9 1.1 1.1 1.6 2.3 1.6 3.7l-1.7-.1c0-.6-.1-1.1-.3-1.5s-.4-.8-.8-1.1c-.5-.5-.9-.7-1.3-.8-.4-.1-.7 0-1 .3-.1.1-.2.3-.2.5s0 .4.1.6l.3.6c.1.2.3.5.6.8.3.5.6.9.8 1.2s.4.7.5 1.1c.1.4.1.8 0 1.2-.1.4-.3.8-.7 1.2-.3.3-.7.6-1.2.7-.4.1-.9.1-1.4.1-.5-.1-.9-.2-1.4-.5-.5-.3-.9-.6-1.3-.9-.5-.5-.9-1.1-1.2-1.8-.3-.7-.4-1.5-.4-2.3l2.3-.3zM243 235.6l1.2 1.2-3.7 3.7c-.6.6-.9 1.2-.9 1.9s.2 1.3.7 1.8c.5.5 1.1.7 1.8.7s1.3-.3 1.9-.9l3.7-3.7 1.2 1.2-3.9 3.9c-.4.4-.8.7-1.3.9-.5.2-1 .3-1.5.3s-1-.1-1.6-.3-1-.5-1.4-1c-.4-.4-.8-.9-1-1.4-.2-.5-.3-1-.3-1.6 0-.5.1-1 .3-1.5.2-.5.5-.9.9-1.3l3.9-3.9zM249.2 251l-.8-.8 1.2-1.2.8.8 3.4-3.4 3.2 3.2c.7.7 1.1 1.5 1.1 2.4 0 .9-.3 1.6-1 2.3-.7.7-1.4 1-2.3 1-.9 0-1.7-.4-2.4-1.1l-1.9-1.9-2.1 2.1-1.2-1.2 2-2.2zm2.4.1l1.8 1.8c.4.4.8.6 1.3.6.4 0 .8-.2 1.1-.5.3-.3.5-.7.5-1.1 0-.4-.2-.8-.6-1.3l-1.8-1.8-2.3 2.3zM260 260.4l-.8-.8 1.2-1.2.8.8 2.7-2.7 5.1 5.1-1.2 1.2-3.9-3.9-1.5 1.5 2.7 2.7-1.2 1.2-2.7-2.7-1.7 1.7 3.9 3.9-1.2 1.2-5.1-5.1 2.9-2.9zM268.9 270.7l-.8-.8 1.2-1.2.8.8 3.4-3.4 3.2 3.2c.7.7 1.1 1.5 1.1 2.4 0 .9-.3 1.6-1 2.3-.5.5-1 .7-1.7.8s-1.3-.1-1.9-.4l-.7 4-1.5-1.5.7-3.5-1.5-1.5-2.2 2.1-1.2-1.2 2.1-2.1zm2.4.1l1.8 1.8c.4.4.8.6 1.3.6.4 0 .8-.2 1.1-.5.3-.3.5-.7.5-1.1 0-.4-.2-.8-.6-1.3l-1.8-1.8-2.3 2.3zM289.5 281.9v6h6l-6.8 6.8-1.2-1.2 4.1-4.1-3.5.1.1-3.5-4.1 4.1-1.2-1.2 6.6-7zM300.5 295.4l-1.5-1.5 1.1-1.1 2.8 2.8-3.9 9.4-1.3-1.3.7-1.8-2.8-2.8-1.8.7-1.3-1.3 8-3.1zm-1.4 5l1.4-3.4-3.4 1.4 2 2zM305.1 306.9l-.8-.8 1.2-1.2.8.8 3.4-3.4 3.2 3.2c.7.7 1.1 1.5 1.1 2.4 0 .9-.3 1.6-1 2.3-.5.5-1 .7-1.7.8s-1.3-.1-1.9-.4l-.7 4-1.5-1.5.7-3.5-1.5-1.5-2.1 2.1-1.3-1.2 2.1-2.1zm2.4.1l1.8 1.8c.4.4.8.6 1.3.6.4 0 .8-.2 1.1-.5.3-.3.5-.7.5-1.1 0-.4-.2-.8-.6-1.3l-1.8-1.8-2.3 2.3zM319.6 312.3l1.2 1.2-6.7 6.7-1.2-1.2 6.7-6.7zM323.5 320.1c.6-.2 1.2-.4 1.9-.3.6 0 1.3.1 1.9.4s1.2.6 1.7 1.1c.5.5.9 1 1.1 1.7s.4 1.2.4 1.9-.1 1.3-.3 1.9c-.2.6-.6 1.1-1.1 1.6-.5.5-1 .8-1.6 1.1-.6.2-1.2.4-1.9.3-.6 0-1.3-.1-1.9-.4-.6-.3-1.2-.6-1.7-1.1-.5-.5-.9-1-1.1-1.6-.3-.6-.4-1.2-.4-1.9 0-.6.1-1.3.3-1.9.2-.6.6-1.1 1.1-1.6.4-.6 1-.9 1.6-1.2zm-1.1 3.5c-.2.4-.2.8-.2 1.2 0 .4.1.8.2 1.2s.4.7.7 1c.3.3.6.5 1 .7s.8.2 1.2.2c.4 0 .8-.1 1.2-.2.4-.2.8-.4 1.1-.7s.6-.7.7-1.1.2-.8.2-1.2c0-.4-.1-.8-.2-1.2-.2-.4-.4-.7-.7-1-.3-.3-.6-.5-1-.7s-.8-.2-1.2-.2c-.4 0-.8.1-1.2.2-.4.2-.8.4-1.1.7s-.5.7-.7 1.1z"/><g><path class="st1" d="M199.9 233.8l.8-.8 1.2 1.2-.9.8 2.7 2.7-1.2 1.2-2.7-2.7-.5.5.4 4.9-1.5 1.5-.4-5.5-6.4-1.1 1.6-1.6 4.8.9.8-.8-2.8-2.8 1.2-1.2 2.9 2.8zM194.2 247.1l-1.2 1.2-6.7-6.7 1.2-1.2 6.7 6.7zM184.4 251.8l-4.1-4.1 1.2-1.2 6.8 6.8-8.5.1 4.1 4.1-1.2 1.2-6.8-6.8 8.5-.1zM176.1 261.2c.2.6.4 1.2.3 1.9 0 .6-.1 1.3-.4 1.9s-.6 1.2-1.1 1.7c-.6.6-1.2 1-1.9 1.2-.7.3-1.5.3-2.3.3l.3-1.8c.5.1 1 .1 1.5-.1s.9-.4 1.3-.8c.3-.3.5-.6.7-1s.2-.8.2-1.2c0-.4-.1-.8-.2-1.2s-.4-.8-.7-1.1-.7-.6-1.1-.7c-.4-.2-.8-.2-1.2-.2-.4 0-.8.1-1.2.2s-.7.4-1 .7c-.6.6-.9 1.2-1 1.9s.1 1.4.5 2.1l2.3-2.3 1.2 1.2-3.6 3.6-.9-.9c-.3-.3-.6-.7-.8-1.2-.2-.5-.4-1.1-.4-1.7-.1-.6 0-1.3.3-2 .2-.7.7-1.3 1.3-1.9.5-.5 1-.9 1.7-1.1.6-.3 1.2-.4 1.9-.4.6 0 1.3.1 1.9.3.6.2 1.1.6 1.6 1.1.2.4.6.9.8 1.5zM160.8 280.5l-1.2 1.2-5.5-5.5-2.6 2.6 1.6 1.6-1.2 1.2-2.8-2.8 5.1-5.1 6.6 6.8zM151.4 289.9l-1.2 1.2-6.7-6.7 1.2-1.2 6.7 6.7zM143.6 293.8c.2.6.4 1.2.3 1.9 0 .6-.1 1.3-.4 1.9s-.6 1.2-1.1 1.7c-.5.5-1 .9-1.7 1.1-.6.3-1.2.4-1.9.4-.6 0-1.3-.1-1.9-.3-.6-.2-1.1-.6-1.6-1.1-.5-.5-.8-1-1.1-1.6-.2-.6-.4-1.2-.3-1.9 0-.6.1-1.3.4-1.9.3-.6.6-1.2 1.1-1.7.5-.5 1-.9 1.6-1.1.6-.3 1.2-.4 1.9-.4.6 0 1.3.1 1.9.3.6.2 1.1.6 1.6 1.1.6.4.9 1 1.2 1.6zm-3.5-1.1c-.4-.2-.8-.2-1.2-.2-.4 0-.8.1-1.2.2s-.7.4-1 .7c-.3.3-.5.6-.7 1s-.2.8-.2 1.2c0 .4.1.8.2 1.2.2.4.4.8.7 1.1s.7.6 1.1.7c.4.2.8.2 1.2.2.4 0 .8-.1 1.2-.2.4-.2.7-.4 1-.7s.5-.6.7-1 .2-.8.2-1.2c0-.4-.1-.8-.2-1.2-.2-.4-.4-.8-.7-1.1s-.7-.5-1.1-.7zM130.6 305.6l-4.1-4.1 1.2-1.2 6.8 6.8-8.5.1 4.1 4.1-1.2 1.2-6.8-6.8 8.5-.1z"/></g><g><path class="st1" d="M238.1 196.2l-.8.8-1.2-1.2.8-.8-2.7-2.7 1.2-1.2 2.7 2.7.5-.5-.4-4.9 1.5-1.5.4 5.5 6.4 1.1-1.6 1.6-4.8-.9-.8.8 2.8 2.8-1.1 1.2-2.9-2.8zM243.8 182.9l1.2-1.2 6.7 6.7-1.2 1.2-6.7-6.7zM253.6 178.2l4.1 4.1-1.2 1.2-6.8-6.8 8.5-.1-4.1-4.1 1.2-1.2 6.8 6.8-8.5.1zM261.9 168.8c-.2-.6-.4-1.2-.3-1.9 0-.6.1-1.3.4-1.9s.6-1.2 1.1-1.7c.6-.6 1.2-1 1.9-1.2.7-.3 1.5-.3 2.3-.3l-.3 1.8c-.5-.1-1-.1-1.5.1s-.9.4-1.3.8c-.3.3-.5.6-.7 1s-.2.8-.2 1.2c0 .4.1.8.2 1.2s.4.8.7 1.1.7.6 1.1.7c.4.2.8.2 1.2.2.4 0 .8-.1 1.2-.2s.7-.4 1-.7c.6-.6.9-1.2 1-1.9s-.1-1.4-.5-2.1l-2.3 2.3-1.2-1.2 3.6-3.6.9.9c.3.3.6.7.8 1.2.2.5.4 1.1.4 1.7.1.6 0 1.3-.3 2-.2.7-.7 1.3-1.3 1.9-.5.5-1 .9-1.7 1.1-.6.3-1.2.4-1.9.4-.6 0-1.3-.1-1.9-.3-.6-.2-1.1-.6-1.6-1.1-.2-.4-.6-.9-.8-1.5zM277.2 149.5l1.2-1.2 5.5 5.5 2.6-2.6-1.6-1.6 1.2-1.2 2.8 2.8-5.1 5.1-6.6-6.8zM286.6 140.1l1.2-1.2 6.7 6.7-1.2 1.2-6.7-6.7zM294.4 136.2c-.2-.6-.4-1.2-.3-1.9 0-.6.1-1.3.4-1.9s.6-1.2 1.1-1.7c.5-.5 1-.9 1.7-1.1.6-.3 1.2-.4 1.9-.4.6 0 1.3.1 1.9.3.6.2 1.1.6 1.6 1.1.5.5.8 1 1.1 1.6.2.6.4 1.2.3 1.9 0 .6-.1 1.3-.4 1.9-.3.6-.6 1.2-1.1 1.7-.5.5-1 .9-1.6 1.1-.6.3-1.2.4-1.9.4-.6 0-1.3-.1-1.9-.3-.6-.2-1.1-.6-1.6-1.1-.6-.4-.9-1-1.2-1.6zm3.5 1.1c.4.2.8.2 1.2.2.4 0 .8-.1 1.2-.2s.7-.4 1-.7c.3-.3.5-.6.7-1s.2-.8.2-1.2c0-.4-.1-.8-.2-1.2-.2-.4-.4-.8-.7-1.1s-.7-.6-1.1-.7c-.4-.2-.8-.2-1.2-.2-.4 0-.8.1-1.2.2-.4.2-.7.4-1 .7s-.5.6-.7 1-.2.8-.2 1.2c0 .4.1.8.2 1.2.2.4.4.8.7 1.1s.7.5 1.1.7zM307.4 124.4l4.1 4.1-1.2 1.2-6.8-6.8 8.5-.1-4.1-4.1 1.2-1.2 6.8 6.8-8.5.1z"/></g><g><path class="st2" d="M217.7 368h3.5v25h-3.5z"/></g><g><path class="st1" d="M222 372h-5v-5.5c0-1.4 1.1-2.5 2.5-2.5s2.5 1.1 2.5 2.5v5.5z"/></g><ellipse transform="matrix(0.7071 -0.7071 0.7071 0.7071 -89.8843 217)" class="st3" cx="217" cy="217" rx="205" ry="205"/><ellipse transform="matrix(0.7071 -0.7071 0.7071 0.7071 -89.9576 217.1768)" class="st4" cx="217.2" cy="217.2" rx="192" ry="192"/><radialGradient id="SVGID_1_" cx="217.177" cy="217" r="198" gradientUnits="userSpaceOnUse"><stop offset=".865" stop-color="#d14b41"/><stop offset="1" stop-color="#c62114"/></radialGradient><ellipse transform="matrix(0.7071 -0.7071 0.7071 0.7071 -89.8326 217.125)" class="st5" cx="217.2" cy="217" rx="185" ry="185"/><g><path class="st1" d="M51.1 287.6c.3-.7.5-1.4.5-2.2 0-.7-.1-1.5-.4-2.1-.4-.9-.9-1.5-1.4-1.9-.5-.4-1.1-.5-1.7-.2-.3.1-.5.3-.6.5-.1.2-.2.5-.2.8 0 .3.1.7.1 1 .1.4.2.8.3 1.3.2.8.4 1.5.5 2 .1.5.1 1.1.1 1.6s-.2 1.1-.5 1.5-.8.8-1.5 1.1c-.5.2-1.1.3-1.6.2-.6-.1-1.1-.3-1.6-.6s-1-.8-1.4-1.3c-.4-.5-.8-1.1-1.1-1.8-.9-2-.9-3.9-.2-5.6l2.2 1c-.3.8-.5 1.4-.4 2.1 0 .6.1 1.2.4 1.8.4.8.8 1.4 1.3 1.7.5.3 1 .3 1.4.2.3-.1.5-.3.6-.5.1-.2.2-.5.2-.8 0-.3-.1-.6-.1-1s-.2-.8-.4-1.4c-.2-.8-.4-1.4-.5-2s-.1-1.1-.1-1.6.2-1.1.5-1.5c.3-.5.8-.8 1.5-1.1.6-.3 1.2-.4 1.9-.3.6.1 1.2.3 1.8.6.6.4 1.1.8 1.5 1.4.5.6.8 1.2 1.1 1.9.4.9.6 1.9.6 3s-.2 2.1-.6 3.2l-2.2-1zM43.2 268.2l.4 1.5-2.2.6-.4-1.5-6.4 1.9-1.8-6c-.4-1.4-.3-2.6.2-3.7s1.5-1.8 2.7-2.2c1.3-.4 2.4-.3 3.5.3s1.8 1.6 2.2 3l1.1 3.7 4-1.2.7 2.3-4 1.3zm-2.9-1.7l-1-3.5c-.2-.8-.6-1.3-1.1-1.6-.5-.3-1.1-.3-1.7-.2-.6.2-1 .5-1.3 1.1-.3.5-.3 1.2-.1 2l1 3.5 4.2-1.3zM29.1 249.2l-.5-2.4 13-2.5.5 2.4-13 2.5zM31.6 231.6l8.1-.7.2 2.4-13.4 1.2 7.6-9.2-8.1.7-.2-2.4 13.4-1.2-7.6 9.2zM33 210.7l-.1 1.6-2.3-.1.1-1.6-5.3-.2.3-10.1 2.3.1-.3 7.7 3 .1.2-5.4 2.3.1-.2 5.4 3.3.1.3-7.7 2.3.1-.3 10.1-5.6-.2zM35.9 189.6l-.2 1.6-2.3-.4.2-1.6-6.6-1 1-6.2c.2-1.4.8-2.5 1.8-3.2 1-.7 2.1-1 3.4-.8.9.1 1.7.6 2.3 1.2.6.7 1 1.5 1.1 2.4l5.2-2.5-.5 3-4.5 2.1-.5 2.9 4.1.6-.4 2.4-4.1-.5zm-1.9-2.7l.6-3.6c.1-.8 0-1.4-.3-1.9-.4-.5-.8-.8-1.5-.9-.6-.1-1.2 0-1.7.4s-.8.9-.9 1.7l-.6 3.6 4.4.7zM34.9 167.2c-.7-.6-1.3-1.3-1.7-2.1-.4-.8-.7-1.7-.8-2.6-.1-.9 0-1.9.3-2.8.3-1 .8-2 1.5-2.8.7-.8 1.6-1.4 2.6-1.9l.9 2.4c-.7.2-1.3.6-1.8 1.1-.5.5-.8 1.1-1 1.8-.2.6-.2 1.1-.1 1.7s.2 1.1.5 1.7c.3.5.7 1 1.1 1.4s1 .7 1.6.8c.6.2 1.2.2 1.8.1.6-.1 1.2-.3 1.7-.6s1-.7 1.3-1.1c.4-.5.6-1 .8-1.5.3-1.1.3-2.1-.1-3-.4-1-1.1-1.7-2.1-2.3l-1.2 4.3-2.2-.6 2-6.8 1.7.5c.6.2 1.2.5 1.8.9.6.5 1.2 1.1 1.7 1.8s.8 1.6 1 2.6c.2 1 .1 2.1-.2 3.2-.3.9-.7 1.8-1.3 2.5-.6.7-1.3 1.3-2 1.8s-1.6.7-2.5.9-1.8 0-2.7-.2c-1.1-.2-1.9-.6-2.6-1.2zM46.6 142.9l-8.6 1.5 1.1-2.6 5.9-.9-3.5-4.9 1.1-2.6 5 7.2 5.4 2.3-.9 2.2-5.5-2.2z"/></g><g><path class="st1" d="M383.9 137.4c-.3.7-.5 1.4-.5 2.2s.1 1.5.4 2.1c.4.9.9 1.5 1.4 1.9.5.4 1.1.5 1.7.2.3-.1.5-.3.6-.5.1-.2.2-.5.2-.8 0-.3-.1-.7-.1-1-.1-.4-.2-.8-.3-1.3-.2-.8-.4-1.5-.5-2-.1-.5-.1-1.1-.1-1.6s.2-1.1.5-1.5.8-.8 1.5-1.1c.5-.2 1.1-.3 1.6-.2s1.1.3 1.6.6 1 .8 1.4 1.3c.4.5.8 1.1 1.1 1.8.9 2 .9 3.9.2 5.6l-2.2-1c.3-.8.5-1.4.4-2.1 0-.6-.1-1.2-.4-1.8-.4-.8-.8-1.4-1.3-1.7-.5-.3-1-.3-1.4-.2-.3.1-.5.3-.6.5-.1.2-.2.5-.2.8 0 .3.1.6.1 1 .1.3.2.8.4 1.4.2.8.4 1.4.5 2s.1 1.1.1 1.6-.2 1.1-.5 1.5c-.3.5-.8.8-1.5 1.1-.6.3-1.2.4-1.9.3s-1.2-.3-1.8-.6c-.6-.4-1.1-.8-1.5-1.4s-.8-1.2-1.1-1.9c-.4-.9-.6-1.9-.6-3s.2-2.1.6-3.2l2.2 1zM391.8 156.8l-.4-1.5 2.2-.6.4 1.5 6.4-1.9 1.8 6c.4 1.4.3 2.6-.2 3.7-.6 1.1-1.5 1.8-2.7 2.2-1.3.4-2.4.3-3.5-.3s-1.8-1.6-2.2-3l-1.1-3.7-4 1.2-.7-2.3 4-1.3zm2.9 1.7l1 3.5c.2.8.6 1.3 1.1 1.6.5.3 1.1.3 1.7.2.6-.2 1-.5 1.3-1.1.3-.5.3-1.2.1-2l-1-3.5-4.2 1.3zM405.9 175.8l.5 2.4-13 2.5-.5-2.4 13-2.5zM403.4 193.4l-8.1.7-.2-2.4 13.4-1.2-7.6 9.2 8.1-.7.2 2.4-13.4 1.2 7.6-9.2zM402 214.3l.1-1.6 2.3.1-.1 1.6 5.3.2-.3 10.1-2.3-.1.3-7.7-3-.1-.2 5.4-2.3-.1.2-5.4-3.3-.1-.3 7.7-2.3-.1.3-10.1 5.6.2zM399.1 235.4l.2-1.6 2.3.4-.2 1.6 6.6 1-1 6.2c-.2 1.4-.8 2.5-1.8 3.2-1 .7-2.1 1-3.4.8-.9-.1-1.7-.6-2.3-1.2s-1-1.5-1.1-2.4l-5.2 2.5.5-3 4.5-2.1.5-2.9-4.1-.6.4-2.4 4.1.5zm1.9 2.8l-.6 3.6c-.1.8 0 1.4.3 1.9.4.5.8.8 1.5.9.6.1 1.2 0 1.7-.4s.8-.9.9-1.7l.6-3.6-4.4-.7zM400.1 257.8c.7.6 1.3 1.3 1.7 2.1.4.8.7 1.7.8 2.6.1.9 0 1.9-.3 2.8-.3 1-.8 2-1.5 2.8-.7.8-1.6 1.4-2.6 1.9l-.9-2.4c.7-.2 1.3-.6 1.8-1.1.5-.5.8-1.1 1-1.8.2-.6.2-1.1.1-1.7s-.2-1.1-.5-1.7c-.3-.5-.7-1-1.1-1.4-.5-.4-1-.7-1.6-.8-.6-.2-1.2-.2-1.8-.1-.6.1-1.2.3-1.7.6s-1 .7-1.3 1.1c-.4.5-.6 1-.8 1.5-.3 1.1-.3 2.1.1 3 .4 1 1.1 1.7 2.1 2.3l1.2-4.3 2.2.6-2 6.8-1.7-.5c-.6-.2-1.2-.5-1.8-.9-.6-.5-1.2-1.1-1.7-1.8s-.8-1.6-1-2.6-.1-2.1.2-3.2c.3-.9.7-1.8 1.3-2.5.6-.7 1.3-1.3 2-1.8.8-.5 1.6-.7 2.5-.9.9-.1 1.8 0 2.7.2 1.1.2 1.9.6 2.6 1.2zM388.4 282.1l8.6-1.5-1.1 2.6-5.9.9 3.5 4.9-1.1 2.6-5-7.2-5.4-2.3.9-2.2 5.5 2.2z"/></g></svg>