<svg id="Layer_1" data-name="Layer 1" xmlns="http://www.w3.org/2000/svg" xmlns:xlink="http://www.w3.org/1999/xlink" viewBox="0 0 1375.68 718.92"><defs><style>.cls-1{fill:url(#linear-gradient);}.cls-2{fill:#a9c5d8;}.cls-3{opacity:0.07;fill:url(#linear-gradient-2);}.cls-4{opacity:0.23;fill:url(#linear-gradient-3);}.cls-5{opacity:0.22;fill:url(#linear-gradient-4);}</style><linearGradient id="linear-gradient" y1="359.46" x2="1375.68" y2="359.46" gradientUnits="userSpaceOnUse"><stop offset="0.07" stop-color="#f9f9fa"/><stop offset="0.94" stop-color="#fffeff"/></linearGradient><linearGradient id="linear-gradient-2" x1="-253.68" y1="591.24" x2="1122" y2="591.24" gradientUnits="userSpaceOnUse"><stop offset="0.07" stop-color="#3483c5"/><stop offset="0.88" stop-color="#dfe9f7"/></linearGradient><linearGradient id="linear-gradient-3" x1="-253.68" y1="662.16" x2="1122" y2="662.16" gradientUnits="userSpaceOnUse"><stop offset="0" stop-color="#f1f8fd"/><stop offset="0.68" stop-color="#5596d1"/></linearGradient><linearGradient id="linear-gradient-4" x1="-253.68" y1="679.76" x2="1122" y2="679.76" gradientUnits="userSpaceOnUse"><stop offset="0.46" stop-color="#3483c5"/><stop offset="0.94" stop-color="#f1f8fd"/></linearGradient></defs><title>bg</title><rect class="cls-1" width="1375.68" height="718.92"/><circle class="cls-2" cx="513.16" cy="254.29" r="3.07"/><circle class="cls-2" cx="510.89" cy="582.3" r="3.07"/><circle class="cls-2" cx="513.96" cy="515.12" r="3.07"/><circle class="cls-2" cx="513.03" cy="444.46" r="3.07"/><circle class="cls-2" cx="513.09" cy="378.24" r="3.07"/><circle class="cls-2" cx="510.09" cy="306.62" r="3.07"/><path class="cls-3" d="M-253.68,524.35s237.84-87.84,706.76,90.54,668.92-177,668.92-177V744.62H-253.68Z" transform="translate(253.68 -26.57)"/><path class="cls-4" d="M-253.24,664.89s282-160.81,680.65-40.54S1122,654.08,1122,654.08v90.54H-253.68Z" transform="translate(253.68 -26.57)"/><path class="cls-5" d="M-253.68,614.89s462.16,141.89,700,55.41S1122,681.11,1122,681.11c0,63.51-1375.68,63.51-1375.68,63.51Z" transform="translate(253.68 -26.57)"/><circle class="cls-2" cx="81.08" cy="249.13"/><circle class="cls-2" cx="13.61" cy="108.59" r="3.07"/><circle class="cls-2" cx="11.34" cy="436.6" r="3.07"/><circle class="cls-2" cx="14.41" cy="369.43" r="3.07"/><circle class="cls-2" cx="13.47" cy="298.77" r="3.07"/><circle class="cls-2" cx="13.54" cy="232.55" r="3.07"/><circle class="cls-2" cx="10.54" cy="160.93" r="3.07"/><circle class="cls-2" cx="63.88" cy="71.61" r="3.07"/><circle class="cls-2" cx="61.61" cy="399.62" r="3.07"/><circle class="cls-2" cx="64.68" cy="332.45" r="3.07"/><circle class="cls-2" cx="63.74" cy="261.79" r="3.07"/><circle class="cls-2" cx="63.81" cy="195.57" r="3.07"/><circle class="cls-2" cx="60.81" cy="123.95" r="3.07"/><circle class="cls-2" cx="123.74" cy="147.11" r="3.07"/><circle class="cls-2" cx="121.47" cy="475.13" r="3.07"/><circle class="cls-2" cx="124.54" cy="407.95" r="3.07"/><circle class="cls-2" cx="123.61" cy="337.29" r="3.07"/><circle class="cls-2" cx="123.68" cy="271.07" r="3.07"/><circle class="cls-2" cx="120.68" cy="199.45" r="3.07"/><circle class="cls-2" cx="186.01" cy="68.54" r="3.07"/><circle class="cls-2" cx="183.74" cy="396.56" r="3.07"/><circle class="cls-2" cx="186.81" cy="329.38" r="3.07"/><circle class="cls-2" cx="185.88" cy="258.72" r="3.07"/><circle class="cls-2" cx="185.95" cy="192.5" r="3.07"/><circle class="cls-2" cx="182.95" cy="120.88" r="3.07"/><circle class="cls-2" cx="259.81" cy="124.19" r="3.07"/><circle class="cls-2" cx="257.54" cy="452.2" r="3.07"/><circle class="cls-2" cx="260.61" cy="385.03" r="3.07"/><circle class="cls-2" cx="259.68" cy="314.37" r="3.07"/><circle class="cls-2" cx="259.74" cy="248.15" r="3.07"/><circle class="cls-2" cx="256.74" cy="176.53" r="3.07"/><circle class="cls-2" cx="322.08" cy="87.21" r="3.07"/><circle class="cls-2" cx="319.81" cy="415.22" r="3.07"/><circle class="cls-2" cx="322.88" cy="348.05" r="3.07"/><circle class="cls-2" cx="321.95" cy="277.39" r="3.07"/><circle class="cls-2" cx="322.01" cy="211.17" r="3.07"/><circle class="cls-2" cx="319.01" cy="139.55" r="3.07"/><circle class="cls-2" cx="381.95" cy="162.71" r="3.07"/><circle class="cls-2" cx="379.68" cy="490.73" r="3.07"/><circle class="cls-2" cx="382.74" cy="423.55" r="3.07"/><circle class="cls-2" cx="381.81" cy="352.89" r="3.07"/><circle class="cls-2" cx="381.88" cy="286.67" r="3.07"/><circle class="cls-2" cx="378.88" cy="215.05" r="3.07"/><circle class="cls-2" cx="446.15" cy="119.93" r="3.07"/><circle class="cls-2" cx="443.88" cy="447.94" r="3.07"/><circle class="cls-2" cx="446.95" cy="380.77" r="3.07"/><circle class="cls-2" cx="446.01" cy="310.1" r="3.07"/><circle class="cls-2" cx="446.08" cy="243.89" r="3.07"/><circle class="cls-2" cx="443.08" cy="172.27" r="3.07"/><circle class="cls-2" cx="572.36" cy="176.35" r="3.07"/><circle class="cls-2" cx="570.09" cy="504.36" r="3.07"/><circle class="cls-2" cx="573.16" cy="437.19" r="3.07"/><circle class="cls-2" cx="572.23" cy="366.53" r="3.07"/><circle class="cls-2" cx="572.3" cy="300.31" r="3.07"/><circle class="cls-2" cx="569.3" cy="228.69" r="3.07"/></svg>