<svg id="Layer_1" data-name="Layer 1" xmlns="http://www.w3.org/2000/svg" viewBox="0 0 978.38 502.7"><defs><style>.cls-1{fill:#f8fcff;}.cls-2{fill:#0b8262;}.cls-3{fill:#6cb7bf;}.cls-12,.cls-4{fill:#68c4a3;}.cls-5{fill:#2759a3;}.cls-6{fill:#e6e9ed;}.cls-7{fill:#73cddd;}.cls-8{fill:#fdd943;}.cls-9{fill:#ffc615;}.cls-10{fill:#f89925;}.cls-11,.cls-13,.cls-19,.cls-30{fill:none;}.cls-11,.cls-12,.cls-13{stroke:#68c4a3;}.cls-11,.cls-12,.cls-13,.cls-30{stroke-miterlimit:10;}.cls-11{stroke-width:4px;}.cls-13{stroke-width:3px;}.cls-14{fill:#3d68b2;}.cls-15{fill:#ebeef1;}.cls-16{fill:#fff;}.cls-17{fill:#358d96;}.cls-18{fill:#cfe0f3;}.cls-20{fill:#f89620;}.cls-21{fill:#f8b319;}.cls-22{fill:#5696d1;}.cls-23{fill:#fbae1a;}.cls-24{fill:#cfd5dc;}.cls-25{fill:#7cc89a;}.cls-26{fill:#204582;}.cls-27{fill:#e72e25;}.cls-28{fill:#d4de25;}.cls-29{fill:#30b44a;}.cls-30{stroke:#231f20;}.cls-31{fill:#3a66b0;}.cls-32{fill:#58be88;}</style></defs><title>computer</title><path class="cls-1" d="M-750.37,371.65s-50-42.28,0-65.73,150-12.79,150-12.79,69.86-29.41,9.92-64.63l-109.95,2.66s-54.85-35.18,3.23-51.4l216.46,1.69s45.9-20.61,5.87-53h-98.6s-50.51-28.38,0-52.7h282.11s2.32,33.78,42.66,21.62l279.1,1.35s39.19,24.77,0,41.89H-58s-20.71,12.89,0,35.5l105.89-6.52s35.49,29,0,41.71H-66.2s-40.2,27.91,0,53.61l203.15,4.37s51.63,35.11,0,78.22L8,348.28s-43.69,34.82-.13,58.82H188.58s38.72,45.89,0,68.73L-175,474.35s-43,28.53-2.69,62.91H-24.38s32.27,22.22,0,41.14h-558s-35.12-27-7.18-52l-136.59-4s-40.33-42.75,1.61-59.57h74.41s55.05-42.87,0-93.36Z" transform="translate(772.59 -75.7)"/><path class="cls-2" d="M-509.79,345.38a66.81,66.81,0,0,1-.66-11,14.39,14.39,0,0,1,1.76-7.51c.59-.95-.42-4.72-9.5-17.88-14.86-21.53,8.11-7.18,0-31.1-7.47-22.06,16.06-6.46,13.43-33.89-.68-7.05,4.36-13.73,12.1-15.51,5.26-1.2,11-.06,15,7.55,9.46,17.92-9.46,26.29,10.81,31.08s-10.81,14.36,0,34.69-4.33,51.44-18.72,55l-3,.75C-498.36,360-508.42,354.31-509.79,345.38Z" transform="translate(772.59 -75.7)"/><polygon class="cls-3" points="271.62 246.53 324.79 164.76 340.54 140.54 401.35 140.54 381.96 170.36 332.43 246.53 271.62 246.53"/><circle class="cls-4" cx="750.8" cy="113.51" r="48.64"/><path class="cls-5" d="M-118.54,128.41s12.16,0,15.54,17.57,0,235.6,0,235.6-3.26,17.34-20.95,15.75S-118.54,128.41-118.54,128.41Z" transform="translate(772.59 -75.7)"/><polygon class="cls-6" points="401.35 330.76 332.43 371.62 332.43 246.53 401.35 140.54 401.35 330.76"/><path class="cls-7" d="M-301,377.05l-81.08-9.46s-6.76,1.35-8.11-10.81,0-193.24,0-193.24-5.41-6.76,13.51-9.46,258.11-25.68,258.11-25.68,6.76,6.76,6.76,13.51V386.51s-1.35,10.81-12.16,10.81S-301,377.05-301,377.05Z" transform="translate(772.59 -75.7)"/><polygon class="cls-8" points="583.78 390.54 583.78 410.81 650 425.68 650 402.7 583.78 390.54"/><polygon class="cls-9" points="689.19 371.62 628.38 360.81 583.78 390.54 650 402.7 689.19 371.62"/><polygon class="cls-10" points="689.19 394.7 689.19 371.62 650 402.7 650 425.68 689.19 394.7"/><polygon class="cls-7" points="472.97 360.81 471.62 301.35 538.99 309.46 538.99 366.22 472.97 360.81"/><rect class="cls-5" x="538.99" y="309.46" width="11.01" height="56.76"/><polygon class="cls-9" points="600 352.06 556.76 343.24 556.76 309.46 600 316.6 600 352.06"/><path class="cls-9" d="M-52.32,457.46l-14.86-60.14s52.7,17.57,94.59,0L13.89,457.46S-14.49,483.81-52.32,457.46Z" transform="translate(772.59 -75.7)"/><path class="cls-9" d="M-519.69,427.77h-25.87a17.81,17.81,0,0,1-10.81-14.23c-1.35-10.81-10.81-55.41-10.81-55.41s44.59,9.46,66.22,0v18.92S-503.28,435.24-519.69,427.77Z" transform="translate(772.59 -75.7)"/><line class="cls-11" x1="754.05" y1="309.46" x2="752.7" y2="160.81"/><path class="cls-12" d="M-1,269.24s-19.67-7-18.92,21.33C-19.89,290.57-6.38,296.55-1,269.24Z" transform="translate(772.59 -75.7)"/><circle class="cls-13" cx="795.32" cy="203.29" r="14.13"/><path class="cls-13" d="M-19.91,346.59s-6.74-22.48,28.4-30.47S22.72,279,22.72,279" transform="translate(772.59 -75.7)"/><polygon class="cls-14" points="444.85 474.45 285.97 432.26 358.36 400.13 509.61 437.29 444.85 474.45"/><polygon class="cls-15" points="442.91 468.55 281.03 424.36 356.43 382.23 512.67 427.39 442.91 468.55"/><polygon class="cls-16" points="340.43 433.78 350 425.68 404.35 439.19 391.89 448.65 340.43 433.78"/><polygon class="cls-16" points="287.95 422.24 302.65 412.49 314.11 415.49 300.03 425.24 287.95 422.24"/><polygon class="cls-16" points="382.27 429.62 396.97 419.87 408.43 422.87 394.35 432.62 382.27 429.62"/><polygon class="cls-16" points="364.64 425.62 379.34 415.87 390.8 418.87 376.72 428.62 364.64 425.62"/><polygon class="cls-16" points="347.81 420.24 362.51 410.49 373.97 413.49 359.89 423.24 347.81 420.24"/><polygon class="cls-16" points="341.27 396.85 355.97 387.09 367.43 390.09 353.35 399.85 341.27 396.85"/><polygon class="cls-16" points="331.83 414.87 346.53 405.11 357.99 408.11 343.91 417.87 331.83 414.87"/><polygon class="cls-16" points="315.11 410.83 329.81 401.08 341.27 404.08 327.19 413.83 315.11 410.83"/><polygon class="cls-17" points="340.54 140.54 324.79 164.76 381.96 170.36 401.35 140.54 340.54 140.54"/><polygon class="cls-16" points="321.75 430 336.45 420.24 347.91 423.24 333.83 433 321.75 430"/><polygon class="cls-16" points="304.03 425.62 318.73 415.87 330.19 418.87 316.11 428.62 304.03 425.62"/><polygon class="cls-16" points="425.93 420.26 440.63 410.5 452.09 413.5 438.01 423.26 425.93 420.26"/><polygon class="cls-16" points="408.3 416.26 423 406.5 434.46 409.5 420.38 419.26 408.3 416.26"/><polygon class="cls-16" points="391.47 410.88 406.18 401.12 417.63 404.12 403.55 413.88 391.47 410.88"/><polygon class="cls-16" points="375.49 405.5 390.2 395.75 401.65 398.75 387.57 408.5 375.49 405.5"/><polygon class="cls-16" points="358.77 401.47 373.47 391.71 384.93 394.71 370.85 404.47 358.77 401.47"/><polygon class="cls-16" points="459.68 430 474.38 420.24 485.84 423.24 471.76 433 459.68 430"/><polygon class="cls-16" points="442.46 425.77 457.16 416.01 468.62 419.01 454.54 428.77 442.46 425.77"/><polygon class="cls-16" points="417.32 438.18 432.02 428.42 443.48 431.42 429.4 441.18 417.32 438.18"/><polygon class="cls-16" points="400.59 434.15 415.3 424.39 426.75 427.39 412.67 437.15 400.59 434.15"/><polygon class="cls-16" points="435.4 443.18 447.71 433.8 478.08 441.18 459.68 449.69 435.4 443.18"/><polygon class="cls-16" points="391.47 93.24 641.89 70.27 641.89 286.64 394.59 270.88 391.47 93.24"/><polygon class="cls-16" points="410.51 454.04 425.21 444.28 436.67 447.28 422.59 457.04 410.51 454.04"/><polygon class="cls-16" points="428.83 458.56 443.53 448.81 454.99 451.81 440.91 461.56 428.83 458.56"/><polygon class="cls-16" points="474.75 435.18 489.45 425.42 500.91 428.42 486.83 438.18 474.75 435.18"/><polygon class="cls-16" points="394.59 450.04 409.3 440.28 420.75 443.28 406.67 453.04 394.59 450.04"/><polygon class="cls-9" points="550 295.95 600 301.35 600 316.6 556.76 309.46 550 295.95"/><rect class="cls-16" x="556.76" y="192.77" width="60.14" height="63.31"/><rect class="cls-18" x="556.76" y="104.05" width="60.14" height="77.03"/><polygon class="cls-18" points="622.97 93.24 641.89 93.24 641.89 286.64 394.59 270.88 391.47 115.46 439.01 110.81 439.01 256.08 628.38 274.32 622.97 93.24"/><polygon class="cls-18" points="439.01 93.84 439.01 104.65 600 93.84 600 83.03 439.01 93.84"/><polygon class="cls-18" points="448.09 121.46 448.09 132.81 529.99 129.81 528.43 119.05 448.09 121.46"/><polygon class="cls-19" points="447.09 434.46 447.09 445.81 528.99 442.81 527.43 432.05 447.09 434.46"/><polygon class="cls-19" points="447.09 434.46 447.09 445.81 528.99 442.81 527.43 432.05 447.09 434.46"/><polygon class="cls-19" points="447.09 434.46 447.09 445.81 528.99 442.81 527.43 432.05 447.09 434.46"/><polygon class="cls-18" points="447.09 137.96 447.09 149.31 528.99 146.31 527.43 135.55 447.09 137.96"/><polygon class="cls-18" points="447.09 154.09 447.09 165.45 528.99 162.45 527.43 151.69 447.09 154.09"/><circle class="cls-14" cx="-20.96" cy="189.99" r="35.85" transform="translate(731.69 -75.81) rotate(-12.29)"/><rect class="cls-19" x="309.7" y="179.48" width="10.81" height="108.78" rx="5.41" ry="5.41"/><rect class="cls-20" x="317.11" y="181.08" width="13.08" height="89.8" rx="6.54" ry="6.54"/><rect class="cls-21" x="288.77" y="194.22" width="10.81" height="108.78" rx="5.41" ry="5.41"/><rect class="cls-22" x="303.62" y="192.13" width="10.81" height="108.78" rx="5.41" ry="5.41"/><path class="cls-9" d="M36.85,378.7S-36.11,355.82-78,382v11.31s77,31.09,114.85,0Z" transform="translate(772.59 -75.7)"/><path class="cls-23" d="M13.89,457.46S2,424.4-15.7,428.43s-31-26.18-31-26.18,39,11.29,74.11-4.93Z" transform="translate(772.59 -75.7)"/><rect class="cls-7" x="544.49" y="105.65" width="55.51" height="67.57"/><polygon class="cls-18" points="448.59 194.63 448.59 205.98 530.49 202.98 528.93 192.22 448.59 194.63"/><polygon class="cls-18" points="447.59 211.13 447.59 222.48 529.49 219.48 527.93 208.72 447.59 211.13"/><rect class="cls-7" x="559.07" y="190.2" width="55.51" height="67.57"/><rect class="cls-24" x="271.62" y="246.53" width="60.81" height="125.1"/><path class="cls-25" d="M-518.54,457.46V397.32s-10.81-12.16,33.78-12.16c33.41,0,32.95,17.5,32.43,12.16l-4.05,60.14S-483.41,486.51-518.54,457.46Z" transform="translate(772.59 -75.7)"/><path class="cls-26" d="M-511.32,399.78c12,3.71,36.07,9.63,51.39,2.85a4.67,4.67,0,0,0-.47-8.69c-10-3.33-28.45-6.91-51,.64A2.73,2.73,0,0,0-511.32,399.78Z" transform="translate(772.59 -75.7)"/><path class="cls-26" d="M22.72,382s-26.4,26-89.91,3.19C-67.19,385.16-7.63,380.14,22.72,382Z" transform="translate(772.59 -75.7)"/><path class="cls-4" d="M-67.19,316.24s34.36-5.72,51.49,60.81C-15.7,377.05-84.24,365.94-67.19,316.24Z" transform="translate(772.59 -75.7)"/><rect class="cls-14" x="447.09" y="169.45" width="53.82" height="13.01"/><polygon class="cls-14" points="529.49 256.08 447.09 250.08 447.09 230.21 529.49 227.21 529.49 256.08"/><ellipse class="cls-27" cx="399.2" cy="103.05" rx="2.67" ry="2.69"/><ellipse class="cls-28" cx="415.82" cy="103.05" rx="2.67" ry="2.69"/><ellipse class="cls-29" cx="407.95" cy="103.05" rx="2.67" ry="2.69"/><line class="cls-30" x1="781.08" y1="402.7" x2="762.16" y2="309.46"/><line class="cls-30" x1="762.16" y1="402.7" x2="745.95" y2="309.46"/><line class="cls-30" x1="733.78" y1="309.07" x2="745.95" y2="133.81"/><line class="cls-30" x1="725.89" y1="151.35" x2="712.16" y2="309.07"/><path class="cls-23" d="M-575.3,340.57s54.05-13.64,74.32,6,0,11.55,0,11.55S-576.65,354.08-575.3,340.57Z" transform="translate(772.59 -75.7)"/><path class="cls-31" d="M-560.92,335.5a66.81,66.81,0,0,1-.66-11,14.39,14.39,0,0,1,1.76-7.51c.59-.95-.42-4.72-9.5-17.88-14.86-21.53,8.11-7.18,0-31.1-7.47-22.06,16.06-6.46,13.43-33.89-.68-7.05,4.36-13.73,12.1-15.51,5.26-1.2,11-.06,15,7.55,9.46,17.92-9.46,26.29,10.81,31.08s-10.81,14.36,0,34.69-4.33,51.44-18.72,55l-3,.75C-549.49,350.15-559.55,344.42-560.92,335.5Z" transform="translate(772.59 -75.7)"/><path class="cls-32" d="M-540.92,333a85.12,85.12,0,0,1-.66-12.41,18,18,0,0,1,1.76-8.49c.59-1.07-.42-5.34-9.5-20.2-14.86-24.32,8.11-8.11,0-35.14-7.47-24.92,16.06-7.29,13.43-38.29A16.58,16.58,0,0,1-523.79,201c5.26-1.36,11-.07,15,8.53,9.46,20.24-9.46,29.7,10.81,35.11s-10.81,16.22,0,39.19-4.33,58.11-18.72,62.16l-3,.85A16.79,16.79,0,0,1-540.92,333Z" transform="translate(772.59 -75.7)"/><path class="cls-23" d="M-575.3,340.57v17.57s61.37,9.46,81.36,0V350S-565.84,354.08-575.3,340.57Z" transform="translate(772.59 -75.7)"/></svg>