<svg xmlns="http://www.w3.org/2000/svg" viewBox="0 0 150 150"><title>chainring</title><path d="M75 42.37a32.63 32.63 0 1 1-22.78 9.27A32.38 32.38 0 0 1 75 42.37m0-38.93A71.56 71.56 0 1 0 126.24 25 71.34 71.34 0 0 0 75 3.44z" fill="#ccc"/><path d="M128.6 27.35l.54-3.61a1.37 1.37 0 0 0-1.52-1.56l-3.62.45a1.37 1.37 0 0 1-1.54-1.4l.1-3.64a1.37 1.37 0 0 0-1.7-1.37l-3.54.88a1.37 1.37 0 0 1-1.69-1.2l-.34-3.63a1.37 1.37 0 0 0-1.85-1.15l-3.4 1.3a1.37 1.37 0 0 1-1.83-1l-.77-3.56a1.37 1.37 0 0 0-2-.92l-3.22 1.7a1.37 1.37 0 0 1-1.93-.76l-1.2-3.44A1.37 1.37 0 0 0 97 3.77l-3 2.08a1.37 1.37 0 0 1-2-.52l-1.56-3.27a1.37 1.37 0 0 0-2.14-.42l-2.72 2.42a1.37 1.37 0 0 1-2.06-.28l-2-3.05a1.37 1.37 0 0 0-2.16-.15L77 3.31a1.37 1.37 0 0 1-2.08 0L72.54.49a1.37 1.37 0 0 0-2.18.1l-2.06 3a1.37 1.37 0 0 1-2.06.22l-2.67-2.48a1.37 1.37 0 0 0-2.15.36l-1.69 3.23a1.37 1.37 0 0 1-2 .47l-2.96-2.16a1.37 1.37 0 0 0-2.09.62L51.4 7.26a1.37 1.37 0 0 1-2 .71l-3.13-1.78a1.37 1.37 0 0 0-2 .87l-.87 3.54a1.37 1.37 0 0 1-1.85.94l-3.37-1.38a1.37 1.37 0 0 0-1.88 1.11l-.43 3.62A1.37 1.37 0 0 1 34.15 16l-3.51-1a1.37 1.37 0 0 0-1.73 1.32V20a1.37 1.37 0 0 1-1.57 1.36l-3.61-.54a1.37 1.37 0 0 0-1.56 1.52l.46 3.66a1.37 1.37 0 0 1-1.4 1.54l-3.64-.1a1.37 1.37 0 0 0-1.37 1.7l.88 3.54a1.37 1.37 0 0 1-1.2 1.69l-3.63.34a1.37 1.37 0 0 0-1.15 1.85l1.3 3.4a1.37 1.37 0 0 1-1 1.83l-3.56.77a1.37 1.37 0 0 0-.92 2l1.7 3.22a1.37 1.37 0 0 1-.76 1.93l-3.44 1.2A1.37 1.37 0 0 0 3.77 53l2.08 3a1.37 1.37 0 0 1-.52 2l-3.27 1.56a1.37 1.37 0 0 0-.42 2.14l2.42 2.72a1.37 1.37 0 0 1-.28 2.06l-3.05 2a1.37 1.37 0 0 0-.16 2.17L3.31 73a1.37 1.37 0 0 1 0 2.08L.49 77.46a1.37 1.37 0 0 0 .1 2.18l3 2.06a1.37 1.37 0 0 1 .22 2.06l-2.48 2.67a1.37 1.37 0 0 0 .36 2.15l3.23 1.69a1.37 1.37 0 0 1 .47 2l-2.16 2.96a1.37 1.37 0 0 0 .62 2.09l3.41 1.28a1.37 1.37 0 0 1 .71 2l-1.78 3.18a1.37 1.37 0 0 0 .87 2l3.54.86a1.37 1.37 0 0 1 .94 1.85l-1.38 3.37a1.37 1.37 0 0 0 1.11 1.88l3.62.43a1.37 1.37 0 0 1 1.11 1.67l-1 3.51a1.37 1.37 0 0 0 1.32 1.73H20a1.37 1.37 0 0 1 1.36 1.57l-.54 3.61a1.37 1.37 0 0 0 1.52 1.56l3.62-.45a1.37 1.37 0 0 1 1.54 1.4l-.1 3.64a1.37 1.37 0 0 0 1.7 1.37l3.54-.88a1.37 1.37 0 0 1 1.69 1.2l.34 3.63a1.37 1.37 0 0 0 1.85 1.15l3.4-1.3a1.37 1.37 0 0 1 1.83 1l.77 3.56a1.37 1.37 0 0 0 2 .92l3.22-1.7a1.37 1.37 0 0 1 1.93.76l1.2 3.44a1.37 1.37 0 0 0 2.07.67l3-2.08a1.37 1.37 0 0 1 2 .52l1.61 3.27a1.37 1.37 0 0 0 2.14.42l2.72-2.42a1.37 1.37 0 0 1 2.06.28l2 3.05a1.37 1.37 0 0 0 2.17.16l2.36-2.74a1.37 1.37 0 0 1 2.08 0l2.34 2.79a1.37 1.37 0 0 0 2.18-.1l2.07-3a1.37 1.37 0 0 1 2.06-.22l2.66 2.49a1.37 1.37 0 0 0 2.15-.36l1.69-3.23a1.37 1.37 0 0 1 2-.47l2.94 2.15a1.37 1.37 0 0 0 2.09-.62l1.29-3.41a1.37 1.37 0 0 1 2-.71l3.18 1.78a1.37 1.37 0 0 0 2-.87l.86-3.54a1.37 1.37 0 0 1 1.85-.94l3.37 1.38a1.37 1.37 0 0 0 1.88-1.11l.43-3.62a1.37 1.37 0 0 1 1.72-1.16l3.51 1a1.37 1.37 0 0 0 1.73-1.32V130a1.37 1.37 0 0 1 1.57-1.36l3.61.54a1.37 1.37 0 0 0 1.56-1.52l-.45-3.62a1.37 1.37 0 0 1 1.4-1.54l3.64.1a1.37 1.37 0 0 0 1.37-1.7l-.88-3.54a1.37 1.37 0 0 1 1.2-1.69l3.63-.34a1.37 1.37 0 0 0 1.15-1.85l-1.3-3.4a1.37 1.37 0 0 1 1-1.83l3.56-.77a1.37 1.37 0 0 0 .92-2l-1.7-3.22a1.37 1.37 0 0 1 .76-1.93l3.44-1.2a1.37 1.37 0 0 0 .67-2.07l-2.08-3a1.37 1.37 0 0 1 .52-2l3.27-1.61a1.37 1.37 0 0 0 .42-2.14l-2.42-2.72a1.37 1.37 0 0 1 .28-2.06l3.05-2a1.37 1.37 0 0 0 .16-2.17L146.69 77a1.37 1.37 0 0 1 0-2.08l2.79-2.34a1.37 1.37 0 0 0-.1-2.18l-3-2.06a1.37 1.37 0 0 1-.22-2.06l2.49-2.66a1.37 1.37 0 0 0-.36-2.15l-3.23-1.69a1.37 1.37 0 0 1-.47-2l2.15-2.94a1.37 1.37 0 0 0-.62-2.09l-3.41-1.29a1.37 1.37 0 0 1-.71-2l1.78-3.18a1.37 1.37 0 0 0-.87-2l-3.54-.86a1.37 1.37 0 0 1-.94-1.85l1.38-3.37a1.37 1.37 0 0 0-1.11-1.88l-3.62-.43a1.37 1.37 0 0 1-1.08-1.73l1-3.51a1.37 1.37 0 0 0-1.32-1.73H130a1.37 1.37 0 0 1-1.4-1.57zm17.27 48.76c-13.64 90.82-129 89.36-140.36-1.78a1.51 1.51 0 0 1 0-.41c13.63-90.83 129-89.36 140.36 1.78a1.51 1.51 0 0 1 0 .41z" fill="#ccc"/><circle cx="75" cy="75" r="39" fill="#333"/><circle cx="32" cy="84.5" r="3" transform="matrix(0, -1, 1, 0, -52.57, 116.3)" fill="#595f72" stroke="#a8aeb2" stroke-miterlimit="10" stroke-width="2"/><circle cx="52.5" cy="37" r="3" transform="translate(15.38 89.41) rotate(-89.87)" fill="#595f72" stroke="#a8aeb2" stroke-miterlimit="10" stroke-width="2"/><circle cx="104" cy="41.5" r="3" transform="translate(62.26 145.4) rotate(-89.87)" fill="#595f72" stroke="#a8aeb2" stroke-miterlimit="10" stroke-width="2"/><circle cx="115.5" cy="92" r="3" transform="translate(23.23 207.28) rotate(-89.87)" fill="#595f72" stroke="#a8aeb2" stroke-miterlimit="10" stroke-width="2"/><circle cx="70.32" cy="119.5" r="2.5" transform="translate(-49.34 189.54) rotate(-89.87)" fill="#595f72" stroke="#a8aeb2" stroke-miterlimit="10" stroke-width="2"/></svg>