<svg xmlns="http://www.w3.org/2000/svg" viewBox="0 0 404 404"><defs><linearGradient id="a" x1="64.11" y1="339.89" x2="339.89" y2="64.11" gradientUnits="userSpaceOnUse"><stop offset="0" stop-color="#020202" stop-opacity="0"/><stop offset=".99" stop-color="#020202"/></linearGradient></defs><title>wheel</title><g style="isolation:isolate"><circle cx="202" cy="202" r="195" fill="#333"/><circle cx="202" cy="202" r="195" fill="url(#a)"/><g style="mix-blend-mode:overlay" opacity=".15"><path d="M201.92 202.36l-116.25-160C121 16.68 158.23 4.59 201.92 4.59z" fill="#dfdfdf"/><path d="M201.92 202.36L13.83 141.25C27.33 99.7 50.33 68 85.67 42.36z"/><path d="M201.92 202.36L13.83 263.47c-13.5-41.55-13.5-80.68 0-122.23z" fill="#606060"/><path d="M201.92 202.36l-116.25 160C50.33 336.68 27.33 305 13.83 263.47z" fill="#bfbfbf"/><path d="M201.92 202.36v197.77c-43.69 0-80.9-12.09-116.25-37.77z" fill="#202020"/><path d="M201.92 202.36l116.25 160c-35.35 25.68-72.56 37.77-116.25 37.77z" fill="#9f9f9f"/><path d="M201.92 202.36L390 263.47c-13.5 41.55-36.5 73.2-71.84 98.88z" fill="#404040"/><path d="M201.92 202.36L390 141.25c13.5 41.55 13.5 80.68 0 122.23z" fill="gray"/><path d="M201.92 202.36l116.25-160C353.51 68 376.51 99.7 390 141.25z" fill="#dfdfdf"/><path d="M201.92 202.36V4.59c43.69 0 80.9 12.09 116.25 37.77z"/></g><circle cx="202" cy="202" r="198" fill="none" stroke="#333" stroke-miterlimit="10" stroke-width="8"/><circle cx="202" cy="202" r="193" fill="none" stroke="#f7dc86" stroke-miterlimit="10" stroke-width="5"/><rect x="189.83" y="330.73" width="25.51" height="39.69" rx="12.76" ry="12.76" fill="#222"/><g fill="none" stroke="#a8aeb2" stroke-miterlimit="10"><path stroke-width="3" d="M202.58 352.15v18.17"/><path d="M202.58 349.11v10.88"/></g></g></svg>