<svg xmlns="http://www.w3.org/2000/svg" width="79.31" height="21.35" viewBox="0 0 79.31 21.35"><defs><style>.a{fill:rgba(255,255,255,.3)}</style></defs><path class="a" d="M6.27 8.54a1.84 1.84 0 0 1 1.59.85l4-1.22a5.6 5.6 0 0 0-2.1-2.24 6.51 6.51 0 0 0-3.49-.87 7 7 0 0 0-2.7.49 5.84 5.84 0 0 0-2 1.31A5.51 5.51 0 0 0 .41 8.75a6.34 6.34 0 0 0 0 4.5 5.51 5.51 0 0 0 1.21 1.89 5.84 5.84 0 0 0 2 1.31 7 7 0 0 0 2.7.49 6.51 6.51 0 0 0 3.49-.87 5.6 5.6 0 0 0 2.1-2.24l-4-1.22a1.84 1.84 0 0 1-1.59.85 1.87 1.87 0 0 1-1.44-.64A2.59 2.59 0 0 1 4.24 11a2.59 2.59 0 0 1 .59-1.82 1.87 1.87 0 0 1 1.44-.64zM23.78 12.15V9.93a4.46 4.46 0 0 0-1.48-3.65 6.48 6.48 0 0 0-4.22-1.22 9.31 9.31 0 0 0-5.16 1.46l1.2 2.57a8.9 8.9 0 0 1 1.74-.92 5 5 0 0 1 1.81-.32 2.35 2.35 0 0 1 1.51.39 1.47 1.47 0 0 1 .47 1.2v.35a5.36 5.36 0 0 0-2.31-.44 6.64 6.64 0 0 0-2 .28 4.72 4.72 0 0 0-1.56.8 3.81 3.81 0 0 0-1 1.24 3.41 3.41 0 0 0-.37 1.59 3.5 3.5 0 0 0 .3 1.46 3.54 3.54 0 0 0 .84 1.16 3.93 3.93 0 0 0 1.27.77 4.41 4.41 0 0 0 1.59.28 4.63 4.63 0 0 0 2.13-.51 5.27 5.27 0 0 0 1.76-1.49l.09.41a1.88 1.88 0 0 0 .75 1.19 2.94 2.94 0 0 0 1.69.4 6.69 6.69 0 0 0 .79-.05q.45-.05.95-.16v-3.48A.83.83 0 0 1 24 13a1.4 1.4 0 0 1-.22-.85zm-4.13.59a.71.71 0 0 1-.15.42 1.78 1.78 0 0 1-.39.38 2.78 2.78 0 0 1-.7.32 2.6 2.6 0 0 1-.76.12 1.5 1.5 0 0 1-1-.3 1 1 0 0 1-.38-.78 1.12 1.12 0 0 1 .5-.94 2.07 2.07 0 0 1 1.26-.37 4.05 4.05 0 0 1 .78.09 5.92 5.92 0 0 1 .81.22zM37 6.73a5 5 0 0 0-1.69-1.23 5 5 0 0 0-2.11-.45 4.44 4.44 0 0 0-2.2.5A4.29 4.29 0 0 0 29.5 7V5.28h-3.59v16.07H30V15a3.39 3.39 0 0 0 1.41 1.43 4.5 4.5 0 0 0 2.15.49 4.27 4.27 0 0 0 1.94-.45 4.65 4.65 0 0 0 1.54-1.25 6.06 6.06 0 0 0 1-1.9 7.43 7.43 0 0 0 .45-2.32 6.72 6.72 0 0 0-.4-2.35A5.83 5.83 0 0 0 37 6.73zm-2.88 5.18a2.86 2.86 0 0 1-.44.8 2 2 0 0 1-.65.54 1.8 1.8 0 0 1-.84.2 1.89 1.89 0 0 1-1.24-.5 3.17 3.17 0 0 1-.95-1.26v-2a2.34 2.34 0 0 1 2-1.17 2.16 2.16 0 0 1 1.64.65 2.42 2.42 0 0 1 .62 1.74 2.89 2.89 0 0 1-.15 1zM59.07 6.5a2.94 2.94 0 0 0-1.09-1 3.83 3.83 0 0 0-1.91-.41 4.84 4.84 0 0 0-2.2.49A4 4 0 0 0 52.28 7V.84h-4.13v15.88h4.13V10.3a2.91 2.91 0 0 1 .9-1.19 2.7 2.7 0 0 1 .54-.33 1.2 1.2 0 0 1 .47-.12 1.29 1.29 0 0 1 .95.38 1.69 1.69 0 0 1 .38 1.23v6.44h4.13V9.19a9.06 9.06 0 0 0-.11-1.35 3.66 3.66 0 0 0-.47-1.34zM72.58 6.73a5 5 0 0 0-1.67-1.23 5 5 0 0 0-2.11-.45 4.44 4.44 0 0 0-2.2.5A4.29 4.29 0 0 0 65.1 7V5.28h-3.59v16.07h4.13V15a3.39 3.39 0 0 0 1.41 1.43 4.5 4.5 0 0 0 2.15.49 4.27 4.27 0 0 0 1.94-.45 4.65 4.65 0 0 0 1.54-1.25 6.06 6.06 0 0 0 1-1.9 7.43 7.43 0 0 0 .4-2.32 6.72 6.72 0 0 0-.4-2.35 5.83 5.83 0 0 0-1.1-1.92zm-2.88 5.18a2.86 2.86 0 0 1-.44.8 2 2 0 0 1-.65.54 1.8 1.8 0 0 1-.84.2 1.89 1.89 0 0 1-1.24-.5 3.17 3.17 0 0 1-.89-1.26v-2a2.34 2.34 0 0 1 2-1.17 2.16 2.16 0 0 1 1.64.65 2.42 2.42 0 0 1 .62 1.74 2.89 2.89 0 0 1-.2 1zM75.17 5.28h4.13v11.44h-4.13z"/><circle class="a" cx="77.24" cy="2.07" r="2.07"/></svg>