<svg xmlns="http://www.w3.org/2000/svg" width="573.11" height="107.28" viewBox="0 0 573.11 107.28"><defs><style>.a{fill:rgba(255,255,255,.3)}</style></defs><path class="a" d="M29.64 58.2c-1.32 0-3.24-.36-3.24 1.68 0 6 7.8 11 13.44 11 9 0 13.44-5.4 16-5.4s4.68 3.72 4.68 6c0 9.24-16.92 16-27.72 16C11.16 87.48 0 71.88 0 56.4c0-18.48 15.72-31.92 33.72-31.92 20.4 0 29.4 15.72 29.4 24.72 0 7.92-3.6 9-7.44 9zm10.44-15.12c0-4.32-2.64-7.68-7.08-7.68-4 0-7.2 4.08-7.2 7.92 0 4.32 4.08 3.36 7.2 3.36s7.08.72 7.08-3.6zM127.44 57.12c0 21.12 7.2 9.6 7.2 16.08 0 6.84-9.36 14.28-18.12 14.28-9.48 0-9.72-6.12-12.72-6.12-1.44 0-3 1.56-5.64 3a21.93 21.93 0 0 1-11.76 3.12c-10 0-19.92-5.28-19.92-17.16 0-8.52 8.16-19.08 29.28-19.08 3.72 0 5.4.24 5.4-4.08 0-4-.12-12.24-5.64-12.24-7.2 0-7.92 13-18.6 13a6.46 6.46 0 0 1-6.72-6.6c0-10.2 20.28-16.8 31.68-16.8 6.84 0 25.56 2.64 25.56 20.64zm-36 10.56c0 3.12 1.68 6.48 5.16 6.48 4.56 0 4.92-4.92 4.92-8.52 0-2.64.12-5.64-3.24-5.64-4.08 0-6.84 3.84-6.84 7.68zM171 25.2a31.69 31.69 0 0 0 4.92.84 7.64 7.64 0 0 0 3.24-.84 10.51 10.51 0 0 1 3.24-.72c5.52 0 11 11 11 16a5.76 5.76 0 0 1-5.88 5.64c-6.84 0-10.68-9.48-16-9.48a4.34 4.34 0 0 0-4.32 4.08c0 7.68 26.4 9.12 26.4 27.72 0 11.28-10.92 19.08-23.4 19.08a62.83 62.83 0 0 1-8.88-.84c-3-.36-5.64-.72-6.36-.72a16.31 16.31 0 0 0-2.4.24 13.27 13.27 0 0 1-2.28.24c-2.4 0-3.6-.36-5.28-2.28-3-3.36-6-10.2-6-14.76 0-3.12 1.08-5.64 4.56-5.64 5.28 0 10.08 11.88 16.8 11.88 2.4 0 4.68-1.2 4.68-3.84 0-7.08-23.52-7.92-23.52-27.72 0-12 9.84-19.56 22.2-19.56a47.23 47.23 0 0 1 7.28.68zM249.83 75.72c-5.88 16-13.56 31.56-33.12 31.56-8.64 0-18.84-4.44-18.84-14.4a10.78 10.78 0 0 1 10.68-11c11.16 0 8 12.72 13 12.72 3.24 0 4.68-3.12 4.68-5.88 0-3.36-2.4-7.92-3.84-10.92l-16.83-35.2c-2.28-4.8-9.12-3.36-9.12-8.88 0-3.6 2.16-8.88 27.48-8.88 4.56 0 15.36.48 15.36 7.32 0 3.24-2.76 4.2-2.76 7.08 0 4.56 5.28 13 7.32 13 3.6 0 6.12-8.28 6.12-11.16 0-5.4-3.84-5-3.84-9.12 0-6.36 11.28-7.08 15.6-7.08 4 0 12.84.6 12.84 6.12 0 7.08-7.2 4-11.4 11-2.64 4.2-4.56 9.48-6.24 14.16zM330.59 70a7.16 7.16 0 0 0 7.32-7.44c0-10-12.6-.24-12.6-11.28 0-8.76 18.12-9.36 24.24-9.36 22.56 0 23.88 6.36 23.88 9.84 0 3.12-2.64 5.28-5.52 5.76-3.12.36-3.36 1-4.2 4.08-4.68 17.52-21.6 25.92-38.64 25.92-25.44 0-47.64-17.64-47.64-44.16C277.44 18 298.92 0 324.59 0c10.56 0 16.32 3.24 19.41 3.24 2.16 0 5.28-1.8 7.44-1.8 7.44 0 11.88 12.24 11.88 18.36 0 5.88-3 11.88-9.48 11.88C342 31.68 342 15 325.67 15c-10.44 0-17.16 8.64-17.16 21.36 0 24.72 14.4 33.64 22.08 33.64zM428 75.72c-5.88 16-13.56 31.56-33.12 31.56-8.64 0-18.84-4.44-18.84-14.4a10.78 10.78 0 0 1 10.68-11c11.16 0 8 12.72 13 12.72 3.24 0 4.68-3.12 4.68-5.88 0-3.36-2.4-7.92-3.84-10.92l-16.8-35.2c-2.28-4.8-9.12-3.36-9.12-8.88 0-3.6 2.16-8.88 27.48-8.88 4.56 0 15.36.48 15.36 7.32 0 3.24-2.76 4.2-2.76 7.08 0 4.56 5.28 13 7.32 13 3.6 0 6.12-8.28 6.12-11.16 0-5.4-3.84-5-3.84-9.12 0-6.36 11.28-7.08 15.6-7.08 4 0 12.84.6 12.84 6.12 0 7.08-7.2 4-11.4 11-2.64 4.2-4.56 9.48-6.24 14.16zM461.15 52.32c0-7.68-1.56-9.84-2.76-10.92-1.56-1.32-3.24-1.2-3.24-4.32 0-8.88 29.76-12.24 30-12.24 3 0 3.24 2.64 3.24 5.16 0 1.44-.48 5.52 2 5.52 1.2 0 3.12-2.64 6.48-5.4a23.72 23.72 0 0 1 15.24-5.28c14.28 0 14.4 10.68 16.92 10.68 1 0 3.12-2.64 6.6-5.4s8.4-5.28 14.52-5.28c11.4 0 18.48 6.24 18.48 18v25.32c0 7 4.44 7.56 4.44 11 0 7.56-13.68 7.92-18.36 7.92-4 0-17.88-.84-17.88-7.08 0-4.44 4.2-4.32 4.2-11.28V58c0-5 .6-15.12-6.24-15.12s-6.12 8.16-6.12 12.6v7.44c0 14.76 4.32 12.24 4.32 16.68 0 7.44-14.4 7.56-18.72 7.56-18.12 0-19.08-3.36-19-6.72.12-6.36 6.12-1.32 5.76-15.6V58c0-4.32.6-15.12-6.24-15.12s-6.12 8.16-6.12 12.6v9.72c0 11 3.24 10.32 3.24 14.64 0 3.12-2.76 7.32-19.2 7.32-4.68 0-18.84.12-18.84-6.24 0-5.4 7.2-2.52 7.2-17.52z"/></svg>