<svg xmlns="http://www.w3.org/2000/svg" width="243.2" height="39.68" viewBox="0 0 243.2 39.68"><defs><style>.a{fill:rgba(255,255,255,.3)}</style></defs><path class="a" d="M159.38 20.6l-1.19 18.66h11.23l1.2-19c.54-8.61-5.55-9.25-9.58-9.66-.27 0-2.41-.2-5.34-.2h-2.41c-7 .24-15.57 1.23-15.66 1.24h-.2l-1.76 27.5h11.27l1.37-22.33a51.81 51.81 0 0 1 7.15-.44c2.58.15 4.12 1 3.92 3.95M33.2 0H33v.24l-1 13.43H14.28l.87-11.18c0-2.4-2-2.49-3-2.49H3v.24L0 38.85v.28h12.3v-.24l1.33-17h17.63l-1.32 17v.28h12.24v-.24L45.2.28V0h-12zM49.27 10.66h-.25l-.01.24-2.17 28.23h-.03H58.88l2.16-28.19.02-.28H49.27zM59.22 0h-9.33v.28l-.52 6.9v.28h12v-.24s.29-4 .34-4.73C61.82.82 61.15 0 59.22 0zM85.6 22.22l-4.3-1.8c-3-1.21-5.29-2.1-4.89-3.35.22-.7 1.61-1.16 5.74-1.16a69.18 69.18 0 0 1 12.65 1.35l.27.05v-.27l.53-5.39v-.24h-.24A80.52 80.52 0 0 0 82.33 10h-1.26a49.29 49.29 0 0 0-6.64.42C70.59 11 64.1 12.65 63.78 18S70 25.88 74 27.55l3.32 1.32c3.79 1.52 5.58 2.07 5.51 3.19s-1.51 1.33-4.92 1.33h-1.34A103.27 103.27 0 0 1 63.92 32h-.28v.28l-.37 5.82v.24h.25a122.69 122.69 0 0 0 14.19 1h1.7c7 0 15.55-1.09 16.48-6.93.82-5.35-4.81-7.74-10.29-10.19zM133.35 27.17c2.41-13.71-9.74-16.38-12.59-16.81a31 31 0 0 0-3.41-.25h-.14c-12.09.22-16.85 6.43-18.71 11a13.66 13.66 0 0 0-.79 3c0 .19 0 .39-.06.59s0 .19 0 .28c-.27 4.2.89 11.26 11 13.69.56.13 1.13.25 1.75.35a41.2 41.2 0 0 0 7.79.66 48.45 48.45 0 0 0 13.21-1.56c.2-1.27.61-3.87.92-5.87a63.5 63.5 0 0 1-12.67 1.4h-.56c-8.52-.29-10.22-4.47-10.23-6.39s0 0 0-.09zm-24-5.38c.54-3 2.85-6 7.76-6.07 7.15.06 6.68 6.07 6.68 6.07zM195.13 22.22l-4.31-1.8c-3-1.21-5.29-2.1-4.89-3.35.22-.7 1.61-1.16 5.74-1.16a69.16 69.16 0 0 1 12.65 1.35l.27.05v-.27l.52-5.39v-.24h-.24a80.53 80.53 0 0 0-13-1.41h-1.27a49.29 49.29 0 0 0-6.64.42c-3.84.53-10.33 2.22-10.65 7.57s6.22 7.88 10.23 9.54l3.32 1.32c3.79 1.52 5.59 2.07 5.51 3.19s-1.51 1.33-4.92 1.33h-1.34A103.27 103.27 0 0 1 173.45 32h-.28v.28l-.37 5.82v.24h.25a122.64 122.64 0 0 0 14.19 1h1.7c7 0 15.55-1.09 16.48-6.93.82-5.35-4.81-7.74-10.29-10.19zM242.88 27.17c2.42-13.71-9.74-16.38-12.59-16.81a31 31 0 0 0-3.41-.25h-.14c-12.09.22-16.84 6.43-18.71 11a13.48 13.48 0 0 0-.79 3c0 .19 0 .39-.06.59s0 .19 0 .28c-.27 4.2.89 11.26 11.05 13.69.56.13 1.13.25 1.75.35a41.18 41.18 0 0 0 7.78.66A48.46 48.46 0 0 0 241 38.13c.2-1.27.61-3.87.92-5.87a63.53 63.53 0 0 1-12.67 1.4h-.57c-8.52-.29-10.22-4.47-10.23-6.39s0 0 0-.09zm-24-5.38c.53-3 2.85-6 7.76-6.07 7.15.06 6.68 6.07 6.68 6.07z"/></svg>