<svg xmlns="http://www.w3.org/2000/svg" width="176.04" height="43.58" viewBox="0 0 176.04 43.58"><defs><style>.a{fill:rgba(255,255,255,.3)}</style></defs><path class="a" d="M10.05 35.78c.09-3.18.12-7.38.23-12.13C10.65 7 9.7 3.8 8.38 3.62 7.5 3.5 5.73 4.9 4.73 8s-.83 4.28-1.13 6.59c-.2 1.51-.68 2.11-1.88 1.31-1.79-1.2-2.46-4.51-.66-9C3 2.26 6.34 0 8.58 0c5.07 0 6.42 8.82 6.83 17.6-.3-.42-.48-.62-.43-.94C16.26 5.31 20 2 22.93 2c1.14 0 2.57.77 3.37 2.74 1.19 2.94 1 7.55.75 12.66-.3-.25-.25-.77-.2-1.05 2-11.28 6-14.18 9.13-14.26s4.5 3.91 4.33 8.79c-.19 5.88-.45 13.07-.06 21.43.28 5.75 1.49 7.42 2.83 9.61.53.88.28 1.7-.67 1.66-4.34-.16-7.24-4.28-7.83-8.91-1.58-12.28.71-25.06-.78-25.51-.56-.17-1.06 0-1.91 1.66-2.38 4.67-3.48 13.47-3.55 24.91 0 .89-.32 1.51-1.31 1.51h-3.74a1.35 1.35 0 0 1-1.24-1.46c0-6.56.29-21.54-.3-25.3-.19-1.23-.94-2-1.75-.62-2 3.41-3.66 14.19-3.77 25.82 0 .94-.36 1.56-1.28 1.56h-3.68c-.84 0-1.24-.52-1.22-1.46M58.43 35.24c-.9-2-1.37-3.38-1.35-10.5v-5.45c0-7.37-2.4-10-6.73-10a6.62 6.62 0 0 0-6.51 4.56c-.47 1.52.15 2 1.24 1.21a7.19 7.19 0 0 1 4.25-1.64 2.41 2.41 0 0 1 2.35 1.83 7.05 7.05 0 0 1 .19 1.23c-6.2 2.91-8.87 6.32-9.05 12.06-.21 6.29 2.47 9 5.52 9 1.58 0 3.19-1.52 4.12-4.48a6 6 0 0 0 2 2.9c1.53 1.29 4.11 1.88 4.64 1.35s-.11-.91-.64-2.07M52 25.36c0 3.49-1.37 6.69-2.64 6.63s-1.87-3-1.22-6.44c.41-2.16 1.14-3.83 3.93-5.65 0 1.58-.07 3.44-.07 5.47M91.94 30.08A4.38 4.38 0 0 1 87.75 32c-1.43-.31-2.61-2-3-3.88a12.42 12.42 0 0 0 8.47-11.78c0-5.24-2.55-7-5.36-7-3.89 0-8.46 4.86-8.46 15.56 0 8.23 3.09 12.36 7.37 12.67s6.49-4.13 6.62-6.95c.06-1.28-.74-1.51-1.47-.51M87 13.52c1.47 0 2 2.61 1.5 5.78a7.24 7.24 0 0 1-4.26 5.62 24.89 24.89 0 0 1 .51-8.11c.63-2.61 1.65-3.29 2.26-3.29M99.49 24.92c2.32 1.56 4.57 2.91 4.57 5.47a2.84 2.84 0 0 1-2.81 3c-2 0-3.4-1.49-3.46-4.21 0-.93-.65-1.34-1.41-.71a4.65 4.65 0 0 0-1.5 3.53c0 3.22 2.47 5.47 6.35 5.47 4.41 0 8-3.07 8-8.75a9.64 9.64 0 0 0-5.29-8.72 18.25 18.25 0 0 1-2.87-1.84 3.28 3.28 0 0 1-1.29-2.4 2.4 2.4 0 0 1 2.53-2.47 3.73 3.73 0 0 1 3.3 2.08c.68 1.14 1.37 1 1.79.21a4 4 0 0 0 .48-2.1c-.15-2.8-2.41-4.22-5.54-4.22-4.06 0-7.12 3.26-7.12 7.59a8.66 8.66 0 0 0 4.26 8M115.15 24.92c2.32 1.56 4.58 2.91 4.58 5.47a2.84 2.84 0 0 1-2.81 3c-2 0-3.4-1.49-3.46-4.21 0-.93-.65-1.34-1.41-.71a4.62 4.62 0 0 0-1.5 3.53c0 3.22 2.47 5.47 6.34 5.47 4.42 0 8-3.07 8-8.75a9.64 9.64 0 0 0-5.28-8.72 18.51 18.51 0 0 1-2.87-1.84 3.29 3.29 0 0 1-1.28-2.4 2.39 2.39 0 0 1 2.54-2.45 3.73 3.73 0 0 1 3.3 2.08c.68 1.14 1.38 1 1.8.21a4 4 0 0 0 .48-2.1c-.15-2.8-2.41-4.22-5.55-4.22-4.05 0-7.12 3.26-7.12 7.59a8.67 8.67 0 0 0 4.25 8M166.33 24.92c2.32 1.56 4.58 2.91 4.58 5.47a2.84 2.84 0 0 1-2.81 3c-2 0-3.39-1.49-3.46-4.21 0-.93-.65-1.34-1.41-.71a4.61 4.61 0 0 0-1.51 3.53c0 3.22 2.48 5.47 6.34 5.47 4.42 0 8-3.07 8-8.75a9.65 9.65 0 0 0-5.27-8.72 18.33 18.33 0 0 1-2.87-1.84 3.3 3.3 0 0 1-1.28-2.4 2.39 2.39 0 0 1 2.53-2.47 3.74 3.74 0 0 1 3.3 2.08c.67 1.14 1.38 1 1.79.21a3.8 3.8 0 0 0 .49-2.1c-.14-2.8-2.41-4.22-5.55-4.22-4.05 0-7.12 3.26-7.12 7.59a8.67 8.67 0 0 0 4.25 8M139 12.26a5 5 0 0 0-4.53-2.94c-3.49 0-7.76 3.5-7.83 14.25-.05 9.39 2.9 14.07 8 13.94 4-.11 7.39-3.28 7.39-14.61 0-5.64-1.3-10.34-3.06-10.64m-3.6 19.63c-1.41 0-3.29-1.9-3.29-9s1.63-9.53 3.22-9.53a2 2 0 0 1 1.52.74c-.48.45-1 1.1-.46 1.55a13.93 13.93 0 0 1 2.1 7.93c0 5.47-1.33 8.31-3.09 8.31M144.16 35.65c0-4.19-.18-20.55-.2-24.32 0-1 .54-1.57 1.35-1.57 3.24 0 3.5.81 3.44 7.85 1.06-3.35 2.65-6.22 4.45-7.48 2.74-1.92 6.18-.76 6.06 6.1-.07 4-.1 9.83.19 13.51.22 2.8.45 4.23 1.58 6 .51.8.82 1.49 0 1.76-1 .34-5.08-.85-6.31-5.14-.77-2.66-.76-6.33-.64-11.53.05-2.35.22-4-.44-4.3-.49-.19-2.3.31-3.6 6.11-.5 2.23-.74 8.7-.72 13.16 0 .74-.29 1.15-1 1.15h-3.07c-.86 0-1.18-.44-1.17-1.29"/><path class="a" d="M80.19 11c.42-1.23-.22-1.51-1-1.41-1.29.16-2.08.26-3.22.31V3.72c0-1-.29-1.54-1.3-1.46-3.31.27-3.93 1.77-3.93 6.3V10H66V3.72c0-1-.29-1.54-1.31-1.46-3.31.27-3.92 1.77-3.92 6.3V9.9c-.75 0-1.44-.12-2.37-.23s-1.27.42-.94 1.4a4.41 4.41 0 0 0 3.31 3.12v8.36c0 8.78.06 11.26 2.69 13.59a7.09 7.09 0 0 0 6.11 1.18c.54-.32.3-.9 0-1.2C66.9 33.74 65.93 32 66 24.74V14.29h4.74v8.26c0 8.78.07 11.26 2.69 13.59a7.09 7.09 0 0 0 6.11 1.18c.54-.32.3-.9 0-1.2-2.66-2.38-3.64-4.12-3.62-11.38V14.28A4.52 4.52 0 0 0 80.19 11"/></svg>