<svg xmlns="http://www.w3.org/2000/svg" width="304.07" height="60.28" viewBox="0 0 304.07 60.28"><defs><style>.a{fill:rgba(255,255,255,.3)}</style></defs><path class="a" d="M90.84 28.9a4.38 4.38 0 0 0-2.1-1.12 13.37 13.37 0 0 0-3.18-.32H75.31c-.84 0-1.1-.19-1.18-.27s-.16-.49-.06-1l.15-.71c.2-.93.48-1.19.56-1.24a2.27 2.27 0 0 1 1.3-.29h16l1.18-5.45H76.81a12 12 0 0 0-3.08.36 6.61 6.61 0 0 0-2.47 1.22 6.71 6.71 0 0 0-1.74 2.19 12.47 12.47 0 0 0-1 3l-.24 1.09a10.46 10.46 0 0 0-.28 2.71 3.41 3.41 0 0 0 .72 2 3.8 3.8 0 0 0 1.94 1.19 11.27 11.27 0 0 0 3.13.36h10.42a2.17 2.17 0 0 1 1.41.3c.18.16.21.47.11.94l-.26 1.19c-.06.29-.21.79-.48.94a3.39 3.39 0 0 1-1.6.27h-17.3l-1.18 5.45h17.56a14.5 14.5 0 0 0 3.34-.34 7.41 7.41 0 0 0 2.58-1.13 6 6 0 0 0 1.8-2 10.61 10.61 0 0 0 1-2.82l.37-1.74a8.53 8.53 0 0 0 .2-2.74 3.39 3.39 0 0 0-.92-2.04zM118.07 37.64a14.64 14.64 0 0 0 1.48-4.16L121 26.7a13.82 13.82 0 0 0 .37-3.68 4.3 4.3 0 0 0-1-2.64 5 5 0 0 0-2.52-1.38 16.7 16.7 0 0 0-4.12-.42h-8.32a19 19 0 0 0-4.3.42 8.32 8.32 0 0 0-3.16 1.44A7.37 7.37 0 0 0 95.82 23a16 16 0 0 0-1.22 3.68l-1.46 6.78a13.58 13.58 0 0 0-.37 3.68 4.21 4.21 0 0 0 1 2.59 4.9 4.9 0 0 0 2.56 1.39 18.09 18.09 0 0 0 4.11.39h8.9l2.42 3.37h7.79l-3.57-5a6.84 6.84 0 0 0 2.09-2.24zm-18.53-5.12l1.2-5.59a8.67 8.67 0 0 1 .47-1.57 2 2 0 0 1 .55-.77 2.08 2.08 0 0 1 .91-.4 8.78 8.78 0 0 1 1.77-.15h7.9a7.28 7.28 0 0 1 1.61.15 1.27 1.27 0 0 1 .73.4 1.37 1.37 0 0 1 .25.79 6.28 6.28 0 0 1-.18 1.54l-1.37 6.36a7.55 7.55 0 0 1-.5 1.59 2.16 2.16 0 0 1-.58.78 2 2 0 0 1-.9.37 9.06 9.06 0 0 1-1.68.13h-7.9A7.87 7.87 0 0 1 100 36a1 1 0 0 1-.67-.43 1.73 1.73 0 0 1-.15-1 16.58 16.58 0 0 1 .36-2.05zM147.7 33.58l3.24-15h-6.16l-3.2 14.85a6.06 6.06 0 0 1-.5 1.51 2.18 2.18 0 0 1-1.64 1.23 8.92 8.92 0 0 1-1.74.15h-7.36a7.9 7.9 0 0 1-1.68-.15 1.45 1.45 0 0 1-.81-.42 1.37 1.37 0 0 1-.31-.79 5 5 0 0 1 .14-1.49l3.21-14.89h-6.22l-3.24 15a13.76 13.76 0 0 0-.37 3.69 4.29 4.29 0 0 0 1 2.62 5 5 0 0 0 2.54 1.44 16.37 16.37 0 0 0 4.08.42h8.22a18.9 18.9 0 0 0 4.3-.42 8.3 8.3 0 0 0 3.16-1.44 7.37 7.37 0 0 0 2.12-2.62 16 16 0 0 0 1.22-3.69zM205.57 28.9a4.37 4.37 0 0 0-2.1-1.12 13.38 13.38 0 0 0-3.18-.32H190c-.84 0-1.1-.19-1.18-.27s-.16-.49-.06-1l.15-.71c.2-.93.48-1.19.56-1.24a2.26 2.26 0 0 1 1.3-.29h16l1.23-5.42h-16.46a12 12 0 0 0-3.08.36 6.6 6.6 0 0 0-2.46 1.22 6.73 6.73 0 0 0-1.74 2.19 12.49 12.49 0 0 0-1 3l-.26 1.15a10.41 10.41 0 0 0-.27 2.62 3.4 3.4 0 0 0 .72 2 3.79 3.79 0 0 0 1.94 1.19 11.27 11.27 0 0 0 3.13.36h10.44a2.17 2.17 0 0 1 1.41.3c.18.16.21.47.11.94l-.26 1.19c-.06.29-.21.79-.48.94a3.39 3.39 0 0 1-1.6.27h-17.3l-1.06 4.93-8.49-20.72a4.63 4.63 0 0 0-1.17-1.72 3.66 3.66 0 0 0-2.52-.75 5.17 5.17 0 0 0-2.87.74 8.68 8.68 0 0 0-1.91 1.72l-17.95 21.29H152l4.2-5h14.44l2.09 5h24.43a14.47 14.47 0 0 0 3.34-.34 7.41 7.41 0 0 0 2.58-1.13 6 6 0 0 0 1.8-2 10.61 10.61 0 0 0 1-2.82l.37-1.74a8.54 8.54 0 0 0 .2-2.74 3.4 3.4 0 0 0-.88-2.08zm-36.88 2.74h-8.26L166 24.9zM232.24 18.53l-1.92 8.93h-14.76l1.93-8.93h-6.2l-5 23.22h6.19l1.88-8.74h14.76l-1.88 8.74h6.16l5-23.22h-6.16zM289.72 18.53l-13.5 16.33-6.49-16.33h-28.48L240.06 24h9.19l-3.82 17.7h6.22l3.83-17.7h9l6.39 15.79a4.24 4.24 0 0 0 1.19 1.73 3.72 3.72 0 0 0 2.45.67 5.09 5.09 0 0 0 2.74-.67 8 8 0 0 0 1.93-1.73l17.88-21.31z"/><path class="a" d="M75.31 59c-5-5.42-9-9.77-12.41-13.51-25.51-27.86-14.36-34.61-5.25-36-8.65 1.74-17.76 8.87 6.2 35 1.37 1.52 2.91 3.1 4.48 4.89C38.8 15.65 52.52 8.52 64.61 9.29a.15.15 0 0 0 0-.27C61.52 8 53.63 5.94 46 7.19L43.56.29l-.1-.29-.28.08L14 8.31l-.29.08v.31l1.13 17.72a7.52 7.52 0 0 1-3.73-3.27l-.11-.32a15.59 15.59 0 0 1-1.63-6.75c.16-2.67.47-6.34-.66-9-.17-.3-1.43-3.83-4.71-3.26a5.05 5.05 0 0 0-1.42.44 4.24 4.24 0 0 0-1.18.67C-1 6.77.69 10.14.84 10.48c1.11 2.62 3.84 5 5.78 6.77a11.9 11.9 0 0 1 3.12 4.6c.11.28.92 2.15 1 2.42C16 36.93 32.64 31.57 34.48 29c1.52-2 1.87-2.73 3.93-5.72 3.28-4.75 11.66 0 6.07 6-4.08 4.39-12.48 4.81-17.56 4.63-1.59 1.4-10.61 10.09-10.34 26.34 0 .08.06 0 .06 0 9.64-6.5 22.14-8.7 23.63-9a108.72 108.72 0 0 1 21.33-2.07 141.74 141.74 0 0 1 12.7 9.46l.77.65a.19.19 0 0 0 .24-.28zM17.07 27L15.51 9.62l27.07-8 1.69 5.9A17 17 0 0 0 35.63 12a3.63 3.63 0 0 0-.28-2.68c-3.51-7.28-13.61.89-5.33 8.06a16.53 16.53 0 0 0 2.27-1.35c-2.09 2.9-4.69 6.64-7.66 8.57a17.83 17.83 0 0 1-7.56 2.4zM45.34 8.47a17.27 17.27 0 0 0-8.05 5.46c-2.34 2.6-5.87 8.41-9.77 11.3a13.62 13.62 0 0 1-2.27 1.35 12.23 12.23 0 0 1-6.21.94 11.63 11.63 0 0 0 4.42-1 13.63 13.63 0 0 0 2.27-1.35c3.9-2.89 7.43-8.7 9.77-11.3 0 0 5.28-7.48 18-6.73a24.9 24.9 0 0 0-7.15 1zM38 49.55c-3 .69-12 2.45-20.34 7.85a14.62 14.62 0 0 1 1.51-3.72c4.34-8.35 12.77-22.31 39.2-6.52C32 33.77 23.48 47.09 19 55.11l-.14.26c3.11-4.93 15.54-17.63 39.24-7.79A92.9 92.9 0 0 0 38 49.55z"/><circle class="a" cx="42.99" cy="25.3" r="1.94" transform="rotate(-.19 42.178 24.195)"/><path class="a" d="M65.48 53.4q-1.71-1.23-3.36-2.33H48.39l-.77.07-2.12.26-.7.1c-.48.07-1 .14-1.46.23-1.41.23-2.79.52-4.43.89-1.08.26-2.06.51-3 .77zM10.26 11.36a3.37 3.37 0 0 1 2.59-1.62l-.13-1.92 2.08-.59h-1.16a4.38 4.38 0 0 0-3.75 1.6c.19.77.26 1.75.37 2.53zM16.57 51.07H5.23c-2.37 0-3.12-1.36-2.75-3.31L8 20.21a5.47 5.47 0 0 0-2-2.08L.18 47.54c-.87 4.29 1.57 5.85 5.09 5.85h10.86q.19-1.19.44-2.32zM303.28 8.74a4 4 0 0 0-3.22-1.5H61.71c1.42.34 2.63.69 3.53 1l.16.05.14.09a1.3 1.3 0 0 1 .56 1.22h234a1.67 1.67 0 0 1 1.37.59 1.87 1.87 0 0 1 .22 1.65l-7.79 36.38a4 4 0 0 1-3.58 2.85H69.53l1 1.06 1.17 1.27h218.62a6.34 6.34 0 0 0 5.83-4.57l7.76-36.41a4.2 4.2 0 0 0-.63-3.68z"/></svg>