<svg xmlns="http://www.w3.org/2000/svg" width="628.24" height="124.53" viewBox="0 0 628.24 124.53"><defs><style>.a{fill:rgba(255,255,255,.3)}</style></defs><path class="a" d="M239.43 56.09h-1v-3.12a1.8 1.8 0 0 1 1.68.51 1.77 1.77 0 0 1-.62 2.63m2.41-3.37c-1.85-.78-4.28-.58-6.28-.62 0 .23-.05.45.06.62a3.27 3.27 0 0 1 .68.14v3.21a2.57 2.57 0 0 0-.68.07c0 .23-.06.45.05.62 2-.11 3.87.56 5.72-.05a2.74 2.74 0 0 0 1.29-2.3 2 2 0 0 0-.9-1.71zM245.27 27.46l.62.22s-.25.48-.1.73.47.62.77.45a1 1 0 0 0 .56-1.18h.45l.06.4c-.06.73-.28 1.25-1.27 1.2s-1.23-1-1.1-1.83m2 2.71l.77.24.24.32.37-4.3-.37-.3a2.27 2.27 0 0 1-1.83.79c-.69 0-1.43-.15-2-.17.22.73-.1 1.59.36 2.43a2.42 2.42 0 0 0 2.42 1.01zM252.16 27.43h.45a1 1 0 0 0 .56 1.18c.31.16.6-.15.78-.46s-.11-.73-.11-.73l.62-.22c.13.82-.2 1.77-1.1 1.82s-1.2-.47-1.26-1.2l.06-.4m1.56 2.22c1.42-.21 1.52-2.16 1.47-3.5a4.45 4.45 0 0 1-2.18.66 2.43 2.43 0 0 1-1.65-.82l-.32.17.84 4.43a2.62 2.62 0 0 1 1.84-.94z"/><path class="a" d="M300.17 60.07A2.19 2.19 0 0 0 299 58a1.61 1.61 0 0 0-1.52.06c-.73.39-.67 1.18-.56 1.79.17.28.39.62.79.51.73-.45-.56-1.29.5-1.57.5-.06.79.56 1 .9a2 2 0 0 1-1 2 3.1 3.1 0 0 1-2.24-.17 3.19 3.19 0 0 1-1.35-2.3 3.25 3.25 0 0 1 1.91-3.09c2.58-1.23 4.43 1.07 6.28 2.69a3.36 3.36 0 0 0-2.58 1.23m-10.38-6.73a2.9 2.9 0 0 1 .06-2.63 3.63 3.63 0 0 1 2.3-1.8 4.29 4.29 0 0 1 3.47 1.11c1.45 1.46 2.35 3.48 3.59 5.16a4.54 4.54 0 0 0-4.6 1 5.79 5.79 0 0 0-.9 2.07 38.26 38.26 0 0 0-3.98-4.89zM277.4 58.5a21.85 21.85 0 0 0-9.4 1.18 30.18 30.18 0 0 0 .23-5.95c1.62-2.07 4.43-1.85 7-2 4.49-.17 8.24.76 12.62 1.62.9 2.58 3.81 4.32 4.82 6.84-5.23.44-10.06-1.41-15.27-1.69zm-1.46 2.92a19.65 19.65 0 0 1-7.29-.67c2-1.12 4.49-1.23 6.84-1.29l.56.06c-.17.61-.05 1.28-.11 1.9zm-17.16 0L239.65 58a27.19 27.19 0 0 0-8.24.05 15.56 15.56 0 0 0 .45-5.33c.28-1 1.4-.9 2.13-1.34 3.14-.78 6.45 0 9.54.34 7.8 1.46 15.43 3.19 23.55 3.7.28 1.8-.17 3.7-.11 5.44.56.9 1.57.84 2.41 1.07a55.53 55.53 0 0 1-10.6-.51zm-19.85-.73a25 25 0 0 1-7.4-1l-.28-.34c2.13-1.07 5.33-.9 7.74-.39zm-32.25.05c2.41-1 4.94-1.57 7.23-2.86-2.41-1.23-5-2.13-7.23-3.76a190.87 190.87 0 0 0 24.17.67c.06 1.79-.67 3.48-.5 5.1.9 1.12 2.24 1 3.42 1.35a145.4 145.4 0 0 1-27.1-.5zm16.55-13c2.58 0 4.71-1 7.06-1.46 2.25-.34 4.49.11 6.51-.62.11 1.12.73 2.19.28 3.36l-3.08.34c-1.29.39-2.81 1-3.37 2.24-.27-.39.22-1.35-.61-1.35a.65.65 0 0 0-.62.39c.05.23.22.51.11.73a.89.89 0 0 0-.56 1.4c-.11.11-.34.05-.45.05-.56-.39-.34-1.18-1-1.51-.22-.45.39-.73 0-1.07a.84.84 0 0 0-1 0c-.34.62.17 1.51-.84 1.68l.23 1c-.73.33-.79-.56-1-.9-.11-.56-.78-.9-.28-1.46.17-.28-.22-.51-.45-.51a.64.64 0 0 0-.67.39c.4.67-.39 1-.84 1.12l.11 1.35c-.56 0-.73-.62-.9-1 .11-.56-.62-.45-.67-1 .4-1.16.52-2.84 2.03-3.18zm11.1-13.57c.56-3.81 4.49-5.72 6.79-8.36.06 1.62-1.23 2.75-2.3 3.81zm5.1-10.71c-.06 2.24-2.47 3.42-4 4.65a8.05 8.05 0 0 1 4-4.66zm1.17-1.91a5.5 5.5 0 0 1 4.61 1.45c.13-.22.45-.34.56-.57a.34.34 0 0 0-.05-.22 15.06 15.06 0 0 1 3.41-.73 17.88 17.88 0 0 1 4.27.33c.06.23.28.56.56.56.73-.39 1.12-1.23 1.91-1.57a6.31 6.31 0 0 1 2.24-.33c-.23 1-.28 2.07-1.18 2.86-.34.45-1.06.17-1.18.73 1.29 1.79 1.12 4.6.67 6.73a2.08 2.08 0 0 1-1.35 1.21 3.32 3.32 0 0 1-.82.11l-.07.34 1.13.71-.1.65-1.08-.5-.16.57 1.1.72-.12.54-1.12-.45-.22.67 1.13.68-.23 1-3.41-1.34v-1.54a2.45 2.45 0 0 0 1.29-1.4c.06-.33.17-.9-.17-1.18a4 4 0 0 1-2.09.75 3.24 3.24 0 0 1-2.11-.47 1.4 1.4 0 0 0 .22 1.62 2.83 2.83 0 0 0 1.22.72v1.62l-3.23 1.53-.3-.88 1-.64-.23-.78-1.07.62-.22-.52 1.17-.75-.26-.71-1.19.64-.13-.41 1.17-.87s-.07-.42-.07-.45c-1-.11-2.13-.33-2.47-1.46a16.26 16.26 0 0 1-.51-5.72c.05-.28.73-.45.28-.73-1.62.06-2.3-1.79-2.81-2.91zm2.4-4.38a.83.83 0 0 1-.55-.67A10.73 10.73 0 0 1 245 15c.06 0-.06 1.13 0 1.13-.09.26-.32.08-.67.54a.75.75 0 0 0 .56 1.12 5.7 5.7 0 0 1 .61 0c.23.68-.27 1-.78 1.23-.73.36-1.06-.62-1.06-.62l.56-.28-.73-1.4s-.27.54-.49.45zm11.5 2.58a1.25 1.25 0 0 1-.34.39 20.5 20.5 0 0 0-9.59.56 1.35 1.35 0 0 1-.45-.33 18 18 0 0 1 10.34-.62zm-2.08-5.33s-.6 1-.62 1.07c-.34.06-.9-.13-1 .43-.28.79.28 1.36.9 1.14a1.08 1.08 0 0 1-.68 1 1 1 0 0 1-1.25-.54v-.36h.57v-1.78h-.61l.05-.67a3.38 3.38 0 0 0-.88-.12c-.31 0-.73.13-.73.13v.78h-.52v1.7h.69s0 .88-.5 1c-.87.22-1.14.1-1.31-.46v-.38s.8 0 .78-.64c0-.41-.05-.87-.53-.92-.33 0-.39.15-.74.15 0 0-.34-1.16-.35-1.22a11 11 0 0 1 6.69-.31zm.51 2.69a.78.78 0 0 0 1.18-.62c0-.48-.54-.76-.93-.82l-.08-1.09 2.41 1.06-.17.73-.73-.34-.44 1.34.5.23a1.1 1.1 0 0 1-1.4.67c-.51-.09-.55-.71-.38-1.16zm12.4 14.3c-2.36-2.35-6.73-3.25-7-7 2.02 2.74 6.17 3.3 6.96 7zm-.9-4.88c-1.63-1.12-4.65-1.79-4.77-4.43 2.2.51 3.55 2.58 4.73 4.43zM261 44.37c-1.4-.39-3.36-.39-4.32-2a4.69 4.69 0 0 1-.48-4.37c.05 2.83 2.97 4.57 4.8 6.37zm2-.17c-2-3-6.62-5-6.06-9.25 1 3.53 6.71 4.99 6.06 9.25zm-4.49-16c2.13 2.75 6.62 4.21 6.39 8.19-1.9-2.9-6.4-4.39-6.4-8.23zm5.66 12.23c-2-3.14-7-4.65-6.17-8.86 1.45 3.21 6.27 4.78 6.16 8.82zm-15.81 1.18l.68-.05a3.74 3.74 0 0 0-1.13 2.41l-1.4.05c.37-.83.71-2.12 1.84-2.46zm3.7 2l-2.36.22a3.08 3.08 0 0 1 1-2.35c.95.2 1.18 1.2 1.3 2.05zm3.36-.11l-1.62-.17a4.33 4.33 0 0 0-1.18-1.91c1.38-.31 2.18 1.04 2.79 1.99zm-2.3-3.7l-5 .28a.59.59 0 0 1-.28-.95 5.18 5.18 0 0 1 2.81-1.46 5 5 0 0 1 3 1.34.59.59 0 0 1-.54.7zm-11.44 8l-.06 1.79-1-.11a2.68 2.68 0 0 1 1.05-1.8zm-1-1.23c.68-2.47 4.49-4.26 4.15-7.46a4.08 4.08 0 0 1 .45 3.42c-.64 1.89-3.11 2.57-4.56 3.91zm-1.29 2.8l-1.06-.11a2.73 2.73 0 0 1 .56-.68c.37-.06.37.42.54.66zm-.62-3.58c-.95-3 2.41-5 3.7-7.46a9.39 9.39 0 0 0 1.12-2.69c1.41 4.13-3.21 6.6-4.78 10.02zm-3.14-7.07c-.61-4.09 3.93-6.39 5.61-9.31-.13 3.69-4.05 5.99-5.57 9.18zm6.45-5.94c1.13 4.32-4.32 6.51-5 10.38-.68-4.51 3.52-6.98 5.04-10.52zm25.58 8.42c.45-.62 0-1.4-.11-2.08l-.84-2.8c5.72 1.06 10.77 4.32 16.71 5.16a3.44 3.44 0 0 0 2.07 1.91l2 .17a8.36 8.36 0 0 0 1.91 4.82 14.3 14.3 0 0 0-1.91 2.92c-4.88-.73-9.81-1.91-15.09-1.35.9-1.35.39-3 0-4.49-.84-.62-1.12-2-2.36-2.13-.84 1 .9 1.68.9 2.75a4.66 4.66 0 0 1-.73 4.21c-1.23.62-3.42 1.29-3.36 3.2a58.31 58.31 0 0 1-7.8-.84c-1.17-1-2-2.69-3.7-2.41a1.3 1.3 0 0 0-1.12-.11c.22 1-1.52.73-.79 1.8-1 .4-.61-1.18-1.29-1.51.11-.5.73-1.29-.11-1.51-.39-.06-.67.33-.73.62.56 1.07-1.4.9-.61 2-.34.17-.79-.28-.84-.62.11-.62-.84-1-.34-1.63a.42.42 0 0 0 0-.67c-.17-.39-.62-.11-.84 0-.45.5.39 1.74-.84 1.62l-.05.73c-1.12.28-.56-1.18-1.4-1.46.05-.56 1-1.24.11-1.63a.88.88 0 0 0-.84.62c0 .5-.23 1.06-.84 1.06l-.05.9c-1.12.17-.51-1.29-1.35-1.63a3.55 3.55 0 0 1 1.74-2.86c4.59.45 9.47-2.13 13.57.68 1.85-1 4.82 1.18 5.78-1.57l.4-1.68a18.67 18.67 0 0 0 1.79 1.46c.5-.45 0-1-.05-1.4a17.1 17.1 0 0 1-1.07-4.2c.88.18 1.28 1.3 2.11 1.81zM285.2 38a3.72 3.72 0 0 1 2.92-1.46 3.28 3.28 0 0 1 2.69 1.35c1.62 2.3-.9 6.25 2.41 9.26-.79-.23-1.4.22-2.13.17-2-1.8-1.8-4.71-1.51-7.23a2.09 2.09 0 0 0-1-1.4 1.7 1.7 0 0 0-2 .73c-.06.45.05 1.18.61 1.29.23 0 .4-.22.51-.39a1 1 0 0 1-.17-.67.75.75 0 0 1 .84-.11c.45.39.28.9.11 1.4a2.17 2.17 0 0 1-2.13.62 2.74 2.74 0 0 1-1.35-1.34 2.81 2.81 0 0 1 .2-2.22zm.17-6.79c-4.37.56-10.6 4.71-13.91-.45a5.23 5.23 0 0 1 .51-5.55c4-4.21 9.25.45 13.85-.84a2.82 2.82 0 0 0 1.35-2.19L287.1 21a3.23 3.23 0 0 1 .17 3 3 3 0 0 1-1.74 1.62c-4 .62-7.63-2.41-11.5-.62a4 4 0 0 0-1.62 3.14 3.08 3.08 0 0 0 .84 2.3c3.31 2.81 7.18-.33 10.66-.67a5.09 5.09 0 0 1 4.94 1.68 4.88 4.88 0 0 1-.73.78 4.62 4.62 0 0 0-2.76-1.04zm-3.26-1.68c-2.18.33-4.26 1.63-6.5 1-.62-.28-.56-1.06-.34-1.57.62-.84 1.68-.33 2.58-.39zm5.27-2.41a4.74 4.74 0 0 1-3.7.73c-3.31.05-6.62-2.75-9.65-.45l-.34.5a1.64 1.64 0 0 1 .95-1.85c4.38-2.07 12.23 4.88 13.58-2.91a3.52 3.52 0 0 1-.84 3.95zm5.08 3.2a2.32 2.32 0 0 1 2-.17 2.6 2.6 0 0 1 1.62 2c-.05 3.42-1.51 6-1.29 9.82a20.78 20.78 0 0 0 1.09 6.03c-3.2-2.29-3.39-4.69-3.31-8.92 0-1.34-1.08-2.34-2.22-3.08a4.65 4.65 0 0 0-2.61-.4 38.31 38.31 0 0 0 4.72-5.3zm4.43-6.71c.39 1.62 2.26 2.51 3.72 2.68-1.29 1.18-1.68 3.37-3.65 3.7a2.84 2.84 0 0 1-2.8-2c-.67-2.34 1.73-2.66 2.73-4.4zm-.52 17.77a21.15 21.15 0 0 1 2.85-10.75 14.32 14.32 0 0 1 1.94-2.55v-2.7a4.09 4.09 0 0 1-2.9-1.38 3.44 3.44 0 0 1-1-2.69 3.36 3.36 0 0 1 2.34-3.11 3.46 3.46 0 0 1 3.62.84 3.21 3.21 0 0 1 .84 2.43 1.91 1.91 0 0 1-1.72 2.07 1.71 1.71 0 0 1-1.65-.84c-.29-.53-.31-1.51.29-1.51.81 0 .1.58.59.8a.58.58 0 0 0 .77-.19 1 1 0 0 0-.18-1.06 1.32 1.32 0 0 0-1.51-.34 1.66 1.66 0 0 0-.93 2.07 2.13 2.13 0 0 0 2 1.73h3.4l1.91-1.29 2.36-1.16a3.56 3.56 0 0 0-.62-1.49l-2.91 1.55a6.5 6.5 0 0 0-2-4.46 5.22 5.22 0 0 0-8.41 4.71c-1.51 1.91-4.65 3.54-3.31 6.4-1.35.05-2 1.62-2.92 2.35l-1.8-1.46 1.46-1a5.66 5.66 0 0 0 1.18-5.66c-.62-2-2.41-4.1-4.61-4.38a3.05 3.05 0 0 0-2.69.62 2.4 2.4 0 0 0-.56 1.91 1.55 1.55 0 0 0 1.53 1.16c.9-.28-.33-.73 0-1.29.11-.45.67-.51 1.13-.45a1.48 1.48 0 0 1 .9 1.68 2 2 0 0 1-1.4 1.07c-4-.17-8.24-3-11.94-.39a6.44 6.44 0 0 0-3.42 5.31 6.81 6.81 0 0 0 2.36 5.55c3.87 3.2 9.25.73 13.34-.39.73-.17 1.69-.17 2 .56-1.7 1.63-3.58 3.35-3.7 5.73-5.71-1.18-10.54-3.87-16.26-5.1-.68.06-.84-.79-1-1.18l2.14.73.11-.17c-.9-1.68-1.62-3.48-2.35-5.16.73.05 1.29.73 2 .62v-.34c-2.58-2.8-3.59-7.57-7.85-8.3-.11-.84.4-1.57.34-2.35h-.51l-4.15 1.18-.17-.17A11.33 11.33 0 0 1 257 16c-.34-.51.51-.79.23-1.4s-1.07-.67-1.57-.56c.11-1.91-1.85.17-2.14-1.4a1.1 1.1 0 0 0-1.29.17l-.5-.68a1.92 1.92 0 0 0-1.29.17c-.17-1-1.4-1.63-1-2.75a4.78 4.78 0 0 1 1.24.11 8.84 8.84 0 0 0 0-1.74l-1.43.08V6.4c-.62-.06-1.13.16-1.8.11 0 .51.28 1.12.28 1.68h-1.51a8.4 8.4 0 0 0 .17 1.68c.5.06 1-.45 1.46-.11.34 1.18-.56 1.85-.73 2.8l-.12-.16c-.45-.05-.84-.17-1.18.17-.11 1.52-1.23-.45-1.79.68.11 1.51-1.35-.23-1.74.9.28 1.35-1.06.33-1.46 1.12-.5.62.45 1.18.17 1.74a6 6 0 0 1 2.13 3c-1.51-.34-3.36-.17-4.77-.68.06.9.73 1.62.67 2.47-2.64.67-4.32 3.31-4.93 5.78-.39 1.35-1.63 2.41-1.57 3.87.56.06 1-.73 1.51-.51-.45 2-1.69 3.7-1.85 5.84.56.39 1.29-.84 2-.84-.28 2.19 0 4.32-.67 6.34.5 1 1.23-.78 1.91-.67a10.84 10.84 0 0 1 0 2.3c-4.77.22-9 1.79-13.63 2.46-1.74.67-1.8 2.75-2.41 4.21-.34 1.29 1.57 1.18 1.23 2.41-7.46.06-14.58-1-21.7-1.68A70.63 70.63 0 0 0 209 57.66v.17a77 77 0 0 1-11.73 3.7 177.3 177.3 0 0 0 30.63 2 63.52 63.52 0 0 0 11.44-1.12c.84-.56.23-1.74.62-2.41 11.72 1.52 23.39 5.72 35.84 3.14 1.68 0 .73-2 1.12-2.69 5.72.11 11 2.53 16.82 1.46a3.74 3.74 0 0 0 3.93 1.68c2.69-.39 4.15-4.43 7.35-2.92A23.54 23.54 0 0 0 316 64.38l-1.62-1.72a21.56 21.56 0 0 1-18-21.3z"/><path class="a" d="M262 56.7v-.61l-3.06-.51v.73h.29v2.7c-.23.45-.76.45-1.29.45-1.15 0-.73-4.15-.73-4.15l-2.75-.31v.66a4.35 4.35 0 0 1 .51.18c.11 1.4-.34 3 1 3.92a3.64 3.64 0 0 0 3.44.27 2.87 2.87 0 0 1 .38.4l2.12.29v-.69l-.4-.1v-3.25l.49.05M252.12 58.08a5.78 5.78 0 0 1-1.64 0v-1.43a1.46 1.46 0 0 1 .66.26c.25.28.43.64.91.47-.07 0 0-1.58 0-1.61s-.6-.08-.65.2a1.76 1.76 0 0 1-.95 0v-1.21s1.63 0 2.14.68a2.91 2.91 0 0 1 .34.92h.78l-.23-1.72-5.65-1v.63l.6.19v3.26l-.63-.1v.68l5.47 1 .61-1.68-.73-.28a1.71 1.71 0 0 1-1 .7M279.86 52.86v1.94h.36a2.41 2.41 0 0 1 .68-.75 2.72 2.72 0 0 1 .95 0v3.3h-.68v.56l3.19.56V58l-.57-.34v-3.31s.61.09.78.3a11 11 0 0 1 .68 1.07h.53v-1.88l-5.89-1M277.79 56.48a2.46 2.46 0 0 1-1.85.06v-1.1s1-.19 1 .29h.47v-1.41H277a.93.93 0 0 1-1.11.49V53.5a1.7 1.7 0 0 1 1.59 0 2.68 2.68 0 0 1 .79 1h.55l-.34-1.74H273v.74l.62.11v3.14l-.56.23v.52h5.42l.45-1.4-.74-.1a1.92 1.92 0 0 1-.44.44M243.43 53.4l.65.34v3.21c-.17.11-.65 0-.65 0l-.07.58s3.4.68 3.4.63v-.63l-.52-.15V54h.62v-.5l-3.4-.64v.58M287.49 47l-.39-.79-8.42-1.51.34.5a61.34 61.34 0 0 0 8.47 1.8M287.6 48.74l.51-.68c-3.82-.62-7.63-1.29-11.33-2.13l.34.45a65.54 65.54 0 0 0 10.48 2.36M286.87 45.21c-.05-.28.06-.73-.27-.84-2.08-.29-4.32-.51-6.23-.79l.28.34a39.57 39.57 0 0 0 6.22 1.29M324.21 22.33a27.51 27.51 0 0 1-13.17 0v-1.2c3.65-1.52 9.47-1.49 13.16-.19v1.36m-14.36-2.4l-.36.13c1 .9 0 2.35 1.18 3.14a26.12 26.12 0 0 0 13.63-.06c1.51-.62.07-2.44 1.19-3.34a23.11 23.11 0 0 0-15.64.13z"/><path class="a" d="M312.27 11.71c-.75.42-.7.75-.75 1s.49 1 .49 1-.78-.2-1 0c-.57.5-.38.91-.34 1.51 0 .35.28.51.51.73.33-.32.49-.42 1.24-.45a1.51 1.51 0 0 1-1 1.91c-1 .33-1.45-.19-1.8-.9a1.59 1.59 0 0 1 1-.36l-.94-2-1.06.89-.36-.58-.13-.64a15.52 15.52 0 0 1 4.18-2.2m10.48 0c-1.23 0-1.36 1-1.16 1.75-.28-.17-.88-.58-1.34-.22-.64.48-.47 1.41-.25 2a1.22 1.22 0 0 1 1.33-.16 1.52 1.52 0 0 1-1.62 1.52 1.23 1.23 0 0 1-1.33-1.49 1.94 1.94 0 0 1 1 .16 4.27 4.27 0 0 1 0-2.4h-1l.26-1.26h-2.59l.23 1.29h-1a2.66 2.66 0 0 1 .23 2.32 3.58 3.58 0 0 0 1-.12 1.4 1.4 0 1 1-2.77.23 1.1 1.1 0 0 1 1.05 0 .9.9 0 0 0 .33-.71c-.09-.57-.07-1.13-.65-1.33a1.41 1.41 0 0 0-1 .23 3.06 3.06 0 0 0-.07-1.13 1.3 1.3 0 0 0-1-.68c2.87-.91 7.18-1.2 10.32.09zm3.83 2l-.33 1.13a7.7 7.7 0 0 1-.85-.74l-1 1.9c.31.06.76.08 1 .42a1.56 1.56 0 0 1-1.94.9c-1-.4-.84-1.13-.68-1.94.58 0 .81.13 1 .42.29-.29.94-.88.64-1.65-.15-.4-.93-.5-1.26-.39a1.3 1.3 0 0 0-.29-2 14.68 14.68 0 0 1 3.67 2.02zm-20.3.49l-.23.24a12.67 12.67 0 0 1 3.09 4.71 25.65 25.65 0 0 1 16.73-.06 13.81 13.81 0 0 1 1.4-2.92 14.26 14.26 0 0 1 1.51-1.85l-.3-.24a1.51 1.51 0 0 0 .47-.72c.07-.68.22-1.34-.23-1.74a2.26 2.26 0 0 0-1.79-.11 1.68 1.68 0 0 0-.45-1.23c-.56-.62-1.46-.11-2 .06a1.46 1.46 0 0 0-.61-1.18 1.67 1.67 0 0 0-1.74.33c-.22-.33-.34-.78-.73-1.06-.56-.45-1.4-.06-1.79.22l-.35-1.09-.59-1.47-.23-1.46 2 .49V2.3l-2 .51.39-2.81h-3l.39 2.81-2.14-.51V5l2.14-.49-.26 1.67-.53 1.41-.27 1.11a1.88 1.88 0 0 0-1.35-.45c-.67 0-.9.73-1.12 1.18a1.72 1.72 0 0 0-1.46-.43c-.67.17-.9.9-1.12 1.4l-.39-.28c-.62-.11-1.4-.11-1.68.56-.34.23.22 1.24-.45 1a1.33 1.33 0 0 0-1.74.5 1.49 1.49 0 0 0 .39 1.99zM312.79 22.38l1.85.27.34-.22a22.15 22.15 0 0 1 5.42 0l.22.29 1.69-.33a16.93 16.93 0 0 0-9.52 0M261.19 51a44.52 44.52 0 0 0 6.12-.39c1.46-.67 1.4-2.81 1.06-4.15a1.14 1.14 0 0 0-.45.17c-.34 1.07.17 2.58-1 3.2l-5.66.67-.12.5M286.87 50.37c.23-.22.17-.56.28-.78a104.57 104.57 0 0 1-10.43-2 .57.57 0 0 0 .28.45 62.93 62.93 0 0 0 9.87 2.3M361.51 56.94h1.7v-.53h-.44v-2.23l2.85 3.15h.79V53.2h.39v-.63h-1.55v.58h.43v1.26l-2-1.92-2.75-.06.07.57h1v3.3h-.42v.58M357.94 56.82c-.66.12-1-.56-1.14-1.63s-.6-2.26.63-2.36c.92-.07.9 1 1 1.82.14 1 .19 2-.52 2.16m-.17-4.48a3.42 3.42 0 0 0-2.41 1 2.2 2.2 0 0 0-.62 2.24 2.75 2.75 0 0 0 1.35 1.63 4.45 4.45 0 0 0 3.19-.17 2.56 2.56 0 0 0 1.12-3.25 2.73 2.73 0 0 0-2.6-1.45zM371.56 49.7c-.28 0-.56 0-.62.28.22.9-.22 2.3.62 3a20.44 20.44 0 0 1 6.56 2.02c.17.11.73.29.68-.17a14 14 0 0 0-6.23-2.58c-1.18-.34-.28-1.91-1-2.57"/><path class="a" d="M412.67 60.07c.84-.28 2.25-.45 3-1.4-.05-1.68-.67-3.31-.62-5 4.71-.11 9.42-.56 14.07-1-2.3 1.68-5 2.64-7.62 3.81 2.08 1.35 4.88 2 7.35 2.92a85.6 85.6 0 0 1-16.15.67m-5.49-.39c-.06-.67-.56-1.63-.11-2a17.75 17.75 0 0 1 7.34.5c-.17.73-1.12.51-1.62.84-1.82.26-3.74.55-5.64.66zm-16.6.5c0-1.85 2.58-1 3.14-2.63a3.29 3.29 0 0 0-.45-2.69c-1.69-1.79-4.15-.22-6.17-.17l-1-.68c8.64-1 16.32-4.71 25.52-4a3.3 3.3 0 0 1 2.3 1.35 32 32 0 0 0 .56 5.66c-8.51-1.6-16.14 1.59-23.93 3.16zm-1.07-5.1a1.69 1.69 0 0 1 1.63.23c.79.67 1.18 2.58-.06 3.08-.03 0-1.54-3.29-1.6-3.31zm-3-3.09h.34v.06h-.34zm1.46 9.37c-1.46.79-3-.05-4.54-.11-2-.28-4.21-.62-6.06.28a19.45 19.45 0 0 1-4.21-2.3c.67-1.29 2.29-1.35 3.7-1.46 2 .62 3.59 2.25 6.06 1.63a1.21 1.21 0 0 0 1.35-.67c-.67-1.06-2-1-3-1.34-3.87-.84-7-3.37-11.27-3.2-1.29-1.46-.33-3.7-.5-5.55.28-.39 1.18-.84.73-1.4-.17-.33-.62-.22-.84-.11l-1.85 1.18a8.5 8.5 0 0 1 .11 1.68 23.11 23.11 0 0 0-4.15-.67c-.39-1.18 1.29-.23 1.18-1.29l.33-4.27c-.06-.84-1.4-.62-.73-1.56.39.05.95.39 1.29 0l2.4-3.95a1 1 0 0 0-.5-1l.56-.62c.62 1.06 1.79.05 2.69.05.9-.62 3.08.12 2.86-1.68v-.23l1-.17c-.06.79-.12 1.9-.73 2.36-1.45.52-3.71.12-5.08.81l-1.2 2.11c3.08-.79 6.67-.73 9.7-1.74 3.13 1.23 6.39 2.24 9.36 4-1.12 1.51-.5 3.36-.28 5.15a7.68 7.68 0 0 1-2.69 5c-1.29-1.23.9-2.13 1-3.36.28-.73.56-2-.17-2.58-1.12.05-.28 1.46-.79 2a20.52 20.52 0 0 0-1.34 2.64 3.66 3.66 0 0 1-1.74-1.46c-.33-.73 1-1.57-.06-2.07-1.07.84-2 2.07-3.3 2.52-.17.17-.28.39-.17.56.78.9 1.74-.39 2.52.62 2.92 2.24 5.66 4.94 8.92 6.4 1 1.33-.06 2.68-.56 3.8zm-18.28-4.82c0-.56.62-.68 1-.78 1.85-.28 3.14.73 4.65 1.23a7 7 0 0 0-3.14 1.46 4 4 0 0 1-2.52-1.91zm-1.46 4.88c.39-.28 1.07-.51 1.29-1.07l-.06-1.35a2.91 2.91 0 0 0 2 .9c0 .62.73 1.12 1.13 1.35zm-6.84-.51l-.22-1.79a14.92 14.92 0 0 1 7.06 1.06l-.06.22a18.06 18.06 0 0 1-6.79.51zm-17.79-1.51a19 19 0 0 1 3.14-4.09 4.24 4.24 0 0 1 .46.47V58l-.42.05v.54h1.67V58H348v-1.35l1.68 1.79 1.63-2.44.24 1.55a3.23 3.23 0 0 1-.52.14 1.83 1.83 0 0 0 0 .64l3.06-.54L354 57a3.65 3.65 0 0 1-.53.11l-.44-3 .54-.14-.09-.81-2 .34-1.17 2.5-2.05-2.2h-.53l.34-.84c6.11-.67 12.56-2.8 18.9-1A1.91 1.91 0 0 1 368 53c.61 1.38-.32 3.56.24 5.07a2 2 0 0 1 .11.84c-8.35-2.99-16.25 1.95-24.72.49zm-1.29-1.52A5.11 5.11 0 0 0 340 55a4.4 4.4 0 0 0-3.47.11c1.85-2.58 3.25-7.51 7.57-6.34a3.15 3.15 0 0 1 2 2.41c.62 3-3.1 4.24-3.76 6.7zm-1.63 2.81a2.55 2.55 0 0 1-2.47.84 2.38 2.38 0 0 1-1.4-1.46 1.14 1.14 0 0 1 .56-1.34c.33-.05.73.06.78.4s-.56.84.05 1.06c.39.06.73-.39.79-.73a1.54 1.54 0 0 0-1-1.68 1.71 1.71 0 0 0-1.69.39c-.55.39-.5 1.07-.55 1.62a4.34 4.34 0 0 0-2.78-1.07c1.85-1.63 3.7-3.59 6.34-3a3.18 3.18 0 0 1 2 2.35 4 4 0 0 1-.63 2.62zm-1.49-27.84a3 3 0 0 1 1-2.56 2.18 2.18 0 0 1 2.36-.5l5.49 5.66A4.09 4.09 0 0 0 343.8 37c-2 2.47.39 6.45-1.74 8.92l-2 1.91a22.44 22.44 0 0 0-.83-14.98zm-.7-3.29c-1.62-.56-2.14-1.83-3.44-3.45a4.17 4.17 0 0 0 3.16-2.39c0-.22.17-.34.17-.56 1.46 1.46 4.48 3.25 2.52 5.6a2.46 2.46 0 0 1-2.4.8zm23.33.33a3.47 3.47 0 0 0 1.4-3.42c.11-1.12-1.12-1.85-1.74-2.46-3.93-1.58-7.63 1.4-11.67.73a2.61 2.61 0 0 1-1.51-2.25v-.17a2.79 2.79 0 0 0 2.36 1.46c4.37-.28 10.54-3.87 13.74.9a5 5 0 0 1-2 6.73c-5.27 2.58-10.32-3.53-15.26.34l-.67-.56c4.37-4.77 10.2 1.29 15.36-1.29zm-.61-1.35c.05.51-.56 1-1 1.07-2.41.34-4.71-.39-7-.9 2.41-.5 4.82-1.51 7.35-1a1.15 1.15 0 0 1 .65.84zm-15.42-2.81v-.17c4.6 3.54 9.65-.56 14.58-.11a2.27 2.27 0 0 1 1.68 2.75 2.33 2.33 0 0 0-1.62-1.52c-4.94-.6-11.05 4.39-14.64-.93zm3.53 11.05a3.91 3.91 0 0 1 1.29 1.85 2.43 2.43 0 0 1-.84 2.19 1.89 1.89 0 0 1-2 .45 1.82 1.82 0 0 1-1-1.12.9.9 0 0 1 .56-1c1.06-.28.17 1.68 1.29.9a1.43 1.43 0 0 0-.17-1.4 1.54 1.54 0 0 0-1.68-.33c-1.8 1.23-.17 3.42-.56 5.27a5 5 0 0 1-1.8 3.42 3.21 3.21 0 0 0-2.07 0c1.85-2 1.68-5.11 1.57-7.8a3.88 3.88 0 0 1 1.46-2.41 4.4 4.4 0 0 1 3.95 0zm13.07 7.51l1.12.06-.23 2.86-1.12-.11zm1.58-4.41c.56-.67.79-1.52 1.35-2.19l.9.56a13.56 13.56 0 0 1-1.4 2.47c-.3-.22-1.25-.33-.85-.84zm7.74-6c.34.11.22.67.34 1a11 11 0 0 1-2.75.73 2 2 0 0 1-.17-1.12zm8.36 1.74c.45.23 1 .11 1.07-.39-.23-1.69 1.29-3 1.62-4.66a3.27 3.27 0 0 0 3-4.43c-.17-.17-.46-.45-.62-.12-.17 1-.56 2.19-1.68 2.47-1.74.62-3.7 0-5.44-.28-1.63.39-3.42.33-4.6 1.74a1.44 1.44 0 0 1-1.68-.11c-.28-.22-.62-.67-.17-.9.56-.39 1.57.05 2-.67a1.26 1.26 0 0 0-.9-1.34c-1.12-.68-2.8 1.9-2.75-.45l.22-1.57a2.21 2.21 0 0 0 1.85.33c.34-.11.67-.5.51-.84-.51-1-1.18.06-1.85 0 .11-.73 1.06-.78 1.63-1.06a9.21 9.21 0 0 0 5.83-2.86c1.46-.45 3.14.73 4.49-.28a5.9 5.9 0 0 1 2.69-2.92c.17 1.4.85 3.2-.33 4.37a.76.76 0 0 0 1 .23c.4-.23.4-.67.56-1.07 3.93 2.36 5.33 6.68 4.6 11.11a22.92 22.92 0 0 1-2.24 6c-.06 0-.39-.62-.79-.56a1.38 1.38 0 0 0-.22-1.51c-.85 0-1.12 1.23-2.08.84a1.28 1.28 0 0 0-.44.9c.17.22.44.11.61.39.06.51-.39.79-.78.9a1.3 1.3 0 0 1-1.4-.9c-.06-.28-.17-.78.06-1 .39.11 1.06.9 1.18 0 0-.56 1.06-1.18.17-1.57l-.68-.17c.11-.34.56-.51.51-1a4.67 4.67 0 0 0-1.91-.73c-.28.23-.17.56-.17.9-.39.17-.56-.45-1-.33a10.86 10.86 0 0 0-.67 1.85l1 .33a1.66 1.66 0 0 1-1.68.79c-.33-.23-.84-.39-1-.84a.54.54 0 0 1 .47-.59zM382.78 15a8.24 8.24 0 0 1 3.2-2.41c0 2.07-1.68 3.58-3.31 4.65-.56-.58-.12-1.53.11-2.24zm7.91-1.29c0 2.13-2.3 3.31-2.92 5.21-.44-.11-.5-.67-.67-1-.28-2.21 2.02-3.28 3.59-4.18zm3.93 2.69c-.45 2.52-3.36 2.69-4.6 4.6-.5 0-.45-.56-.61-.84.44-2.49 3.3-2.88 5.21-3.72zm3.59 4.26c-1.79 1.63-4.43 1.85-6.67 2.36-.34-.17-.17-.67-.12-1 1.68-1.6 4.37-1.15 6.78-1.32zM399.6 25c-1.74 1.23-4.54 1-6.73.73-.45-.17-.33-.67 0-1 2.08-1.28 4.6-.05 6.73.27zm.29 4.1c-2.08.56-5.16.84-6.68-.84-.06-.39.34-.56.61-.73a17 17 0 0 1 6.07 1.58zM399 33a5.4 5.4 0 0 1-5.88-1.74.56.56 0 0 1 .5-.62c2.06.21 3.58 1.67 5.38 2.36zm-6.39 1.68c-.11-.17 0-.45-.05-.67a1.11 1.11 0 0 1 1.18-.06l3.59 2.69a5.4 5.4 0 0 1-4.74-1.98zm-1.06 3a1.59 1.59 0 0 1-.06-1.34 1.63 1.63 0 0 1 .73 0l2.74 3.53a5.33 5.33 0 0 1-3.43-2.18zM390 40.5c-.17-.39-.05-1 .34-1 1.29.39 1.74 2 2.8 2.8a3.38 3.38 0 0 1-3.14-1.8zm-2.23-.5c-.22-.11-.5-.11-.67-.39a.7.7 0 0 1 .39-.78c.28-.05.62 0 .62.34s-.17.6-.34.83zm7.46 8.81a3.21 3.21 0 0 1 2.41.62 80.76 80.76 0 0 1-10.64 2.4c2.73-.62 5.43-2.13 8.23-3.03zm31.13 7.63a65.13 65.13 0 0 0 10.1-6.62 138.28 138.28 0 0 1-21.2 1.68c-.56-.17-.12-1.06-.45-1.46-2-2.86-6.39-2-9.65-1.9-2.25-.23-4.93 2.35-6.5-.39-1-.9-2.47-.73-3.81-.84-2.41.56-4.6 2-7 2.41.73-1.63.12-3.54 0-5.27.06-.39.12-.84.51-1a4.52 4.52 0 0 0 4.26 2.36c.06-.62-.89-1.07-1-1.68 1.52.67 3.59.05 5 .84-.05-1.24-1.68-2.3-2.35-3.14a23.21 23.21 0 0 1 3.58.23 8.9 8.9 0 0 0-2.46-3.7L398 38c.78-.11 1.74 0 2.47-.11a6.25 6.25 0 0 0-3.14-3.08l2.47-.33c.73-.34 1.85.05 2.52-.34a10.94 10.94 0 0 0-4.2-3.15l3.7-1c.5 0 1.24.11 1.51-.11a8.53 8.53 0 0 0-4.21-2.69V27c.84-.17 1.46-.89 2.19-1.35.5-.33 1.28-.28 1.62-.78-1.34-1.24-3.19-1.46-4.93-1.91v-.17c1.12-.67 2-1.74 3.14-2.41v-.18c-1.74-1.12-4.09-1.12-6.23-1.06a4.91 4.91 0 0 0 1.09-2.2c.29-.73.9-1.34 1.18-2a9.6 9.6 0 0 0-5.33.84l1-3.81-.17-.11a10.1 10.1 0 0 0-5.1 2 10.2 10.2 0 0 1 .62-3.36 10.35 10.35 0 0 0-4.2 1.4c-1.69.9-3.48 2.41-3.26 4.49-.11.11-.44.05-.39.34a3.28 3.28 0 0 1 1 1.91 2.37 2.37 0 0 1-1-1.46 1.63 1.63 0 0 0-2-.9 3.11 3.11 0 0 1 .79 1.74c-1-.5-1-1.62-1.74-2.3a1.4 1.4 0 0 0-1.4-.11l.73 1.24-.12.17c-1.07-.51-.89-1.68-1.85-2.25a1.27 1.27 0 0 0-1.4 0c.28.51.84 1 .79 1.57-1.29-.5-1.68-3.25-3.48-2.3.39.39.89.79.89 1.29-1.12-.28-1.17-1.51-2-2.07-.45-.17-1-.39-1.35-.11a1.43 1.43 0 0 1 .56 1.12c-.78-.11-.73-1-1.34-1.35a1.42 1.42 0 0 0-1.68-.62c.17.34.56.73.5 1.06-.73-.34-.67-1.45-1.63-1.63a.69.69 0 0 0-.56.84 2.1 2.1 0 0 0 1 .9c1.68-.28 2.47 1.63 4.21 1.24a3.34 3.34 0 0 0 2.75 1.12 3.43 3.43 0 0 0 2.64 1c.78 1.35 2.58.11 3.36 1.57.62.56 2-.11 2.19.84h-.17c-2.07-1.06-3.59.68-5.16 1.62-1.91.84-4.38.73-5.83 2.41-.28 1.74-1.12 3.81-.11 5.5.22.17.73.23.51.68l1.91 2.07c.61.5 1.57.33 2.35.28 2-1.46 4.83-2.24 7.18-1-.17.79-.39 1.74-1.34 2-.34.23-.17 1-.84.73-.62 0-.84.68-.84 1.18l.62.23a.54.54 0 0 1 0 .78A1.31 1.31 0 0 1 377 36a1.15 1.15 0 0 1-.73-1.4c.28-.06.45.39.73.23-.06-.67.33-1.12.33-1.68l-.79-.11c0-.39.51-.73.4-1.12a3.89 3.89 0 0 0-2-.06l-.22 1.29-1.57.17c-.29-.22-.17-.73-.62-.84l-3.76.78c-.68.06-1.57.56-1.12 1.4-.73.62-1.57 2.69-2.75 1.4-1 1.06-1.63 2.52-2.52 3.7a1 1 0 0 0 .45 1.52 3.56 3.56 0 0 1-.56 1.68 1 1 0 0 0-1.12.39l-.3 4.65c.17.5.73.39 1.06.62-.05.22.12.56-.1.73-4.88-.11-9.15 1.4-13.8 1.51a6.41 6.41 0 0 0-1.85-3 7.91 7.91 0 0 0 2-4.77 4.21 4.21 0 0 0 3.84-1.75c3.19.11 6.73.45 9.87-.28l-.17-.17c-.55-.51.11-1 .17-1.4a52.88 52.88 0 0 1-9.42 0c.4-2.92-2.46-4.49-4.09-6.39a5.19 5.19 0 0 1 1.12-.79c4-.33 7.24 2 11.33 1.46 2.41-.34 5.16-2 5.77-4.54.5-2.08.45-4.6-1-6.22-2.63-3-7.24-2.75-10.76-1.85-1.69.22-4.15 1.51-5.44-.34a3.5 3.5 0 0 1-.06-2.8c-.78-.11-1.23.62-1.74 1-1.23 1.63-.89 4-.27 5.72A4.18 4.18 0 0 1 345 22h-.11c-.67 1.23-.28 2.92.17 4.15a6.14 6.14 0 0 0 3.36 2.75 10 10 0 0 0-2.63 1.4c-.44-.28-.73-1-1.18-1.4-.39-.62-1.74-.39-1.4-1.18.84-2.58-1.63-4.09-3.25-5.66-.3-2.18-1.61-5-4.31-5.72-2.12-.55-4.06-.3-5.44 1.4a4.4 4.4 0 0 0-1 3.59c-1.12-.39-2.13-1.24-3.31-1.34a2.15 2.15 0 0 0-.07 1.58 17.86 17.86 0 0 1 4.53 2.43h3a2.26 2.26 0 0 0 1.6-.79 1.86 1.86 0 0 0 .33-2.07 1.52 1.52 0 0 0-1.63-1.07c-.85 0-1 .63-1 1.24s.26.62.56.56.14-.48.33-.73.26-.37.45-.28a1.05 1.05 0 0 1 .56.78 1.4 1.4 0 0 1-1 1.52 1.79 1.79 0 0 1-2.08-.51 2.36 2.36 0 0 1-.39-2.63 2.82 2.82 0 0 1 1.74-1.91 3.23 3.23 0 0 1 3.42.56 3.62 3.62 0 0 1 1.23 4.66 3.27 3.27 0 0 1-3.2 1.9v2.52a20.19 20.19 0 0 1 5.07 13.57A21.4 21.4 0 0 1 321 62.75l-1.55 1.68a23.34 23.34 0 0 0 11.71-4c3.7-1.46 5 4 8.75 2.91a5.06 5.06 0 0 0 2.69-2.19 25.31 25.31 0 0 0 6.56.34c3.87-.17 7.41-1.52 11.16-1.4.05.78-.12 1.74.45 2.3a44.27 44.27 0 0 0 14.92.67c1.18.34 2.63.73 3.76-.06 2.57-.45 4.93.45 7.46.5a2.62 2.62 0 0 0 2.69-1.12 156.6 156.6 0 0 1 16.1-3.65c.73.06.28 1.24.5 1.8.62 1 1.91.9 2.92 1.18 9.81.9 20-.05 29.44-1.57a110.21 110.21 0 0 1-12.2-3.71z"/><path class="a" d="M348.06 46.89l7.07-1.46c.62-.33 1.74-.11 2-.9-2.8.5-5.55 1.12-8.41 1.4-.5.06-.39.62-.61 1M348.06 48.63c3.25-.62 6.45-1.18 9.53-2.07.39-.17 1-.17 1-.79-3.53 1.12-7.46 1.35-11 2.19l.56.67M358.5 48l.22-.39c-3.31.73-6.9 1.23-10.27 1.85l.28.67A80 80 0 0 0 358.5 48M348.79 44.37l-.05.67a42.74 42.74 0 0 0 6.06-1.29l.22-.39-6.23 1M409.87 51.41l.72.1v3.4l-.5.06v.47l2.9.32v-.51l-.63-.2-.1-3.4a2.76 2.76 0 0 1 .58.29.68.68 0 0 1 .18.57l.46.16V51.5a10.71 10.71 0 0 0-4.27-.68v1.62l.43-.07.24-1M409.09 54.76l-.46-.02-.37-3.23.6-.07-.17-.63-3.03.35.06.56.45-.06.45 3.31-.45.16.05.57 2.92-.36-.05-.58M396.41 55.19c.05.07-.37-1.46-.37-1.46a.83.83 0 0 1 1.24.44c.26.68-.47.95-.86 1m2.48-1.6c-.2-1-1.48-.94-2.72-.69.05 0-2.4.72-2.4.72l.12.46.34-.1.83 3.23-.29.41.18.43 2.36-.56-.26-.65h-.19l-.25-1.16s.65-.05.83.14a6.85 6.85 0 0 1 .82 1.45l1.8-.52-1.45-1.66s.57 0 .27-1.48zM403.2 55.86c-.72.23-.9-.38-1.24-1.5s-.72-2 .09-2.28 1.19.91 1.43 1.76c.32 1.16.47 1.79-.28 2m.73-4.21a3.79 3.79 0 0 0-3 .39c-1 .5-1.12 1.57-1 2.64a2.55 2.55 0 0 0 1.35 1.62 4 4 0 0 0 2.91-.22 2.55 2.55 0 0 0-.22-4.43zM328.27 54.41l-.45-.11c.22-.28.84-.34.67-.84-1.07-.9-2.41-.51-3.76-.62l-.22-.17c.56-.62 1.57-.28 2.3-.28.34.06.73-.28.51-.62-1 .22-2.25.11-3.19.62-.22.23-.12.51.05.73 1.18.17 2.8-.39 3.7.5l-.28.11c-1.46-.62-3.14.39-4.54-.34l.22-.45a3.1 3.1 0 0 0-2.13-.5c-.28.34.22.84-.11 1.23-.68 0-.34-.67-.51-1l-.78-.05c-.45.22-.05.62-.17.9.67.28.95 1.06 1.46 1.51-.22.29-.68.84-1 .29-.34.11-.79.22-.9.56.67 1.35 1.91.06 2.74-.11l.23.11c.5-.73 1.4-.73 2-.9.45.56-.51.5-.73.84s-.73-.28-.9.22c0 .23-.22.39 0 .62.9.34 1.57-.67 2.52-.62.67-.05 0-.67.5-1s1-.56 1.29 0l-.39.39c-.28-.05-.34-.5-.67-.34a.42.42 0 0 0-.17.39c-.06.62.61.5.9.67a6 6 0 0 0 1.74-1.8M319.91 28.27H330v11.22h-10.1zm-.84 12.11h12v-13h-12z"/><path class="a" d="M321.25 51.66c.45-.06.9-.56 1.24-.39s.17-.22.33-.28c1.07-.22 2-1 3.26-.67-.05.11 0 .39-.22.39-.51.5-1.74 0-1.8 1 .22.06.39.39.73.28.45-.56 1.17-.39 1.85-.45 1.18.34.23-1 1.18-1.06.62.11 1.52-.28 2 .33a.33.33 0 0 1-.17.34c-.17.17-.39.06-.5-.11a.35.35 0 0 0-.56.17c.06.67.68.56 1.06.78a2.89 2.89 0 0 0 1.14-1.99c-.45-.11-.9 0-1.24-.33.34 0 .84-.28.73-.73-1.12-1.29-3.25-.39-4.88-.56l-.22-.17c.73-.73 2.3.06 2.69-1-.05-.17-.28-.17-.39-.17-.84.67-2.36.06-2.86 1.12 1.18 1.35 3-.05 4.6.39.22-.05.62.28.45.45-1.91-.17-4.21.39-6.17-.17a2.35 2.35 0 0 0 .28-.56 5.27 5.27 0 0 0-2.41-.56c0 .51.17.9-.11 1.29-.16.23-.39-.05-.5-.17-.23-.28 0-.45.06-.67-.11-.56-.62-.11-1-.34-.33.11-.16.56-.33.84 1 .17.79 1.46 1.63 1.68a2.08 2.08 0 0 1-.67.56c-.22-.11-.17-.39-.39-.34-.34.23-1 .17-.9.73.45 1.24 1.23 0 2.07.28"/><path class="a" d="M319.57 47.34c.28.17.56-.05.84-.11.78.11 1.4-.78 2.07-.56a6.48 6.48 0 0 1 4-1l-.28.56c-.62.23-1.69-.11-1.91.56 0 .56.61.34.95.51.62-.73 1.8 0 2.41-.62-.51-.51.39-.62.56-1 .67.39 1.74-.51 2.07.5-.28.62-.73-.45-1.12.11-.11.68.56.73 1 1a2.1 2.1 0 0 0 1.12-2c-.39-.11-.84 0-1.12-.33.22-.34.9-.17.79-.73-1.4-1.4-3.65-.11-5.44-.67 0-.11 0-.17.05-.22.79-.62 2.3.5 2.59-.73-.12-.23-.34-.11-.51-.11-.73.73-2.41-.17-2.69 1.12.11.33.51.39.78.44 1.51.11 3.36-.72 4.6.23a22.18 22.18 0 0 1-7-.11l.11-.45a2.5 2.5 0 0 0-2.25-.5c-.05.28.17.5.11.78s-.05.56-.45.5-.28-.62-.22-1c-.11-.39-.56-.11-.79-.28-.5.05-.34.62-.5.95.67.39 1 1.18 1.63 1.74-.62.9-1.34-.39-1.85.67-.12.34.34.45.39.73"/><path class="a" d="M318.23 61.81V42.29h13.91c.27 6.43.06 11.95-5.61 14.53-2.8 1.4-6.11 2.47-8.3 5m0-35.22h13.68v14.63h-13.68zm-1.06 14.64h-13.58V26.59h13.58s.04 9.81-.01 14.64zm0 20.53c-3.14-3.42-7.09-3.47-10.82-6.79-3.17-2.8-2.75-8.55-2.75-12.67h13.58zm-15.31-11.5c-3.08-4.88-3-12.56 0-17.5zm32-17.61a17.51 17.51 0 0 1 2.27 8.88 18.06 18.06 0 0 1-2.27 8.87zm-5.13 25a20.14 20.14 0 0 0 7.27-9.14c1.77-4.73 1.61-8.53.32-13.14a16.73 16.73 0 0 0-2.61-5.12v-5.58h-6.21l-2.11-1.15-1.23.38 1.36.77h-15.37l1.51-.67-1.37-.38a18.12 18.12 0 0 1-2.29 1.05h-6.28v5.89c-2.91 4.43-4.33 11.28-2.39 16.71s4.06 7.38 7.7 10.36c4 1.85 8 3.47 10.88 7.51 1.97-3.88 6.09-5.31 10.84-7.51z"/><path class="a" d="M304.88 31.86a4.26 4.26 0 0 0 2.52-1c.22.51.39-.05.67-.11 1.17-.17 2.18-1.07 3.42-.62l-.06.06c-.17.79-1.34.62-2 .73-.22.68.34.84.84.84.73-.56 2-.06 2.58-.67-.5-.45.34-.45.45-.9.67.39 1.74-.5 2.07.5l-.17.11a1.58 1.58 0 0 1-.68-.23.27.27 0 0 0-.17.34c-.22.68.56.73.95.84.84-.33 1-1.23 1.07-2-.4-.22-.79.11-1.07-.28.28-.11.9-.28.67-.79-1-1.06-3-.56-4.32-.5-.28.05-.67.05-.67-.34.22-.34.73-.12 1.13-.17.56.05 1.29-.05 1.06-.68l-.34-.11c-.61.67-1.68.17-2.35.67-.06.28-.11.68.17.84 1.46.33 3.2-.5 4.71.17a.21.21 0 0 1-.06.33c-2.13-.17-4.65.45-6.73-.23l.17-.45c-.67-.34-1.52-1-2.41-.51-.06.4.45 1.07-.22 1.29-.84-.28 0-.79-.4-1.23-.23.05-.73-.11-1 .11-.62 1.18 1 1.57 1.4 2.47l-.17.17c-.23.17-.56.34-.62-.06-.45-.16-.61.34-.95.39-.34.45.34.79.5 1M309.7 49.3L314 52l-.17 1.07-5-3.14-.39-.78c.28-.56 1-.11 1.34.17m.29-2c1.4.9 2.86 1.68 4.15 2.69l-.11 1a22.71 22.71 0 0 1-4.43-2.8zm1.06-1.4l3.25 1.91-.11 1a28.08 28.08 0 0 1-3.7-2.19zm3.42-.62l-.11 1.46a8.52 8.52 0 0 1-2.44-1.49zm-.84 10c-1.57-.84-3.76-2-4.27-3.93 1.52.84 3 1.8 4.37 2.75-.24.34-.07.88-.18 1.19zm-1.13 1.06c1.13.62 2 1.79 3.2 2.07.62-4.66.45-15 .45-15h-6.56c-1.46.11-.56 2-1.57 2.69-.23.17-.79.34-1-.11a1.3 1.3 0 0 1 .62-1.12c.17-.45.39-1.12 0-1.51A2 2 0 0 0 306 43a1.75 1.75 0 0 0-.79 1 1.65 1.65 0 0 0 .56 1.85 1.91 1.91 0 0 1-.73 1.24 1 1 0 0 0 .28 1.23c.63 3.62 3.68 7.26 7.18 8.05zM329.11 29.79a.78.78 0 0 0-.95-.51 3.68 3.68 0 0 0-.67 4c0 .84 2 1.68.78 2.24a7.1 7.1 0 0 1-2.13-1.74 3.3 3.3 0 0 1 .34-2.52c.28-.67-.11-1.29.39-1.85-.34-.11-.5-.39-.79-.56a2.39 2.39 0 0 0-2.13.62c-.11.56.45.45.79.51.06.45-.79.05-.61.62l.61.28a2.31 2.31 0 0 1-1.29.73 2.4 2.4 0 0 1-1.63-1.4l.34-.28c.05-.67-.73-.45-1.07-.67-.06.39-.67.45-.62 1 .84.73 1.4 2 2.35 2.58a4.5 4.5 0 0 1-.56.39c-.27.17-.84.17-.84-.34-.73-.28-.39.62-1 .67.17.45-.11.62.05 1.06l.51.06c.79-.84 1.79-.5 2.75-1.07l.61 1.07-.84.23c-.67.5.62 1 0 1.46-.39.39-.84-.11-1-.45-.68-.23-.34.67-.9.67-.39.51.45.45.22 1a.9.9 0 0 0 .51.28c.39-.78 1.35-.56 2-.9.39-.05.95-.67.5-1 .33.05.61-.23.84.05-.33 1.24 1.4.9 1.34 1.85-.17-.05-.22-.33-.5-.22-.39.5-.51 1 0 1.46.62-.28 1.46-.84 1.63-1.57s-.56-.79-1-1.12a4.34 4.34 0 0 1 .17-.84c.33.23.62.56 1.06.51a.79.79 0 0 0 .56-1.12 4.18 4.18 0 0 1-1.34-4.32c.11-.28.22-.9.73-.73.62.62-.33 1.12-.28 1.74 0 .45.45.62.73.9.22.06.67.23.73-.17-.79-.56-.67-1.62-.56-2.52"/><path class="a" d="M314.52 35.11c-.22 0-.17.29-.17.45.11.51.68.45 1 .62a2.65 2.65 0 0 0 1.12-2c-.34-.17-.9.12-1.12-.28.28-.06.67-.34.67-.67-1.12-1.57-3.31-.34-5-.79.45-.84 1.79-.05 2.41-.67.17-.17 0-.45-.17-.5-.84.45-1.91.28-2.7.67a.58.58 0 0 0 .23 1c1.57.34 3.42-.67 4.65.34l-.17.22c-2.13-.56-4.37.34-6.39-.17-.62-.11.11-.4 0-.73h-.34c-.5-.67-1.46-.33-2-.51-.45.39.33.62 0 1.07a.34.34 0 0 1-.61.17c-.39-.28.05-.56 0-.9-.23-.45-.56.05-.9-.23-.28.11-.34.45-.4.67s.34.45.56.56c.17.62 1 1 .84 1.51-.17.11-.56.51-.73 0-.45-.17-.61.39-.95.51-.06.45.22.56.5.84a8.77 8.77 0 0 0 2.69-.79c.28.23.28-.17.51-.28 1.17-.22 2.24-.9 3.53-.73-.17.11.06.51-.28.51-.51.06-.9.56-1.4.28-.34-.06-.51.28-.45.56-.06.5.51.28.79.39.62-.62 1.85-.45 2.69-.39-.62.62-1.74.11-2.47.67a.62.62 0 0 0 .22.79c1.52.39 3.2-.45 4.71.22.12.06.05.28-.05.34-2.3-.5-4.54.39-6.79-.28a.43.43 0 0 0 .11-.56h-.28c-.45-.73-1.4-.28-2-.39-.11.51.34 1-.11 1.29-.73-.12-.34-.73-.56-1.12-.28.06-.61-.22-.95.06a2.63 2.63 0 0 0 0 1c.67.23.84 1.07 1.51 1.4l-.28.34c-.23.28-.62.05-.79-.17-.34.22-1 .33-.79.9s.9.28 1.35.28c.79.05 1.35-.73 2-.5a8.76 8.76 0 0 1 3.7-1.18c.46 0 .06.39.06.62a12.21 12.21 0 0 1-1.91.22c0 .23-.34.51 0 .67.78.39 1.74-.28 2.69-.06 1.24.12.06-1 1.18-1.28.67.22 1.4-.17 2 .33 0 .78-.56 0-.9.17-.17.05-.11.23-.11.39-.11.62.62.45 1 .67a2.88 2.88 0 0 0 1.06-2c-.39.06-.79.12-1.06-.22.28-.11.89-.33.67-.84-1.23-1.12-3.2-.39-4.71-.5l-.43-.3.22-.17c.62-.39 1.91.28 2.14-.67 0-.33-.45-.17-.56-.17 0-.23.06-.45-.05-.56.45-1.12 1.68-.39 2.52-.39.11.17.28.33.06.5-.39.17-.51-.28-.84-.23M388.33 34.66c0 .23.28.28.44.34 1.35-1.74 1.58-4 1.63-6.39-.23-1.68-.51-3.54-1.91-4.54-.23 0-.34.22-.34.45 2.08 2.91 1.29 7.12.17 10.15M380.37 22.21l.78.56c-.23.34-.67.34-1.07.39 0-.23.28-.56.28-1m-1.91.56c.11-.28.17-.62.51-.79l.11.9zm.51-1.68c-1 0-1.12 1-1.68 1.46a2.11 2.11 0 0 0 1.68 1 3.38 3.38 0 0 0 3.42-.78c-1.12-.51-1.96-1.85-3.38-1.63zM34.29 123.29v-1.95c-4.64 0-7.54-1.07-7.54-6v-33c9.18 0 11.36 1.65 12.21 8.88h2.16V78.11H0v13.18h2.15c.85-7.24 3-8.88 12.21-8.88v33c0 4.89-2.9 6-7.54 6v1.95h27.47M74.08 101.61v13.76c0 4.38-2.37 5.84-6.18 6v2H92v-2c-4.38 0-6.09-1.08-6.09-6V86c0-4.89 1.71-6 6.09-6v-2H67.91v2c3.81.13 6.18 1.58 6.18 6v12H58.56V86c0-4.38 2.37-5.84 6.17-6v-2H42.5v2c3 .63 4.22 1.08 4.22 6v29.34c0 4.89-1.71 6-6.09 6v2h24.1v-2c-3.81-.12-6.17-1.59-6.17-6v-13.73h15.52M132.11 123.29v-13.41h-1.58c-2.54 9.65-5.58 10.23-9.77 10.23h-5.58c-2.67 0-3.18-.89-3.18-3.3v-15.27c6.75.11 11.46-.75 11.89 5.67h1.71v-14.4h-1.71c-.43 5.63-5.41 5.08-11.89 5.08v-16.6h7.11c7.24 0 10.35 2.79 11 9.65h1.39V78.11H94.23v2c4.38 0 6.09 1.08 6.09 6v29.34c0 4.89-1.71 6-6.09 6v2h37.88M155.63 123.54h1.28a2.71 2.71 0 0 1 2.5-2.18c2.53 0 4.67 3 14.4 3 6.31 0 14.22-4.69 14.22-15.29 0-15.5-24.81-12.83-24.81-23.29 0-3.87 3.57-5.71 7.55-5.71 5.92 0 10.09 4.51 11.93 10.28h1.37V78.11h-1.93c-.32 1-.53 1.62-1.49 1.62-2.25 0-4.06-2.78-10.57-2.78-7.93 0-16.17 3.42-16.17 13.37 0 16.62 25.13 14.33 25.13 24.74 0 3.38-3.89 6.2-8.55 6.2a14.31 14.31 0 0 1-13.58-11.48h-1.79l.51 13.77M487 123.29v-1.83c-3.75 0-5.23-2.36-5.23-7.24v-27.3c0-4.88 1-6.82 4.57-6.82v-2h-21.13v2c3.58 0 4.63 1.94 4.63 6.82v27.29c0 4.88-1.49 7.24-5.29 7.24v1.83H487M517.57 123.29l14-36.29v27.22c0 5.4-1 6.68-6.1 7.24v1.83h23.78v-1.83c-5.71-.57-6.1-2.36-6.1-7.24V87.35c0-6.06 1-6.38 6.1-7.25v-2h-18.52l-11.13 29.43-10.93-29.42h-18.48v2c4.32 0 6 2.36 6 7.25v27.56c0 4.88-.89 5.77-6 6.55v1.83h16.15v-1.83c-5.88-.89-6.1-1.66-6.1-6.55v-26L514 123.29h3.53M590.28 123.29v-13.41h-1.58c-2.54 9.65-5.58 10.23-9.77 10.23h-5.58c-2.67 0-3.17-.89-3.17-3.3v-15.27c6.75.11 11.45-.75 11.88 5.67h1.71v-14.4H582c-.42 5.63-5.41 5.08-11.88 5.08v-16.6h7.11c7.24 0 10.34 2.79 11 9.65h1.4V78.11H552.4v2c4.38 0 6.1 1.08 6.1 6v29.51c0 4.88-1.72 6-6.1 6v1.78h37.88M595.84 123.54h1.28a2.68 2.68 0 0 1 2.49-2.16c1.31 0 7.27 3 14.4 3 6.31 0 14.22-4.69 14.22-15.29 0-15.5-24.81-12.83-24.81-23.29 0-3.87 3.57-5.71 7.55-5.71 5.92 0 10.1 4.51 11.93 10.28h1.37V78.11h-1.93c-.32 1-.54 1.62-1.5 1.62-2.25 0-4.07-2.78-10.57-2.78-7.93 0-16.16 3.42-16.16 13.37 0 16.62 25.13 14.33 25.13 24.74 0 3.38-3.89 6.2-8.56 6.2a14.31 14.31 0 0 1-13.58-11.48h-1.8l.51 13.77M456.33 123.29v-1.95c-4.64 0-7.55-1.07-7.55-6v-33c9.18 0 11.36 1.65 12.21 8.88h2.16V78.11H422v13.18h2.15c.85-7.24 3-8.88 12.21-8.88v33c0 4.89-2.89 6-7.54 6v1.95h27.48M236.57 80.1c2.54 0 3.4.63 5.61 3.3v31.93c0 4.88-2.24 6-6.89 6v2h18.22v-2c-5 0-7.23-1.08-7.23-6V90.11h.13L272 123.29h5.35V87.07c0-4.89 1.6-6.63 6.09-7v-2h-15.65v2c4.49.87 5.45 2.07 5.45 7v19h-.12l-20.83-27.96h-32.58v2c4.06.13 6 2 6 6v22.11c0 8.37-2.72 11.54-9.56 11.54-4.32 0-9.52-2-9.52-8.76V86.07c0-4.89 1.71-6 6.09-6v-2h-23.77v2c4.38 0 6.09 1.08 6.09 6v24c0 10.79 7.49 14.42 17.77 14.42 11.26 0 17.21-3.95 17.21-14.55V86.07c0-4.89 2.07-6 6.55-6M303.51 81.34c11.87-1.39 16.68 7.95 16.68 18.22 0 14.92-3.95 20.27-12.51 20.27-2.81 0-4.17-1-4.17-4.69v-33.8m-11.76 34c0 4.88-1.71 6-6.09 6v2h22.54c14.21 0 23.86-5.92 23.86-22.53s-9.65-22.65-23.86-22.65h-22.54v2c4.38 0 6.09 1.08 6.09 6z"/><path class="a" d="M353.65 105.45h-11.11L348.1 89l5.56 16.42m22.46 15.89c-2.82 0-4.74-1.41-5.88-4.2l-14.45-40.48-8.23 2.14-12.79 36.54c-1.85 4.76-4.32 5.78-8.17 6v2h18v-2c-3.87 0-6.43-1.2-6.43-2.86a9.85 9.85 0 0 1 .83-3.55l2.31-5.58h13.45l2.94 6.59a9.58 9.58 0 0 1 .7 3 2.34 2.34 0 0 1-2.6 2.35h-3.49v2h48.39v-2c-4.37 0-7-1.08-7-6V102l10.69-17c2.67-4.07 4.38-4.49 8.13-4.82v-2h-16.31v2c2.55 0 4.33.7 4.33 2.47a8.76 8.76 0 0 1-1.33 4l-7.27 10.9-6.41-11c-.83-1.59-1.78-3.3-1.78-4.44s1-2 3.55-2v-2h-24v2c2.47.45 5.34.12 7.48 3.42L382.25 102v13.36c0 4.85-2.79 5.96-6.14 5.98z"/></svg>