<svg xmlns="http://www.w3.org/2000/svg" width="239.01" height="83.98" viewBox="0 0 239.01 83.98"><defs><style>.a{fill:rgba(255,255,255,.3)}</style></defs><path class="a" d="M38.68 34.5V30a7.45 7.45 0 0 1-2.83-1.55l-1.12.63v22.15l4-2.28zM40.66 16c0-1.28-1.81-2.37-4-2.37s-4 1.09-4 2.37 1.81 2.37 4 2.37 4-1.08 4-2.37zM38.68 19.7a7.89 7.89 0 0 1-4 0v2.09h4zM40.7 28.77a6.12 6.12 0 0 0 6-5.43H34.75a6.12 6.12 0 0 0 5.95 5.43zM40.26 45.17V48l.12-.07a1.57 1.57 0 0 0 0-2.71z"/><path class="a" d="M71.61 19L39.87.64a6 6 0 0 0-5.41 0L2.71 19A6 6 0 0 0 0 23.66v36.66A6 6 0 0 0 2.71 65l31.74 18.34a6 6 0 0 0 5.41 0L71.61 65a6 6 0 0 0 2.71-4.69V23.66A6 6 0 0 0 71.61 19zM48.26 46.6A8.73 8.73 0 0 1 44 54.11l-3.69 2.13v14.89a7.27 7.27 0 0 1-7.11-.06v-2.59a8.69 8.69 0 0 1-1.32-15.59l1.32-.76V30l-.12.07a1.57 1.57 0 0 0 0 2.71l.12.07v1.82l-.92-.53a3.18 3.18 0 0 1-1.55-2.71 3.18 3.18 0 0 1 1.55-2.71l2.53-1.43a7.91 7.91 0 0 1-.64-1l-.14.08-2.31 1.34a4.34 4.34 0 0 0 0 7.51l1.49.86v1.83l-2.27-1.31a6 6 0 0 1-3-5.13 6 6 0 0 1 3-5.13l2.6-1.51a8 8 0 0 1-.27-1.22l-3 1.71a7.11 7.11 0 0 0 0 12.29l2.88 1.67v1.83l-3.69-2.13a8.73 8.73 0 0 1-4.31-7.5 8.73 8.73 0 0 1 4.31-7.5l3.69-2.13v-2.8a3.62 3.62 0 0 1-2-3c0-2.22 2.43-4 5.53-4s5.53 1.74 5.53 4a3.62 3.62 0 0 1-2 3v2.74h8v.67a7.71 7.71 0 0 1-7.55 7.85h-.44V37L44 39.09a8.73 8.73 0 0 1 4.31 7.5z"/><path class="a" d="M43.14 40.45l-2.89-1.67v1.37l2.27 1.31a6 6 0 0 1 3 5.13 6 6 0 0 1-3 5.13L34 56.67a4.34 4.34 0 0 0-.84 6.73v-3.07a3.18 3.18 0 0 1 1.5-2.67l8.5-4.91a7.11 7.11 0 0 0 0-12.29z"/><path class="a" d="M30.33 60.37a6 6 0 0 1 3.3-5.37l8.12-4.69a4.34 4.34 0 0 0 0-7.51l-1.49-.8v1.36l.92.53a3.18 3.18 0 0 1 1.55 2.71 3.18 3.18 0 0 1-1.55 2.71l-8.7 5a7.11 7.11 0 0 0 .66 12.42v-1.32a5.92 5.92 0 0 1-2.81-5.04z"/><path class="a" d="M34.73 60.35v9.84a5.88 5.88 0 0 0 4 0V57.16L35.55 59a1.58 1.58 0 0 0-.82 1.35zM94.2 29.16c0-.56.14-.69.69-.69h.2c.56 0 .69.14.69.69V35c0 1.4.77 1.95 2.24 1.95s2.23-.54 2.23-1.95v-5.84c0-.56.14-.69.69-.69h.21c.56 0 .69.14.69.69V35c0 2.37-1.43 3.44-3.83 3.44-2.55 0-3.82-1.15-3.82-3.44zM105.23 34.68c0 1.46.63 2.28 2.46 2.28a5 5 0 0 0 1.95-.32c.32-.14.6 0 .6.5v.23c0 .47-.18.62-.62.78a5.65 5.65 0 0 1-2 .3c-2.72 0-4.06-1.16-4.06-3.77v-2.42c0-2.61 1.36-3.93 4.06-3.93a5 5 0 0 1 1.9.32c.54.23.63.3.63.78v.23c0 .54-.12.68-.62.5a5.27 5.27 0 0 0-1.95-.35c-1.69 0-2.4.77-2.4 2.45zM111.89 29.16c0-.56.14-.69.69-.69h.2c.56 0 .69.14.69.69v7.05a.52.52 0 0 0 .59.57h3.22c.54 0 .68.14.68.68v.14c0 .54-.14.68-.68.68h-3.67c-1.21 0-1.72-.51-1.72-1.72zM123.62 29c0-.41.11-.51.51-.51h.15c.41 0 .51.11.51.51v8.79c0 .41-.11.51-.51.51h-.15c-.41 0-.51-.11-.51-.51zM128.06 37.8c0 .41-.08.48-.48.48h-.17c-.38 0-.48-.08-.48-.48v-4.29c0-1.89 1.06-2.82 3.15-2.82s3.14 1 3.14 2.82v4.29c0 .41-.08.48-.48.48h-.18c-.41 0-.48-.08-.48-.48v-4.29c0-1.21-.47-1.75-2-1.75s-2 .56-2 1.75zM134.82 37.47c0-.38.12-.47.48-.39a8.3 8.3 0 0 0 2.22.3c1.16 0 1.64-.21 1.64-.86 0-.48-.26-.74-1-1.09l-1.84-.88c-1-.47-1.41-.92-1.41-2 0-1.31.85-1.9 2.67-1.9a5.62 5.62 0 0 1 1.89.29c.36.12.45.21.45.56v.14c0 .38-.14.47-.48.36a6 6 0 0 0-1.89-.29c-1.1 0-1.53.24-1.53.85 0 .42.27.75.8 1l1.92.88c1 .48 1.51 1 1.51 2 0 1.34-.91 1.95-2.85 1.95a8 8 0 0 1-2.13-.29c-.38-.11-.48-.24-.48-.56zM141.25 31.43c0-.35.09-.42.41-.47l.86-.12.17-1.56c0-.32.11-.41.45-.41h.11c.32 0 .41.09.41.41v1.56h2.45c.38 0 .47.09.47.47v.14c0 .38-.09.47-.47.47h-2.45v3.83c0 1.16.48 1.6 1.39 1.6a4.92 4.92 0 0 0 1.34-.15c.35-.07.45 0 .45.39v.14c0 .3-.09.44-.47.54a5.21 5.21 0 0 1-1.31.15q-2.54 0-2.54-2.67v-3.84h-.86c-.35 0-.41-.06-.41-.41zM149.49 28.52a.71.71 0 0 1-.72.72.73.73 0 0 1-.75-.72.74.74 0 0 1 .75-.74.73.73 0 0 1 .72.74zm-1.3 2.81c0-.38.08-.48.48-.48h.17c.38 0 .48.11.48.48v6.47c0 .41-.11.48-.48.48h-.17c-.41 0-.48-.08-.48-.48zM150.61 31.43c0-.35.09-.42.41-.47l.86-.12.17-1.56c0-.32.11-.41.45-.41h.11c.32 0 .41.09.41.41v1.56h2.45c.38 0 .47.09.47.47v.14c0 .38-.09.47-.47.47H153v3.83c0 1.16.48 1.6 1.39 1.6a4.92 4.92 0 0 0 1.34-.15c.35-.07.45 0 .45.39v.14c0 .3-.09.44-.47.54a5.21 5.21 0 0 1-1.31.15q-2.54 0-2.54-2.67v-3.84H151c-.35 0-.41-.06-.41-.41zM158.41 35.61c0 1.19.5 1.75 2 1.75s2-.54 2-1.75v-4.29c0-.38.11-.48.48-.48h.17c.41 0 .48.11.48.48v4.29c0 1.83-.92 2.82-3.14 2.82s-3.16-.94-3.16-2.82v-4.29c0-.38.11-.48.48-.48h.17c.41 0 .48.11.48.48zM164.59 31.43c0-.35.09-.42.41-.47l.86-.12.17-1.56c0-.32.11-.41.45-.41h.11c.32 0 .41.09.41.41v1.56h2.45c.38 0 .47.09.47.47v.14c0 .38-.09.47-.47.47H167v3.83c0 1.16.48 1.6 1.39 1.6a4.92 4.92 0 0 0 1.34-.15c.35-.07.45 0 .45.39v.14c0 .3-.09.44-.47.54a5.21 5.21 0 0 1-1.31.15q-2.54 0-2.54-2.67v-3.84H165c-.35 0-.41-.06-.41-.41zM177.42 34.52c0 .38-.14.47-.54.47h-4.56v.45c0 1.37.68 1.92 2.36 1.92a7.65 7.65 0 0 0 2.05-.29c.36-.11.48 0 .48.39v.14c0 .32-.06.42-.47.54a7.14 7.14 0 0 1-2.07.29c-2.37 0-3.49-.92-3.49-3.16v-1.4c0-2.13 1.06-3.19 3.19-3.19s3.1 1 3.1 3a5.58 5.58 0 0 1-.05.84zm-5.1-.48h4.08v-.5c0-1.22-.68-1.84-2-1.84s-2 .62-2 1.84zM183 35.26v-1.4c0-2.11 1.1-3.17 3.32-3.17s3.29 1.1 3.29 3.17v1.4c0 2.11-1.1 3.17-3.29 3.17-2.32 0-3.32-1.1-3.32-3.17zm5.48-1.4c0-1.45-.51-2.1-2.16-2.1s-2.19.65-2.19 2.1v1.4c0 1.45.54 2.1 2.19 2.1s2.16-.65 2.16-2.1zM190.57 31.43c0-.35.09-.42.41-.47l.86-.12v-1.12c0-1.56.84-2.34 2.54-2.34a6.34 6.34 0 0 1 1.15.12c.38.08.47.17.47.54v.14c0 .38-.11.47-.47.39a5.23 5.23 0 0 0-1.1-.12c-1 0-1.45.39-1.45 1.19v1.19h2.38c.38 0 .47.09.47.47v.14c0 .38-.09.47-.47.47H193v5.89c0 .41-.11.48-.48.48h-.17c-.41 0-.48-.08-.48-.48v-5.89H191c-.35 0-.41-.06-.41-.41zM95.38 50.88V55c0 .41-.11.51-.51.51h-.15c-.41 0-.51-.11-.51-.51v-8.8c0-.41.11-.51.51-.51h.15c.41 0 .51.11.51.51v3.58H100V46.2c0-.41.11-.51.51-.51h.15c.41 0 .51.11.51.51V55c0 .41-.11.51-.51.51h-.15c-.41 0-.51-.11-.51-.51v-4.12zM109.29 51.74c0 .38-.14.47-.54.47h-4.56v.45c0 1.37.68 1.92 2.36 1.92a7.65 7.65 0 0 0 2.05-.29c.36-.11.48 0 .48.39v.14c0 .32-.06.42-.47.54a7.14 7.14 0 0 1-2.07.29c-2.37 0-3.49-.92-3.49-3.16v-1.4c0-2.13 1.06-3.19 3.19-3.19s3.1 1 3.1 3a5.77 5.77 0 0 1-.05.84zm-5.1-.48h4.08v-.5c0-1.22-.68-1.84-2-1.84s-2 .62-2 1.84zM116.63 53.27c0 1.68-1 2.39-3.16 2.39-1.74 0-2.84-.69-2.84-2.27s1-2.2 3.08-2.2h1.78v-.91c0-1-.69-1.37-2-1.37a7.23 7.23 0 0 0-1.66.17c-.36.08-.48 0-.48-.38v-.12c0-.35.09-.44.45-.51a7.87 7.87 0 0 1 1.63-.15c2.11 0 3.17.78 3.17 2.37zm-1.13-1.19h-1.77c-1.34 0-2 .36-2 1.31s.56 1.28 1.69 1.28c1.39 0 2-.32 2-1.45zM118.31 45.41c0-.41.08-.48.48-.48h.21c.38 0 .48.08.48.48v8c0 .77.26 1.15.77 1.15h.07c.38 0 .47 0 .47.39V55c0 .38-.07.5-.42.56a1.5 1.5 0 0 1-.27 0c-1 0-1.75-.62-1.75-2zM121.17 48.65c0-.35.09-.42.41-.47l.86-.12.17-1.56c0-.32.11-.41.45-.41h.11c.32 0 .41.09.41.41v1.56H126c.38 0 .47.09.47.47v.14c0 .38-.09.47-.47.47h-2.45V53c0 1.16.48 1.6 1.39 1.6a5 5 0 0 0 1.34-.15c.35-.08.45 0 .45.39v.14c0 .3-.09.44-.47.54a5.21 5.21 0 0 1-1.31.15q-2.54 0-2.54-2.67v-3.87h-.86c-.35 0-.41-.06-.41-.41zM128.07 45.41c0-.41.11-.48.48-.48h.17c.41 0 .48.08.48.48v3.52a2.63 2.63 0 0 1 2.37-1c1.86 0 2.79.88 2.79 2.64V55c0 .41-.08.48-.48.48h-.18c-.41 0-.48-.08-.48-.48v-4.32c0-1.19-.53-1.71-1.93-1.71s-2.08.57-2.08 2V55c0 .41-.08.48-.48.48h-.17c-.38 0-.48-.08-.48-.48zM136 51c0-2 1.07-3.13 3.37-3.13a4 4 0 0 1 1.33.2c.36.12.45.23.45.57v.15c0 .38-.09.48-.45.36a3.84 3.84 0 0 0-1.3-.21c-1.69 0-2.26.66-2.26 2.07v1.46c0 1.52.68 2.07 2.36 2.07a4.16 4.16 0 0 0 1.36-.2c.35-.12.45 0 .45.38v.15c0 .32-.1.44-.48.54a4.58 4.58 0 0 1-1.41.2c-2.31 0-3.41-1-3.41-3.13zM148.13 53.27c0 1.68-1 2.39-3.16 2.39-1.74 0-2.84-.69-2.84-2.27s1-2.2 3.08-2.2H147v-.91c0-1-.69-1.37-2-1.37a7.23 7.23 0 0 0-1.66.17c-.36.08-.48 0-.48-.38v-.12c0-.35.09-.44.45-.51a7.87 7.87 0 0 1 1.63-.15c2.11 0 3.17.78 3.17 2.37zm-1.13-1.2h-1.77c-1.34 0-2 .36-2 1.31s.56 1.28 1.69 1.28c1.39 0 2-.32 2-1.45zM150.9 55c0 .41-.08.48-.48.48h-.17c-.38 0-.48-.08-.48-.48v-4.5a2.3 2.3 0 0 1 2.58-2.61 4.45 4.45 0 0 1 .48 0c.38 0 .45.15.45.53v.15c0 .38-.09.45-.47.39h-.47c-1.09 0-1.45.51-1.45 1.6zM160.15 51.74c0 .38-.14.47-.54.47h-4.56v.45c0 1.37.68 1.92 2.36 1.92a7.65 7.65 0 0 0 2.05-.29c.36-.11.48 0 .48.39v.14c0 .32-.06.42-.47.54a7.14 7.14 0 0 1-2.07.29c-2.37 0-3.49-.92-3.49-3.16v-1.4c0-2.13 1.06-3.19 3.19-3.19s3.1 1 3.1 3a5.59 5.59 0 0 1-.05.84zm-5.1-.48h4.08v-.5c0-1.22-.68-1.84-2-1.84s-2 .62-2 1.84zM167.32 50.94v2.75c0 .5.21.71.71.71h4c.38 0 .47.09.47.47V55c0 .38-.09.47-.47.47h-4.27c-1.15 0-1.63-.5-1.63-1.63v-6.52c0-1.13.48-1.63 1.63-1.63H172c.38 0 .47.09.47.47v.17c0 .38-.09.47-.47.47h-4c-.5 0-.71.21-.71.71v2.34h4.12c.38 0 .47.09.47.47v.17c0 .38-.09.47-.47.47zM175.2 55c0 .41-.08.48-.48.48h-.17c-.38 0-.48-.08-.48-.48v-4.27c0-1.89 1.06-2.82 3.15-2.82s3.14 1 3.14 2.82V55c0 .41-.08.48-.48.48h-.18c-.41 0-.48-.08-.48-.48v-4.27c0-1.21-.47-1.75-2-1.75s-2 .56-2 1.75zM188.24 50.7q0 2.63-3.13 2.63a6.85 6.85 0 0 0-1.6.12.45.45 0 0 0-.36.45c0 .21.12.35.38.42a8.64 8.64 0 0 0 1.59.09 5 5 0 0 1 2.58.47 1.73 1.73 0 0 1 .72 1.6 2 2 0 0 1-.74 1.8 4.64 4.64 0 0 1-2.57.51 4.75 4.75 0 0 1-2.61-.51 1.81 1.81 0 0 1-.71-1.59 1.78 1.78 0 0 1 .85-1.62 1 1 0 0 1-.62-1q0-1 1.22-1.18A2.13 2.13 0 0 1 182 50.7v-.18c0-1.65 1.16-2.61 3.14-2.61a3.87 3.87 0 0 1 1.56.3l.86-.77c.26-.23.38-.23.62 0l.11.11c.24.23.24.35 0 .59l-.68.69a2.2 2.2 0 0 1 .66 1.69zm-4.61 4.64a1.26 1.26 0 0 0-.71 1.24c0 1 .56 1.24 2.19 1.24s2.17-.26 2.17-1.28-.56-1.12-2.17-1.12a11.6 11.6 0 0 1-1.48-.09zm3.46-4.82c0-1.07-.67-1.6-2-1.6s-2 .53-2 1.6v.18c0 1.09.48 1.63 2 1.63s2-.54 2-1.63zM191.27 45.73a.71.71 0 0 1-.72.72.73.73 0 0 1-.75-.72.74.74 0 0 1 .75-.74.73.73 0 0 1 .72.74zM190 48.54c0-.38.08-.48.48-.48h.17c.38 0 .48.11.48.48V55c0 .41-.11.48-.48.48h-.17c-.41 0-.48-.08-.48-.48zM194.21 55c0 .41-.08.48-.48.48h-.17c-.38 0-.48-.08-.48-.48v-4.27c0-1.89 1.06-2.82 3.15-2.82s3.14 1 3.14 2.82V55c0 .41-.08.48-.48.48h-.18c-.41 0-.48-.08-.48-.48v-4.27c0-1.21-.47-1.75-2-1.75s-2 .56-2 1.75zM207.24 51.74c0 .38-.14.47-.54.47h-4.56v.45c0 1.37.68 1.92 2.36 1.92a7.65 7.65 0 0 0 2.05-.29c.36-.11.48 0 .48.39v.14c0 .32-.06.42-.47.54a7.14 7.14 0 0 1-2.07.29c-2.37 0-3.49-.92-3.49-3.16v-1.4c0-2.13 1.06-3.19 3.19-3.19s3.1 1 3.1 3a5.77 5.77 0 0 1-.05.84zm-5.1-.48h4.08v-.5c0-1.22-.68-1.84-2-1.84s-2 .62-2 1.84zM215 51.74c0 .38-.14.47-.54.47h-4.56v.45c0 1.37.68 1.92 2.36 1.92a7.65 7.65 0 0 0 2.05-.29c.36-.11.48 0 .48.39v.14c0 .32-.06.42-.47.54a7.14 7.14 0 0 1-2.07.29c-2.37 0-3.49-.92-3.49-3.16v-1.4c0-2.13 1.06-3.19 3.19-3.19s3.1 1 3.1 3a5.77 5.77 0 0 1-.05.84zm-5.1-.48h4.1v-.5c0-1.22-.68-1.84-2-1.84s-2 .62-2 1.84zM217.82 55c0 .41-.08.48-.48.48h-.17c-.38 0-.48-.08-.48-.48v-4.5a2.3 2.3 0 0 1 2.58-2.61 4.45 4.45 0 0 1 .48 0c.38 0 .45.15.45.53v.15c0 .38-.09.45-.47.39h-.47c-1.09 0-1.45.51-1.45 1.6zM222.85 45.73a.71.71 0 0 1-.72.72.73.73 0 0 1-.75-.72.74.74 0 0 1 .75-.74.73.73 0 0 1 .72.74zm-1.3 2.81c0-.38.08-.48.48-.48h.17c.38 0 .48.11.48.48V55c0 .41-.11.48-.48.48h-.2c-.41 0-.48-.08-.48-.48zM225.78 55c0 .41-.08.48-.48.48h-.17c-.38 0-.48-.08-.48-.48v-4.27c0-1.89 1.06-2.82 3.15-2.82s3.14 1 3.14 2.82V55c0 .41-.08.48-.48.48h-.18c-.41 0-.48-.08-.48-.48v-4.27c0-1.21-.47-1.75-2-1.75s-2 .56-2 1.75zM238.81 50.7q0 2.63-3.13 2.63a6.85 6.85 0 0 0-1.6.12.45.45 0 0 0-.36.45c0 .21.12.35.38.42a8.64 8.64 0 0 0 1.59.09 5 5 0 0 1 2.58.47 1.73 1.73 0 0 1 .72 1.6 2 2 0 0 1-.74 1.8 4.64 4.64 0 0 1-2.57.51 4.75 4.75 0 0 1-2.61-.51 1.81 1.81 0 0 1-.71-1.59 1.78 1.78 0 0 1 .85-1.62 1 1 0 0 1-.62-1q0-1 1.22-1.18a2.13 2.13 0 0 1-1.27-2.2v-.18c0-1.65 1.16-2.61 3.14-2.61a3.87 3.87 0 0 1 1.56.3l.86-.77c.26-.23.38-.23.62 0l.11.11c.24.23.24.35 0 .59l-.68.69a2.2 2.2 0 0 1 .66 1.69zm-4.61 4.64a1.26 1.26 0 0 0-.71 1.24c0 1 .56 1.24 2.19 1.24s2.17-.26 2.17-1.28-.56-1.12-2.17-1.12a11.6 11.6 0 0 1-1.47-.09zm3.46-4.82c0-1.07-.67-1.6-2-1.6s-2 .53-2 1.6v.18c0 1.09.48 1.63 2 1.63s2-.54 2-1.63z"/></svg>