<svg xmlns="http://www.w3.org/2000/svg" viewBox="0 0 121.42 121.42"><title>chainring</title><path d="M92.85 33.2l.41-3A1.06 1.06 0 0 0 92.1 29l-3 .34a1.06 1.06 0 0 1-1.18-1l-.09-3a1.06 1.06 0 0 0-1.35-1l-2.94.83a1.06 1.06 0 0 1-1.33-.82l-.59-3a1.06 1.06 0 0 0-1.5-.76l-2.76 1.3a1.06 1.06 0 0 1-1.45-.59l-1.11-2.93a1.06 1.06 0 0 0-1.6-.5l-2.51 1.74a1.06 1.06 0 0 1-1.53-.34l-1.53-2.64a1.06 1.06 0 0 0-1.63-.22l-2.19 2.13a1.06 1.06 0 0 1-1.56-.08l-1.94-2.35a1.06 1.06 0 0 0-1.68 0l-1.81 2.46a1.06 1.06 0 0 1-1.55.17l-2.3-2a1.06 1.06 0 0 0-1.65.32l-1.42 2.77a1.06 1.06 0 0 1-1.5.43l-2.6-1.59a1.06 1.06 0 0 0-1.57.59l-.91 2.91a1.06 1.06 0 0 1-1.41.67l-2.83-1.14a1.06 1.06 0 0 0-1.45.84l-.42 3a1.06 1.06 0 0 1-1.28.89l-3-.66a1.06 1.06 0 0 0-1.29 1.07l.09 3A1.06 1.06 0 0 1 30.61 31l-3-.16a1.06 1.06 0 0 0-1.1 1.26l.58 3a1.06 1.06 0 0 1-.93 1.26l-3 .34a1.06 1.06 0 0 0-.88 1.43l1 2.87a1.06 1.06 0 0 1-.7 1.39l-2.94.84a1.06 1.06 0 0 0-.64 1.52l1.53 2.64a1.06 1.06 0 0 1-.46 1.49l-2.76 1.31a1.06 1.06 0 0 0-.36 1.64l1.94 2.35a1.06 1.06 0 0 1-.21 1.55l-2.51 1.74a1.06 1.06 0 0 0-.09 1.67l2.3 2a1.06 1.06 0 0 1 0 1.56l-2.19 2.13a1.06 1.06 0 0 0 .19 1.67L19 68.1a1.06 1.06 0 0 1 .3 1.53l-1.81 2.46A1.06 1.06 0 0 0 18 73.7l2.83 1.15a1.06 1.06 0 0 1 .55 1.46L20 79a1.06 1.06 0 0 0 .72 1.51l3 .66a1.06 1.06 0 0 1 .78 1.35l-.9 2.91a1.06 1.06 0 0 0 1 1.38l3 .16a1.06 1.06 0 0 1 1 1.2l-.41 3a1.06 1.06 0 0 0 1.17 1.2l3-.34a1.06 1.06 0 0 1 1.18 1l.09 3a1.06 1.06 0 0 0 1.35 1l2.94-.83a1.06 1.06 0 0 1 1.33.82l.59 3a1.06 1.06 0 0 0 1.5.76l2.76-1.3a1.06 1.06 0 0 1 1.45.59l1.08 2.85a1.06 1.06 0 0 0 1.6.5l2.51-1.74a1.06 1.06 0 0 1 1.53.34l1.53 2.64a1.06 1.06 0 0 0 1.66.23l2.19-2.13a1.06 1.06 0 0 1 1.56.08l1.95 2.35a1.06 1.06 0 0 0 1.68 0l1.81-2.46a1.06 1.06 0 0 1 1.55-.17l2.3 2a1.06 1.06 0 0 0 1.65-.32l1.38-2.72a1.06 1.06 0 0 1 1.5-.43l2.6 1.59a1.06 1.06 0 0 0 1.57-.59l.91-2.91a1.06 1.06 0 0 1 1.41-.67l2.83 1.14a1.06 1.06 0 0 0 1.45-.84l.42-3A1.06 1.06 0 0 1 85.5 95l3 .66a1.06 1.06 0 0 0 1.29-1.07l-.09-3a1.06 1.06 0 0 1 1.12-1.09l3 .16A1.06 1.06 0 0 0 95 89.34l-.58-3a1.06 1.06 0 0 1 .93-1.26l3-.34a1.06 1.06 0 0 0 .88-1.43l-1.07-2.86a1.06 1.06 0 0 1 .7-1.39l2.94-.84a1.06 1.06 0 0 0 .63-1.55L100.89 74a1.06 1.06 0 0 1 .46-1.49l2.76-1.31a1.06 1.06 0 0 0 .36-1.64l-1.94-2.35a1.06 1.06 0 0 1 .21-1.55l2.51-1.66a1.06 1.06 0 0 0 .09-1.67l-2.3-2a1.06 1.06 0 0 1 0-1.56l2.19-2.13a1.06 1.06 0 0 0-.19-1.67l-2.6-1.6a1.06 1.06 0 0 1-.3-1.53l1.81-2.46a1.06 1.06 0 0 0-.46-1.61l-2.83-1.15a1.06 1.06 0 0 1-.55-1.46l1.37-2.72a1.06 1.06 0 0 0-.72-1.51l-3-.66a1.06 1.06 0 0 1-.76-1.41l.9-2.91a1.06 1.06 0 0 0-1-1.38l-3-.16a1.06 1.06 0 0 1-1.05-1.21zm-3.93 56.41a40.38 40.38 0 1 1 .73-57.08 40.44 40.44 0 0 1-.73 57.08z" fill="#c0c4cc"/><ellipse cx="60.71" cy="60.71" rx="39.49" ry="39.45" fill="none" stroke="#a8aeb2" stroke-miterlimit="10" stroke-width="2"/><path d="M104.1 22.14l.43-2.92A1.11 1.11 0 0 0 103.3 18l-2.93.36a1.11 1.11 0 0 1-1.24-1.13l.08-2.95a1.11 1.11 0 0 0-1.37-1.11l-2.84.67a1.11 1.11 0 0 1-1.37-1l-.27-2.94a1.11 1.11 0 0 0-1.52-.9l-2.75 1a1.11 1.11 0 0 1-1.48-.8L87 6.37a1.11 1.11 0 0 0-1.6-.74L82.77 7a1.11 1.11 0 0 1-1.56-.62l-1-2.78a1.11 1.11 0 0 0-1.68-.55l-2.39 1.69a1.11 1.11 0 0 1-1.63-.42l-1.3-2.65a1.11 1.11 0 0 0-1.73-.34l-2.2 2a1.11 1.11 0 0 1-1.67-.22L66 .6a1.11 1.11 0 0 0-1.76-.13l-2 2.21a1.11 1.11 0 0 1-1.68 0L58.72.4A1.11 1.11 0 0 0 57 .48l-1.72 2.43a1.11 1.11 0 0 1-1.67.18l-2.15-2a1.11 1.11 0 0 0-1.74.29L48.36 4a1.11 1.11 0 0 1-1.64.38l-2.38-1.76a1.11 1.11 0 0 0-1.69.5l-1 2.76a1.11 1.11 0 0 1-1.65.57L37.45 5a1.11 1.11 0 0 0-1.62.7l-.7 2.87a1.11 1.11 0 0 1-1.5.76l-2.72-1.11a1.11 1.11 0 0 0-1.52.89L29 12a1.11 1.11 0 0 1-1.39.94l-2.81-.74a1.11 1.11 0 0 0-1.4 1.07v2.95a1.11 1.11 0 0 1-1.27 1.1l-2.92-.43A1.11 1.11 0 0 0 18 18.12l.32 2.88a1.11 1.11 0 0 1-1.13 1.24l-2.95-.08a1.11 1.11 0 0 0-1.11 1.37l.71 2.86a1.11 1.11 0 0 1-1 1.37l-2.94.27a1.11 1.11 0 0 0-.9 1.55l1 2.76a1.11 1.11 0 0 1-.8 1.48l-2.88.63a1.11 1.11 0 0 0-.7 1.55L7 38.65a1.11 1.11 0 0 1-.62 1.56l-2.78 1a1.11 1.11 0 0 0-.55 1.68l1.68 2.42a1.11 1.11 0 0 1-.42 1.63l-2.65 1.3a1.11 1.11 0 0 0-.34 1.73l2 2.2a1.11 1.11 0 0 1-.22 1.67L.6 55.42a1.11 1.11 0 0 0-.13 1.76l2.21 2a1.11 1.11 0 0 1 0 1.68L.4 62.71a1.11 1.11 0 0 0 .08 1.76l2.43 1.67a1.11 1.11 0 0 1 .18 1.67L1.07 70a1.11 1.11 0 0 0 .29 1.74L4 73.07a1.11 1.11 0 0 1 .38 1.64l-1.76 2.38a1.11 1.11 0 0 0 .5 1.69l2.76 1a1.11 1.11 0 0 1 .57 1.58L5 84a1.11 1.11 0 0 0 .7 1.62l2.87.7a1.11 1.11 0 0 1 .76 1.5l-1.11 2.69a1.11 1.11 0 0 0 .9 1.49l2.93.35a1.11 1.11 0 0 1 .95 1.43l-.78 2.85A1.11 1.11 0 0 0 13.27 98h3a1.11 1.11 0 0 1 1.1 1.27l-.43 2.92a1.11 1.11 0 0 0 1.23 1.26l2.93-.36a1.11 1.11 0 0 1 1.24 1.13l-.08 2.95a1.11 1.11 0 0 0 1.37 1.11l2.86-.71a1.11 1.11 0 0 1 1.37 1l.27 2.94a1.11 1.11 0 0 0 1.5.93l2.76-1.05a1.11 1.11 0 0 1 1.48.8l.63 2.88a1.11 1.11 0 0 0 1.6.74l2.61-1.38a1.11 1.11 0 0 1 1.56.62l1 2.78a1.11 1.11 0 0 0 1.68.55l2.42-1.68a1.11 1.11 0 0 1 1.63.42l1.3 2.65a1.11 1.11 0 0 0 1.73.34l2.2-2a1.11 1.11 0 0 1 1.67.22l1.61 2.47a1.11 1.11 0 0 0 1.76.13l2-2.21a1.11 1.11 0 0 1 1.68 0l1.76 2.28a1.11 1.11 0 0 0 1.76-.08l1.67-2.43a1.11 1.11 0 0 1 1.67-.18l2.15 2a1.11 1.11 0 0 0 1.74-.29l1.37-2.61a1.11 1.11 0 0 1 1.64-.38l2.38 1.74a1.11 1.11 0 0 0 1.69-.5l1-2.76a1.11 1.11 0 0 1 1.62-.51l2.6 1.41a1.11 1.11 0 0 0 1.62-.7l.7-2.87a1.11 1.11 0 0 1 1.5-.76l2.73 1.12a1.11 1.11 0 0 0 1.52-.89l.35-2.93a1.11 1.11 0 0 1 1.39-.94l2.85.78a1.11 1.11 0 0 0 1.4-1.07v-3a1.11 1.11 0 0 1 1.27-1.1l2.92.43a1.11 1.11 0 0 0 1.26-1.23l-.36-2.93a1.11 1.11 0 0 1 1.13-1.24l2.95.08a1.11 1.11 0 0 0 1.11-1.37l-.76-2.79a1.11 1.11 0 0 1 1-1.37l2.94-.27a1.11 1.11 0 0 0 .93-1.5l-1.05-2.76a1.11 1.11 0 0 1 .8-1.48l2.88-.63a1.11 1.11 0 0 0 .74-1.6l-1.38-2.61a1.11 1.11 0 0 1 .62-1.56l2.78-1a1.11 1.11 0 0 0 .55-1.68l-1.68-2.42a1.11 1.11 0 0 1 .42-1.63l2.65-1.3a1.11 1.11 0 0 0 .34-1.73l-2-2.2a1.11 1.11 0 0 1 .22-1.67l2.49-1.59a1.11 1.11 0 0 0 .13-1.76l-2.21-2a1.11 1.11 0 0 1 0-1.68l2.25-1.84a1.11 1.11 0 0 0-.08-1.76l-2.43-1.67a1.11 1.11 0 0 1-.18-1.67l2-2.15a1.11 1.11 0 0 0-.29-1.74l-2.61-1.37a1.11 1.11 0 0 1-.38-1.64l1.74-2.38a1.11 1.11 0 0 0-.5-1.69l-2.76-1A1.11 1.11 0 0 1 115 40l1.44-2.57a1.11 1.11 0 0 0-.7-1.62l-2.87-.7a1.11 1.11 0 0 1-.76-1.5l1.12-2.73a1.11 1.11 0 0 0-.89-1.52l-2.96-.36a1.11 1.11 0 0 1-.94-1.39l.78-2.85a1.11 1.11 0 0 0-1.07-1.4h-2.95a1.11 1.11 0 0 1-1.1-1.22zm14 39.47C107 135.13 13.64 133.94 4.46 60.16a1.22 1.22 0 0 1 0-.33c11-73.53 104.45-72.34 113.62 1.44a1.22 1.22 0 0 1 0 .34z" fill="#c0c4cc"/><path d="M60.92 118.25a57.54 57.54 0 1 1 57.54-57.54 57.6 57.6 0 0 1-57.54 57.54zm0-111.82a54.28 54.28 0 1 0 54.28 54.28A54.35 54.35 0 0 0 60.92 6.43z" fill="#a8aeb2"/><path d="M111.56 51.88a30.18 30.18 0 0 0-5.77-5.94c.28-1 .49-2 .67-2.92a28.11 28.11 0 0 0-.81-14 29.54 29.54 0 0 0-7-11.61 29.79 29.79 0 0 0-8.32-6A29.69 29.69 0 0 0 68 9.84a28 28 0 0 0-5.82 2.62c-.53.31-1 .64-1.56 1-.53-.35-1.06-.68-1.6-1a28.16 28.16 0 0 0-14.47-4.13 29.86 29.86 0 0 0-29.83 29.84 28.19 28.19 0 0 0 1.07 7.77c0 .14.07.29.11.43l-.34.29a28.62 28.62 0 0 0-9.5 13.5 29.86 29.86 0 0 0 19.16 37.6 28.2 28.2 0 0 0 7.7 1.39h.46c.05.15.12.29.18.43a28.62 28.62 0 0 0 9.9 13.19 29.54 29.54 0 0 0 12.5 5.27l.55-3.21a26.31 26.31 0 0 1-11.14-4.7 24.75 24.75 0 0 1-7.25-8.37l-4.48-10.4-2.79 4.37A26.63 26.63 0 0 1 11 81.93a54.56 54.56 0 0 1-2.9-8.79 26.31 26.31 0 0 1 1-12 24.87 24.87 0 0 1 6.29-10.09l5.77-8.21-3-.77a26.58 26.58 0 0 1 7.11-22.3 54.59 54.59 0 0 1 7.47-5.48 26.31 26.31 0 0 1 11.71-2.72 24.72 24.72 0 0 1 11.73 3L56 19.89a30 30 0 0 1 8.6.2l1.23-5.86a26.82 26.82 0 0 1 3.17-1.3 26.44 26.44 0 0 1 19.77 1.35 54.56 54.56 0 0 1 7.52 5.42 26.32 26.32 0 0 1 6.26 10.3 24.8 24.8 0 0 1 .91 11.35l-2.29 11.15 5-2a26.72 26.72 0 0 1 7.58 22.5 54.6 54.6 0 0 1-2.83 8.83 26.3 26.3 0 0 1-7.92 9.1 24.51 24.51 0 0 1-9.81 4.21l-12.78-.68L85 100a24.85 24.85 0 0 1-2.51 4.29 26.46 26.46 0 0 1-16.86 10.54l.57 3.2a29.69 29.69 0 0 0 18.92-11.83 27.43 27.43 0 0 0 3.16-5.6c.23-.55.45-1.11.66-1.69.63 0 1.24-.08 1.85-.13A28.18 28.18 0 0 0 105 93.56a29.54 29.54 0 0 0 8.88-10.26 29.89 29.89 0 0 0-2.28-31.42z" fill="#a8aeb2"/><path d="M106.72 50.25L104 41.93l-28.7 6.81a6.2 6.2 0 0 1-7.62-5.6l-2.05-29.5h-9.84l-2.06 29.44a6.2 6.2 0 0 1-7.62 5.6l-28.5-6.76-2.7 8.32 27.23 11.38A6.2 6.2 0 0 1 45 70.56L29.57 96l7.08 5.14L56 78.58a6.2 6.2 0 0 1 9.41 0l19.35 22.53L91.85 96 76.42 70.63a6.2 6.2 0 0 1 2.91-8.95z" fill="#c0c4cc"/><g fill="#a8aeb2"><path d="M106.71 50.21L104 42l-3.75.89a43 43 0 0 1 2.88 8.84zM17.6 42l-2.68 8.25 3.36 1.4a43 43 0 0 1 2.88-8.8zM65.86 17.55l-.27-3.9h-9.76l-.27 3.9a42.28 42.28 0 0 1 10.3 0zM29.6 96l7 5.1 2.49-2.9a43.49 43.49 0 0 1-7.51-5.46zM84.8 101.09l7-5.1-2-3.26a43.49 43.49 0 0 1-7.51 5.46z"/></g><circle cx="97.57" cy="48.67" r="2.17" transform="translate(48.67 146.13) rotate(-89.87)" fill="#595f72" stroke="#a8aeb2" stroke-miterlimit="10"/><circle cx="83.48" cy="92.04" r="2.17" transform="translate(-8.75 175.3) rotate(-89.87)" fill="#595f72" stroke="#a8aeb2" stroke-miterlimit="10"/><circle cx="37.95" cy="92.04" r="2.17" transform="translate(-54.18 129.77) rotate(-89.87)" fill="#595f72" stroke="#a8aeb2" stroke-miterlimit="10"/><circle cx="60.71" cy="22.65" r="2.17" transform="matrix(0, -1, 1, 0, 37.92, 83.31)" fill="#595f72" stroke="#a8aeb2" stroke-miterlimit="10"/><circle cx="24.1" cy="48.89" r="1.98" transform="translate(-24.85 72.87) rotate(-89.87)" fill="#595f72" stroke="#a8aeb2" stroke-miterlimit="10"/></svg>