<svg xmlns="http://www.w3.org/2000/svg" xmlns:xlink="http://www.w3.org/1999/xlink" viewBox="0 0 684.06 457.54"><defs><linearGradient id="b" x1="196.21" y1="92.2" x2="522.83" y2="92.2" gradientTransform="matrix(1, 0.01, -0.01, 1, -0.16, 9.81)" gradientUnits="userSpaceOnUse"><stop offset=".25" stop-color="#ffcf00"/><stop offset=".43" stop-color="#8ecfb7"/></linearGradient><linearGradient id="a" x1="205.21" y1="95.33" x2="205.21" y2="95.33" gradientTransform="matrix(1, 0.01, -0.01, 1, -0.16, 9.81)" gradientUnits="userSpaceOnUse"><stop offset="0"/><stop offset=".69" stop-color="#ddd" stop-opacity="0"/></linearGradient><linearGradient id="c" x1="513.83" y1="89.08" x2="513.83" y2="89.08" xlink:href="#a"/><linearGradient id="d" x1="278.3" y1="259.29" x2="527.04" y2="259.29" gradientTransform="matrix(1, 0, 0, 1, 0, 0)" xlink:href="#a"/><linearGradient id="e" x1="137.68" y1="128.61" x2="343.05" y2="333.99" gradientTransform="matrix(1, 0.01, -0.01, 1, -0.16, 9.81)" gradientUnits="userSpaceOnUse"><stop offset=".37" stop-color="#ffcf00"/><stop offset=".59" stop-color="#8ecfb7"/></linearGradient><linearGradient id="f" x1="198.49" y1="215.36" x2="51.41" y2="215.36" gradientTransform="matrix(1, 0.01, -0.01, 1, -0.16, 9.81)" gradientUnits="userSpaceOnUse"><stop offset=".33" stop-color="#ffcf00"/><stop offset=".51" stop-color="#8ecfb7"/></linearGradient><linearGradient id="g" x1="502.7" y1="185.81" x2="639.21" y2="322.33" gradientUnits="userSpaceOnUse"><stop offset=".22" stop-color="#8ecfb7"/><stop offset=".39" stop-color="#8ecfb7"/><stop offset=".58" stop-color="#ffcf00"/></linearGradient><linearGradient id="h" x1="56.91" y1="329.5" x2="56.91" y2="329.5" xlink:href="#a"/><linearGradient id="i" x1="192.99" y1="101.22" x2="192.99" y2="101.22" xlink:href="#a"/><linearGradient id="j" x1="288" y1="383.15" x2="288" y2="383.15" xlink:href="#a"/><linearGradient id="k" x1="192.73" y1="79.45" x2="192.73" y2="79.45" xlink:href="#a"/><linearGradient id="l" x1="558.04" y1="139.18" x2="633.03" y2="64.19" gradientUnits="userSpaceOnUse"><stop offset="0"/><stop offset=".82" stop-color="#fff" stop-opacity="0"/></linearGradient></defs><title>frame</title><g style="isolation:isolate"><path d="M334 224l20.13 18.13a3.33 3.33 0 0 1 .25 4.7 3.33 3.33 0 0 1-4.7.25l-8.12-7.31-22.26 24.72a7.6 7.6 0 0 0 .56 10.74l19.07 17.17a7.6 7.6 0 0 0 10.74-.56l50.86-56.49a11.41 11.41 0 0 0 2.61-4.93l2.08-8.79" fill="none" stroke="#c5cdd3" stroke-linecap="round" stroke-miterlimit="10" stroke-width="2.5"/><path fill="none" stroke="#c5cdd3" stroke-linecap="round" stroke-miterlimit="10" stroke-width="3" d="M365.86 274.82l6.16 5.43M386.2 251.69l6.17 5.42"/><path fill="none" stroke-linecap="round" stroke-miterlimit="10" stroke-width="18" stroke="url(#b)" d="M512.5 105.42l-308.67 2.31"/><g opacity=".85" fill="#02142e"><path d="M436 107.71a2.09 2.09 0 0 0-1.85-1.81c1.36-.31 2-1.07 2-2.22-.09-1.32-1.06-2-3.55-2l-5.88.06-1.76 9.14 6.57-.06c2.47-.02 4.58-.91 4.47-3.11zm-6.3-3.83h1.81c.62 0 1.1.09 1.13.64s-.66.73-1.22.74h-2zm1.35 4.77h-2.26l.33-1.7h1.94c.74 0 1.37.09 1.41.77s-.84.92-1.47.93zM438.04 104.12l-1.28 6.65 3.17-.03 1.29-6.65-3.18.03zM441.34 103.38l.35-1.78-3.17.03-.35 1.78 3.17-.03zM450.87 105.6c-.11-1.61-2.65-1.74-4.16-1.72-2 0-3.72.44-4.1 2.21h3c.14-.5.58-.68 1.22-.69.48 0 1 .11 1 .57.05.82-1.38.73-2.27.79-2.38.16-4 .65-3.86 2.4.08 1.26 1.38 1.75 2.81 1.74a3.78 3.78 0 0 0 2.49-.9 1.51 1.51 0 0 0 .15.64h3.11c-.15-.31-.07-.08-.17-.59s.85-3.41.78-4.45zm-5.17 3.75zm.21 0c-.51 0-1-.11-1-.57s.45-.71 1-.75a5.44 5.44 0 0 0 1.66-.31c-.19.99-.57 1.62-1.66 1.63zM461.35 105.53c-.09-1.3-1.37-1.78-2.83-1.76a3.55 3.55 0 0 0-2.51 1l.18-.85h-3.06l-1.29 6.64h3.17l.69-3.52a1.35 1.35 0 0 1 1.45-1.28c.51 0 .91.21.94.63a6 6 0 0 1-.18 1.1l-.61 3h3.17l.76-3.75a5.72 5.72 0 0 0 .12-1.21zM468.13 107.83a1.38 1.38 0 0 1-1.33 1c-.91 0-1.13-.58-1.17-1.2s.23-2.07 1.61-2.09a1.28 1.28 0 0 1 .81.18.72.72 0 0 1 .27.65h3c-.08-1.85-1.85-2.67-4.15-2.64-3.17 0-4.9 1.72-4.75 4 .08 1.24.91 3 4.43 3 2.4 0 3.86-1 4.28-2.85zM481.23 105.34c-.09-1.3-1.37-1.78-2.83-1.76a3.24 3.24 0 0 0-2.4 1l.64-3.34h-3.17l-1.74 9.14h3.17l.69-3.52a1.35 1.35 0 0 1 1.45-1.28c.51 0 .91.21.94.63a6 6 0 0 1-.18 1.1l-.61 3h3.17l.76-3.75a5.72 5.72 0 0 0 .11-1.22zM486.75 102.95l.34-1.78-3.17.03-.35 1.78 3.18-.03zM486.62 103.67l-3.17.03-1.29 6.64 3.17-.03 1.29-6.64z" opacity=".9"/></g><path fill="none" stroke="#8ecfb7" stroke-miterlimit="10" stroke-width="26" d="M517.39 132.22L287.95 386.37"/><g opacity=".85" fill="#02142e"><path d="M378.72 290.53a5.57 5.57 0 0 0-6.88.37h-.05c1.85-3.21 1.56-5.89-.82-7.81-2.73-2.2-5.82-1.51-10.24 3.39L350.27 298 365 317.91l11.7-13c4.44-4.91 6.58-10.71 2.02-14.38zM359.89 296l3.23-3.57c1.11-1.23 2.15-2 3.29-1.06s.26 2.61-.74 3.71l-3.54 3.92zm11.75 5.95l-4 4.46-2.73-3.72 3.45-3.83c1.31-1.45 2.64-2.52 4-1.39s.39 3.22-.72 4.45zM375.46 280l10.68 14.48 5.65-6.26-10.68-14.48-5.65 6.26zM379.94 272.2l-2.86-3.88-5.65 6.26 2.86 3.88 5.65-6.26zM401.44 257.56c-3.34-2.69-8.17 2.05-10.85 5-3.63 4-5.83 8.08-3.06 12l5.31-5.88c-.72-1.18-.29-2.36.85-3.63.86-.95 2-1.77 3-1 1.7 1.36-1.06 4-2.55 5.86-4 4.95-5.89 9-2.26 11.88 2.63 2.11 5.92.44 8.46-2.37 1.66-1.83 3-4.4 2.9-6.4l.06-.06a4 4 0 0 0 1.53.84l5.54-6.13c-.86-.26-.27 0-1.45-.73-.92-.69-5.33-7.65-7.48-9.38zm-2 16.87l.11-.13zm.37-.41c-.91 1-2 1.8-3 1s-.57-2.15.29-3.26a14.45 14.45 0 0 0 2.39-3.81c1.75 2.05 2.27 3.95.36 6.05zM420.16 236.93c-2.71-2.17-5.94-.52-8.54 2.36a9.43 9.43 0 0 0-2.5 6.77l-.06.06-1.32-1.88-5.45 6L413 264.76l5.65-6.26-5.64-7.7c-1.09-1.53-1.68-3.15.11-5.15.91-1 2-1.41 2.92-.7a16.06 16.06 0 0 1 1.82 2.34l4.86 6.69 5.65-6.26-6-8.24a15.22 15.22 0 0 0-2.21-2.55zM436.85 227.82a3.66 3.66 0 0 1-.47 4.37c-1.63 1.8-3.16 1.17-4.46.12s-3.64-4.18-1.19-6.9a3.4 3.4 0 0 1 1.83-1.26 1.92 1.92 0 0 1 1.75.64l5.42-6c-3.76-3.19-8.54-1.19-12.65 3.36-5.65 6.26-5.46 12.69-.77 16.46 2.57 2.07 7.54 3.66 13.82-3.29 4.28-4.74 5.08-9.28 2.13-13.51zM455.58 197.7c-2.71-2.17-5.94-.52-8.54 2.36a8.61 8.61 0 0 0-2.3 6.55l-.06.06-5.38-7.27-5.65 6.26 14.74 19.87 5.65-6.26-5.64-7.7c-1.09-1.53-1.68-3.15.11-5.15.91-1 2-1.41 2.93-.7a16.06 16.06 0 0 1 1.82 2.34l4.86 6.69 5.65-6.26-6-8.24a15.21 15.21 0 0 0-2.19-2.55zM460.83 182.61l-2.86-3.88-5.65 6.26 2.86 3.88 5.65-6.26zM462 184.15l-5.65 6.26 10.68 14.48 5.66-6.26L462 184.15z" opacity=".9"/></g><path style="mix-blend-mode:color-burn" fill="none" stroke-miterlimit="10" stroke-width="26" opacity=".1" stroke="url(#d)" d="M517.39 132.22L287.95 386.37"/><path d="M594.37 63.49a71.23 71.23 0 0 0-50.64 79.17" fill="none" stroke="#333" stroke-linecap="round" stroke-miterlimit="10" stroke-width="2"/><circle cx="46.8" cy="417.28" r="9.21" transform="matrix(1, -0.05, 0.05, 1, -20.31, 2.78)" fill="#595f72"/><path d="M67.77 384.19a1.9 1.9 0 0 0-1.25-.62 1.69 1.69 0 0 0-1.26.42 2.7 2.7 0 0 0-.52.74l-.16.28a4.07 4.07 0 0 1-.69.86 4.08 4.08 0 0 1-.92.59l-.27.12a2.65 2.65 0 0 0-.76.44 1.64 1.64 0 0 0-.52 1.13l-1.14 1a1.66 1.66 0 0 0-1.17.42 2.73 2.73 0 0 0-.52.75l-.16.27a4.18 4.18 0 0 1-.68.86 4.11 4.11 0 0 1-.92.59l-.27.12a2.62 2.62 0 0 0-.77.44 1.64 1.64 0 0 0-.52 1.13l-1.14 1a1.66 1.66 0 0 0-1.17.42 2.7 2.7 0 0 0-.52.74l-.16.28a4.14 4.14 0 0 1-.69.86 4.08 4.08 0 0 1-.92.59l-.27.12a2.63 2.63 0 0 0-.77.44 1.63 1.63 0 0 0-.52 1.13l-1.14 1a1.67 1.67 0 0 0-1.17.42 2.73 2.73 0 0 0-.52.75l-.16.27a4.1 4.1 0 0 1-.68.86 4.06 4.06 0 0 1-.92.59l-.27.12a2.59 2.59 0 0 0-.77.44 1.64 1.64 0 0 0-.52 1.13l-1.14 1a1.67 1.67 0 0 0-1.17.42l-.16.17a.52.52 0 0 0-.09.13 4.32 4.32 0 0 0-.23.38l-.09.1a10.54 10.54 0 0 1-.9.91 9.09 9.09 0 0 1-.86.63l-.53.35a2.54 2.54 0 0 0-.7.64 1.75 1.75 0 0 0-.29 1.38 9 9 0 0 0-.48 1c-.08.2-.16.41-.22.61a1.74 1.74 0 0 0-.8 1.17 2.6 2.6 0 0 0 0 1V415.48c.05.34.09.61.11.88v.11a5.34 5.34 0 0 1 0 .92v.68a2.4 2.4 0 0 0 .06 1 1.73 1.73 0 0 0 .92 1.09 11.13 11.13 0 0 0 .51 1c.11.19.23.37.34.54a1.72 1.72 0 0 0 .42 1.35 2.18 2.18 0 0 0 .72.54l.14.08.34.18a8.41 8.41 0 0 1 .9.51l.24.64a9.26 9.26 0 0 1 .72.59l.26.22.25.24a2.94 2.94 0 0 0 .85.58 2 2 0 0 0 .67.12 1.66 1.66 0 0 0 .75-.18h.06a10.12 10.12 0 0 0 1.06.2l.63.06a1.84 1.84 0 0 0 1.33.5h.05a6.55 6.55 0 0 1 .39-3.58 2.07 2.07 0 0 0-.55-.09h-.1a1.41 1.41 0 0 0-1 .48h-.4a6.85 6.85 0 0 1-.72-.13h-.08a1.43 1.43 0 0 0-.77-.75 1.48 1.48 0 0 0-.61-.09h-.32a1.91 1.91 0 0 1-.77-.27l-.15-.1a2.13 2.13 0 0 1-.56-.58 1.22 1.22 0 0 1-.16-.32 2.46 2.46 0 0 0-.36-.68 1.54 1.54 0 0 0-1-.47c-.08-.12-.17-.25-.24-.38-.13-.25-.26-.49-.36-.71a1.55 1.55 0 0 0 .12-1.07 2.12 2.12 0 0 0-.28-.49l-.07-.1-.14-.21a2 2 0 0 1-.25-.74v-.17a2.27 2.27 0 0 1 .11-.8 1.88 1.88 0 0 1 .15-.33 2.37 2.37 0 0 0 .32-.7 1.52 1.52 0 0 0-.23-1.06c0-.14.1-.28.15-.42a6.13 6.13 0 0 1 .29-.63 1.6 1.6 0 0 0 .73-.36 2.3 2.3 0 0 0 .47-.7l.13-.24a4.11 4.11 0 0 1 .6-.78l.16-.15a4.13 4.13 0 0 1 .78-.56h.06a1.69 1.69 0 0 0 .65-.26l.25-.17.19-.15a1.64 1.64 0 0 0 .52-1.15l1.1-1h.08a1.64 1.64 0 0 0 1.12-.43 2.31 2.31 0 0 0 .47-.7l.13-.24a4.15 4.15 0 0 1 .6-.78l.15-.14a4.12 4.12 0 0 1 .77-.56 3.48 3.48 0 0 1 .4-.18 2.59 2.59 0 0 0 .8-.45 1.64 1.64 0 0 0 .52-1.15l1.1-1h.08a1.63 1.63 0 0 0 1.12-.43 2.25 2.25 0 0 0 .47-.68l.14-.25a4.15 4.15 0 0 1 .6-.78l.15-.14a4.15 4.15 0 0 1 .77-.56 3.67 3.67 0 0 1 .4-.18 2.56 2.56 0 0 0 .8-.45 1.64 1.64 0 0 0 .52-1.15l1.1-1h.08a1.64 1.64 0 0 0 1.12-.43 2.28 2.28 0 0 0 .47-.68l.14-.25a4.13 4.13 0 0 1 .6-.78l.15-.14a4.18 4.18 0 0 1 .77-.56 3.79 3.79 0 0 1 .4-.18 2.56 2.56 0 0 0 .8-.45 1.64 1.64 0 0 0 .52-1.15l1.1-1h.08a1.64 1.64 0 0 0 1.12-.43 2.27 2.27 0 0 0 .47-.68l.14-.25a4.14 4.14 0 0 1 .6-.78l.16-.15a4.15 4.15 0 0 1 .78-.57 3.94 3.94 0 0 1 .4-.18 2.53 2.53 0 0 0 .8-.45 1.65 1.65 0 0 0 .53-1.22 1.9 1.9 0 0 0-.43-1.65z" fill="#636c7c"/><path d="M579.7 70.9c6.28 7.95 6.47 19.68 1.89 28.71s-13.27 15.51-22.74 19.11-19.72 4.6-29.85 4.86M204.07 114.47a112.53 112.53 0 0 0-18.92-3.14c-5.07-.4-10.44-.39-14.88 2.09-6.1 3.42-8.89 10.56-11.24 17.15-3.3 9.28-6.6 18.84-9.9 28.11" fill="none" stroke="#333" stroke-linecap="round" stroke-miterlimit="10" stroke-width="2"/><path d="M124 25.34l6.68 4.66a17 17 0 0 0 13.14 2.77l35-7a17 17 0 0 0 4.18-1.44l18.07-9" fill="none" stroke="#a8aeb2" stroke-miterlimit="10" stroke-width="3"/><path d="M244.11 10.12c-4.37-4.24-10.8-5.45-16.87-6-18.1-1.5-36.24 1.34-54.42 1.38-20.59 0-41.44-3.31-62.07-5.28a45.7 45.7 0 0 0-16.6 1.38l-.51.16A12.23 12.23 0 0 0 98 7.09c2.64 1.87 5.75 2.92 8.77 4.06 5.34 2 10.67 4.42 14.77 8.39a19.62 19.62 0 0 1 5.62 9.9c1.61-.11 3.22-.25 4.81-.42 19.16-2 38-6.28 57.05-9.14a98.3 98.3 0 0 1 14.82-1.37c13.19 0 27 4.6 39.11-.93a5.77 5.77 0 0 0 2.18-1.67c1.77-2.28.48-4.34-1.02-5.79z" fill="#ffce00"/><path d="M106.78 11.16C103.75 10 100.64 9 98 7.09a12.23 12.23 0 0 1-4.37-5.33c-.36.11-.72.21-1 .33-2.44.91-4.91 2.76-5.08 5.36-.14 2.23 1.43 4.16 2.95 5.79 6.37 6.83 13.91 13.1 23 15.33a44.94 44.94 0 0 0 13.73.86 19.62 19.62 0 0 0-5.62-9.9c-4.16-3.96-9.5-6.37-14.83-8.37z" fill="#f12a00"/><path fill="none" stroke="#ddd" stroke-miterlimit="10" stroke-width="13" d="M172.8 31.45l30 98"/><path d="M152 28.11a1.43 1.43 0 0 0-1.07 1.8 9.8 9.8 0 0 0 7.83 7l9.3 1.09 12.29-3.85-.92-3.3a5.67 5.67 0 0 0-3.56-3.81l-4.18-2.4a2.83 2.83 0 0 0-2-.31z" fill="#ccc"/><path d="M486.94 57.33l-.45-1.52a1.42 1.42 0 0 1 1-1.76l16-4.79a1.42 1.42 0 0 1 1.76 1l.45 1.52z" fill="#333"/><path d="M567.28 47.53l-56.13 6.56a2.83 2.83 0 0 1-3-2 2.52 2.52 0 0 0-3.14-1.7l-17.21 5.13a2.52 2.52 0 0 0-1.7 3.14l8.58 28.79c7.48-3 15-2.89 22.43-5.25l-1.29-4.34a2.83 2.83 0 0 1 2.41-3.63l41.2-4.51a1.6 1.6 0 0 1 1.77 1.84l6.33 1 2.89-18.27z" fill="#ffb800"/><circle cx="493.01" cy="76.36" r="5.07" fill="#ffb800"/><circle cx="489.61" cy="65.02" r="5.07" fill="#ffb800"/><circle cx="492.72" cy="76.36" r="2.55" fill="#595f72" stroke="#a8aeb2" stroke-miterlimit="10"/><circle cx="489.32" cy="65.02" r="2.55" fill="#595f72" stroke="#a8aeb2" stroke-miterlimit="10"/><path fill="none" stroke="#ccc" stroke-linecap="round" stroke-miterlimit="10" stroke-width="6" d="M494.39 88.41l22.68-7.15"/><path fill="none" stroke="#c5cdd3" stroke-linecap="round" stroke-miterlimit="10" stroke-width="5" d="M253.75 293.05l7.94-2.08M244.39 258.75l7.95-2.09"/><path d="M67.06 358.06c0 .93-2.07 1.69-2.2 2.59s1.63 2.23 1.38 3.1-2.44 1.09-2.8 1.92 1 2.57.53 3.35-2.64.41-3.2 1.13.3 2.74-.36 3.38-2.65-.28-3.38.27-.41 2.72-1.21 3.17-2.48-1-3.34-.62-1.1 2.52-2 2.75-2.14-1.57-3.06-1.46-1.71 2.15-2.64 2.14-1.69-2.07-2.59-2.2S40 379.21 39.1 379s-1.09-2.44-1.92-2.8-2.57 1-3.35.53-.41-2.64-1.13-3.2-2.74.3-3.38-.36.28-2.65-.27-3.38-2.72-.41-3.17-1.21 1-2.48.62-3.34-2.52-1.1-2.75-2 1.57-2.14 1.46-3.06-2.15-1.71-2.14-2.64 2.07-1.69 2.2-2.59-1.63-2.23-1.38-3.1 2.44-1.09 2.8-1.92-1-2.57-.53-3.35 2.64-.41 3.2-1.13-.3-2.74.36-3.38 2.65.28 3.38-.27.41-2.72 1.21-3.17 2.48 1 3.34.62 1.1-2.52 2-2.75 2.14 1.57 3.06 1.46 1.71-2.15 2.64-2.14 1.69 2.07 2.59 2.2 2.23-1.63 3.1-1.38S52.12 339 53 339.4s2.57-1 3.35-.53.41 2.64 1.13 3.2 2.74-.3 3.38.36-.28 2.65.27 3.38 2.72.41 3.17 1.21-1 2.48-.62 3.34 2.52 1.1 2.75 2-1.57 2.14-1.46 3.06 2.1 1.72 2.09 2.64z" fill="#c0c4cc"/><path fill="none" stroke="#6ec4a1" stroke-linecap="round" stroke-miterlimit="10" stroke-width="19" d="M511.42 102.7l21.35 68.72"/><path fill="none" stroke="#8ecfb7" stroke-miterlimit="10" stroke-width="22" d="M506.6 87.67l21.35 68.73"/><path fill="none" stroke-miterlimit="10" stroke-width="18" stroke="url(#e)" d="M191.55 91.7l91.4 304.88"/><path fill="none" stroke="#8ecfb7" stroke-linecap="round" stroke-miterlimit="10" stroke-width="11" d="M282.95 396.58L62.7 358.08"/><path d="M342.9 398.9V397.18a1.72 1.72 0 0 0 .51-1.25 2.65 2.65 0 0 0-.2-.86l-.1-.3a5.11 5.11 0 0 1-.2-1.08v-.23a7.26 7.26 0 0 1 0-1.06 4.43 4.43 0 0 1 .1-.48 3 3 0 0 0 .13-1 1.7 1.7 0 0 0-.6-1.2c0-.2 0-.41-.08-.61l-.14-1.09a1.75 1.75 0 0 0 .32-1.31 2.65 2.65 0 0 0-.33-.82l-.15-.28a5.12 5.12 0 0 1-.36-1v-.23a7.19 7.19 0 0 1-.11-1.06 4.45 4.45 0 0 1 0-.49 3 3 0 0 0 0-1 1.69 1.69 0 0 0-.78-1.09c-.05-.19-.11-.39-.17-.59l-.3-1.06a1.71 1.71 0 0 0 .11-1.34 2.65 2.65 0 0 0-.45-.76l-.19-.26a5.11 5.11 0 0 1-.51-1l-.08-.22a5.68 5.68 0 0 1-.28-1 4.46 4.46 0 0 1 0-.49 3 3 0 0 0-.16-1 1.69 1.69 0 0 0-.95-1l-.25-.56-.45-1a1.67 1.67 0 0 0-.1-1.34 2.64 2.64 0 0 0-.56-.69l-.23-.23a5.21 5.21 0 0 1-.65-.89l-.12-.19a5.13 5.13 0 0 1-.43-1 4.47 4.47 0 0 1-.11-.47 3 3 0 0 0-.3-.94 1.77 1.77 0 0 0-1.09-.8l-.33-.52-.59-.92a1.74 1.74 0 0 0-.31-1.31 2.63 2.63 0 0 0-.65-.6l-.26-.19a7.47 7.47 0 0 1-.78-.77l-.14-.17a5.15 5.15 0 0 1-.57-.91 4.5 4.5 0 0 1-.18-.45 2.62 2.62 0 0 0-.45-.88 1.82 1.82 0 0 0-1.2-.63l-.4-.47c-.25-.3-.51-.59-.73-.82a1.79 1.79 0 0 0-.5-1.24 2.62 2.62 0 0 0-.73-.5l-.28-.15a6.12 6.12 0 0 1-.9-.63l-.17-.15a5.16 5.16 0 0 1-.69-.82 4.53 4.53 0 0 1-.25-.42 2.58 2.58 0 0 0-.58-.79 1.81 1.81 0 0 0-1.27-.45l-.47-.4-.85-.7a1.8 1.8 0 0 0-.68-1.16 2.61 2.61 0 0 0-.79-.39l-.31-.1a5.15 5.15 0 0 1-1-.49l-.19-.13a5.17 5.17 0 0 1-.81-.71c-.1-.11-.2-.25-.31-.38a3 3 0 0 0-.7-.69 1.8 1.8 0 0 0-1.33-.26l-.52-.33-1-.55a1.82 1.82 0 0 0-.84-1.05 2.16 2.16 0 0 0-.84-.25l-.32-.05a5.14 5.14 0 0 1-1-.34l-.21-.1a6 6 0 0 1-.9-.58 4.39 4.39 0 0 1-.37-.32 3 3 0 0 0-.79-.58 1.79 1.79 0 0 0-1.34-.06l-.57-.23-1-.4a1.83 1.83 0 0 0-1-.92 2.48 2.48 0 0 0-.88-.11h-.32a5.13 5.13 0 0 1-1.08-.19l-.22-.07a7.91 7.91 0 0 1-1-.43 4.42 4.42 0 0 1-.41-.26 3 3 0 0 0-.87-.46 1.74 1.74 0 0 0-1.34.14l-.6-.14-1.07-.25a1.8 1.8 0 0 0-1.12-.76 2.66 2.66 0 0 0-.88 0h-.32a5.12 5.12 0 0 1-1.1 0h-.22a7.93 7.93 0 0 1-1-.27 4.44 4.44 0 0 1-.45-.2 3 3 0 0 0-.93-.32 1.71 1.71 0 0 0-1.3.35h-.62l-1.09-.08a1.79 1.79 0 0 0-1.22-.58 2.66 2.66 0 0 0-.87.16l-.31.09a5.11 5.11 0 0 1-1.09.14H283a8.24 8.24 0 0 1-1.06-.11 4.33 4.33 0 0 1-.47-.13 2.94 2.94 0 0 0-1-.18 1.78 1.78 0 0 0-1.22.52h-1.69a1.78 1.78 0 0 0-1.24-.47 2.49 2.49 0 0 0-.83.2l-.29.1a4.84 4.84 0 0 1-1.05.19h-.22a4.93 4.93 0 0 1-1-.09 4.3 4.3 0 0 1-.46-.13 2.89 2.89 0 0 0-.94-.19 1.73 1.73 0 0 0-1.2.52h-1.68a1.78 1.78 0 0 0-1.24-.47 2.49 2.49 0 0 0-.83.2l-.3.1a4.85 4.85 0 0 1-1.05.19h-.22a4.93 4.93 0 0 1-1-.09 4.29 4.29 0 0 1-.46-.13 2.89 2.89 0 0 0-.94-.19 1.73 1.73 0 0 0-1.2.52h-1.68a1.78 1.78 0 0 0-1.24-.47 2.49 2.49 0 0 0-.83.2l-.3.1a4.84 4.84 0 0 1-1.05.19h-.22a4.92 4.92 0 0 1-1-.09 4.29 4.29 0 0 1-.46-.13 2.89 2.89 0 0 0-.94-.19 1.73 1.73 0 0 0-1.21.52h-1.68a1.77 1.77 0 0 0-1.24-.47 2.49 2.49 0 0 0-.83.2l-.3.1a4.85 4.85 0 0 1-1.05.19h-.22a4.92 4.92 0 0 1-1-.09 4.27 4.27 0 0 1-.46-.13 2.89 2.89 0 0 0-.94-.19 1.73 1.73 0 0 0-1.21.52h-1.68a1.77 1.77 0 0 0-1.24-.47 2.5 2.5 0 0 0-.83.2l-.3.1a4.85 4.85 0 0 1-1.05.19h-.22a4.92 4.92 0 0 1-1-.09 4.27 4.27 0 0 1-.46-.13 2.89 2.89 0 0 0-.94-.19 1.73 1.73 0 0 0-1.21.52h-1.68a1.77 1.77 0 0 0-1.24-.47 2.5 2.5 0 0 0-.83.2l-.3.1a4.85 4.85 0 0 1-1.05.19h-.22a4.92 4.92 0 0 1-1-.09 4.26 4.26 0 0 1-.46-.13 2.88 2.88 0 0 0-.94-.19 1.73 1.73 0 0 0-1.21.52h-1.68a1.77 1.77 0 0 0-1.24-.47 2.5 2.5 0 0 0-.83.2l-.3.1a4.85 4.85 0 0 1-1.06.19h-.22a4.92 4.92 0 0 1-1-.09 4.26 4.26 0 0 1-.46-.13 2.88 2.88 0 0 0-.94-.19 1.74 1.74 0 0 0-1.21.52h-1.68a1.77 1.77 0 0 0-1.23-.47 2.5 2.5 0 0 0-.83.2l-.3.1a4.86 4.86 0 0 1-1.06.19h-.22a4.92 4.92 0 0 1-1-.09 4.26 4.26 0 0 1-.46-.13 2.88 2.88 0 0 0-.94-.19 1.74 1.74 0 0 0-1.21.52h-1.68a1.76 1.76 0 0 0-1.23-.47 2.5 2.5 0 0 0-.83.2l-.3.1a4.86 4.86 0 0 1-1.06.19h-.22a4.92 4.92 0 0 1-1-.09 4.25 4.25 0 0 1-.46-.13 2.88 2.88 0 0 0-.94-.19 1.74 1.74 0 0 0-1.21.52h-1.68a1.76 1.76 0 0 0-1.23-.47 2.51 2.51 0 0 0-.83.2l-.3.1a4.86 4.86 0 0 1-1.06.19h-.22a4.91 4.91 0 0 1-1-.09 4.26 4.26 0 0 1-.46-.13 2.88 2.88 0 0 0-.94-.19 1.74 1.74 0 0 0-1.21.52h-1.68a1.76 1.76 0 0 0-1.23-.47 2.51 2.51 0 0 0-.83.2l-.3.1a4.86 4.86 0 0 1-1.06.19h-.22a4.91 4.91 0 0 1-1-.09 4.25 4.25 0 0 1-.46-.13 2.87 2.87 0 0 0-.94-.19 1.74 1.74 0 0 0-1.21.52h-1.68a1.76 1.76 0 0 0-1.23-.47 2.51 2.51 0 0 0-.83.2l-.3.1a4.87 4.87 0 0 1-1.06.19h-.22a4.91 4.91 0 0 1-1-.09 4.24 4.24 0 0 1-.46-.13 2.87 2.87 0 0 0-.94-.19 1.74 1.74 0 0 0-1.21.52h-1.68a1.76 1.76 0 0 0-1.23-.47 2.51 2.51 0 0 0-.83.2l-.3.1a4.87 4.87 0 0 1-1.06.19h-.22a4.9 4.9 0 0 1-1-.09 4.23 4.23 0 0 1-.46-.13 2.87 2.87 0 0 0-.94-.19 1.75 1.75 0 0 0-1.21.52h-1.68a1.76 1.76 0 0 0-1.23-.47 2.51 2.51 0 0 0-.83.2l-.3.1a4.87 4.87 0 0 1-1.06.19h-.22a4.91 4.91 0 0 1-1-.09 4.24 4.24 0 0 1-.46-.13 2.87 2.87 0 0 0-.94-.19 1.75 1.75 0 0 0-1.21.52L151 338a1.75 1.75 0 0 0-1.23-.47 2.51 2.51 0 0 0-.83.2l-.3.1a4.87 4.87 0 0 1-1.06.19h-.22a4.91 4.91 0 0 1-1-.09 4.23 4.23 0 0 1-.46-.13 2.87 2.87 0 0 0-.94-.19 1.75 1.75 0 0 0-1.21.52h-1.68a1.75 1.75 0 0 0-1.23-.47 2.51 2.51 0 0 0-.84.2l-.3.1a4.87 4.87 0 0 1-1.06.19h-.22a4.9 4.9 0 0 1-1-.09 4.23 4.23 0 0 1-.46-.13 2.87 2.87 0 0 0-.94-.19 1.75 1.75 0 0 0-1.21.52h-1.68a1.75 1.75 0 0 0-1.23-.47 2.51 2.51 0 0 0-.84.2l-.3.1a4.87 4.87 0 0 1-1.06.19h-.22a4.9 4.9 0 0 1-1-.09 4.22 4.22 0 0 1-.46-.13 2.86 2.86 0 0 0-.94-.19 1.75 1.75 0 0 0-1.21.52h-1.68a1.75 1.75 0 0 0-1.23-.47 2.51 2.51 0 0 0-.84.2l-.3.1a4.88 4.88 0 0 1-1.06.19h-.22a4.9 4.9 0 0 1-1-.09 4.21 4.21 0 0 1-.46-.13 2.86 2.86 0 0 0-.94-.19 1.75 1.75 0 0 0-1.21.52h-1.68a1.75 1.75 0 0 0-1.23-.47 2.52 2.52 0 0 0-.84.2l-.3.1a4.88 4.88 0 0 1-1.06.19h-.22a4.9 4.9 0 0 1-1-.09 4.22 4.22 0 0 1-.46-.13 2.86 2.86 0 0 0-.94-.19 1.76 1.76 0 0 0-1.21.52h-1.68a1.75 1.75 0 0 0-1.23-.47 2.52 2.52 0 0 0-.84.2l-.3.1a4.88 4.88 0 0 1-1.06.19h-.22a4.9 4.9 0 0 1-1-.09 4.22 4.22 0 0 1-.46-.13 2.86 2.86 0 0 0-.94-.19 1.76 1.76 0 0 0-1.21.52h-1.68a1.74 1.74 0 0 0-1.23-.47 2.52 2.52 0 0 0-.84.2l-.3.1a4.89 4.89 0 0 1-1.06.19h-.22a4.89 4.89 0 0 1-1-.09 4.19 4.19 0 0 1-.46-.13 2.86 2.86 0 0 0-.94-.19 1.76 1.76 0 0 0-1.21.52h-1.68a1.74 1.74 0 0 0-1.23-.47 2.52 2.52 0 0 0-.84.2l-.3.1a4.89 4.89 0 0 1-1.06.19h-.22a4.9 4.9 0 0 1-1-.09 4.2 4.2 0 0 1-.46-.13 2.86 2.86 0 0 0-.94-.19 1.76 1.76 0 0 0-1.21.52h-1.68a1.74 1.74 0 0 0-1.23-.47 2.52 2.52 0 0 0-.84.2l-.3.1a4.89 4.89 0 0 1-1.06.19h-.22a4.89 4.89 0 0 1-1-.09 4.2 4.2 0 0 1-.46-.13 2.85 2.85 0 0 0-.94-.19 1.76 1.76 0 0 0-1.21.52h-1.68a1.74 1.74 0 0 0-1.23-.47 2.53 2.53 0 0 0-.84.2l-.3.1a4.89 4.89 0 0 1-1.06.19h-.22a4.9 4.9 0 0 1-1-.09 4.2 4.2 0 0 1-.46-.13 2.85 2.85 0 0 0-.94-.19 1.76 1.76 0 0 0-1.22.52H61.6a1.74 1.74 0 0 0-1.23-.47 2.53 2.53 0 0 0-.84.2l-.3.1a4.89 4.89 0 0 1-1.06.19H57.1a4.89 4.89 0 0 1-1-.09 4.2 4.2 0 0 1-.46-.13 2.85 2.85 0 0 0-.94-.19 1.77 1.77 0 0 0-1.22.52H51.8a1.74 1.74 0 0 0-1.23-.47 2.53 2.53 0 0 0-.84.2l-.3.1a4.9 4.9 0 0 1-1.06.19h-.22a4.89 4.89 0 0 1-1-.09 4.19 4.19 0 0 1-.46-.13 2.85 2.85 0 0 0-.94-.19 1.84 1.84 0 0 0-1.25.54H43.16l-.44.07a2 2 0 0 0-1.39-.29 2.73 2.73 0 0 0-.85.4l-.29.17c-.34.18-.69.33-1 .5l-.23.09a6.75 6.75 0 0 1-1.09.29 5.05 5.05 0 0 1-.5.09 3.33 3.33 0 0 0-1 .26 1.84 1.84 0 0 0-.9 1.1l-.55.34-.92.69a1.68 1.68 0 0 0-1.34.47 2.89 2.89 0 0 0-.55.75c-.06.1-.1.21-.16.3a5.89 5.89 0 0 1-.65 1l-.17.2v.05a7.49 7.49 0 0 1-.72.75c-.12.11-.26.21-.41.32a2.47 2.47 0 0 0-.73.75 1.76 1.76 0 0 0-.24 1.39c-.1.19-.19.38-.28.59-.18.37-.35.73-.47 1a2 2 0 0 0-.93 1.09 1.53 1.53 0 0 0-.07.4V353.2c0 .38-.05.77-.08 1.16v.24a5.92 5.92 0 0 1-.28 1.1l-.17.48a3.31 3.31 0 0 0-.26 1 1.72 1.72 0 0 0 .52 1.32v.65a8.57 8.57 0 0 0 .14 1.15 1.77 1.77 0 0 0-.25 1.4 2.93 2.93 0 0 0 .41.85l.17.29a11.29 11.29 0 0 1 .53 1l.09.22c.13.36.22.72.32 1.08 0 .16.06.33.09.51a2.76 2.76 0 0 0 .28 1 1.94 1.94 0 0 0 1.12.88 5 5 0 0 0 .37.53l.69.92a1.8 1.8 0 0 0 .5 1.32 2.17 2.17 0 0 0 .77.53l.31.15a5.84 5.84 0 0 1 1 .64l.19.14a5.86 5.86 0 0 1 .83.76c.11.12.21.27.32.4a3.29 3.29 0 0 0 .77.71 1.69 1.69 0 0 0 1.41.2l.58.28a8.15 8.15 0 0 0 1.07.44 1.82 1.82 0 0 0 1.1.9 2.94 2.94 0 0 0 .94.05h1.76c.38 0 .74.17 1.11.25a5.09 5.09 0 0 1 .49.16 3.34 3.34 0 0 0 1 .25 1.76 1.76 0 0 0 1.25-3 1.77 1.77 0 0 0-1.24-.52 2.46 2.46 0 0 0-.84.15l-.32.09a2.69 2.69 0 0 1-1.11 0 3 3 0 0 1-1-.37l-.25-.16a2.41 2.41 0 0 0-.74-.38 1.67 1.67 0 0 0-1.19.09 6.61 6.61 0 0 1-.93-.38l-.53-.25a1.84 1.84 0 0 0-.72-.94 2.53 2.53 0 0 0-.81-.27 1.76 1.76 0 0 1-.69.78 4.16 4.16 0 0 1-1-.52 3.18 3.18 0 0 1-.69-.86l-.14-.25a4.12 4.12 0 0 0-.43-.71 1.68 1.68 0 0 0-1.09-.51l-.6-.81a3.91 3.91 0 0 1-.33-.47 1.55 1.55 0 0 0-.16-1.18A3.25 3.25 0 0 0 31 365l-.23-.23a2.6 2.6 0 0 1-.58-.94 3.3 3.3 0 0 1-.18-1.08v-.3a2.42 2.42 0 0 0 0-.83 1.74 1.74 0 0 0-.66-1 7 7 0 0 1-.12-1v-.57a1.81 1.81 0 0 0 .46-1.1 2.51 2.51 0 0 0-.15-.84l-.09-.32a3.75 3.75 0 0 1 0-1.11 2.51 2.51 0 0 1 .4-1l.16-.25a3 3 0 0 0 .39-.73 1.54 1.54 0 0 0-.07-1.18 9.31 9.31 0 0 1 .41-.93c.08-.18.16-.35.25-.52a1.73 1.73 0 0 0 1-.71 4 4 0 0 0 .29-.8l.1-.31a3.3 3.3 0 0 1 .53-1 4.11 4.11 0 0 1 .87-.68l.26-.14a2.47 2.47 0 0 0 .73-.41 1.85 1.85 0 0 0 .53-1.06l.82-.61.49-.3a1.65 1.65 0 0 0 1.18-.14 2.48 2.48 0 0 0 .66-.53l.24-.23a3.25 3.25 0 0 1 1-.55 2.58 2.58 0 0 1 1.09-.15h.29a2.61 2.61 0 0 0 .83 0 1.53 1.53 0 0 0 1-.64l.4-.06h1.2a1.66 1.66 0 0 0 1.17.44 3 3 0 0 0 .92-.21l.34-.11a4.86 4.86 0 0 1 1.19-.2 4.77 4.77 0 0 1 1.19.16l.31.09a2.93 2.93 0 0 0 .9.17 1.77 1.77 0 0 0 1.2-.5h1.72a1.74 1.74 0 0 0 1.21.46 3 3 0 0 0 .92-.21l.34-.11a4.86 4.86 0 0 1 1.19-.2 4.77 4.77 0 0 1 1.19.16l.31.09a2.93 2.93 0 0 0 .91.17 1.76 1.76 0 0 0 1.2-.5h1.72a1.74 1.74 0 0 0 1.21.46 3 3 0 0 0 .92-.21l.34-.11a4.85 4.85 0 0 1 1.19-.2 4.78 4.78 0 0 1 1.19.16l.31.09a2.94 2.94 0 0 0 .91.17 1.76 1.76 0 0 0 1.2-.5h1.72a1.74 1.74 0 0 0 1.21.46 3 3 0 0 0 .92-.21l.34-.11a4.85 4.85 0 0 1 1.19-.2 4.77 4.77 0 0 1 1.19.16l.31.09a2.94 2.94 0 0 0 .91.17 1.76 1.76 0 0 0 1.2-.5h1.72a1.74 1.74 0 0 0 1.21.46 3 3 0 0 0 .92-.21L83 342a4.85 4.85 0 0 1 1.19-.2 4.78 4.78 0 0 1 1.19.16l.31.09a2.94 2.94 0 0 0 .91.17 1.76 1.76 0 0 0 1.2-.5h1.72a1.74 1.74 0 0 0 1.21.46 3 3 0 0 0 .92-.21l.34-.11a4.85 4.85 0 0 1 1.19-.2 4.78 4.78 0 0 1 1.19.16l.31.09a2.94 2.94 0 0 0 .91.17 1.76 1.76 0 0 0 1.19-.5h1.72a1.74 1.74 0 0 0 1.21.46 3 3 0 0 0 .92-.21l.34-.11a4.84 4.84 0 0 1 1.19-.2 4.78 4.78 0 0 1 1.19.16l.31.09a2.94 2.94 0 0 0 .91.17 1.76 1.76 0 0 0 1.19-.5h1.72a1.75 1.75 0 0 0 1.21.46 3 3 0 0 0 .92-.21l.34-.11a4.84 4.84 0 0 1 1.19-.2 4.79 4.79 0 0 1 1.19.16l.31.09a2.94 2.94 0 0 0 .91.17 1.75 1.75 0 0 0 1.19-.5h1.72a1.75 1.75 0 0 0 1.21.46 3 3 0 0 0 .92-.21l.34-.11a4.84 4.84 0 0 1 1.19-.2 4.79 4.79 0 0 1 1.19.16l.31.09a2.94 2.94 0 0 0 .91.17 1.75 1.75 0 0 0 1.19-.5h1.72a1.75 1.75 0 0 0 1.21.46 3 3 0 0 0 .92-.21l.34-.11a4.84 4.84 0 0 1 1.19-.2 4.79 4.79 0 0 1 1.19.16l.31.09a2.94 2.94 0 0 0 .91.17 1.75 1.75 0 0 0 1.19-.5h1.72a1.75 1.75 0 0 0 1.21.46 3 3 0 0 0 .92-.21l.34-.11a4.84 4.84 0 0 1 1.19-.2 4.79 4.79 0 0 1 1.19.16l.31.09a3 3 0 0 0 .91.17 1.75 1.75 0 0 0 1.19-.5h1.72a1.75 1.75 0 0 0 1.21.46 3 3 0 0 0 .92-.21l.34-.11a4.84 4.84 0 0 1 1.19-.2 4.8 4.8 0 0 1 1.19.16l.31.09a3 3 0 0 0 .91.17 1.75 1.75 0 0 0 1.19-.5h1.72a1.75 1.75 0 0 0 1.21.46 3 3 0 0 0 .92-.21l.34-.11a4.84 4.84 0 0 1 1.19-.2 4.8 4.8 0 0 1 1.19.16l.31.09a3 3 0 0 0 .91.17 1.75 1.75 0 0 0 1.19-.5h1.72a1.76 1.76 0 0 0 1.21.46 3 3 0 0 0 .92-.21l.34-.11a4.83 4.83 0 0 1 1.19-.2 4.8 4.8 0 0 1 1.19.16l.31.09a3 3 0 0 0 .91.17 1.74 1.74 0 0 0 1.19-.5h1.72a1.76 1.76 0 0 0 1.21.46 3 3 0 0 0 .92-.21l.34-.11a4.83 4.83 0 0 1 1.19-.2 4.8 4.8 0 0 1 1.19.16l.31.09a3 3 0 0 0 .91.17 1.74 1.74 0 0 0 1.19-.5h1.72a1.76 1.76 0 0 0 1.21.46 3 3 0 0 0 .92-.21l.34-.11a4.83 4.83 0 0 1 1.19-.2 4.8 4.8 0 0 1 1.19.16l.31.09a3 3 0 0 0 .91.17 1.74 1.74 0 0 0 1.19-.5h1.72a1.76 1.76 0 0 0 1.21.46A3 3 0 0 0 191 340l.34-.11a4.82 4.82 0 0 1 1.19-.2 4.81 4.81 0 0 1 1.19.16l.31.09a3 3 0 0 0 .91.17 1.74 1.74 0 0 0 1.19-.5h1.72a1.76 1.76 0 0 0 1.21.46 3 3 0 0 0 .91-.21l.34-.11a4.82 4.82 0 0 1 1.19-.2 4.81 4.81 0 0 1 1.19.16l.31.09a3 3 0 0 0 .91.17 1.74 1.74 0 0 0 1.19-.5h1.72a1.76 1.76 0 0 0 1.21.46 3 3 0 0 0 .91-.21l.34-.11a4.83 4.83 0 0 1 1.19-.2 4.81 4.81 0 0 1 1.19.16l.31.09a3 3 0 0 0 .91.17 1.74 1.74 0 0 0 1.19-.5h1.72a1.77 1.77 0 0 0 1.22.46 3 3 0 0 0 .91-.21l.34-.11a4.82 4.82 0 0 1 1.19-.2 4.81 4.81 0 0 1 1.19.16l.31.09a3 3 0 0 0 .91.17 1.73 1.73 0 0 0 1.19-.5h1.72a1.77 1.77 0 0 0 1.22.46 3 3 0 0 0 .91-.21l.34-.11a4.82 4.82 0 0 1 1.19-.2 4.81 4.81 0 0 1 1.19.16l.31.09a3 3 0 0 0 .91.17 1.73 1.73 0 0 0 1.19-.5h1.72a1.77 1.77 0 0 0 1.22.46 3 3 0 0 0 .91-.21l.34-.11a4.82 4.82 0 0 1 1.19-.2 4.82 4.82 0 0 1 1.19.16l.31.09a3 3 0 0 0 .91.17 1.73 1.73 0 0 0 1.19-.5h1.72a1.77 1.77 0 0 0 1.22.46 3 3 0 0 0 .91-.21l.34-.11a4.82 4.82 0 0 1 1.19-.2 4.82 4.82 0 0 1 1.19.16l.31.09a3 3 0 0 0 .91.17 1.73 1.73 0 0 0 1.19-.5h1.72a1.77 1.77 0 0 0 1.22.46 3 3 0 0 0 .91-.21l.34-.11a4.81 4.81 0 0 1 1.19-.2 4.82 4.82 0 0 1 1.19.16l.31.09a3 3 0 0 0 .91.17 1.73 1.73 0 0 0 1.19-.5h1.72a1.77 1.77 0 0 0 1.22.46 3 3 0 0 0 .91-.21l.34-.11a4.81 4.81 0 0 1 1.19-.2 4.82 4.82 0 0 1 1.19.16l.31.09a3 3 0 0 0 .91.17 1.73 1.73 0 0 0 1.19-.5h1.72a1.78 1.78 0 0 0 1.22.46 3 3 0 0 0 .91-.21l.34-.11a4.81 4.81 0 0 1 1.19-.2 4.82 4.82 0 0 1 1.19.16l.31.09a3 3 0 0 0 .91.17 1.72 1.72 0 0 0 1.19-.5h1.71a1.72 1.72 0 0 0 1.2.45 2.94 2.94 0 0 0 .9-.21l.33-.11a3.54 3.54 0 0 1 1.17-.18 4.58 4.58 0 0 1 1.15.22l.3.1a2.78 2.78 0 0 0 .87.21 1.71 1.71 0 0 0 1.2-.39l1.07.08h.61a1.79 1.79 0 0 0 1.11.61 2.88 2.88 0 0 0 .91-.08l.34-.06a3.57 3.57 0 0 1 1.18 0 4.58 4.58 0 0 1 1.11.39l.28.14a2.77 2.77 0 0 0 .83.34 1.7 1.7 0 0 0 1.24-.21l1 .24.59.14a1.76 1.76 0 0 0 1 .78 2.88 2.88 0 0 0 .91.06h.35a3.54 3.54 0 0 1 1.16.18 4.58 4.58 0 0 1 1 .55l.25.18a3 3 0 0 0 .77.46 1.67 1.67 0 0 0 1.26 0l1 .39.57.23a1.71 1.71 0 0 0 .87.92 2.89 2.89 0 0 0 .89.2h.34a3.87 3.87 0 0 1 1.12.36 4.57 4.57 0 0 1 .94.69l.22.22a3.67 3.67 0 0 0 .68.58 1.68 1.68 0 0 0 1.25.17l.93.53.52.33a1.7 1.7 0 0 0 .73 1 2.9 2.9 0 0 0 .86.32 2.81 2.81 0 0 1 .33.1 4.59 4.59 0 0 1 1 .53 4.55 4.55 0 0 1 .83.82l.19.25a2.93 2.93 0 0 0 .58.69 1.7 1.7 0 0 0 1.22.35l.83.67.46.4a1.69 1.69 0 0 0 .57 1.13 3.48 3.48 0 0 0 .8.45l.31.15a4.61 4.61 0 0 1 1 .68 4.26 4.26 0 0 1 .7.93l.14.28a2.82 2.82 0 0 0 .47.77 1.71 1.71 0 0 0 1.16.52c.21.23.46.51.71.8l.4.46a1.68 1.68 0 0 0 .4 1.2 3.45 3.45 0 0 0 .71.58l.28.2a4.63 4.63 0 0 1 .86.81 3.56 3.56 0 0 1 .54 1l.1.3a2.81 2.81 0 0 0 .36.82 1.65 1.65 0 0 0 .43.4l.16.09a1.89 1.89 0 0 0 .36.14h.1l.58.91.33.51a1.73 1.73 0 0 0 .22 1.24 2.85 2.85 0 0 0 .61.68l.25.24a4.63 4.63 0 0 1 .73.92 3.91 3.91 0 0 1 .37 1.11l.05.31a2.79 2.79 0 0 0 .23.87 1.84 1.84 0 0 0 .94.84l.44 1 .25.56a1.83 1.83 0 0 0 0 1.26 2.87 2.87 0 0 0 .5.76l.22.27a4.25 4.25 0 0 1 .59 1 4.59 4.59 0 0 1 .19 1.16v.31a2.78 2.78 0 0 0 .1.89 1.81 1.81 0 0 0 .79 1l.29 1c.06.2.12.4.17.58a1.82 1.82 0 0 0-.18 1.26 2.87 2.87 0 0 0 .39.83l.17.3a3.74 3.74 0 0 1 .42 1.1 4.59 4.59 0 0 1 0 1.17v.31a2.78 2.78 0 0 0 0 .89 1.76 1.76 0 0 0 .63 1.09l.13 1.06c0 .2.06.41.08.6a1.81 1.81 0 0 0-.37 1.21 2.88 2.88 0 0 0 .26.88l.13.32a3.71 3.71 0 0 1 .25 1.15 4.59 4.59 0 0 1-.16 1.16l-.09.3a2.78 2.78 0 0 0-.16.88 1.79 1.79 0 0 0 .46 1.17V398.48a1.84 1.84 0 0 0-.55 1.15 2.87 2.87 0 0 0 .12.91l.08.34a4 4 0 0 1 .08 1.18 4.59 4.59 0 0 1-.33 1.13l-.13.28a2.78 2.78 0 0 0-.3.85 1.81 1.81 0 0 0 .29 1.23l-.19 1.05c0 .2-.07.41-.11.6a1.83 1.83 0 0 0-.71 1 2.87 2.87 0 0 0 0 .91v.35a3.78 3.78 0 0 1-.11 1.18 4.59 4.59 0 0 1-.5 1.06l-.17.26a2.78 2.78 0 0 0-.42.79 1.75 1.75 0 0 0 .09 1.26l-.34 1c-.06.2-.13.39-.19.58a1.79 1.79 0 0 0-.87.93 2.88 2.88 0 0 0-.15.9v.35a3.51 3.51 0 0 1-.29 1.14 4.58 4.58 0 0 1-.65 1l-.21.23a2.91 2.91 0 0 0-.53.72 1.67 1.67 0 0 0-.11 1.26l-.49 1c-.09.19-.19.37-.29.54a1.71 1.71 0 0 0-1 .78 2.89 2.89 0 0 0-.28.87l-.08.34a3.88 3.88 0 0 1-.47 1.08 4.57 4.57 0 0 1-.78.87l-.24.2a3.69 3.69 0 0 0-.65.62 1.68 1.68 0 0 0-.29 1.23l-.62.87-.38.48a1.7 1.7 0 0 0-1.1.63 2.9 2.9 0 0 0-.4.82 2.58 2.58 0 0 1-.13.32 4.59 4.59 0 0 1-.63 1 4.55 4.55 0 0 1-.9.75l-.26.16a2.84 2.84 0 0 0-.74.51 1.7 1.7 0 0 0-.46 1.19c-.21.22-.48.49-.75.76l-.44.42a1.69 1.69 0 0 0-1.18.46 3.55 3.55 0 0 0-.53.75l-.18.29a4.61 4.61 0 0 1-.77.9 4.14 4.14 0 0 1-1 .61l-.29.11a2.82 2.82 0 0 0-.81.4 1.71 1.71 0 0 0-.63 1.11c-.25.19-.55.41-.86.63l-.5.35a1.68 1.68 0 0 0-1.23.29 3.34 3.34 0 0 0-.64.65l-.22.26a4.62 4.62 0 0 1-.89.78 3.53 3.53 0 0 1-1.08.44l-.31.07a2.81 2.81 0 0 0-.85.28 1.76 1.76 0 0 0-.79 1l-1 .49-.54.28a1.73 1.73 0 0 0-1.26.1 2.85 2.85 0 0 0-.73.54l-.26.23a4.64 4.64 0 0 1-1 .64 3.86 3.86 0 0 1-1.14.26h-.31a2.79 2.79 0 0 0-.88.15 1.79 1.79 0 0 0-.48.31l-.13.14a1.88 1.88 0 0 0-.23.31l-.06.08-1 .35-.58.2a1.82 1.82 0 0 0-1.26-.1 2.86 2.86 0 0 0-.81.43l-.29.19a4.57 4.57 0 0 1-1.08.49 4.6 4.6 0 0 1-1.17.08h-.31a2.79 2.79 0 0 0-.9 0 1.83 1.83 0 0 0-1 .7l-1.06.19-.6.11a1.85 1.85 0 0 0-1.23-.3 2.87 2.87 0 0 0-.86.3l-.32.14a4.26 4.26 0 0 1-1.14.32 4.6 4.6 0 0 1-1.17-.1l-.3-.07a2.79 2.79 0 0 0-.89-.12 1.83 1.83 0 0 0-1.15.53H282.3a1.75 1.75 0 0 0-1.19-.46 3 3 0 0 0-.91.19l-.34.1a4.53 4.53 0 0 1-1.18.16 4.35 4.35 0 0 1-1.16-.22l-.3-.1a2.93 2.93 0 0 0-.87-.23 1.72 1.72 0 0 0-1.2.4l-1.06-.09-.6-.06a1.73 1.73 0 0 0-1.08-.62 3.38 3.38 0 0 0-.92 0l-.35.05a4.89 4.89 0 0 1-1.21 0 4.75 4.75 0 0 1-1.14-.34l-.29-.13a2.91 2.91 0 0 0-.87-.3 1.79 1.79 0 0 0-1.27.32l-1.7-.23a1.71 1.71 0 0 0-1.12-.63 3.06 3.06 0 0 0-.94.07l-.35.06a4.88 4.88 0 0 1-1.21 0 4.75 4.75 0 0 1-1.15-.34l.11.59a2.91 2.91 0 0 0-.87-.3 1.79 1.79 0 0 0-1.27.32l-1.7-.23a1.71 1.71 0 0 0-1.12-.63 3.06 3.06 0 0 0-.94.07l-.35.06a4.88 4.88 0 0 1-1.21 0 4.75 4.75 0 0 1-1.15-.34l-.29-.13a2.91 2.91 0 0 0-.87-.3 1.79 1.79 0 0 0-1.26.32l-1.7-.23a1.72 1.72 0 0 0-1.12-.63 3.06 3.06 0 0 0-.94.07l-.35.06a4.88 4.88 0 0 1-1.21 0 4.75 4.75 0 0 1-1.15-.34l-.29-.13a2.91 2.91 0 0 0-.87-.3 1.78 1.78 0 0 0-1.26.32l-1.7-.23a1.72 1.72 0 0 0-1.12-.63 3.06 3.06 0 0 0-.94.07l-.35.06a4.87 4.87 0 0 1-1.21 0 4.75 4.75 0 0 1-1.15-.34l-.29-.13a2.91 2.91 0 0 0-.87-.3 1.78 1.78 0 0 0-1.26.32l-1.7-.23a1.72 1.72 0 0 0-1.12-.63 3.06 3.06 0 0 0-.94.07l-.35.06a4.87 4.87 0 0 1-1.21 0 4.75 4.75 0 0 1-1.15-.34l-.29-.13a2.92 2.92 0 0 0-.87-.3 1.78 1.78 0 0 0-1.26.32l-1.7-.23a1.72 1.72 0 0 0-1.12-.63 3.06 3.06 0 0 0-.94.07l-.35.06a4.87 4.87 0 0 1-1.21 0 4.75 4.75 0 0 1-1.15-.34l-.29-.13a2.92 2.92 0 0 0-.87-.3 1.78 1.78 0 0 0-1.26.32l-1.7-.23a1.72 1.72 0 0 0-1.12-.63 3.06 3.06 0 0 0-.94.07l-.35.06a4.87 4.87 0 0 1-1.21 0 4.76 4.76 0 0 1-1.15-.34l-.29-.13a2.92 2.92 0 0 0-.87-.3 1.78 1.78 0 0 0-1.26.32l-1.7-.23a1.72 1.72 0 0 0-1.12-.63 3.06 3.06 0 0 0-.94.07l-.35.06a4.87 4.87 0 0 1-1.21 0 4.76 4.76 0 0 1-1.15-.34l-.29-.13a2.92 2.92 0 0 0-.87-.3 1.78 1.78 0 0 0-1.26.32l-1.7-.23a1.73 1.73 0 0 0-1.12-.63 3.05 3.05 0 0 0-.94.07l-.35.06a4.87 4.87 0 0 1-1.21 0 4.76 4.76 0 0 1-1.15-.34l-.29-.13a2.92 2.92 0 0 0-.87-.3 1.77 1.77 0 0 0-1.26.32l-1.7-.23a1.73 1.73 0 0 0-1.12-.63 3.05 3.05 0 0 0-.94.07l-.35.06a4.87 4.87 0 0 1-1.21 0 4.76 4.76 0 0 1-1.15-.34l-.29-.13a2.92 2.92 0 0 0-.87-.3 1.77 1.77 0 0 0-1.26.32l-1.7-.23a1.73 1.73 0 0 0-1.12-.63 3.05 3.05 0 0 0-.94.07l-.35.06a4.86 4.86 0 0 1-1.21 0 4.76 4.76 0 0 1-1.15-.34l-.29-.13a2.93 2.93 0 0 0-.87-.3 1.77 1.77 0 0 0-1.26.32l-1.7-.23a1.73 1.73 0 0 0-1.12-.63 3 3 0 0 0-.94.07l-.35.06a4.86 4.86 0 0 1-1.21 0 4.76 4.76 0 0 1-1.15-.34l-.29-.13a2.93 2.93 0 0 0-.87-.3 1.77 1.77 0 0 0-1.26.32l-1.7-.23a1.73 1.73 0 0 0-1.12-.63 3 3 0 0 0-.94.07l-.35.06a4.86 4.86 0 0 1-1.21 0 4.77 4.77 0 0 1-1.15-.34l-.29-.13a2.93 2.93 0 0 0-.87-.3 1.77 1.77 0 0 0-1.26.32l-1.7-.23a1.73 1.73 0 0 0-1.12-.63 3 3 0 0 0-.94.07l-.35.06a4.86 4.86 0 0 1-1.21 0 4.77 4.77 0 0 1-1.15-.34l-.29-.13a2.93 2.93 0 0 0-.87-.3 1.77 1.77 0 0 0-1.26.32l-1.7-.23a1.73 1.73 0 0 0-1.12-.63 3 3 0 0 0-.94.07l-.35.06a4.86 4.86 0 0 1-1.21 0 4.77 4.77 0 0 1-1.15-.34l-.29-.13a2.93 2.93 0 0 0-.87-.3 1.76 1.76 0 0 0-1.26.32l-1.7-.23a1.74 1.74 0 0 0-1.12-.63 3 3 0 0 0-.94.07l-.35.06a4.85 4.85 0 0 1-1.21 0 4.77 4.77 0 0 1-1.15-.34l-.29-.13a2.93 2.93 0 0 0-.87-.3 1.76 1.76 0 0 0-1.26.32l-1.7-.23a1.74 1.74 0 0 0-1.13-.63 3 3 0 0 0-.94.07l-.35.06a4.85 4.85 0 0 1-1.21 0 4.78 4.78 0 0 1-1.15-.34l-.29-.13a2.93 2.93 0 0 0-.87-.3 1.76 1.76 0 0 0-1.26.32l-1.7-.23a1.74 1.74 0 0 0-1.13-.63 3 3 0 0 0-.94.07l-.35.06a4.85 4.85 0 0 1-1.21 0 4.78 4.78 0 0 1-1.15-.34l-.29-.13a2.94 2.94 0 0 0-.87-.3 1.76 1.76 0 0 0-1.26.32l-1.7-.23a1.74 1.74 0 0 0-1.13-.63 3 3 0 0 0-.94.07l-.35.06a4.85 4.85 0 0 1-1.21 0 4.78 4.78 0 0 1-1.15-.34l-.29-.13a2.94 2.94 0 0 0-.87-.3 1.76 1.76 0 0 0-1.26.32l-1.7-.23a1.74 1.74 0 0 0-1.13-.63 3 3 0 0 0-.94.07l-.35.06a4.85 4.85 0 0 1-1.21 0 4.78 4.78 0 0 1-1.15-.34l-.29-.13a2.94 2.94 0 0 0-.87-.3 1.76 1.76 0 0 0-1.26.32l-1.7-.23a1.74 1.74 0 0 0-1.13-.63 3 3 0 0 0-.94.07l-.35.06a4.84 4.84 0 0 1-1.21 0 4.78 4.78 0 0 1-1.15-.34l-.29-.13a2.94 2.94 0 0 0-.87-.3 1.76 1.76 0 0 0-1.26.32l-1.7-.23a1.75 1.75 0 0 0-1.13-.63 3 3 0 0 0-.94.07l-.35.06a4.85 4.85 0 0 1-1.21 0 4.79 4.79 0 0 1-1.15-.34l-.29-.13a2.94 2.94 0 0 0-.87-.3 1.75 1.75 0 0 0-1.26.32l-1.7-.23a1.75 1.75 0 0 0-1.13-.63 3 3 0 0 0-.94.07l-.35.06a4.84 4.84 0 0 1-1.21 0 4.79 4.79 0 0 1-1.15-.34l-.29-.13a2.94 2.94 0 0 0-.87-.3 1.75 1.75 0 0 0-1.26.32l-1.7-.23a1.75 1.75 0 0 0-1.13-.63 3 3 0 0 0-.94.07l-.35.06a4.84 4.84 0 0 1-1.21 0 4.79 4.79 0 0 1-1.15-.34l-.29-.13a3 3 0 0 0-.87-.3 1.75 1.75 0 0 0-1.26.32l-1.7-.23a1.75 1.75 0 0 0-1.13-.63 3 3 0 0 0-.94.07l-.35.06a4.84 4.84 0 0 1-1.21 0 4.79 4.79 0 0 1-1.15-.34l-.29-.13a2.94 2.94 0 0 0-.87-.3 1.76 1.76 0 1 0-.46 3.49 2.51 2.51 0 0 0 .86-.07l.31-.06a4.88 4.88 0 0 1 1.07 0h.24a4.91 4.91 0 0 1 1 .25 4.22 4.22 0 0 1 .43.2 2.87 2.87 0 0 0 .9.33A1.75 1.75 0 0 0 50 427l1.66.22a1.75 1.75 0 0 0 1.15.65 2.51 2.51 0 0 0 .86-.07l.31-.06a4.87 4.87 0 0 1 1.07 0h.22a4.91 4.91 0 0 1 1 .25 4.22 4.22 0 0 1 .43.2 2.86 2.86 0 0 0 .9.33 1.75 1.75 0 0 0 1.28-.33l1.66.22a1.75 1.75 0 0 0 1.15.65 2.51 2.51 0 0 0 .86-.07l.31-.06a4.88 4.88 0 0 1 1.07 0h.22a4.92 4.92 0 0 1 1 .25 4.23 4.23 0 0 1 .43.2 2.86 2.86 0 0 0 .9.33 1.75 1.75 0 0 0 1.28-.33l1.66.22a1.75 1.75 0 0 0 1.14.65 2.52 2.52 0 0 0 .86-.07l.31-.06a4.88 4.88 0 0 1 1.07 0h.22a4.9 4.9 0 0 1 1 .25 4.21 4.21 0 0 1 .43.2 2.86 2.86 0 0 0 .9.33 1.76 1.76 0 0 0 1.28-.33l1.66.22a1.75 1.75 0 0 0 1.14.65 2.52 2.52 0 0 0 .86-.07l.31-.06a4.88 4.88 0 0 1 1.07 0h.22a4.91 4.91 0 0 1 1 .25 4.21 4.21 0 0 1 .43.2 2.86 2.86 0 0 0 .9.33 1.76 1.76 0 0 0 1.28-.33l1.66.22a1.74 1.74 0 0 0 1.14.65 2.52 2.52 0 0 0 .86-.07l.31-.06a4.88 4.88 0 0 1 1.07 0h.22a4.91 4.91 0 0 1 1 .25 4.21 4.21 0 0 1 .43.2 2.86 2.86 0 0 0 .9.33 1.76 1.76 0 0 0 1.28-.33l1.66.22a1.74 1.74 0 0 0 1.14.65 2.52 2.52 0 0 0 .86-.07l.31-.06a4.89 4.89 0 0 1 1.07 0h.22a4.9 4.9 0 0 1 1 .25 4.2 4.2 0 0 1 .43.2 2.85 2.85 0 0 0 .9.33 1.76 1.76 0 0 0 1.28-.33l1.66.22a1.74 1.74 0 0 0 1.14.65 2.52 2.52 0 0 0 .86-.07l.31-.06a4.89 4.89 0 0 1 1.07 0h.22a4.91 4.91 0 0 1 1 .25 4.19 4.19 0 0 1 .43.2 2.85 2.85 0 0 0 .9.33 1.76 1.76 0 0 0 1.28-.33l1.66.22a1.74 1.74 0 0 0 1.14.65 2.52 2.52 0 0 0 .86-.07l.31-.06a4.89 4.89 0 0 1 1.07 0h.22a4.91 4.91 0 0 1 1 .25 4.2 4.2 0 0 1 .43.2 2.85 2.85 0 0 0 .9.33 1.76 1.76 0 0 0 1.28-.33l1.66.22a1.74 1.74 0 0 0 1.14.65 2.53 2.53 0 0 0 .86-.07l.31-.06a4.89 4.89 0 0 1 1.07 0h.22a4.9 4.9 0 0 1 1 .25 4.21 4.21 0 0 1 .43.2 2.85 2.85 0 0 0 .9.33 1.77 1.77 0 0 0 1.28-.33l1.66.22a1.74 1.74 0 0 0 1.14.65 2.53 2.53 0 0 0 .86-.07l.31-.06a4.9 4.9 0 0 1 1.07 0h.22a4.9 4.9 0 0 1 1 .25 4.2 4.2 0 0 1 .43.2 2.85 2.85 0 0 0 .9.33 1.77 1.77 0 0 0 1.28-.33l1.66.22a1.73 1.73 0 0 0 1.14.65 2.53 2.53 0 0 0 .86-.07l.31-.06a4.89 4.89 0 0 1 1.07 0h.22a4.9 4.9 0 0 1 1 .25 4.19 4.19 0 0 1 .43.2 2.85 2.85 0 0 0 .9.33 1.77 1.77 0 0 0 1.28-.33l1.66.22a1.73 1.73 0 0 0 1.14.65 2.53 2.53 0 0 0 .86-.07l.31-.06a4.9 4.9 0 0 1 1.08 0h.22a4.9 4.9 0 0 1 1 .25 4.2 4.2 0 0 1 .43.2 2.84 2.84 0 0 0 .9.33 1.77 1.77 0 0 0 1.28-.33l1.66.22a1.73 1.73 0 0 0 1.14.65A2.53 2.53 0 0 0 161 442l.31-.06a4.9 4.9 0 0 1 1.08 0h.22a4.89 4.89 0 0 1 1 .25 4.18 4.18 0 0 1 .43.2 2.84 2.84 0 0 0 .9.33 1.77 1.77 0 0 0 1.28-.33l1.66.22a1.73 1.73 0 0 0 1.14.65 2.53 2.53 0 0 0 .86-.07l.31-.06a4.91 4.91 0 0 1 1.08 0h.22a4.89 4.89 0 0 1 1 .25 4.19 4.19 0 0 1 .43.2 2.84 2.84 0 0 0 .9.33 1.77 1.77 0 0 0 1.28-.33l1.66.22a1.73 1.73 0 0 0 1.14.65 2.53 2.53 0 0 0 .86-.07l.31-.06a4.91 4.91 0 0 1 1.08 0h.22a4.9 4.9 0 0 1 1 .25 4.18 4.18 0 0 1 .43.2 2.84 2.84 0 0 0 .9.33 1.77 1.77 0 0 0 1.28-.33l1.66.22a1.73 1.73 0 0 0 1.14.65 2.54 2.54 0 0 0 .86-.07l.31-.06a4.91 4.91 0 0 1 1.08 0h.22a4.9 4.9 0 0 1 1 .25 4.2 4.2 0 0 1 .43.2 2.84 2.84 0 0 0 .9.33 1.78 1.78 0 0 0 1.28-.33l1.66.22a1.72 1.72 0 0 0 1.14.65 2.54 2.54 0 0 0 .86-.07l.31-.06a4.91 4.91 0 0 1 1.08 0h.22a4.89 4.89 0 0 1 1 .25 4.19 4.19 0 0 1 .43.2 2.84 2.84 0 0 0 .9.33 1.78 1.78 0 0 0 1.28-.33l1.66.22a1.72 1.72 0 0 0 1.14.65 2.54 2.54 0 0 0 .86-.07l.31-.06a4.91 4.91 0 0 1 1.08 0h.22a4.89 4.89 0 0 1 1 .25 4.17 4.17 0 0 1 .43.2 2.84 2.84 0 0 0 .9.33 1.78 1.78 0 0 0 1.28-.33l1.66.22a1.72 1.72 0 0 0 1.14.65 2.54 2.54 0 0 0 .86-.07l.31-.06a4.92 4.92 0 0 1 1.08 0h.22a4.89 4.89 0 0 1 1 .25 4.17 4.17 0 0 1 .43.2 2.83 2.83 0 0 0 .9.33 1.78 1.78 0 0 0 1.28-.33l1.66.22a1.72 1.72 0 0 0 1.14.65 2.54 2.54 0 0 0 .86-.07l.31-.06a4.92 4.92 0 0 1 1.08 0h.22a4.89 4.89 0 0 1 1 .25 4.17 4.17 0 0 1 .43.2 2.83 2.83 0 0 0 .9.33 1.78 1.78 0 0 0 1.28-.33l1.66.22a1.72 1.72 0 0 0 1.14.65 2.54 2.54 0 0 0 .86-.07l.31-.06a4.92 4.92 0 0 1 1.08 0h.22a4.89 4.89 0 0 1 1 .25 4.16 4.16 0 0 1 .43.2 2.83 2.83 0 0 0 .9.33 1.78 1.78 0 0 0 1.29-.33l1.66.22a1.72 1.72 0 0 0 1.14.65 2.54 2.54 0 0 0 .86-.07l.31-.06a4.92 4.92 0 0 1 1.08 0h.22a4.88 4.88 0 0 1 1 .25 4.16 4.16 0 0 1 .43.2 2.83 2.83 0 0 0 .9.33 1.79 1.79 0 0 0 1.29-.33l1.66.22a1.72 1.72 0 0 0 1.14.65 2.54 2.54 0 0 0 .86-.07l.31-.06a4.92 4.92 0 0 1 1.08 0h.22a4.88 4.88 0 0 1 1 .25 4.16 4.16 0 0 1 .43.2 2.83 2.83 0 0 0 .9.33 1.79 1.79 0 0 0 1.29-.33l1.66.22a1.72 1.72 0 0 0 1.14.65 2.55 2.55 0 0 0 .86-.07l.31-.06a4.92 4.92 0 0 1 1.08 0h.22a4.88 4.88 0 0 1 1 .25 4.16 4.16 0 0 1 .43.2 2.83 2.83 0 0 0 .9.33 1.79 1.79 0 0 0 1.29-.33l1.66.22a1.71 1.71 0 0 0 1.13.65 2.55 2.55 0 0 0 .86-.07l.31-.06a4.92 4.92 0 0 1 1.08 0h.22a4.88 4.88 0 0 1 1 .25 3.64 3.64 0 0 1 .43.2 2.62 2.62 0 0 0 .91.35 1.77 1.77 0 0 0 1.33-.33l.62.07 1.1.1a1.78 1.78 0 0 0 1.22.57 2.55 2.55 0 0 0 .87-.14l.31-.09a5.4 5.4 0 0 1 1.08-.14h.23a5.24 5.24 0 0 1 1.05.13 4.33 4.33 0 0 1 .46.14 2.88 2.88 0 0 0 .94.21 1.75 1.75 0 0 0 1.24-.51H283.71a1.69 1.69 0 0 0 1.28.44 2.65 2.65 0 0 0 .85-.25l.3-.12a5.1 5.1 0 0 1 1.07-.25h.24a5.64 5.64 0 0 1 1.06 0 4.44 4.44 0 0 1 .48.08 3 3 0 0 0 1 .08 1.67 1.67 0 0 0 1.16-.68l.61-.11 1.08-.19a1.69 1.69 0 0 0 1.33.24 2.65 2.65 0 0 0 .8-.37l.28-.16a5.1 5.1 0 0 1 1-.41h.22a5.16 5.16 0 0 1 1.06-.18 4.47 4.47 0 0 1 .49 0 3 3 0 0 0 1-.07 1.69 1.69 0 0 0 1-.85l.58-.2 1-.35a1.68 1.68 0 0 0 1.35 0 2.64 2.64 0 0 0 .74-.49l.25-.2a5.3 5.3 0 0 1 .94-.56l.2-.1a5.13 5.13 0 0 1 1-.34 4.47 4.47 0 0 1 .48-.07 3 3 0 0 0 1-.21 1.77 1.77 0 0 0 .9-1l.55-.28 1-.5a1.73 1.73 0 0 0 1.33-.18A2.63 2.63 0 0 0 313 449l.22-.24a7.38 7.38 0 0 1 .84-.7l.19-.13a5.14 5.14 0 0 1 1-.48 4.49 4.49 0 0 1 .47-.14 2.67 2.67 0 0 0 .92-.36 1.82 1.82 0 0 0 .74-1.13l.5-.36c.32-.22.64-.45.89-.65a1.79 1.79 0 0 0 1.28-.38 2.62 2.62 0 0 0 .56-.68l.18-.26a6.47 6.47 0 0 1 .72-.83l.17-.15a5.15 5.15 0 0 1 .88-.61 4.53 4.53 0 0 1 .45-.2 2.55 2.55 0 0 0 .84-.5 1.81 1.81 0 0 0 .57-1.22l.45-.43c.28-.27.55-.55.78-.78a1.8 1.8 0 0 0 1.22-.56 2.61 2.61 0 0 0 .46-.75l.13-.29a5.15 5.15 0 0 1 .58-.93l.14-.17a5.17 5.17 0 0 1 .78-.73c.12-.09.27-.17.41-.27a3 3 0 0 0 .75-.63 1.8 1.8 0 0 0 .38-1.29l.38-.48.64-.89a1.82 1.82 0 0 0 1.13-.74 2.17 2.17 0 0 0 .33-.82l.08-.31a5.14 5.14 0 0 1 .44-1l.12-.2a6 6 0 0 1 .66-.84 4.41 4.41 0 0 1 .35-.33 3 3 0 0 0 .66-.73 1.79 1.79 0 0 0 .19-1.33c.1-.17.19-.35.29-.54l.5-1a1.83 1.83 0 0 0 1-.9 2.55 2.55 0 0 0 .19-.86v-.32a5.12 5.12 0 0 1 .29-1.06l.09-.21a8.19 8.19 0 0 1 .52-.94 4.43 4.43 0 0 1 .3-.38 3 3 0 0 0 .54-.82 1.71 1.71 0 0 0 0-1.34c.07-.19.13-.39.2-.59l.35-1a1.75 1.75 0 0 0 .86-1 2.66 2.66 0 0 0 .06-.88V413a5.11 5.11 0 0 1 .13-1.09l.06-.22a7 7 0 0 1 .36-1 4.45 4.45 0 0 1 .24-.42 3 3 0 0 0 .42-.89 1.68 1.68 0 0 0-.22-1.32c0-.2.07-.4.11-.61l.19-1.08a1.7 1.7 0 0 0 .69-1.16 2.65 2.65 0 0 0-.07-.88l-.06-.32a5.1 5.1 0 0 1 0-1.1v-.23a6.31 6.31 0 0 1 .2-1 4.45 4.45 0 0 1 .17-.45 3 3 0 0 0 .28-.94 1.68 1.68 0 0 0-.27-1.39z" fill="#636c7c"/><path fill="none" stroke="#ccc" stroke-linecap="round" stroke-miterlimit="10" stroke-width="6" d="M516.79 159.01l22.68-7.15"/><path fill="#aaa" stroke="#ccc" stroke-miterlimit="10" stroke-width="4" d="M539.63 167.44l14.29-2.04"/><path d="M550.33 192.89c.44 1.71.18 3.25 13.16-.07s12-4.55 11.57-6.26-.18-3.25-13.16.07-12 4.55-11.57 6.26z" fill="#333"/><path d="M559.57 183.11a1.79 1.79 0 0 1 1 .59l6.65 7.78a1.81 1.81 0 0 1-1.78 2.94 1.79 1.79 0 0 1-1-.59l-6.65-7.83a1.81 1.81 0 0 1 1.78-2.94m.58-2.51a4.38 4.38 0 0 0-3.84.94 4.39 4.39 0 0 0-.48 6.19l6.65 7.78a4.39 4.39 0 0 0 6.19.48 4.39 4.39 0 0 0 .48-6.19L562.5 182a4.37 4.37 0 0 0-2.34-1.42z" fill="#ccc"/><circle cx="562.43" cy="189.03" r="3" transform="translate(12.15 410.96) rotate(-40.54)" fill="#aaa" stroke="#ccc" stroke-miterlimit="10" stroke-width="2"/><path d="M550.94 164.86a1.93 1.93 0 0 1-1.76-1.29l-6.8-19.47a1.93 1.93 0 1 1 3.65-1.27l6.8 19.47a1.93 1.93 0 0 1-1.89 2.57z" fill="#aaa"/><path fill="none" stroke="#ccc" stroke-miterlimit="10" stroke-width="5" d="M545.03 146.54L557.42 182"/><ellipse cx="551.66" cy="166.16" rx="4.12" ry="9.55" transform="translate(-24.43 158.49) rotate(-16)" fill="#ccc" stroke="#ccc" stroke-miterlimit="10" stroke-width="2"/><path fill="none" stroke="#333" stroke-linecap="round" stroke-miterlimit="10" d="M547.72 145.92l-5.1 1.6"/><path fill="#aaa" stroke="#ccc" stroke-miterlimit="10" stroke-width="4" d="M147.55 184.65l-13.47-5.21"/><path d="M131.62 206.71c-.73 1.61-.74 3.17-12.94-2.35s-11-6.56-10.31-8.17.74-3.17 12.94 2.35 11.03 6.56 10.31 8.17z" fill="#333"/><path d="M124.59 195.43a1.81 1.81 0 0 1 1.08 3.26l-8.23 6.08a1.81 1.81 0 0 1-2.53-.38 1.81 1.81 0 0 1 .38-2.53l8.23-6.08a1.79 1.79 0 0 1 1.07-.35m0-2.58a4.37 4.37 0 0 0-2.6.86l-8.23 6.08a4.39 4.39 0 0 0-.92 6.14 4.39 4.39 0 0 0 6.14.92l8.23-6.08a4.39 4.39 0 0 0 .92-6.14 4.38 4.38 0 0 0-3.53-1.78z" fill="#ccc"/><circle cx="120.47" cy="200.56" r="3" transform="translate(-95.6 110.84) rotate(-36.46)" fill="#aaa" stroke="#ccc" stroke-miterlimit="10" stroke-width="2"/><path fill="#595f72" d="M250.533 320.27l17.548-4.79 2.852 10.448-17.548 4.79z"/><path d="M572.563 54.688l6.33 1.003-2.144 13.541a4.79 4.79 0 0 1-5.48 3.982l-1.59-.252 2.894-18.272-.01-.002z" fill="#ffb800"/><path fill="#ffb800" d="M567.28 47.53l10.55 2.3 1.06 5.87H566.8l.48-8.17z"/><circle cx="613.02" cy="353.78" r="11.66" fill="#333"/><g opacity=".9" fill="#02142e"><path d="M218.73 188.09a2.88 2.88 0 0 0 1.67-3.14c.93 1.67 2.19 2.26 3.68 1.71 1.7-.62 2.22-2.17 1.23-5.44l-2.31-7.71-12.73 1.21 2.62 8.63c1 3.29 3 5.78 5.84 4.74zm2.6-9.78l.72 2.38c.25.82.3 1.48-.41 1.74s-1.22-.58-1.45-1.32l-.79-2.61zm-5.76 3.62l-.9-3 2.37-.22.77 2.55c.29 1 .41 1.84-.46 2.16s-1.52-.67-1.77-1.5zM224.26 189.45l-9.25.87 1.27 4.17 9.25-.87-1.27-4.17zM226.52 193.51l2.48-.23-1.26-4.17-2.48.23 1.26 4.17zM227.28 206.93c2.08-.76 1.27-4.16.67-6.14-.81-2.67-2-4.73-4.5-4.55l1.19 3.92c.71 0 1.12.5 1.38 1.34.19.63.25 1.36-.35 1.58-1.06.39-1.49-1.53-1.92-2.69-1.13-3.07-2.4-5-4.66-4.16-1.63.6-1.77 2.5-1.2 4.37a5.2 5.2 0 0 0 2.06 3 2.08 2.08 0 0 0-.78.45l1.24 4.08c.34-.31.07-.12.71-.45s4.82-.26 6.16-.75zm-6.95-5.36v.08zm.08.28c-.2-.67-.25-1.38.34-1.6s1.11.32 1.37 1a7.46 7.46 0 0 0 1.05 2.07c-1.35.2-2.33-.07-2.76-1.48zM231.43 220.71c1.68-.62 1.81-2.49 1.23-4.41a4.87 4.87 0 0 0-2.33-2.91l1.18-.08-1.22-4-9.25.87 1.27 4.17 4.91-.45a1.86 1.86 0 0 1 2.25 1.42c.2.67.08 1.28-.47 1.48a8.3 8.3 0 0 1-1.52.18l-4.25.37 1.27 4.17 5.24-.45a7.86 7.86 0 0 0 1.69-.36zM231 230.52a1.89 1.89 0 0 1-1.81-1.37c-.36-1.2.32-1.71 1.13-2s2.82-.5 3.37 1.31a1.76 1.76 0 0 1 .07 1.14 1 1 0 0 1-.75.6l1.22 4c2.41-.82 2.8-3.46 1.88-6.5-1.27-4.17-4.16-5.8-7.08-4.72-1.6.59-3.63 2.36-2.22 7 1 3.16 2.75 4.72 5.41 4.54zM239.36 246.83c1.68-.62 1.81-2.49 1.23-4.41a4.45 4.45 0 0 0-2.29-2.76l4.65-.45-1.28-4.21-12.67 1.24 1.27 4.17 4.91-.45a1.86 1.86 0 0 1 2.25 1.42c.2.67.08 1.28-.47 1.48a8.3 8.3 0 0 1-1.52.18l-4.25.37 1.27 4.17 5.24-.45a7.86 7.86 0 0 0 1.66-.3zM244.64 253.17l2.48-.23-1.27-4.17-2.47.23 1.26 4.17zM243.65 253.28l-1.27-4.17-9.25.88 1.27 4.17 9.25-.88z" opacity=".9"/></g><circle cx="571.9" cy="58.95" r="8.5" fill="none" stroke="#333" stroke-linecap="round" stroke-miterlimit="10" stroke-width="4"/><path d="M680.32 77a3.47 3.47 0 0 1-1.14.17 3.47 3.47 0 0 1 .05-6.95 3.46 3.46 0 0 1 1.67.43v-7l2.53-.63-.81-3.52a7.86 7.86 0 0 0-8.12-6.5c-5.2 0-8.3 11.73-9.93 13.9s-15.07 1.8-25 1.89-10.1 3.21-10.1 3.21a37.43 37.43 0 0 0 3.07 6.21 148.21 148.21 0 0 0 13.26 17.27 104.31 104.31 0 0 0 8 8 76.78 76.78 0 0 1 4.87-7.31c3-4 11.91-10.38 16-11.28s8.12-1.53 9.2-4.33a2.91 2.91 0 0 0 .17-.86 2.79 2.79 0 0 0-3.72-2.7z" fill="#333"/><path fill="none" stroke="#333" stroke-linecap="round" stroke-miterlimit="10" stroke-width="16" d="M613.48 143.64l-35.09 8.5"/><path fill="none" stroke="#99e0c3" stroke-linecap="round" stroke-miterlimit="10" stroke-width="17" d="M571.81 58.82l58.23 15.98"/><path d="M571.81 58.82L630 74.8a8.5 8.5 0 0 1 5.42 4.53L644.37 98a8.5 8.5 0 0 1-1 8.88l-26.36 33.74a8.5 8.5 0 0 1-4.72 3.05l-35.09 8.5" fill="none" stroke="#99e0c3" stroke-miterlimit="10" stroke-width="17"/><path fill="none" stroke-linecap="round" stroke-miterlimit="10" stroke-width="11" stroke="url(#f)" d="M191.53 113.47L52.56 340"/><path d="M48.87 337.75s-5.58 8.5-8.5 10.5-7.08 8.42-5 12.67 4.83 5.75 3.92 7.58-2.75 5.25-2.75 5.25l6.23 1.25s4.18-6.17 3.18-8.25a33.46 33.46 0 0 0-3.58-5.17l20.33 2 1.08-9.5s-6.62-2-7.2-5.12a35.72 35.72 0 0 1-.22-7.63z" fill="#8ecfb7"/><circle cx="45.06" cy="357.78" r="4" transform="translate(-312.83 402.01) rotate(-89.87)" fill="#595f72" stroke="#a8aeb2" stroke-miterlimit="10" stroke-width="2"/><circle cx="40.71" cy="373.53" r="5.47" fill="#ddd"/><path d="M270.87 323.3l-2.21-8.1a.93.93 0 0 0-1.14-.65l-3.07.84a.93.93 0 0 0-.65 1.14l1.19 4.38-15.07 4.09a1.85 1.85 0 0 0-1.3 2.27l.69 2.52a2.77 2.77 0 0 1-1.44 3.22c-2.16 1.07-4.42 2.27-6.74 3.63a59.29 59.29 0 0 0-22.6 24.11 1.85 1.85 0 0 0 2.14 2.61l5.92-1.62a2.74 2.74 0 0 0 1.6-1.18 50.69 50.69 0 0 1 17.13-16.74 91.64 91.64 0 0 1 22.68-9.58 5.56 5.56 0 0 0 4-6.84l-.35-1.27-.31-1.14z" fill="#d1d5de"/><path d="M566.68 50.77c-10.68 6.34-16.35 18.71-18.89 30.87s-2.59 24.74-5.32 36.86-8.83 24.36-19.79 30.2c-5.55 3-11.89 4-17.69 6.44s-11.47 6.79-12.54 13c-.21 1.2-.55 2.76-1.76 2.87M95.28 370.92c-8.65 1-16.9-4.68-23.58-10.25S59 348.48 51.27 344.55c-9.89-5-15.9-5.05-26.85-3.36-5.47.84-11.07 2.18-15.46 5.56-7 5.38-9.49 15.41-7 23.88s9.23 15.27 17.21 19 11.36 4.72 20.16 4.17" fill="none" stroke="#333" stroke-linecap="round" stroke-miterlimit="10" stroke-width="2"/><path d="M69.24 389.1l-5 .52v-11.17l5 .52a5.09 5.09 0 0 1 4.57 5.03 5.09 5.09 0 0 1-4.57 5.1z" fill="#ddd"/><circle cx="57.35" cy="380.39" r="9.23" fill="#595f72"/><path d="M66.37 381.78l-1-3.5a3.61 3.61 0 0 0-1.37-1.93l-5.25-3.71-1.92 1.15 1.08 4.57-3.39.8-1.32-5.56a2.09 2.09 0 0 1 1-2.29l3.57-2.13a2.1 2.1 0 0 1 2.29.09l6 4.23a7.11 7.11 0 0 1 2.71 3.8l1 3.5z" fill="#ccc"/><path d="M36 375.93l-.81 3.69a23.24 23.24 0 0 0-.31 8.26l.71 4.94 8.68-.52a2.67 2.67 0 0 0 2.5-2.9l-1.19-13.47z" fill="#ddd"/><path d="M63.31 382.23l-17.66 33a.59.59 0 0 1-.54.31l-11.3-.54h-.13a2.49 2.49 0 0 0-2.18 3.49v.08l.08.14v.07l.07.1 1 1.57 2.1 3.14.52.78.26.39.13.2.07.1.09.13a7.24 7.24 0 0 0 2.88 2.41l.29.13.3.11H39.46l.17.05h.26l1.87.48 1.83.47.91.23.47.12a3.52 3.52 0 0 0 4.31-3v-.29.1-1.47l-.27-6.68a.59.59 0 0 1 .09-.33l19.74-32zM34.56 417zm10.16 8.43l-1.85-.43-1.8-.41h-.3l-.15-.05-.14-.06a3.47 3.47 0 0 1-.54-.29 3.57 3.57 0 0 1-.9-.85v-.07l-.07-.1-.14-.19-.27-.38-.55-.77-1.68-2.36a.59.59 0 0 1 .49-.93l7.7.15a.59.59 0 0 1 .58.55l.39 5.61a.59.59 0 0 1-.72.61zm.81.77z" fill="#ccc"/><circle cx="46.78" cy="417.41" r="1.27" transform="translate(-20.31 2.78) rotate(-2.8)" fill="#595f72" stroke="#a8aeb2" stroke-miterlimit="10"/><circle cx="40.71" cy="373.53" r="2.74" fill="#595f72" stroke="#a8aeb2" stroke-miterlimit="10" stroke-width="2"/><path d="M66.77 390.64l-26.36-1.2a.71.71 0 0 1-.65-.73v-9.14a.71.71 0 0 1 .65-.73l26.36-1.2a1.69 1.69 0 0 1 1.71 1.74v9.51a1.69 1.69 0 0 1-1.71 1.75z" fill="#bbb"/><path fill="#ddd" d="M61.5 380.39h8.21v7.52H61.5zM35.263 390.404l5.165-.602.348 2.98a2.6 2.6 0 0 1-2.282 2.883 2.6 2.6 0 0 1-2.883-2.281l-.348-2.98z"/><path d="M95.231 368.253l7.922 1.113-.542 3.862a.85.85 0 0 1-.96.724l-6.24-.877a.85.85 0 0 1-.723-.96l.543-3.862z" fill="#8ecfb7"/><path fill="none" stroke="#033333" stroke-miterlimit="10" stroke-width="8" d="M540.32 222.67l17.7-6.17"/><path fill="none" stroke="#ccc" stroke-linecap="round" stroke-miterlimit="10" stroke-width="6" d="M180.36 96.09l19.29-5.27"/><circle cx="180.36" cy="96.09" r="2" transform="matrix(0.96, -0.26, 0.26, 0.96, -18.94, 50.9)" fill="#595f72" stroke="#a8aeb2" stroke-miterlimit="10"/><path d="M137.11 179.59a1.93 1.93 0 0 0 2-.87l11-17.44a1.93 1.93 0 0 0-3.27-2.06l-11 17.44a1.93 1.93 0 0 0 1.26 2.93z" fill="#aaa"/><path fill="none" stroke="#ccc" stroke-miterlimit="10" stroke-width="5" d="M146.98 163.07l-20.05 31.77"/><ellipse cx="136.11" cy="180.7" rx="9.55" ry="4.13" transform="translate(-87.92 212.14) rotate(-61)" fill="#ccc" stroke="#ccc" stroke-miterlimit="10" stroke-width="2"/><path fill="none" stroke="#333" stroke-linecap="round" stroke-miterlimit="10" d="M144.51 161.86l4.6 2.7"/><path fill="none" stroke="#ddd" stroke-miterlimit="10" stroke-width="8" d="M604.04 339.06l8.36 13.85"/><path d="M541.24 166.84l2.56 7.68 6.65 20.28 9.27 28.72 5.2 16.21 5.29 16.76 5.29 16.76 2.57 8.14a69.86 69.86 0 0 0 2.74 7.16 68.83 68.83 0 0 0 3.34 6.62l3.89 6.72c2.52 4.39 4.92 8.53 7.07 12.4l5.89 10.5c1.77 3.13 3.24 5.89 4.49 8.15 2.49 4.52 3.86 7.13 3.86 7.13a4.11 4.11 0 0 1-6.95 4.35s-1.76-2.37-4.73-6.59c-1.49-2.11-3.33-4.64-5.37-7.6l-6.88-9.91c-2.54-3.62-5.21-7.59-8.07-11.77l-4.35-6.46a82.22 82.22 0 0 1-4.49-7.62 83.1 83.1 0 0 1-3.72-8.35l-3-8.14-6.16-16.46-6.16-16.46-5.89-16-10.4-28.33-7.26-20.07-2.72-7.62a9.56 9.56 0 1 1 18-6.42z" fill="url(#g)"/><circle cx="613.2" cy="354.1" r="4" transform="translate(257.66 966.47) rotate(-89.87)" fill="#595f72" stroke="#a8aeb2" stroke-miterlimit="10" stroke-width="2"/><path d="M520.6 98.6v10l1.25 7 2.25 7.75s4.5 5 5.75 5 0-1.75 0-1.75l-7.75-28z" fill="#ccc"/><path d="M571.81 58.82L630 74.8a8.5 8.5 0 0 1 5.42 4.53L644.37 98a8.5 8.5 0 0 1-1 8.88l-26.36 33.74a8.5 8.5 0 0 1-4.72 3.05l-35.09 8.5" fill="none" stroke-miterlimit="10" stroke-width="17" opacity=".1" stroke="url(#l)"/></g></svg>