<svg xmlns="http://www.w3.org/2000/svg" viewBox="0 0 376.67 376.67"><title>wheel-front</title><g fill="none" stroke-miterlimit="10"><path stroke="#a8aeb2" d="M304.52 282.43l12.95 12.5"/><path stroke="#a8aeb2" stroke-width="3" d="M306.32 284.64l12.95 12.51"/><g stroke="#ccc" stroke-width="1.5"><path d="M354.16 220.66l-166.94-26.01M351.54 231.95l-161.69-49M182.44 19.91l11.79 168.54M194.23 19.91l-11.79 168.54M60.08 78.84L184.5 193.13M52.73 88.05l139.12 95.87M22.51 220.46l166.94-26.02M25.13 231.95l161.69-49M120.43 343.25l62.51-156.97M109.81 338.13l83.74-146.73M256.24 343.25l-62.51-156.97M266.86 338.13L183.11 191.4M316.59 78.84L192.17 193.13M323.94 88.05l-139.12 95.87"/></g><circle cx="188.33" cy="188.33" r="174.33" stroke="#ddd" stroke-width="11"/><circle cx="188.33" cy="188.33" r="182.83" stroke="#ffce00" stroke-width="11"/><circle cx="188.33" cy="188.33" r="178.58" stroke="#ddb305" stroke-width="6" opacity=".8"/></g></svg>