<svg xmlns="http://www.w3.org/2000/svg" viewBox="0 0 305.5 69.5" width="305.5" height="69.5"><defs><style>.a{fill:rgba(255,255,255,.3)}</style></defs><path class="a" d="M67.1 66.8c-1 1.7-2.8 2.8-5.2 2.8h-56c-2.1 0-4.2-1-5.2-2.4-.7-1.4-1-2.8-.3-4.2L7 50.5c.7-1.7 2.8-3.1 5.2-3.1h5.5l2.4 4.5h-8c-.7 0-1.4.3-1.4.7L4.5 64.7c.3.3.7.7 1.4.7h56.4c.7 0 1.4-.3 1.4-.7l-6.6-12.1c0-.3-.7-.7-1.4-.7h-6.9l2.4-4.2h4.2c2.4 0 4.5 1 5.2 3.1L67.1 63c1.1 1 .7 2.4 0 3.8zM40.5 17.6c-1.4 1-.7 1.4.3 1.4h14.5v-7.6h-6.6c-1 0-1.7.3-2.4 1-.9.7-4.4 3.9-5.8 5.2zm15.9-6.2V19h2.4l4.2-7.3c-.3-.3-.7-.3-1.4-.3h-5.2zm-26.6 19c0 1.7 1.4 3.5 3.5 3.5 1.7 0 3.5-1.4 3.5-3.5 0-1.7-1.4-3.5-3.5-3.5-1.8.1-3.5 1.5-3.5 3.5zm2.4 26.3c1.4 2.1 4.2 2.1 5.5 0l13.5-24.2H39.5c-1 2.8-3.5 4.5-6.2 4.5-3.1 0-5.5-2.1-6.6-4.8-1-.7-2.4-2.4-2.4-3.1v-6.2c0-1.7 3.5-2.8 11.1-4.2 4.5-4.2 7.6-7.3 9.7-9.3C46.4 8 47.4 8 48.1 8h14.5c1 0 1.7 0 2.1.7l2.1-3.8C68.2 2.4 66.5 0 64 0H4.9C2.5 0 .7 2.8 2.1 4.8l30.1 51.9zM115.9 36c-.3-.7-1-1.4-1.7-1.7-.7-.7-1.4-1-2.4-1.4 1.7-.7 2.8-1.7 3.1-2.8.7-1 1-2.4 1-3.8 0-1 0-2.4-.3-3.5-.3-1-1-2.1-1.7-2.8-1-.7-2.1-1.4-3.5-1.7s-3.5-.7-5.9-.7H93.4v32.2h11.8c2.1 0 4.2-.3 5.5-.7s2.8-1 3.8-2.1c1-.7 1.7-1.7 2.1-3.1.3-1 .7-2.4.7-3.8 0-.7 0-1.4-.3-2.1-.4-.6-.4-1.3-1.1-2zM98.6 21.8h5.5c2.4 0 4.2.3 5.2 1s1.4 1.7 1.4 3.5c0 1.4-.3 2.4-1.4 3.5-.7.7-2.4 1-4.5 1h-6.6v-9h.4zm12.8 20.4l-1 1.7c-.3.3-1 .7-2.1 1-.7.3-2.1.3-3.1.3h-6.6v-10h6.9c2.1 0 3.8.3 4.8 1.4 1 .7 1.4 2.1 1.4 3.8.1.4.1 1.1-.3 1.8zM139.1 28c-.7-.7-1.7-1.4-2.8-1.7-1-.3-2.8-.7-4.5-.7-2.8 0-5.2.7-6.9 1.7-1.7 1-2.8 2.8-3.1 4.8l4.5.3c.3-1 .7-1.7 1.4-2.4s2.1-.7 3.5-.7 2.8.3 3.5 1c.7.7 1.4 2.1 1.4 3.5v1l-3.5.3-4.5.3c-1.4.3-2.8.7-3.8 1-1 .7-2.1 1.4-2.8 2.4s-1 2.4-1 3.8c0 1 .3 2.1.7 3.1s1 1.7 1.7 2.1c.7.7 1.4 1 2.4 1.4 1 .3 2.1.3 3.1.3 1.7 0 3.5-.3 4.5-1 1.4-.7 2.4-1.7 3.1-2.4v3.1h4.8V34.6c0-1.4 0-2.8-.3-3.8 0-1-.7-2.1-1.4-2.8zm-2.8 12.5c0 1.7-.7 3.5-1.7 4.2-1.4 1-2.8 1.4-4.8 1.4-1.4 0-2.4-.3-2.8-1-.7-.7-1-1.4-1-2.4 0-.7 0-1 .3-1.7l1-1.4 2.1-1c1-.3 2.1-.3 3.5-.3h3.1v2.4l.3-.2zm25.6-14.2h5.5l-9.7 24.9-1.4 3.1s-1 1.7-1.4 2.4c-.7.7-1.4 1-2.1 1.4s-1.7.3-2.8.3h-2.1l-2.1-.3 1-3.8c.3 0 .7.3 1.4.3h1.4c1 0 1.7-.3 2.1-.7.3-.3 1-1.4 1.4-2.4l.7-2.1-9.5-22.4h5.9l6.6 17 5.1-17.7zm30.8 8.6c1.7 1.4 2.4 3.5 2.4 6.6 0 1.4-.3 2.4-.7 3.5-.3 1-1.4 2.1-2.1 3.1-1 .7-2.1 1.4-3.8 2.1-1.4.3-3.1.7-5.2.7-1.7 0-3.5-.3-5.2-.7-1.4-.3-2.8-1-4.2-1.7-1-.7-2.1-1.7-2.8-3.1-.7-1.4-1-2.8-1.4-4.5h4.2c.3 2.1 1.4 3.8 2.8 4.8s3.5 1.4 6.2 1.4c1.4 0 2.4 0 3.5-.3 1-.3 1.7-.7 2.4-1.4s1-1 1.4-1.7c.3-.7.3-1.4.3-2.1 0-.7 0-1.4-.3-1.7 0-.7-.3-1-1-1.7-.3-.3-1-1-1.7-1.4s-1.7-.7-3.1-.7l-4.2-.7c-1-.7-2.4-1-3.8-1.4-1.4-.3-2.4-1-3.1-1.7-.7-.7-1.4-1.7-2.1-2.8-.3-1-.7-2.4-.7-3.8s.3-2.8 1-3.8 1.4-2.1 2.4-2.8 2.4-1.4 3.8-1.7 3.1-.7 4.8-.7c2.1 0 3.8.3 5.2.7s2.4 1 3.5 1.7c1 .7 1.7 1.7 2.1 2.8.3 1.4.7 2.4 1 3.5l-3.8.7c-.3-1-.7-1.7-1-2.4s-1-1.4-1.4-1.7c-.7-.7-1.4-1-2.4-1-1-.3-2.1-.3-3.1-.3-1.4 0-2.8 0-3.8.3s-1.7.7-2.4 1c-.7.3-1 1-1.4 1.7-.3.7-.3 1.4-.3 2.1s0 1.4.3 2.1.7 1 1 1.4 1 .7 1.7 1c.7.3 1.7.7 2.8.7l4.5.7c3.6.5 6 1.5 7.7 3.2zm25.3-5.8c-.7-1-1.7-1.7-3.1-2.4s-2.8-.7-4.5-.7-3.1.3-4.5.7c-1.4.7-2.4 1.4-3.5 2.4-1 1-1.7 2.4-2.4 3.8-.7 1.7-.7 3.5-.7 5.2 0 3.8 1 6.9 2.8 9 1.7 2.1 4.5 3.1 8.3 3.1 3.1 0 5.2-.7 6.9-2.1 1.7-1.4 2.8-3.1 3.1-5.2h-3.8c-.3 1.4-1 2.4-1.7 3.1-1 .7-2.4 1-4.2 1-1 0-2.1-.3-3.1-.7s-1.7-1-2.1-1.7c-.7-.7-1-1.7-1.4-2.8s-.3-2.1-.3-3.1h17.3v-2.1c0-1.7-.3-3.1-.7-4.5-.7-1-1.4-2-2.4-3zM203.5 36c.3-2.4 1-4.2 2.1-5.5 1-1.4 2.8-1.7 4.8-1.7 1 0 2.1.3 2.8.7s1.4.7 2.1 1.4c.3.7 1 1.4 1 2.4.3 1 .3 2.1.3 3.1h-13.1V36zm40.1-8c1.4 1.4 2.1 3.5 2.1 6.2v15.6h-3.8V35.3c0-2.1-.3-3.8-1-4.5-.7-1-2.1-1.4-3.5-1.4-1 0-1.7 0-2.4.3-1.4 0-2.4.7-3.1 1.4-.7.7-1.4 1.4-1.7 2.1s-.7 1.7-.7 2.8v13.8h-3.8V26.3h3.8v3.5c1-1.4 2.4-2.8 3.8-3.1 1.4-.7 2.8-1 4.5-1 2.7-.1 4.4.6 5.8 2.3zm19 18.4l.7 3.1c-.7.3-1.4.3-2.1.3s-1.4.3-2.4.3c-1.4 0-2.4-.3-3.1-.7-.7-.3-1.4-1-2.1-1.7l-1-2.4-.3-3.1V29.4h-3.5v-3.1h3.5v-6.2h3.8v6.2h6.2v3.1H256v13.5c0 1 .3 2.1.7 2.8s1.4 1 2.4 1h1.7c1.1 0 1.5 0 1.8-.3zm15.2-20.5c.7 0 1.4 0 2.1.3l-.3 3.8h-2.1c-.7 0-1.4 0-2.1.3-.7 0-1.4.3-2.1.7-.7.7-1 1.4-1.4 2.1s-.7 1.7-.7 2.8v13.8h-3.8V26.3h3.8v3.5c1-1.4 1.7-2.4 3.1-3.1 1.1-.4 2.1-.8 3.5-.8zm27.7.4l-10.4 25.6c-.3 1-.7 2.1-1.4 2.8l-1.4 2.1s-1 1-1.7 1.4c-.7.3-1.7.3-2.4.3h-2.1s-1-.3-1.7-.3l.7-3.1c.7.3 1.7.3 2.4.3 1 0 1.7-.3 2.1-.7.7-.3 1-1.4 1.4-2.8l1-2.4-9.7-22.5h4.8l7.3 18.3 6.6-19h4.5z"/></svg>