<svg xmlns="http://www.w3.org/2000/svg" viewBox="0 0 204.12 10.74"><title>Asset 1</title><circle cx="202.33" cy="8.95" r="1.79"/><circle cx="188.01" cy="8.95" r="1.79"/><circle cx="173.68" cy="8.95" r="1.79"/><circle cx="159.36" cy="8.95" r="1.79"/><circle cx="145.03" cy="8.95" r="1.79"/><circle cx="130.71" cy="8.95" r="1.79"/><circle cx="116.38" cy="8.95" r="1.79"/><circle cx="102.06" cy="8.95" r="1.79"/><circle cx="87.74" cy="8.95" r="1.79"/><circle cx="73.41" cy="8.95" r="1.79"/><circle cx="59.09" cy="8.95" r="1.79"/><circle cx="44.76" cy="8.95" r="1.79"/><circle cx="30.44" cy="8.95" r="1.79"/><circle cx="16.11" cy="8.95" r="1.79"/><circle cx="1.79" cy="8.95" r="1.79"/><circle cx="195.17" cy="1.79" r="1.79"/><circle cx="180.84" cy="1.79" r="1.79"/><circle cx="166.52" cy="1.79" r="1.79"/><circle cx="152.19" cy="1.79" r="1.79"/><circle cx="137.87" cy="1.79" r="1.79"/><circle cx="123.55" cy="1.79" r="1.79"/><circle cx="109.22" cy="1.79" r="1.79"/><circle cx="94.9" cy="1.79" r="1.79"/><circle cx="80.57" cy="1.79" r="1.79"/><circle cx="66.25" cy="1.79" r="1.79"/><circle cx="51.93" cy="1.79" r="1.79"/><circle cx="37.6" cy="1.79" r="1.79"/><circle cx="23.28" cy="1.79" r="1.79"/><circle cx="8.95" cy="1.79" r="1.79"/></svg>