<svg xmlns="http://www.w3.org/2000/svg" viewBox="0 0 281.8 438.5"><path fill="#010202" d="M166.4 286.5l-2.6-1.5c-.1-1-.3-2.1-.6-3.1l1.8-2.4c.8-1.1.2-2.7-1.2-2.9l-3-.4c-.5-.9-1.1-1.8-1.7-2.6l.8-2.9c.3-1.3-.9-2.5-2.2-2.2l-2.9.8c-.8-.6-1.7-1.2-2.6-1.7l-.4-3c-.2-1.4-1.8-2-2.9-1.2l-2.4 1.8c-1-.3-2-.5-3.1-.6l-1.5-2.6c-.7-1.2-2.4-1.2-3.1 0l-1.5 2.6c-1 .1-2.1.3-3.1.6l-2.4-1.8c-1.1-.8-2.7-.2-2.9 1.2l-.4 3c-.9.5-1.8 1.1-2.6 1.7l-2.9-.8c-1.3-.3-2.5.9-2.2 2.2l.8 2.9c-.6.8-1.2 1.7-1.7 2.6l-3 .4c-1.4.2-2 1.8-1.2 2.9l1.8 2.4c-.3 1-.5 2-.6 3.1l-2.6 1.5c-1.2.7-1.2 2.4 0 3.1l2.6 1.5c.1 1 .3 2.1.6 3.1l-1.8 2.4c-.8 1.1-.2 2.7 1.2 2.9l3 .4c.5.9 1.1 1.8 1.7 2.6l-.8 2.9c-.3 1.3.9 2.5 2.2 2.2l2.9-.8c.8.6 1.7 1.2 2.6 1.7l.4 3c.2 1.4 1.8 2 2.9 1.2l2.4-1.8c1 .3 2 .5 3.1.6l1.5 2.6c.7 1.2 2.4 1.2 3.1 0l1.5-2.6c1-.1 2.1-.3 3.1-.6l2.4 1.8c1.1.8 2.7.2 2.9-1.2l.4-3c.9-.5 1.8-1.1 2.6-1.7l2.9.8c1.3.3 2.5-.9 2.2-2.2l-.8-2.9c.6-.8 1.2-1.7 1.7-2.6l3-.4c1.4-.2 2-1.8 1.2-2.9l-1.8-2.4c.3-1 .5-2 .6-3.1l2.6-1.5c1.2-.8 1.2-2.5 0-3.1zm-26 22.8c-11.8 0-21.3-9.5-21.3-21.3s9.5-21.3 21.3-21.3 21.3 9.5 21.3 21.3-9.5 21.3-21.3 21.3z"/><path fill="#010202" d="M140.4 306.4c-10.2 0-18.4-8.3-18.4-18.4s8.3-18.4 18.4-18.4c10.2 0 18.4 8.3 18.4 18.4s-8.2 18.4-18.4 18.4zm0-34.5c-8.9 0-16.1 7.2-16.1 16.1 0 8.9 7.2 16.1 16.1 16.1s16.1-7.2 16.1-16.1c0-8.9-7.2-16.1-16.1-16.1z"/><path fill="#010202" d="M124.066 302.403l3.252-3.252 1.415 1.414-3.253 3.253zM151.644 274.812l3.606-3.606 1.415 1.414-3.607 3.606zM152.11 300.679l1.413-1.414 3.112 3.111-1.415 1.414zM124.071 272.63l1.415-1.414 3.464 3.464-1.414 1.415zM246.3 132.3h2V308h-2z"/><circle fill="#010202" cx="247.2" cy="309.6" r="2.8"/><circle fill="#010202" cx="247.2" cy="129.6" r="2.8"/><path fill="#010202" d="M216.2 284.5v-16.2l49.5-49.5-49.5-49.5v-16.2l65.6 65.6-65.6 65.8zm2-15.3v10.5l60.8-60.8-60.8-60.8v10.6l50.3 50.3-50.3 50.2zM65.5 285L0 219.6l65.5-65.5v16.2l-49.3 49.3 49.3 49.3V285zM2.8 219.6l60.6 60.6v-10.6l-50.1-50.1 50.1-50.1v-10.5L2.8 219.6z"/><path fill="#010202" d="M64.5 270.2c-.3 0-.5-.1-.7-.3l-50.4-50.4 50.4-50.4c.4-.4 1-.4 1.4 0s.4 1 0 1.4l-49 49 49 49c.4.4.4 1 0 1.4-.2.2-.5.3-.7.3zM216.2 344.4v-62.7l8.5-8.5v34.1c0 11.3-2.2 22.3-6.6 32.7l-1.9 4.4zm2-61.9v51.6c3-8.6 4.5-17.7 4.5-26.9V278l-4.5 4.5zM65.5 344.1l-1.9-4.6c-4.3-10.2-6.4-21.1-6.4-32.3v-33.4l8.4 8.4v61.9zm-6.4-65.4v28.6c0 9.1 1.5 17.9 4.4 26.4V283l-4.4-4.3zM118.6 388l-1.3-.4c-2.3-.7-4.5-1.4-6.7-2.3l-.6-.2v-58.4l8.6 8.6V388zm-6.6-4.3c1.5.6 3.1 1.1 4.6 1.6v-49.2l-4.6-4.6v52.2zM176.4 383.2v-61.7l8.6-8.6v65.6l-.5.3c-2.1 1.3-4.4 2.5-6.7 3.7l-1.4.7zm2-60.8V380c1.6-.8 3.2-1.7 4.6-2.6v-59.7l-4.6 4.7z"/><path fill="#010202" d="M169.7 385.9v-57.8l8.6-8.6v62.7l-.6.3c-2.1 1-4.4 2-6.7 2.9l-1.3.5zm2-56.9v54c1.6-.6 3.2-1.3 4.6-2v-56.6l-4.6 4.6zM183 379.7v-64.8l8.6-8.6V374l-.4.3c-2.2 1.6-4.4 3.2-6.7 4.6l-1.5.8zm2-64v60.4c1.6-1 3.1-2.1 4.6-3.2V311l-4.6 4.7zM156.4 389.6v-48.1l8.6-8.6v54.7l-.7.2c-2.4.7-4.6 1.2-6.7 1.7l-1.2.1zm2-47.3v44.9c1.5-.3 3-.7 4.6-1.2v-48.3l-4.6 4.6z"/><path fill="#010202" d="M149.8 390.6v-42.5l8.6-8.6v49.7l-.8.2c-2.1.4-4.3.8-6.7 1.1l-1.1.1zm2-41.7v39.4c1.6-.2 3.2-.5 4.6-.7v-43.3l-4.6 4.6zM202.9 363.7V295l8.6-8.6v66l-.2.2c-2 3.2-4.3 6.2-6.7 9l-1.7 2.1zm2-67.9v62.3c1.6-2.1 3.2-4.2 4.6-6.4v-60.5l-4.6 4.6z"/><path fill="#010202" d="M209.6 355.4v-67.1l8.6-8.6v60l-.1.2c-1.8 4.3-4.1 8.6-6.7 12.7l-1.8 2.8zm2-66.2v59.3c1.8-3 3.3-6.1 4.6-9.2v-54.8l-4.6 4.7zM189.6 375.5v-67.2l8.6-8.6v68.7l-.3.3c-2.2 2-4.5 3.9-6.7 5.6l-1.6 1.2zm2-66.4v62.3c1.6-1.2 3.1-2.6 4.6-4v-63l-4.6 4.7zM72.1 355.2l-1.8-2.9c-2.6-4.1-4.9-8.4-6.7-12.8l-.1-.2v-59.1l8.6 8.6v66.4zm-6.6-16.3c1.3 3.2 2.9 6.3 4.6 9.3v-58.5l-4.6-4.6v53.8zM143.2 391v-36.3l8.6-8.6v44.2l-.9.1c-2.2.3-4.5.4-6.7.5l-1 .1zm2-35.4v33.3c1.5-.1 3.1-.2 4.6-.4v-37.6l-4.6 4.7z"/><path fill="#010202" d="M196.3 370.2v-68.6l8.6-8.6v68.3l-.2.3c-2.1 2.5-4.4 4.8-6.7 7l-1.7 1.6zm2-67.8v63.1c1.6-1.6 3.2-3.2 4.6-5v-62.8l-4.6 4.7zM163.1 388.1v-53.2l8.6-8.6v59l-.6.2c-2.2.8-4.5 1.6-6.7 2.3l-1.3.3zm2-52.5v49.7c1.6-.5 3.1-1 4.6-1.6V331l-4.6 4.6zM105.3 383.1l-1.4-.7c-2.3-1.2-4.6-2.4-6.7-3.7l-.5-.3v-65l8.6 8.6v61.1zm-6.6-5.8c1.5.9 3 1.8 4.6 2.6v-57l-4.6-4.6v59zM92 375.3l-1.6-1.2c-2.3-1.7-4.5-3.6-6.7-5.7l-.3-.3v-68l8.6 8.6v66.6zm-6.6-8c1.5 1.4 3.1 2.7 4.6 4v-61.7l-4.6-4.6v62.3z"/><path fill="#010202" d="M98.7 379.6l-1.5-.9c-2.3-1.4-4.6-3-6.7-4.6l-.4-.3v-67l8.6 8.6v64.2zm-6.7-6.8c1.5 1.1 3.1 2.2 4.6 3.2v-59.8l-4.6-4.6v61.2zM78.8 363.5l-1.8-2.1c-2.4-2.9-4.7-5.9-6.7-9.1l-.2-.2v-65.2l8.6 8.6v68zm-6.7-12c1.4 2.2 3 4.4 4.6 6.5v-61.6l-4.6-4.6v59.7z"/><path fill="#010202" d="M85.4 370l-1.7-1.6c-2.4-2.2-4.6-4.6-6.7-7.1l-.2-.3v-67.6l8.6 8.6v68zm-6.6-9.6c1.5 1.7 3 3.4 4.6 5V303l-4.6-4.6v62zM112 385.9l-1.4-.5c-2.3-.9-4.6-1.9-6.7-2.9l-.6-.3V320l8.6 8.6v57.3zm-6.7-5c1.5.7 3 1.4 4.6 2.1v-53.4l-4.6-4.6v55.9zM138.5 391h-1c-2.2-.1-4.4-.3-6.7-.5l-.9-.1v-43.7l8.6 8.6V391zm-6.6-2.5c1.6.2 3.1.3 4.6.4v-32.8l-4.6-4.6v37z"/><path fill="#010202" d="M140.9 391c-1.2 0-2.4 0-3.4-.1h-1v-37.7l4.1 4.1 4.6-4.6v38.2h-1c-1.1.1-2.2.1-3.3.1zm-2.4-2c1.5.1 3.1.1 4.6 0v-31.4l-2.6 2.6-2.1-2.1V389zM125.2 389.6l-1.2-.2c-2.1-.4-4.3-1-6.7-1.7l-.7-.2v-54.1l8.6 8.6v47.6zm-6.6-3.7c1.6.5 3.2.9 4.6 1.2v-44.3l-4.6-4.6v47.7z"/><path fill="#010202" d="M131.9 390.5l-1.1-.1c-2.5-.3-4.7-.6-6.7-1.1l-.8-.2V340l8.6 8.6v41.9zm-6.7-3c1.4.3 3 .5 4.6.7v-38.8l-4.6-4.6v42.7zM103.3 119.1V56.3l.6-.3c2.1-1.1 4.4-2 6.7-2.9l1.4-.5v57.9l-8.7 8.6zm2-61.5v56.7l4.6-4.6V55.5c-1.5.7-3.1 1.3-4.6 2.1zM111 110z"/><path fill="#010202" d="M110 112.4V53.3l.6-.2c2.2-.9 4.5-1.6 6.7-2.3l1.3-.4v53.4l-8.6 8.6zm2-57.7v52.9l4.6-4.6V53.1c-1.6.5-3.1 1-4.6 1.6zm5.6 48.7zM96.7 125.7V60l.5-.3c2.1-1.3 4.4-2.6 6.7-3.7l1.4-.7V117l-8.6 8.7zm2-64.5v59.7l4.6-4.6V58.6c-1.6.8-3.1 1.7-4.6 2.6zm5.6 55.5z"/><path fill="#010202" d="M90 132.4V64.6l.4-.3c2.2-1.6 4.4-3.2 6.7-4.6l1.5-.9v64.9l-8.6 8.7zm2-66.8v61.9l4.6-4.6V62.4c-1.5 1-3.1 2.1-4.6 3.2zm5.7 57.7zM116.6 105.8V51l.7-.2c2.4-.7 4.6-1.3 6.7-1.7l1.2-.2v48.3l-8.6 8.6zm2-53.3V101l4.6-4.6v-45c-1.4.3-3 .7-4.6 1.1zm5.6 44.2z"/><path fill="#010202" d="M123.2 99.2V49.3l.8-.2c2-.4 4.2-.8 6.7-1.1l1.1-.1v42.6l-8.6 8.7zm2-48.3v43.4l4.6-4.6V50.2c-1.6.2-3.1.4-4.6.7zm5.7 39.2zM57.1 165.3v-34.1c0-11.2 2.2-22 6.4-32.3l1.9-4.6v62.6l-8.3 8.4zm6.4-60.5c-2.9 8.5-4.4 17.3-4.4 26.4v29.2l4.4-4.4v-51.2z"/><path fill="#010202" d="M63.5 158.9V99.2l.1-.2c1.8-4.4 4.1-8.7 6.7-12.8l1.8-2.9v67l-8.6 8.6zm2-59.3v54.5l4.6-4.6V90.3c-1.7 3-3.3 6.1-4.6 9.3zm5.6 50.3zM129.9 92.5V48.2l.9-.1c2.3-.3 4.5-.5 6.7-.5h1V84l-8.6 8.5zm2-42.6v37.8l4.6-4.6V49.6c-1.5 0-3.1.2-4.6.3zm5.6 33.6z"/><path fill="#010202" d="M70.1 152.3V86.4l.2-.2c2-3.2 4.3-6.3 6.7-9.1l1.8-2.1v68.7l-8.7 8.6zm2-65.3v60.5l4.6-4.6V80.5c-1.6 2.1-3.1 4.3-4.6 6.5zm5.7 56.2zM83.4 139V70.3l.3-.3c2.2-2 4.4-4 6.7-5.7l1.6-1.2v67.2l-8.6 8.7zm2-67.8v63l4.6-4.6V67.2c-1.5 1.2-3.1 2.6-4.6 4zm5.6 58.7z"/><path fill="#010202" d="M76.8 145.6V77.3l.2-.3c2.1-2.5 4.4-4.8 6.7-7.1l1.7-1.6V137l-8.6 8.6zm2-67.5v62.7l4.6-4.6V73.1c-1.6 1.6-3.2 3.3-4.6 5zm5.6 58.5zM224.7 164.6l-8.5-8.5V94l1.9 4.5c4.4 10.3 6.6 21.3 6.6 32.7v33.4zm-6.5-9.3l4.5 4.5v-28.6c0-9.3-1.5-18.3-4.5-26.9v51zM204.9 144.8l-8.6-8.6V68.3l1.7 1.6c2.3 2.2 4.6 4.5 6.7 7l.2.3v67.6zm-6.6-9.5l4.6 4.6v-62c-1.5-1.7-3-3.4-4.6-5v62.4z"/><path fill="#010202" d="M198.3 138.2l-8.6-8.6V63l1.6 1.2c2.3 1.7 4.5 3.6 6.7 5.6l.3.3v68.1zm-6.7-9.5l4.6 4.6V71c-1.5-1.4-3.1-2.7-4.6-4v61.7z"/><path fill="#010202" d="M191.6 131.5l-8.6-8.6V58.7l1.5.9c2.3 1.4 4.6 2.9 6.7 4.6l.4.3v67zm-6.6-9.4l4.6 4.6V65.5c-1.5-1.1-3.1-2.2-4.6-3.2v59.8z"/><path fill="#010202" d="M185 124.9l-8.6-8.6v-61l1.4.7c2.3 1.2 4.6 2.4 6.7 3.7l.5.3v64.9zm-6.6-9.5l4.6 4.6V61c-1.5-.9-3-1.8-4.6-2.6v57zM211.6 151.4l-8.6-8.6v-68l1.8 2.1c2.4 2.8 4.7 5.9 6.7 9l.2.2v65.3zm-6.7-9.4l4.6 4.6V86.7c-1.4-2.2-3-4.4-4.6-6.4V142zM136.5 85.9V47.5h1c2.1-.1 4.5-.1 6.7 0h1V85l-3.9-3.9-4.8 4.8zm2-36.4v31.6l2.7-2.7 1.9 1.9V49.5c-1.5-.1-3.1-.1-4.6 0z"/><path fill="#010202" d="M218.2 158.1l-8.6-8.6V83l1.8 2.9c2.6 4.1 4.9 8.3 6.7 12.7l.1.2v59.3zm-6.6-9.5l4.6 4.6V99.1c-1.3-3.1-2.9-6.2-4.6-9.2v58.7zM178.4 118.2l-8.6-8.6V52.5l1.4.5c2.3.9 4.6 1.9 6.7 2.9l.6.3v62zm-6.7-9.4l4.6 4.6V57.5c-1.5-.7-3-1.4-4.6-2v53.3zM158.4 98.3l-8.6-8.6V47.9l1.1.1c2.4.3 4.6.6 6.7 1.1l.8.2v49zm-6.6-9.4l4.6 4.6V50.9c-1.5-.3-3-.5-4.6-.7v38.7z"/><path fill="#010202" d="M151.8 91.7l-8.6-8.6V47.5h1c2.2.1 4.5.3 6.7.5l.9.1v43.6zm-6.6-9.5l4.6 4.6V49.9c-1.6-.2-3.1-.3-4.6-.4v32.7zM165.1 105l-8.6-8.6V48.8l1.2.2c2.1.4 4.3 1 6.7 1.7l.7.2V105zm-6.7-9.5l4.6 4.6V52.5c-1.6-.5-3.2-.8-4.6-1.2v44.2z"/><path fill="#010202" d="M171.7 111.6l-8.6-8.6V50.4l1.3.4c2.3.7 4.5 1.4 6.7 2.3l.6.2v58.3zm-6.6-9.5l4.6 4.6v-52c-1.5-.6-3.1-1.1-4.6-1.6v49zM86.32 165.733l1.415-1.414L195.426 272.01l-1.414 1.414z"/><path fill="#010202" d="M86.32 272.08l107.692-107.69 1.414 1.413L87.735 273.495z"/><circle fill="#010202" cx="33.8" cy="309.6" r="2.8"/><circle fill="#010202" cx="33.8" cy="129.6" r="2.8"/><path fill="#010202" d="M11.5 210.5h-2v-79.1C9.5 58.9 68.5 0 140.9 0s131.4 58.9 131.4 131.4v78.4h-2v-78.4C270.3 60 212.3 2 140.9 2S11.5 60 11.5 131.4v79.1zM140.9 438.5c-72.5 0-131.4-58.9-131.4-131.4v-78.5h2v78.5c0 71.3 58 129.4 129.4 129.4s129.4-58 129.4-129.4V228h2v79.1c0 72.5-58.9 131.4-131.4 131.4z"/><path fill="#010202" d="M193.6 200.1h6.4l1.4 25.3h.2l1.5-25.3h6.4l-4.2 37.4h-7.5l-4.2-37.4z"/><g><path fill="#010202" d="M136.3 186.5v-37.4h6.4v32.4h3.8v4.9h-10.2z"/></g><g><path fill="#010202" d="M72.4 200.1h6.4l1.4 25.3h.2l1.5-25.3h6.4L84 237.5h-7.5l-4.1-37.4z"/></g><g><path d="M68.2 69l-3.5 4.1-19-12.6 2.9-3.5 12 8.9L50 55.3l2.9-3.5L68.2 69zM79.2 58.6l-3.7 3.1-14.6-17.4 3.7-3.1 14.6 17.4zM91.8 50.1l-4.6 2.7-13.9-18.1 3.9-2.3 8.5 12.3L79 31.3l3.9-2.3 8.9 21.1zM110.1 42.1l-4.2 1.6-1.9-4.1-1.7.7 1.3 4.3-4.2 1.6L93.9 24l5.5-2.1 10.7 20.2zM98.6 28.2l2.5 8.5 1.2-.5-3.7-8zM135 34l2.9-.2.2 3.8-7.7.5-1.4-22.7 4.8-.3L135 34zM150.7 34.3l2.6.2-.3 3.8-7.4-.6 1.9-22.6 7.4.6-.3 3.6-2.6-.2-.4 4.7 2.6.2-.3 3.7-2.6-.2-.6 6.8zM180.1 45.7l-5-2 6-22 4.2 1.7-4.6 14.2 6.6-13.4 4.2 1.7-11.4 19.8zM195.4 49.6l2.3 1.4-2 3.2-6.3-3.9L201.3 31l6.3 3.9-1.9 3.1-2.3-1.4-2.5 4 2.3 1.4-1.9 3.2-2.3-1.4-3.6 5.8zM208.2 59.1l2.2 1.9-2.5 2.9-5.8-5L217 41.8l3.6 3.1-12.4 14.2zM225 73.3c-2.8 2.2-3.2 2.5-3.7 2.7-1 .5-2 .4-2.8-.2-.5-.4-1.1-1-2.4-2.7-1.4-1.8-1.8-2.4-2-3.1-.3-1.3.2-2.3 2-3.6l1-.8 1.2-.9 7.2-5.6 1.7-1.3c1.5-1.2 2-1.5 2.7-1.6.9-.2 1.7 0 2.5.8.4.4 1.1 1.2 1.9 2.3 1.9 2.4 2.2 3 2.1 4.1-.1.7-.4 1.3-1 1.9-.5.5-.9.8-3.1 2.5l-7.3 5.5zm-4.6-4.3l-.8.6c-.7.5-.8.9-.5 1.3.3.3.6.3 1.2-.1l.9-.7 8.8-6.9.8-.6c.5-.4.6-.8.4-1.1-.2-.3-.5-.4-.9-.2-.1.1-.5.4-1.1.8l-8.8 6.9z"/></g><g><path d="M50.2 384.6l-3.5-4.1 15.7-16.6 2.9 3.5-10.8 10.4 12.1-8.8 2.9 3.5-19.3 12.1zM63.4 397.3l-3.6-3.1L74.5 377l3.6 3.1-14.7 17.2zM78.5 407.8l-4.6-2.8 9.6-20.7 3.9 2.4-6.9 13.3 8.7-12.2 3.9 2.4-14.6 17.6zM99.6 417.7l-4.2-1.7 1.3-4.3-1.7-.7-2 4-4.2-1.7 11.1-20 5.5 2.2-5.8 22.2zm1-18l-3.9 7.9 1.2.5 2.7-8.4zM130.6 420.3l2.9.3-.4 3.8-7.6-.8 2.2-22.6 4.8.5-1.9 18.8zM148 420.7l2.6-.1.2 3.8-7.4.3-1-22.7 7.4-.3.2 3.6-2.6.1.2 4.7 2.6-.1.2 3.7-2.6.1.2 6.9zM183.9 417.3l-5.1 1.7-9.7-20.7 4.3-1.4 5.7 13.8-3.7-14.5 4.3-1.4 4.2 22.5zM198.8 406.5l2.3-1.2 1.8 3.3-6.6 3.5-10.5-20.1 6.6-3.5 1.7 3.2-2.3 1.2 2.2 4.2 2.3-1.2 1.7 3.3-2.3 1.2 3.1 6.1zM213.8 396.8l2.3-1.7 2.3 3.1-6.2 4.6-13.5-18.2 3.8-2.9 11.3 15.1zM229 378.5c2.6 2.4 2.9 2.7 3.3 3.3.6 1 .7 1.9.2 2.8-.3.6-.8 1.2-2.3 2.8-1.6 1.7-2.1 2.1-2.8 2.4-1.2.5-2.3.1-3.9-1.4l-.9-.9-1.1-1-6.6-6.2-1.5-1.4c-1.4-1.3-1.8-1.8-2-2.4-.4-.9-.2-1.7.4-2.6.3-.5 1-1.2 1.9-2.2 2.1-2.3 2.7-2.7 3.7-2.7.7 0 1.4.2 2 .8.6.5.9.8 3 2.7l6.6 6zm-3.6 5.1l.7.7c.6.6 1 .7 1.4.3.3-.3.2-.7-.3-1.2l-.8-.8-8.1-7.6-.7-.7c-.5-.5-.9-.5-1.2-.2-.2.2-.3.6 0 .9.1.1.4.5 1 1l8 7.6z"/></g><g><path fill="#010202" d="M32.8 132.3h2V308h-2z"/></g></svg>