<svg xmlns="http://www.w3.org/2000/svg" width="867.23" height="208.84" viewBox="0 0 867.23 208.84"><defs><style>.a,.b{fill:rgba(255,255,255,.3)}.b{opacity:.5}</style></defs><path class="a" d="M316.6 138.32c-5.33 18.11-21.94 33.24-47.73 33.24-28.76 0-54.12-20.67-54.12-56 0-33.45 24.71-55.18 51.56-55.18 32.38 0 51.77 20.67 51.77 54.33 0 4-.43 8.31-.43 8.74h-75c.64 13.85 12.36 23.86 26.42 23.86 13.21 0 20.45-6.6 23.86-16zM290.18 104c-.43-10.44-7.24-20.67-23.44-20.67-14.7 0-22.8 11.08-23.44 20.67zM355.5 115.74l-37.29-52.2h33.66c3.62 5.75 17.26 25.35 20.88 31.11l20.67-31.11h32.17l-36.65 51.35 37.92 53.48h-33.23l-21.95-32.17c-3.83 5.75-17.9 26.42-21.52 32.17h-32zM436.95 208.84V63.54h27.48v12.78c4.69-8.1 16.41-15.13 32.17-15.13 30.68 0 48.36 23.44 48.36 54.54 0 31.75-19.81 55.18-49.43 55.18-14.49 0-25.14-5.75-30.25-12.78v50.71zm54.12-122.3c-14.49 0-26.21 10.87-26.21 29.4s11.72 29.62 26.21 29.62 26-10.87 26-29.62c-.01-18.52-11.52-29.39-26.01-29.39zM663.85 116c0 32.17-23.65 55.61-55 55.61s-55-23.44-55-55.61c0-32.39 23.65-55.61 55-55.61s55 23.18 55 55.61zm-28.34 0c0-19.81-12.78-29.83-26.63-29.83s-26.63 10-26.63 29.83c0 19.6 12.78 29.83 26.63 29.83s26.64-10.06 26.64-29.83zM695.36 133.85c.64 8.31 6.82 16 19.17 16 9.38 0 13.85-4.9 13.85-10.44 0-4.69-3.2-8.52-11.29-10.23L703.24 126c-20.24-4.47-29.4-16.62-29.4-31.32 0-18.75 16.62-34.3 39.2-34.3 29.83 0 39.84 19 41.12 30.25l-23.65 5.33c-.85-6.18-5.33-14.06-17.26-14.06-7.46 0-13.42 4.47-13.42 10.44 0 5.11 3.83 8.31 9.59 9.37l14.91 3.2c20.67 4.22 31.11 16.79 31.11 32.09 0 17-13.21 34.52-40.69 34.52-31.53 0-42.4-20.45-43.68-32.39zM865.74 138.32c-5.33 18.11-21.95 33.24-47.73 33.24-28.76 0-54.12-20.67-54.12-56 0-33.45 24.71-55.18 51.56-55.18 32.39 0 51.77 20.67 51.77 54.33 0 4-.43 8.31-.43 8.74h-75c.64 13.85 12.36 23.86 26.42 23.86 13.21 0 20.45-6.6 23.86-16zM839.32 104c-.43-10.44-7.24-20.67-23.44-20.67-14.7 0-22.8 11.08-23.44 20.67z"/><circle class="b" cx="110.69" cy="72.59" r="72.59"/><path class="b" d="M134.25 117.41A67.14 67.14 0 1 1 69.34 52.5a67.14 67.14 0 0 1 64.91 64.91z"/><circle class="b" cx="134.28" cy="152.43" r="32.82"/></svg>