<?xml version="1.0" encoding="utf-8"?>
<!-- Generator: Adobe Illustrator 24.1.3, SVG Export Plug-In . SVG Version: 6.00 Build 0)  -->
<svg version="1.1" id="Capa_1" xmlns="http://www.w3.org/2000/svg" xmlns:xlink="http://www.w3.org/1999/xlink" x="0px" y="0px"
	 viewBox="0 0 60 60" style="enable-background:new 0 0 60 60;" xml:space="preserve">
<style type="text/css">
	.st0{fill:#FFFFFF;}
</style>
<path class="st0" d="M0,8.5v2.3v38.4v2.3h60v-2.3V10.8V8.5H0z M36.6,30.6L31.2,36c-0.7,0.6-1.7,0.6-2.3,0l-5.5-5.5l0,0l-19.8-20
	h52.7L36.6,30.6L36.6,30.6z M20.5,30.5L2,48.4V11.9L20.5,30.5z M21.9,32l5.5,5.5c0.7,0.7,1.6,1,2.5,1c0.9,0,1.9-0.3,2.6-1l5.5-5.5
	l18.2,17.6H3.7L21.9,32z M39.5,30.5L58,11.9v36.4L39.5,30.5z"/>
</svg>
