<svg xmlns="http://www.w3.org/2000/svg" viewBox="0 0 187.09 130.25"><title>chainwheel</title><path d="M64.42 26.38a39.29 39.29 0 1 0 39.29 39.29 39.33 39.33 0 0 0-39.29-39.29zm0 76.81a37.52 37.52 0 1 1 37.52-37.52 37.57 37.57 0 0 1-37.52 37.52z" fill="#bbb"/><path d="M107.53 65.05l-2.45-1.85A.77.77 0 0 1 105 62l2.15-2.19a.77.77 0 0 0-.18-1.22l-2.7-1.47A.77.77 0 0 1 104 56l1.8-2.49a.77.77 0 0 0-.36-1.18l-2.89-1a.77.77 0 0 1-.42-1.08l1.4-2.73a.77.77 0 0 0-.53-1.11l-3-.6a.77.77 0 0 1-.58-1l1-2.91a.77.77 0 0 0-.69-1l-3.07-.15a.77.77 0 0 1-.72-.9l.54-3a.77.77 0 0 0-.84-.9l-3.06.31a.77.77 0 0 1-.85-.79l.08-3.07a.77.77 0 0 0-1-.77l-3 .76a.77.77 0 0 1-1-.65l-.38-3a.77.77 0 0 0-.98-.74l-2.83 1.2a.77.77 0 0 1-1-.5l-.83-3a.77.77 0 0 0-1.14-.45L77 26.91a.77.77 0 0 1-1.11-.34l-1.26-2.8a.77.77 0 0 0-1.2-.27l-2.35 2a.77.77 0 0 1-1.14-.17l-1.67-2.58a.77.77 0 0 0-1.27-.12l-2 2.31a.77.77 0 0 1-1.16 0l-2-2.31a.77.77 0 0 0-1.23.09l-1.69 2.58a.77.77 0 0 1-1.14.17l-2.35-2a.77.77 0 0 0-1.2.27L53 26.57a.77.77 0 0 1-1.11.34l-2.65-1.61a.77.77 0 0 0-1.14.45l-.83 3a.77.77 0 0 1-1 .5L43.39 28a.77.77 0 0 0-1.06.62l-.38 3a.77.77 0 0 1-1 .65l-3-.76a.77.77 0 0 0-1 .77l.08 3.07a.77.77 0 0 1-.85.79l-3.06-.31a.77.77 0 0 0-.84.9l.54 3a.77.77 0 0 1-.72.9l-3.07.15a.77.77 0 0 0-.69 1l1 2.91a.77.77 0 0 1-.58 1l-3 .6a.77.77 0 0 0-.53 1.11l1.4 2.73a.77.77 0 0 1-.42 1.08l-2.89 1a.77.77 0 0 0-.32 1.34L24.83 56a.77.77 0 0 1-.26 1.13l-2.7 1.47a.77.77 0 0 0-.18 1.22L23.85 62a.77.77 0 0 1-.09 1.15L21.31 65a.77.77 0 0 0 0 1.23l2.45 1.85a.77.77 0 0 1 .09 1.15l-2.15 2.25a.77.77 0 0 0 .18 1.22l2.7 1.47a.77.77 0 0 1 .26 1.13L23 77.79a.77.77 0 0 0 .4 1.21l2.89 1a.77.77 0 0 1 .42 1.08l-1.4 2.73a.77.77 0 0 0 .53 1.11l3 .6a.77.77 0 0 1 .58 1l-1 2.91a.77.77 0 0 0 .69 1l3.07.15a.77.77 0 0 1 .72.9l-.54 3a.77.77 0 0 0 .84.9l3.06-.31a.77.77 0 0 1 .85.79L37.06 99a.77.77 0 0 0 1 .77L41 99a.77.77 0 0 1 1 .65l.38 3a.77.77 0 0 0 1.06.62l2.83-1.2a.77.77 0 0 1 1 .5l.83 3a.77.77 0 0 0 1.14.45l2.62-1.61a.77.77 0 0 1 1.11.34l1.26 2.8a.77.77 0 0 0 1.2.27l2.35-2a.77.77 0 0 1 1.14.17l1.67 2.58a.77.77 0 0 0 1.23.09l2-2.31a.77.77 0 0 1 1.16 0l2 2.31a.77.77 0 0 0 1.23-.09l1.71-2.57a.77.77 0 0 1 1.14-.17l2.35 2a.77.77 0 0 0 1.2-.27l1.26-2.8a.77.77 0 0 1 1.11-.34L79.6 106a.77.77 0 0 0 1.14-.45l.83-3a.77.77 0 0 1 1-.5l2.83 1.2a.77.77 0 0 0 1.06-.62l.38-3a.77.77 0 0 1 1-.65l3 .76a.77.77 0 0 0 1-.77l-.08-3.07a.77.77 0 0 1 .85-.79l3.06.31a.77.77 0 0 0 .84-.9l-.54-3a.77.77 0 0 1 .72-.9l3.07-.15a.77.77 0 0 0 .69-1l-1-2.91a.77.77 0 0 1 .58-1l3-.6a.77.77 0 0 0 .53-1.11l-1.4-2.73a.77.77 0 0 1 .42-1.08l2.89-1a.77.77 0 0 0 .36-1.18L104 75.3a.77.77 0 0 1 .26-1.13L107 72.7a.77.77 0 0 0 .18-1.22L105 69.29a.77.77 0 0 1 .09-1.15l2.45-1.85a.77.77 0 0 0-.01-1.24zM64.42 105a39.3 39.3 0 1 1 39.3-39.3 39.3 39.3 0 0 1-39.3 39.3z" fill="#bbb"/><path d="M64.51 86.24a8.28 8.28 0 0 1 7.25 4.18l5.66 9.81a6.81 6.81 0 0 1-4.76 10.12 49.68 49.68 0 0 1-16.3 0 6.81 6.81 0 0 1-4.76-10.12l5.66-9.81a8.28 8.28 0 0 1 7.25-4.18m0-4.12a12.37 12.37 0 0 0-10.82 6.25L48 98.18a10.93 10.93 0 0 0 7.65 16.24 53.8 53.8 0 0 0 17.66 0A10.93 10.93 0 0 0 81 98.18l-5.66-9.81a12.37 12.37 0 0 0-10.82-6.25zM94 33.88a9.34 9.34 0 0 1 7.74 4.1 49 49 0 0 1 .08 54.75 9.46 9.46 0 0 1-7.85 4.19h-.37a9.37 9.37 0 0 1-7.83-4.71L79.86 82a33.21 33.21 0 0 1 0-33.12l5.91-10.24a9.42 9.42 0 0 1 7.86-4.73H94m0-4.12h-.5a13.52 13.52 0 0 0-11.3 6.76l-5.92 10.24a37.35 37.35 0 0 0 0 37.24l5.92 10.25A13.47 13.47 0 0 0 93.46 101h.49a13.53 13.53 0 0 0 11.27-6 53.09 53.09 0 0 0-.08-59.37A13.4 13.4 0 0 0 94 29.76zM64.51 20.39a48.8 48.8 0 0 1 8.05.67 6.22 6.22 0 0 1 4.35 9.24l-5.66 9.81a7.78 7.78 0 0 1-13.48 0l-5.66-9.81a6.22 6.22 0 0 1 4.35-9.24 48.81 48.81 0 0 1 8.05-.67m0-4.71a53.53 53.53 0 0 0-8.83.73A10.93 10.93 0 0 0 48 32.65l5.66 9.81a12.49 12.49 0 0 0 21.64 0l5.7-9.81a10.93 10.93 0 0 0-7.65-16.24 53.53 53.53 0 0 0-8.83-.73zM35 34.47h.33a8.83 8.83 0 0 1 7.37 4.43l5.91 10.24a32.62 32.62 0 0 1 0 32.53l-5.86 10.25a8.83 8.83 0 0 1-7.37 4.43H35a8.64 8.64 0 0 1-7.26-3.84 48.38 48.38 0 0 1 0-54.21A8.64 8.64 0 0 1 35 34.47m0-4.71a13.41 13.41 0 0 0-11.15 5.91 53.09 53.09 0 0 0 0 59.49A13.41 13.41 0 0 0 35 101.07h.5a13.52 13.52 0 0 0 11.29-6.79L52.74 84a37.35 37.35 0 0 0 0-37.24l-5.91-10.21a13.52 13.52 0 0 0-11.28-6.79z" fill="#444"/><path d="M7.79 89.44a61.86 61.86 0 1 0-4.85-24 61.48 61.48 0 0 0 4.85 24zM31.7 29.76h.5a13.52 13.52 0 0 1 11.28 6.79l5.92 10.24a37.35 37.35 0 0 1 0 37.21l-5.91 10.28a13.55 13.55 0 0 1-22.94.88 53.09 53.09 0 0 1 0-59.49 13.41 13.41 0 0 1 11.15-5.91zm65.12 0h.5a13.4 13.4 0 0 1 11.15 5.91 53.09 53.09 0 0 1 .09 59.33 13.57 13.57 0 0 1-23-.76L79.62 84a37.35 37.35 0 0 1 0-37.24l5.91-10.24a13.52 13.52 0 0 1 11.29-6.75zm-49.21 81.89a10.94 10.94 0 0 1 .39-10.13l5.66-9.81a12.37 12.37 0 0 1 10.82-6.25 12.37 12.37 0 0 1 10.82 6.25l5.7 9.81a10.93 10.93 0 0 1-7.65 16.24 53.8 53.8 0 0 1-17.66 0 10.93 10.93 0 0 1-8.08-6.11zm33.81-92.46A10.94 10.94 0 0 1 81 29.31l-5.66 9.81a12.49 12.49 0 0 1-21.64 0L48 29.31a10.93 10.93 0 0 1 7.65-16.24 53.55 53.55 0 0 1 17.66 0 10.93 10.93 0 0 1 8.11 6.12z" fill="#c8c9cb"/><path d="M129.9 64.4l-3-2.33a.92.92 0 0 1-.08-1.37l2.7-2.7a.92.92 0 0 0-.17-1.44l-3.22-2a.92.92 0 0 1-.25-1.35l2.33-3a.92.92 0 0 0-.35-1.4l-3.44-1.55a.92.92 0 0 1-.41-1.31l1.99-3.12a.92.92 0 0 0-.51-1.35l-3.6-1.12a.92.92 0 0 1-.56-1.25l1.54-3.44a.92.92 0 0 0-.67-1.28l-3.71-.68a.92.92 0 0 1-.71-1.18l1.12-3.6a.92.92 0 0 0-.82-1.19l-3.76-.23a.92.92 0 0 1-.85-1.08l.68-3.71a.92.92 0 0 0-1-1.08l-3.76.23a.92.92 0 0 1-1-1l.23-3.76a.92.92 0 0 0-1.08-1l-3.71.68a.92.92 0 0 1-1.08-.85l-.23-3.76a.92.92 0 0 0-1.19-.82l-3.6 1.12a.92.92 0 0 1-1.18-.71l-.68-3.67a.92.92 0 0 0-1.28-.67L91.15 9a.92.92 0 0 1-1.25-.6l-1.12-3.6a.92.92 0 0 0-1.35-.51l-3.24 1.95a.92.92 0 0 1-1.31-.41l-1.55-3.44a.92.92 0 0 0-1.4-.39L77 4.38a.92.92 0 0 1-1.35-.25l-2-3.23a.92.92 0 0 0-1.44-.17L69.55 3.4a.92.92 0 0 1-1.37-.08l-2.33-3a.92.92 0 0 0-1.45 0l-3 3.78L58 .73a.92.92 0 0 0-1.4.17l-2 3.22a.92.92 0 0 1-1.35.25L50.32 2a.92.92 0 0 0-1.4.35l-1.55 3.48a.92.92 0 0 1-1.31.41l-3.23-1.95a.92.92 0 0 0-1.35.51l-1.13 3.6a.92.92 0 0 1-1.25.6l-3.44-1.58a.92.92 0 0 0-1.28.67l-.68 3.71a.92.92 0 0 1-1.18.71l-3.6-1.12a.92.92 0 0 0-1.19.82L27.51 16a.92.92 0 0 1-1.08.85l-3.71-.68a.92.92 0 0 0-1.08 1l.23 3.76a.92.92 0 0 1-1 1l-3.76-.23a.92.92 0 0 0-1 1.08l.68 3.71A.92.92 0 0 1 16 27.5l-3.76.23a.92.92 0 0 0-.82 1.19l1.12 3.6a.92.92 0 0 1-.71 1.18l-3.71.68a.92.92 0 0 0-.67 1.28L9 39.1a.92.92 0 0 1-.56 1.25L4.8 41.47a.92.92 0 0 0-.51 1.35l1.95 3.23a.92.92 0 0 1-.41 1.31l-3.44 1.56a.92.92 0 0 0-.39 1.4l2.33 3a.92.92 0 0 1-.25 1.35L.9 56.6A.92.92 0 0 0 .73 58l2.67 2.7a.92.92 0 0 1-.08 1.37l-3 2.33a.92.92 0 0 0 0 1.45l3 2.33a.92.92 0 0 1 .08 1.37L.73 72.21a.92.92 0 0 0 .17 1.44l3.22 2A.92.92 0 0 1 4.38 77L2 79.93a.92.92 0 0 0 .35 1.4l3.44 1.55a.92.92 0 0 1 .41 1.31l-1.91 3.23a.92.92 0 0 0 .51 1.35l3.6 1.13a.92.92 0 0 1 .6 1.25l-1.58 3.44a.92.92 0 0 0 .67 1.28l3.71.68a.92.92 0 0 1 .71 1.18l-1.12 3.6a.92.92 0 0 0 .82 1.19l3.76.23a.92.92 0 0 1 .85 1.08l-.68 3.71a.92.92 0 0 0 1 1.08l3.76-.23a.92.92 0 0 1 1 1l-.23 3.76a.92.92 0 0 0 1.08 1l3.71-.68a.92.92 0 0 1 1.08.85l.23 3.76a.92.92 0 0 0 1.19.82l3.6-1.12a.92.92 0 0 1 1.18.71l.68 3.71a.92.92 0 0 0 1.28.67l3.44-1.54a.92.92 0 0 1 1.25.56l1.12 3.6a.92.92 0 0 0 1.35.51l3.19-2a.92.92 0 0 1 1.31.41l1.55 3.44a.92.92 0 0 0 1.4.35l3-2.33a.92.92 0 0 1 1.35.25l2 3.22a.92.92 0 0 0 1.44.17l3.4-3.4 3 3.78a.92.92 0 0 0 1.45 0l2.33-3a.92.92 0 0 1 1.37-.08l2.66 2.67a.92.92 0 0 0 1.44-.17l2-3.22a.92.92 0 0 1 1.35-.25l3 2.33a.92.92 0 0 0 1.4-.35l1.55-3.44a.92.92 0 0 1 1.31-.41l3.06 2.03a.92.92 0 0 0 1.35-.51l1.12-3.6a.92.92 0 0 1 1.25-.56l3.44 1.54a.92.92 0 0 0 1.28-.67l.68-3.71a.92.92 0 0 1 1.18-.71l3.6 1.12a.92.92 0 0 0 1.19-.82l.23-3.76a.92.92 0 0 1 1.08-.85l3.71.68a.92.92 0 0 0 1.08-1l-.23-3.76a.92.92 0 0 1 1-1l3.76.23a.92.92 0 0 0 1-1.08l-.68-3.71a.92.92 0 0 1 .85-1.08l3.76-.23a.92.92 0 0 0 .82-1.19l-1.12-3.6a.92.92 0 0 1 .71-1.18l3.71-.68a.92.92 0 0 0 .67-1.28l-1.54-3.44a.92.92 0 0 1 .56-1.25l3.6-1.12a.92.92 0 0 0 .51-1.35L124 84.19a.92.92 0 0 1 .41-1.31l3.44-1.55a.92.92 0 0 0 .35-1.4l-2.33-3a.92.92 0 0 1 .25-1.35l3.22-2a.92.92 0 0 0 .17-1.44l-2.67-2.66a.92.92 0 0 1 .08-1.37l3-2.33a.92.92 0 0 0-.02-1.38zm-64.78 61.36a60.64 60.64 0 1 1 60.64-60.64 60.64 60.64 0 0 1-60.64 60.64z" fill="#a8aeb2"/><path d="M97.32 33.88a9.34 9.34 0 0 1 7.74 4.1 49 49 0 0 1 .08 54.75 9.46 9.46 0 0 1-7.85 4.19h-.35a9.37 9.37 0 0 1-7.83-4.71L83.2 82a33.21 33.21 0 0 1 0-33.12l5.91-10.24A9.42 9.42 0 0 1 97 33.89h.35m0-4.12h-.5a13.52 13.52 0 0 0-11.29 6.79l-5.94 10.23a37.35 37.35 0 0 0 0 37.24l5.91 10.24A13.47 13.47 0 0 0 96.8 101h.49a13.53 13.53 0 0 0 11.27-6 53.09 53.09 0 0 0-.08-59.37 13.4 13.4 0 0 0-11.15-5.91z" fill="#444"/><path d="M51.68 52.53h121.94a11.65 11.65 0 0 1 11.65 11.65v2.33a11.65 11.65 0 0 1-11.65 11.65H51.68V52.53z" fill="#c8c9cb"/><path d="M31.7 33.88h.35a9.42 9.42 0 0 1 7.86 4.73l5.91 10.24a33.21 33.21 0 0 1 0 33.12l-5.9 10.25a9.42 9.42 0 0 1-7.86 4.73h-.35a9.34 9.34 0 0 1-7.71-4.1A49 49 0 0 1 24 38a9.34 9.34 0 0 1 7.74-4.1m0-4.12a13.41 13.41 0 0 0-11.15 5.91 53.09 53.09 0 0 0 0 59.49 13.41 13.41 0 0 0 11.16 5.91h.5a13.52 13.52 0 0 0 11.29-6.79L49.4 84a37.35 37.35 0 0 0 0-37.24l-5.91-10.21a13.52 13.52 0 0 0-11.29-6.78z" fill="#444"/><path d="M174.1 52.47H72.19a10.46 10.46 0 0 1-9-5.22l-1.25-2.17a12.7 12.7 0 0 0 2.61.29 12.37 12.37 0 0 0 10.82-6.25L81 29.31a10.93 10.93 0 0 0-7.65-16.24 53.54 53.54 0 0 0-17.66 0A10.93 10.93 0 0 0 48 29.31l5.66 9.81c.07.13.17.24.25.37l5.66 9.81a14.6 14.6 0 0 0 12.61 7.28H174.1a8.86 8.86 0 0 1 0 17.73h-30.91l-7.75-5.41a20.82 20.82 0 0 0-9.58-2.71c-8.45-.29-25.67-.68-39.59.2a33.78 33.78 0 0 0-24.83 12.69 14.46 14.46 0 0 0-1.85 2.52L54.14 91c-.15.22-.31.43-.44.66l-5.7 9.86a10.93 10.93 0 0 0 7.65 16.24 53.8 53.8 0 0 0 17.66 0A10.93 10.93 0 0 0 81 101.52l-5.66-9.81a12.37 12.37 0 0 0-10.82-6.25 12.7 12.7 0 0 0-2.56.28l1.2-2.08a10.46 10.46 0 0 1 9-5.22H174.1a13 13 0 1 0 0-26zM51.6 27.25a6.81 6.81 0 0 1 4.76-10.12 49.42 49.42 0 0 1 16.3 0 6.81 6.81 0 0 1 4.76 10.12l-5.66 9.81a8.37 8.37 0 0 1-14.5 0zm12.91 62.33a8.28 8.28 0 0 1 7.25 4.18l5.66 9.81a6.81 6.81 0 0 1-4.76 10.12 49.68 49.68 0 0 1-16.3 0 6.81 6.81 0 0 1-4.76-10.12l5.66-9.81c.06-.11.14-.21.21-.31l.21-.37a8.26 8.26 0 0 1 6.83-3.5z" fill="#444"/></svg>