<svg xmlns="http://www.w3.org/2000/svg" viewBox="0 0 702.51 524.34"><defs><clipPath id="a"><path d="M544.71 162.26c-3-9.75-7-37.75-7-37.75L531 122.6l-4.5-8.67s-23 7.67-34.17 10.17-42.67 2.83-59 3.17-104-.67-154.67 4c-27.51 2.53-60 7.23-84 11-8.09 1.27-15.2 2.43-20.83 3.37-8.41 1.4-13.5 2.3-13.5 2.3s7.67 24.06 9.38 31.35c0 0 5.33 18-1.33 31.64-3.7 7.58-13.87 25.53-22.18 40-2.1 3.17-4.26 6.35-6.46 9.47-1.17 1.62-2.37 3.37-3.52 4.79l-.87 1.12-.22.28-.05.07s.06-.06 0 0l-.13.15-.52.61-2.08 2.42c-2.7 3.07-5.6 6.29-8.51 9.47L115 289c-11.77 12.87-23.56 25.8-34.24 38.39-5.34 6.3-10.42 12.49-15.06 18.62l-3.33 4.5-3.16 4.49c-2.08 2.95-4 5.77-5.88 8.54-7.4 11-13.07 20.46-17 27.12-1.94 3.34-3.43 6-4.45 7.8l-1.55 2.84 11.21 6.09 1.49-2.63c1-1.74 2.49-4.28 4.43-7.5 3.9-6.43 9.58-15.58 16.92-26.15 1.82-2.65 3.79-5.38 5.81-8.16l3.12-4.21 3.32-4.35c4.48-5.74 9.51-11.69 14.82-17.77 10.64-12.16 22.52-24.81 34.46-37.47l9-9.51c3-3.18 5.93-6.34 8.94-9.66l2.14-2.41.53-.6.13-.15.19-.22.28-.34 1.11-1.38c1.55-1.87 2.76-3.6 4.07-5.36 2.55-3.51 5-7 7.29-10.36 4.68-6.8 9.06-13.41 13.2-19.68l.22-.34a59.9 59.9 0 0 1 9.85-11.57l3.2-2.91 4.5-4.89 77.27 248.07 20.17-6.35-4-32.56-76.25-244.77c-2.41-18.65 12.48-22.1 17.09-22.66 1-.12 2-.28 3-.48 3.65-.73 14.42-2.56 42.11-5.5 37.24-4 124-5.25 164.5-4.5s64.5 7.25 69.25 16.75S489.46 199 489.46 199L302.21 404 284 428.93l9.6 30.82-5.6 1.74 2.2 5.75 221.5-234.47s3.5-10 7-14 12.25-3 12.25-3l30.75-10s-13.99-33.77-16.99-43.51z" fill="none"/></clipPath><clipPath id="b"><path d="M632.34 422.94a6.51 6.51 0 0 1-7.07-4.79c-1.25-4.7-3.1-11.64-4.67-17.54-2.67-10-21.71-51.42-31.71-67.42s-42.33-67-51.67-84.67c-6.76-12.79-14.39-19.64-18.09-22.45a2.82 2.82 0 0 1-.44-4.12 20.05 20.05 0 0 1 5.19-4.1c5.33-3 21.33-8 24-8.33s9-2 9-2 21.67 60.67 36 86 31.42 57.83 40.54 91.33a129.57 129.57 0 0 1 4.65 31.48 6.52 6.52 0 0 1-5.74 6.6z" fill="none"/></clipPath><clipPath id="c"><path d="M544.71 162.26c-3-9.75-7-37.75-7-37.75L531 122.6l-4.5-8.67s-23 7.67-34.17 10.17-42.67 2.83-59 3.17-104-.67-154.67 4c-27.51 2.53-60 7.23-84 11-8.09 1.27-15.2 2.43-20.83 3.37-8.41 1.4-13.5 2.3-13.5 2.3s7.67 24.06 9.38 31.35c0 0 5.33 18-1.33 31.64-3.7 7.58-13.87 25.53-22.18 40-2.1 3.17-4.26 6.35-6.46 9.47-1.17 1.62-2.37 3.37-3.52 4.79l-.87 1.12-.22.28-.05.07s.06-.06 0 0l-.13.15-.52.61-2.08 2.42c-2.7 3.07-5.6 6.29-8.51 9.47L115 289c-11.77 12.87-23.56 25.8-34.24 38.39-5.34 6.3-10.42 12.49-15.06 18.62l-3.33 4.5-3.16 4.49c-2.08 2.95-4 5.77-5.88 8.54-7.4 11-13.07 20.46-17 27.12-1.94 3.34-3.43 6-4.45 7.8l-1.55 2.84-4.72 9.61a5.21 5.21 0 0 0 3.61 7.4l260 57.62 1.93-9.69 220.56-233.48s3.5-10 7-14 12.25-3 12.25-3l30.75-10s-14-33.76-17-43.5zM43 404.83l.12-.22c1-1.73 2.47-4.24 4.37-7.4 3.9-6.43 9.58-15.58 16.92-26.15 1.82-2.65 3.79-5.38 5.81-8.16l3.12-4.21 3.32-4.35c4.48-5.74 9.51-11.69 14.82-17.77 10.64-12.16 22.52-24.81 34.46-37.47l9-9.51c3-3.18 5.93-6.34 8.94-9.66l2.14-2.41.53-.6.13-.15.19-.22.28-.34 1.11-1.38c1.55-1.87 2.76-3.6 4.07-5.36 2.55-3.51 5-7 7.29-10.36 4.68-6.8 9.06-13.41 13.2-19.68l.22-.34a59.87 59.87 0 0 1 9.84-11.56l3.2-2.91 4.5-4.89L261.65 448 45.46 409.62a3.38 3.38 0 0 1-2.46-4.8zm249.41 55.29l.51-2.55.68 2.18zM489.46 199L302.21 404 284 428.93l7.58 24.33-4.68-.83-2.9-23.5-76.25-244.77c-2.41-18.65 12.48-22.1 17.09-22.66 1-.12 2-.28 3-.48 3.65-.73 14.42-2.56 42.11-5.5 37.24-4 124-5.25 164.5-4.5s64.5 7.25 69.25 16.75S489.46 199 489.46 199z" fill="none"/></clipPath></defs><title>frame</title><path d="M166.27 163.57c-6.54 1.19-13.76 5.67-16.81 11.58a24.57 24.57 0 0 0-1.11 19.36c1.13 3.12 2.87 6.06 3.36 9.34.75 5-1.43 9.84-3.56 14.38" fill="none" stroke="#000" stroke-miterlimit="10" stroke-width="2"/><path fill="#333" stroke="#333" stroke-miterlimit="10" stroke-width="2" d="M392.21 305.9l-2.88-2.42M370.57 330.01l-2.89-2.42M253.66 325.72l-3.56 1.25M263.42 356.62l-3.55 1.25"/><path d="M592.21 75.38c2 14.63-4.6 29.69-15.46 39.69s-25.52 15.25-40.23 16.5" fill="none" stroke="#000" stroke-miterlimit="10" stroke-width="2"/><path d="M602.25 89.72c-11.45-.74-22.33 6.41-28.79 15.89s-9.17 21-10.9 32.33c-2.76 18-3.19 37.21 4.48 53.77.62 1.34 3.72 6.62 4.32 5.26" fill="none" stroke="#444" stroke-miterlimit="10" stroke-width="2"/><circle cx="631.7" cy="418.29" r="13" transform="translate(211.93 1049.01) rotate(-89.87)" fill="none" stroke="#333" stroke-miterlimit="10" stroke-width="2"/><path d="M636.65 406.26l-5 5-4.95-4.95a13 13 0 0 0-7.07 7.07l5 5-4.95 4.95a13 13 0 0 0 7.07 7.07l5-5 4.95 4.95a13 13 0 0 0 7.07-7.07l-5-5 4.95-4.95a13 13 0 0 0-7.07-7.07z" fill="#333"/><path d="M52.28 418.45c0 .93-2.07 1.69-2.2 2.59s1.63 2.23 1.38 3.1-2.44 1.09-2.8 1.92 1 2.57.53 3.35-2.64.41-3.2 1.13.3 2.74-.36 3.38-2.65-.28-3.38.27-.41 2.72-1.21 3.17-2.48-1-3.34-.62-1.1 2.52-2 2.75-2.14-1.57-3.06-1.46-1.71 2.15-2.64 2.14-1.69-2.07-2.59-2.2-2.23 1.63-3.1 1.38-1.09-2.44-1.92-2.8-2.57 1-3.35.53-.41-2.64-1.13-3.2-2.74.3-3.38-.36.28-2.65-.27-3.38-2.72-.41-3.17-1.21 1-2.48.62-3.34-2.52-1.1-2.75-2 1.57-2.14 1.46-3.06-2.15-1.71-2.14-2.64 2.07-1.69 2.2-2.59-1.63-2.23-1.38-3.1 2.44-1.09 2.8-1.92-1-2.57-.53-3.35 2.64-.41 3.2-1.13-.3-2.74.36-3.38 2.65.28 3.38-.27.41-2.72 1.21-3.17 2.48 1 3.34.62 1.1-2.52 2-2.75 2.14 1.57 3.06 1.46 1.71-2.15 2.64-2.14 1.69 2.07 2.59 2.2 2.23-1.63 3.1-1.38 1.09 2.44 1.92 2.8 2.57-1 3.35-.53.41 2.64 1.13 3.2 2.74-.3 3.38.36-.28 2.65.27 3.38 2.72.41 3.17 1.21-1 2.48-.62 3.34 2.52 1.1 2.75 2-1.57 2.14-1.46 3.06 2.15 1.71 2.14 2.64z" fill="#999"/><path d="M116.92 250a3.78 3.78 0 0 1 2.37.51l4.29 2.57 5.23 3.13 4.29 2.57a3.78 3.78 0 0 1 1.57 1.85l.13.32a2.37 2.37 0 0 1-.17 2.09 2.37 2.37 0 0 1-1.78 1.14h-.38a3.78 3.78 0 0 1-2.34-.52l-4.27-2.56-5.22-3.1-4.27-2.56a3.78 3.78 0 0 1-1.56-1.82l-.15-.36a2.37 2.37 0 0 1 .16-2.11 2.37 2.37 0 0 1 1.76-1.14zM146.19 239.57l-.93-.55a2.83 2.83 0 0 0-3.89 1l-3.1 5.18-3.64-2.2-3.63 6 5.29 3.17a2.83 2.83 0 0 0 3.26-.24l4.59-3.78a2.83 2.83 0 0 0 .63-.73l2.37-4a2.83 2.83 0 0 0-.95-3.85z" fill="#333"/><path fill="#ccc" d="M148.974 247.954l-3.33-1.991 1.992-3.33 3.33 1.991z"/><path fill="none" stroke="#bbb" stroke-linecap="round" stroke-miterlimit="10" stroke-width="4" d="M142.15 228.24l5.21-8.72"/><path fill="none" stroke="#333" stroke-miterlimit="10" stroke-width="4" d="M124.97 256.95l20.5-34.27"/><path fill="none" stroke="#ccc" stroke-linecap="round" stroke-miterlimit="10" stroke-width="2" d="M147.18 223.71l-3.65-2.18"/><rect x="121.7" y="250.52" width="6.63" height="13.37" rx="3.31" ry="3.31" transform="translate(100.27 542.12) rotate(-149.12)" fill="none" stroke="#ccc" stroke-miterlimit="10" stroke-width="2"/><circle cx="125.16" cy="257.08" r="1.98" transform="translate(-159.72 232.54) rotate(-59.12)" fill="none" stroke="#bbb" stroke-miterlimit="10"/><path d="M135.95 239l-5.15-3a2.83 2.83 0 0 0-3.89 1l-2.78 4.64a2.83 2.83 0 0 0 1 3.89l5.15 3.08zM591 234a3.78 3.78 0 0 0-2.42-.16l-4.83 1.29-5.88 1.58L573 238a3.78 3.78 0 0 0-2 1.35l-.21.28a2.37 2.37 0 0 0-.41 2.05 2.37 2.37 0 0 0 1.4 1.58l.36.14a3.78 3.78 0 0 0 2.39.15l4.81-1.29 5.88-1.58 4.81-1.29a3.78 3.78 0 0 0 2-1.32l.24-.3a2.37 2.37 0 0 0 .42-2.07 2.37 2.37 0 0 0-1.38-1.57zM565.67 216l1-.28a2.83 2.83 0 0 1 3.47 2l1.56 5.83 4.11-1.1 1.81 6.76-6 1.6a2.83 2.83 0 0 1-3.07-1.13l-3.38-4.89a2.83 2.83 0 0 1-.41-.88l-1.19-4.45a2.83 2.83 0 0 1 2.1-3.46z" fill="#333"/><path fill="#ccc" d="M559.676 219.532l3.748-1.004 1.004 3.748-3.748 1.004z"/><path fill="none" stroke="#bbb" stroke-linecap="round" stroke-miterlimit="10" stroke-width="4" d="M572.67 206.18l-2.63-9.81"/><path fill="none" stroke="#333" stroke-miterlimit="10" stroke-width="4" d="M581.33 238.49l-10.34-38.56"/><path fill="none" stroke="#ccc" stroke-linecap="round" stroke-miterlimit="10" stroke-width="2" d="M569.06 200.45l4.11-1.1"/><rect x="577.91" y="232.05" width="6.63" height="13.38" rx="3.31" ry="3.31" transform="translate(-41.99 158.56) rotate(-15)" fill="none" stroke="#ccc" stroke-miterlimit="10" stroke-width="2"/><circle cx="581.11" cy="238.57" r="1.98" transform="translate(-41.95 158.53) rotate(-15)" fill="none" stroke="#bbb" stroke-miterlimit="10"/><path d="M575.67 218.27l5.79-1.55a2.83 2.83 0 0 1 3.47 2l1.4 5.22a2.83 2.83 0 0 1-2 3.47l-5.79 1.59z" fill="#333"/><path d="M595.67 160.15c-1.33 0-34.67.28-34.67.28" fill="none" stroke="#ccc" stroke-linecap="round" stroke-miterlimit="10" stroke-width="18"/><path fill="none" stroke="#444" stroke-linecap="round" stroke-miterlimit="10" stroke-width="20" d="M584.48 78l38.32 3.68"/><path d="M544.71 162.26c-3-9.75-7-37.75-7-37.75L531 122.6l-4.5-8.67s-23 7.67-34.17 10.17-42.67 2.83-59 3.17-104-.67-154.67 4c-27.51 2.53-60 7.23-84 11-8.09 1.27-15.2 2.43-20.83 3.37-8.41 1.4-13.5 2.3-13.5 2.3s7.67 24.06 9.38 31.35c0 0 5.33 18-1.33 31.64-3.7 7.58-13.87 25.53-22.18 40-2.1 3.17-4.26 6.35-6.46 9.47-1.17 1.62-2.37 3.37-3.52 4.79l-.87 1.12-.22.28-.05.07s.06-.06 0 0l-.13.15-.52.61-2.08 2.42c-2.7 3.07-5.6 6.29-8.51 9.47L115 289c-11.77 12.87-23.56 25.8-34.24 38.39-5.34 6.3-10.42 12.49-15.06 18.62l-3.33 4.5-3.16 4.49c-2.08 2.95-4 5.77-5.88 8.54-7.4 11-13.07 20.46-17 27.12-1.94 3.34-3.43 6-4.45 7.8l-1.55 2.84-4.72 9.61a5.21 5.21 0 0 0 3.61 7.4l260 57.62 1.93-9.69 220.56-233.48s3.5-10 7-14 12.25-3 12.25-3l30.75-10s-14-33.76-17-43.5zM43 404.83l.12-.22c1-1.73 2.47-4.24 4.37-7.4 3.9-6.43 9.58-15.58 16.92-26.15 1.82-2.65 3.79-5.38 5.81-8.16l3.12-4.21 3.32-4.35c4.48-5.74 9.51-11.69 14.82-17.77 10.64-12.16 22.52-24.81 34.46-37.47l9-9.51c3-3.18 5.93-6.34 8.94-9.66l2.14-2.41.53-.6.13-.15.19-.22.28-.34 1.11-1.38c1.55-1.87 2.76-3.6 4.07-5.36 2.55-3.51 5-7 7.29-10.36 4.68-6.8 9.06-13.41 13.2-19.68l.22-.34a59.87 59.87 0 0 1 9.84-11.56l3.2-2.91 4.5-4.89L261.65 448 45.46 409.62a3.38 3.38 0 0 1-2.46-4.8zm241 24.11l-76.25-244.78c-2.41-18.65 12.48-22.1 17.09-22.66 1-.12 2-.28 3-.48 3.65-.73 14.42-2.56 42.11-5.5 37.24-4 124-5.25 164.5-4.5s64.5 7.25 69.25 16.75S489.46 199 489.46 199L302.21 404 284 428.93" fill="#2a292f"/><path d="M632.34 422.94a6.51 6.51 0 0 1-7.07-4.79c-1.25-4.7-3.1-11.64-4.67-17.54-2.67-10-21.71-51.42-31.71-67.42s-42.33-67-51.67-84.67c-6.76-12.79-14.39-19.64-18.09-22.45a2.82 2.82 0 0 1-.44-4.12 20.05 20.05 0 0 1 5.19-4.1c5.33-3 21.33-8 24-8.33s9-2 9-2 21.67 60.67 36 86 31.42 57.83 40.54 91.33a129.57 129.57 0 0 1 4.65 31.48 6.52 6.52 0 0 1-5.74 6.6z" fill="#2a292f"/><path d="M584 68.13l.52-.07-.83-5.88-4.07.57a1.21 1.21 0 0 0-1 1.36 2.55 2.55 0 0 1-1.15 2.47 13.81 13.81 0 0 0 3.47 24.69 2.55 2.55 0 0 1 1.79 2.06 1.21 1.21 0 0 0 1.36 1l4.07-.57-.82-5.76-.85.12a10.05 10.05 0 0 1-11.38-8.74A10.27 10.27 0 0 1 584 68.13z" fill="#333"/><path d="M584.9 68l-.52.07-.83-5.88 4.07-.57a1.21 1.21 0 0 1 1.36 1 2.55 2.55 0 0 0 1.79 2.06 13.81 13.81 0 0 1 3.47 24.69 2.55 2.55 0 0 0-1.15 2.47 1.21 1.21 0 0 1-1 1.36l-4.07.57-.85-5.77.85-.12a10.05 10.05 0 0 0 8.53-11.54A10.27 10.27 0 0 0 584.9 68z" fill="#333"/><path d="M584.48 78l38.31 3.68a14.17 14.17 0 0 1 8.69 4.11l12.64 12.69a14.17 14.17 0 0 1 3.78 13.12l-2.48 11a25.51 25.51 0 0 1-9.83 15L613.12 154a11.3 11.3 0 0 1-3.21 1.64c-4.09 1.32-14 4.49-15.09 4.49-1.33 0-34.67.28-34.67.28" fill="none" stroke="#444" stroke-miterlimit="10" stroke-width="20"/><path d="M579.8 90.4l-.46-3.25A11.31 11.31 0 0 1 577.08 71l-.45-3.22L510.79 77l-1-3L488 81.24l6.95 21.09 2.23 6.76 21.78-7.18-.86-2.84z" fill="#333"/><circle cx="494.03" cy="101.71" r="3.38" fill="#333"/><circle cx="489.21" cy="87.25" r="3.38" fill="#333"/><g fill="#333"><path d="M522.08 111.91l-20.7 6.81M525.87 114.34l-26.09 8.59.51-7.53 20.7-6.82 4.88 5.76z"/></g><g fill="#444"><path d="M519.95 105.44l-20.7 6.82M497.953 110.362l20.7-6.755 2.17 6.65-20.7 6.755z"/></g><path d="M692.2 132.8l-.41 6.49a.57.57 0 0 1-1 .35l-11.77-13a7.46 7.46 0 0 1 .5-9.22l5.14-5.85c1.53-1.75 3.42-4 3.22-6.36l-2.39-14.1s6.53 7.6 7 11 0 22.5 0 22.5" fill="#333"/><path d="M701 61.13s1.5 6.75-1.5 9.37-8 9.88-6.62 14.75 7.38 17.88 5.5 28.75-3.23 29.25-1.37 32.75a47.91 47.91 0 0 0 5.13 7.11 1.41 1.41 0 0 1-.24 2 1.41 1.41 0 0 1-2-.31c-2.25-3.14-8.24-11.82-8.24-15 0-3.87.95-25.5.32-30s-1-12.63-3.87-16-7.91-2.44-8.28-2.44-2.22-15.43-2.22-15.43L687.79 63z" fill="#ddd"/><circle cx="686.91" cy="86.13" r="1.42" fill="#333"/><path d="M628.63 74.56s23 1.75 33-2.62 12.75-8 13.88-12 3.13-8.37 9.13-7.37 15.13 5.88 15.75 7.38 1 2.63 1 2.63-4.87-.42-7.25 1.1-14.5 14-14.5 19.65.25 8.88.25 8.88-7.87-1.37-13.62 2.75-9.25 11-9.25 11a85.41 85.41 0 0 1-13.62-12c-6.77-7.4-14.77-19.4-14.77-19.4zM161.21 55.13a109 109 0 0 0-12.16-17 5.7 5.7 0 0 0-4.35-2h-32.26l2.43 4.4a11.32 11.32 0 0 0 7.73 5.61c6.3 6.59 13.07 14.48 16.71 21.09 6 10.94 19.66 56.88 26.84 83.26l24.12-6.56c-1.98-7.32-19.61-71.66-29.06-88.8z" fill="#333"/><path fill="none" stroke="#333" stroke-miterlimit="10" stroke-width="3" d="M143.52 39.59V19.34"/><path d="M157.13 83.41c-1.72.59-3.37-.11-4.39-2.31a29.27 29.27 0 0 1-1.61-5.25 3.31 3.31 0 0 1 .58-.27c1.5-.51 2.12.18 2.39.94s.56 2.09.87 3 .8 1.21 1.13 1.1.47-.62.35-1.46l-.33-2.32a3.24 3.24 0 0 1 2-3.76c1.61-.55 3.35.13 4.36 2.29a24.75 24.75 0 0 1 1.52 4.96 3 3 0 0 1-.56.26c-1.5.51-2.1-.17-2.36-.93-.2-.59-.4-1.53-.76-2.57s-.8-1.4-1.16-1.28-.39.6-.28 1.3l.32 2.2c.33 2.26-.56 3.59-2.05 4.1m-.58 4.35c-.92.32-1.58.13-2.2-1.67a4.31 4.31 0 0 1-.17-.66l12.25-4.18c.93-.32 2-.33 2.63 1.49a3.49 3.49 0 0 1 .16.7zm-2.22 9a3.51 3.51 0 0 0 .17 1.43 2 2 0 0 0 2 1.59l14.48 1.33a3.22 3.22 0 0 0-.13-1.26 2.35 2.35 0 0 0-2.4-1.76l-4.91-.35 4.59-5.55a5.42 5.42 0 0 0-.24-1.26 3.49 3.49 0 0 0-2.18-2.27l-5-2.17-3.44 4.29a2.61 2.61 0 0 0-.43 2.71 4.33 4.33 0 0 0 .85 1.5l3.92-5.09 3.37 1.52-4.8 6z" fill="#fff" opacity=".95"/><circle cx="143.41" cy="41.76" r="2.13" fill="#ccc"/><g clip-path="url(#a)"><path d="M196.83 141.57l14.67 53.67-24 32.67-54 72s-52 34.33-66 48.67-21.67 23.32-21.67 23.32l89-219.45z" fill="#6fd2f4"/></g><path d="M40.3 416.17l-9.37-7.3a6.88 6.88 0 0 0-9 .52 6.88 6.88 0 0 0-2 5.81l.43 3.22-.12 13.75 7.63.88s.08-7.87.85-8.5 11.58-8.38 11.58-8.38z" fill="#2a292f"/><circle cx="30.32" cy="418.17" r="4.5" transform="translate(-387.92 447.51) rotate(-89.87)" fill="#595f72" stroke="#a8aeb2" stroke-miterlimit="10" stroke-width="2"/><circle cx="30.06" cy="481.51" r="11.91" fill="#222"/><path d="M9.54 434.49l-6.86 6.86a9.15 9.15 0 0 0-2.51 4.7 9.15 9.15 0 0 0 .56 5.36L1.85 454a9.15 9.15 0 0 0 3.83 4.32l2.12 1.22 4.75-5.08L16 457l6-6.12z" fill="#2e2f34"/><path d="M21.4 452.39l-.25 1.78a2.83 2.83 0 0 1-3.28 2.39l-8-1.34" fill="none" stroke="#333" stroke-miterlimit="10" stroke-width="3"/><path d="M22 440.67l4.21-.16c0-1.39-.07-3.68-.07-3.68l-9.54-4.08-7 1.75-1 4a2.83 2.83 0 0 0 .75 2.71l7.06 7a2.82 2.82 0 0 0 1 .64l2.08-6.25a2.83 2.83 0 0 1 2.51-1.93z" fill="#ccc"/><g clip-path="url(#b)"><path fill="#6fd2f4" d="M613.97 331.03l-20.5 25.5 10.25 17.5 20.75-21.5-10.5-21.5z"/><path fill="#fff" d="M630.72 370.03l-20.5 25.5 10.25 31.67 26.42-4.49-16.17-52.68z"/></g><path d="M482.48 243.3c-1.83 2-5.52 6.55-8.73 3.65-6-5.4-3.37-9.79.71-14.29 1.28-1.42 4.67-2.57 6-1.37 4 3.57 5.87 7.77 2 12zM401 314.69c1.45-1.61 8.15-10.1 9.8-8.61 1.43 1.29 1.24 3.13-.12 4.64l-6.74 7.46-2.94-3.49zm66.89-64.24l2.24 2c3.84 3.47 9.4-.64 13-4.57 6.63-7.33 9.75-14.94 2.48-21.51-5.21-4.71-11.66 1.64-15.73 6.14-4.45 4.92-6.87 13.47-2 17.92zm-52.95 60.06c5.09-6.66-2-14.29-8.22-7.43l-12.16 13.44 11.92 15.38 4.3-4.79-4.78-5.92 4.24-4.74c1-1.06 8 .27 9.32 1l4.73-5.23-9.35-1.67zm21.48-40.28l-4.42 4.84 8.56 10.75c2.51 2.18 6.84.75 9-1.65l8.1-9-1.9-2.4c-1.74 1.93-3.23 3.9-4.73 5.45-3.63 3.78-5.6 3.91-8.46.14l-6.21-8.17zm-51.53 62.84l7.41 2.51-5.82 6.32-1.6-8.82zm3.61 18.69l-.66-6 8.1-9 4.4 1.85 4.7-5.16-20.95-5.36-3 3.36 3 25.16 4.39-4.85zm-56.8 39.53l5.69-6.3c2.56-2.84 3.42-2.34 4.94-1 1.16 1.05.2 3.54-.83 4.68l-6.17 6.8-3.63-4.21zm12.75-.6c3.06-3.39 5.5-9.28 2.24-12.23l-.75-.68c-3.68-3.33-8.41 1.79-11.84 5.59l-8.78 9.71 11.86 15.42 4.35-4.83-4.16-5.15 7.07-7.82zm26.05-47.6l-4.32 4.8 8.29 10.33-.61.69-16.13-1.68-4.73 5.23L364.75 378l4.47-4.92-9-11.05 17.78 1.31 4.21-4.72-11.71-15.53zM350 365.82l-4.39 4.85 11.76 15.5 4.44-4.89L350 365.82zm73.52-69.29c-4.83-5.32 6.74-15 8-16.67l-1.79-2.18-7.77 8.59c-5.58 6.17-6.57 13.74-.46 19.27 4.95 4.47 11.46-2.91 14.56-6.34l5.83-6.45-2.3-2.75-8.82 9.74c-1.94 2.15-3.53 1.56-5.73-.43l11.42-12.63-1.84-2.47-11.14 12.32zm28-43l-4.37 4.84 8.56 10.75c2.51 2.18 6.84.75 9-1.65l8.1-9-1.9-2.4c-1.74 1.93-3.23 3.9-4.73 5.45-3.63 3.78-5.6 3.91-8.46.14l-6.21-8.17z" fill="#fff" fill-rule="evenodd" opacity=".95"/><g clip-path="url(#c)"><path fill="#fff" d="M174.234 287.572l71.025-94.356 24.767 18.644-71.025 94.356z"/></g><circle cx="128.87" cy="33.94" r="7.22" fill="none" stroke="#ccc" stroke-miterlimit="10" stroke-width="2"/><path d="M90.52 27.84l6.72 8.06a5.67 5.67 0 0 0 5.17 2L142.5 32a17 17 0 0 0 5.69-1.9l22.32-12.19" fill="none" stroke="#ccc" stroke-miterlimit="10" stroke-width="4"/><path d="M185.74 4.14c-18.76-.61-37.29 3.75-56 4.23-19.63.5-38.56-2.8-57.87-5.82C64.57 1.4 56.19-.7 48.82.23c-4.26.53-8.45 4.21-5.43 8.21a1.71 1.71 0 0 0 .4.49 1.73 1.73 0 0 0 .66.43c13 7.7 24.28 19 38.3 24.85 13.14 5.5 26.11 2.69 39-2 6.95-2.53 13.81-5.37 21-7 8.49-1.94 17.29-2.08 26-2.44 8-.34 16.09-.63 24.13-.44s15.74 1.67 23.66 2.11a1.89 1.89 0 0 0 1.88-1.87c-.15-15.84-20.84-18.05-32.68-18.43z" fill="#333"/><circle cx="631.92" cy="418.21" r="4.5" transform="translate(212.23 1049.15) rotate(-89.87)" fill="#595f72" stroke="#a8aeb2" stroke-miterlimit="10" stroke-width="2"/><path d="M159.8 437l-.49 2.42-3.36-.69.5-2.45a.9.9 0 0 1 .9-.79l1.77.36a1 1 0 0 1 .68 1.14zm15.25 2.09l1.22.25a.89.89 0 0 1 .71 1l-.72 3.53a.89.89 0 0 1-1.06.69l-1.22-.25a.89.89 0 0 1-.7-1.05l.72-3.52a.9.9 0 0 1 1-.7zm-20.8-3.37l-1.16 5.67 2.13.44.34-1.68 3.42.7-.34 1.68 2.19.45 1.15-5.63a2 2 0 0 0-1.51-2.58l-4-.83c-1.16-.24-1.94.64-2.18 1.79zm24.12 8.93l.85-4.16a1.86 1.86 0 0 0-1.45-2.19l-3.68-.75a1.86 1.86 0 0 0-2.19 1.44l-.85 4.18a1.86 1.86 0 0 0 1.45 2.19l3.67.75a1.87 1.87 0 0 0 2.19-1.45zm-56.49-12.87h.1l2.91.6a.89.89 0 0 1 .67.94.83.83 0 0 1-1.06.84l-4.45-.91-.27 1.31 4.59.94 1 .21a2 2 0 0 0 .65 0 2 2 0 0 0 1.4-1.59c.05-.22.09-.41.14-.64.3-1.59 0-2.3-1.73-2.65l-2.51-.51a.82.82 0 0 1-.58-1.12c.2-.82.85-.58 1.55-.44l3.86.79.27-1.32-5.64-1.15a2.14 2.14 0 0 0-.57 0c-.8.12-1.29.91-1.52 1.87-.28 1.18-.11 2.55 1.18 2.87zm46.41 7.32l-1.06 5.18 2.21.45 1.16-5.66a2 2 0 0 0-1.69-2.59l-5.21-1.06-1.6 7.82 2.13.44 1.33-6.49 2.07.42c.76.16.78.89.65 1.5zM150 433.93c.45.17 1 .35.79 1.29l-1.11 5.45 2.15.44 1.09-5.35c.21-1.14.52-2.37-1.28-2.82l-8.34-1.7-1.6 7.81 2.17.44 1.33-6.52 1.84.38-1.33 6.52 2.11.43 1.34-6.54.85.17zm-10.73-3.52l-1.6 7.81 2.28.47 1.6-7.81-2.28-.47zm-7.14-1.41l-2.15-.44-1.6 7.82 2.15.44.36-1.75 3.22.66-.35 1.73 2.15.44 1.6-7.82-2.15-.44-.94 4.6-3.22-.66.94-4.59z" fill="#fff" fill-rule="evenodd" opacity=".95"/><path d="M33.56 398.92c-5.36 0-10.8 0-15.95 1.51S7.54 405 5.15 409.84a17.93 17.93 0 0 0-.79 12.92 31.73 31.73 0 0 0 6.56 11.4" fill="none" stroke="#000" stroke-miterlimit="10"/><circle cx="489.21" cy="87.25" r="1.42" fill="#333" stroke="#ccc" stroke-linecap="round" stroke-miterlimit="10"/><circle cx="494.03" cy="101.71" r="1.42" fill="#333" stroke="#ccc" stroke-linecap="round" stroke-miterlimit="10"/><g><path d="M311.26 348.51S298 317.87 293 312.82c-3-3-9.31-6.31-13.84-8.44a5.67 5.67 0 0 0-7.57 2.77l-11.78 23 10.91 32.14s-.89-27.26 3.06-35.9 5.45-10.7 5.45-10.7 10.29 1.41 15.36 7.22 14.58 24.28 14.58 24.28z" fill="#333"/><path fill="#fff" d="M308.22 341.33l5.41 11.7-1.85.78-5.38-11.64 1.82-.84z"/><path d="M270.22 373.61a59.74 59.74 0 0 1-6-12.65c-3.75-11.2-11-33-12.26-38.44-1.34-5.69-2-16-2.23-20.39l-.45-4.26a.5.5 0 0 1 1-.1l.26 2.53a29.93 29.93 0 0 0 1.46 6.61l23 66.84a2.83 2.83 0 0 0 1.87 1.79l3.71 1.11a.5.5 0 1 1-.29 1l-7.76-2.32a3.86 3.86 0 0 1-2.32-1.69z" fill="#333"/></g><g><path d="M326.18 303.06s24.83-22.33 31.5-24.83c4-1.5 11.09-1.86 16.1-1.91a5.67 5.67 0 0 1 5.73 5.67l1.13 25.81-23.3 24.68s12.17-24.41 12.17-33.91-.5-12-.5-12-9.94-3-17 .17-23.36 16-23.36 16z" fill="#333"/><path fill="#fff" d="M331.94 297.8l-9.79 8.38 1.35 1.48 9.75-8.34-1.31-1.52z"/><path d="M353.05 343a59.74 59.74 0 0 0 10.69-9c8.07-8.62 23.73-25.44 27.16-29.84 3.59-4.62 8.46-13.67 10.52-17.6l2.18-3.69a.5.5 0 0 0-.86-.51l-1.3 2.19a29.93 29.93 0 0 1-4.08 5.4l-48.72 51.21a2.83 2.83 0 0 1-2.45.85l-3.83-.54a.5.5 0 1 0-.14 1l8 1.12a3.86 3.86 0 0 0 2.81-.58z" fill="#333"/></g><path d="M28.9 432.15h-.56l-1-.15a1.77 1.77 0 0 0-1-.73 3 3 0 0 0-.78 0h-.28a4 4 0 0 1-1-.18l-.19-.08a4.23 4.23 0 0 1-.81-.52 1.58 1.58 0 0 1-.3-.32 2.37 2.37 0 0 0-.61-.61 1.77 1.77 0 0 0-1.19-.23l-.45-.33-.74-.67a1.82 1.82 0 0 0-.42-1.14 2.43 2.43 0 0 0-.64-.44l-.24-.16a4.18 4.18 0 0 1-.72-.67v-.07l-.07-.11a4.22 4.22 0 0 1-.4-.87 1.75 1.75 0 0 1-.08-.43 2.37 2.37 0 0 0-.18-.85 1.79 1.79 0 0 0-.88-.84l-.19-.52c-.11-.34-.19-.67-.26-1a1.84 1.84 0 0 0 .26-1.19 2.09 2.09 0 0 0-.3-.72 1.26 1.26 0 0 1-.12-.26 4.15 4.15 0 0 1-.22-1v-.2a3.13 3.13 0 0 1 .15-1 3.47 3.47 0 0 1 .16-.41 3.75 3.75 0 0 0 .31-.81 1.77 1.77 0 0 0-.29-1.18c0-.17.09-.36.14-.54a6.67 6.67 0 0 1 .29-1 1.6 1.6 0 0 0 .85-.85 2 2 0 0 0 .16-.76v-.29a2.77 2.77 0 0 1 .34-.92l.1-.18a2.32 2.32 0 0 1 .26-.37 2.59 2.59 0 0 1 .35-.33 3.49 3.49 0 0 1 .36-.25 4 4 0 0 0 .69-.52 1.67 1.67 0 0 0 .4-1.15l.41-.38a8.86 8.86 0 0 1 .76-.65 1.55 1.55 0 0 0 1.18-.26 2 2 0 0 0 .55-.54l.18-.22a2.66 2.66 0 0 1 .78-.6l.18-.09a2.46 2.46 0 0 1 .92-.27 3.52 3.52 0 0 1 .44 0 3.7 3.7 0 0 0 .86-.07 1.57 1.57 0 0 0 1-.75c.18 0 .36-.07.56-.09s.66-.11.95-.13a1.76 1.76 0 0 0 .56.32 1.48 1.48 0 0 0 .63.11 1.87 1.87 0 0 0 .31-.06 3.83 3.83 0 0 0 .52-.16l.3-.1a4.91 4.91 0 0 1 1.06-.2h.23a4.92 4.92 0 0 1 1.05.08 4.22 4.22 0 0 1 .46.13 2.86 2.86 0 0 0 .94.18 1.76 1.76 0 0 0 1.21-.53h1.69a1.76 1.76 0 0 0 1.24.46 2.53 2.53 0 0 0 .84-.21l.3-.1a4.92 4.92 0 0 1 1.06-.2h.22a5 5 0 0 1 1 .08 4.26 4.26 0 0 1 .46.13 2.89 2.89 0 0 0 .95.18 1.76 1.76 0 0 0 1.21-.53h1.69a1.76 1.76 0 0 0 1.24.46 2.53 2.53 0 0 0 .84-.21l.3-.1a4.91 4.91 0 0 1 1.06-.2h.22a5 5 0 0 1 1 .08 4.26 4.26 0 0 1 .46.13 2.89 2.89 0 0 0 .95.18 1.76 1.76 0 0 0 1.21-.53h1.68a1.76 1.76 0 0 0 1.24.46 2.53 2.53 0 0 0 .84-.21l.3-.1a4.92 4.92 0 0 1 1.06-.2h.22a5 5 0 0 1 1 .08 4.26 4.26 0 0 1 .46.13 2.89 2.89 0 0 0 .95.18 1.76 1.76 0 0 0 1.47-.78h1.68a1.76 1.76 0 0 0 1.24.46 2.53 2.53 0 0 0 .84-.21l.3-.1a4.91 4.91 0 0 1 1.06-.2h.22a5 5 0 0 1 1 .08 4.26 4.26 0 0 1 .46.13 2.89 2.89 0 0 0 .95.18 1.76 1.76 0 0 0 1.21-.53h1.69a1.76 1.76 0 0 0 1.24.46 2.53 2.53 0 0 0 .84-.21l.3-.1a4.92 4.92 0 0 1 1.06-.2h.22a5 5 0 0 1 1 .08 4.26 4.26 0 0 1 .46.13 2.89 2.89 0 0 0 .95.18 1.76 1.76 0 0 0 1.21-.53h1.69a1.76 1.76 0 0 0 1.24.46 2.53 2.53 0 0 0 .84-.21l.3-.1a4.91 4.91 0 0 1 1.06-.2h.22a5 5 0 0 1 1 .08 4.26 4.26 0 0 1 .46.13A2.89 2.89 0 0 0 89 402a1.76 1.76 0 0 0 1.21-.53h1.68a1.76 1.76 0 0 0 1.24.46 2.53 2.53 0 0 0 .84-.21l.3-.1a4.92 4.92 0 0 1 1.06-.2h.22a5 5 0 0 1 1 .08 4.26 4.26 0 0 1 .46.13 2.89 2.89 0 0 0 .95.18 1.76 1.76 0 0 0 1.21-.53h1.68a1.76 1.76 0 0 0 1.24.46 2.53 2.53 0 0 0 .84-.21l.3-.1a4.91 4.91 0 0 1 1.06-.2h.22a5 5 0 0 1 1 .08 4.26 4.26 0 0 1 .46.13 2.89 2.89 0 0 0 .95.18 1.76 1.76 0 0 0 1.21-.53h1.69a1.76 1.76 0 0 0 1.24.46 2.53 2.53 0 0 0 .84-.21l.3-.1a4.92 4.92 0 0 1 1.06-.2h.22a5 5 0 0 1 1 .08 4.26 4.26 0 0 1 .46.13 2.89 2.89 0 0 0 .95.18 1.76 1.76 0 0 0 1.21-.53h1.69a1.76 1.76 0 0 0 1.24.46 2.53 2.53 0 0 0 .84-.21l.3-.1a4.91 4.91 0 0 1 1.06-.2h.22a5 5 0 0 1 1 .08 4.26 4.26 0 0 1 .46.13 2.89 2.89 0 0 0 .95.18 1.76 1.76 0 0 0 1.21-.53h1.68a1.76 1.76 0 0 0 1.24.46 2.53 2.53 0 0 0 .84-.21l.3-.1a4.92 4.92 0 0 1 1.06-.2h.22a5 5 0 0 1 1 .08 4.26 4.26 0 0 1 .46.13 2.89 2.89 0 0 0 .95.18 1.76 1.76 0 0 0 1.21-.53h1.68a1.76 1.76 0 0 0 1.24.46 2.53 2.53 0 0 0 .84-.21l.3-.1a4.91 4.91 0 0 1 1.06-.2h.22a5 5 0 0 1 1 .08 4.25 4.25 0 0 1 .46.13 2.89 2.89 0 0 0 .95.18 1.76 1.76 0 0 0 1.21-.53h1.69a1.76 1.76 0 0 0 1.24.46 2.53 2.53 0 0 0 .84-.21l.3-.1a4.92 4.92 0 0 1 1.06-.2h.22a5 5 0 0 1 1 .08 4.26 4.26 0 0 1 .46.13 2.89 2.89 0 0 0 .95.18 1.76 1.76 0 0 0 1.21-.53h1.68a1.76 1.76 0 0 0 1.24.46 2.53 2.53 0 0 0 .84-.21l.3-.1a4.91 4.91 0 0 1 1.06-.2h.92a5 5 0 0 1 1 .08 4.25 4.25 0 0 1 .46.13 2.89 2.89 0 0 0 .95.18 1.76 1.76 0 0 0 1.21-.53h1.68a1.76 1.76 0 0 0 1.24.46 2.53 2.53 0 0 0 .84-.21l.3-.1a4.92 4.92 0 0 1 1.06-.2h.26a5 5 0 0 1 1 .08 4.26 4.26 0 0 1 .46.13 2.89 2.89 0 0 0 .95.18 1.76 1.76 0 0 0 1.21-.53h1.68a1.76 1.76 0 0 0 1.24.46 2.53 2.53 0 0 0 .84-.21l.3-.1a4.91 4.91 0 0 1 1.06-.2h.22a5 5 0 0 1 1 .08 4.25 4.25 0 0 1 .46.13 2.89 2.89 0 0 0 .95.18 1.76 1.76 0 0 0 1.21-.53h1.69a1.76 1.76 0 0 0 1.24.46 2.53 2.53 0 0 0 .84-.21l.3-.1a4.92 4.92 0 0 1 1.06-.2h.22a5 5 0 0 1 1 .08 4.26 4.26 0 0 1 .46.13 2.89 2.89 0 0 0 .95.18 1.76 1.76 0 0 0 1.21-.53h1.68a1.76 1.76 0 0 0 1.24.46 2.53 2.53 0 0 0 .84-.21l.3-.1a4.91 4.91 0 0 1 1.06-.2h.22a5 5 0 0 1 1 .08 4.25 4.25 0 0 1 .46.13 2.89 2.89 0 0 0 .95.18 1.76 1.76 0 0 0 1.21-.53h1.68a1.76 1.76 0 0 0 1.24.46 2.53 2.53 0 0 0 .84-.21l.3-.1a4.92 4.92 0 0 1 1.06-.2h.22a5 5 0 0 1 1 .08 4.26 4.26 0 0 1 .46.13 2.89 2.89 0 0 0 .95.18 1.76 1.76 0 0 0 1.21-.53h1.68a1.76 1.76 0 0 0 1.24.46 2.53 2.53 0 0 0 .84-.21l.3-.1a4.91 4.91 0 0 1 1.06-.2h.22a5 5 0 0 1 1 .08 4.25 4.25 0 0 1 .46.13 2.89 2.89 0 0 0 .95.18 1.76 1.76 0 0 0 1.21-.53h1.69a1.76 1.76 0 0 0 1.24.46 2.53 2.53 0 0 0 .84-.21l.3-.1a4.92 4.92 0 0 1 1.06-.2h.22a5 5 0 0 1 1 .08 4.26 4.26 0 0 1 .46.13 2.89 2.89 0 0 0 .95.18 1.76 1.76 0 0 0 1.21-.53h1.68a1.76 1.76 0 0 0 1.24.46 2.53 2.53 0 0 0 .84-.21l.3-.1a4.91 4.91 0 0 1 1.06-.2h.22a5 5 0 0 1 1 .08 4.25 4.25 0 0 1 .46.13 2.89 2.89 0 0 0 .95.18 1.76 1.76 0 0 0 1.21-.53h1.68a1.76 1.76 0 0 0 1.24.46 2.53 2.53 0 0 0 .84-.21l.3-.1a4.92 4.92 0 0 1 1.06-.2h.22a5 5 0 0 1 1 .08 4.26 4.26 0 0 1 .46.13 2.89 2.89 0 0 0 .95.18 1.76 1.76 0 0 0 1.21-.53H245a1.76 1.76 0 0 0 1.24.46 2.53 2.53 0 0 0 .84-.21l.3-.1a4.91 4.91 0 0 1 1.06-.2h.22a5 5 0 0 1 1 .08 4.26 4.26 0 0 1 .46.13 2.89 2.89 0 0 0 .95.18 1.76 1.76 0 0 0 1.21-.53h1.68a1.76 1.76 0 0 0 1.24.46 2.53 2.53 0 0 0 .84-.21l.3-.1a4.92 4.92 0 0 1 1.06-.2h.22a5 5 0 0 1 1 .08 4.26 4.26 0 0 1 .46.13 2.89 2.89 0 0 0 .95.18 1.76 1.76 0 0 0 1.21-.53h1.68a1.76 1.76 0 0 0 1.24.46 2.53 2.53 0 0 0 .84-.21l.3-.1a4.91 4.91 0 0 1 1.06-.2h.22a5 5 0 0 1 1 .08 4.26 4.26 0 0 1 .46.13 2.89 2.89 0 0 0 .95.18 1.76 1.76 0 0 0 1.21-.53h1.68a1.76 1.76 0 0 0 1.24.46 2.55 2.55 0 0 0 .84-.21l.3-.1a4.94 4.94 0 0 1 1.06-.2h.22a5 5 0 0 1 1 .08 4.26 4.26 0 0 1 .46.13 2.89 2.89 0 0 0 .95.18 1.79 1.79 0 0 0 1.22-.53h1.68a1.74 1.74 0 0 0 1.23.46 2.55 2.55 0 0 0 .84-.21l.3-.1a4.23 4.23 0 0 1 1-.15h.22a4.7 4.7 0 0 1 1 .14 4 4 0 0 1 .44.15 3.38 3.38 0 0 0 .9.24 1.69 1.69 0 0 0 1.23-.4h.59c.38 0 .75.06 1.06.09a1.74 1.74 0 0 0 1.13.64 2.42 2.42 0 0 0 .84-.08l.3-.06a3.74 3.74 0 0 1 1.06 0h.22a4.76 4.76 0 0 1 1 .29 4.06 4.06 0 0 1 .42.21 2.73 2.73 0 0 0 .86.36 1.77 1.77 0 0 0 1.27-.23l.58.13 1 .24a1.85 1.85 0 0 0 1 .78 2.41 2.41 0 0 0 .84 0H302a4.73 4.73 0 0 1 1.05.12l.21.06a4.76 4.76 0 0 1 .93.43 4 4 0 0 1 .38.27 2.75 2.75 0 0 0 .8.49 1.85 1.85 0 0 0 1.29-.05l.55.22 1 .39a1.83 1.83 0 0 0 .91.91 2.4 2.4 0 0 0 .82.17h.31a4.72 4.72 0 0 1 1 .27l.2.09a3.9 3.9 0 0 1 .87.56 4.08 4.08 0 0 1 .34.33 2.75 2.75 0 0 0 .72.6 1.84 1.84 0 0 0 1.29.13l.51.3.92.53a1.76 1.76 0 0 0 .78 1 2.4 2.4 0 0 0 .79.29l.3.08a4.71 4.71 0 0 1 1 .42l.19.11a3.62 3.62 0 0 1 .78.67 4.08 4.08 0 0 1 .29.37 2.76 2.76 0 0 0 .63.7 1.8 1.8 0 0 0 1.27.3l.47.37.83.65a1.71 1.71 0 0 0 .63 1.13 2.39 2.39 0 0 0 .74.4l.28.12a4.71 4.71 0 0 1 .9.55l.17.14a3.48 3.48 0 0 1 .68.77 4.11 4.11 0 0 1 .23.41 2.76 2.76 0 0 0 .52.78 1.77 1.77 0 0 0 1.21.48l.41.43.73.77a1.69 1.69 0 0 0 .46 1.2 2.44 2.44 0 0 0 .67.5l.26.16a4.7 4.7 0 0 1 .81.68l.15.16a3.62 3.62 0 0 1 .57.85 4.09 4.09 0 0 1 .17.44 2.76 2.76 0 0 0 .41.85 1.74 1.74 0 0 0 1.13.64l.35.48.61.86a1.69 1.69 0 0 0 .29 1.26 2.71 2.71 0 0 0 .6.58l.24.19a4.7 4.7 0 0 1 .7.79l.12.18a3.82 3.82 0 0 1 .45.92 4.11 4.11 0 0 1 .1.46 2.77 2.77 0 0 0 .28.9 1.73 1.73 0 0 0 1 .8c.09.17.19.34.28.53l.48.94a1.69 1.69 0 0 0 .1 1.29 3 3 0 0 0 .52.66l.21.23a4.7 4.7 0 0 1 .58.88l.1.2a4.58 4.58 0 0 1 .32 1 4.11 4.11 0 0 1 0 .47 2.78 2.78 0 0 0 .15.93 1.72 1.72 0 0 0 .89.93l.22.56.34 1a1.7 1.7 0 0 0-.09 1.29 2.9 2.9 0 0 0 .43.72l.17.25a4.69 4.69 0 0 1 .45 1l.07.21a4.71 4.71 0 0 1 .17 1 2.61 2.61 0 0 1 0 .47 2.78 2.78 0 0 0 0 .94 1.71 1.71 0 0 0 .75 1.06l.13.58c.07.37.14.73.2 1a1.71 1.71 0 0 0-.28 1.27 2.44 2.44 0 0 0 .33.78 2.65 2.65 0 0 1 .14.27 4.66 4.66 0 0 1 .3 1v.22a4.74 4.74 0 0 1 0 1 4 4 0 0 1-.08.46 3.48 3.48 0 0 0-.12.93 1.7 1.7 0 0 0 .58 1.15v.59c0 .37.06.74.07 1.05a1.73 1.73 0 0 0-.47 1.22 2.43 2.43 0 0 0 .2.82l.1.29a3.53 3.53 0 0 1 .17 1v.22a4.75 4.75 0 0 1-.14 1 4 4 0 0 1-.15.44 2.73 2.73 0 0 0-.23.91 1.74 1.74 0 0 0 .41 1.22v.59l-.08 1.05a1.86 1.86 0 0 0-.62 1.14 2.41 2.41 0 0 0 .08.84l.06.3a4.73 4.73 0 0 1 0 1.06v.28a4.76 4.76 0 0 1-.26.89 4 4 0 0 1-.21.42 2.75 2.75 0 0 0-.36.86 1.86 1.86 0 0 0 .25 1.27c0 .19-.09.38-.14.58l-.24 1a1.77 1.77 0 0 0-.76 1 2.4 2.4 0 0 0 0 .84v.31a4.71 4.71 0 0 1-.12 1l-.05.21a3.51 3.51 0 0 1-.41.94 4.1 4.1 0 0 1-.27.38 2.76 2.76 0 0 0-.49.8 1.77 1.77 0 0 0 .08 1.3l-.06.32-.39 1a1.69 1.69 0 0 0-.9.93 2.52 2.52 0 0 0-.17.82v.31a4.7 4.7 0 0 1-.27 1l-.09.2a3.68 3.68 0 0 1-.53.88 4.09 4.09 0 0 1-.33.34 2.77 2.77 0 0 0-.6.72 1.73 1.73 0 0 0-.11 1.29c-.09.17-.18.35-.29.52l-.53.92a1.69 1.69 0 0 0-1 .79 2.92 2.92 0 0 0-.28.79l-.08.3a4.69 4.69 0 0 1-.42 1l-.11.19a4.22 4.22 0 0 1-.65.8 4.12 4.12 0 0 1-.37.29 2.77 2.77 0 0 0-.7.63 1.73 1.73 0 0 0-.29 1.27l-.36.48-.65.83a1.7 1.7 0 0 0-1.13.63 3.09 3.09 0 0 0-.38.75l-.12.28a4.69 4.69 0 0 1-.55.9l-.14.17a4.74 4.74 0 0 1-.75.7 4 4 0 0 1-.41.23 2.78 2.78 0 0 0-.78.52 1.72 1.72 0 0 0-.47 1.2l-.42.43-.77.73a1.7 1.7 0 0 0-1.21.47 3 3 0 0 0-.48.69l-.16.26a4.69 4.69 0 0 1-.68.81l-.16.15a4.73 4.73 0 0 1-.85.59 2.75 2.75 0 0 1-.44.17 2.78 2.78 0 0 0-.85.41 1.72 1.72 0 0 0-.64 1.13l-.47.37-.86.61a1.7 1.7 0 0 0-1.26.29 2.78 2.78 0 0 0-.57.62l-.19.24a4.68 4.68 0 0 1-.78.7l-.18.12a4.72 4.72 0 0 1-.92.46 2.58 2.58 0 0 1-.45.12 2.78 2.78 0 0 0-.9.28 1.72 1.72 0 0 0-.79 1l-.51.3-.94.49a1.71 1.71 0 0 0-1.29.11 2.45 2.45 0 0 0-.65.54l-.22.21a4.67 4.67 0 0 1-.88.58l-.2.1a4.72 4.72 0 0 1-1 .32 4 4 0 0 1-.46.06 2.85 2.85 0 0 0-.93.15 1.71 1.71 0 0 0-.93.9l-.55.22-1 .36a1.72 1.72 0 0 0-1.3-.09 2.44 2.44 0 0 0-.72.44l-.25.19a4.65 4.65 0 0 1-1 .45l-.21.07a4.74 4.74 0 0 1-1 .17 4 4 0 0 1-.47 0 3.47 3.47 0 0 0-.94 0 1.7 1.7 0 0 0-1.05.75l-.58.13c-.37.09-.73.17-1 .22a1.73 1.73 0 0 0-1.27-.27 2.43 2.43 0 0 0-.78.33l-.27.15a3.52 3.52 0 0 1-1 .32h-.22a4.75 4.75 0 0 1-1 0 4 4 0 0 1-.46-.08 2.86 2.86 0 0 0-.93-.09 1.68 1.68 0 0 0-1.15.58h-.59l-1.05.08a1.82 1.82 0 0 0-1.22-.45 2.42 2.42 0 0 0-.82.2l-.29.1a4.74 4.74 0 0 1-1 .2h-.22a4.39 4.39 0 0 1-1-.12 3.65 3.65 0 0 1-.44-.15 2.88 2.88 0 0 0-.91-.23 1.74 1.74 0 0 0-1.22.43h-.6l-1.06-.09a1.74 1.74 0 0 0-1.14-.6 2.5 2.5 0 0 0-.84.09l-.3.06a4.36 4.36 0 0 1-1.05 0h-.22a4.11 4.11 0 0 1-1.45-.47 2.83 2.83 0 0 0-.91-.31 1.8 1.8 0 0 0-1.29.35l-1.67-.2a1.72 1.72 0 0 0-1.15-.64 2.57 2.57 0 0 0-.86.08l-.31.06a5 5 0 0 1-1.08 0h-.22a4.91 4.91 0 0 1-1-.23 4.19 4.19 0 0 1-.44-.19 2.85 2.85 0 0 0-.91-.31 1.8 1.8 0 0 0-1.29.35l-1.67-.2a1.73 1.73 0 0 0-1.15-.64 2.57 2.57 0 0 0-.86.08l-.31.06a5 5 0 0 1-1.08 0h-.22a4.92 4.92 0 0 1-1-.23 4.21 4.21 0 0 1-.44-.19 2.85 2.85 0 0 0-.91-.31 1.8 1.8 0 0 0-1.29.35l-1.67-.2a1.73 1.73 0 0 0-1.15-.64 2.57 2.57 0 0 0-.86.08l-.31.06a5 5 0 0 1-1.08 0h-.22a4.92 4.92 0 0 1-1-.23 4.21 4.21 0 0 1-.44-.19 2.85 2.85 0 0 0-.91-.31 1.8 1.8 0 0 0-1.29.35l-1.67-.2a1.73 1.73 0 0 0-1.15-.64 2.57 2.57 0 0 0-.86.08l-.31.06a5 5 0 0 1-1.08 0h-.22a4.92 4.92 0 0 1-1-.23 4.2 4.2 0 0 1-.44-.19 2.85 2.85 0 0 0-.91-.31 1.8 1.8 0 0 0-1.29.35l-1.67-.2a1.73 1.73 0 0 0-1.15-.64 2.56 2.56 0 0 0-.86.08l-.31.06a5 5 0 0 1-1.08 0h-.22a4.92 4.92 0 0 1-1-.23 4.19 4.19 0 0 1-.44-.19 2.86 2.86 0 0 0-.91-.31 1.79 1.79 0 0 0-1.29.35l-1.67-.2a1.73 1.73 0 0 0-1.15-.64 2.56 2.56 0 0 0-.86.08l-.31.06a5 5 0 0 1-1.08 0h-.22a4.92 4.92 0 0 1-1-.23 4.21 4.21 0 0 1-.44-.19 2.86 2.86 0 0 0-.91-.31 1.79 1.79 0 0 0-1.29.35l-1.67-.2a1.73 1.73 0 0 0-1.15-.64 2.56 2.56 0 0 0-.86.08l-.31.06a5 5 0 0 1-1.08 0h-.22a4.93 4.93 0 0 1-1-.23 4.21 4.21 0 0 1-.44-.19 2.86 2.86 0 0 0-.91-.31 1.79 1.79 0 0 0-1.28.35l-1.67-.2a1.73 1.73 0 0 0-1.15-.64 2.56 2.56 0 0 0-.86.08l-.31.06a5 5 0 0 1-1.08 0h-.22a4.93 4.93 0 0 1-1-.23 4.22 4.22 0 0 1-.44-.19 2.86 2.86 0 0 0-.91-.31 1.79 1.79 0 0 0-1.28.35l-1.67-.2a1.74 1.74 0 0 0-1.15-.64 2.56 2.56 0 0 0-.86.08l-.31.06a5 5 0 0 1-1.08 0h-.22a4.93 4.93 0 0 1-1-.23 4.22 4.22 0 0 1-.44-.19 2.86 2.86 0 0 0-.91-.31 1.79 1.79 0 0 0-1.28.35l-1.67-.2a1.74 1.74 0 0 0-1.15-.64 2.56 2.56 0 0 0-.86.08l-.31.06a5 5 0 0 1-1.08 0h-.22a4.93 4.93 0 0 1-1-.23 4.22 4.22 0 0 1-.44-.19 2.86 2.86 0 0 0-.91-.31 1.79 1.79 0 0 0-1.28.35l-1.67-.2a1.74 1.74 0 0 0-1.15-.64 2.56 2.56 0 0 0-.86.08l-.31.06a5 5 0 0 1-1.08 0h-.22a4.93 4.93 0 0 1-1-.23 4.22 4.22 0 0 1-.44-.19 2.86 2.86 0 0 0-.91-.31 1.79 1.79 0 0 0-1.28.35l-1.67-.2a1.74 1.74 0 0 0-1.15-.64 2.55 2.55 0 0 0-.86.08l-.31.06a5 5 0 0 1-1.08 0h-.22a4.93 4.93 0 0 1-1-.23 4.22 4.22 0 0 1-.44-.19 2.86 2.86 0 0 0-.91-.31 1.78 1.78 0 0 0-1.28.35l-1.67-.2a1.74 1.74 0 0 0-1.15-.64 2.55 2.55 0 0 0-.86.08l-.31.06a4.94 4.94 0 0 1-1.08 0h-.22a4.92 4.92 0 0 1-1-.23 4.22 4.22 0 0 1-.44-.19 2.87 2.87 0 0 0-.91-.31 1.78 1.78 0 0 0-1.28.35l-1.67-.2a1.74 1.74 0 0 0-1.15-.64 2.55 2.55 0 0 0-.86.08l-.31.06a4.94 4.94 0 0 1-1.08 0h-.22a4.93 4.93 0 0 1-1-.23 4.21 4.21 0 0 1-.44-.19 2.87 2.87 0 0 0-.91-.31 1.78 1.78 0 0 0-1.28.35l-1.67-.2a1.74 1.74 0 0 0-1.15-.64 2.55 2.55 0 0 0-.86.08l-.31.06a4.94 4.94 0 0 1-1.08 0h-.22a4.93 4.93 0 0 1-1-.23 4.24 4.24 0 0 1-.44-.19 2.87 2.87 0 0 0-.91-.31 1.78 1.78 0 0 0-1.28.35l-1.67-.2a1.75 1.75 0 0 0-1.16-.64 2.55 2.55 0 0 0-.86.08l-.31.06a4.93 4.93 0 0 1-1.08 0h-.22a4.94 4.94 0 0 1-1-.23 4.24 4.24 0 0 1-.44-.19 2.87 2.87 0 0 0-.91-.31 1.78 1.78 0 0 0-1.28.35l-1.67-.2a1.75 1.75 0 0 0-1.16-.64 2.55 2.55 0 0 0-.86.08l-.31.06a4.94 4.94 0 0 1-1.08 0h-.22a4.94 4.94 0 0 1-1-.23 4.24 4.24 0 0 1-.44-.19 2.87 2.87 0 0 0-.91-.31 1.78 1.78 0 0 0-1.28.35l-1.67-.2a1.75 1.75 0 0 0-1.16-.64 2.55 2.55 0 0 0-.86.08l-.31.06a4.94 4.94 0 0 1-1.08 0h-.22a4.94 4.94 0 0 1-1-.23 4.23 4.23 0 0 1-.44-.19 2.87 2.87 0 0 0-.91-.31 1.77 1.77 0 0 0-1.28.35l-1.67-.2a1.75 1.75 0 0 0-1.16-.64 2.54 2.54 0 0 0-.86.08l-.31.06a4.93 4.93 0 0 1-1.08 0h-.22a4.94 4.94 0 0 1-1-.23 4.24 4.24 0 0 1-.44-.19 2.87 2.87 0 0 0-.91-.31 1.77 1.77 0 0 0-1.28.35l-1.67-.2a1.75 1.75 0 0 0-1.16-.64 2.54 2.54 0 0 0-.86.08l-.31.06a4.93 4.93 0 0 1-1.08 0h-.22a4.94 4.94 0 0 1-1-.23 4.26 4.26 0 0 1-.44-.19 2.88 2.88 0 0 0-.91-.31 1.77 1.77 0 0 0-1.28.35l-1.67-.2a1.75 1.75 0 0 0-1.16-.64 2.54 2.54 0 0 0-.86.08l-.31.06a4.92 4.92 0 0 1-1.08 0h-.22a5 5 0 0 1-1-.23 4.24 4.24 0 0 1-.44-.19 2.88 2.88 0 0 0-.91-.31 1.77 1.77 0 0 0-1.28.35l-1.67-.2a1.75 1.75 0 0 0-1.16-.64 2.54 2.54 0 0 0-.86.08l-.31.06a4.93 4.93 0 0 1-1.08 0h-.22a4.94 4.94 0 0 1-1-.23 4.25 4.25 0 0 1-.44-.19 2.88 2.88 0 0 0-.91-.31 1.77 1.77 0 0 0-1.28.35l-1.67-.2a1.76 1.76 0 0 0-1.16-.64 2.54 2.54 0 0 0-.86.08l-.31.06a4.92 4.92 0 0 1-1.08 0h-.22a5 5 0 0 1-1-.23 4.24 4.24 0 0 1-.44-.19 2.88 2.88 0 0 0-.91-.31 1.77 1.77 0 0 0-1.28.35l-1.67-.2a1.76 1.76 0 0 0-1.16-.64 2.54 2.54 0 0 0-.86.08l-.31.06a4.92 4.92 0 0 1-1.08 0h-.22a5 5 0 0 1-1-.23 4.27 4.27 0 0 1-.44-.19 2.88 2.88 0 0 0-.91-.31 1.77 1.77 0 0 0-1.28.35l-1.67-.2a1.76 1.76 0 0 0-1.16-.64 2.54 2.54 0 0 0-.86.08l-.31.06a4.92 4.92 0 0 1-1.08 0h-.22a5 5 0 0 1-1-.23 4.24 4.24 0 0 1-.44-.19 2.88 2.88 0 0 0-.91-.31 1.76 1.76 0 0 0-1.28.35l-1.67-.2a1.76 1.76 0 0 0-1.16-.64 2.54 2.54 0 0 0-.86.08l-.31.06a4.92 4.92 0 0 1-1.08 0h-.22a5 5 0 0 1-1-.24 4.24 4.24 0 0 1-.44-.19 2.89 2.89 0 0 0-.91-.31 1.76 1.76 0 0 0-1.28.35l-1.67-.2a1.76 1.76 0 0 0-1.16-.64 2.53 2.53 0 0 0-.86.08l-.31.06a4.92 4.92 0 0 1-1.08 0h-.24a5 5 0 0 1-1-.24 4.25 4.25 0 0 1-.44-.19 2.89 2.89 0 0 0-.91-.31h-.11L30 491a2.41 2.41 0 0 0-.83.15 1.52 1.52 0 0 1-.32.07 3.25 3.25 0 0 1-1.11 0 3 3 0 0 1-1-.47l-.23-.18a4 4 0 0 0-.67-.48 1.8 1.8 0 0 0-1.24-.09 6.77 6.77 0 0 1-.84-.56l-.46-.35a1.61 1.61 0 0 0-.49-1.08 2.41 2.41 0 0 0-.69-.48 1.54 1.54 0 0 1-.27-.17 2.88 2.88 0 0 1-.78-.79 2.74 2.74 0 0 1-.37-1v-.29a4.72 4.72 0 0 0-.14-.81 1.86 1.86 0 0 0-.78-.88 6.6 6.6 0 0 1-.21-1c0-.19-.06-.39-.08-.57a1.58 1.58 0 0 0 .42-1.11 2.41 2.41 0 0 0-.15-.83 1.52 1.52 0 0 1-.07-.32 3.26 3.26 0 0 1 0-1.11 3.1 3.1 0 0 1 .47-1l.18-.23a3.94 3.94 0 0 0 .47-.67 1.8 1.8 0 0 0 .08-1.18 6.79 6.79 0 0 1 .56-.84c.11-.16.23-.32.35-.46a1.61 1.61 0 0 0 1.08-.49 2.41 2.41 0 0 0 .48-.69 1.54 1.54 0 0 1 .17-.27 2.88 2.88 0 0 1 .79-.78 2.74 2.74 0 0 1 1-.37h.29a4.72 4.72 0 0 0 .81-.14 1.86 1.86 0 0 0 .88-.78 6.61 6.61 0 0 1 1-.21l.57-.08a1.57 1.57 0 0 0 1.11.42 3.23 3.23 0 0 0 1-.19l.35-.1a5.18 5.18 0 0 1 1.24-.17 5.12 5.12 0 0 1 1.23.19l.32.09a3.15 3.15 0 0 0 .94.19 1.85 1.85 0 0 0 1.29-.52 1.72 1.72 0 0 0 0-2.49 1.85 1.85 0 0 0-1.29-.52 2.68 2.68 0 0 0-.87.18l-.31.1a5.22 5.22 0 0 1-1.1.17h-.25a5.26 5.26 0 0 1-1.08-.11 4.51 4.51 0 0 1-.47-.14 3.06 3.06 0 0 0-1-.21 2.09 2.09 0 0 0-1.4.58c-.22 0-.45.05-.68.09a8.65 8.65 0 0 0-1.2.25 1.85 1.85 0 0 0-1.51 0 2.31 2.31 0 0 0-.84.55l-.27.24c-.32.25-.65.51-1 .74l-.23.15c-.35.2-.67.43-1 .6-.15.08-.34.13-.5.22a3.71 3.71 0 0 0-1 .59 2 2 0 0 0-.58 1.4c-.14.17-.28.36-.42.55a8.79 8.79 0 0 0-.68 1 1.88 1.88 0 0 0-1.1 1 2.41 2.41 0 0 0-.2 1v.36c-.06.4-.08.82-.18 1.23l-.06.27v.1a8.86 8.86 0 0 1-.28 1l-.19.51a3.71 3.71 0 0 0-.26 1.09 2.08 2.08 0 0 0 .57 1.4c0 .22.05.45.09.68a8.66 8.66 0 0 0 .25 1.2 1.85 1.85 0 0 0 0 1.51 2.31 2.31 0 0 0 .55.84l.24.27c.25.32.51.65.74 1l.15.23c.2.35.43.67.59 1 .08.15.13.34.22.5a3.72 3.72 0 0 0 .59 1 2 2 0 0 0 1.4.58l.55.42a8.75 8.75 0 0 0 1 .68 1.88 1.88 0 0 0 1 1.1 2.38 2.38 0 0 0 1 .21h.36c.4.06.82.09 1.23.18l.27.06a10.6 10.6 0 0 1 1.17.31l.51.19a5 5 0 0 0 .75.2l.24.05H30a3.62 3.62 0 0 0 .79-.08l.35-.06a4.88 4.88 0 0 1 1.21 0 4.82 4.82 0 0 1 1.16.33l.29.13a3 3 0 0 0 .88.29 1.76 1.76 0 0 0 1.26-.33l1.71.2a1.76 1.76 0 0 0 1.14.62 3.05 3.05 0 0 0 .94-.08l.35-.06a4.88 4.88 0 0 1 1.21 0 4.82 4.82 0 0 1 1.16.33l.29.13a3 3 0 0 0 .88.29 1.76 1.76 0 0 0 1.38-.39l1.71.2a1.76 1.76 0 0 0 1.14.62 3.05 3.05 0 0 0 .94-.08l.35-.06a4.88 4.88 0 0 1 1.21 0 4.82 4.82 0 0 1 1.16.33l.29.13a3 3 0 0 0 .88.29 1.76 1.76 0 0 0 1.26-.33l1.71.2a1.76 1.76 0 0 0 1.14.62 3.05 3.05 0 0 0 .94-.08l.35-.06a4.88 4.88 0 0 1 1.21 0 4.82 4.82 0 0 1 1.16.33l.29.13a3 3 0 0 0 .88.29 1.77 1.77 0 0 0 1.26-.33l1.71.2a1.76 1.76 0 0 0 1.14.62 3.05 3.05 0 0 0 .94-.08l.35-.06a4.87 4.87 0 0 1 1.21 0 4.82 4.82 0 0 1 1.16.33l.29.13a3 3 0 0 0 .88.29 1.77 1.77 0 0 0 1.26-.33l1.71.2a1.75 1.75 0 0 0 1.14.62 3.06 3.06 0 0 0 .94-.08l.35-.06a4.88 4.88 0 0 1 1.21 0 4.81 4.81 0 0 1 1.16.33l.29.13a3 3 0 0 0 .88.29 1.77 1.77 0 0 0 1.26-.33l1.71.2a1.75 1.75 0 0 0 1.14.62 3.06 3.06 0 0 0 .94-.08l.35-.06a4.89 4.89 0 0 1 1.21 0 4.81 4.81 0 0 1 1.16.33l.29.13a3 3 0 0 0 .88.29 1.77 1.77 0 0 0 1.26-.33l1.71.2a1.75 1.75 0 0 0 1.14.62 3.06 3.06 0 0 0 .94-.08l.35-.06a4.89 4.89 0 0 1 1.21 0 4.81 4.81 0 0 1 1.16.33l.29.13a3 3 0 0 0 .88.29 1.77 1.77 0 0 0 1.26-.33l1.71.2a1.75 1.75 0 0 0 1.14.62 3.06 3.06 0 0 0 .94-.08l.35-.06a4.89 4.89 0 0 1 1.21 0 4.81 4.81 0 0 1 1.16.33l.29.13a3 3 0 0 0 .88.29 1.77 1.77 0 0 0 1.26-.33l1.71.2a1.75 1.75 0 0 0 1.14.62 3.06 3.06 0 0 0 .94-.08l.35-.06a4.89 4.89 0 0 1 1.21 0 4.81 4.81 0 0 1 1.16.33l.29.13a3 3 0 0 0 .88.29 1.77 1.77 0 0 0 1.26-.33l1.71.2a1.75 1.75 0 0 0 1.14.62 3.06 3.06 0 0 0 .94-.08l.35-.06a4.89 4.89 0 0 1 1.21 0 4.8 4.8 0 0 1 1.16.33l.29.13a3 3 0 0 0 .88.29 1.78 1.78 0 0 0 1.26-.33l1.71.2a1.74 1.74 0 0 0 1.14.62 3.06 3.06 0 0 0 .94-.08l.35-.06a4.89 4.89 0 0 1 1.21 0 4.8 4.8 0 0 1 1.16.33l.29.13a3 3 0 0 0 .88.29 1.78 1.78 0 0 0 1.26-.33l1.71.2a1.74 1.74 0 0 0 1.14.62 3.07 3.07 0 0 0 .94-.08l.35-.06a4.9 4.9 0 0 1 1.21 0 4.8 4.8 0 0 1 1.16.33l.29.13a3 3 0 0 0 .88.29 1.78 1.78 0 0 0 1.26-.33l1.71.2a1.74 1.74 0 0 0 1.14.62 3.07 3.07 0 0 0 .94-.08l.35-.06a4.9 4.9 0 0 1 1.21 0 4.81 4.81 0 0 1 1.16.33l.29.13a3 3 0 0 0 .88.29 1.78 1.78 0 0 0 1.26-.33l1.71.2a1.74 1.74 0 0 0 1.14.62 3.07 3.07 0 0 0 .94-.08l.35-.06a4.9 4.9 0 0 1 1.21 0 4.8 4.8 0 0 1 1.16.33l.29.13a3 3 0 0 0 .88.29 1.78 1.78 0 0 0 1.26-.33l1.71.2a1.74 1.74 0 0 0 1.14.62 3.07 3.07 0 0 0 .94-.08l.35-.06a4.9 4.9 0 0 1 1.21 0 4.8 4.8 0 0 1 1.16.33l.29.13a2.94 2.94 0 0 0 .88.29 1.78 1.78 0 0 0 1.26-.33l1.71.2a1.74 1.74 0 0 0 1.14.62 3.07 3.07 0 0 0 .94-.08l.35-.06a4.9 4.9 0 0 1 1.21 0 4.8 4.8 0 0 1 1.16.33l.29.13a2.94 2.94 0 0 0 .88.29 1.78 1.78 0 0 0 1.26-.33l1.71.2a1.74 1.74 0 0 0 1.14.62 3.08 3.08 0 0 0 .94-.08l.35-.06a4.9 4.9 0 0 1 1.21 0 4.79 4.79 0 0 1 1.16.33l.29.13a2.94 2.94 0 0 0 .88.29 1.79 1.79 0 0 0 1.26-.33l1.71.2a1.74 1.74 0 0 0 1.13.62 3.08 3.08 0 0 0 .94-.08l.35-.06a4.9 4.9 0 0 1 1.21 0 4.79 4.79 0 0 1 1.16.33l.29.13a2.94 2.94 0 0 0 .88.29 1.79 1.79 0 0 0 1.26-.33l1.71.2a1.73 1.73 0 0 0 1.13.62 3.08 3.08 0 0 0 .94-.08l.35-.06a4.91 4.91 0 0 1 1.21 0 4.79 4.79 0 0 1 1.16.33l.29.13a2.94 2.94 0 0 0 .88.29 1.79 1.79 0 0 0 1.26-.33l1.71.2a1.73 1.73 0 0 0 1.13.62 3.08 3.08 0 0 0 .94-.08l.35-.06a4.91 4.91 0 0 1 1.21 0 4.79 4.79 0 0 1 1.15.33l.29.13a2.94 2.94 0 0 0 .87.29 1.79 1.79 0 0 0 1.26-.33l1.71.2a1.73 1.73 0 0 0 1.13.62 3.08 3.08 0 0 0 .94-.08l.35-.06a4.91 4.91 0 0 1 1.21 0 4.79 4.79 0 0 1 1.15.33l.29.13a2.94 2.94 0 0 0 .87.29 1.79 1.79 0 0 0 1.26-.33l1.71.2a1.73 1.73 0 0 0 1.13.62 3.08 3.08 0 0 0 .94-.08l.35-.06a4.91 4.91 0 0 1 1.21 0 4.79 4.79 0 0 1 1.15.33l.29.13a2.93 2.93 0 0 0 .87.29 1.79 1.79 0 0 0 1.26-.33l1.71.2a1.73 1.73 0 0 0 1.13.62 3.08 3.08 0 0 0 .94-.08L238 519a4.92 4.92 0 0 1 1.21 0 4.79 4.79 0 0 1 1.15.33l.29.13a2.93 2.93 0 0 0 .87.29 1.79 1.79 0 0 0 1.26-.33l1.71.2a1.73 1.73 0 0 0 1.13.62 3.09 3.09 0 0 0 .94-.08l.44-.16a4.92 4.92 0 0 1 1.21 0 4.78 4.78 0 0 1 1.15.33l.29.13a2.93 2.93 0 0 0 .87.29 1.8 1.8 0 0 0 1.26-.33l1.71.2a1.73 1.73 0 0 0 1.13.62 3.09 3.09 0 0 0 .94-.08l.35-.06a4.92 4.92 0 0 1 1.21 0 4.78 4.78 0 0 1 1.15.33l.29.13a2.93 2.93 0 0 0 .87.29 1.8 1.8 0 0 0 1.27-.33l1.71.2a1.72 1.72 0 0 0 1.13.62 3.09 3.09 0 0 0 .94-.08l.35-.06a4.92 4.92 0 0 1 1.21 0 4.78 4.78 0 0 1 1.15.33l.29.13a2.93 2.93 0 0 0 .87.29 1.8 1.8 0 0 0 1.27-.33l1.71.2a1.72 1.72 0 0 0 1.13.62 3.09 3.09 0 0 0 .94-.08h.34a5.29 5.29 0 0 1 1.22 0 5.44 5.44 0 0 1 1.18.34l.3.13a3 3 0 0 0 .9.29 1.78 1.78 0 0 0 1.28-.37l1.11.09h.63a1.78 1.78 0 0 0 1.22.55 3 3 0 0 0 1-.16l.35-.09a5.48 5.48 0 0 1 1.23-.16 5.36 5.36 0 0 1 1.21.16l.32.08a3.1 3.1 0 0 0 .93.16 1.72 1.72 0 0 0 1.21-.52l1.12-.08h.64a1.84 1.84 0 0 0 1.28.38 3.05 3.05 0 0 0 .92-.3l.33-.14a5.09 5.09 0 0 1 1.19-.33 6.79 6.79 0 0 1 1.23 0h.32a3.09 3.09 0 0 0 .95 0 1.8 1.8 0 0 0 1.13-.69c.32-.06.7-.14 1.1-.23l.62-.14a1.82 1.82 0 0 0 1.31.19 2.62 2.62 0 0 0 .87-.41l.31-.19a5.12 5.12 0 0 1 1.13-.5 5.09 5.09 0 0 1 1.22-.15h.33a3.08 3.08 0 0 0 .94-.12 1.81 1.81 0 0 0 1-.84l1.06-.38.59-.23a1.81 1.81 0 0 0 1.33 0 3.12 3.12 0 0 0 .81-.52l.28-.24a5.13 5.13 0 0 1 1-.66 5.08 5.08 0 0 1 1.18-.33h.33a3 3 0 0 0 .91-.25 1.82 1.82 0 0 0 .88-1l1-.51.55-.32a1.81 1.81 0 0 0 1.31-.2 3.16 3.16 0 0 0 .72-.64l.25-.27a5.13 5.13 0 0 1 .94-.81 5.07 5.07 0 0 1 1.12-.5l.32-.09a2.64 2.64 0 0 0 .87-.38 1.82 1.82 0 0 0 .73-1.11l.91-.65.5-.39a1.8 1.8 0 0 0 1.27-.39 3.17 3.17 0 0 0 .63-.73l.21-.29a5.14 5.14 0 0 1 .81-.94 5.07 5.07 0 0 1 1-.65l.3-.14a2.55 2.55 0 0 0 .81-.49 1.82 1.82 0 0 0 .57-1.2l.81-.77.44-.45a1.8 1.8 0 0 0 1.21-.56 3.17 3.17 0 0 0 .51-.82l.17-.32a5.6 5.6 0 0 1 .68-1 5.06 5.06 0 0 1 .94-.8l.28-.18a2.53 2.53 0 0 0 .74-.6 1.83 1.83 0 0 0 .39-1.27l.69-.88.38-.51a1.8 1.8 0 0 0 1.1-.73 3.17 3.17 0 0 0 .39-.88l.12-.34a6.23 6.23 0 0 1 .53-1.12 5.06 5.06 0 0 1 .81-.92l.25-.22a2.63 2.63 0 0 0 .65-.69 1.83 1.83 0 0 0 .2-1.31l.56-1c.11-.19.21-.37.31-.56a1.79 1.79 0 0 0 1-.88 3.18 3.18 0 0 0 .26-.93l.07-.36a6.91 6.91 0 0 1 .37-1.18 5.05 5.05 0 0 1 .67-1l.21-.25a3 3 0 0 0 .55-.78 1.84 1.84 0 0 0 0-1.33l.41-1 .23-.59a1.76 1.76 0 0 0 .85-1 3.18 3.18 0 0 0 .12-1v-.36a7.25 7.25 0 0 1 .2-1.22 5 5 0 0 1 .51-1.12l.18-.28a3.13 3.13 0 0 0 .43-.85 1.75 1.75 0 0 0-.17-1.32l.25-1.09c.05-.21.1-.42.15-.62a1.68 1.68 0 0 0 .71-1.12 3.2 3.2 0 0 0 0-1v-.36a5.22 5.22 0 0 1 0-1.23 5 5 0 0 1 .34-1.18l.13-.3a3.11 3.11 0 0 0 .3-.9 1.68 1.68 0 0 0-.34-1.28l.09-1.12v-.64a1.78 1.78 0 0 0 .56-1.2 3.21 3.21 0 0 0-.17-1l-.09-.35a5.08 5.08 0 0 1-.14-1.23 7.26 7.26 0 0 1 .19-1.21l.08-.32a3.09 3.09 0 0 0 .16-.93 1.79 1.79 0 0 0-.51-1.21c0-.33 0-.72-.07-1.12v-.64a1.82 1.82 0 0 0 .38-1.27 2.61 2.61 0 0 0-.28-.92l-.14-.33a5.11 5.11 0 0 1-.33-1.19 5.09 5.09 0 0 1 0-1.23v-.33a3.07 3.07 0 0 0 0-.95 1.81 1.81 0 0 0-.69-1.13c-.06-.32-.13-.71-.21-1.1l-.14-.62a1.81 1.81 0 0 0 .19-1.31 3.16 3.16 0 0 0-.4-.88l-.18-.31a5.13 5.13 0 0 1-.5-1.13 5.07 5.07 0 0 1-.15-1.22v-.33a2.59 2.59 0 0 0-.11-.94 1.82 1.82 0 0 0-.85-1l-.36-1.06-.23-.59a1.8 1.8 0 0 0 0-1.33 3.17 3.17 0 0 0-.52-.81l-.22-.29a5.8 5.8 0 0 1-.66-1 5.06 5.06 0 0 1-.33-1.18v-.33a2.58 2.58 0 0 0-.23-.92 1.83 1.83 0 0 0-1-.89l-.51-1c-.09-.2-.2-.38-.3-.56a1.79 1.79 0 0 0-.2-1.31 3.17 3.17 0 0 0-.64-.73l-.26-.25a6.76 6.76 0 0 1-.79-.95 5.05 5.05 0 0 1-.5-1.12l-.09-.32a2.79 2.79 0 0 0-.35-.88 1.83 1.83 0 0 0-1.11-.73l-.65-.91-.37-.51a1.79 1.79 0 0 0-.38-1.27 3.18 3.18 0 0 0-.73-.63l-.29-.21a7.1 7.1 0 0 1-.92-.83 5 5 0 0 1-.65-1l-.14-.3a3.06 3.06 0 0 0-.47-.83 1.84 1.84 0 0 0-1.2-.57l-.77-.81-.44-.46a1.76 1.76 0 0 0-.55-1.2 3.18 3.18 0 0 0-.82-.52l-.32-.17a7.41 7.41 0 0 1-1-.7 5 5 0 0 1-.79-.94l-.18-.28a3.13 3.13 0 0 0-.58-.75 1.81 1.81 0 0 0-1.27-.39l-.88-.69-.5-.4a1.73 1.73 0 0 0-.72-1.11 3.18 3.18 0 0 0-.88-.39l-.34-.12a7 7 0 0 1-1.11-.55 5 5 0 0 1-.92-.81l-.22-.25a3.12 3.12 0 0 0-.68-.66 1.76 1.76 0 0 0-1.31-.21l-1-.56-.55-.32a1.7 1.7 0 0 0-.86-1 3.19 3.19 0 0 0-.93-.26l-.36-.07a6.29 6.29 0 0 1-1.17-.39 5 5 0 0 1-1-.67l-.25-.21a3.12 3.12 0 0 0-.77-.55 1.7 1.7 0 0 0-1.33 0l-1-.41-.59-.23a1.68 1.68 0 0 0-1-.88 3.2 3.2 0 0 0-1-.12h-.36a5.07 5.07 0 0 1-1.21-.23 5.16 5.16 0 0 1-1.11-.51l-.28-.18a3.11 3.11 0 0 0-.85-.43 1.68 1.68 0 0 0-1.32.15l-1.09-.25-.62-.14a1.75 1.75 0 0 0-1.11-.74 3.21 3.21 0 0 0-1 0h-.36a5.09 5.09 0 0 1-1.23 0 7.22 7.22 0 0 1-1.17-.36l-.3-.13a3.09 3.09 0 0 0-.9-.3 1.79 1.79 0 0 0-1.29.33c-.32 0-.71-.07-1.11-.09h-.64a1.83 1.83 0 0 0-1.2-.57 2.65 2.65 0 0 0-1 .15l-.35.09a5.16 5.16 0 0 1-1.23.14 5.26 5.26 0 0 1-1.22-.22l-.31-.08a3 3 0 0 0-.91-.16 1.78 1.78 0 0 0-1.2.51h-1.72a1.74 1.74 0 0 0-1.21-.45h-.07a3 3 0 0 0-.92.21l-.34.11a4.89 4.89 0 0 1-1.18.2 4.82 4.82 0 0 1-1.17-.15l-.31-.08a3 3 0 0 0-.91-.16h-.07a1.76 1.76 0 0 0-1.19.51h-1.72a1.76 1.76 0 0 0-1.22-.45 3 3 0 0 0-.92.21l-.34.11a4.88 4.88 0 0 1-1.19.21 4.83 4.83 0 0 1-1.19-.15l-.31-.08a3 3 0 0 0-.91-.16 1.76 1.76 0 0 0-1.19.51h-1.72a1.76 1.76 0 0 0-1.22-.45 3 3 0 0 0-.92.21l-.34.11a4.88 4.88 0 0 1-1.19.21 4.82 4.82 0 0 1-1.19-.15l-.31-.08a3 3 0 0 0-.91-.16 1.76 1.76 0 0 0-1.19.51h-1.72a1.76 1.76 0 0 0-1.22-.45 3 3 0 0 0-.92.21l-.34.11a4.88 4.88 0 0 1-1.19.21 4.83 4.83 0 0 1-1.19-.15l-.31-.08a3 3 0 0 0-.91-.16 1.76 1.76 0 0 0-1.19.51h-1.72a1.76 1.76 0 0 0-1.22-.45 3 3 0 0 0-.92.21l-.34.11a4.88 4.88 0 0 1-1.19.21 4.82 4.82 0 0 1-1.19-.15l-.31-.08a3 3 0 0 0-.91-.16 1.76 1.76 0 0 0-1.19.51h-1.72a1.76 1.76 0 0 0-1.22-.45 3 3 0 0 0-.92.21l-.34.11a4.88 4.88 0 0 1-1.19.21 4.83 4.83 0 0 1-1.19-.15l-.31-.08a3 3 0 0 0-.91-.16 1.76 1.76 0 0 0-1.19.51h-1.72a1.76 1.76 0 0 0-1.22-.45 3 3 0 0 0-.92.21l-.34.11a4.88 4.88 0 0 1-1.19.21 4.82 4.82 0 0 1-1.19-.15l-.31-.08a3 3 0 0 0-.91-.16 1.76 1.76 0 0 0-1.19.51h-1.72a1.76 1.76 0 0 0-1.22-.45 3 3 0 0 0-.92.21l-.34.11a4.88 4.88 0 0 1-1.19.21 4.83 4.83 0 0 1-1.19-.15l-.31-.08a3 3 0 0 0-.91-.16 1.76 1.76 0 0 0-1.19.51h-1.72a1.76 1.76 0 0 0-1.22-.45 3 3 0 0 0-.92.21l-.34.11a4.88 4.88 0 0 1-1.19.21 4.82 4.82 0 0 1-1.19-.15l-.31-.08a3 3 0 0 0-.91-.16 1.76 1.76 0 0 0-1.19.51h-1.72a1.76 1.76 0 0 0-1.22-.45 3 3 0 0 0-.92.21l-.34.11a4.88 4.88 0 0 1-1.19.21 4.83 4.83 0 0 1-1.19-.15l-.31-.08a3 3 0 0 0-.91-.16 1.76 1.76 0 0 0-1.19.51h-1.72a1.76 1.76 0 0 0-1.22-.45 3 3 0 0 0-.92.21l-.34.11a4.88 4.88 0 0 1-1.19.21 4.82 4.82 0 0 1-1.19-.15l-.31-.08a3 3 0 0 0-.91-.16 1.76 1.76 0 0 0-1.19.51h-1.72a1.76 1.76 0 0 0-1.22-.45 3 3 0 0 0-.92.21l-.34.11a4.88 4.88 0 0 1-1.19.21 4.83 4.83 0 0 1-1.19-.15l-.31-.08a3 3 0 0 0-.91-.16 1.76 1.76 0 0 0-1.19.51h-1.72a1.76 1.76 0 0 0-1.22-.45 3 3 0 0 0-.92.21l-.34.11a4.87 4.87 0 0 1-1.19.21 4.83 4.83 0 0 1-1.19-.15l-.31-.08a3 3 0 0 0-.91-.16 1.76 1.76 0 0 0-1.19.51h-1.72a1.76 1.76 0 0 0-1.22-.45 3 3 0 0 0-.92.21l-.34.11a4.88 4.88 0 0 1-1.19.21 4.83 4.83 0 0 1-1.19-.15l-.31-.08a3 3 0 0 0-.91-.16 1.76 1.76 0 0 0-1.19.51H154a1.76 1.76 0 0 0-1.22-.45 3 3 0 0 0-.92.21l-.34.11a4.88 4.88 0 0 1-1.19.21 4.83 4.83 0 0 1-1.19-.15l-.31-.08a3 3 0 0 0-.91-.16 1.76 1.76 0 0 0-1.19.51h-1.72a1.76 1.76 0 0 0-1.22-.45 3 3 0 0 0-.92.21l-.34.11a4.88 4.88 0 0 1-1.19.21 4.83 4.83 0 0 1-1.19-.15l-.31-.08a3 3 0 0 0-.91-.16 1.76 1.76 0 0 0-1.19.51h-1.72a1.76 1.76 0 0 0-1.22-.45 3 3 0 0 0-.92.21l-.34.11a4.87 4.87 0 0 1-1.19.21 4.83 4.83 0 0 1-1.19-.15l-.31-.08a3 3 0 0 0-.91-.16 1.76 1.76 0 0 0-1.19.51h-1.72a1.76 1.76 0 0 0-1.22-.45 3 3 0 0 0-.92.21l-.34.11a4.88 4.88 0 0 1-1.19.21 4.83 4.83 0 0 1-1.19-.15l-.31-.08a3 3 0 0 0-.91-.16 1.76 1.76 0 0 0-1.19.51h-1.72a1.76 1.76 0 0 0-1.22-.45 3 3 0 0 0-.92.21l-.34.11a4.88 4.88 0 0 1-1.19.21 4.83 4.83 0 0 1-1.19-.15l-.31-.08a3 3 0 0 0-.91-.16 1.76 1.76 0 0 0-1.19.51h-1.72A1.76 1.76 0 0 0 107 398a3 3 0 0 0-.92.21l-.34.11a4.88 4.88 0 0 1-1.19.21 4.83 4.83 0 0 1-1.19-.15l-.31-.08a3 3 0 0 0-.91-.16 1.76 1.76 0 0 0-1.19.51h-1.72a1.76 1.76 0 0 0-1.22-.45 3 3 0 0 0-.92.21l-.34.11a4.88 4.88 0 0 1-1.19.21 4.83 4.83 0 0 1-1.19-.15l-.31-.08a3 3 0 0 0-.91-.16 1.76 1.76 0 0 0-1.19.51h-1.72a1.76 1.76 0 0 0-1.22-.45 3 3 0 0 0-.92.21l-.34.11a4.88 4.88 0 0 1-1.19.21 4.83 4.83 0 0 1-1.19-.15l-.31-.08a3 3 0 0 0-.91-.16 1.76 1.76 0 0 0-1.19.51h-1.72a1.76 1.76 0 0 0-1.22-.45 3 3 0 0 0-.92.21l-.34.11a4.88 4.88 0 0 1-1.19.21 4.83 4.83 0 0 1-1.19-.15l-.31-.08a3 3 0 0 0-.91-.16 1.76 1.76 0 0 0-1.19.51h-1.72a1.76 1.76 0 0 0-1.22-.45 3 3 0 0 0-.92.21l-.34.11a4.88 4.88 0 0 1-1.19.21 4.83 4.83 0 0 1-1.19-.15l-.31-.08a3 3 0 0 0-.91-.16 1.76 1.76 0 0 0-1.19.51h-1.72a1.76 1.76 0 0 0-1.22-.45 3 3 0 0 0-.92.21l-.34.11a4.88 4.88 0 0 1-1.19.21 4.83 4.83 0 0 1-1.19-.15l-.31-.08a3 3 0 0 0-.91-.16 1.76 1.76 0 0 0-1.19.51h-1.72a1.76 1.76 0 0 0-1.22-.45 3 3 0 0 0-.92.21l-.34.11a4.88 4.88 0 0 1-1.19.21 4.83 4.83 0 0 1-1.19-.15l-.31-.08a3 3 0 0 0-.91-.16 1.76 1.76 0 0 0-1.19.51h-1.72a1.76 1.76 0 0 0-1.22-.45 3 3 0 0 0-.92.21l-.34.11a4.88 4.88 0 0 1-1.19.21 4.83 4.83 0 0 1-1.19-.15l-.31-.08a3 3 0 0 0-.91-.16 1.76 1.76 0 0 0-1.19.51h-1.71a1.74 1.74 0 0 0-1.21-.45 3.05 3.05 0 0 0-.92.21l-.34.11a4.88 4.88 0 0 1-1.19.21 4.8 4.8 0 0 1-1.19-.15l-.31-.08a4.45 4.45 0 0 0-.57-.13 1.88 1.88 0 0 0-.36 0 2 2 0 0 0-1.29.56c-.34 0-.75.08-1.17.16-.23 0-.45.07-.66.11a1.94 1.94 0 0 0-1.41-.14 2.57 2.57 0 0 0-.91.5l-.32.22c-.45.28-.8.5-1.13.67a9.55 9.55 0 0 1-1.24.42l-.34.09a3.49 3.49 0 0 0-1 .36 2 2 0 0 0-.78 1.18 10.88 10.88 0 0 0-.9.77l-.5.46a1.85 1.85 0 0 0-1.25.64 2.48 2.48 0 0 0-.5.91l-.14.36c-.22.48-.41.84-.59 1.17a8.11 8.11 0 0 1-.81 1l-.23.26a3.49 3.49 0 0 0-.6.82 1.91 1.91 0 0 0 0 1.41 8.53 8.53 0 0 0-.34 1.14c-.07.22-.12.45-.17.66a1.77 1.77 0 0 0-.7 1.21 2.58 2.58 0 0 0 .07 1l.08.38a8.68 8.68 0 0 1 .13 1.3 5.89 5.89 0 0 1-.12 1.3c0 .11-.05.23-.07.34a3.45 3.45 0 0 0 0 1 1.71 1.71 0 0 0 .74 1.2c.09.34.18.74.31 1.15l.23.64a1.74 1.74 0 0 0 .06 1.41 3.56 3.56 0 0 0 .61.84c.09.1.18.19.27.28a6 6 0 0 1 .83 1 7.48 7.48 0 0 1 .61 1.15l.13.33a2.8 2.8 0 0 0 .52.87 1.73 1.73 0 0 0 1.27.61l.88.79.54.41a1.75 1.75 0 0 0 .81 1.15 3.56 3.56 0 0 0 1 .37l.37.09a6 6 0 0 1 1.25.41 9.22 9.22 0 0 1 1.14.64l.29.2a2.53 2.53 0 0 0 .91.46 1.77 1.77 0 0 0 1.39-.17l1.17.18.67.05" fill="#636c7c"/><g><path d="M269.85 382.46l-1.21-.27-.07-.38a1.56 1.56 0 0 0-1.4-1.28l-2.16-.19a1.56 1.56 0 0 0-1.65 1.18l-3.07.18-1.82-5.59-10.21 3.32 1.09 3.37a11.24 11.24 0 0 1-3.31 9l-22.38 21.75a4.59 4.59 0 0 0-1.3 4.21l.41 2a1.59 1.59 0 0 0 1.28 1.25 7.63 7.63 0 0 0 1.27.12c4.14-6.8 14.22-16.49 21.05-21.89 7.28-5.74 22.45-12.82 22.83-13.07a.4.4 0 0 0 .14-.17l1.06-2.39a.8.8 0 0 0-.55-1.15z" fill="#ddd"/><path d="M225.32 421.09a7.63 7.63 0 0 0 3.49-.81 18 18 0 0 0 6.46-5.44c2.72-3.7 7.37-9.47 11.81-12.31 6.85-4.38 15.37-8.42 16.54-9.62a53.68 53.68 0 0 0 3.92-5.61.4.4 0 0 1 .12-.12l1.54-1c-.38.25-15.55 7.33-22.83 13.07-6.83 5.35-16.91 15.04-21.05 21.84z" fill="#eee"/><path fill="#222" d="M240.315 368.591l5.526-1.795 1.291 3.975-5.525 1.796z"/><path fill="#222" d="M243.204 367.655l8.626-2.802 4.929 15.169-8.626 2.803z"/><path d="M253.61 377.68l6.22-2a1.61 1.61 0 0 0 1-2l-6.64-20.45a7.12 7.12 0 0 0-1.44-2.52l-.28-.32a7.12 7.12 0 0 0-4.79-2.38 7.12 7.12 0 0 0-2.74.33l-.82.27z" fill="#ccc"/><path d="M232.62 356.87l3.77 11.6a7.36 7.36 0 0 0 4.06 4.47l1.48-.48-1.29-4 10.81-3.46a.4.4 0 0 0 .26-.51l-5.39-16.6-10.9 3.54a4.34 4.34 0 0 0-2.51 2.14 4.34 4.34 0 0 0-.29 3.3zM258.183 365.382l2.092-.68 1.366 4.204-2.093.68z" fill="#333"/><path d="M244.39 367.69l2.47 7.61a.4.4 0 0 0 .32.27l1.33.22a.4.4 0 0 1 .32.27l1.67 5.15a.8.8 0 0 0 1 .52l5.21-1.69a.8.8 0 0 0 .52-1l-1.36-4.18a.4.4 0 0 0-.25-.25l-1.91-.69a.4.4 0 0 1-.25-.25l-1.46-4.49-1.17-3.59a.4.4 0 0 0-.51-.26l-5.71 1.85a.4.4 0 0 0-.22.51z" fill="#444"/><circle cx="249.3" cy="371.74" r=".8" transform="translate(-102.67 95.23) rotate(-18)" fill="none" stroke="#ccc" stroke-miterlimit="10" stroke-width="2"/></g><path d="M34.71 479.66c.33-.25 14.42-25.17 14.42-25.17l-13.57 6a22.1 22.1 0 0 1 .38 2.68 9.78 9.78 0 0 1-1.36 6.18l-4.23 7-17 4.47-.35.18a6.74 6.74 0 0 0-.86 10 21 21 0 0 0 7.86 5.24l7.89 2.95a5.17 5.17 0 0 0 1.82.33 5.23 5.23 0 0 0 5.29-5.36l-.33-14.49zm-4 15.36a1.24 1.24 0 0 1-1.42.42l-7.89-2.95a17 17 0 0 1-6.2-4 3.44 3.44 0 0 1-.93-2.28 2.71 2.71 0 0 1 .83-1.77l5.9-1.59a5.67 5.67 0 0 1 4.84.95l2.77 2.08a5.67 5.67 0 0 1 2.27 4.41l.09 4a1.25 1.25 0 0 1-.22.71z" fill="#2e2f34"/><circle cx="30.05" cy="481.66" r="1.7" fill="none" stroke="#666" stroke-miterlimit="10" stroke-width="1.5"/><g><path d="M49.87 450.45l-7.7-7.28a11.34 11.34 0 0 0-8.17-3.08l-11.16.42-4.21.16a2.83 2.83 0 0 0-2.63 1.94l-2.08 6.25-.11.33v.2c4.11-2.57 10.89-6.14 14.87-5.32 5.83 1.2 12.83 3.3 15.5 5.67s2.17 6.37-.67 7.7c-2.07 1-5.3 2.49-7.15 3.43l.31.16a5.67 5.67 0 0 0 6.21-.66l6.88-5.66a2.83 2.83 0 0 0 .11-4.26z" fill="#bbb"/><path d="M44.14 449.73c-2.67-2.37-9.67-4.47-15.5-5.67-4-.82-10.76 2.76-14.87 5.32a2.82 2.82 0 0 0 2.79 3.53l3.56-.07a2.83 2.83 0 0 1 1.36.32l14.85 7.7c1.85-.94 5.08-2.46 7.15-3.43 2.83-1.33 3.33-5.33.66-7.7z" fill="#ccc"/></g><circle cx="22.96" cy="432.33" r="6.38" fill="#bbb"/><circle cx="22.96" cy="432.33" r="2.13" fill="none" stroke="#333" stroke-miterlimit="10"/></svg>