<svg id="Layer_1" xmlns="http://www.w3.org/2000/svg" viewBox="0 0 405.8 405.8"><style>.st0,.st1{fill:none;stroke:#aaa;stroke-width:1.5;stroke-miterlimit:10}.st1{stroke-width:3}.st2{fill:#ccc}.st3{fill:none;stroke:#444;stroke-width:31;stroke-miterlimit:10}.st4{fill:#333}.st5,.st6{fill:none;stroke-miterlimit:10}.st5{stroke-width:8;stroke:#555}.st6{stroke:#fcb259}.st7,.st8{opacity:.5;fill:url(#SVGID_1_)}.st8{fill:url(#SVGID_2_)}</style><path class="st0" d="M204.5 364.4v-25 25z"/><path class="st1" d="M204.5 367.8v-25 25z"/><path class="st2" d="M366.3 214.8h-99.1l-24.5-8.9L363 184.7l-.1-.8-121.8 21.5-15.5-5.6 14.9-12.5 119.3-21-.1-.8-117.9 20.8 19.2-16.1 91.3-33.2-.3-.8-89.1 32.4 73.8-61.9-.5-.6-75.5 63.4-23.6 8.6 77-91.8-.6-.5-78 92.9-17.2 6.3 3.1-17.3L299.5 74l-.6-.5-77.4 92.3 4.2-24 50.5-87.5-.7-.4-49.3 85.5 16.7-94.9-.8-.1-17.1 97.2-12.6 21.4V42.8h-.8v121.7l-9 15.5-9-15.6V42.8h-.8V163l-13.6-23.5-16.6-94.2-.8.1 16.2 91.9-47.2-81.8-.7.4 48.4 83.8 4.3 24.6L106.1 73l-.6.5 77.6 92.5 3.3 18.8-15.8-5.7-78.9-94-.7.6 78 92.9-24-8.7-76.2-64-.5.6 74.4 62.5L52 136l-.3.8 92.8 33.8 20.1 16.9-118.4-20.9-.1.8 120 21.2 13.3 11.2-17.4 6.3-119-21-.1.8 117.6 20.7-21.4 7.8H37.4v.8h99.2l-93.3 34 .3.8 95.5-34.8h21.5L57.1 275.1l.4.7 104.8-60.5H182l-8.1 14.1-107.4 62 .4.7 106.2-61.3-13.4 23.3L83.5 318l.5.6 74.3-62.4-48.6 84.2.7.4 49.8-86.2 19.4-16.3-41.2 113.2.8.3L181 237.2l13.1-11 3.3 18.5L156.2 358l.8.3 40.7-111.8 4.2 23.6-17.4 98.8.8.1 17-96.5 16.8 95.1.8-.1-17.2-97.4 4.3-24.3 41 112.4.8-.3L207.4 244l3.1-17.8 13.6 11.4 41.5 114.1.8-.3-41-112.7 21.1 17.7 48.4 83.8.7-.4-47.2-81.8 72.1 60.5.5-.6-73.9-62-14-24.2 104.6 60.4.4-.7-105.8-61.1-8.4-14.6h19l104.2 60.2.4-.7-102.9-59.4H267l94.5 34.4.3-.8-92.3-33.6h96.8v-1zm-126.9-9.2l-9.3 1.6-8-4.6 2.8-2.3 14.5 5.3zm-20-8.2l-3.3-1.2.9-4.9 8.9-1.6-6.5 7.7zm.2 1l4.3 1.6-2.6 2.2-3.2-1.9 1.5-1.9zm-.8-.3l-1.5 1.8-1.7-1 .3-1.8 2.9 1zm-1.3 2.9l3.1 1.8-2.8 2.3-1.5-2.7 1.2-1.4zm1.7 8.2l-4.3.8-.4-1 3-2.5 1.7 2.7zm-3.4 5.6h-3.3l.3-1.9.3.1.3-1.9.9-.2 1.5 3.9zm.3.9l2.4 6.6-6.6-3.8.5-2.8h3.7zm-.9-4.9l4.4-.8 2.8 4.8h-5.8l-1.4-4zm3-4.9l3.1-2.6 7.4 4.3-8.7 1.5-1.8-3.2zm6.5-6.5l-4.4-1.6 6.9-8.2 11.7-2.1-14.2 11.9zm11.1-20.2l22.8-8.3-18.5 15.5-12.1 2.1 7.8-9.3zm-1.6.6l-7.6 9-9.5 1.7.8-4.8 16.3-5.9zm-21.8-15.1l12-20.8-4.1 23.1-7.9 9.5v-11.8zm0 13.1l7.6-9.1-2.9 16.4-4.8 1.7v-9zm0 9.9l4.6-1.7-.8 4.6-3.8.7v-3.6zm-.8-21.5v11.3l-6.2 7.3-2.3-4 8.5-14.6zm-5.7 19.4l5.7-6.8v8.3l-4 1.5-1.7-3zm.9 3.2l-2.7 1-.9-1 2.1-2.5 1.5 2.5zm-2-3.3l-2.2 2.6-2.2-2.6 2.2-3.8 2.2 3.8zm-11.2-19.4l8.5 14.7-2.3 3.9-6.2-7.4v-11.2zm0 12.6l5.8 6.9-2 3.4-3.8-1.4v-8.9zm0 14.8l.3.1-.3.1v-.2zm1.2-.7l-1.1-.2v-4.1l3.4 1.2-1.4 2.5 1.5-.9.8-1.3 1.3.5c.5-.1 1-.3 1.5-.3l-2.4-.9 1.7-3 2.1 2.5-1.1 1.3c.4-.1.8-.1 1.2-.1l.4-.5.4.5c.9 0 1.7.1 2.5.3l1.6-.6.8 1.3c.5.2.9.4 1.4.7l-1.3-2.3 3.6-1.3v3.5l-1.9.3c.3.2.7.4 1 .7l.9-.2v.9c.3.3.6.5.8.8v-1.9l3.6-.6-.8 4.4-1.8-.7c.3.4.5.8.8 1.2l.9.3-.2 1.1c.3.6.5 1.3.6 2l1.2.7-.9 1.1c0 .4.1.9.1 1.3v.6l1.2 2.2-2 1.7c-.3.9-.7 1.7-1.2 2.4l.1.3-.3.1c-.5.7-1 1.4-1.6 2l-.5 2.7h-2.3l.1-.4.1-.3c-1.3.7-2.6 1.3-4.1 1.5l-3.1 2.6-3.1-2.6.1-.1h1.1c-6-1.2-10.5-6.4-10.5-12.8 0-1.2.2-2.4.5-3.6l-.2.1v-.1l.3-.2c.1-.4.3-.8.5-1.2l-1.3.7-.3-1.5 2.5-.9c.3-.4.5-.8.8-1.2l-3.5 1.3-.6-3.6 4.2.7v1.5c.5-.8 1.1-1.5 1.9-2.1zm16.7 22.9l-.5 2.3-2.5-1.4.3-.9h2.7zm-13.9 0l-.5.3-.2-.7h.4v.4h.3zm.8.5l3.2 2.7-2.7 2.3-1.6-4.3 1.1-.7zm3.9 3.2l3.3 2.8-3.1 8.6-3.2-8.9 3-2.5zm.6-.5l3.2-2.7 1.4.8-1.6 4.4-3-2.5zm4.1-3.2h1l-.2.5-.8-.5zm-15.4-3.5l.4 2.3h-2.7l.9-2.5 1.4.2zm-1.1-1.1l.3-.8.2.9-.5-.1zm-.8-.1l-3.8-.7 2-3.4 2.5 2.1-.7 2zm-1.4-4.8l1.4-2.4.7 4.2-2.1-1.8zm-.7-.6l-3.5-2.9 3.4-2 1.7 2-1.6 2.9zm.7-5.3l.7-.4.3 1.5-1-1.1zm-.5-.7l-1.3-1.6 2.1-.8.3 1.7-1.1.7zm.6-7.9l-1-5.5 5.3 1.9v4.3l-4.3-.7zm0 4.8l-2.5.9-5.2-6.2 7 1.2.7 4.1zm-1.4 3.6l-3.6 2.1-2.5-2.1 4.6-1.7 1.5 1.7zm.2 6.3l-2.2 3.8-10.5-1.9 8.9-5.1 3.8 3.2zm-1.8 4.7l4 .7-1 2.7h-4.9l1.9-3.4zm3.6 4.2h3.2l.6 3.2-6.2 3.6 2.4-6.8zm3.3-4.3l.5.4v.1l-.4-.1-.1-.4zm.2 1.3l1.7.3 1.1.9.3.9h-2.7l-.4-2.1zm3.4 3l.4 1.1-2.8 1.6-.5-2.7h2.9zm-16.3-73.4l13.1 22.7v11.7l-8.9-10.6-4.2-23.8zm4.5 25.5l8.6 10.3v9.6l-5.5-2-3.1-17.9zm2.4 18.5l1 5.6-7.7-1.4-8.1-9.7 14.8 5.5zm-39.6-14.5l23.2 8.5 8.4 10-12.2-2.1-19.4-16.4zm20.8 17.5l11.7 2.1 5.7 6.8-4.8 1.7-12.6-10.6zm12.4 11.5l2.6 2.2-9.5 5.5-9.6-1.7 16.5-6zm-18 14.1h-20.7L162 207l10 1.8-9.9 5.7zm1.7 0l9.5-5.5 11.2 2-2 3.5h-18.7zm19.2.8h5.1l-2.7 7.4-10 5.8 7.6-13.2zm-2.7 21.4l-18.8 15.8 13-22.5 10.4-6-4.6 12.7zm1.3-1.1l4.5-12.4 6.8-3.9 1 5.9-12.3 10.4zm12.1-16.7l2.9-1.7 1.6 4.5-3.5 3-1-5.8zm1.2 6.7l3.7-3.1 3.5 9.5-4.1 11.1-3.1-17.5zm7.4 42.1l-4-22.8 4.2-11.6 3.9 10.8-4.1 23.6zm4.4-25.2l-3.8-10.4 3.4-9.3 3.4 2.8-3 16.9zm3.2-17.8l-3.2-2.7 1.7-4.6 2.6 1.5-1.1 5.8zm.7.6l1.1-6 7.3 4.2 4.6 12.6-13-10.8zm34.6 29l-20.4-17.1-4.7-13 11.6 6.7 13.5 23.4zm-14.4-24.9l-11.2-6.5-2.6-7.3h5.9l7.9 13.8zm-7.4-14.6l-2.9-5 9.4-1.7 11.5 6.7h-18zm19.7 0l-11.9-6.9 9.8-1.7 23.7 8.6h-21.6z"/><g><circle class="st3" cx="202.9" cy="202.9" r="186.9"/><path class="st4" d="M202.9 45.6c42 0 81.5 16.4 111.2 46.1 29.7 29.7 46.1 69.2 46.1 111.2s-16.4 81.5-46.1 111.2c-29.7 29.7-69.2 46.1-111.2 46.1s-81.5-16.4-111.2-46.1C62 284.4 45.6 244.9 45.6 202.9S62 121.4 91.7 91.7c29.7-29.7 69.2-46.1 111.2-46.1m0-26c-101.2 0-183.3 82.1-183.3 183.3s82.1 183.3 183.3 183.3 183.3-82.1 183.3-183.3S304.1 19.6 202.9 19.6z"/><circle class="st5" cx="202.9" cy="202.9" r="186.9"/><circle class="st6" cx="202.9" cy="202.9" r="191.3"/><linearGradient id="SVGID_1_" gradientUnits="userSpaceOnUse" x1="-4697.623" y1="2703.671" x2="-4521.011" y2="2703.671" gradientTransform="matrix(-0.766 -0.6428 0.6428 -0.766 -5051.2505 -566.8084)"><stop offset="0" stop-color="#fff"/><stop offset="1"/></linearGradient><path class="st7" d="M329.3 307.3s-.7.8-1.9 2.3c-.6.8-1.4 1.7-2.3 2.8-.5.5-.9 1.1-1.5 1.7-.5.6-1.1 1.2-1.6 1.8-1.2 1.3-2.4 2.7-3.8 4.2-1.5 1.5-3.1 3.1-4.9 4.8-.9.9-1.8 1.7-2.8 2.6l-3 2.7c-1 .9-2.1 1.8-3.2 2.7-1.1.9-2.3 1.8-3.5 2.8-1.2 1-2.4 1.8-3.7 2.8-1.3.9-2.6 1.9-3.9 2.8L289 344c-.7.5-1.4.9-2.1 1.4-.7.5-1.5.9-2.2 1.3-1.5.9-3 1.8-4.6 2.7-1.6.9-3.2 1.7-4.8 2.5-.8.4-1.6.8-2.4 1.3-.8.4-1.7.8-2.5 1.2-1.7.8-3.4 1.6-5.1 2.3-7 2.9-14.4 5.6-22.2 7.7-7.8 2-15.8 3.6-23.9 4.6-8.1.9-16.3 1.2-24.4 1.1-8.1-.3-16-1.1-23.6-2.4-1.9-.4-3.8-.7-5.6-1.1-.9-.2-1.9-.3-2.8-.6-.9-.2-1.8-.5-2.7-.7-1.8-.5-3.6-.9-5.4-1.4-1.7-.5-3.5-1-5.2-1.6-.8-.3-1.7-.5-2.5-.8-.8-.3-1.6-.6-2.5-.9-1.6-.6-3.2-1.2-4.8-1.7-1.5-.6-3.1-1.3-4.6-1.9-1.5-.6-3-1.2-4.4-1.9-1.4-.7-2.8-1.3-4.1-2-1.4-.6-2.7-1.3-3.9-1.9-1.3-.7-2.5-1.3-3.7-2-1.2-.6-2.4-1.2-3.4-1.9-2.2-1.3-4.2-2.5-6.1-3.7-1.8-1.2-3.5-2.4-5-3.4-.8-.5-1.5-1-2.1-1.4-.7-.5-1.3-.9-1.8-1.4-1.1-.9-2.1-1.6-2.9-2.2l-2.4-1.8s.8.7 2.3 1.9c.7.6 1.7 1.4 2.8 2.3.5.5 1.1.9 1.8 1.5.6.5 1.3 1 2.1 1.6 1.5 1.1 3.1 2.3 4.8 3.7 1.8 1.3 3.8 2.6 5.9 4 1 .7 2.2 1.4 3.3 2.1 1.2.7 2.4 1.4 3.6 2.2 1.2.8 2.5 1.5 3.8 2.2 1.3.7 2.7 1.5 4.1 2.2 1.4.8 2.9 1.4 4.3 2.2 1.5.7 3 1.4 4.5 2.2 1.6.7 3.2 1.3 4.8 2 .8.3 1.6.7 2.5 1 .8.3 1.7.6 2.5.9 1.7.6 3.4 1.3 5.2 1.9 1.8.6 3.6 1.1 5.4 1.7.9.3 1.8.6 2.8.9.9.3 1.9.5 2.8.7l5.7 1.5c7.8 1.7 15.9 3.1 24.3 3.8 8.4.7 16.9.8 25.4.4 8.5-.6 17-1.7 25.3-3.4s16.3-4.1 23.9-6.8c1.9-.7 3.8-1.5 5.6-2.2.9-.4 1.9-.7 2.8-1.1l2.7-1.2c1.8-.8 3.6-1.6 5.3-2.4 1.7-.9 3.4-1.7 5-2.6.8-.4 1.7-.8 2.5-1.3s1.6-.9 2.4-1.4c1.6-.9 3.1-1.8 4.6-2.7 1.5-.9 2.9-1.9 4.4-2.8 1.4-.9 2.9-1.8 4.2-2.7 1.3-.9 2.6-1.9 3.9-2.8 1.3-.9 2.5-1.8 3.7-2.7 1.2-.9 2.3-1.8 3.4-2.7 1.1-.9 2.2-1.7 3.2-2.6 2-1.7 3.9-3.4 5.6-4.9"/><linearGradient id="SVGID_2_" gradientUnits="userSpaceOnUse" x1="-977.268" y1="-1619.497" x2="-800.656" y2="-1619.497" gradientTransform="matrix(0.766 0.6428 -0.6428 0.766 -168.4842 1893.7739)"><stop offset="0" stop-color="#fff"/><stop offset="1"/></linearGradient><path class="st8" d="M79.8 99.3s.7-.8 1.9-2.3c.6-.8 1.4-1.7 2.3-2.8.5-.5.9-1.1 1.5-1.7.5-.6 1.1-1.2 1.6-1.8 1.2-1.3 2.4-2.7 3.8-4.2 1.5-1.5 3.1-3.1 4.9-4.8.9-.9 1.8-1.7 2.8-2.6l3-2.7c1-.9 2.1-1.8 3.2-2.7 1.1-.9 2.3-1.8 3.5-2.8 1.2-1 2.4-1.8 3.7-2.8 1.3-.9 2.6-1.9 3.9-2.8l4.2-2.7c.7-.5 1.4-.9 2.1-1.4.7-.5 1.5-.9 2.2-1.3 1.5-.9 3-1.8 4.6-2.7 1.6-.9 3.2-1.7 4.8-2.5.8-.4 1.6-.8 2.4-1.3.8-.4 1.7-.8 2.5-1.2 1.7-.8 3.4-1.6 5.1-2.3 7-2.9 14.4-5.6 22.2-7.7 7.8-2 15.8-3.6 23.9-4.6 8.1-.9 16.3-1.2 24.4-1.1 8.1.3 16 1.1 23.6 2.4 1.9.4 3.8.7 5.6 1.1.9.2 1.9.3 2.8.6.9.2 1.8.5 2.7.7 1.8.5 3.6.9 5.4 1.4 1.7.5 3.5 1 5.2 1.6.8.3 1.7.5 2.5.8.8.3 1.6.6 2.5.9 1.6.6 3.2 1.2 4.8 1.7 1.5.6 3.1 1.3 4.6 1.9 1.5.6 3 1.2 4.4 1.9 1.4.7 2.8 1.3 4.1 2 1.4.6 2.7 1.3 3.9 1.9 1.3.7 2.5 1.3 3.7 2 1.2.6 2.4 1.2 3.4 1.9 2.2 1.3 4.2 2.5 6.1 3.7 1.8 1.2 3.5 2.4 5 3.4.8.5 1.5 1 2.1 1.4.7.5 1.3.9 1.8 1.4 1.1.9 2.1 1.6 2.9 2.2l2.4 1.8s-.8-.7-2.3-1.9c-.7-.6-1.7-1.4-2.8-2.3-.5-.5-1.1-.9-1.8-1.5-.6-.5-1.3-1-2.1-1.6-1.5-1.1-3.1-2.3-4.8-3.7-1.8-1.3-3.8-2.6-5.9-4-1-.7-2.2-1.4-3.3-2.1-1.2-.7-2.4-1.4-3.6-2.2-1.2-.8-2.5-1.5-3.8-2.2-1.3-.7-2.7-1.5-4.1-2.2-1.4-.8-2.9-1.4-4.3-2.2-1.5-.7-3-1.4-4.5-2.2-1.6-.7-3.2-1.3-4.8-2-.8-.3-1.6-.7-2.5-1-.8-.3-1.7-.6-2.5-.9-1.7-.6-3.4-1.3-5.2-1.9-1.8-.6-3.6-1.1-5.4-1.7-.9-.3-1.8-.6-2.8-.9-.9-.3-1.9-.5-2.8-.7l-5.7-1.5c-7.8-1.7-15.9-3.1-24.3-3.8-8.4-.7-16.9-.8-25.4-.4-8.5.6-17 1.7-25.3 3.4s-16.3 4.1-23.9 6.8c-1.9.7-3.8 1.5-5.6 2.2-.9.4-1.9.7-2.8 1.1l-2.7 1.2c-1.8.8-3.6 1.6-5.3 2.4-1.7.9-3.4 1.7-5 2.6-.8.4-1.7.8-2.5 1.3s-1.6.9-2.4 1.4c-1.6.9-3.1 1.8-4.6 2.7-1.5.9-2.9 1.9-4.4 2.8-1.4.9-2.9 1.8-4.2 2.7-1.3.9-2.6 1.9-3.9 2.8-1.3.9-2.5 1.8-3.7 2.7-1.2.9-2.3 1.8-3.4 2.7-1.1.9-2.2 1.7-3.2 2.6-2 1.7-3.9 3.4-5.6 4.9"/></g></svg>