<?xml version="1.0" encoding="utf-8"?>
<!-- Generator: Adobe Illustrator 24.1.3, SVG Export Plug-In . SVG Version: 6.00 Build 0)  -->
<svg version="1.1" id="Layer_1" xmlns="http://www.w3.org/2000/svg" xmlns:xlink="http://www.w3.org/1999/xlink" x="0px" y="0px"
	 viewBox="0 0 512 512" style="enable-background:new 0 0 512 512;" xml:space="preserve">
<style type="text/css">
	.st0{fill:#FFFFFF;}
</style>
<g transform="translate(1 1)">
	<g>
		<g>
			<path class="st0" d="M365.1-1H144.9C64.7-1-1,64.7-1,144.9v220.2C-1,445.3,64.7,511,144.9,511h220.2
				c80.2,0,145.9-65.7,145.9-145.9V144.9C511,64.7,445.3-1,365.1-1z M493.9,365.1c0,70.8-58,128.9-128.9,128.9H144.9
				c-70.8,0-128.9-58-128.9-128.9V144.9c0-70.8,58-128.9,128.9-128.9h220.2c70.8,0,128.9,58,128.9,128.9V365.1z"/>
			<path class="st0" d="M365.1,50.2H144.9c-52.1,0-94.7,42.7-94.7,94.7v220.2c0,52.1,42.7,94.7,94.7,94.7h220.2
				c52.1,0,94.7-42.7,94.7-94.7V144.9C459.8,92.9,417.1,50.2,365.1,50.2z M442.7,365.1c0,42.7-35,77.7-77.7,77.7H144.9
				c-42.7,0-77.7-35-77.7-77.7V144.9c0-42.7,35-77.7,77.7-77.7h220.2c42.7,0,77.7,35,77.7,77.7L442.7,365.1L442.7,365.1z"/>
			<path class="st0" d="M255,118.5c-75.1,0-136.5,61.4-136.5,136.5S179.9,391.5,255,391.5S391.5,330.1,391.5,255
				S330.1,118.5,255,118.5z M255,374.5c-65.7,0-119.5-53.8-119.5-119.5S189.3,135.5,255,135.5S374.5,189.3,374.5,255
				S320.7,374.5,255,374.5z"/>
			<path class="st0" d="M255,161.1c-52.1,0-93.9,41.8-93.9,93.9c0,52.1,41.8,93.9,93.9,93.9s93.9-41.8,93.9-93.9
				S307.1,161.1,255,161.1z M255,331.8c-42.7,0-76.8-34.1-76.8-76.8s34.1-76.8,76.8-76.8s76.8,34.1,76.8,76.8S297.7,331.8,255,331.8
				z"/>
			<path class="st0" d="M391.5,92.9c-14.5,0-25.6,11.1-25.6,25.6s11.1,25.6,25.6,25.6c14.5,0,25.6-11.1,25.6-25.6
				S406,92.9,391.5,92.9z"/>
		</g>
	</g>
</g>
</svg>
