<svg xmlns="http://www.w3.org/2000/svg" width="392.29" height="230.3" viewBox="0 0 392.29 230.3"><defs><style>.a{fill:#fff}.b,.g{fill:none;stroke:#3e3750;stroke-miterlimit:10;stroke-width:1.5px}.b{stroke-linecap:round}.c{fill:#d1bef1}.d{fill:#f5f5f5}.e{fill:#e3dfec}.f{fill:#3e3750}</style></defs><title>amplify</title><path class="a" d="M69.32 119.5h63v34.57h-63z"/><path class="b" d="M69.32 119.5h63v34.57h-63z"/><path class="a" d="M76.68 126.95h48.27v3.46H76.68z"/><path class="b" d="M76.68 126.95h48.27v3.46H76.68z"/><path class="c" d="M67.3 116.33h67.03v3.46H67.3z"/><path class="b" d="M67.3 116.33h67.03v3.46H67.3z"/><path class="a" d="M76.68 143.16h48.27v3.46H76.68z"/><path class="b" d="M76.68 143.16h48.27v3.46H76.68z"/><path class="a" d="M78.91 130.41h9.41v12.75h-9.41z"/><path class="b" d="M78.91 130.41h9.41v12.75h-9.41z"/><path class="a" d="M96.11 130.41h9.41v12.75h-9.41z"/><path class="b" d="M96.11 130.41h9.41v12.75h-9.41z"/><path class="a" d="M113.31 130.41h9.41v12.75h-9.41z"/><path class="b" d="M113.31 130.41h9.41v12.75h-9.41z"/><path class="a" d="M69.32 157.24h63v34.57h-63z"/><path class="b" d="M69.32 157.24h63v34.57h-63z"/><path class="a" d="M76.68 164.69h48.27v3.46H76.68z"/><path class="b" d="M76.68 164.69h48.27v3.46H76.68z"/><path class="c" d="M67.3 154.07h67.03v3.46H67.3z"/><path class="b" d="M67.3 154.07h67.03v3.46H67.3z"/><path class="a" d="M76.68 180.9h48.27v3.46H76.68z"/><path class="b" d="M76.68 180.9h48.27v3.46H76.68z"/><path class="a" d="M78.91 168.15h9.41v12.75h-9.41z"/><path class="b" d="M78.91 168.15h9.41v12.75h-9.41z"/><path class="a" d="M96.11 168.15h9.41v12.75h-9.41z"/><path class="b" d="M96.11 168.15h9.41v12.75h-9.41z"/><path class="a" d="M113.31 168.15h9.41v12.75h-9.41z"/><path class="b" d="M113.31 168.15h9.41v12.75h-9.41z"/><path class="a" d="M69.32 194.98h63v34.57h-63z"/><path class="b" d="M69.32 194.98h63v34.57h-63z"/><path class="a" d="M88.32 202.43h24.99v3.46H88.32z"/><path class="b" d="M88.32 202.43h24.99v3.46H88.32z"/><path class="c" d="M67.3 191.81h67.03v3.46H67.3z"/><path class="b" d="M67.3 191.81h67.03v3.46H67.3z"/><path class="a" d="M89.86 205.89h10.95v23.66H89.86z"/><path class="b" d="M89.86 205.89h10.95v23.66H89.86z"/><path class="a" d="M100.82 205.89h10.95v23.66h-10.95z"/><path class="b" d="M100.82 205.89h10.95v23.66h-10.95z"/><path class="a" d="M258.7 188.88h93.91v40.67H258.7z"/><path class="b" d="M258.7 188.88h93.91v40.67H258.7z"/><path class="d" d="M258.7 176.42h93.91v5.69H258.7zM266.58 196.38h17.5v33.16h-17.5z"/><path class="b" d="M266.58 196.38h17.5v33.16h-17.5z"/><path class="d" d="M270.55 199.71h9.57v9.5h-9.57z"/><path class="b" d="M270.55 199.71h9.57v9.5h-9.57z"/><path class="d" d="M270.55 217.3h9.57v9.5h-9.57z"/><path class="b" d="M270.55 217.3h9.57v9.5h-9.57z"/><path class="a" d="M292.06 196.38h51.26v25.66h-51.26z"/><path class="b" d="M292.06 196.38h51.26v25.66h-51.26z"/><path class="e" d="M290.52 219.21h54.35v2.83h-54.35z"/><path class="b" d="M290.52 219.21h54.35v2.83h-54.35z"/><path class="d" d="M255.94 188.2a4.23 4.23 0 0 0 7.73 2.39 4.23 4.23 0 0 0 7 0 4.23 4.23 0 0 0 7 0 4.23 4.23 0 0 0 7 0 4.23 4.23 0 0 0 7 0 4.23 4.23 0 0 0 7 0 4.23 4.23 0 0 0 7 0 4.23 4.23 0 0 0 7 0 4.23 4.23 0 0 0 7 0 4.23 4.23 0 0 0 7 0 4.23 4.23 0 0 0 7 0 4.23 4.23 0 0 0 7 0 4.23 4.23 0 0 0 7 0 4.24 4.24 0 0 0 7.74-2.39l-2.76-5.88H258.7z"/><path class="c" d="M272.26 182.82h-6.7l-1.93 6.44a3.07 3.07 0 0 0 3.41 3.18 3.38 3.38 0 0 0 3.67-3.18zM284.67 190.34s-1.83 1.8-3.51 1.8-3.5-1.8-3.5-1.8l1.3-7.52h6.7zM298.66 189.38s-1.09 2.76-3.72 2.76-3.29-2.76-3.29-2.76l.69-6.56H299zM312.67 189.27a3.49 3.49 0 0 1-3.51 2.87 3.31 3.31 0 0 1-3.51-2.87l.08-6.46h6.7zM325.83 182.82h-6.7l.51 6.46a3.91 3.91 0 0 0 3.75 2.87 3.18 3.18 0 0 0 3.26-2.75zM339.22 182.82h-6.7l1.32 7.67s.34 2.11 3.59 1.94 3.37-2.43 3.37-2.43zM352.62 182.82h-6.7l1.94 7.24s1.76 2.24 4 2 3.39-2.83 3.39-2.83zM265.55 176.95h6.71v4.55h-6.71zM278.94 176.95h6.71v4.55h-6.71zM292.34 176.95h6.71v4.55h-6.71zM305.73 176.95h6.71v4.55h-6.71zM319.12 176.95h6.71v4.55h-6.71zM332.52 176.95h6.71v4.55h-6.71zM345.91 176.95h6.71v4.55h-6.71z"/><path class="b" d="M258.7 176.42h93.91v5.69H258.7zM255.94 188.2a4.23 4.23 0 0 0 7.73 2.39 4.23 4.23 0 0 0 7 0 4.23 4.23 0 0 0 7 0 4.23 4.23 0 0 0 7 0 4.23 4.23 0 0 0 7 0 4.23 4.23 0 0 0 7 0 4.23 4.23 0 0 0 7 0 4.23 4.23 0 0 0 7 0 4.23 4.23 0 0 0 7 0 4.23 4.23 0 0 0 7 0 4.23 4.23 0 0 0 7 0 4.23 4.23 0 0 0 7 0 4.23 4.23 0 0 0 7 0 4.24 4.24 0 0 0 7.74-2.39l-2.76-5.88H258.7zM323.45 196.38l-5.2 5.21M317.89 196.38l-3.08 3.09"/><path class="c" d="M272.25 212.42h6.17v1.42h-6.17z"/><path class="f" d="M282.17 213a1 1 0 1 1-1-1 1 1 0 0 1 1 1"/><path class="b" d="M.75 229.55h390.79"/><path class="c" d="M51.88 193.54a13 13 0 1 1-13-13 13 13 0 0 1 13 13"/><circle class="b" cx="38.88" cy="193.54" r="12.99"/><path class="e" d="M73.87 180.55A19.5 19.5 0 1 1 54.37 161a19.5 19.5 0 0 1 19.5 19.5"/><circle class="b" cx="54.37" cy="180.55" r="19.5"/><path class="b" d="M54.38 182.8v46.75M38.88 200.05v29.5M54.38 193.46l5.25-5.25"/><path class="e" d="M333.77 200.8a10.88 10.88 0 0 1-10.87-10.87v-34.26a10.88 10.88 0 0 1 21.75 0v34.25a10.88 10.88 0 0 1-10.87 10.88"/><path class="b" d="M333.77 200.8a10.88 10.88 0 0 1-10.87-10.87v-34.26a10.88 10.88 0 0 1 21.75 0v34.25a10.88 10.88 0 0 1-10.88 10.88zM333.77 172.8v56.75M333.77 183.46l5.25-5.25M137.54 88.6h-19.76A11 11 0 1 0 97 81.39a5.07 5.07 0 0 0-6.93 7.21M69.32 129.36H57.87A6.58 6.58 0 1 0 46 124.92a3.91 3.91 0 0 0-6 4.44h-3.06"/><path class="c" d="M140.15 74.65h111.98v154.9H140.15z"/><path class="b" d="M140.15 74.65h111.98v154.9H140.15z"/><path class="a" d="M150.49 111.77h23.48v23.48h-23.48z"/><path class="b" d="M150.49 111.77h23.48v23.48h-23.48z"/><path class="a" d="M197.45 111.73h23.48v23.48h-23.48z"/><path class="b" d="M197.45 111.73h23.48v23.48h-23.48z"/><path class="a" d="M173.97 111.73h23.48v23.48h-23.48z"/><path class="b" d="M173.97 111.73h23.48v23.48h-23.48z"/><path class="a" d="M220.93 111.73h23.48v23.48h-23.48z"/><path class="b" d="M220.93 111.73h23.48v23.48h-23.48z"/><path class="a" d="M150.49 135.29h23.48v23.48h-23.48z"/><path class="b" d="M150.49 135.29h23.48v23.48h-23.48z"/><path class="a" d="M173.97 135.29h23.48v23.48h-23.48z"/><path class="b" d="M173.97 135.29h23.48v23.48h-23.48z"/><path class="a" d="M197.45 135.25h23.48v23.48h-23.48z"/><path class="b" d="M197.45 135.25h23.48v23.48h-23.48z"/><path class="a" d="M220.93 135.25h23.48v23.48h-23.48z"/><path class="b" d="M220.93 135.25h23.48v23.48h-23.48z"/><path class="a" d="M150.49 158.81h23.48v23.48h-23.48z"/><path class="b" d="M150.49 158.81h23.48v23.48h-23.48z"/><path class="a" d="M173.97 158.81h23.48v23.48h-23.48z"/><path class="b" d="M173.97 158.81h23.48v23.48h-23.48z"/><path class="a" d="M197.45 158.77h23.48v23.48h-23.48z"/><path class="b" d="M197.45 158.77h23.48v23.48h-23.48z"/><path class="a" d="M220.93 158.77h23.48v23.48h-23.48z"/><path class="b" d="M220.93 158.77h23.48v23.48h-23.48z"/><path class="a" d="M150.49 182.37h23.48v47.17h-23.48z"/><path class="b" d="M150.49 182.37h23.48v47.17h-23.48z"/><path class="a" d="M173.97 182.37h23.48v47.17h-23.48z"/><path class="b" d="M173.97 182.37h23.48v47.17h-23.48z"/><path class="a" d="M197.45 182.29h23.48v47.17h-23.48z"/><path class="b" d="M197.45 182.29h23.48v47.17h-23.48z"/><path class="d" d="M220.93 182.29h23.48v47.17h-23.48z"/><path class="b" d="M220.93 182.29h23.48v47.17h-23.48z"/><path class="a" d="M220.93 182.29h23.48v47.17h-23.48z"/><path class="b" d="M220.93 182.29h23.48v47.17h-23.48z"/><path class="d" d="M173.97 197.38h23.48"/><path class="g" d="M173.97 197.38h23.48"/><path class="d" d="M197.45 197.38h23.48"/><path class="g" d="M197.45 197.38h23.48"/><path class="b" d="M69.32 116.33a3.51 3.51 0 1 1 7 0M76.34 116.33a3.51 3.51 0 1 1 7 0M83.37 116.33a3.51 3.51 0 1 1 7 0M90.39 116.33a3.51 3.51 0 1 1 7 0M97.42 116.33a3.51 3.51 0 1 1 7 0M104.44 116.33a3.51 3.51 0 1 1 7 0M111.47 116.33a3.51 3.51 0 1 1 7 0M118.49 116.33a3.51 3.51 0 1 1 7 0M125.52 116.33a3.51 3.51 0 1 1 7 0"/><path class="a" d="M200.38 200.21h17.55v26.42h-17.55z"/><path class="b" d="M200.38 200.21h17.55v26.42h-17.55z"/><path class="a" d="M176.94 200.21h17.55v26.42h-17.55z"/><path class="b" d="M176.94 200.21h17.55v26.42h-17.55z"/><path class="c" d="M146.36 182.42h102.18v3.46H146.36z"/><path class="b" d="M146.36 182.42h102.18v3.46H146.36z"/><path class="a" d="M248.37 46.15l3.23 13a4.41 4.41 0 1 1-8.6 2.17l-3.74-15.08"/><path class="b" d="M248.37 46.15l3.23 13a4.41 4.41 0 1 1-8.6 2.17l-3.74-15.08"/><path class="a" d="M244.32 46.15h-10.58a10.58 10.58 0 0 1 0-21.17h10.58z"/><path class="b" d="M244.32 46.15h-10.58a10.58 10.58 0 0 1 0-21.17h10.58zM239.68 24.99v11.12"/><path class="a" d="M282.29 60.88l-24.8-14.73V25l24.8-14.73a2.23 2.23 0 0 1 3.12 2v46.57a2.23 2.23 0 0 1-3.12 2"/><path class="b" d="M282.29 60.88l-24.8-14.73V25l24.8-14.73a2.23 2.23 0 0 1 3.12 2v46.57a2.23 2.23 0 0 1-3.12 2.04z"/><path class="e" d="M244.32 24.99h13.17v21.17h-13.17z"/><path class="b" d="M244.32 24.99h13.17v21.17h-13.17zM285.41 26.49a7.5 7.5 0 1 1 0 15"/><path class="c" d="M299.62 25.61a2.15 2.15 0 1 1-2.15-2.15 2.15 2.15 0 0 1 2.15 2.15M310.65 37.39a1.82 1.82 0 1 1-1.82-1.82 1.82 1.82 0 0 1 1.82 1.82M301.87 42.51a1.82 1.82 0 1 1-1.87-1.82 1.82 1.82 0 0 1 1.82 1.82"/><path class="f" d="M304.83 28.51a.75.75 0 1 1-.75-.75.75.75 0 0 1 .75.75M299 35.57a.75.75 0 1 1-.75-.75.75.75 0 0 1 .75.75"/><path class="c" d="M105.27 21.2L132.51.77a3.32 3.32 0 0 1 3.76 0l27.25 20.43s-28.08 24.62-29 22.06-29.25-22.06-29.25-22.06"/><path class="a" d="M155.76 49.58H113a2.42 2.42 0 0 1-2.42-2.42v-39A2.42 2.42 0 0 1 113 5.75h42.73a2.42 2.42 0 0 1 2.42 2.42v39a2.42 2.42 0 0 1-2.42 2.42"/><rect class="b" x="110.6" y="5.75" width="47.58" height="43.83" rx="2.42" ry="2.42"/><path class="a" d="M159.21 58.33h-49.64c-2 0-3.68-2-3.68-4.41V22.58l26.64 18.68a3.3 3.3 0 0 0 3.73 0l26.64-18.68v31.34c0 2.43-1.65 4.41-3.68 4.41"/><path class="b" d="M159.21 58.33h-49.64c-2 0-3.68-2-3.68-4.41V22.58l26.64 18.68a3.3 3.3 0 0 0 3.73 0l26.64-18.68v31.34c-.01 2.44-1.65 4.41-3.69 4.41z"/><path class="d" d="M126.54 43.45L111.77 53.8"/><path class="b" d="M126.54 43.45L111.77 53.8"/><path class="d" d="M157.02 53.8l-15.04-10.54"/><path class="b" d="M157.02 53.8l-15.04-10.54"/><path class="d" d="M168.69 25.25h-27.66l-7.01 4.99V.75h34.67v24.5z"/><path class="b" d="M168.69 25.25h-27.66l-7.01 4.99V.75h34.67v24.5z"/><path class="f" d="M161.42 15.49h-19.26a.75.75 0 0 1 0-1.5h19.26a.75.75 0 0 1 0 1.5M153.73 19.49h-11.57a.75.75 0 0 1 0-1.5h11.57a.75.75 0 0 1 0 1.5M141.93 8.29a3 3 0 1 0 3-3 3 3 0 0 0-3 3"/><path class="a" d="M179.75 61.37C179.8 75 196.11 89 199.13 89s19.24-14.11 19.2-27.74a19.29 19.29 0 0 0-38.58.13m12.56 0a6.73 6.73 0 1 1 6.75 6.61 6.73 6.73 0 0 1-6.75-6.71"/><path class="b" d="M179.75 61.37C179.8 75 196.11 89 199.13 89s19.24-14.11 19.2-27.74a19.29 19.29 0 0 0-38.58.13zm12.56 0a6.73 6.73 0 1 1 6.75 6.63 6.73 6.73 0 0 1-6.75-6.67z"/><path class="d" d="M234.54 87.67a3 3 0 1 1-3-3 3 3 0 0 1 3 3"/><circle class="b" cx="231.54" cy="87.67" r="3"/><path class="d" d="M207.38 100.67a3 3 0 1 1-3-3 3 3 0 0 1 3 3"/><circle class="b" cx="204.38" cy="100.67" r="3"/><path class="d" d="M167.25 83.59a3 3 0 1 1-3-3 3 3 0 0 1 3 3"/><circle class="b" cx="164.25" cy="83.59" r="3"/><path class="b" d="M239.31 87.29H256a3.41 3.41 0 0 0 3.41-3.41v-24M212.71 101.34h56.39M156 83.87h-6.37a3.41 3.41 0 0 1-3.41-3.41V62.8"/><path class="c" d="M326.58 132.14h-46a1.92 1.92 0 0 1-1.92-1.92v-33a1.92 1.92 0 0 1 1.92-1.92h46a1.92 1.92 0 0 1 1.92 1.92v33a1.92 1.92 0 0 1-1.92 1.92"/><rect class="b" x="278.67" y="95.35" width="49.82" height="36.79" rx="1.92" ry="1.92"/><path class="a" d="M323.15 132.14h-46a1.92 1.92 0 0 1-1.92-1.92v-33a1.92 1.92 0 0 1 1.92-1.92h46a1.92 1.92 0 0 1 1.92 1.92v33a1.92 1.92 0 0 1-1.92 1.92"/><rect class="b" x="275.25" y="95.35" width="49.82" height="36.79" rx="1.92" ry="1.92"/><path class="b" d="M316.96 104.88v19.63"/><path class="c" d="M318.7 108.72A1.74 1.74 0 1 1 317 107a1.74 1.74 0 0 1 1.74 1.74"/><circle class="b" cx="316.96" cy="108.72" r="1.74"/><path class="e" d="M306.37 113.75a12 12 0 1 1-12-12 12 12 0 0 1 12 12"/><circle class="b" cx="294.34" cy="113.75" r="12.03"/><circle class="b" cx="294.34" cy="113.75" r="14.62"/><path class="d" d="M298 113.75a3.62 3.62 0 1 1-3.62-3.62 3.62 3.62 0 0 1 3.62 3.62"/><circle class="b" cx="294.34" cy="113.75" r="3.62"/></svg>