<svg xmlns="http://www.w3.org/2000/svg" width="466.53" height="278.92" viewBox="0 0 466.53 278.92"><defs><style>.a{fill:#f5f5f5}.b{fill:#fff}.c{fill:#d1bef1}.d{fill:#e3dfec}.e{fill:none;stroke:#3e3750;stroke-linecap:round;stroke-miterlimit:10;stroke-width:1.5px}.f{fill:#3e3750}</style></defs><title>analyse</title><path class="a" d="M338.78 246.17h-240V94.75a6.36 6.36 0 0 1 6.1-6.58h227.8a6.36 6.36 0 0 1 6.1 6.58z"/><path class="b" d="M338.78 246.17h-240V94.75a6.36 6.36 0 0 1 6.1-6.58h227.8a6.36 6.36 0 0 1 6.1 6.58z"/><path class="c" d="M334.78 88.17h2.9a6.36 6.36 0 0 1 6.1 6.58v151.42h-5v-153z"/><path class="d" d="M98.78 241.17h240v5h-240z"/><path class="e" d="M338.78 246.17h-240V94.75a6.36 6.36 0 0 1 6.1-6.58h227.8a6.36 6.36 0 0 1 6.1 6.58z"/><path class="e" d="M330.78 246.17h13V94.75a6.36 6.36 0 0 0-6.1-6.58h-10.9M110.78 100.17h216v134h-216z"/><path class="c" d="M356.78 256.17h-280a10 10 0 0 1-10-10h300a10 10 0 0 1-10 10"/><path class="e" d="M356.78 256.17h-280a10 10 0 0 1-10-10h300a10 10 0 0 1-10 10z"/><path class="b" d="M352.78 256.17h-280a10 10 0 0 1-10-10h300a10 10 0 0 1-10 10"/><path class="e" d="M352.78 256.17h-280a10 10 0 0 1-10-10h300a10 10 0 0 1-10 10z"/><path class="c" d="M229.78 251.17h-33a5 5 0 0 1-5-5h43a5 5 0 0 1-5 5"/><path class="e" d="M229.78 251.17h-33a5 5 0 0 1-5-5h43a5 5 0 0 1-5 5zM401.78 231.17h64M29.78 231.17h69"/><path class="b" d="M308.78 216.17h-219v-133a4 4 0 0 1 4-4h211a4 4 0 0 1 4 4z"/><path class="a" d="M89.78 94.17h41v122h-41zM89.78 94.17h218v-11.1a3.9 3.9 0 0 0-3.9-3.9H93.68a3.9 3.9 0 0 0-3.9 3.9z"/><path class="e" d="M274.78 94.17h33"/><path class="a" d="M99.28 86.67a2 2 0 1 1-2-2 2 2 0 0 1 2 2"/><circle class="e" cx="97.28" cy="86.67" r="2"/><path class="a" d="M106.28 86.67a2 2 0 1 1-2-2 2 2 0 0 1 2 2"/><circle class="e" cx="104.28" cy="86.67" r="2"/><path class="a" d="M118.78 114.17a8 8 0 1 1-8-8 8 8 0 0 1 8 8"/><circle class="e" cx="110.78" cy="114.17" r="8"/><path class="f" d="M121.78 130.17h-22a1 1 0 0 1 0-2h22a1 1 0 0 1 0 2M114.78 134.17h-8a1 1 0 0 1 0-2h8a1 1 0 0 1 0 2"/><path class="e" d="M105.78 120.17a5 5 0 0 1 10 0"/><path class="a" d="M113.78 112.67a3 3 0 1 1-3-3 3 3 0 0 1 3 3"/><circle class="e" cx="110.78" cy="112.67" r="3"/><path class="c" d="M148.78 199.17h42v9h-42z"/><path class="e" d="M148.78 199.17h42"/><path class="f" d="M179.87 190.84l-3.56-5a.84.84 0 0 0-1.38 0L172.7 189l-4.79-6.78a.84.84 0 0 0-1.38 0l-6.12 8.65a.84.84 0 0 0 .69 1.33h18.08a.84.84 0 0 0 .69-1.33M173.66 183.37a1.6 1.6 0 1 0-1.6-1.6 1.6 1.6 0 0 0 1.6 1.6"/><rect class="e" x="148.78" y="173.17" width="42" height="35" rx="1" ry="1"/><path class="c" d="M196.78 199.17h42v9h-42z"/><path class="e" d="M196.78 199.17h42"/><path class="f" d="M227.87 190.84l-3.56-5a.84.84 0 0 0-1.38 0L220.7 189l-4.79-6.78a.84.84 0 0 0-1.38 0l-6.12 8.65a.84.84 0 0 0 .69 1.33h18.08a.84.84 0 0 0 .69-1.33M221.66 183.37a1.6 1.6 0 1 0-1.6-1.6 1.6 1.6 0 0 0 1.6 1.6"/><rect class="e" x="196.78" y="173.17" width="42" height="35" rx="1" ry="1"/><path class="c" d="M244.78 199.17h42v9h-42z"/><path class="e" d="M244.78 199.17h42"/><path class="f" d="M275.87 190.84l-3.56-5a.84.84 0 0 0-1.38 0L268.7 189l-4.8-6.78a.84.84 0 0 0-1.38 0l-6.12 8.65a.84.84 0 0 0 .69 1.33h18.08a.84.84 0 0 0 .69-1.33M269.66 183.37a1.6 1.6 0 1 0-1.6-1.6 1.6 1.6 0 0 0 1.6 1.6"/><rect class="e" x="244.78" y="173.17" width="42" height="35" rx="1" ry="1"/><path class="a" d="M228.28 141.17a2.5 2.5 0 1 1-2.5-2.5 2.5 2.5 0 0 1 2.5 2.5"/><circle class="e" cx="225.78" cy="141.17" r="2.5"/><path class="c" d="M149.78 166.17h136a1 1 0 0 0 1-1v-53a1 1 0 0 0-1-1h-136a1 1 0 0 0-1 1v53a1 1 0 0 0 1 1"/><rect class="e" x="148.78" y="111.17" width="138" height="55" rx="1" ry="1"/><path class="a" d="M211.19 138.67a14.5 14.5 0 1 1-14.5-14.5 14.5 14.5 0 0 1 14.5 14.5"/><path class="f" d="M251.09 134.92H201.2a.75.75 0 0 1 0-1.5h49.9a.75.75 0 0 1 0 1.5M239.4 143.67h-38.2a.75.75 0 0 1 0-1.5h38.2a.75.75 0 0 1 0 1.5"/><path class="e" d="M89.78 94.17h159M308.78 216.17h-219v-133a4 4 0 0 1 4-4h211a4 4 0 0 1 4 4z"/><path class="c" d="M53.28 213.78c.71.71 1.44 1.37 2.19 2a38 38 0 0 1 53.58-53.58c-.64-.75-1.3-1.48-2-2.19a38 38 0 0 0-53.76 53.76"/><path class="e" d="M53.28 213.78c.71.71 1.44 1.37 2.19 2a38 38 0 0 1 53.58-53.58c-.64-.75-1.3-1.48-2-2.19a38 38 0 0 0-53.76 53.76z"/><path class="a" d="M102.42 155.4a38 38 0 1 0 0 53.76 38 38 0 0 0 0-53.76M52.86 205a32.07 32.07 0 1 1 45.36 0 32.07 32.07 0 0 1-45.36 0"/><path class="a" d="M102.42 155.4a38 38 0 1 0 0 53.76 38 38 0 0 0 0-53.76M52.86 205a32.07 32.07 0 1 1 45.36 0 32.07 32.07 0 0 1-45.36 0"/><circle class="e" cx="75.54" cy="182.28" r="38.01" transform="rotate(-45 75.539 182.27)"/><circle class="e" cx="75.54" cy="182.28" r="38.01" transform="rotate(-45 75.539 182.27)"/><circle class="e" cx="75.54" cy="182.28" r="32.07" transform="rotate(-45 75.539 182.27)"/><path class="d" d="M4.1 255.31l-1.59-1.59a6 6 0 0 1 0-8.49l31.83-31.83a6 6 0 0 1 8.49 0l1.59 1.6a6 6 0 0 1 0 8.49l-31.83 31.82a6 6 0 0 1-8.48 0"/><path class="e" d="M4.1 255.31l-1.59-1.59a6 6 0 0 1 0-8.49l31.83-31.83a6 6 0 0 1 8.49 0l1.59 1.6a6 6 0 0 1 0 8.49l-31.83 31.82a6 6 0 0 1-8.49 0z"/><path class="a" d="M41.946 212.519l5.042-5.042 3.358 3.359-5.041 5.042z"/><path class="e" d="M41.946 212.519l5.042-5.042 3.358 3.359-5.041 5.042z"/><path class="c" d="M106.62 159.6a34.09 34.09 0 0 0-2.19-2 38 38 0 0 1-53.58 53.58c.64.75 1.3 1.48 2 2.19a38 38 0 0 0 53.76-53.76"/><path class="e" d="M106.62 159.6a34.09 34.09 0 0 0-2.19-2 38 38 0 0 1-53.58 53.58c.64.75 1.3 1.48 2 2.19a38 38 0 0 0 53.76-53.76z"/><path class="f" d="M66 184.65a4.75 4.75 0 1 1-4.75-4.75 4.75 4.75 0 0 1 4.75 4.75M80.29 184.65a4.75 4.75 0 1 1-4.75-4.75 4.75 4.75 0 0 1 4.75 4.75M94.55 184.65a4.75 4.75 0 1 1-4.75-4.75 4.75 4.75 0 0 1 4.75 4.75"/><path class="c" d="M386.78 278.17h9a6 6 0 0 0 6-6.09V152.26a6 6 0 0 0-6-6.09h-9z"/><path class="b" d="M388.78 276.17h-60a6 6 0 0 1-6-6v-118a6 6 0 0 1 6-6h60a6 6 0 0 1 6 6v118a6 6 0 0 1-6 6"/><path class="b" d="M393.78 162.17h-70v-10a5 5 0 0 1 5-5h60a5 5 0 0 1 5 5zM323.78 258.17h70v14a5 5 0 0 1-5 5h-60a5 5 0 0 1-5-5z"/><rect class="e" x="322.78" y="146.17" width="72" height="132" rx="6" ry="6"/><path class="e" d="M386.78 146.17h9a6 6 0 0 1 6 6.09v119.81a6 6 0 0 1-6 6.09h-9M344.78 154.17h24"/><path class="a" d="M363.78 268.17a5 5 0 1 1-5-5 5 5 0 0 1 5 5"/><circle class="e" cx="358.78" cy="268.17" r="5"/><path class="a" d="M328.78 250.17h59a1 1 0 0 0 1-1v-80a1 1 0 0 0-1-1h-59a1 1 0 0 0-1 1v80a1 1 0 0 0 1 1"/><rect class="e" x="327.78" y="168.17" width="61" height="82" rx="1" ry="1"/><path class="e" d="M333.78 162.17h65"/><path class="c" d="M313.78 208.17h66a1 1 0 0 0 1-1v-32a1 1 0 0 0-1-1h-66a1 1 0 0 0-1 1v32a1 1 0 0 0 1 1"/><rect class="e" x="312.78" y="174.17" width="68" height="34" rx="1" ry="1"/><path class="f" d="M356.87 195.84l-3.56-5a.84.84 0 0 0-1.38 0L349.7 194l-4.8-6.78a.84.84 0 0 0-1.38 0l-6.12 8.65a.84.84 0 0 0 .69 1.33h18.08a.84.84 0 0 0 .69-1.33M350.66 188.37a1.6 1.6 0 1 0-1.6-1.6 1.6 1.6 0 0 0 1.6 1.6"/><path class="b" d="M313.78 231.17h66a1 1 0 0 0 1-1v-14a1 1 0 0 0-1-1h-66a1 1 0 0 0-1 1v14a1 1 0 0 0 1 1"/><rect class="e" x="312.78" y="215.17" width="68" height="16" rx="1" ry="1"/><path class="f" d="M357.78 222.17h-29a1 1 0 0 1 0-2h29a1 1 0 0 1 0 2M351.78 226.17h-23a1 1 0 0 1 0-2h23a1 1 0 0 1 0 2M317.78 223.17a3 3 0 1 0 3-3 3 3 0 0 0-3 3"/><path class="b" d="M313.78 253.17h66a1 1 0 0 0 1-1v-14a1 1 0 0 0-1-1h-66a1 1 0 0 0-1 1v14a1 1 0 0 0 1 1"/><rect class="e" x="312.78" y="237.17" width="68" height="16" rx="1" ry="1"/><path class="f" d="M357.78 244.17h-29a1 1 0 0 1 0-2h29a1 1 0 0 1 0 2M351.78 248.17h-23a1 1 0 0 1 0-2h23a1 1 0 0 1 0 2M317.78 245.17a3 3 0 1 0 3-3 3 3 0 0 0-3 3"/><path class="e" d="M341.78 258.17h57"/><path class="c" d="M299.67 34.32v-9l-6.42-1.6a23.3 23.3 0 0 0-2.34-5.66l3.4-5.67-6.55-6.56h-3.6l-1.85 3.63a23.34 23.34 0 0 0-5.66-2.34l-1.6-6.37h-9l-1.6 6.42a23.34 23.34 0 0 0-5.66 2.34l-6.15-3.62h-3.54l-2.31 6.55 3.4 5.67a23.34 23.34 0 0 0-2.34 5.66l-6.42 1.6v9l6.42 1.61a23.32 23.32 0 0 0 2.34 5.66l-3.4 5.67 2.35 6.56h3.75l5.9-3.63a23.33 23.33 0 0 0 5.66 2.34l1.6 6.42h9l1.6-6.42a23.33 23.33 0 0 0 5.66-2.34l1.81 3.61h3.65l6.54-6.54-3.4-5.67a23.28 23.28 0 0 0 2.34-5.66zm-29.1 10.08a14.55 14.55 0 1 1 14.55-14.55 14.55 14.55 0 0 1-14.55 14.55"/><path class="e" d="M299.67 34.32v-9l-6.42-1.6a23.3 23.3 0 0 0-2.34-5.66l3.4-5.67-6.55-6.56h-3.6l-1.85 3.63a23.34 23.34 0 0 0-5.66-2.34l-1.6-6.37h-9l-1.6 6.42a23.34 23.34 0 0 0-5.66 2.34l-6.15-3.62h-3.54l-2.31 6.55 3.4 5.67a23.34 23.34 0 0 0-2.34 5.66l-6.42 1.6v9l6.42 1.61a23.32 23.32 0 0 0 2.34 5.66l-3.4 5.67 2.35 6.56h3.75l5.9-3.63a23.33 23.33 0 0 0 5.66 2.34l1.6 6.42h9l1.6-6.42a23.33 23.33 0 0 0 5.66-2.34l1.81 3.61h3.65l6.54-6.54-3.4-5.67a23.28 23.28 0 0 0 2.34-5.66zm-29.1 10.08a14.55 14.55 0 1 1 14.55-14.55 14.55 14.55 0 0 1-14.55 14.55z"/><path class="b" d="M295.19 34.32v-9l-6.42-1.6a23.3 23.3 0 0 0-2.34-5.66l3.4-5.67-6.33-6.33-5.67 3.4a23.34 23.34 0 0 0-5.66-2.34l-1.6-6.37h-9L260 7.17a23.34 23.34 0 0 0-5.66 2.34l-5.67-3.4-6.33 6.33 3.4 5.67a23.34 23.34 0 0 0-2.34 5.66l-6.4 1.6v9l6.42 1.61a23.32 23.32 0 0 0 2.34 5.66l-3.4 5.67 6.33 6.33 5.67-3.4a23.33 23.33 0 0 0 5.64 2.29l1.6 6.42h9l1.6-6.42a23.33 23.33 0 0 0 5.66-2.34l5.67 3.4 6.33-6.33-3.4-5.67a23.28 23.28 0 0 0 2.34-5.66zM266.1 44.4a14.55 14.55 0 1 1 14.55-14.55A14.55 14.55 0 0 1 266.1 44.4"/><path class="e" d="M295.19 34.32v-9l-6.42-1.6a23.3 23.3 0 0 0-2.34-5.66l3.4-5.67-6.33-6.33-5.67 3.4a23.34 23.34 0 0 0-5.66-2.34l-1.6-6.37h-9L260 7.17a23.34 23.34 0 0 0-5.66 2.34l-5.67-3.4-6.33 6.33 3.4 5.67a23.34 23.34 0 0 0-2.34 5.66l-6.4 1.6v9l6.42 1.61a23.32 23.32 0 0 0 2.34 5.66l-3.4 5.67 6.33 6.33 5.67-3.4a23.33 23.33 0 0 0 5.64 2.29l1.6 6.42h9l1.6-6.42a23.33 23.33 0 0 0 5.66-2.34l5.67 3.4 6.33-6.33-3.4-5.67a23.28 23.28 0 0 0 2.34-5.66zM266.1 44.4a14.55 14.55 0 1 1 14.55-14.55A14.55 14.55 0 0 1 266.1 44.4zM289.84 12.44h4.47M286.43 18.1h4.48M286.43 41.55h4.48M289.65 47.19h4.48M248 29.85a18.07 18.07 0 0 1 8-15M280.95 19.51a18.09 18.09 0 0 1-14.85 28.43M266.1 11.75a18 18 0 0 1 6.54 1.25"/><path class="f" d="M260 13.27a.83.83 0 1 1-.83-.83.83.83 0 0 1 .83.83M263.2 47.19a.83.83 0 1 1-.83-.83.83.83 0 0 1 .83.83M253.2 94.16a.76.76 0 1 1-.76-.76.76.76 0 0 1 .76.76"/><path class="b" d="M131.26 34.19h-.45a11.11 11.11 0 0 0-15.17-13.28A28 28 0 0 0 62.49 38a20.44 20.44 0 0 0-8.66 16.71A20.47 20.47 0 0 0 74.3 75.13h57a20.47 20.47 0 0 0 20.47-20.47 20.47 20.47 0 0 0-20.47-20.47"/><path class="e" d="M131.26 34.19h-.45a11.11 11.11 0 0 0-15.17-13.28A28 28 0 0 0 62.49 38a20.44 20.44 0 0 0-8.66 16.71A20.47 20.47 0 0 0 74.3 75.13h57a20.47 20.47 0 0 0 20.47-20.47 20.47 20.47 0 0 0-20.51-20.47z"/><path class="c" d="M119.07 46.07a19 19 0 1 1-19-19 19 19 0 0 1 19 19"/><path class="a" d="M103.63 49.15l-6.54 6.54a2.17 2.17 0 0 1-3 .07l-5.9-5.39a3.25 3.25 0 0 1-.67-4.05 3.17 3.17 0 0 1 4.86-.71l2.44 2.23a.86.86 0 0 0 1.19 0l10.36-10.36a3.29 3.29 0 0 1 4.49-.24 3.17 3.17 0 0 1 .12 4.6l-4.26 4.26"/><path class="e" d="M111 41.81a3.17 3.17 0 0 0-.12-4.6 3.29 3.29 0 0 0-4.49.24L96 47.81a.86.86 0 0 1-1.19 0l-2.44-2.23a3.17 3.17 0 0 0-4.86.7 3.25 3.25 0 0 0 .67 4.06l5.9 5.39a2.17 2.17 0 0 0 3-.07zM267.1 63.94v33.5M190.41 57.43h-33.49M190.41 151.17V57.43"/><path class="c" d="M270.1 103.92a3 3 0 1 1-3-3 3 3 0 0 1 3 3"/><circle class="e" cx="267.1" cy="103.92" r="3"/><path class="b" d="M193.41 154.17a3 3 0 1 1-3-3 3 3 0 0 1 3 3"/><circle class="e" cx="190.41" cy="154.17" r="3"/><path class="b" d="M374.79 70.91c-8.11 0-15.06-4.05-18-6-3 1.94-9.91 6-18 6a65.46 65.46 0 0 1-8-.47v28.49c0 14.35 26 26 26 26s26-11.63 26-26V70.44a65.49 65.49 0 0 1-8 .47"/><path class="e" d="M374.79 70.91c-8.11 0-15.06-4.05-18-6-3 1.94-9.91 6-18 6a65.46 65.46 0 0 1-8-.47v28.49c0 14.35 26 26 26 26s26-11.63 26-26V70.44a65.49 65.49 0 0 1-8 .47z"/><path class="a" d="M362.15 79.18a8.34 8.34 0 0 0-13.3 6.72v5.63"/><path class="e" d="M362.15 79.18a8.34 8.34 0 0 0-13.3 6.72v5.63"/><path class="a" d="M365.55 91.52V85.9a8.32 8.32 0 0 0-.82-3.62"/><path class="e" d="M365.55 91.52V85.9a8.32 8.32 0 0 0-.82-3.62M352.25 91.52V85.9a5 5 0 1 1 9.91 0V87"/><path class="c" d="M368.22 106.2h-22a1.13 1.13 0 0 1-1.14-1.13V91.52a1.13 1.13 0 0 1 1.14-1.13h22a1.13 1.13 0 0 1 1.13 1.13v13.55a1.13 1.13 0 0 1-1.13 1.13"/><path class="a" d="M359.76 96a2.56 2.56 0 1 0-4.06 2v4a1.5 1.5 0 1 0 3 0v-4a2.55 2.55 0 0 0 1.06-2"/><path class="e" d="M359.76 96a2.56 2.56 0 1 0-4.06 2v4a1.5 1.5 0 1 0 3 0v-4a2.55 2.55 0 0 0 1.06-2z"/><path class="e" d="M345.8 113.55a77.26 77.26 0 0 0 11 6.7 79.54 79.54 0 0 0 10.65-6.43c7.19-5.23 11.15-10.52 11.15-14.9V75c-1.24.06-2.5.1-3.77.1a36.57 36.57 0 0 1-18-5.26 36.56 36.56 0 0 1-18 5.26q-1.91 0-3.77-.1v23.93c0 2.63 1.34 5.3 3.4 7.83"/></svg>