<svg xmlns="http://www.w3.org/2000/svg" width="284.65" height="264.66" viewBox="0 0 284.65 264.66"><defs><style>.a,.h{fill:none}.a,.b,.h{stroke:#3e3750;stroke-miterlimit:10;stroke-width:1.5px}.a,.b{stroke-linecap:round}.b,.f{fill:#fff}.c{fill:#f5f5f5}.d{fill:#d1bef1}.e{fill:#3e3750}.g{fill:#e3dfec}</style></defs><title>implement</title><path class="a" d="M178 194.16a61.3 61.3 0 0 0-82.91 0"/><circle class="b" cx="136.59" cy="161.21" r="52.97"/><path class="c" d="M178 194.16a61.3 61.3 0 0 0-82.91 0l6.15 6.55 5.63 4.75 7.25 4 10.5 3.25 9.88 1.75 11.75-.87 10.38-2.87 6.5-3.37 4.5-3.37 5.13-3.87z"/><circle class="a" cx="136.59" cy="161.21" r="52.97"/><path class="c" d="M165.45 161.21a28.86 28.86 0 1 1-28.86-28.86 28.86 28.86 0 0 1 28.86 28.86M132.89 156.66a4.55 4.55 0 1 1-9.1 0M149.4 156.66a4.55 4.55 0 1 1-9.1 0"/><path class="d" d="M262.57 156.34h-68.1c-2 0-10.11 3.57-10.11 3.57s2.81-8.81 2.81-10.86v-43.31a7.29 7.29 0 0 1 7.29-7.29h68.1a7.29 7.29 0 0 1 7.29 7.29V149a7.29 7.29 0 0 1-7.29 7.29"/><path class="a" d="M262.57 156.34h-68.1c-2 0-10.11 3.57-10.11 3.57s2.81-8.81 2.81-10.86v-43.31a7.29 7.29 0 0 1 7.29-7.29h68.1a7.29 7.29 0 0 1 7.29 7.29V149a7.29 7.29 0 0 1-7.28 7.34z"/><path class="d" d="M260.64 128a5.76 5.76 0 1 1-5.76-5.76 5.76 5.76 0 0 1 5.76 5.76"/><path class="e" d="M256.8 129.18h-53.65a1 1 0 0 1-1-1v-.29a1 1 0 0 1 1-1h53.65a1 1 0 0 1 1 1v.29a1 1 0 0 1-1 1M256.8 140.28h-53.65a1 1 0 0 1-1-1V139a1 1 0 0 1 1-1h53.65a1 1 0 0 1 1 1v.29a1 1 0 0 1-1 1"/><path class="f" d="M205.22 166.8h68.1c2 0 10.11 3.57 10.11 3.57s-2.81-8.81-2.81-10.86V116.2a7.29 7.29 0 0 0-7.29-7.29h-68.1a7.29 7.29 0 0 0-7.29 7.29v43.31a7.29 7.29 0 0 0 7.29 7.29"/><path class="a" d="M205.22 166.8h68.1c2 0 10.11 3.57 10.11 3.57s-2.81-8.81-2.81-10.86V116.2a7.29 7.29 0 0 0-7.29-7.29h-68.1a7.29 7.29 0 0 0-7.29 7.29v43.31a7.29 7.29 0 0 0 7.28 7.29z"/><path class="d" d="M207.15 138.49a5.76 5.76 0 1 0 5.76-5.76 5.76 5.76 0 0 0-5.76 5.76M232.05 138.49a5.76 5.76 0 1 0 5.76-5.76 5.76 5.76 0 0 0-5.76 5.76M257 138.49a5.76 5.76 0 1 0 5.76-5.76 5.76 5.76 0 0 0-5.76 5.76"/><path class="e" d="M214.25 128.14h47.12a.75.75 0 1 0 0-1.5h-47.12a.75.75 0 1 0 0 1.5M214.25 139.24h47.12a.75.75 0 0 0 0-1.5h-47.12a.75.75 0 0 0 0 1.5M214.25 150.35h47.12a.75.75 0 0 0 0-1.5h-47.12a.75.75 0 0 0 0 1.5"/><path class="f" d="M62.23 146.41H5.4a1 1 0 0 0-1 1v3.66l-3.34 3.34 3.34 3.34v3.66a1 1 0 0 0 1 1h56.83a1 1 0 0 0 1-1v-14a1 1 0 0 0-1-1"/><path class="a" d="M62.23 146.41H5.4a1 1 0 0 0-1 1v3.66l-3.34 3.34 3.34 3.34v3.66a1 1 0 0 0 1 1h56.83a1 1 0 0 0 1-1v-14a1 1 0 0 0-1-1z"/><path class="e" d="M50.42 153.41h-29a1 1 0 1 1 0-2h29a1 1 0 0 1 0 2M44.42 157.41h-23a1 1 0 0 1 0-2h23a1 1 0 1 1 0 2M10.42 154.41a3 3 0 1 0 3-3 3 3 0 0 0-3 3"/><path class="f" d="M62.23 194.16H5.4a1 1 0 0 0-1 1v3.66l-3.34 3.34 3.34 3.34v3.66a1 1 0 0 0 1 1h56.83a1 1 0 0 0 1-1v-14a1 1 0 0 0-1-1"/><path class="a" d="M62.23 194.16H5.4a1 1 0 0 0-1 1v3.66l-3.34 3.34 3.34 3.34v3.66a1 1 0 0 0 1 1h56.83a1 1 0 0 0 1-1v-14a1 1 0 0 0-1-1z"/><path class="e" d="M49.58 200.2h-29a1 1 0 1 1 0-2h29a1 1 0 1 1 0 2M43.58 204.2h-23a1 1 0 1 1 0-2h23a1 1 0 1 1 0 2M9.58 201.32a3 3 0 1 0 3-3 3 3 0 0 0-3 3"/><path class="g" d="M13 186.29h56.83a1 1 0 0 0 1-1v-3.66l3.34-3.34-3.34-3.34v-3.66a1 1 0 0 0-1-1H13a1 1 0 0 0-1 1v14a1 1 0 0 0 1 1"/><path class="a" d="M13 186.29h56.83a1 1 0 0 0 1-1v-3.66l3.34-3.34-3.34-3.34v-3.66a1 1 0 0 0-1-1H13a1 1 0 0 0-1 1v14a1 1 0 0 0 1 1z"/><path class="e" d="M24.81 179.29h29a1 1 0 1 1 0 2h-29a1 1 0 1 1 0-2M30.81 175.29h23a1 1 0 1 1 0 2h-23a1 1 0 1 1 0-2M64.81 178.29a3 3 0 1 0-3 3 3 3 0 0 0 3-3"/><path class="c" d="M221.85 202.87l-4.7-1.62-1.62 4.7-5.5-11.29 6.32-3.08 5.5 11.29z"/><path class="a" d="M221.85 202.87l-4.7-1.62-1.62 4.7-5.5-11.29 6.32-3.08 5.5 11.29z"/><path class="c" d="M201.09 202.87l4.7-1.62 1.62 4.7 5.5-11.29-6.32-3.08-5.5 11.29z"/><path class="a" d="M201.09 202.87l4.7-1.62 1.62 4.7 5.5-11.29-6.32-3.08-5.5 11.29z"/><path class="c" d="M219.63 186.54a8.16 8.16 0 1 1-8.16-8.16 8.16 8.16 0 0 1 8.16 8.16"/><circle class="a" cx="211.47" cy="186.54" r="8.16"/><path class="d" d="M216.65 186.54a5.18 5.18 0 1 1-5.18-5.18 5.18 5.18 0 0 1 5.18 5.18"/><path class="f" d="M13.27 76.86h86v55.01h-86z"/><path class="a" d="M13.27 76.86h86v55.01h-86z"/><path class="g" d="M13.27 62.08h86v14.78h-86z"/><path class="a" d="M13.27 62.08h86v14.78h-86z"/><path class="d" d="M99.27 76.86h5.08v55.01h-5.08z"/><path class="a" d="M99.27 76.86h5.08v55.01h-5.08z"/><path class="d" d="M99.27 62.08h5.08v14.78h-5.08z"/><path class="a" d="M99.27 62.08h5.08v14.78h-5.08zM31.25 84.04v7.81h-7.82"/><path class="a" d="M23.43 91.85h7.82v12.51h-7.82M23.43 104.36h7.82v12.51h-7.82M23.43 116.87h7.82v7.82M31.25 124.69v-7.82h12.51v7.82M43.76 124.69v-7.82h12.51v7.82M56.27 124.69v-7.82h12.51v7.82M68.78 124.69v-7.82h12.51v7.82"/><path class="c" d="M81.29 124.69v-7.82h7.82"/><path class="a" d="M81.29 124.69v-7.82h7.82M43.76 84.04v7.81H31.25v-7.81M56.27 84.04v7.81H43.76v-7.81M68.78 84.04v7.81H56.27v-7.81M81.29 84.04v7.81H68.78v-7.81"/><path class="a" d="M89.11 91.85h-7.82v-7.81M31.25 91.85h12.51v12.51H31.25zM43.76 91.85h12.51v12.51H43.76zM56.27 91.85h12.51v12.51H56.27zM68.78 91.85h12.51v12.51H68.78z"/><path class="a" d="M89.11 104.36h-7.82V91.85h7.82M31.25 104.36h12.51v12.51H31.25zM43.76 104.36h12.51v12.51H43.76zM56.27 104.36h12.51v12.51H56.27zM68.78 104.36h12.51v12.51H68.78z"/><path class="a" d="M89.11 116.87h-7.82v-12.51h7.82"/><path class="f" d="M205.43 54.14l-14.25-1.3-7-.64a127 127 0 0 0-11.4-18C159.67 16.85 141 6.75 127.72 2.75h-.06q-1.06-.32-2.08-.59h-.12c-.69-.18-1.36-.35-2-.49a37.17 37.17 0 0 0-5.29-.81H115.12l-.69.1L114 1c-.22.05-.41.11-.59.18l-.26.09a3.32 3.32 0 0 0-.67.36 3.23 3.23 0 0 0-.55.52c-.06.06-.11.15-.16.22a5.57 5.57 0 0 0-.35.51c-.06.1-.12.21-.17.31s-.21.39-.3.61l-.16.37c-.1.24-.19.5-.28.77l-.13.39c-.1.32-.19.66-.28 1l-.08.31a34.79 34.79 0 0 0-.77 5.17c-.05.65-.09 1.32-.12 2v2.3a88.75 88.75 0 0 0 17.48 51.36 128.64 128.64 0 0 0 14.19 15.99l-4.38 20.38 18.59 16 5.29-5.37-9.4-11.86 4.1-7.51-2.49-2.1.45.31 1.09.73 1.23.81 1.06.66 1.27.76 1 .58 1.33.73.92.49 1.46.72.76.36q1.1.51 2.19 1a51.71 51.71 0 0 1 12.36-12.26A52.85 52.85 0 0 1 193.27 80c-.12-1.29-.32-2.63-.57-4 0-.2-.07-.39-.1-.59-.25-1.32-.55-2.66-.9-4l-.18-.7c-.37-1.4-.79-2.82-1.27-4.27l-.16-.45v-.13l1.34 3.12 8.54-1.64 8.83 12.27 6.82-3.35z"/><path class="g" d="M140.8 83.45L155 95.1l-2.23 4a81.76 81.76 0 0 1-13.44-9z"/><path class="h" d="M140.8 83.45l-4.38 20.39L155 119.82l5.29-5.38-9.4-11.86 4.13-7.48"/><path class="g" d="M184.19 52.21l7.19 16.71L196 68a78.44 78.44 0 0 0-4.81-15.19z"/><path class="h" d="M177.62 87.87A52.8 52.8 0 0 1 193.27 80c-1.27-13-8.41-29.78-20.47-45.76C152.26 7 118.06-2.37 112.51 1.63s-6.46 38.69 14.08 65.89c12.06 16 26.35 27.6 38.67 32.61a51.69 51.69 0 0 1 12.36-12.26z"/><path class="h" d="M167.06 73.89A132.89 132.89 0 0 0 148.44 90a72.39 72.39 0 0 0 16.82 10.09 51.69 51.69 0 0 1 12.36-12.26A52.82 52.82 0 0 1 193.27 80a69.06 69.06 0 0 0-4.9-18.68 134.45 134.45 0 0 0-21.31 12.57z"/><path class="h" d="M184.19 52.21l21.24 1.93 10.13 22.06-6.82 3.35-8.83-12.27-8.53 1.64M127 20.86c5.46-3.93 10.65-7.93 15.54-11.92-14.14-7.45-26.87-9.61-30.07-7.31s-4.84 14.82-1.74 30.21c5.4-3.38 10.84-7.04 16.27-10.98z"/><path class="d" d="M155.39 37.77a12.07 12.07 0 0 1-2.65 17.14 12.75 12.75 0 0 1-17.55-2.59 12.07 12.07 0 0 1 2.65-17.14 12.75 12.75 0 0 1 17.55 2.59"/><path class="a" d="M181.63 75.87l15.54 20.58M165.26 90.23l8.39 11.11M177.95 92.96l15.08 19.97"/><path class="e" d="M149 33.35l-.56 3.65a1.14 1.14 0 0 0 1 1.3h.18a1.16 1.16 0 0 0 1.15-1l.48-3.09a12.64 12.64 0 0 0-2.22-.91M147 32.9a12.76 12.76 0 0 0-2.35-.09l-1.06 6.84a1.14 1.14 0 0 0 1 1.3h.18a1.16 1.16 0 0 0 1.15-1z"/><path class="f" d="M106.36 227.57A19.38 19.38 0 1 1 87 208.19a19.38 19.38 0 0 1 19.38 19.38"/><path class="c" d="M99.09 242.11a12.11 12.11 0 0 0-24.22 0l5.08 3.6 6.25 1.17 3.92-.17 3.33-.83 4.83-2.58z"/><path class="a" d="M74.87 242.11a12.11 12.11 0 0 1 24.22 0"/><path class="c" d="M94.25 223.94a7.27 7.27 0 1 1-7.25-7.27 7.27 7.27 0 0 1 7.27 7.27"/><circle class="a" cx="86.98" cy="223.94" r="7.27"/><path class="f" d="M156 244.53a19.38 19.38 0 1 1-19.38-19.38A19.38 19.38 0 0 1 156 244.53"/><path class="c" d="M148.7 259.06a12.11 12.11 0 0 0-24.22 0l2.55 2.32 3.36 1.51 3.72.86H139l2.61-.51 3.25-1.19 2.48-1.41z"/><path class="a" d="M124.48 259.06a12.11 12.11 0 0 1 24.22 0"/><path class="c" d="M143.86 240.9a7.27 7.27 0 1 1-7.27-7.27 7.27 7.27 0 0 1 7.27 7.27"/><circle class="a" cx="136.59" cy="240.9" r="7.27"/><path class="f" d="M205.59 227.57a19.38 19.38 0 1 1-19.38-19.38 19.38 19.38 0 0 1 19.38 19.38"/><path class="c" d="M198.32 242.11a12.11 12.11 0 1 0-24.22 0l3.19 2.69 5.08 1.75 3.84.41 6.49-.74 2.25-1.25z"/><path class="a" d="M174.1 242.11a12.11 12.11 0 1 1 24.22 0"/><path class="c" d="M193.47 223.94a7.27 7.27 0 1 1-7.27-7.27 7.27 7.27 0 0 1 7.27 7.27"/><circle class="a" cx="186.21" cy="223.94" r="7.27"/><path class="a" d="M136.59 225.15v-10.97M178.95 209.27l-7.76-7.76M94.24 209.27l7.75-7.76"/><circle class="a" cx="136.59" cy="244.53" r="19.38"/><circle class="a" cx="186.21" cy="227.57" r="19.38"/><circle class="a" cx="86.98" cy="227.57" r="19.38"/><path class="a" d="M116 181.44a28.86 28.86 0 1 1 20.57 8.62 28.77 28.77 0 0 1-20.57-8.62M132.89 156.66a4.55 4.55 0 1 1-9.1 0M149.4 156.66a4.55 4.55 0 1 1-9.1 0"/><path class="d" d="M145.38 170.22a9.63 9.63 0 1 1-19.26 0z"/><path class="a" d="M115.88 181.61a61.35 61.35 0 0 0-20.74 12.55M178 194.16a61.35 61.35 0 0 0-20.57-12.49"/></svg>