<svg xmlns="http://www.w3.org/2000/svg" width="298.65" height="285.99" viewBox="0 0 298.65 285.99"><defs><style>.a{fill:#d1bef1}.b,.f{fill:none;stroke:#3e3750;stroke-miterlimit:10;stroke-width:1.5px}.b{stroke-linecap:round}.c{fill:#f5f5f5}.d{fill:#fff}.e{fill:#e3dfec}.g{fill:#3e3750}</style></defs><title>refine</title><path class="a" d="M202.26 89.22V242a9 9 0 0 1-9 9H14.35a9 9 0 0 1-9-9V89.22a9 9 0 0 1 9-9h178.93a9 9 0 0 1 9 9"/><rect class="b" x="5.37" y="80.24" width="196.9" height="170.69" rx="8.98" ry="8.98"/><path class="c" d="M197.65 89.22V242a9 9 0 0 1-9 9H9.73a9 9 0 0 1-9-9V89.22a9 9 0 0 1 9-9h178.93a9 9 0 0 1 9 9"/><path class="d" d="M197.36 88.93v152.74a9 9 0 0 1-9 9H9.45a9 9 0 0 1-9-9V88.93a9 9 0 0 1 9-9h178.93a9 9 0 0 1 9 9"/><path class="e" d="M40.62 99.44v151.33H9.44a8.69 8.69 0 0 1-8.69-8.68V99.44z"/><path class="a" d="M.75 129.39h39.87v10.69H.75z"/><rect class="b" x=".75" y="80.24" width="196.9" height="170.69" rx="8.98" ry="8.98"/><path class="b" d="M197.65 99.44H.75M197.65 99.44H.75"/><path class="c" d="M11.27 93a2 2 0 1 0-2-2 2 2 0 0 0 2 2"/><circle class="f" cx="11.27" cy="91.02" r="2"/><path class="c" d="M20.3 93a2 2 0 1 0-2-2 2 2 0 0 0 2 2"/><circle class="f" cx="20.3" cy="91.02" r="2"/><path class="b" d="M9.27 134.74h16.08M9.27 147.16h24.97M9.27 159.59h19.04M9.27 172.02h23.36"/><path class="c" d="M30 114.41a8.25 8.25 0 1 1-8.25-8.25 8.25 8.25 0 0 1 8.25 8.25"/><path class="e" d="M48.05 182.13h139.94v9.72H48.05zM53.73 199.37h128.58v7.65H53.73z"/><path class="b" d="M49.81 182.13h136a2.2 2.2 0 0 1 2.2 2.2v55.6a2.21 2.21 0 0 1-2.21 2.21h-136a2.2 2.2 0 0 1-2.2-2.2v-55.6a2.21 2.21 0 0 1 2.21-2.21zM65.01 203.19h28.42M101.81 203.19h15.99M160.83 203.19h15.99"/><path class="g" d="M60.75 203.19a2 2 0 1 1-2-2 2 2 0 0 1 2 2"/><path class="b" d="M65.01 210.84h28.42M101.81 210.84h15.99M160.83 210.84h15.99"/><path class="g" d="M60.75 210.84a2 2 0 1 1-2-2 2 2 0 0 1 2 2"/><path class="e" d="M53.73 214.66h128.58v7.65H53.73z"/><path class="b" d="M65.01 218.48h28.42M101.81 218.48h15.99M160.83 218.48h15.99"/><path class="g" d="M60.75 218.48a2 2 0 1 1-2-2 2 2 0 0 1 2 2"/><path class="b" d="M65.01 226.13h28.42M101.81 226.13h15.99M160.83 226.13h15.99"/><path class="g" d="M60.75 226.13a2 2 0 1 1-2-2 2 2 0 0 1 2 2"/><path class="e" d="M53.73 229.95h128.58v7.65H53.73z"/><path class="b" d="M65.01 233.78h28.42M101.81 233.78h15.99M160.83 233.78h15.99"/><path class="g" d="M60.75 233.78a2 2 0 1 1-2-2 2 2 0 0 1 2 2"/><path class="b" d="M.75 182.71l25.8 19.62 63.51-38.38 63.51 28.21 43.51-38.3"/><path class="a" d="M29.47 202.33a3 3 0 1 1-3-3 3 3 0 0 1 3 3"/><circle class="b" cx="26.47" cy="202.33" r="3"/><path class="a" d="M93 163.88a3 3 0 1 1-3-3 3 3 0 0 1 3 3"/><circle class="b" cx="89.99" cy="163.88" r="3"/><path class="a" d="M156.37 191.88a3 3 0 1 1-3-3 3 3 0 0 1 3 3"/><circle class="b" cx="153.37" cy="191.88" r="3"/><path class="e" d="M48.05 111.13h65.52v7.26H48.05z"/><path class="d" d="M231.8 96.47v70.61a2.2 2.2 0 0 1-2.21 2.21H126.78a2.21 2.21 0 0 1-2.21-2.21V96.47a2.21 2.21 0 0 1 2.21-2.2h102.81a2.2 2.2 0 0 1 2.21 2.2"/><path class="e" d="M125.34 94.88h105.69v11.72H125.34z"/><path class="a" d="M140.92 60.57a25.27 25.27 0 1 1-25.26-25.26 25.27 25.27 0 0 1 25.26 25.26"/><circle class="b" cx="115.66" cy="60.57" r="25.27"/><path class="a" d="M119.19 32.22h-6.83a4 4 0 1 1 0-7.94h6.83a4 4 0 1 1 0 7.94"/><path class="b" d="M119.19 32.22h-6.83a4 4 0 1 1 0-7.94h6.83a4 4 0 1 1 0 7.94z"/><path class="c" d="M136.75 60.57a25.27 25.27 0 1 1-25.27-25.26 25.27 25.27 0 0 1 25.27 25.26"/><circle class="b" cx="111.49" cy="60.57" r="25.27"/><path class="d" d="M130.81 60.57a19.32 19.32 0 1 1-19.32-19.32 19.32 19.32 0 0 1 19.32 19.32"/><circle class="b" cx="111.49" cy="60.57" r="19.32"/><path class="c" d="M115 32.22h-6.83a4 4 0 1 1 0-7.94H115a4 4 0 1 1 0 7.94"/><path class="b" d="M115 32.22h-6.83a4 4 0 1 1 0-7.94H115a4 4 0 1 1 0 7.94z"/><path class="c" d="M133.43 36.71a2.21 2.21 0 1 1-2.21-2.21 2.21 2.21 0 0 1 2.21 2.21"/><circle class="b" cx="131.22" cy="36.71" r="2.21"/><path class="g" d="M110.71 62.72a1.55 1.55 0 0 1 0-2.19l11-11a1.55 1.55 0 0 1 2.29 2.15l-11 11a1.55 1.55 0 0 1-2.19 0"/><path class="e" d="M111.52 62c2.13.42 4.06-7.46 5.64-6.08l6.38-6.38a21 21 0 0 0-12-5.5 2.2 2.2 0 0 1 0 .27z"/><path class="g" d="M110.71 62.72a1.55 1.55 0 0 1 0-2.19l11-11a1.55 1.55 0 0 1 2.29 2.15l-11 11a1.55 1.55 0 0 1-2.19 0"/><path class="b" d="M87.41 128.78h16.08M87.41 132.59h12.03M87.41 136.4h12.03M87.41 140.21h12.03M49.81 110.75h62.06a2.21 2.21 0 0 1 2.21 2.21v42.1a2.21 2.21 0 0 1-2.21 2.21H49.81a2.2 2.2 0 0 1-2.2-2.2V113a2.21 2.21 0 0 1 2.2-2.25zM126.78 94.27h102.81a2.21 2.21 0 0 1 2.21 2.21v70.61a2.21 2.21 0 0 1-2.21 2.21H126.78a2.2 2.2 0 0 1-2.2-2.2V96.47a2.21 2.21 0 0 1 2.2-2.2z"/><path class="a" d="M75.27 131.78a3 3 0 1 1-3-3 3 3 0 0 1 3 3"/><circle class="b" cx="72.27" cy="131.78" r="3"/><path class="c" d="M80.26 137.12a12.92 12.92 0 1 1-12.92-12.92 12.92 12.92 0 0 1 12.92 12.92"/><path class="a" d="M67.34 124.2s8.43.21 11.8 7.65-2.29 14-2.29 14L67.3 137z"/><circle class="b" cx="67.34" cy="137.12" r="12.92"/><path class="a" d="M67.34 137.12V124.2"/><path class="b" d="M67.34 137.12V124.2"/><path class="a" d="M67.34 137.12l9.5 8.75"/><path class="b" d="M67.34 137.12l9.5 8.75"/><path class="a" d="M67.34 137.12l-12.33-3.89"/><path class="b" d="M67.34 137.12l-12.33-3.89"/><path class="a" d="M67.34 137.12l-9.6 8.6"/><path class="b" d="M67.34 137.12l-9.6 8.6"/><path class="a" d="M67.34 137.12l-4.22-12.22"/><path class="b" d="M67.34 137.12l-4.22-12.22"/><path class="a" d="M143.31 135.73H137v-3.63a1.45 1.45 0 0 1 1.45-1.45h3.39a1.45 1.45 0 0 1 1.45 1.45z"/><path class="b" d="M143.31 135.73H137v-3.63a1.45 1.45 0 0 1 1.45-1.45h3.39a1.45 1.45 0 0 1 1.45 1.45z"/><path class="a" d="M154.48 135.73h-6.3v-8.13a1.45 1.45 0 0 1 1.45-1.45H153a1.45 1.45 0 0 1 1.45 1.45z"/><path class="b" d="M154.48 135.73h-6.3v-8.13a1.45 1.45 0 0 1 1.45-1.45H153a1.45 1.45 0 0 1 1.45 1.45z"/><path class="a" d="M199.16 135.73h-6.3v-8.13a1.45 1.45 0 0 1 1.45-1.45h3.39a1.45 1.45 0 0 1 1.45 1.45z"/><path class="b" d="M199.16 135.73h-6.3v-8.13a1.45 1.45 0 0 1 1.45-1.45h3.39a1.45 1.45 0 0 1 1.45 1.45z"/><path class="a" d="M165.65 135.73h-6.3v-18.42a1.45 1.45 0 0 1 1.45-1.45h3.39a1.45 1.45 0 0 1 1.46 1.45z"/><path class="b" d="M165.65 135.73h-6.3v-18.42a1.45 1.45 0 0 1 1.45-1.45h3.39a1.45 1.45 0 0 1 1.46 1.45z"/><path class="a" d="M176.82 135.73h-6.3v-12a1.45 1.45 0 0 1 1.45-1.45h3.39a1.45 1.45 0 0 1 1.45 1.45z"/><path class="b" d="M176.82 135.73h-6.3v-12a1.45 1.45 0 0 1 1.45-1.45h3.39a1.45 1.45 0 0 1 1.45 1.45z"/><path class="a" d="M210.33 135.73H204v-12a1.45 1.45 0 0 1 1.45-1.45h3.39a1.45 1.45 0 0 1 1.45 1.45z"/><path class="b" d="M210.33 135.73H204v-12a1.45 1.45 0 0 1 1.45-1.45h3.39a1.45 1.45 0 0 1 1.45 1.45z"/><path class="a" d="M188 135.73h-6.3V113.1a1.45 1.45 0 0 1 1.45-1.45h3.39a1.45 1.45 0 0 1 1.46 1.45z"/><path class="b" d="M188 135.73h-6.3V113.1a1.45 1.45 0 0 1 1.45-1.45h3.39a1.45 1.45 0 0 1 1.46 1.45z"/><path class="a" d="M221.5 135.73h-6.3v-19.6a1.45 1.45 0 0 1 1.45-1.45H220a1.45 1.45 0 0 1 1.45 1.45z"/><path class="b" d="M221.5 135.73h-6.3v-19.6a1.45 1.45 0 0 1 1.45-1.45H220a1.45 1.45 0 0 1 1.45 1.45z"/><path class="b" d="M226.53 135.73H132.8a1.13 1.13 0 0 1-1.13-1.13v-18.5"/><path class="e" d="M131.67 142.41h93.63v7.63h-93.63z"/><path class="b" d="M137.23 146.23h28.42M195.42 146.23h9.34M213.11 146.23h7.37M137.23 153.86h28.42M195.42 153.86h9.34M213.11 153.86h7.37"/><path class="e" d="M131.67 157.67h93.63v7.63h-93.63z"/><path class="b" d="M137.23 161.49h28.42M195.42 161.49h9.34M213.11 161.49h7.37"/><path class="d" d="M32.56 233.43a13.94 13.94 0 1 1-13.94-13.93 13.94 13.94 0 0 1 13.94 13.94"/><circle class="b" cx="18.62" cy="233.43" r="13.94"/><path class="c" d="M27.15 243.79a8.71 8.71 0 0 0-17.42 0l1.87 1.68 3.4 1.28 4.16.61 2.37-.3a13.48 13.48 0 0 0 1.87-.54l2.22-.89 1.72-.94z"/><path class="a" d="M276.57 58.64h-68.1c-2 0-10.11 3.57-10.11 3.57s2.81-8.81 2.81-10.86V8a7.29 7.29 0 0 1 7.29-7.25h68.1a7.29 7.29 0 0 1 7.3 7.25v43.35a7.29 7.29 0 0 1-7.29 7.29"/><path class="b" d="M276.57 58.64h-68.1c-2 0-10.11 3.57-10.11 3.57s2.81-8.81 2.81-10.86V8a7.29 7.29 0 0 1 7.29-7.25h68.1a7.29 7.29 0 0 1 7.3 7.25v43.35a7.29 7.29 0 0 1-7.29 7.29z"/><path class="a" d="M274.64 30.33a5.76 5.76 0 1 1-5.76-5.76 5.76 5.76 0 0 1 5.76 5.76"/><path class="g" d="M270.79 31.48h-53.64a1 1 0 0 1-1-1v-.29a1 1 0 0 1 1-1h53.65a1 1 0 0 1 1 1v.29a1 1 0 0 1-1 1M270.79 42.58h-53.64a1 1 0 0 1-1-1v-.29a1 1 0 0 1 1-1h53.65a1 1 0 0 1 1 1v.29a1 1 0 0 1-1 1"/><path class="d" d="M219.22 69.1h68.1c2 0 10.11 3.57 10.11 3.57s-2.81-8.81-2.81-10.86V18.5a7.29 7.29 0 0 0-7.29-7.29h-68.1a7.29 7.29 0 0 0-7.29 7.29v43.31a7.29 7.29 0 0 0 7.29 7.29"/><path class="b" d="M219.22 69.1h68.1c2 0 10.11 3.57 10.11 3.57s-2.81-8.81-2.81-10.86V18.5a7.29 7.29 0 0 0-7.29-7.29h-68.1a7.29 7.29 0 0 0-7.29 7.29v43.31a7.29 7.29 0 0 0 7.28 7.29z"/><path class="a" d="M221.15 40.8a5.76 5.76 0 1 0 5.76-5.8 5.76 5.76 0 0 0-5.76 5.76M246 40.8a5.76 5.76 0 1 0 5.81-5.8 5.76 5.76 0 0 0-5.81 5.8M271 40.8a5.76 5.76 0 1 0 5.72-5.8 5.76 5.76 0 0 0-5.72 5.8"/><path class="g" d="M228.25 30.45h47.12a.75.75 0 0 0 0-1.5h-47.12a.75.75 0 0 0 0 1.5M228.25 41.55h47.12a.75.75 0 0 0 0-1.5h-47.12a.75.75 0 0 0 0 1.5M228.25 52.65h47.12a.75.75 0 0 0 0-1.5h-47.12a.75.75 0 0 0 0 1.5"/><path class="a" d="M244.11 135a3 3 0 1 1-3-3 3 3 0 0 1 3 3"/><circle class="b" cx="241.11" cy="135.04" r="3"/><path class="a" d="M66.48 105.18a3 3 0 1 1-3-3 3 3 0 0 1 3 3"/><circle class="b" cx="63.48" cy="105.18" r="3"/><path class="b" d="M248 134.78h12a3.11 3.11 0 0 0 3.11-3.1v-56.1M82.67 59h-16a3.1 3.1 0 0 0-3.1 3.1v34.81"/><path class="a" d="M201.19 209.51h-3.58v75.73h3.58a37.86 37.86 0 1 0 0-75.73"/><path class="b" d="M201.19 209.51h-3.58v75.73h3.58a37.86 37.86 0 1 0 0-75.73z"/><path class="c" d="M197.61 209.51a37.86 37.86 0 1 0 37.86 37.86 37.86 37.86 0 0 0-37.86-37.86m0 69.81a31.95 31.95 0 1 1 31.95-31.95 31.95 31.95 0 0 1-31.95 31.95"/><path class="d" d="M197.61 209.51a37.86 37.86 0 1 0 37.86 37.86 37.86 37.86 0 0 0-37.86-37.86"/><circle class="b" cx="197.61" cy="247.37" r="37.86"/><path class="a" d="M169.36 247.37a32 32 0 0 1 30.1-31.89c-.61 0-1.23-.06-1.85-.06a31.95 31.95 0 0 0 0 63.9c.62 0 1.24 0 1.85-.06a32 32 0 0 1-30.1-31.89"/><path class="a" d="M204.03 253.73l-24.54 12.83 12.3-25.31 23.95-12.23-11.71 24.71z"/><path class="c" d="M200.31 249.87a3.38 3.38 0 1 1 0-4.78 3.38 3.38 0 0 1 0 4.78"/><circle class="b" cx="197.92" cy="247.48" r="3.38" transform="rotate(-45 197.928 247.476)"/><path class="b" d="M169.58 262.72a32 32 0 0 1 38.29-45.61M223.1 228.1a32 32 0 0 1-46.44 43.39M218 222.79q1.06.88 2 1.84M175.82 224.32l2.72 2.28M173.42 227.19l4.9 3.43M222.5 261.05l2.72 2.28M218.34 262.43l4.9 3.44"/><path class="g" d="M171.84 265.37a.65.65 0 1 1-.65-.65.65.65 0 0 1 .65.65"/><path class="b" d="M27.33 243.89a8.71 8.71 0 0 0-17.42 0"/><path class="c" d="M23.85 230.82a5.23 5.23 0 1 1-5.23-5.23 5.23 5.23 0 0 1 5.23 5.23"/><circle class="b" cx="18.62" cy="230.82" r="5.23"/><circle class="b" cx="18.62" cy="233.43" r="13.94"/></svg>