<svg xmlns="http://www.w3.org/2000/svg" width="362.83" height="255.73" viewBox="0 0 362.83 255.73"><defs><style>.a{fill:#e3dfec}.b{fill:#d1bef1}.c,.g{fill:none;stroke:#3e3750;stroke-miterlimit:10;stroke-width:1.5px}.c{stroke-linecap:round}.d{fill:#fff}.e{fill:#f5f5f5}.f{fill:#3e3750}</style></defs><title>strategise</title><path class="a" d="M136.91 222.21h33.3v4.51h-33.3z"/><path class="b" d="M270.78 222.14H46.55a9 9 0 0 1-9-9V75a9 9 0 0 1 9-9h224.23a9 9 0 0 1 9 9v138.16a9 9 0 0 1-9 9"/><rect class="c" x="37.57" y="66.04" width="242.18" height="156.1" rx="8.98" ry="8.98"/><path class="d" d="M265.69 222.14H41.47a9 9 0 0 1-9-9V75a9 9 0 0 1 9-9h224.22a9 9 0 0 1 9 9v138.16a9 9 0 0 1-9 9"/><rect class="c" x="32.49" y="66.04" width="242.19" height="156.1" rx="8.98" ry="8.98"/><path class="a" d="M32.55 197.45v15.12a9 9 0 0 0 9 9h224.2a9 9 0 0 0 9-9v-15.12z"/><path class="b" d="M204.07 248.17h-90.8a2 2 0 1 1 0-4h90.8a2 2 0 1 1 0 4"/><path class="c" d="M204.07 248.17h-90.8a2 2 0 1 1 0-4h90.8a2 2 0 1 1 0 4zM32.55 198.04h242.19"/><path class="e" d="M199 248.17h-90.8a2 2 0 1 1 0-4H199a2 2 0 0 1 0 4"/><path class="c" d="M199 248.17h-90.8a2 2 0 1 1 0-4H199a2 2 0 0 1 0 4zM169.73 222.14h-32.17s0 11.47-13.37 22h58.91c-13.37-10.53-13.37-22-13.37-22z"/><path class="c" d="M265.75 66H41.53a9 9 0 0 0-9 9v138.16a9 9 0 0 0 9 9h96s0 11.47-13.37 22h-15.92a2 2 0 0 0 0 4H199a2 2 0 0 0 0-4h-15.9c-13.37-10.56-13.37-22-13.37-22h96a9 9 0 0 0 9-9V75a9 9 0 0 0-8.98-9z"/><path class="c" d="M222.56 76.8v26a3 3 0 0 1-3 3h-31.35a3 3 0 0 0-3 3v46.75M299.29 137.67h-47.53a3 3 0 0 1-2.95-2.95v-19.18"/><path class="b" d="M298.66 118.41L325.91 98a3.33 3.33 0 0 1 3.76 0l27.24 20.43s-28.08 24.62-29 22.06-29.28-22.06-29.28-22.06"/><path class="d" d="M349.15 146.79h-42.73a2.42 2.42 0 0 1-2.42-2.42v-39a2.42 2.42 0 0 1 2.42-2.42h42.73a2.42 2.42 0 0 1 2.42 2.42v39a2.42 2.42 0 0 1-2.42 2.42"/><rect class="c" x="304" y="102.96" width="47.58" height="43.83" rx="2.42" ry="2.42"/><path class="d" d="M352.61 155.54H303c-2 0-3.68-2-3.68-4.4v-31.35l26.64 18.68a3.3 3.3 0 0 0 3.72 0l26.64-18.68v31.35c0 2.43-1.65 4.4-3.68 4.4"/><path class="c" d="M352.61 155.54H303c-2 0-3.68-2-3.68-4.4v-31.35l26.64 18.68a3.3 3.3 0 0 0 3.72 0l26.64-18.68v31.35c-.03 2.43-1.68 4.4-3.71 4.4z"/><path class="e" d="M319.93 140.66l-14.77 10.36"/><path class="c" d="M319.93 140.66l-14.77 10.36"/><path class="e" d="M350.41 151.02l-15.03-10.55"/><path class="c" d="M350.41 151.02l-15.03-10.55"/><path class="e" d="M362.08 122.47h-27.65l-7.02 4.98V97.97h34.67v24.5z"/><path class="c" d="M362.08 122.47h-27.65l-7.02 4.98V97.97h34.67v24.5z"/><path class="f" d="M354.81 112.71h-19.25a.75.75 0 0 1 0-1.5h19.26a.75.75 0 0 1 0 1.5M347.13 116.71h-11.57a.75.75 0 0 1 0-1.5h11.57a.75.75 0 0 1 0 1.5M335.32 105.51a3 3 0 1 0 3-3 3 3 0 0 0-3 3"/><path class="b" d="M155.84 45.09h-6.3v-15.3a1.45 1.45 0 0 1 1.46-1.45h3.39a1.45 1.45 0 0 1 1.45 1.45z"/><path class="c" d="M155.84 45.09h-6.3v-15.3a1.45 1.45 0 0 1 1.46-1.45h3.39a1.45 1.45 0 0 1 1.45 1.45z"/><path class="b" d="M167.21 45.09h-6.3v-19.8a1.45 1.45 0 0 1 1.46-1.45h3.39a1.45 1.45 0 0 1 1.45 1.45z"/><path class="c" d="M167.21 45.09h-6.3v-19.8a1.45 1.45 0 0 1 1.46-1.45h3.39a1.45 1.45 0 0 1 1.45 1.45z"/><path class="b" d="M178.59 45.09h-6.3V15a1.45 1.45 0 0 1 1.46-1.45h3.39a1.45 1.45 0 0 1 1.45 1.45z"/><path class="c" d="M178.59 45.09h-6.3V15a1.45 1.45 0 0 1 1.46-1.45h3.39a1.45 1.45 0 0 1 1.45 1.45z"/><path class="b" d="M190 45.09h-6.3V21.46a1.45 1.45 0 0 1 1.42-1.46h3.39a1.45 1.45 0 0 1 1.49 1.46z"/><path class="c" d="M190 45.09h-6.3V21.46a1.45 1.45 0 0 1 1.42-1.46h3.39a1.45 1.45 0 0 1 1.49 1.46z"/><path class="b" d="M201.34 45.09H195v-34.3a1.45 1.45 0 0 1 1.45-1.45h3.39a1.45 1.45 0 0 1 1.45 1.45z"/><path class="c" d="M201.34 45.09H195v-34.3a1.45 1.45 0 0 1 1.45-1.45h3.39a1.45 1.45 0 0 1 1.45 1.45z"/><path class="c" d="M207.39 45.09h-61.56A1.13 1.13 0 0 1 144.7 44V5.84"/><path class="e" d="M87.22 95.04l-81.51 7.68 19.19 8.03 3.18 19.63 17.94-10.71 9.95 4.09 31.25-28.72z"/><path class="b" d="M24.9 110.75s3 19.1 3.18 18.92 6.39-14.75 6.39-14.75l44.36-17.33z"/><path class="g" d="M46.12 119.61l-18.04 10.77-3.18-19.63 62.32-15.71-52.75 19.88"/><path class="c" d="M7.07 117.34l9.32-2.35M8.09 126.94l11.03-2.78M1.62 123.39l13.82-3.49M24.9 110.75l-19.19-8.03 81.51-7.68-31.25 28.72-21.5-8.84M34.47 114.92l-6.39 15.46"/><circle class="g" cx="48" cy="79.54" r="2"/><circle class="g" cx="57.04" cy="79.54" r="2"/><path class="c" d="M32.55 153.42l25.8 19.62 63.51-38.37 63.5 28.21 63.51-55.91 25.8 9.74"/><path class="b" d="M250.79 109.23a3 3 0 1 1 .27-4.23 3 3 0 0 1-.27 4.23"/><circle class="c" cx="248.81" cy="106.97" r="3" transform="rotate(-41.31 248.813 106.974)"/><path class="e" d="M306.2 200l6 .21-3.38 2.79-4.42 2.38-4.33 1.29-3.83-.21s5.88-2.67 6-2.83 4-3.62 4-3.62"/><path class="b" d="M312.09 200.6a19.88 19.88 0 0 0-14.73-33.22h-2.9v33.22z"/><path class="c" d="M297.36 167.38h-7v39.75h7a19.88 19.88 0 0 0 0-39.75z"/><path class="e" d="M310.27 187.26a19.88 19.88 0 1 1-19.88-19.88 19.87 19.87 0 0 1 19.88 19.88"/><path class="b" d="M290.39 167.38s13 .32 18.15 11.77-3.54 21.57-3.54 21.57l-14.67-13.6z"/><circle class="c" cx="290.39" cy="187.26" r="19.88"/><path class="b" d="M290.39 187.26v-19.88"/><path class="c" d="M290.39 187.26v-19.88"/><path class="b" d="M290.39 187.26l14.63 13.46"/><path class="c" d="M290.39 187.26l14.63 13.46"/><path class="b" d="M290.39 187.26l-18.95-5.99"/><path class="c" d="M290.39 187.26l-18.95-5.99"/><path class="b" d="M290.39 187.26l-14.76 13.22"/><path class="c" d="M290.39 187.26l-14.76 13.22"/><path class="b" d="M290.39 187.26l-6.48-18.79"/><path class="c" d="M290.39 187.26l-6.48-18.79M305.02 200.72h6.48"/><path class="b" d="M188.21 162.88a3 3 0 1 1-3-3 3 3 0 0 1 3 3"/><circle class="c" cx="185.21" cy="162.88" r="3"/><path class="b" d="M124.13 134.67a3 3 0 1 1-3-3 3 3 0 0 1 3 3"/><circle class="c" cx="121.13" cy="134.67" r="3"/><path class="b" d="M60.77 173a3 3 0 1 1-3-3 3 3 0 0 1 3 3"/><circle class="c" cx="57.77" cy="173.04" r="3"/><path class="c" d="M153.18 96l-3.55-5a.84.84 0 0 0-1.37 0L146 94.13l-4.78-6.76a.84.84 0 0 0-1.37 0L133.78 96a.84.84 0 0 0 .69 1.33h18a.84.84 0 0 0 .71-1.33z"/><circle class="c" cx="146.99" cy="86.95" r="1.6"/><path class="d" d="M47.63 72.67H4.09a3.34 3.34 0 0 1-3.34-3.34V25.79a3.34 3.34 0 0 1 3.34-3.34h43.54A3.34 3.34 0 0 1 51 25.79v43.54a3.34 3.34 0 0 1-3.34 3.34"/><rect class="g" x=".75" y="22.45" width="50.22" height="50.21" rx="3.34" ry="3.34"/><path class="b" d="M41.4 55.5l-6-8.55a1.43 1.43 0 0 0-2.34 0l-3.8 5.37-8.18-11.51a1.43 1.43 0 0 0-2.34 0L8.36 55.5a1.43 1.43 0 0 0 1.17 2.26h30.71a1.43 1.43 0 0 0 1.16-2.26M30.85 42.81a2.72 2.72 0 1 0-2.72-2.72 2.72 2.72 0 0 0 2.72 2.72"/><path class="c" d="M121.13 127.86v-9a3 3 0 0 0-3-3H64.59"/><path class="b" d="M251.87 51.53a25.27 25.27 0 1 1-25.27-25.26 25.27 25.27 0 0 1 25.27 25.26"/><circle class="c" cx="226.61" cy="51.53" r="25.27"/><path class="b" d="M230.14 23.18h-6.83a4 4 0 1 1 0-7.94h6.83a4 4 0 1 1 0 7.94"/><path class="c" d="M230.14 23.18h-6.83a4 4 0 1 1 0-7.94h6.83a4 4 0 1 1 0 7.94z"/><path class="e" d="M247.71 51.53a25.26 25.26 0 1 1-25.27-25.26 25.27 25.27 0 0 1 25.27 25.26"/><circle class="c" cx="222.44" cy="51.53" r="25.27"/><path class="d" d="M241.76 51.53a19.32 19.32 0 1 1-19.32-19.32 19.32 19.32 0 0 1 19.32 19.32"/><circle class="c" cx="222.44" cy="51.53" r="19.32"/><path class="e" d="M226 23.18h-6.83a4 4 0 1 1 0-7.94H226a4 4 0 1 1 0 7.94"/><path class="c" d="M226 23.18h-6.83a4 4 0 1 1 0-7.94H226a4 4 0 1 1 0 7.94z"/><path class="e" d="M244.38 27.67a2.21 2.21 0 1 1-2.21-2.21 2.21 2.21 0 0 1 2.21 2.21"/><circle class="c" cx="242.17" cy="27.67" r="2.21"/><path class="f" d="M221.67 53.68a1.55 1.55 0 0 1 0-2.19l11-11a1.55 1.55 0 0 1 2.19 2.19l-11 11a1.55 1.55 0 0 1-2.19 0"/><path class="a" d="M222.47 53c2.13.42 4.06-7.46 5.64-6.08l6.38-6.38a21 21 0 0 0-12-5.5 2.2 2.2 0 0 1 0 .27z"/><path class="f" d="M221.67 53.68a1.55 1.55 0 0 1 0-2.19l11-11a1.55 1.55 0 0 1 2.19 2.19l-11 11a1.55 1.55 0 0 1-2.19 0"/><circle class="c" cx="54.69" cy="20.13" r="19.38"/><path class="d" d="M74.07 20.13A19.38 19.38 0 1 1 54.69.75a19.38 19.38 0 0 1 19.38 19.38"/><path class="c" d="M42.58 34.66a12.11 12.11 0 0 1 24.22 0"/><path class="d" d="M62 16.5a7.27 7.27 0 1 1-7.27-7.27A7.27 7.27 0 0 1 62 16.5"/><circle class="c" cx="54.69" cy="16.5" r="7.27"/><path class="c" d="M83.11 8.64H70.3"/><path class="b" d="M94.69 8.64a3 3 0 1 1-3-3 3 3 0 0 1 3 3"/><circle class="c" cx="91.69" cy="8.64" r="3"/><path class="c" d="M87.69 18.64H74.07"/><path class="b" d="M98.69 18.64a3 3 0 1 1-3-3 3 3 0 0 1 3 3"/><circle class="c" cx="95.69" cy="18.64" r="3"/><path class="c" d="M83.11 28.64h-11"/><path class="b" d="M94.69 28.64a3 3 0 1 1-3-3 3 3 0 0 1 3 3"/><circle class="c" cx="91.69" cy="28.64" r="3"/><path class="e" d="M101 181.09c0 10.13 12.15 20.52 14.4 20.51s14.3-10.49 14.27-20.61a14.33 14.33 0 1 0-28.67.1m9.33 0a5 5 0 1 1 5 5 5 5 0 0 1-5-5"/><path class="c" d="M101 181.09c0 10.13 12.15 20.52 14.4 20.51s14.3-10.49 14.27-20.61a14.33 14.33 0 1 0-28.67.1zm9.33 0a5 5 0 1 1 5 5 5 5 0 0 1-4.96-5.03z"/><path class="b" d="M58 234.47C58 244.59 70.11 255 72.36 255s14.3-10.49 14.27-20.61a14.33 14.33 0 1 0-28.67.1m9.33 0a5 5 0 1 1 5 5 5 5 0 0 1-5-5"/><path class="c" d="M58 234.47C58 244.59 70.11 255 72.36 255s14.3-10.49 14.27-20.61a14.33 14.33 0 1 0-28.67.1zm9.33 0a5 5 0 1 1 5 5 5 5 0 0 1-5.04-5.03z"/><path class="b" d="M1.6 204.95c0 10.13 12.15 20.52 14.4 20.51S30.3 215 30.27 204.85a14.33 14.33 0 1 0-28.67.1m9.33 0a5 5 0 1 1 5 5 5 5 0 0 1-5-5"/><path class="c" d="M1.6 204.95c0 10.13 12.15 20.52 14.4 20.51S30.3 215 30.27 204.85a14.33 14.33 0 1 0-28.67.1zm9.33 0a5 5 0 1 1 5 5 5 5 0 0 1-4.99-5.03z"/><path class="e" d="M59.57 227.81l-30.85-16.23"/><path class="c" d="M59.57 227.81l-30.85-16.23"/><path class="e" d="M81.21 223.2l24.52-30.16"/><path class="c" d="M81.21 223.2l24.52-30.16"/><path class="f" d="M253.25 160.38h-46.62a1 1 0 0 1 0-2h46.62a1 1 0 0 1 0 2M243.84 167.38h-37.21a1 1 0 0 1 0-2h37.21a1 1 0 0 1 0 2M253.25 174.38h-46.62a1 1 0 1 1 0-2h46.62a1 1 0 0 1 0 2M243.84 181.38h-37.21a1 1 0 1 1 0-2h37.21a1 1 0 1 1 0 2M155.47 121.2h-21.54a1 1 0 0 1 0-2h21.54a1 1 0 0 1 0 2M155.47 115.71h-21.54a1 1 0 0 1 0-2h21.54a1 1 0 0 1 0 2M162 110.22h-28.07a1 1 0 0 1 0-2H162a1 1 0 0 1 0 2M162 104.73h-28.07a1 1 0 0 1 0-2H162a1 1 0 0 1 0 2"/><g><path class="d" d="M54.69.75a19.38 19.38 0 0 1 19.38 19.38M74.07 20.13A19.38 19.38 0 1 1 54.69.75"/><path class="e" d="M66.81 34.66a12.11 12.11 0 0 0-24.22 0l5.08 3.6 6.25 1.17 3.92-.17 3.33-.83L66 35.85z"/><path class="c" d="M42.58 34.66a12.11 12.11 0 0 1 24.22 0"/><path class="e" d="M62 16.5a7.27 7.27 0 1 1-7.27-7.27A7.27 7.27 0 0 1 62 16.5"/><circle class="c" cx="54.69" cy="16.5" r="7.27"/><circle class="c" cx="54.69" cy="20.13" r="19.38"/></g></svg>