<?xml version="1.0" encoding="utf-8"?>
<!-- Generator: Adobe Illustrator 24.1.3, SVG Export Plug-In . SVG Version: 6.00 Build 0)  -->
<svg version="1.1" id="Layer_1" xmlns="http://www.w3.org/2000/svg" xmlns:xlink="http://www.w3.org/1999/xlink" x="0px" y="0px"
	 viewBox="0 0 512 512" style="enable-background:new 0 0 512 512;" xml:space="preserve">
<style type="text/css">
	.st0{fill:#FFFFFF;}
</style>
<g transform="translate(1 1)">
	<g>
		<path class="st0" d="M468.3-1H41.7C17.8-1-1,17.8-1,41.7v426.7c0,23.9,18.8,42.7,42.7,42.7h196.3h102.4h128
			c23.9,0,42.7-18.8,42.7-42.7V41.7C511,17.8,492.2-1,468.3-1z M255,493.9V323.3h-68.3V255H255v-59.7c0-48.6,37.5-89.6,85.3-93.9
			h76.8v68.3h-68.3c-14.5,0-25.6,11.1-25.6,25.6V255h85.3v68.3h-85.3v170.7L255,493.9L255,493.9z M493.9,468.3
			c0,14.5-11.1,25.6-25.6,25.6h-128V340.3h85.3V237.9h-85.3v-42.7c0-5.1,3.4-8.5,8.5-8.5h85.3V84.3h-94.7
			c-57.2,5.1-101.5,53.8-101.5,110.9v42.7h-68.3v102.4h68.3v153.6H41.7c-14.5,0-25.6-11.1-25.6-25.6V41.7
			c0-14.5,11.1-25.6,25.6-25.6h426.7c14.5,0,25.6,11.1,25.6,25.6L493.9,468.3L493.9,468.3z"/>
	</g>
</g>
</svg>
