<svg xmlns="http://www.w3.org/2000/svg" width="312.45" height="249.18" viewBox="0 0 312.45 249.18"><defs><style>.a{fill:none;stroke:#3e3750;stroke-linecap:round;stroke-miterlimit:10;stroke-width:1.5px}.b{fill:#fff}.c{fill:#f5f5f5}.d{fill:#d1bef1}.e{fill:#e3dfec}.f{fill:#3e3750}</style></defs><title>organise</title><path class="a" d="M3.53 101.6a26 26 0 0 0 23.21 37.71l259 2a26 26 0 0 1 0 52M12.28 91.72a26.19 26.19 0 0 0-3.15 2.48M242.91 87.33H26.74a25.93 25.93 0 0 0-9.87 1.94M254.79 35.34a26 26 0 0 1 0 52"/><path class="b" d="M106.58 35.34A34.59 34.59 0 1 1 72 .75a34.59 34.59 0 0 1 34.59 34.59"/><circle class="a" cx="71.99" cy="35.34" r="34.59"/><path class="b" d="M99.06 56.86a40 40 0 0 0-54.14 0"/><path class="a" d="M99.06 56.86a40 40 0 0 0-54.14 0"/><path class="b" d="M90.83 35.34A18.85 18.85 0 1 1 72 16.49a18.85 18.85 0 0 1 18.83 18.85"/><circle class="a" cx="71.99" cy="35.34" r="18.85"/><path class="c" d="M69.57 32.37a3 3 0 0 1-5.94 0"/><path class="a" d="M69.57 32.37a3 3 0 0 1-5.94 0"/><path class="c" d="M80.35 32.37a3 3 0 0 1-5.94 0"/><path class="a" d="M80.35 32.37a3 3 0 0 1-5.94 0"/><path class="d" d="M77.72 41.23a6.29 6.29 0 0 1-12.58 0z"/><path class="a" d="M112.04 35.34h142.75"/><path class="d" d="M228.74 232.77H102.41a4.19 4.19 0 0 1-4.19-4.19V59a4.19 4.19 0 0 1 4.19-4.19h126.33a4.19 4.19 0 0 1 4.2 4.19v169.58a4.19 4.19 0 0 1-4.19 4.19"/><rect class="a" x="98.22" y="54.77" width="134.72" height="178" rx="4.19" ry="4.19"/><path class="b" d="M224.37 232.77H98a4.19 4.19 0 0 1-4.19-4.19V59A4.19 4.19 0 0 1 98 54.77h126.37a4.19 4.19 0 0 1 4.19 4.23v169.58a4.19 4.19 0 0 1-4.19 4.19"/><rect class="a" x="93.84" y="54.77" width="134.72" height="178" rx="4.19" ry="4.19"/><path class="b" d="M216.36 83.72v136.94h-110.1V64.93h91.31"/><path class="a" d="M216.36 83.72v136.94h-110.1V64.93h91.31"/><path class="b" d="M133.01 62.99v9.12l2.08-2.08 3.18 3.18 3.17-3.18 3.18 3.18 3.18-3.18 3.18 3.18 3.18-3.18 3.17 3.18 3.18-3.18 3.18 3.18 3.18-3.18 3.18 3.18 3.17-3.18 3.18 3.18 3.18-3.18 3.18 3.18 3.18-3.18 2.07 2.07v-9.11"/><path class="a" d="M133.01 62.99v9.12l2.08-2.08 3.18 3.18 3.17-3.18 3.18 3.18 3.18-3.18 3.18 3.18 3.18-3.18 3.17 3.18 3.18-3.18 3.18 3.18 3.18-3.18 3.18 3.18 3.17-3.18 3.18 3.18 3.18-3.18 3.18 3.18 3.18-3.18 2.07 2.07v-9.11"/><path class="e" d="M169.3 51.13v-.19a8.8 8.8 0 1 0-17.6 0v.19h-15.9a2.92 2.92 0 0 0-2.92 3L133 63h55l-.14-9a2.93 2.93 0 0 0-2.86-2.87zm-8.79 3.06a3.24 3.24 0 1 1 3.24-3.24 3.24 3.24 0 0 1-3.24 3.24"/><path class="a" d="M188 63v-9.47a2.59 2.59 0 0 0-2.59-2.59h-16.1a8.8 8.8 0 0 0-17.6 0H135.6a2.59 2.59 0 0 0-2.6 2.59V63"/><circle class="a" cx="160.51" cy="50.94" r="3.24"/><path class="f" d="M193.69 104.8h-46.63a1 1 0 0 1 0-2h46.62a1 1 0 0 1 0 2M184.27 111.8h-37.21a1 1 0 0 1 0-2h37.21a1 1 0 0 1 0 2"/><path class="d" d="M132.85 113.14h-10.66a1.67 1.67 0 0 1-1.67-1.67v-10.66a1.67 1.67 0 0 1 1.67-1.67h10.65a1.67 1.67 0 0 1 1.67 1.67v10.65a1.67 1.67 0 0 1-1.67 1.67"/><path class="c" d="M137.17 101.14a1.84 1.84 0 0 0-.07-2.67 1.91 1.91 0 0 0-2.61.14l-6 6a.5.5 0 0 1-.69 0l-1.42-1.3a1.84 1.84 0 0 0-2.82.41 1.89 1.89 0 0 0 .39 2.36l3.43 3.13a1.26 1.26 0 0 0 1.75 0z"/><path class="a" d="M137.17 101.14a1.84 1.84 0 0 0-.07-2.67 1.91 1.91 0 0 0-2.61.14l-6 6a.5.5 0 0 1-.69 0l-1.42-1.3a1.84 1.84 0 0 0-2.82.41 1.89 1.89 0 0 0 .39 2.36l3.43 3.13a1.26 1.26 0 0 0 1.75 0z"/><path class="f" d="M193.69 133.22h-46.63a1 1 0 1 1 0-2h46.62a1 1 0 0 1 0 2M184.27 140.22h-37.21a1 1 0 0 1 0-2h37.21a1 1 0 0 1 0 2"/><path class="d" d="M132.85 141.55h-10.66a1.67 1.67 0 0 1-1.67-1.67v-10.65a1.67 1.67 0 0 1 1.67-1.67h10.65a1.67 1.67 0 0 1 1.67 1.67v10.65a1.67 1.67 0 0 1-1.67 1.67"/><path class="c" d="M137.17 129.56a1.84 1.84 0 0 0-.07-2.67 1.91 1.91 0 0 0-2.61.14l-6 6a.5.5 0 0 1-.69 0l-1.42-1.3a1.84 1.84 0 0 0-2.82.41 1.89 1.89 0 0 0 .39 2.36l3.43 3.13a1.26 1.26 0 0 0 1.75 0z"/><path class="a" d="M137.17 129.56a1.84 1.84 0 0 0-.07-2.67 1.91 1.91 0 0 0-2.61.14l-6 6a.5.5 0 0 1-.69 0l-1.42-1.3a1.84 1.84 0 0 0-2.82.41 1.89 1.89 0 0 0 .39 2.36l3.43 3.13a1.26 1.26 0 0 0 1.75 0z"/><path class="f" d="M193.69 161.64h-46.63a1 1 0 0 1 0-2h46.62a1 1 0 0 1 0 2M184.27 168.64h-37.21a1 1 0 0 1 0-2h37.21a1 1 0 0 1 0 2"/><path class="d" d="M132.85 170h-10.66a1.67 1.67 0 0 1-1.67-1.67v-10.69a1.67 1.67 0 0 1 1.67-1.67h10.65a1.67 1.67 0 0 1 1.67 1.67v10.66a1.67 1.67 0 0 1-1.67 1.67"/><path class="c" d="M137.17 158a1.84 1.84 0 0 0-.07-2.67 1.91 1.91 0 0 0-2.61.14l-6 6a.5.5 0 0 1-.69 0l-1.42-1.3a1.84 1.84 0 0 0-2.82.41 1.89 1.89 0 0 0 .39 2.36l3.43 3.13a1.26 1.26 0 0 0 1.75 0z"/><path class="a" d="M137.17 158a1.84 1.84 0 0 0-.07-2.67 1.91 1.91 0 0 0-2.61.14l-6 6a.5.5 0 0 1-.69 0l-1.42-1.3a1.84 1.84 0 0 0-2.82.41 1.89 1.89 0 0 0 .39 2.36l3.43 3.13a1.26 1.26 0 0 0 1.75 0z"/><path class="f" d="M193.69 190.05h-46.63a1 1 0 1 1 0-2h46.62a1 1 0 0 1 0 2M184.27 197.05h-37.21a1 1 0 0 1 0-2h37.21a1 1 0 0 1 0 2"/><path class="d" d="M132.85 198.39h-10.66a1.67 1.67 0 0 1-1.67-1.67v-10.66a1.67 1.67 0 0 1 1.67-1.67h10.65a1.67 1.67 0 0 1 1.67 1.67v10.65a1.67 1.67 0 0 1-1.67 1.67"/><path class="e" d="M197.57 64.93v18.79h18.79"/><path class="a" d="M197.57 64.93v18.79h18.79"/><path class="c" d="M188.01 62.99h-28.39"/><path class="a" d="M188.01 62.99h-28.39"/><path class="c" d="M144.03 62.99h-11.02"/><path class="a" d="M144.03 62.99h-11.02"/><path class="f" d="M149.18 63a.75.75 0 1 1-.75-.75.75.75 0 0 1 .75.75"/><path class="d" d="M226.25 161.64h-4.1v86.79h4.1a43.4 43.4 0 0 0 0-86.79"/><path class="a" d="M226.25 161.64h-4.1v86.79h4.1a43.4 43.4 0 0 0 0-86.79z"/><path class="c" d="M222.14 161.64a43.4 43.4 0 1 0 43.4 43.4 43.4 43.4 0 0 0-43.4-43.4m0 80A36.62 36.62 0 1 1 258.76 205a36.62 36.62 0 0 1-36.62 36.62"/><path class="b" d="M222.14 161.64a43.4 43.4 0 1 0 43.4 43.4 43.4 43.4 0 0 0-43.4-43.4"/><circle class="a" cx="222.14" cy="205.03" r="43.4"/><path class="d" d="M189.76 205a36.61 36.61 0 0 1 34.5-36.55c-.7 0-1.4-.07-2.12-.07a36.62 36.62 0 1 0 0 73.23c.71 0 1.42 0 2.12-.06a36.62 36.62 0 0 1-34.5-36.55"/><path class="d" d="M229.5 212.32l-28.13 14.71 14.11-29.02L242.91 184l-13.41 28.32z"/><path class="c" d="M225.24 207.9a3.88 3.88 0 1 1 0-5.48 3.88 3.88 0 0 1 0 5.48"/><circle class="a" cx="222.5" cy="205.16" r="3.88" transform="rotate(-45 222.5 205.158)"/><path class="a" d="M190 222.62a36.64 36.64 0 0 1 43.88-52.27M251.35 182.94a36.62 36.62 0 0 1-53.23 49.72M245.53 176.86q1.21 1 2.33 2.11M197.16 178.61l3.12 2.62M194.41 181.9l5.62 3.93M250.67 220.71l3.12 2.62M245.89 222.3l5.62 3.93"/><path class="f" d="M192.6 225.66a.75.75 0 1 1-.75-.75.75.75 0 0 1 .75.75"/><path class="d" d="M93.61 174h-68.1c-2 0-10.11 3.57-10.11 3.57s2.81-8.81 2.81-10.86v-43.29a7.29 7.29 0 0 1 7.29-7.29h68.1a7.29 7.29 0 0 1 7.29 7.29v43.31a7.29 7.29 0 0 1-7.28 7.27"/><path class="a" d="M93.61 174h-68.1c-2 0-10.11 3.57-10.11 3.57s2.81-8.81 2.81-10.86v-43.29a7.29 7.29 0 0 1 7.29-7.29h68.1a7.29 7.29 0 0 1 7.29 7.29v43.31a7.29 7.29 0 0 1-7.28 7.27z"/><path class="d" d="M91.68 145.72a5.76 5.76 0 1 1-5.76-5.72 5.76 5.76 0 0 1 5.76 5.76"/><path class="f" d="M87.84 146.86H34.19a1 1 0 0 1-1-1v-.29a1 1 0 0 1 1-1h53.65a1 1 0 0 1 1 1v.29a1 1 0 0 1-1 1M87.84 158H34.19a1 1 0 0 1-1-1v-.29a1 1 0 0 1 1-1h53.65a1 1 0 0 1 1 1v.29a1 1 0 0 1-1 1"/><path class="b" d="M36.26 184.49h68.1c2 0 10.11 3.57 10.11 3.57s-2.81-8.81-2.81-10.86v-43.31a7.29 7.29 0 0 0-7.29-7.29H36.26a7.29 7.29 0 0 0-7.26 7.29v43.31a7.29 7.29 0 0 0 7.29 7.29"/><path class="a" d="M36.26 184.49h68.1c2 0 10.11 3.57 10.11 3.57s-2.81-8.81-2.81-10.86v-43.31a7.29 7.29 0 0 0-7.29-7.29H36.26a7.29 7.29 0 0 0-7.26 7.29v43.31a7.29 7.29 0 0 0 7.26 7.29z"/><path class="d" d="M38.19 156.18a5.76 5.76 0 1 0 5.81-5.77 5.76 5.76 0 0 0-5.76 5.76M63.1 156.18a5.76 5.76 0 1 0 5.76-5.76 5.76 5.76 0 0 0-5.76 5.76M88 156.18a5.76 5.76 0 1 0 5.76-5.76 5.76 5.76 0 0 0-5.76 5.76"/><path class="f" d="M45.3 145.83h47.12a.75.75 0 0 0 0-1.5H45.3a.75.75 0 1 0 0 1.5M45.3 156.93h47.12a.75.75 0 0 0 0-1.5H45.3a.75.75 0 1 0 0 1.5M45.3 168h47.12a.75.75 0 0 0 0-1.5H45.3a.75.75 0 1 0 0 1.5"/><path class="d" d="M280.78 193.33a3 3 0 1 1-3-3 3 3 0 0 1 3 3"/><circle class="a" cx="277.78" cy="193.33" r="3"/><path class="d" d="M248.09 140.91a3 3 0 1 1-3-3 3 3 0 0 1 3 3"/><circle class="a" cx="245.09" cy="140.91" r="3"/><path class="d" d="M51 87.33a3 3 0 1 1-3-3 3 3 0 0 1 3 3"/><circle class="a" cx="48.02" cy="87.33" r="3"/><path class="d" d="M219.36 35.34a3 3 0 1 1-3-3 3 3 0 0 1 3 3"/><circle class="a" cx="216.36" cy="35.34" r="3"/><path class="f" d="M248.37 87.33a1 1 0 1 1-1-1 1 1 0 0 1 1 1"/></svg>