<svg xmlns="http://www.w3.org/2000/svg" viewBox="0 0 140 140"><title>chainwheel</title><path d="M20 114.47l-.5 3.37a1.28 1.28 0 0 0 1.42 1.46l3.38-.42a1.28 1.28 0 0 1 1.43 1.3l-.1 3.4a1.28 1.28 0 0 0 1.58 1.28l3.3-.82a1.28 1.28 0 0 1 1.58 1.12l.31 3.39a1.28 1.28 0 0 0 1.73 1.08l3.18-1.21a1.28 1.28 0 0 1 1.7.92l.72 3.32a1.28 1.28 0 0 0 1.85.86l3-1.59a1.28 1.28 0 0 1 1.8.71l1.12 3.21a1.28 1.28 0 0 0 1.94.63l2.79-1.94a1.28 1.28 0 0 1 1.88.49l1.5 3.05a1.28 1.28 0 0 0 2 .39l2.54-2.26a1.28 1.28 0 0 1 1.92.26l1.85 2.85a1.28 1.28 0 0 0 2 .15l2.25-2.55a1.28 1.28 0 0 1 1.94 0l2.18 2.61a1.28 1.28 0 0 0 2-.1l1.93-2.8a1.28 1.28 0 0 1 1.93-.21l2.48 2.33a1.28 1.28 0 0 0 2-.34l1.58-3a1.28 1.28 0 0 1 1.89-.44l2.74 2a1.28 1.28 0 0 0 2-.58l1.2-3.18a1.28 1.28 0 0 1 1.82-.66l3 1.66a1.28 1.28 0 0 0 1.87-.81l.81-3.3a1.28 1.28 0 0 1 1.73-.88l3.15 1.29a1.28 1.28 0 0 0 1.75-1l.4-3.38a1.28 1.28 0 0 1 1.61-1.08l3.28.9a1.28 1.28 0 0 0 1.54-1.25v-3.4a1.28 1.28 0 0 1 1.47-1.27l3.36.5a1.28 1.28 0 0 0 1.46-1.42l-.42-3.38a1.28 1.28 0 0 1 1.3-1.43l3.4.1a1.28 1.28 0 0 0 1.28-1.58l-.82-3.3a1.28 1.28 0 0 1 1.12-1.58l3.39-.31a1.28 1.28 0 0 0 1.08-1.73l-1.21-3.18a1.28 1.28 0 0 1 .92-1.7l3.32-.72a1.28 1.28 0 0 0 .86-1.85l-1.59-3a1.28 1.28 0 0 1 .71-1.8l3.21-1.12a1.28 1.28 0 0 0 .63-1.94l-1.94-2.79a1.28 1.28 0 0 1 .49-1.88l3.05-1.5a1.28 1.28 0 0 0 .39-2l-2.26-2.54a1.28 1.28 0 0 1 .26-1.92l2.85-1.85a1.28 1.28 0 0 0 .15-2l-2.55-2.25a1.28 1.28 0 0 1 0-1.94l2.61-2.18a1.28 1.28 0 0 0-.1-2l-2.8-1.93a1.28 1.28 0 0 1-.21-1.93l2.33-2.48a1.28 1.28 0 0 0-.34-2l-3-1.58a1.28 1.28 0 0 1-.44-1.89l2-2.74a1.28 1.28 0 0 0-.58-2L133.22 48a1.28 1.28 0 0 1-.66-1.82l1.66-3a1.28 1.28 0 0 0-.81-1.87l-3.3-.81a1.28 1.28 0 0 1-.88-1.73l1.29-3.15a1.28 1.28 0 0 0-1-1.75l-3.38-.4a1.28 1.28 0 0 1-1.14-1.59l.9-3.28a1.28 1.28 0 0 0-1.2-1.6h-3.4a1.28 1.28 0 0 1-1.3-1.47l.5-3.37a1.28 1.28 0 0 0-1.42-1.46l-3.38.42a1.28 1.28 0 0 1-1.43-1.3l.1-3.4a1.28 1.28 0 0 0-1.58-1.28l-3.3.82a1.28 1.28 0 0 1-1.58-1.12l-.31-3.39a1.28 1.28 0 0 0-1.73-1.08l-3.18 1.21a1.28 1.28 0 0 1-1.7-.92l-.72-3.32a1.28 1.28 0 0 0-1.85-.86l-3 1.59a1.28 1.28 0 0 1-1.8-.71l-1.11-3.21a1.28 1.28 0 0 0-1.94-.63l-2.78 1.94A1.28 1.28 0 0 1 85.91 5l-1.5-3.05a1.28 1.28 0 0 0-2-.39l-2.53 2.23A1.28 1.28 0 0 1 78 3.54L76.1.69a1.28 1.28 0 0 0-2-.15l-2.28 2.55a1.28 1.28 0 0 1-1.94 0L67.7.46a1.28 1.28 0 0 0-2 .1l-1.93 2.8a1.28 1.28 0 0 1-1.93.21l-2.5-2.33a1.28 1.28 0 0 0-2 .34l-1.58 3a1.28 1.28 0 0 1-1.89.42l-2.75-2a1.28 1.28 0 0 0-2 .58L48 6.78a1.28 1.28 0 0 1-1.82.66l-3-1.66a1.28 1.28 0 0 0-1.87.81l-.81 3.3a1.28 1.28 0 0 1-1.73.88l-3.13-1.29a1.28 1.28 0 0 0-1.75 1l-.4 3.38A1.28 1.28 0 0 1 31.88 15l-3.28-.9a1.28 1.28 0 0 0-1.6 1.2v3.4a1.28 1.28 0 0 1-1.47 1.3l-3.37-.5a1.28 1.28 0 0 0-1.46 1.42l.42 3.38a1.28 1.28 0 0 1-1.3 1.43l-3.4-.1a1.28 1.28 0 0 0-1.28 1.58l.82 3.3a1.28 1.28 0 0 1-1.12 1.58l-3.39.31a1.28 1.28 0 0 0-1.08 1.73l1.21 3.18a1.28 1.28 0 0 1-.92 1.7l-3.32.72a1.28 1.28 0 0 0-.86 1.85l1.59 3a1.28 1.28 0 0 1-.71 1.8l-3.21 1.11a1.28 1.28 0 0 0-.63 1.94l1.94 2.79A1.28 1.28 0 0 1 5 54.09l-3.05 1.5a1.28 1.28 0 0 0-.39 2l2.26 2.54A1.28 1.28 0 0 1 3.54 62L.69 63.9a1.28 1.28 0 0 0-.15 2l2.55 2.25a1.28 1.28 0 0 1 0 1.94L.46 72.3a1.28 1.28 0 0 0 .1 2l2.8 1.93a1.28 1.28 0 0 1 .21 1.93l-2.33 2.5a1.28 1.28 0 0 0 .34 2l3 1.58a1.28 1.28 0 0 1 .42 1.9l-2 2.74a1.28 1.28 0 0 0 .58 2L6.78 92a1.28 1.28 0 0 1 .66 1.82l-1.66 3a1.28 1.28 0 0 0 .81 1.87l3.3.81a1.28 1.28 0 0 1 .88 1.73l-1.29 3.15a1.28 1.28 0 0 0 1 1.75l3.38.4a1.28 1.28 0 0 1 1.14 1.59l-.9 3.28a1.28 1.28 0 0 0 1.2 1.6h3.4a1.28 1.28 0 0 1 1.3 1.47zM3.85 69c12.73-84.77 120.43-83.4 131 1.66a1.41 1.41 0 0 1 0 .38c-12.73 84.77-120.43 83.41-131-1.66a1.41 1.41 0 0 1 0-.38z" fill="#a8aeb2"/><circle cx="70" cy="70" r="63.5" fill="none" stroke="#a8aeb2" stroke-miterlimit="10" stroke-width="7"/><path d="M95 114.69a10.38 10.38 0 0 1-2.3 14.51M117 111.56a10.38 10.38 0 0 1-14.51-2.3" fill="none" stroke="#a8aeb2" stroke-miterlimit="10" stroke-width="4"/><path fill="#a8aeb2" d="M87.525 107.782l10.72-7.788 5.877 8.09-10.72 7.788z"/><circle cx="95.3" cy="107.21" r="2.5" transform="translate(-44.82 76.49) rotate(-36)" fill="#595f72" stroke="#a8aeb2" stroke-miterlimit="10"/><path d="M118.91 60A10.38 10.38 0 0 1 132 66.71M122.73 38.18a10.38 10.38 0 0 1-6.67 13.09" fill="none" stroke="#a8aeb2" stroke-miterlimit="10" stroke-width="4"/><path fill="#a8aeb2" d="M110.025 65.043l-4.094-12.602 9.51-3.09 4.095 12.602z"/><circle cx="111.89" cy="57.48" r="2.5" transform="translate(-12.28 37.39) rotate(-18)" fill="#595f72" stroke="#a8aeb2" stroke-miterlimit="10"/><path d="M45 114.69a10.38 10.38 0 0 0 2.3 14.51" fill="none" stroke="#bbb" stroke-miterlimit="10" stroke-width="4"/><path d="M45 114.69a10.38 10.38 0 0 0 2.3 14.51M23 111.56a10.38 10.38 0 0 0 14.51-2.3" fill="none" stroke="#a8aeb2" stroke-miterlimit="10" stroke-width="4"/><path fill="#a8aeb2" d="M46.602 115.867l-10.72-7.789 5.879-8.09 10.719 7.788z"/><circle cx="44.7" cy="107.21" r="2.5" transform="translate(-68.31 80.36) rotate(-54)" fill="#595f72" stroke="#a8aeb2" stroke-miterlimit="10"/><path d="M21.09 60c-5.45-1.77-12.16 1.21-13.94 6.67M16.42 38.18c-1.77 5.45 2.06 11.31 7.52 13.09" fill="none" stroke="#a8aeb2" stroke-miterlimit="10" stroke-width="4"/><path fill="#a8aeb2" d="M20.463 61.96l4.095-12.6 9.51 3.09-4.094 12.601z"/><circle cx="28.11" cy="57.48" r="2.5" transform="translate(-35.24 66.45) rotate(-72)" fill="#595f72" stroke="#a8aeb2" stroke-miterlimit="10"/><path d="M65.38 21.19c0-5.74-4.65-11.52-10.38-11.52M85 9.67c-5.74 0-10.38 5.78-10.38 11.52" fill="none" stroke="#a8aeb2" stroke-miterlimit="10" stroke-width="4"/><path d="M105.93 52.45a4.07 4.07 0 0 1-.28.58 4.53 4.53 0 0 1-.38.59 5.19 5.19 0 0 1-.55.67 6.35 6.35 0 0 1-1.67 1.25 11.68 11.68 0 0 1-2.43.8c-3.62 1-8.48 2.21-13.39 3.3-2.46.53-4.91 1.06-7.24 1.47l-.88.16a2.21 2.21 0 0 1-2.6-1.89l-.11-.84c-.32-2.34-.58-4.84-.84-7.34-.48-5-.83-10-1-13.75a11.67 11.67 0 0 1 0-2.56 6.34 6.34 0 0 1 .68-2 5.19 5.19 0 0 1 .47-.73 4.53 4.53 0 0 1 .44-.54 4.08 4.08 0 0 1 .47-.45H63.38a4.07 4.07 0 0 1 .47.45 4.53 4.53 0 0 1 .44.54 5.19 5.19 0 0 1 .47.73 6.34 6.34 0 0 1 .68 2 11.67 11.67 0 0 1 0 2.56c-.18 3.75-.52 8.75-1 13.75-.26 2.5-.51 5-.84 7.34l-.11.84a2.21 2.21 0 0 1-2.6 1.89l-.89-.16c-2.33-.42-4.79-.95-7.24-1.47-4.9-1.09-9.77-2.31-13.39-3.3a11.68 11.68 0 0 1-2.43-.8 6.35 6.35 0 0 1-1.67-1.25 5.19 5.19 0 0 1-.55-.67 4.54 4.54 0 0 1-.38-.59 4.07 4.07 0 0 1-.28-.58L30 65a4.08 4.08 0 0 1 .57-.3 4.54 4.54 0 0 1 .65-.25 5.2 5.2 0 0 1 .84-.22 6.35 6.35 0 0 1 2.08 0 11.68 11.68 0 0 1 2.44.79c3.51 1.33 8.16 3.2 12.77 5.2 2.3 1 4.6 2 6.73 3.06l1.49.71a2.22 2.22 0 0 1 1 3.06L58 78c-1.12 2.09-2.38 4.26-3.64 6.43-2.54 4.33-5.2 8.57-7.26 11.71a11.67 11.67 0 0 1-1.51 2.07 6.35 6.35 0 0 1-1.71 1.2 5.19 5.19 0 0 1-.81.31 4.53 4.53 0 0 1-.67.18 4.07 4.07 0 0 1-.64.09l10.72 7.79a4.07 4.07 0 0 1-.11-.64 4.54 4.54 0 0 1 0-.7 5.2 5.2 0 0 1 0-.87 6.34 6.34 0 0 1 .61-2 11.67 11.67 0 0 1 1.5-2.07c2.35-2.92 5.52-6.76 8.9-10.5 1.68-1.87 3.35-3.74 5-5.45a2.22 2.22 0 0 1 3.22 0c1.64 1.71 3.32 3.58 5 5.45 3.33 3.76 6.55 7.6 8.89 10.53a11.67 11.67 0 0 1 1.5 2.07 6.35 6.35 0 0 1 .61 2 5.19 5.19 0 0 1 0 .87 4.53 4.53 0 0 1 0 .7 4.07 4.07 0 0 1-.11.64L98.24 100a4.07 4.07 0 0 1-.64-.09 4.53 4.53 0 0 1-.67-.18 5.19 5.19 0 0 1-.81-.31 6.35 6.35 0 0 1-1.71-1.2 11.67 11.67 0 0 1-1.51-2.07c-2.06-3.14-4.72-7.38-7.27-11.71-1.26-2.18-2.52-4.36-3.63-6.44l-.51-.94a2.22 2.22 0 0 1 1-3.06l1.51-.71c2.13-1 4.43-2 6.73-3.06 4.61-2 9.26-3.88 12.77-5.2a11.68 11.68 0 0 1 2.44-.79 6.35 6.35 0 0 1 2.08 0 5.2 5.2 0 0 1 .84.22 4.54 4.54 0 0 1 .65.25 4.08 4.08 0 0 1 .57.3z" fill="#c0c4cc"/><path fill="#a8aeb2" d="M63.38 21.19h13.25v10H63.38z"/><circle cx="70" cy="26.29" r="2.5" fill="#595f72" stroke="#a8aeb2" stroke-miterlimit="10"/></svg>