<svg xmlns="http://www.w3.org/2000/svg" viewBox="0 0 23 113.09"><title>crankshaft</title><path d="M22 6.87a11.5 11.5 0 0 0-21 9.27s.15.33.34.87v.1c.22.63.51 1.48.79 2.58a49.84 49.84 0 0 1 1.45 9.61l.31 6.63c.12 2.34.2 4.82.29 7.38.18 4.72.31 10.11.4 16v35.61c-.05 1.49-.16 2.89-.33 4.18-.14 1.07-.29 2-.43 2.67s-.19.83-.2.86a8.13 8.13 0 1 0 15.61 0s-.09-.33-.21-.89-.29-1.58-.43-2.65c-.16-1.29-.28-2.7-.33-4.18V67.49v-2.9-5.26c.09-5.92.22-11.32.4-16 .09-2.56.18-5 .29-7.38l.31-6.61a49.91 49.91 0 0 1 1.46-9.64c.27-1.08.57-1.94.78-2.56v-.06c.21-.57.35-.88.35-.9A11.58 11.58 0 0 0 22 6.87z" fill="#d1d5de"/><circle cx="11.58" cy="11.92" r="5.5" transform="translate(-2.85 3.67) rotate(-16.07)" fill="#595f72" stroke="#a8aeb2" stroke-miterlimit="10" stroke-width="2"/></svg>