<svg xmlns="http://www.w3.org/2000/svg" viewBox="0 0 70.47 50.46"><title>pedal</title><path d="M6.87 5.3a87.77 87.77 0 0 0 20.37 2.12C34.32 7.28 41 5.79 48 4.69c7.21-1.14 18.88-1.72 19.86 8S58.5 24.92 51.33 27.08a1.25 1.25 0 0 0 .67 2.41c6.48-2 14.51-4 17.49-10.83 2.3-5.29.47-12.38-4.74-15.16C58-.07 49.23 1.88 42.22 3.24a85.32 85.32 0 0 1-34.68-.35C6 2.55 5.3 5 6.87 5.3z" fill="#333"/><path d="M49.66 22.38a1.5 1.5 0 0 0-1 1.85l.36 1.3-20.83 4.3-20.07 7-.36-1.3a1.5 1.5 0 0 0-2.89.8l3.6 13a1.5 1.5 0 1 0 2.89-.8L11 47.26 31.78 43l20.07-7 .36 1.3a1.5 1.5 0 1 0 2.89-.8l-3.6-13a1.5 1.5 0 0 0-1.84-1.12z" fill="#c0c4cc"/><rect x="4.6" y="-.62" width="8.46" height="42.91" rx="4.23" ry="4.23" transform="translate(-5.24 3.11) rotate(-15.47)" fill="#333"/><rect x="2.98" y="10.66" width="10.79" height="16.86" rx="4" ry="4" transform="translate(-4.79 2.93) rotate(-15.47)" fill="none" stroke="#c5cdd3" stroke-miterlimit="10" stroke-width="2"/><circle cx="29.68" cy="36.5" r="3.5" fill="#595f72" stroke="#a8aeb2" stroke-miterlimit="10" stroke-width="2"/></svg>