<svg id="Layer_1" xmlns="http://www.w3.org/2000/svg" viewBox="0 0 390 390"><style>.st0{fill:url(#SVGID_1_)}.st1{fill:#bbb}.st2,.st3,.st4{fill:none;stroke:#333;stroke-width:8;stroke-miterlimit:10}.st3,.st4{stroke:#f7dc86;stroke-width:5}.st4{stroke:#aaa;stroke-width:3.5}.st5{fill:#ffd906}</style><linearGradient id="SVGID_1_" gradientUnits="userSpaceOnUse" x1="9.729" y1="195" x2="385.941" y2="195"><stop offset=".39" stop-color="#eee"/><stop offset="1" stop-color="#ccc"/></linearGradient><path class="st0" d="M385.9 195c0 103.9-84.2 188.1-188.1 188.1S9.7 298.9 9.7 195 93.9 6.9 197.8 6.9 385.9 91.1 385.9 195zM201.4 313.5c-11.7 0-21.3 9.5-21.3 21.3s9.5 21.3 21.3 21.3 21.3-9.5 21.3-21.3-9.6-21.3-21.3-21.3z"/><path class="st1" d="M195 18.5c47.1 0 91.5 18.4 124.8 51.7s51.7 77.7 51.7 124.8-18.4 91.5-51.7 124.8-77.7 51.7-124.8 51.7-91.5-18.4-124.8-51.7S18.5 242.1 18.5 195s18.4-91.5 51.7-124.8S147.9 18.5 195 18.5m0-9C92.6 9.5 9.5 92.6 9.5 195S92.6 380.5 195 380.5 380.5 297.4 380.5 195 297.4 9.5 195 9.5z"/><circle class="st2" cx="195" cy="195" r="191"/><circle class="st3" cx="195" cy="195.2" r="186.2"/><path class="st4" d="M201.4 355.9v-25 25z"/><path class="st5" d="M203.9 334.9h-5v-5.5c0-1.4 1.1-2.5 2.5-2.5s2.5 1.1 2.5 2.5v5.5z"/></svg>