<?xml version="1.0" encoding="utf-8"?>
<!-- Generator: Adobe Illustrator 17.0.0, SVG Export Plug-In . SVG Version: 6.00 Build 0)  -->
<!DOCTYPE svg PUBLIC "-//W3C//DTD SVG 1.1//EN" "http://www.w3.org/Graphics/SVG/1.1/DTD/svg11.dtd">
<svg version="1.1" id="Layer_1" xmlns="http://www.w3.org/2000/svg" xmlns:xlink="http://www.w3.org/1999/xlink" x="0px" y="0px"
	 width="710px" height="942.5px" viewBox="9.5 62.5 710 942.5" enable-background="new 9.5 62.5 710 942.5" xml:space="preserve">
<g>
	<g>
		<defs>
			<rect id="SVGID_1_" x="-11.2" y="8.375" width="759.5" height="996.625"/>
		</defs>
		<clipPath id="SVGID_2_">
			<use xlink:href="#SVGID_1_"  overflow="visible"/>
		</clipPath>
		<path clip-path="url(#SVGID_2_)" fill="#F3D1CD" d="M367.5,863.25l-7.525,29.225l10.15,15.575l14.7,7.35l9.275-4.025l8.225-5.775
			c0,0,5.6-5.425,6.475-23.8c0.875-18.2-6.475-33.95-6.475-33.95L367.5,863.25z"/>
	</g>
	<g>
		<defs>
			<rect id="SVGID_3_" x="-11.2" y="8.375" width="759.5" height="996.625"/>
		</defs>
		<clipPath id="SVGID_4_">
			<use xlink:href="#SVGID_3_"  overflow="visible"/>
		</clipPath>
		<path clip-path="url(#SVGID_4_)" fill="#F3D1CD" d="M108.675,578.525c0,0-3.15,3.85,5.775,21
			c9.1,17.15,14.525,24.15,15.225,34.475c0.525,10.15,14,40.6,27.65,35.875c13.65-4.725,16.975-8.75,16.975-8.75l-4.375-42.875
			l-36.75-39.725H108.675z"/>
	</g>
	<g>
		<defs>
			<rect id="SVGID_5_" x="-11.2" y="8.375" width="759.5" height="996.625"/>
		</defs>
		<clipPath id="SVGID_6_">
			<use xlink:href="#SVGID_5_"  overflow="visible"/>
		</clipPath>
		<path clip-path="url(#SVGID_6_)" fill="#F3D1CD" d="M528.15,617.375c1.225,0,9.625,0.525,19.25,4.9s26.25,5.6,30.275-14.175
			c4.025-19.6,4.375-28.35,4.9-40.425c0.525-11.9,0-17.5,0-17.5L564.2,534.25l-30.275-12.425l-17.15,54.25l11.375,38.85V617.375z"/>
	</g>
	<g>
		<defs>
			<rect id="SVGID_7_" x="-11.2" y="8.375" width="759.5" height="996.625"/>
		</defs>
		<clipPath id="SVGID_8_">
			<use xlink:href="#SVGID_7_"  overflow="visible"/>
		</clipPath>
		<path clip-path="url(#SVGID_8_)" fill="#F8DBD3" d="M147,590.775c0,0,2.975-11.725,10.5,32.025s19.775,94.325,71.225,137.025
			c51.45,42.7,100.275,77.35,116.725,91.7c16.275,14.35,33.425,18.725,53.725,1.75c20.3-16.975,134.05-145.25,140.175-204.75
			s7-32.9,5.25-62.475c-1.75-29.4-0.525-26.775,2.975-40.075s23.1-207.55,23.1-207.55L533.4,227.3l-44.625-19.775L377.3,251.8
			l-95.9,66.85l-130.725,9.1L87.15,426.275L104.3,543L147,590.775z"/>
	</g>
	<g>
		<defs>
			<rect id="SVGID_9_" x="-11.2" y="8.375" width="759.5" height="996.625"/>
		</defs>
		<clipPath id="SVGID_10_">
			<use xlink:href="#SVGID_9_"  overflow="visible"/>
		</clipPath>
		<path clip-path="url(#SVGID_10_)" fill="#75584D" d="M158.375,384.625c0,0-4.025,18.9-7.875,27.475
			c-5.25,11.725-12.6,26.075-17.5,33.6c-14.875,22.75-19.6,52.15-20.65,73.15c-0.875,21,31.85,41.125,40.6,63
			s4.375,26.25,4.375,26.25s-8.75-6.65-37.1-16.625s-30.1-8.75-45.5-13.65c-15.4-4.9-17.5-6.125-19.6-31.85
			c-2.1-25.725-3.85-35.525-16.625-49.525s-16.275-33.6-23.1-49.7s2.45-66.85,2.45-73.5s-7.875-36.75,4.375-106.225
			s124.25-150.5,205.625-187.6S424.725,90.625,454.475,102c29.75,11.375,28,24.5,46.9,22.75s81.375,70,98,90.125
			s60.9,70,80.85,90.65c19.95,20.65,29.75,42.35,31.5,57.225s8.4,27.65,2.625,51.1c-5.775,23.45-7,32.9-17.15,45.675
			c-10.15,12.95-17.85,17.325-27.125,29.05c-9.275,11.725-22.75,33.6-34.125,44.975s-13.125,4.9-18.375,10.15
			c-5.25,5.25-28.35,34.65-61.25,2.275c-62.475-54.6-33.775-117.775-17.15-151.025s19.25-53.9,15.75-57.4s-21.875-14-23.1-39.375
			c-1.225-25.375-21-64.4-30.1-69.65c-9.1-5.25-12.6-17.15-56,48.65c-68.775,96.6-160.475,82.25-187.775,78.225
			c-27.3-4.025-72.975-29.4-90.475,6.65"/>
	</g>
	<g>
		<defs>
			<rect id="SVGID_11_" x="-11.2" y="8.375" width="759.5" height="996.625"/>
		</defs>
		<clipPath id="SVGID_12_">
			<use xlink:href="#SVGID_11_"  overflow="visible"/>
		</clipPath>
		
			<path opacity="0.5" clip-path="url(#SVGID_12_)" fill="none" stroke="#442D26" stroke-miterlimit="10" enable-background="new    " d="
			M298.375,627.875c0,0-5.6-16.625-9.625-10.5s-22.4,36.75-14,46.375s6.125,1.4,18.375,13.125s25.375,37.625,43.4,31.85
			c18.025-5.775,35.35-14,38.5-34.65c3.15-20.65,7.875-37.1,10.5-28.35s8.4,14,8.75,3.85c0.35-10.15-10.15-43.4-20.125-36.4"/>
	</g>
	<g>
		<defs>
			<rect id="SVGID_13_" x="-11.2" y="8.375" width="759.5" height="996.625"/>
		</defs>
		<clipPath id="SVGID_14_">
			<use xlink:href="#SVGID_13_"  overflow="visible"/>
		</clipPath>
		
			<path opacity="0.3" clip-path="url(#SVGID_14_)" fill="none" stroke="#8B6D6C" stroke-miterlimit="10" enable-background="new    " d="
			M436.625,752.125c0,0,60.725-94.5,37.625-99.75S445.025,644.5,434,634s-23.975-19.25-39.725-18.9"/>
	</g>
	<g>
		<defs>
			<rect id="SVGID_15_" x="-11.2" y="8.375" width="759.5" height="996.625"/>
		</defs>
		<clipPath id="SVGID_16_">
			<use xlink:href="#SVGID_15_"  overflow="visible"/>
		</clipPath>
		
			<path opacity="0.3" clip-path="url(#SVGID_16_)" fill="none" stroke="#8B6D6C" stroke-miterlimit="10" enable-background="new    " d="
			M264.25,731.125c0,0-11.9-21-3.15-45.5c8.75-24.5,7.875-18.9,8.75-24.5"/>
	</g>
	<g>
		<defs>
			<rect id="SVGID_17_" x="-11.2" y="8.375" width="759.5" height="996.625"/>
		</defs>
		<clipPath id="SVGID_18_">
			<use xlink:href="#SVGID_17_"  overflow="visible"/>
		</clipPath>
		<path clip-path="url(#SVGID_18_)" fill="#2B211D" stroke="#020202" stroke-miterlimit="10" d="M295.925,745.65
			c0,0,12.075-11.375,29.225-12.6c15.4-1.05,7.525-11.375,17.15-14.35c9.625-2.975,16.975-7.875,25.2-12.075
			s29.75-13.125,41.475-20.65c11.725-7.525,22.925-11.9,25.55-17.325c2.625-5.425,3.675-7.7,3.675-7.7s8.575,1.225,7.175,8.575
			c-1.4,7.35-1.575,14.875-7.175,21.875c-5.6,7-24.675,37.625-39.2,76.65c0,0-1.575,42.875-28.175,37.45
			c-26.6-5.425-11.2-13.825-42-30.1c0,0-6.3-2.275-14.35-11.025c-8.05-8.75-15.225-10.5-16.8-14s-1.575-3.5-1.575-3.5
			L295.925,745.65z"/>
	</g>
	<g>
		<defs>
			<rect id="SVGID_19_" x="-11.2" y="8.375" width="759.5" height="996.625"/>
		</defs>
		<clipPath id="SVGID_20_">
			<use xlink:href="#SVGID_19_"  overflow="visible"/>
		</clipPath>
		<path clip-path="url(#SVGID_20_)" fill="#FFFFFF" d="M308,738.65c0,0,7.7-7.875,14.175-2.625c6.475,5.25,5.95,11.9,5.95,11.9
			l-2.45,7.7c0,0-7,5.25-10.5,4.2c-3.5-1.05-7.35-5.425-7.175-9.625c0.175-4.2,0-6.125,0-8.75C308,738.65,308,738.65,308,738.65z"/>
	</g>
	<g>
		<defs>
			<rect id="SVGID_21_" x="-11.2" y="8.375" width="759.5" height="996.625"/>
		</defs>
		<clipPath id="SVGID_22_">
			<use xlink:href="#SVGID_21_"  overflow="visible"/>
		</clipPath>
		<path clip-path="url(#SVGID_22_)" fill="#B1756F" d="M312.725,733.225c0,0-0.875,4.9,15.4,6.65
			c16.1,1.75,43.225,2.45,51.625-8.925s16.45-11.55,21-19.425s6.825-4.725,9.1-9.975c2.45-5.25,3.85-5.075,4.2-9.975
			c0.35-4.9,2.45-6.475,2.45-6.475v-1.925l-54.6,28.875l-37.8,14.525L312.725,733.225z"/>
	</g>
	<g>
		<defs>
			<rect id="SVGID_23_" x="-11.2" y="8.375" width="759.5" height="996.625"/>
		</defs>
		<clipPath id="SVGID_24_">
			<use xlink:href="#SVGID_23_"  overflow="visible"/>
		</clipPath>
		<path clip-path="url(#SVGID_24_)" fill="#FFFFFF" d="M405.3,706.8c0,0,0.875-7.7,3.325-10.675s5.6-5.425,5.425,0
			s0.175,16.625-0.875,18.9s0.7,3.675-3.5,5.25c-4.2,1.575-7.175-3.15-7.175-3.15L405.3,706.8z"/>
	</g>
	<g>
		<defs>
			<rect id="SVGID_25_" x="-11.2" y="8.375" width="759.5" height="996.625"/>
		</defs>
		<clipPath id="SVGID_26_">
			<use xlink:href="#SVGID_25_"  overflow="visible"/>
		</clipPath>
		<path clip-path="url(#SVGID_26_)" fill="#FFFFFF" d="M323.75,737.075c0,0-3.5,15.05-2.45,16.975c0.875,1.575,1.925,4.2,9.1,8.225
			c7.175,4.025,7.875,5.6,10.85,4.55c2.975-1.05,1.05-17.5,1.05-17.5l-2.625-7.525c0,0-1.05-3.325-5.25-5.6
			c-4.2-2.275-7.875-6.3-9.45-2.8C323.75,736.025,323.75,737.075,323.75,737.075z"/>
	</g>
	<g>
		<defs>
			<rect id="SVGID_27_" x="-11.2" y="8.375" width="759.5" height="996.625"/>
		</defs>
		<clipPath id="SVGID_28_">
			<use xlink:href="#SVGID_27_"  overflow="visible"/>
		</clipPath>
		<path clip-path="url(#SVGID_28_)" fill="#FFFFFF" d="M392.875,737.425c1.575,0.875,5.075,7.35,9.45,6.3
			c4.375-1.05,3.5-4.725,4.9-12.6c1.4-7.875-0.875-15.925,0-19.425s-0.525-5.6-1.75-7.875c-1.225-2.275-8.75-4.375-11.2,2.8
			c-2.45,7.175-3.5,10.5-3.5,10.5l1.75,19.25L392.875,737.425z"/>
	</g>
	<g>
		<defs>
			<rect id="SVGID_29_" x="-11.2" y="8.375" width="759.5" height="996.625"/>
		</defs>
		<clipPath id="SVGID_30_">
			<use xlink:href="#SVGID_29_"  overflow="visible"/>
		</clipPath>
		<path clip-path="url(#SVGID_30_)" fill="#FFFFFF" d="M381.5,752.125c0,0-1.05,2.8,4.9,1.575c5.95-1.225,5.075-0.7,7.875-6.3
			c2.8-5.6,3.675-5.425,2.975-9.45c-0.7-4.025-2.625-19.25-4.55-21.175c-1.925-1.925-17.5-11.2-16.625,7.7
			s0.875,17.325,0.875,17.325L381.5,752.125z"/>
	</g>
	<g>
		<defs>
			<rect id="SVGID_31_" x="-11.2" y="8.375" width="759.5" height="996.625"/>
		</defs>
		<clipPath id="SVGID_32_">
			<use xlink:href="#SVGID_31_"  overflow="visible"/>
		</clipPath>
		<path clip-path="url(#SVGID_32_)" fill="#FFFFFF" d="M361.375,767c0,0-7-22.575-5.95-31.325s7.875-26.6,19.25-8.575
			s10.85,28.875,9.45,31.15s-7,7.875-11.9,8.75c-4.9,0.875-10.325,1.05-10.325,1.05L361.375,767z"/>
	</g>
	<g>
		<defs>
			<rect id="SVGID_33_" x="-11.2" y="8.375" width="759.5" height="996.625"/>
		</defs>
		<clipPath id="SVGID_34_">
			<use xlink:href="#SVGID_33_"  overflow="visible"/>
		</clipPath>
		<path clip-path="url(#SVGID_34_)" fill="#FFFFFF" d="M336.875,726.75c0,0-0.35,38.15,4.2,41.3c4.55,3.15,3.325,4.2,10.85,3.325
			c7.525-0.875,10.15-3.325,10.15-3.325s-7-32.9-10.15-36.925c-3.15-4.025-6.825-4.375-10.85-4.375
			C337.05,726.75,336.875,726.75,336.875,726.75z"/>
	</g>
	<g>
		<defs>
			<rect id="SVGID_35_" x="-11.2" y="8.375" width="759.5" height="996.625"/>
		</defs>
		<clipPath id="SVGID_36_">
			<use xlink:href="#SVGID_35_"  overflow="visible"/>
		</clipPath>
		<path clip-path="url(#SVGID_36_)" fill="#DC8479" d="M297.15,743.725c0,0,22.225-11.375,30.975-15.575
			c8.75-4.2,7-5.425,15.05-6.125c8.05-0.7,8.75-3.675,17.5-6.125c8.75-2.45,16.1-7.875,24.15-11.9s26.95-16.1,32.9-20.3
			c5.95-4.2,7-4.025,8.575-6.825c1.575-2.625,2.275-3.15,2.275-3.15L363.3,705.75l-16.975,9.1l-12.95,3.85L320.6,725l-12.775,8.4
			L297.15,743.725z"/>
	</g>
	<g>
		<defs>
			<rect id="SVGID_37_" x="-11.2" y="8.375" width="759.5" height="996.625"/>
		</defs>
		<clipPath id="SVGID_38_">
			<use xlink:href="#SVGID_37_"  overflow="visible"/>
		</clipPath>
		<path clip-path="url(#SVGID_38_)" fill="#F3D1CD" d="M313.25,486.475c0,0,13.825,18.725,10.15,40.25"/>
	</g>
	<g>
		<defs>
			<rect id="SVGID_39_" x="-11.2" y="8.375" width="759.5" height="996.625"/>
		</defs>
		<clipPath id="SVGID_40_">
			<use xlink:href="#SVGID_39_"  overflow="visible"/>
		</clipPath>
		<path clip-path="url(#SVGID_40_)" fill="#F3D1CD" d="M360.675,478.6c0,0-14.175,29.05-1.4,50.4"/>
	</g>
	<g>
		<defs>
			<rect id="SVGID_41_" x="-11.2" y="8.375" width="759.5" height="996.625"/>
		</defs>
		<clipPath id="SVGID_42_">
			<use xlink:href="#SVGID_41_"  overflow="visible"/>
		</clipPath>
		<path clip-path="url(#SVGID_42_)" fill="#FFFFFF" d="M213.325,540.725c0,0,12.075-26.075,25.375-29.05
			c13.3-2.975,32.9-6.65,46.025-7.175c13.3-0.35,12.6-2.8,15.05,4.55c2.45,7.35,6.3,13.3,8.575,16.625s-44.1,29.4-85.925,16.975
			L213.325,540.725z"/>
	</g>
	<g>
		<defs>
			<rect id="SVGID_43_" x="-11.2" y="8.375" width="759.5" height="996.625"/>
		</defs>
		<clipPath id="SVGID_44_">
			<use xlink:href="#SVGID_43_"  overflow="visible"/>
		</clipPath>
		<path clip-path="url(#SVGID_44_)" fill="#FFFFFF" d="M433.825,501.525c-28.875-15.05-42-6.825-42-6.825
			s-29.925,22.05,1.225,29.225c-0.7,0,23.45,2.625,35.35,0c11.9-2.625,22.225-5.6,24.15-7.35s1.925-1.75,1.925-1.75"/>
	</g>
	<g>
		<defs>
			<rect id="SVGID_45_" x="-11.2" y="8.375" width="759.5" height="996.625"/>
		</defs>
		<clipPath id="SVGID_46_">
			<use xlink:href="#SVGID_45_"  overflow="visible"/>
		</clipPath>
		<path clip-path="url(#SVGID_46_)" fill="#4B332B" d="M373.625,424.525l-11.55,16.625c0,0,7.175,39.375,40.425,46.725
			s27.125,8.225,47.6,5.6c20.475-2.625,15.225-4.9,23.1-1.4s12.25,1.4,12.25,1.4s-0.35-11.725-3.15-14.525
			c-2.975-2.975-2.625-2.1-12.6-3.5c-9.975-1.4-64.925-18.025-84.7-42.35l-8.925-8.4h-2.45V424.525z"/>
	</g>
	<g>
		<defs>
			<rect id="SVGID_47_" x="-11.2" y="8.375" width="759.5" height="996.625"/>
		</defs>
		<clipPath id="SVGID_48_">
			<use xlink:href="#SVGID_47_"  overflow="visible"/>
		</clipPath>
		<g clip-path="url(#SVGID_48_)">
			<g>
				<defs>
					<path id="SVGID_49_" d="M213.325,541.25c0,0,12.075-26.075,25.375-29.05c13.3-2.975,32.9-6.65,46.025-7.175
						c13.3-0.35,12.6-2.8,15.05,4.55s6.3,13.3,8.575,16.625c2.275,3.325-44.1,29.4-85.925,16.975L213.325,541.25z"/>
				</defs>
				<clipPath id="SVGID_50_">
					<use xlink:href="#SVGID_49_"  overflow="visible"/>
				</clipPath>
				<g clip-path="url(#SVGID_50_)">
					
						<ellipse transform="matrix(0.2515 -0.9679 0.9679 0.2515 -299.4012 640.8377)" fill="#785D47" cx="264.616" cy="513.989" rx="23.976" ry="19.426"/>
					<g>
						
							<ellipse transform="matrix(0.2515 -0.9679 0.9679 0.2515 -300.2435 641.5006)" fill="#020202" cx="264.624" cy="514.865" rx="12.601" ry="10.15"/>
						<g>
							<g>
								<defs>
									
										<ellipse id="SVGID_51_" transform="matrix(0.5041 -0.8637 0.8637 0.5041 -311.7221 483.2086)" cx="264.905" cy="513.044" rx="12.601" ry="10.151"/>
								</defs>
								<clipPath id="SVGID_52_">
									<use xlink:href="#SVGID_51_"  overflow="visible"/>
								</clipPath>
								
									<ellipse transform="matrix(0.2707 -0.9627 0.9627 0.2707 -297.645 636.8114)" clip-path="url(#SVGID_52_)" fill="#FFFFFF" cx="271.463" cy="514.847" rx="5.25" ry="4.725"/>
							</g>
						</g>
					</g>
				</g>
			</g>
			<g>
				<defs>
					<rect id="SVGID_53_" x="-11.2" y="8.375" width="759.5" height="996.625"/>
				</defs>
				<clipPath id="SVGID_54_">
					<use xlink:href="#SVGID_53_"  overflow="visible"/>
				</clipPath>
				<g clip-path="url(#SVGID_54_)">
					<g>
						<defs>
							<path id="SVGID_55_" d="M474.95,521.3c-9.45,6.3-18.55-7.175-42-19.425c-28.875-15.05-42-6.825-42-6.825
								s-29.925,22.05,1.225,29.225c-0.7,0,23.45,2.625,35.35,0c11.9-2.625,22.225-5.6,24.15-7.35s1.925-1.75,1.925-1.75"/>
						</defs>
						<clipPath id="SVGID_56_">
							<use xlink:href="#SVGID_55_"  overflow="visible"/>
						</clipPath>
						<g clip-path="url(#SVGID_56_)">
							
								<ellipse transform="matrix(-0.2002 -0.9798 0.9798 -0.2002 15.818 1011.7291)" fill="#785D47" cx="420.855" cy="499.408" rx="23.974" ry="19.424"/>
							<g>
								
									<ellipse transform="matrix(-0.2002 -0.9798 0.9798 -0.2002 15.4279 1013.9161)" fill="#020202" cx="421.553" cy="500.661" rx="12.599" ry="10.149"/>
								<g>
									<g>
										<defs>
											
												<ellipse id="SVGID_57_" transform="matrix(-0.6686 -0.7436 0.7436 -0.6686 324.3203 1153.5704)" cx="419.198" cy="504.52" rx="12.599" ry="10.149"/>
										</defs>
										<clipPath id="SVGID_58_">
											<use xlink:href="#SVGID_57_"  overflow="visible"/>
										</clipPath>
										
											<ellipse transform="matrix(-0.5062 -0.8624 0.8624 -0.5062 206.7771 1132.2363)" clip-path="url(#SVGID_58_)" fill="#FFFFFF" cx="427.532" cy="506.921" rx="5.25" ry="4.725"/>
									</g>
								</g>
							</g>
						</g>
					</g>
					<g>
						<defs>
							<rect id="SVGID_59_" x="-11.2" y="8.375" width="759.5" height="996.625"/>
						</defs>
						<clipPath id="SVGID_60_">
							<use xlink:href="#SVGID_59_"  overflow="visible"/>
						</clipPath>
						<path clip-path="url(#SVGID_60_)" fill="#F4D0C9" stroke="#020202" stroke-miterlimit="10" d="M245,578.525"/>
					</g>
					<g>
						<defs>
							<rect id="SVGID_61_" x="-11.2" y="8.375" width="759.5" height="996.625"/>
						</defs>
						<clipPath id="SVGID_62_">
							<use xlink:href="#SVGID_61_"  overflow="visible"/>
						</clipPath>
						<path clip-path="url(#SVGID_62_)" fill="#F3D1CD" d="M311.5,535.825c0,0,5.6,33.95-57.75,45.325"/>
					</g>
					<g>
						<defs>
							<rect id="SVGID_63_" x="-11.2" y="8.375" width="759.5" height="996.625"/>
						</defs>
						<clipPath id="SVGID_64_">
							<use xlink:href="#SVGID_63_"  overflow="visible"/>
						</clipPath>
						<path clip-path="url(#SVGID_64_)" fill="#F3D1CD" d="M378,530.05c0,0,10.15,35.35,54.25,32.375"/>
					</g>
					<g>
						<defs>
							<rect id="SVGID_65_" x="-11.2" y="8.375" width="759.5" height="996.625"/>
						</defs>
						<clipPath id="SVGID_66_">
							<use xlink:href="#SVGID_65_"  overflow="visible"/>
						</clipPath>
						<path clip-path="url(#SVGID_66_)" fill="none" stroke="#020202" stroke-miterlimit="10" d="M302.925,445.875"/>
					</g>
					<g>
						<defs>
							<rect id="SVGID_67_" x="-11.2" y="8.375" width="759.5" height="996.625"/>
						</defs>
						<clipPath id="SVGID_68_">
							<use xlink:href="#SVGID_67_"  overflow="visible"/>
						</clipPath>
						<path clip-path="url(#SVGID_68_)" fill="#4B332B" d="M159.25,521.125l-1.75,6.65c0,0,2.275,11.025,37.275,2.975
							c35-8.225,56.525-16.275,79.625-41.65c23.1-25.375,35.35-42,36.225-46.375s0.875-4.375,0.875-4.375l-13.65-13.65
							c0,0-43.4,52.15-68.25,67.025s-43.4,29.05-60.025,28.525c-11.9-0.35-10.5,1.575-10.5,1.575"/>
					</g>
					<g>
						<defs>
							<rect id="SVGID_69_" x="-11.2" y="8.375" width="759.5" height="996.625"/>
						</defs>
						<clipPath id="SVGID_70_">
							<use xlink:href="#SVGID_69_"  overflow="visible"/>
						</clipPath>
						<path clip-path="url(#SVGID_70_)" fill="#42526F" d="M339.15,907.175c-0.875-0.35-36.4,28.35-52.15,30.625
							c-15.75,2.275-13.125-3.5-25.375,4.375s-24.85,23.625-37.1,37.1c-12.25,13.475-35.35,30.625-35.35,30.625l354.025,5.6
							c0,0-1.225-19.775-11.9-42.525c-10.85-22.75-9.1-23.1-18.025-23.275c-9.1-0.35-18.725-0.525-34.125-12.25
							s-12.775-9.975-22.4-16.1S438.9,914,438.9,914L339.15,907.175z"/>
					</g>
					<g>
						<defs>
							<rect id="SVGID_71_" x="-11.2" y="8.375" width="759.5" height="996.625"/>
						</defs>
						<clipPath id="SVGID_72_">
							<use xlink:href="#SVGID_71_"  overflow="visible"/>
						</clipPath>
						<path clip-path="url(#SVGID_72_)" fill="#E1EAF7" d="M365.4,918.9c0,0-7.175-10.15,0,21.875
							c7.175,32.025,11.9,49.525,11.9,49.525l18.375,7.35c0,0-7.525,21.875,5.25-9.975c12.6-31.85,16.8-45.15,16.625-60.375
							c-0.175-15.225-5.425-27.475-5.425-27.475l-26.25,17.85L365.4,918.9z"/>
					</g>
					<g>
						<defs>
							<rect id="SVGID_73_" x="-11.2" y="8.375" width="759.5" height="996.625"/>
						</defs>
						<clipPath id="SVGID_74_">
							<use xlink:href="#SVGID_73_"  overflow="visible"/>
						</clipPath>
						<polygon clip-path="url(#SVGID_74_)" fill="#E3341F" points="379.4,964.925 368.725,996.775 377.3,1019.875 400.4,1011.3 
							382.375,964.925 						"/>
					</g>
					<g>
						<defs>
							<rect id="SVGID_75_" x="-11.2" y="8.375" width="759.5" height="996.625"/>
						</defs>
						<clipPath id="SVGID_76_">
							<use xlink:href="#SVGID_75_"  overflow="visible"/>
						</clipPath>
						<path clip-path="url(#SVGID_76_)" fill="#E3341F" d="M370.825,908.75c1.925,0,28.175,0,28.175,0l-12.25,66.85l-10.675-2.275
							L370.825,908.75z"/>
					</g>
					<g>
						<defs>
							<rect id="SVGID_77_" x="-11.2" y="8.375" width="759.5" height="996.625"/>
						</defs>
						<clipPath id="SVGID_78_">
							<use xlink:href="#SVGID_77_"  overflow="visible"/>
						</clipPath>
						<path clip-path="url(#SVGID_78_)" fill="#BDC6D6" d="M361.9,881.625c0,0-6.125,28-2.975,39.375
							c3.15,11.375,6.475,11.9,6.475,11.9l13.825-27.475c0,0-11.375-5.6-13.825-13.125C363.125,884.775,361.9,881.625,361.9,881.625
							z"/>
					</g>
					<g>
						<defs>
							<rect id="SVGID_79_" x="-11.2" y="8.375" width="759.5" height="996.625"/>
						</defs>
						<clipPath id="SVGID_80_">
							<use xlink:href="#SVGID_79_"  overflow="visible"/>
						</clipPath>
						<path clip-path="url(#SVGID_80_)" fill="#BDC6D6" d="M386.75,901.75c4.375-1.4,14-4.9,15.75-13.125s6.475-13.65,6.475-13.65
							s6.65,7.875,4.9,21s-8.75,37.1-11.375,39.725S386.75,901.75,386.75,901.75z"/>
					</g>
					<g>
						<defs>
							<rect id="SVGID_81_" x="-11.2" y="8.375" width="759.5" height="996.625"/>
						</defs>
						<clipPath id="SVGID_82_">
							<use xlink:href="#SVGID_81_"  overflow="visible"/>
						</clipPath>
						<path clip-path="url(#SVGID_82_)" fill="#3B455A" d="M361.9,879.175l-29.925,26.775c0,0,1.4,17.325-6.65,43.75
							c-8.225,26.6-10.5,37.1-10.5,37.1L343,969.825l-17.15,53.025c0,0,20.825,11.025,35.875,44.625
							c15.05,33.6,24.5,43.75,24.5,43.75s0.525-67.9,0.35-76.475c-0.35-8.4,0.525-20.125-4.375-32.375
							c-4.9-12.25-20.475-65.975-21.7-76.65c-1.05-10.675,1.225-42.175,1.225-44.45S361.9,879.175,361.9,879.175z"/>
					</g>
					<g>
						<defs>
							<rect id="SVGID_83_" x="-11.2" y="8.375" width="759.5" height="996.625"/>
						</defs>
						<clipPath id="SVGID_84_">
							<use xlink:href="#SVGID_83_"  overflow="visible"/>
						</clipPath>
						<path clip-path="url(#SVGID_84_)" fill="#3B455A" d="M408.8,874.8c0.875,0,39.375,35.525,39.375,35.525l12.775,42
							l-30.975,13.65l30.975,6.125c0,0-38.85,90.65-49,104.475c-10.15,13.65-14.875,21-19.6,27.65
							c-4.725,6.65-2.1-29.225-3.85-53.55c-1.925-24.15-2.275-20.475-2.1-30.975c0.175-10.5,7.875-23.975,11.9-34.125
							c4.025-10.15,14-60.375,15.75-71.75c1.925-11.375-5.6-30.275-5.425-34.65S408.8,874.8,408.8,874.8z"/>
					</g>
					<g>
						<defs>
							<rect id="SVGID_85_" x="-11.2" y="8.375" width="759.5" height="996.625"/>
						</defs>
						<clipPath id="SVGID_86_">
							<use xlink:href="#SVGID_85_"  overflow="visible"/>
						</clipPath>
						<path clip-path="url(#SVGID_86_)" fill="none" stroke="#4B332B" stroke-miterlimit="10" d="M43.75,479.125
							c0,0,48.125-18.9,55.65-82.25c7.525-63.35,0.875-50.4,10.85-71.4"/>
					</g>
					<g>
						<defs>
							<rect id="SVGID_87_" x="-11.2" y="8.375" width="759.5" height="996.625"/>
						</defs>
						<clipPath id="SVGID_88_">
							<use xlink:href="#SVGID_87_"  overflow="visible"/>
						</clipPath>
						<path clip-path="url(#SVGID_88_)" fill="none" stroke="#4B332B" stroke-miterlimit="10" d="M57.75,295.725
							c0,0,34.125,0.875,61.25-22.75s31.5-41.65,57.75-42s31.85,2.1,31.85,2.1"/>
					</g>
					<g>
						<defs>
							<rect id="SVGID_89_" x="-11.2" y="8.375" width="759.5" height="996.625"/>
						</defs>
						<clipPath id="SVGID_90_">
							<use xlink:href="#SVGID_89_"  overflow="visible"/>
						</clipPath>
						<path clip-path="url(#SVGID_90_)" fill="none" stroke="#4B332B" stroke-miterlimit="10" d="M275.625,169.375
							c0,0,93.625-51.625,159.25-5.6"/>
					</g>
					<g>
						<defs>
							<rect id="SVGID_91_" x="-11.2" y="8.375" width="759.5" height="996.625"/>
						</defs>
						<clipPath id="SVGID_92_">
							<use xlink:href="#SVGID_91_"  overflow="visible"/>
						</clipPath>
						<path clip-path="url(#SVGID_92_)" fill="none" stroke="#4B332B" stroke-miterlimit="10" d="M77,249.35
							c0,0,125.125-138.6,263.375-130.9"/>
					</g>
					<g>
						<defs>
							<rect id="SVGID_93_" x="-11.2" y="8.375" width="759.5" height="996.625"/>
						</defs>
						<clipPath id="SVGID_94_">
							<use xlink:href="#SVGID_93_"  overflow="visible"/>
						</clipPath>
						<path clip-path="url(#SVGID_94_)" fill="none" stroke="#4B332B" stroke-miterlimit="10" d="M497,159.75c0,0,19.6-7,31.5,2.1"
							/>
					</g>
					<g>
						<defs>
							<rect id="SVGID_95_" x="-11.2" y="8.375" width="759.5" height="996.625"/>
						</defs>
						<clipPath id="SVGID_96_">
							<use xlink:href="#SVGID_95_"  overflow="visible"/>
						</clipPath>
						<path clip-path="url(#SVGID_96_)" fill="none" stroke="#4B332B" stroke-miterlimit="10" d="M505.225,183.9
							c0,0,32.375-9.625,44.625,16.1s0.875,36.4,25.9,43.4"/>
					</g>
					<g>
						<defs>
							<rect id="SVGID_97_" x="-11.2" y="8.375" width="759.5" height="996.625"/>
						</defs>
						<clipPath id="SVGID_98_">
							<use xlink:href="#SVGID_97_"  overflow="visible"/>
						</clipPath>
						<path clip-path="url(#SVGID_98_)" fill="none" stroke="#4B332B" stroke-miterlimit="10" d="M242.725,291.875
							c0,0,132.125-86.275,213.85-76.125"/>
					</g>
					<g>
						<defs>
							<rect id="SVGID_99_" x="-11.2" y="8.375" width="759.5" height="996.625"/>
						</defs>
						<clipPath id="SVGID_100_">
							<use xlink:href="#SVGID_99_"  overflow="visible"/>
						</clipPath>
						<path clip-path="url(#SVGID_100_)" fill="#B88350" stroke="#020202" stroke-miterlimit="10" d="M156.1,386.725"/>
					</g>
					<g>
						<defs>
							<rect id="SVGID_101_" x="-11.2" y="8.375" width="759.5" height="996.625"/>
						</defs>
						<clipPath id="SVGID_102_">
							<use xlink:href="#SVGID_101_"  overflow="visible"/>
						</clipPath>
						<path clip-path="url(#SVGID_102_)" fill="#75584D" d="M225.75,295.725c0,0-91,10.85-90.125,69.475s14.525,51.1,30.45,63
							C182,440.1,185.15,440.625,182,452.525c-3.15,11.9-16.1,36.925-24.15,39.725c-7.875,2.8,16.1,2.275,26.6-20.475
							s17.675-39.9-11.9-66.15c0,0-17.85-15.4-6.825-43.75"/>
					</g>
					<g>
						<defs>
							<rect id="SVGID_103_" x="-11.2" y="8.375" width="759.5" height="996.625"/>
						</defs>
						<clipPath id="SVGID_104_">
							<use xlink:href="#SVGID_103_"  overflow="visible"/>
						</clipPath>
						<path clip-path="url(#SVGID_104_)" fill="none" stroke="#4B332B" stroke-miterlimit="10" d="M516.775,207.525
							c0,0,17.85,11.2,29.575,30.45s20.125,38.15,44.625,30.625s20.125-7.35,28.875-3.5"/>
					</g>
					<g>
						<defs>
							<rect id="SVGID_105_" x="-11.2" y="8.375" width="759.5" height="996.625"/>
						</defs>
						<clipPath id="SVGID_106_">
							<use xlink:href="#SVGID_105_"  overflow="visible"/>
						</clipPath>
						<path clip-path="url(#SVGID_106_)" fill="none" stroke="#4B332B" stroke-miterlimit="10" d="M577.85,328.975
							c0,0,81.725-30.975,110.25,18.375"/>
					</g>
					<g>
						<defs>
							<rect id="SVGID_107_" x="-11.2" y="8.375" width="759.5" height="996.625"/>
						</defs>
						<clipPath id="SVGID_108_">
							<use xlink:href="#SVGID_107_"  overflow="visible"/>
						</clipPath>
						<path clip-path="url(#SVGID_108_)" fill="none" stroke="#4B332B" stroke-miterlimit="10" d="M569.45,347.35
							c0,0,82.25-21,110.25,41.125"/>
					</g>
					<g>
						<defs>
							<rect id="SVGID_109_" x="-11.2" y="8.375" width="759.5" height="996.625"/>
						</defs>
						<clipPath id="SVGID_110_">
							<use xlink:href="#SVGID_109_"  overflow="visible"/>
						</clipPath>
						<path clip-path="url(#SVGID_110_)" fill="none" stroke="#4B332B" stroke-miterlimit="10" d="M577.85,358.725
							c0,0,23.1,12.25,46.725,23.1c23.625,10.85,32.9,18.725,39.025,42.525"/>
					</g>
					<g>
						<defs>
							<rect id="SVGID_111_" x="-11.2" y="8.375" width="759.5" height="996.625"/>
						</defs>
						<clipPath id="SVGID_112_">
							<use xlink:href="#SVGID_111_"  overflow="visible"/>
						</clipPath>
						<path clip-path="url(#SVGID_112_)" fill="none" stroke="#4B332B" stroke-miterlimit="10" d="M563.85,402.3
							c0,0,87.5,34.3,77.875,104.3"/>
					</g>
					<g>
						<defs>
							<rect id="SVGID_113_" x="-11.2" y="8.375" width="759.5" height="996.625"/>
						</defs>
						<clipPath id="SVGID_114_">
							<use xlink:href="#SVGID_113_"  overflow="visible"/>
						</clipPath>
						<path clip-path="url(#SVGID_114_)" fill="none" stroke="#4B332B" stroke-miterlimit="10" d="M546.875,443.6
							c0,0,36.4,17.15,47.25,94.15"/>
					</g>
					<g>
						<defs>
							<rect id="SVGID_115_" x="-11.2" y="8.375" width="759.5" height="996.625"/>
						</defs>
						<clipPath id="SVGID_116_">
							<use xlink:href="#SVGID_115_"  overflow="visible"/>
						</clipPath>
						<path clip-path="url(#SVGID_116_)" fill="none" stroke="#4B332B" stroke-miterlimit="10" d="M359.975,207.525
							c0,0,60.375-18.9,96.6-4.025"/>
					</g>
					<g>
						<defs>
							<rect id="SVGID_117_" x="-11.2" y="8.375" width="759.5" height="996.625"/>
						</defs>
						<clipPath id="SVGID_118_">
							<use xlink:href="#SVGID_117_"  overflow="visible"/>
						</clipPath>
						<path clip-path="url(#SVGID_118_)" fill="none" stroke="#4B332B" stroke-miterlimit="10" d="M150.5,131.225
							c0,0,162.05-81.375,254.8-33.25"/>
					</g>
					<g>
						<defs>
							<rect id="SVGID_119_" x="-11.2" y="8.375" width="759.5" height="996.625"/>
						</defs>
						<clipPath id="SVGID_120_">
							<use xlink:href="#SVGID_119_"  overflow="visible"/>
						</clipPath>
						
							<path opacity="0.3" clip-path="url(#SVGID_120_)" fill="none" stroke="#8B6D6C" stroke-miterlimit="10" enable-background="new    " d="
							M291.375,701.55c0,0-24.15,28.525,0,65.45"/>
					</g>
					<g>
						<defs>
							<rect id="SVGID_121_" x="-11.2" y="8.375" width="759.5" height="996.625"/>
						</defs>
						<clipPath id="SVGID_122_">
							<use xlink:href="#SVGID_121_"  overflow="visible"/>
						</clipPath>
						
							<path opacity="0.3" clip-path="url(#SVGID_122_)" fill="none" stroke="#8B6D6C" stroke-miterlimit="10" enable-background="new    " d="
							M310.625,801.125c0,0,35.875,58.975,62.65,61.775c26.775,2.975,36.4-26.25,43.225-42.35c6.825-16.1,13.65-29.4,13.65-29.4"/>
					</g>
					<g>
						<defs>
							<rect id="SVGID_123_" x="-11.2" y="8.375" width="759.5" height="996.625"/>
						</defs>
						<clipPath id="SVGID_124_">
							<use xlink:href="#SVGID_123_"  overflow="visible"/>
						</clipPath>
						<path clip-path="url(#SVGID_124_)" fill="#DF857A" d="M297.15,750.725c25.725,17.15,27.3,19.25,37.975,26.425
							c10.5,7,14.35,8.05,19.25,11.9c4.9,3.85,14.175,8.575,20.125,6.825s14.875-3.325,24.675-27.65
							c9.8-24.325,16.275-43.575,19.075-47.6c2.8-4.025,10.5-18.9,12.425-19.775s2.625-0.35,2.625-0.35s-17.5,33.6-19.25,37.975
							s-9.975,30.45-10.325,32.55c-0.35,2.1-8.75,22.925-9.625,25.025c-0.875,2.1-10.15,12.95-19.95,12.075
							s-16.625-2.625-27.65-14.175c-10.85-11.55-18.55-14.7-20.65-15.75c-2.1-1.05-18.9-15.05-19.775-15.75
							C297.15,753.7,297.15,750.725,297.15,750.725z"/>
					</g>
					<g>
						<defs>
							<rect id="SVGID_125_" x="-11.2" y="8.375" width="759.5" height="996.625"/>
						</defs>
						<clipPath id="SVGID_126_">
							<use xlink:href="#SVGID_125_"  overflow="visible"/>
						</clipPath>
						
							<path opacity="0.3" clip-path="url(#SVGID_126_)" fill="none" stroke="#8B6D6C" stroke-miterlimit="10" enable-background="new    " d="
							M240.625,386.725c0,0,15.925,3.85,104.65,0c88.725-3.85,100.45-15.75,100.45-15.75"/>
					</g>
					<g>
						<defs>
							<rect id="SVGID_127_" x="-11.2" y="8.375" width="759.5" height="996.625"/>
						</defs>
						<clipPath id="SVGID_128_">
							<use xlink:href="#SVGID_127_"  overflow="visible"/>
						</clipPath>
						
							<path opacity="0.3" clip-path="url(#SVGID_128_)" fill="none" stroke="#8B6D6C" stroke-miterlimit="10" enable-background="new    " d="
							M257.95,398.625c18.55,0,24.675,9.275,82.425,3.675c57.75-5.6,76.3-10.675,76.3-10.675"/>
					</g>
				</g>
			</g>
		</g>
	</g>
</g>
</svg>
