<?xml version="1.0" encoding="utf-8"?>
<!-- Generator: Adobe Illustrator 18.0.0, SVG Export Plug-In . SVG Version: 6.00 Build 0)  -->
<!DOCTYPE svg PUBLIC "-//W3C//DTD SVG 1.1//EN" "http://www.w3.org/Graphics/SVG/1.1/DTD/svg11.dtd">
<svg version="1.1" id="Layer_1" xmlns="http://www.w3.org/2000/svg" xmlns:xlink="http://www.w3.org/1999/xlink" x="0px" y="0px"
	 viewBox="0 0 200 80" enable-background="new 0 0 200 80" xml:space="preserve">
<g>
	<g>
		<path fill="#B5B4B5" d="M8.4,48.2c0,0,1.6,3.8,1.5,4.4c-0.1,0.7,0,3.7,0,3.7s0.2,0.6,1.4,1.3c1.2,0.7,8,4,8.2,4.3
			c0.2,0.3,5.4,2.9,5.4,2.9h151.5c0,0,7.4-0.8,11.3-3.3c3.9-2.5,3.9-2.5,3.9-2.5l0.1-0.6l0.5-4l0.7-5.1c0,0,0.1-0.2,0-0.6h-20.7
			l-3.8-1.5H35.3L26,40.7H12.9l-4,3.7c0,0-0.6,0.9-0.6,1.9C8.4,47.2,8.4,48.2,8.4,48.2z"/>
		<path fill="#CCCBCB" d="M12.9,34.8c0,2.1,0,4.3,0,5.3c0,0.4,0,0.6,0,0.6H26l9.3,6.4h133.1l3.8,1.5h20.7c-0.1-0.4-0.4-0.9-1.1-1.6
			c-1.4-1.4-2.2-2.3-2.2-2.3s-2.5-5.9-9.2-8.2c-6.8-2.3-35.9-7.8-40.8-8.1c0,0-2.5-0.6-5-2.2c-2.5-1.6-18.4-11.1-25.1-13.1
			c-6.8-2-15.7-3.8-17.3-3.9c-1.6-0.1-1.6-0.1-1.6-0.1H62.9c0,0-14.1,0.7-19.2,1.8c0,0-20,10.2-28.6,16.9c0,0-2.1,0.8-2.2,2
			C12.9,30.3,12.9,32.5,12.9,34.8z"/>
		<path fill="#FFFFFF" d="M84.2,11l3.9,18.5v0.8l47.5,2.7c-0.1-0.7-0.8-1.8-3.7-5.2c-4.5-5.3-26.1-14.3-31.7-15.5
			C94.5,11.1,84.2,11,84.2,11z"/>
		<path fill="#CCCBCB" d="M88.1,30.3v30.4h47.4c0,0,0-25.2,0-26.5c0-0.5,0.1-0.8,0.1-1.1L88.1,30.3z"/>
		<path fill="#F3F3F3" d="M44.7,27.8l43.4,2.5v-0.8L84.2,11H67.8c0,0-11.4,2-16,6C47.7,20.7,45.7,24.8,44.7,27.8z"/>
		<path fill="#CCCBCB" d="M43,41.4c0,0,8.1,3.3,10.3,8.2c2.3,4.9,3,11.1,3,11.1h31.7V30.3l-43.4-2.5c-0.1,0.3-0.2,0.6-0.3,0.9
			C43.4,31.8,43.3,39,43,41.4z"/>
		<path fill="#4E4D4D" d="M143.9,56.3v8.1h32c0,0,0,0,0,0v-8.1c0,0-0.4-4.6-4.2-8.1c-2.4-2.2-6.1-4-11.8-4c-4.3,0-7.5,1-9.8,2.5
			C144.5,50.3,143.9,56.3,143.9,56.3z"/>
		<path fill="#4E4D4D" d="M20.9,55v7.7c1.5,0.8,3.5,1.8,3.5,1.8h28.5V55c0,0-0.4-4.7-4.4-8.2c-2.4-2.1-6-3.8-11.6-3.8
			c-2.5,0-4.6,0.3-6.3,0.9C21.7,46.6,20.9,55,20.9,55z"/>
		<path fill="#4E4D4D" d="M130.3,30.4c0,0-0.6,0.8-4.6,1.1c-4,0.3-4.6-1.9-4.6-1.9s-0.1-1.2,0-2.7c0.1-1.4,2-2.1,2.9-2.2
			c4.9-0.7,6.2,4.9,6.2,4.9V30.4z"/>
		<path fill="#4E4D4D" d="M92.8,34.8c0,0.6,0.4,1,1,1h5.8c0.6,0,1-0.5,1-1l0,0c0-0.6-0.4-1-1-1h-5.8C93.2,33.8,92.8,34.3,92.8,34.8
			L92.8,34.8z"/>
		<path fill="#4E4D4D" d="M47.2,34.8c0,0.6,0.4,1,1,1h5.8c0.6,0,1-0.5,1-1l0,0c0-0.6-0.4-1-1-1h-5.8C47.7,33.8,47.2,34.3,47.2,34.8
			L47.2,34.8z"/>
		<path fill="#F3F3F3" d="M15.9,27.1c0.2,0.8,8.1-1.6,16-6.1c7.7-4.4,12.7-10,12.9-10.2c-0.5,0.1-0.9,0.2-1.2,0.2
			C43.5,11,25,20.4,15.9,27.1z"/>
		<g>
			<path fill="#1D2221" d="M23.3,58.8c0,7.8,6.3,14.1,14.1,14.1c5.1,0,9.5-2.7,12-6.7c1.3-2.2,2.1-4.7,2.1-7.4
				c0-2.7-0.8-5.2-2.1-7.4c-0.8-1.3-1.9-2.5-3.1-3.5c-2.4-2-5.6-3.2-9-3.2c-3.4,0-6.5,1.2-9,3.2C25.3,50.5,23.3,54.4,23.3,58.8z
				 M26.5,58.8c0-6,4.9-10.9,10.9-10.9s10.9,4.9,10.9,10.9c0,6-4.9,10.9-10.9,10.9S26.5,64.8,26.5,58.8z"/>
			<path fill="#4E4D4D" d="M26.5,58.8c0,6,4.9,10.9,10.9,10.9s10.9-4.9,10.9-10.9c0-6-4.9-10.9-10.9-10.9S26.5,52.8,26.5,58.8z
				 M27.5,58.4c0.2-5.5,4.9-9.7,10.4-9.5c5.5,0.2,9.7,4.9,9.5,10.4c-0.3,5.5-4.9,9.7-10.4,9.5C31.5,68.5,27.2,63.8,27.5,58.4z"/>
			<path fill="#4E4D4D" d="M27.5,58.4c-0.2,5.5,4,10.1,9.5,10.4c5.5,0.3,10.1-4,10.4-9.5c0.2-5.5-4-10.1-9.5-10.4
				C32.4,48.6,27.7,52.9,27.5,58.4z M28.6,55.7l6.2,1.5L34.3,59l-6-2.2C28.4,56.5,28.5,56.1,28.6,55.7z M35.3,49.7l-0.5,4.7
				l-1.2,0.9l-4.4-0.9C30.5,52.1,32.7,50.4,35.3,49.7z M36.1,58.4c-0.1,0.2-0.3,0.3-0.5,0.2c-0.2-0.1-0.3-0.3-0.2-0.5
				c0.1-0.2,0.3-0.3,0.5-0.2C36.1,58,36.2,58.2,36.1,58.4z M36.1,59.9c0.1-0.2,0.4-0.2,0.5-0.1c0.2,0.1,0.2,0.3,0.1,0.5
				c-0.1,0.2-0.3,0.2-0.5,0.1C36,60.3,36,60.1,36.1,59.9z M38.1,55.9h-1.9l0.2-6.4c0.4,0,0.8,0,1.2,0L38.1,55.9z M37.4,56.7
				c0.2,0,0.4,0.2,0.4,0.4c0,0.2-0.2,0.4-0.4,0.4c-0.2,0-0.4-0.2-0.4-0.4C37,56.9,37.2,56.7,37.4,56.7z M38.6,58.8
				c0,0.7-0.5,1.2-1.2,1.2c-0.6,0-1.2-0.5-1.2-1.2c0-0.6,0.5-1.2,1.2-1.2C38,57.6,38.6,58.2,38.6,58.8z M38.2,59.9
				c0.2-0.1,0.4-0.1,0.5,0.1c0.1,0.2,0.1,0.4-0.1,0.5c-0.2,0.1-0.4,0.1-0.5-0.1C38,60.2,38,60,38.2,59.9z M38.9,57.9
				c0.2-0.1,0.4,0,0.5,0.2c0.1,0.2,0,0.4-0.2,0.5c-0.2,0.1-0.4,0-0.5-0.2C38.6,58.2,38.7,58,38.9,57.9z M45.3,54l-4.6,0.9l-1.3-0.8
				L39,49.7C41.7,50.1,44,51.8,45.3,54z M46.3,56.1l-5.9,2.4l-0.6-1.8l6.1-1.7C45.9,55.1,46.2,55.8,46.3,56.1z M42.1,60.8l0.4-1.5
				l4.1-1.8c0.1,0.5,0.1,1.1,0.1,1.7c-0.1,2.2-0.9,4.1-2.3,5.7L42.1,60.8z M42.7,66.4l-4.1-4.9l1.5-1.1l3.5,5.3
				C43.3,66,43,66.2,42.7,66.4z M33.8,67.4l3.2-3.5l1.5-0.1l3,3.3c-1.3,0.7-2.9,1-4.5,0.9C35.9,68,34.8,67.8,33.8,67.4z M31.8,66.2
				l3.4-5.5l1.5,1.1l-3.9,5C32.4,66.6,32.1,66.4,31.8,66.2z M28.1,58.4c0-0.1,0-0.3,0-0.4l4.3,2l0.5,1.4l-2.2,3.9
				C29,63.5,28,61,28.1,58.4z"/>
			<g>
				<path fill="#F4F4F4" d="M37,57.1c0,0.2,0.2,0.4,0.4,0.4c0.2,0,0.4-0.2,0.4-0.4c0-0.2-0.2-0.4-0.4-0.4C37.2,56.7,37,56.9,37,57.1
					z"/>
				<path fill="#F4F4F4" d="M35.4,58.2c-0.1,0.2,0,0.4,0.2,0.5c0.2,0.1,0.4,0,0.5-0.2c0.1-0.2,0-0.4-0.2-0.5
					C35.7,57.9,35.5,58,35.4,58.2z"/>
				<path fill="#F4F4F4" d="M36.2,60.5c0.2,0.1,0.4,0.1,0.5-0.1c0.1-0.2,0.1-0.4-0.1-0.5c-0.2-0.1-0.4-0.1-0.5,0.1
					C36,60.1,36,60.3,36.2,60.5z"/>
				<path fill="#F4F4F4" d="M38.1,60.4c0.1,0.2,0.3,0.2,0.5,0.1c0.2-0.1,0.2-0.3,0.1-0.5c-0.1-0.2-0.3-0.2-0.5-0.1
					C38,60,38,60.2,38.1,60.4z"/>
				<path fill="#F4F4F4" d="M38.6,58.4c0.1,0.2,0.3,0.3,0.5,0.2c0.2-0.1,0.3-0.3,0.2-0.5c-0.1-0.2-0.3-0.3-0.5-0.2
					C38.7,58,38.6,58.2,38.6,58.4z"/>
				<path fill="#F4F4F4" d="M36.2,58.8c0,0.7,0.5,1.2,1.2,1.2c0.7,0,1.2-0.5,1.2-1.2c0-0.6-0.5-1.2-1.2-1.2
					C36.8,57.6,36.2,58.2,36.2,58.8z"/>
			</g>
			<g>
				<path fill="#F4F4F4" d="M38.5,61.5l4.1,4.9c0.3-0.2,0.6-0.5,0.9-0.7L40,60.4L38.5,61.5z"/>
				<path fill="#F4F4F4" d="M40.4,58.6l5.9-2.4c-0.1-0.4-0.4-1.1-0.4-1.1"/>
				<path fill="#F4F4F4" d="M36.2,55.9h1.9l-0.5-6.4c-0.4,0-0.8,0-1.2,0L36.2,55.9z"/>
				<path fill="#F4F4F4" d="M28.6,55.7c-0.1,0.4-0.2,0.7-0.3,1.1l6,2.2"/>
				<path fill="#F4F4F4" d="M31.8,66.2c0.3,0.2,0.6,0.4,1,0.6l3.9-5l-1.5-1.1L31.8,66.2z"/>
				<path fill="#F4F4F4" d="M28.1,58.4C28,61,29,63.5,30.7,65.2l2.2-3.9L32.4,60l-4.3-2C28.1,58.1,28.1,58.3,28.1,58.4z"/>
				<path fill="#F4F4F4" d="M33.8,67.4c1,0.4,2.1,0.7,3.2,0.7c1.6,0.1,3.1-0.3,4.5-0.9l-3-3.3L37,63.9L33.8,67.4z"/>
				<path fill="#F4F4F4" d="M42.1,60.8l2.3,4.1c1.3-1.5,2.2-3.5,2.3-5.7c0-0.6,0-1.1-0.1-1.7l-4.1,1.8L42.1,60.8z"/>
				<path fill="#F4F4F4" d="M39,49.7l0.4,4.4l1.3,0.8l4.6-0.9C44,51.8,41.7,50.1,39,49.7z"/>
				<path fill="#F4F4F4" d="M35.3,49.7c-2.6,0.6-4.8,2.3-6.1,4.7l4.4,0.9"/>
			</g>
		</g>
		<g>
			<path fill="#1D2221" d="M146.3,60.1c0,7.8,6.3,14.1,14.1,14.1c5.1,0,9.5-2.7,12-6.7c1.3-2.2,2.1-4.7,2.1-7.4
				c0-2.7-0.8-5.2-2.1-7.4c-0.8-1.3-1.9-2.5-3.1-3.5c-2.4-2-5.6-3.2-9-3.2c-3.4,0-6.5,1.2-9,3.2C148.3,51.8,146.3,55.8,146.3,60.1z
				 M149.5,60.1c0-6,4.9-10.9,10.9-10.9c6,0,10.9,4.9,10.9,10.9c0,6-4.9,10.9-10.9,10.9C154.4,71,149.5,66.2,149.5,60.1z"/>
			<path fill="#4E4D4D" d="M149.5,60.1c0,6,4.9,10.9,10.9,10.9c6,0,10.9-4.9,10.9-10.9c0-6-4.9-10.9-10.9-10.9
				C154.4,49.3,149.5,54.1,149.5,60.1z M150.5,59.7c0.3-5.5,4.9-9.7,10.4-9.5c5.5,0.2,9.7,4.9,9.5,10.4c-0.3,5.5-4.9,9.7-10.4,9.5
				C154.5,69.8,150.2,65.2,150.5,59.7z"/>
			<path fill="#4E4D4D" d="M150.5,59.7c-0.2,5.5,4,10.1,9.5,10.4c5.5,0.2,10.1-4,10.4-9.5c0.2-5.5-4-10.1-9.5-10.4
				C155.3,50,150.7,54.2,150.5,59.7z M151.6,57.1l6.2,1.5l-0.6,1.8l-6-2.2C151.4,57.8,151.5,57.4,151.6,57.1z M158.3,51.1l-0.5,4.7
				l-1.2,0.9l-4.4-0.9C153.4,53.4,155.7,51.7,158.3,51.1z M159.1,59.7c-0.1,0.2-0.3,0.3-0.5,0.2c-0.2-0.1-0.3-0.3-0.2-0.5
				c0.1-0.2,0.3-0.3,0.5-0.2C159.1,59.3,159.2,59.5,159.1,59.7z M159.1,61.3c0.1-0.2,0.4-0.2,0.5-0.1c0.2,0.1,0.2,0.3,0.1,0.5
				c-0.1,0.2-0.3,0.2-0.5,0.1C159,61.7,159,61.5,159.1,61.3z M161.1,57.3h-1.9l0.2-6.4c0.4,0,0.8,0,1.2,0L161.1,57.3z M160.4,58.1
				c0.2,0,0.4,0.2,0.4,0.4c0,0.2-0.2,0.4-0.4,0.4c-0.2,0-0.4-0.2-0.4-0.4C160,58.3,160.2,58.1,160.4,58.1z M161.5,60.1
				c0,0.7-0.5,1.2-1.2,1.2c-0.6,0-1.2-0.5-1.2-1.2c0-0.6,0.5-1.2,1.2-1.2C161,59,161.5,59.5,161.5,60.1z M161.2,61.2
				c0.2-0.1,0.4-0.1,0.5,0.1c0.1,0.2,0.1,0.4-0.1,0.5c-0.2,0.1-0.4,0.1-0.5-0.1C160.9,61.6,161,61.3,161.2,61.2z M161.9,59.3
				c0.2-0.1,0.4,0,0.5,0.2c0.1,0.2,0,0.4-0.2,0.5c-0.2,0.1-0.4,0-0.5-0.2C161.6,59.5,161.7,59.3,161.9,59.3z M168.3,55.3l-4.6,0.9
				l-1.3-0.8L162,51C164.7,51.5,167,53.1,168.3,55.3z M169.3,57.5l-5.9,2.4l-0.6-1.8l6.1-1.7C168.9,56.4,169.2,57.1,169.3,57.5z
				 M165.1,62.1l0.4-1.5l4.1-1.8c0.1,0.5,0.1,1.1,0.1,1.7c-0.1,2.2-0.9,4.1-2.3,5.7L165.1,62.1z M165.7,67.8l-4.1-4.9l1.5-1.1
				l3.5,5.3C166.3,67.3,166,67.6,165.7,67.8z M156.8,68.7l3.2-3.5l1.5-0.1l3,3.3c-1.3,0.7-2.9,1-4.5,0.9
				C158.8,69.4,157.8,69.1,156.8,68.7z M154.7,67.5l3.4-5.5l1.5,1.1l-3.9,5C155.4,68,155,67.8,154.7,67.5z M151.1,59.7
				c0-0.1,0-0.3,0-0.4l4.3,2l0.5,1.4l-2.2,3.9C152,64.8,151,62.4,151.1,59.7z"/>
			<g>
				<g>
					<circle fill="#F4F4F4" cx="160.4" cy="58.5" r="0.4"/>
					<path fill="#F4F4F4" d="M158.4,59.5c-0.1,0.2,0,0.4,0.2,0.5c0.2,0.1,0.4,0,0.5-0.2c0.1-0.2,0-0.4-0.2-0.5
						C158.7,59.2,158.5,59.3,158.4,59.5z"/>
					<path fill="#F4F4F4" d="M159.2,61.8c0.2,0.1,0.4,0.1,0.5-0.1c0.1-0.2,0.1-0.4-0.1-0.5c-0.2-0.1-0.4-0.1-0.5,0.1
						C159,61.5,159,61.7,159.2,61.8z"/>
					<path fill="#F4F4F4" d="M161.1,61.7c0.1,0.2,0.3,0.2,0.5,0.1c0.2-0.1,0.2-0.3,0.1-0.5c-0.1-0.2-0.3-0.2-0.5-0.1
						C161,61.3,160.9,61.6,161.1,61.7z"/>
					<path fill="#F4F4F4" d="M161.6,59.7c0.1,0.2,0.3,0.3,0.5,0.2c0.2-0.1,0.3-0.3,0.2-0.5c-0.1-0.2-0.3-0.3-0.5-0.2
						C161.7,59.3,161.6,59.5,161.6,59.7z"/>
					<path fill="#F4F4F4" d="M159.2,60.1c0,0.7,0.5,1.2,1.2,1.2c0.7,0,1.2-0.5,1.2-1.2c0-0.6-0.5-1.2-1.2-1.2
						C159.7,59,159.2,59.5,159.2,60.1z"/>
				</g>
				<g>
					<path fill="#F4F4F4" d="M161.5,62.9l4.1,4.9c0.3-0.2,0.6-0.5,0.9-0.7l-3.5-5.3L161.5,62.9z"/>
					<path fill="#F4F4F4" d="M162.8,58.1l0.6,1.8l5.9-2.4c-0.1-0.4-0.4-1.1-0.4-1.1L162.8,58.1z"/>
					<path fill="#F4F4F4" d="M159.2,57.3h1.9l-0.5-6.4c-0.4,0-0.8,0-1.2,0L159.2,57.3z"/>
					<path fill="#F4F4F4" d="M151.3,58.2l6,2.2l0.6-1.8l-6.2-1.5C151.5,57.4,151.4,57.8,151.3,58.2z"/>
					<path fill="#F4F4F4" d="M154.7,67.5c0.3,0.2,0.6,0.4,1,0.6l3.9-5l-1.5-1.1L154.7,67.5z"/>
					<path fill="#F4F4F4" d="M151.1,59.7c-0.1,2.7,0.9,5.1,2.6,6.9l2.2-3.9l-0.5-1.4l-4.3-2C151.1,59.5,151.1,59.6,151.1,59.7z"/>
					<path fill="#F4F4F4" d="M156.8,68.7c1,0.4,2.1,0.7,3.2,0.7c1.6,0.1,3.1-0.3,4.5-0.9l-3-3.3l-1.5,0.1L156.8,68.7z"/>
					<path fill="#F4F4F4" d="M165.1,62.1l2.3,4.1c1.3-1.5,2.2-3.5,2.3-5.7c0-0.6,0-1.1-0.1-1.7l-4.1,1.8L165.1,62.1z"/>
					<path fill="#F4F4F4" d="M162,51l0.4,4.4l1.3,0.8l4.6-0.9C167,53.1,164.7,51.5,162,51z"/>
					<path fill="#F4F4F4" d="M152.2,55.8l4.4,0.9l1.2-0.9l0.5-4.7C155.7,51.7,153.4,53.4,152.2,55.8z"/>
				</g>
			</g>
		</g>
	</g>
	<g>
		<path fill="none" stroke="#D0636A" stroke-width="2" stroke-miterlimit="10" d="M14.6,30.7c0.2-0.3,2.8-1.1,5.1-1.8
			c2.1-0.6,4.1-1.1,4.1-1.1"/>
		<line fill="none" stroke="#D0636A" stroke-width="2" stroke-miterlimit="10" x1="19.8" y1="28.9" x2="22.5" y2="43.5"/>
		<polyline fill="none" stroke="#D0636A" stroke-width="2" stroke-miterlimit="10" points="24.6,30.7 28.6,40.2 30.2,31.5 
			33.8,37.7 34.3,26.6 		"/>
		<polyline fill="none" stroke="#D0636A" stroke-width="2" stroke-miterlimit="10" points="37.2,34.5 38.1,31.7 40.2,25.1 
			42.9,29.8 44.5,32.5 		"/>
		<line fill="none" stroke="#D0636A" stroke-width="2" stroke-miterlimit="10" x1="38.1" y1="31.7" x2="42.9" y2="29.8"/>
		<line fill="none" stroke="#D0636A" stroke-width="2" stroke-miterlimit="10" x1="45.9" y1="21.6" x2="52.1" y2="18.7"/>
		<line fill="none" stroke="#D0636A" stroke-width="2" stroke-miterlimit="10" x1="49.9" y1="29.8" x2="49" y2="20.1"/>
	</g>
	<g>
		<path fill="none" stroke="#000000" stroke-width="2" stroke-miterlimit="10" d="M69.8,36.4c0,0-14-1.9-8.6,8.2s10.9-2.7,10.9-2.7"
			/>
		<path fill="none" stroke="#000000" stroke-width="2" stroke-miterlimit="10" d="M77,37.4c0,0-4.5,13.3,4.7,7.6
			c0,0,3.9-1.7,2.5-4.8s-1.5-3.8-4-4.2C78.1,35.6,77.3,36.6,77,37.4z"/>
		<path fill="none" stroke="#67558D" stroke-width="3" stroke-miterlimit="10" d="M88.8,38.4c0,0-3.2,1.6-2.3,4.6s2.7,5.2,5.1,3.9
			c2.4-1.3,4.8-4.9,3.5-7.2c-1.3-2.2-0.7-2.4-2.9-2.2C90.1,37.7,88.8,38.4,88.8,38.4z"/>
		<polyline fill="none" stroke="#000000" stroke-width="2" stroke-miterlimit="10" points="98.5,36.8 98.4,41.4 98.3,47.4 
			98.9,41.1 99,41.1 104.9,36.8 99,41.7 105.1,47.4 		"/>
		<path fill="none" stroke="#000000" stroke-width="2" stroke-miterlimit="10" d="M78.8,55.4c0,0,3.1-0.7,4.6-2.5s1-3.3-0.3-3.8
			c-1.3-0.5-1.3-0.4-2.3-0.4c-1.1,0.1-2,0.4-2,0.4h-0.5v6.2v6.9"/>
		<path fill="none" stroke="#67558D" stroke-width="3" stroke-miterlimit="10" d="M88.2,48.7l-3.8,10.8L88.2,48.7z"/>
		<path fill="none" stroke="#67558D" stroke-width="3" stroke-miterlimit="10" d="M92.2,58c0-0.1-0.7-1.7-1.5-3.6
			c-1.2-2.6-2.6-5.8-2.6-5.8l-1.8,6.2l4-0.3"/>
		<path fill="none" stroke="#000000" stroke-width="2" stroke-miterlimit="10" d="M96.4,48.7c0,0-5.7,1-3.2,3.6
			c2.6,2.6,5.5,3.3,4.2,4.7c-1.3,1.4-3.9,1.7-3.9,1.7"/>
		<path fill="none" stroke="#000000" stroke-width="2" stroke-miterlimit="10" d="M101.7,49.8c0,0-2.5-0.2-2.6,1.2
			c-0.1,1.4,1.3,2,2.9,3.6c1.6,1.6,3.1,4.9,0.8,4.9c-2.3,0-3.7-0.3-3.7-0.3"/>
		<path fill="none" stroke="#67558D" stroke-width="3" stroke-miterlimit="10" d="M108.8,43l0.9,14.5c0,0,2.7,0.7,4.3-0.9
			c1.5-1.6,3-4.1,1-5.5c-2-1.4-5.3-1.5-5.3-1.5s7.2-1.1,6.3-3.4c-0.9-2.3-2.4-2.6-3.8-3.1C110.7,42.4,108.8,43,108.8,43z"/>
		<path fill="none" stroke="#67558D" stroke-width="3" stroke-miterlimit="10" d="M123,42.9l3,13.2c0,0,2.6,0.3,3.8-1.5
			c1.2-1.8,2.1-4.2,0.1-5.2c-2.1-1-5.1-0.6-5.1-0.6s6.5-2.1,5.3-4.1c-1.2-2-2.6-2-4-2.3C124.7,42.1,123,42.9,123,42.9z"/>
		<path fill="none" stroke="#000000" stroke-width="2" stroke-miterlimit="10" d="M119.5,42.7L117,56.2L119.5,42.7z"/>
		<polyline fill="none" stroke="#000000" stroke-width="2" stroke-miterlimit="10" points="123.4,54.6 122,50.4 119.5,43 
			118.7,50.8 121.6,50.6 		"/>
		<polyline fill="none" stroke="#000000" stroke-width="2" stroke-miterlimit="10" points="129.5,40.5 137.8,39.7 133.6,40.5 
			135.5,51.3 		"/>
		<path fill="none" stroke="#000000" stroke-width="2" stroke-miterlimit="10" d="M143,51.6l-2.7-13.3c0,0,7.1-1.6,5.9,1.8
			c-1.2,3.4-4.4,4.7-4.4,4.7l3-1.3l3.5,2.7"/>
		<line fill="none" stroke="#000000" stroke-width="2" stroke-miterlimit="10" x1="148.9" y1="37.3" x2="151" y2="43.4"/>
		<path fill="none" stroke="#000000" stroke-width="2" stroke-miterlimit="10" d="M153.4,37.3l2.9,5.7c0,0,2.5,0.5,2.9-1.4
			s0.6-2.2-0.7-3.2S153.4,37.3,153.4,37.3z"/>
		<path fill="none" stroke="#000000" stroke-width="2" stroke-miterlimit="10" d="M167,39.3c0,0-2.5-2.1-3.3-0.9
			c-0.8,1.2-0.7,5.8,2,5.8c2.8-0.1,3.6,1.2,3.1-0.6c-0.5-1.8-2.4-1.9-2.4-1.9l3,0.1"/>
		<polyline fill="none" stroke="#000000" stroke-width="2" stroke-miterlimit="10" points="175.8,41 171.8,40.3 171.8,46.4 
			174.4,48.1 		"/>
		<line fill="none" stroke="#000000" stroke-width="2" stroke-miterlimit="10" x1="174.7" y1="43.8" x2="172.1" y2="43.1"/>
	</g>
</g>
</svg>
