<svg xmlns="http://www.w3.org/2000/svg" viewBox="0 0 133.17 133.17"><title>chainring</title><path d="M73.52 53.83a5.72 5.72 0 0 1-2.79-3.92l-3-15.84a32.36 32.36 0 0 0-9.94 1.18l.5 15.85a5.73 5.73 0 0 1-6.5 5.9l-15.55-2.2A32.41 32.41 0 0 0 34 65.28l15.11 4.21a5.73 5.73 0 0 1 3.64 8l-6.81 14.37a32.36 32.36 0 0 0 8.59 5.06l9.12-13.43a5.73 5.73 0 0 1 8.68-.94L84.4 94a32.7 32.7 0 0 0 7.4-6.63L81.61 74.19a5.73 5.73 0 0 1 1.79-8.55l14.55-7.93a32.7 32.7 0 0 0-4.16-9l-15.48 5.54a5.72 5.72 0 0 1-4.79-.42z" fill="#ccc"/><path d="M79.41 1.58l-3 2.48a.94.94 0 0 1-1.39-.21L73 .63A.94.94 0 0 0 71.48.5l-2.63 2.82a.94.94 0 0 1-1.41 0L65 .33a.94.94 0 0 0-1.48.05L61.21 3.5a.94.94 0 0 1-1.4.13L57 1a.94.94 0 0 0-1.46.23l-1.89 3.38a.94.94 0 0 1-1.37.3l-3.13-2.26a.94.94 0 0 0-1.42.41l-1.46 3.57a.94.94 0 0 1-1.33.47l-3.37-1.88a.94.94 0 0 0-1.36.57l-1 3.72a.94.94 0 0 1-1.26.62l-3.59-1.44a.94.94 0 0 0-1.28.73l-.56 3.82a.94.94 0 0 1-1.18.77l-3.72-1a.94.94 0 0 0-1.19.88l-.1 3.86a.94.94 0 0 1-1.08.91l-3.82-.56a.94.94 0 0 0-1.07 1l.37 3.84a.94.94 0 0 1-1 1l-3.86-.1A.94.94 0 0 0 15 25l.83 3.77a.94.94 0 0 1-.83 1.15l-3.84.37a.94.94 0 0 0-.8 1.25l1.28 3.64a.94.94 0 0 1-.68 1.23l-3.77.83a.94.94 0 0 0-.64 1.33L8.24 42a.94.94 0 0 1-.53 1.3l-3.64 1.32A.94.94 0 0 0 3.6 46l2.11 3.23a.94.94 0 0 1-.37 1.36l-3.46 1.72a.94.94 0 0 0-.3 1.45l3.17 3.76-4.12 2.7a.94.94 0 0 0-.13 1.47l2.82 2.63a.94.94 0 0 1 0 1.41l-3 2.48a.94.94 0 0 0 .05 1.48L3.5 72a.94.94 0 0 1 .13 1.4L1 76.19a.94.94 0 0 0 .23 1.46l3.37 1.88a.94.94 0 0 1 .3 1.37L2.65 84a.94.94 0 0 0 .41 1.42l3.57 1.48a.94.94 0 0 1 .47 1.33L5.22 91.6A.94.94 0 0 0 5.8 93l3.72 1a.94.94 0 0 1 .62 1.26l-1.45 3.55a.94.94 0 0 0 .73 1.28l3.82.56a.94.94 0 0 1 .77 1.18l-1 3.72a.94.94 0 0 0 .88 1.19l3.86.1a.94.94 0 0 1 .91 1.08l-.56 3.82a.94.94 0 0 0 1 1.07l3.84-.37a.94.94 0 0 1 1 1l-.1 3.86a.94.94 0 0 0 1.14.94l3.77-.83a.94.94 0 0 1 1.14.83l.37 3.84a.94.94 0 0 0 1.25.8l3.64-1.28a.94.94 0 0 1 1.23.68l.83 3.77a.94.94 0 0 0 1.33.64l3.46-1.75a.94.94 0 0 1 1.3.53l1.28 3.64a.94.94 0 0 0 1.4.47l3.23-2.11a.94.94 0 0 1 1.36.37l1.71 3.46a.94.94 0 0 0 1.45.3l3-2.48a.94.94 0 0 1 1.39.21l2.11 3.23a.94.94 0 0 0 1.47.13l2.63-2.82a.94.94 0 0 1 1.41 0l2.48 3a.94.94 0 0 0 1.48-.05l2.3-3.15a.94.94 0 0 1 1.4-.13l2.82 2.63a.94.94 0 0 0 1.46-.23l1.88-3.37a.94.94 0 0 1 1.37-.3l3.07 2.25a.94.94 0 0 0 1.42-.41l1.45-3.57a.94.94 0 0 1 1.33-.47l3.37 1.87a.94.94 0 0 0 1.36-.57l1-3.72a.94.94 0 0 1 1.26-.62l3.57 1.45a.94.94 0 0 0 1.28-.73l.56-3.82a.94.94 0 0 1 1.18-.77l3.72 1a.94.94 0 0 0 1.19-.88l.1-3.86a.94.94 0 0 1 1.08-.91l3.82.56a.94.94 0 0 0 1.07-1l-.37-3.84a.94.94 0 0 1 1-1l3.86.1a.94.94 0 0 0 .94-1.14l-.83-3.77a.94.94 0 0 1 .83-1.14l3.84-.37a.94.94 0 0 0 .8-1.25L121.56 98a.94.94 0 0 1 .68-1.23l3.77-.83a.94.94 0 0 0 .64-1.33l-1.71-3.46a.94.94 0 0 1 .53-1.3l3.64-1.28a.94.94 0 0 0 .47-1.4l-2.7-4.17 4.41-2.18a.94.94 0 0 0 .3-1.45l-2.48-3a.94.94 0 0 1 .21-1.39l3.22-1.98a.94.94 0 0 0 .13-1.47l-2.82-2.63a.94.94 0 0 1 0-1.41l3-2.48a.94.94 0 0 0-.05-1.48l-3.12-2.27a.94.94 0 0 1-.13-1.4l2.61-2.86a.94.94 0 0 0-.23-1.46l-3.37-1.88a.94.94 0 0 1-.3-1.37l2.27-3.12a.94.94 0 0 0-.41-1.42l-3.57-1.45a.94.94 0 0 1-.47-1.33l1.87-3.37a.94.94 0 0 0-.57-1.36l-3.72-1a.94.94 0 0 1-.62-1.26l1.45-3.57a.94.94 0 0 0-.73-1.28l-3.82-.56a.94.94 0 0 1-.77-1.18l1-3.72a.94.94 0 0 0-.88-1.19l-3.86-.1a.94.94 0 0 1-.91-1.08l.56-3.82a.94.94 0 0 0-1-1.07l-3.84.37a.94.94 0 0 1-1-1l.1-3.86a.94.94 0 0 0-1.14-.94l-3.77.83a.94.94 0 0 1-1.14-.83l-.37-3.84a.94.94 0 0 0-1.25-.8L98 11.62a.94.94 0 0 1-1.23-.68l-.83-3.77a.94.94 0 0 0-1.33-.64l-3.47 1.71a.94.94 0 0 1-1.3-.53l-1.29-3.64a.94.94 0 0 0-1.4-.47l-3.22 2.11a.94.94 0 0 1-1.36-.37l-1.71-3.46a.94.94 0 0 0-1.45-.3zm47.89 77.69a62 62 0 1 1-48-73.4 62 62 0 0 1 48 73.4z" fill="#ccc"/><path d="M4.18 53.55A63.75 63.75 0 1 0 79.62 4.18 63.75 63.75 0 0 0 4.18 53.55zm23.74 5.29a2.55 2.55 0 1 1 2 3 2.55 2.55 0 0 1-2-3zM51 97.74a2.55 2.55 0 1 1-2-3 2.55 2.55 0 0 1 2 3zm41.81-4.2a2.55 2.55 0 1 1-2-3 2.55 2.55 0 0 1 1.98 3zm8.64-41.35a2.55 2.55 0 1 1-2-3 2.55 2.55 0 0 1 1.97 3zm-4.87 20.66a30.64 30.64 0 1 1-23.73-36.26 30.64 30.64 0 0 1 23.73 36.26zM65 31.84a2.55 2.55 0 1 1-2-3 2.55 2.55 0 0 1 2 3z" fill="#ddd"/><circle cx="98.93" cy="51.67" r="2.55" transform="translate(28.12 137.94) rotate(-78.2)" fill="none" stroke="#595f72" stroke-miterlimit="10" stroke-width="1.5"/><circle cx="62.53" cy="31.32" r="2.55" transform="translate(19.09 86.13) rotate(-78.2)" fill="none" stroke="#595f72" stroke-miterlimit="10" stroke-width="1.5"/><circle cx="30.42" cy="59.37" r="2.55" transform="translate(-33.91 77) rotate(-78.2)" fill="none" stroke="#595f72" stroke-miterlimit="10" stroke-width="1.5"/><circle cx="48.64" cy="97.83" r="2.55" transform="translate(-57.07 125.44) rotate(-78.2)" fill="none" stroke="#595f72" stroke-miterlimit="10" stroke-width="1.5"/><circle cx="90.29" cy="93.02" r="2.55" transform="translate(-19.22 162.38) rotate(-78.2)" fill="none" stroke="#595f72" stroke-miterlimit="10" stroke-width="1.5"/></svg>