<svg xmlns="http://www.w3.org/2000/svg" viewBox="0 0 115.08 37.24"><title>crankshaft</title><path d="M15.46 2.45a9.21 9.21 0 1 0-8.13 15.78 9.13 9.13 0 0 0 4.74-.23 4.71 4.71 0 0 1 2.35-.19l86.84 16.5a1.45 1.45 0 0 1 .81.47A7.46 7.46 0 1 0 104.51 23a1.45 1.45 0 0 1-.93.11L17.41 3.45a4.24 4.24 0 0 1-1.95-1z" fill="#bbb"/><circle cx="9.14" cy="9.2" r="6.38" transform="translate(-0.73 17.61) rotate(-85.61)" fill="#ccc"/><g fill="#636c7c"><circle cx="9.14" cy="13.45" r=".71"/><circle cx="9.14" cy="4.94" r=".71"/></g></svg>