<svg xmlns="http://www.w3.org/2000/svg" viewBox="0 0 39.69 24.02"><title>pedal</title><path d="M8.36 23.72l-2.3.28a3.33 3.33 0 0 1-3.72-2.27 3 3 0 0 1 .1-1.82l.65-1.7a3.15 3.15 0 0 0-.37-3L.29 11.82A1.68 1.68 0 0 1 .8 9.46l4.44-3.13A2 2 0 0 1 8 6.69l2.36 3.38 1.27 11.36z" fill="#333"/><path d="M6.63 9.34L6 14.93l1.64 1.48A3.14 3.14 0 0 1 8.7 19l-.34 4.74 7.45-2a27.75 27.75 0 0 0 9.27-4.44l13.08-9.65A3.35 3.35 0 0 0 39.08 3L38 1.46A3.88 3.88 0 0 0 33.84.15a3.83 3.83 0 0 0-3 3.52v1.07z" fill="#ccc"/><circle cx="12.11" cy="19.4" r=".71" fill="#636c7c"/></svg>