<svg id="Layer_1" xmlns="http://www.w3.org/2000/svg" xmlns:xlink="http://www.w3.org/1999/xlink" viewBox="0 0 405.4 405.4"><style>.st0,.st1{fill:none;stroke:#aaa;stroke-width:1.5;stroke-miterlimit:10}.st1{stroke-width:3}.st2{fill:#333}.st3{fill:#b7833d}.st4{fill:#222}.st5{clip-path:url(#SVGID_2_)}.st6{fill:#edde20}.st7{fill-rule:evenodd;clip-rule:evenodd;fill:#222}.st8{clip-path:url(#SVGID_4_)}.st9{clip-path:url(#SVGID_6_)}</style><path class="st0" d="M202 370.6v-25 25z"/><path class="st1" d="M202 374v-25 25z"/><path class="st2" d="M101.9 377.2c96.4 55.6 219.6 22.6 275.3-73.8s22.6-219.6-73.8-275.3S83.8 5.6 28.2 101.9 5.6 321.6 101.9 377.2zM300.7 33c93.7 54.1 125.9 174 71.7 267.7s-174 125.9-267.7 71.7-125.9-174-71.7-267.7S206.9-21.2 300.7 33z"/><path class="st3" d="M104.7 372.4c93.7 54.1 213.6 22 267.7-71.7s22-213.6-71.7-267.7S87.1 10.9 33 104.7s-22.1 213.6 71.7 267.7zm193-334.2c90.9 52.5 122 168.7 69.5 259.5s-168.7 122-259.5 69.5-122-168.7-69.5-259.5 168.6-122 259.5-69.5z"/><path class="st4" d="M43.2 264.2l27 46.8 31.7-16.6L73.3 245zM336.3 310.4l26.9-46.8-30.9-19.5-28.5 49.5zM174.7 69.4h57l-1.5-35.6h-54z"/><path class="st4" d="M73.3 245l28.6 49.4 91.7-48-33-56.9z"/><path class="st2" d="M303.8 293.6l28.5-49.5-86.4-54.7-32.8 57zM73.3 245l28.6 49.4 91.7-48-33-56.9zM174.7 69.4l-4.4 103.3 65.8-.1-4.4-103.2z"/><path class="st4" d="M169.9 183.6l-9.3 5.9 33 56.9 9.7-5.1 9.8 5.1 32.8-57-9.4-5.9-.4-10.9-65.8.1z"/><g><defs><path id="SVGID_1_" d="M101.9 294.5l91.6-47.8-32.9-56.9-87.2 55.4z"/></defs><clipPath id="SVGID_2_"><use xlink:href="#SVGID_1_" overflow="visible"/></clipPath><g class="st5"><path class="st6" d="M113.6 232.8l13.7 7.5-12.8 47.8-13.8-7.5z"/><path transform="matrix(-0.9659 -0.2588 0.2588 -0.9659 225.0972 588.0643)" class="st6" d="M126.6 254.6h49.3v49.3h-49.3z"/><path transform="matrix(0.2588 -0.9659 0.9659 0.2588 -42.3971 335.2878)" class="st6" d="M135.8 193.8h122.9v3H135.8z"/><path transform="matrix(0.2588 -0.9659 0.9659 0.2588 -52.9642 309.7767)" class="st6" d="M113.9 182.4h122.9v14H113.9z"/><path transform="matrix(0.2588 -0.9659 0.9659 0.2588 -46.3598 325.7211)" class="st6" d="M127.6 191.6h122.9v3H127.6z"/><path transform="matrix(0.2588 -0.9659 0.9659 0.2588 -59.5688 293.8317)" class="st6" d="M100.2 184.2h122.9v3H100.2z"/><path transform="matrix(0.2588 -0.9659 0.9659 0.2588 -63.5315 284.265)" class="st6" d="M92 182h122.9v3H92z"/><path class="st7" d="M113.8 280.8l-.7 2.7-8.8-4.2 1-4.1 5 1.1-4.3-3.8 1.1-4.1 8.9 4.3-.8 2.7-5.8-2.9 5.4 4.5-.6 2.2-6.4-1.2 6 2.8zM108.8 261.8l-.7 2.8 8 7.8.8-3-1.2-1.1.8-3 1.4.2.8-2.8-9.9-.9zm5.1 4.9l-2.4-2 2.8.3-.4 1.7zM119.8 257.9l-.8 3.3-9.6-1.6.7-2.8 5.5.9-4.8-3.8.7-3 8.3 7zM111.7 250.2l.8-2.9 8.9 4.3-.8 2.9-8.9-4.3zM117.5 241.8c-1.7-.5-3.1 2.3.3 3.7 3.4 1.4 4-1.8 1.9-2.8l.7-2.7c3.4 1.4 2.9 4.6 2.5 6-.5 1.4-1.9 4-6.1 2.4-4.2-1.6-3.5-5.7-3.2-6.4.3-.7 1.1-3.8 4.6-2.8l-.7 2.6z"/></g></g><g><defs><path id="SVGID_3_" d="M332.7 244l-87.2-55.4-32.8 57 91.6 47.8z"/></defs><clipPath id="SVGID_4_"><use xlink:href="#SVGID_3_" overflow="visible"/></clipPath><g class="st8"><path class="st6" d="M273.4 264.8l-.4-15.6 47.8-12.9.4 15.7z"/><path transform="matrix(0.2588 0.9659 -0.9659 0.2588 420.3128 -129.8403)" class="st6" d="M270.1 184.3h49.3v49.3h-49.3z"/><path transform="matrix(0.9659 -0.2588 0.2588 0.9659 -47.8485 58.7112)" class="st6" d="M137.6 209.6h122.9v3H137.6z"/><path transform="matrix(0.9659 -0.2588 0.2588 0.9659 -53.3184 60.9769)" class="st6" d="M143.5 226h122.9v14H143.5z"/><path transform="matrix(0.9659 -0.2588 0.2588 0.9659 -49.8997 59.5608)" class="st6" d="M139.8 217.8h122.9v3H139.8z"/><path transform="matrix(0.9659 -0.2588 0.2588 0.9659 -56.7372 62.393)" class="st6" d="M147.2 245.2h122.9v3H147.2z"/><path transform="matrix(0.9659 -0.2588 0.2588 0.9659 -58.7884 63.2427)" class="st6" d="M149.4 253.4h122.9v3H149.4z"/><path class="st7" d="M314.9 240.6l2.7-.8.7 9.8-4 1.1-1.6-4.8-1.1 5.6-4.1 1.1-.7-9.8 2.7-.7.4 6.5 1.2-7 2.1-.5 2.2 6.1-.5-6.6zM300.9 254.5l2.8-.8 2.7-10.8-3 .8-.3 1.5-3 .8-.5-1.3-2.8.8 4.1 9zm1.7-7l-.6 3.1-1.1-2.6 1.7-.5zM292 246.9l3.3-.9 3.4 9-2.8.9-2-5.3-.8 6.1-3 .8 1.9-10.6zM289.4 257.7l-2.9.8-.7-9.8 2.9-.8.7 9.8zM279.3 256.9c.4 1.7 3.5 1.5 3.1-2.1-.4-3.6-3.6-2.5-3.4-.3l-2.7.7c-.5-3.6 2.6-4.8 4-5.1 1.4-.3 4.4-.4 5.1 4.1.7 4.4-3.2 5.9-3.9 6-.8.1-3.8 1-4.7-2.6l2.5-.7z"/></g></g><g><defs><path id="SVGID_5_" d="M174.7 69.4l-4.4 103.3 65.8-.1-4.4-103.2z"/></defs><clipPath id="SVGID_6_"><use xlink:href="#SVGID_5_" overflow="visible"/></clipPath><g class="st9"><path class="st6" d="M222.4 110.4l-13.4 8.2-35-35.1 13.3-8.1z"/><path transform="matrix(0.7071 -0.7071 0.7071 0.7071 -36.9097 150.5587)" class="st6" d="M138.7 95.2H188v49.3h-49.3z"/><path transform="matrix(0.7071 -0.7071 0.7071 0.7071 -80.217 209.6599)" class="st6" d="M211.5 140.2h3v122.9h-3z"/><path transform="matrix(0.7071 -0.7071 0.7071 0.7071 -64.1801 216.3026)" class="st6" d="M222 124.2h14v122.9h-14z"/><path transform="matrix(0.7071 -0.7071 0.7071 0.7071 -74.2032 212.1509)" class="st6" d="M217.5 134.2h3v122.9h-3z"/><path transform="matrix(0.7071 -0.7071 0.7071 0.7071 -54.1566 220.4544)" class="st6" d="M237.5 114.2h3v122.9h-3z"/><path transform="matrix(0.7071 -0.7071 0.7071 0.7071 -48.1428 222.9454)" class="st6" d="M243.5 108.1h3V231h-3z"/><path class="st7" d="M180.6 86.6l-2-1.9 8.1-5.6 3 3-3.4 3.7 5.4-1.8 3 3-8.1 5.5-2-1.9 5.4-3.7-6.6 2.5-1.6-1.6 4.2-5-5.4 3.8zM199.6 91.8l-2.1-2-10.7 3L189 95l1.5-.5 2.2 2.2-.8 1.1 2.1 2.1 5.6-8.1zm-6.8 2l2.9-1L194 95l-1.2-1.2zM197.5 103.2l-2.4-2.3 6.1-7.5 2.1 2-3.6 4.3 5.7-2.3 2.3 2.2-10.2 3.6zM208.2 100.1l2.1 2.1-8.1 5.6-2.2-2.1 8.2-5.6zM212.5 109.3c1.3-1.2-.5-3.8-3.4-1.6-2.9 2.2-.4 4.3 1.5 3.1l2 2c-2.9 2.2-5.5.2-6.4-.9-1-1.1-2.5-3.6 1-6.5 3.4-2.8 6.7-.2 7.2.4.5.6 2.7 2.8.1 5.4l-2-1.9z"/></g></g><g><path class="st4" d="M297.7 38.2c-29.9-17.3-62.6-25.5-94.8-25.5-65.7 0-129.5 34.1-164.7 95-52.5 90.9-21.3 207.1 69.5 259.5 29.9 17.3 62.6 25.5 94.8 25.5 65.7 0 129.5-34.1 164.7-95 52.5-90.9 21.4-207.1-69.5-259.5zm29.7 236.5c-12.9 22.3-31.5 40.7-53.7 53.3-17 9.6-35.7 15.6-55 17.8-2.1 6.9-8.6 12-16.3 12-7.7 0-14.1-5.1-16.3-12-19.4-2.3-38.4-8.5-55.5-18.4-33.3-19.2-57.1-50.3-67.1-87.4-10-37.2-4.8-76 14.4-109.3 12.9-22.3 31.5-40.7 53.7-53.3 21.7-12.2 46.3-18.7 71.2-18.7 25.1 0 49.9 6.7 71.8 19.3 33.3 19.2 57.1 50.3 67.1 87.4 10 37.2 4.9 76-14.3 109.3z"/></g></svg>