<svg id="Layer_1" xmlns="http://www.w3.org/2000/svg" xmlns:xlink="http://www.w3.org/1999/xlink" viewBox="0 0 403 403"><style>.st0{fill:#343434}.st1{fill:#b7833d}.st2{fill:#222}.st3{fill:#eedf20}.st4{fill:#010202}.st5{fill:none}.st6{clip-path:url(#SVGID_2_)}.st7,.st8{fill:none;stroke:#a9a9aa;stroke-width:1.5;stroke-miterlimit:10}.st8{stroke-width:3}</style><circle class="st0" cx="201.5" cy="201.5" r="201.5"/><circle class="st1" cx="201.5" cy="201.5" r="196"/><circle class="st2" cx="201.5" cy="201.5" r="190"/><path class="st3" d="M108.7 280l-20.6 14.5-3-4.3 9.5-13.9-16.3 4.2-3-4.3 20.6-14.5 2.7 3.8-12.7 8.9 13.6-3.7 1.9 2.8-8.1 11.6 12.7-8.9 2.7 3.8zM94.1 258.4l-26.5 1.9-1.8-4.3 19.9-17.6 2 4.7-4.8 4 3.1 7.4 6.2-.6 1.9 4.5zm-12.6-3.6l-2.1-4.9-7 5.8 9.1-.9zM61.3 244.3l-1.1-5.1 17-9.6-19.4-1.4-1.1-5.1 26.4 2.7 1 4.6-22.8 13.9zM81.1 213.6l-25.1 2-.4-4.7 25.1-2 .4 4.7zM77.1 199.7c-2.4 2.1-5.7 3-9.7 2.7-4-.3-7.1-1.7-9.2-4.1-2.1-2.4-3-5.3-2.8-8.6.2-2.7 1-4.9 2.5-6.7 1.5-1.7 3.4-2.8 5.9-3.2l.8 4.3c-3 .9-4.6 2.8-4.8 5.9-.2 2.1.5 3.8 1.8 5.3 1.4 1.5 3.4 2.3 6.2 2.5 2.8.2 4.9-.3 6.5-1.6 1.6-1.2 2.4-2.9 2.6-4.9.2-3-1.1-5.2-3.9-6.5l1.4-4.1c2.4.8 4.2 2.1 5.4 4 1.2 1.9 1.7 4.2 1.5 7-.4 3.2-1.7 5.9-4.2 8z"/><path class="st4" d="M204.6 346.7c-3.9 0-7.1 3.2-7.1 7.1v22.7c0 3.9 3.2 7.1 7.1 7.1 3.9 0 7.1-3.2 7.1-7.1v-22.7c0-4-3.2-7.1-7.1-7.1z"/><path class="st5" d="M204.6 346.7c-3.9 0-7.1 3.2-7.1 7.1v22.7c0 3.9 3.2 7.1 7.1 7.1 3.9 0 7.1-3.2 7.1-7.1v-22.7c0-4-3.2-7.1-7.1-7.1z"/><g><defs><path id="SVGID_1_" d="M204.6 346.7c-3.9 0-7.1 3.2-7.1 7.1v22.7c0 3.9 3.2 7.1 7.1 7.1 3.9 0 7.1-3.2 7.1-7.1v-22.7c0-4-3.2-7.1-7.1-7.1z"/></defs><clipPath id="SVGID_2_"><use xlink:href="#SVGID_1_" overflow="visible"/></clipPath><g class="st6"><path class="st7" d="M204.6 380.7v-25 25z"/><path class="st8" d="M204.6 384.1v-25 25z"/></g></g><circle class="st5" cx="201.5" cy="201.5" r="190"/></svg>