<svg xmlns="http://www.w3.org/2000/svg" width="175.49" height="26.4" viewBox="0 0 175.49 26.4"><defs><style>.a{fill:rgba(255,255,255,.3)}</style></defs><path class="a" d="M165.23 5.72c1.35 0 2.79 0 4.13.09a9.67 9.67 0 0 1 5.31 1.64l.29.24c-.27-.56-.6-1.16-.93-1.73l-.05-.1a11 11 0 0 0-2.92-3.61C168.95 1 166.68.5 163.7.18s-9.86-.11-11.19-.07c-2.26.08-18.93.73-21.19.84s-13 .53-16 .65c-4 .15-7.05.28-9.2.38a107.39 107.39 0 0 0 17 3.34c7.83.74 15.94.69 21.31.66h2.17c5.14 0 11.41-.11 13.48-.17 1.06-.03 3-.09 5.15-.09z"/><path class="a" d="M151.94 14.49a109 109 0 0 0 12.16 2.72 53.79 53.79 0 0 0 6.44-2.77 11.76 11.76 0 0 0 4.31-3.19 3.36 3.36 0 0 0 .64-1.75c0-.38-.17-.92-1.12-1.67a7.9 7.9 0 0 0-3.46-1.36 18.42 18.42 0 0 1-5 3.08c-2.47 1.12-5.34 2.12-6.29 2.45-2.27.81-5.73 1.91-7.68 2.49zM64.44 14.34h-3.51a1.19 1.19 0 0 1 .54 1.07v4c-.64.06-1.52.1-2.52.1a24 24 0 0 1-2.55-.1v-4a1.19 1.19 0 0 1 .53-1.07h-3.51A1.19 1.19 0 0 1 54 15.4v9.72a1.17 1.17 0 0 1-.54 1.05h3.51a1.18 1.18 0 0 1-.53-1.05v-4.4a24.27 24.27 0 0 1 2.55-.1 23.85 23.85 0 0 1 2.52.1v4.41a1.17 1.17 0 0 1-.54 1.05h3.51a1.18 1.18 0 0 1-.53-1.05V15.4a1.19 1.19 0 0 1 .49-1.06zM46.67 16.58c0-1 .89-1.41 1.76-1.41a3.17 3.17 0 0 1 2.72 1.68L51 14.64a7.53 7.53 0 0 0-2.8-.47c-1.86 0-4 .73-4 3 0 3.6 5.31 4.11 5.31 6.37 0 1.29-.88 1.8-2.06 1.8a3.8 3.8 0 0 1-3.4-2.44 9.67 9.67 0 0 0-.05 1.41 8.41 8.41 0 0 0 .09 1.21 7.06 7.06 0 0 0 3.66.88c2.18 0 4.35-1 4.35-3.5-.03-3.41-5.43-3.98-5.43-6.32zM42.45 14.34h-3.64a1.19 1.19 0 0 1 .6 1.07v9.72a1.16 1.16 0 0 1-.6 1.05h3.64a1.13 1.13 0 0 1-.6-1.05V15.4a1.16 1.16 0 0 1 .6-1.06zM15.94 20.13c1.73 0 3.28-1 3.28-2.84 0-2.24-2.33-3-4.19-3h-4.28a1.2 1.2 0 0 1 .56 1.07v9.72a1.16 1.16 0 0 1-.56 1.05h3.55a1.16 1.16 0 0 1-.56-1.05V20.6c1.54 0 2.14 1.61 2.83 2.77.44.72 1.55 2.53 2.36 2.77a4.92 4.92 0 0 0 1.39.12 7.83 7.83 0 0 0 2.25-.31c-2.72-.02-4.17-5.8-6.63-5.82zm-1.64-.59h-.56v-4.1a4.15 4.15 0 0 1 .6-.06c1.3 0 2.27.53 2.27 2a2.08 2.08 0 0 1-2.31 2.17zM26.39 14.34h-3.64a1.19 1.19 0 0 1 .6 1.07v9.72a1.16 1.16 0 0 1-.6 1.05h3.65a1.13 1.13 0 0 1-.6-1.05V15.4a1.16 1.16 0 0 1 .59-1.06zM27.6 14.34l-.82 1.74a3.81 3.81 0 0 1 1.84-.38h2.62v9.43a1.14 1.14 0 0 1-.59 1.05h3.62a1.17 1.17 0 0 1-.59-1.05v-9.46c1 0 2.12 0 2.81.06a2.5 2.5 0 0 0 1.89-1.55 10.17 10.17 0 0 1-2.11.16zM6.46 20a2.66 2.66 0 0 0 2.25-2.44c0-2.34-2-3.19-4.08-3.19H0a1.19 1.19 0 0 1 .54 1.03v9.72A1.16 1.16 0 0 1 0 26.18h5c2 0 4.74-.67 4.74-3.34A3 3 0 0 0 6.46 20zM3 15.4a5.63 5.63 0 0 1 .76 0c1.41 0 2.5.47 2.5 2.11s-1.38 2.08-2.8 2.08H3zm1.58 9.75A8.25 8.25 0 0 1 3 25v-4.35h1.05C5.53 20.62 7 21 7 22.81a2.15 2.15 0 0 1-2.43 2.34zM133.44 16.58c0-1 .89-1.41 1.76-1.41a3.17 3.17 0 0 1 2.72 1.68l-.13-2.21a7.53 7.53 0 0 0-2.8-.47c-1.86 0-4 .73-4 3 0 3.6 5.31 4.11 5.31 6.37 0 1.29-.88 1.8-2.06 1.8a3.8 3.8 0 0 1-3.4-2.44 9.67 9.67 0 0 0-.12 1.45 8.26 8.26 0 0 0 .09 1.21 7.05 7.05 0 0 0 3.66.88c2.2 0 4.35-1 4.35-3.5.02-3.45-5.38-4.02-5.38-6.36zM121.66 25.26l-4-10.92h-3.06a.8.8 0 0 1 .4.66.42.42 0 0 1 0 .15l-3.92 10.12a1.81 1.81 0 0 1-.8.91h2.39c-.13-.06-.28-.15-.28-.32a2 2 0 0 1 .19-.56l1.14-2.9a20.41 20.41 0 0 1 2.12-.09 18.87 18.87 0 0 1 2.24.09c.12.31 1.08 3 1.08 3a1.86 1.86 0 0 1 .12.41.52.52 0 0 1-.22.41h3.4a1.81 1.81 0 0 1-.8-.96zm-5.84-4a15.35 15.35 0 0 1-1.64-.07l1.8-4.61 1.67 4.61a15.23 15.23 0 0 1-1.83.09zM128.42 14.34a.44.44 0 0 1 .25.4 2.48 2.48 0 0 1-.37.78s-1.79 3.1-2 3.45l-2.25-3.57a2.28 2.28 0 0 0-2.41-1.2 7.7 7.7 0 0 0-2.05.32c1.23 0 2.25 1.7 2.48 2.06l2.43 3.91v4.64a1.24 1.24 0 0 1-.51 1.05h3.48a1.18 1.18 0 0 1-.53-1.05V20.5l2.81-4.92a3 3 0 0 1 1.17-1.24zM80 25.26l-4-10.92h-3a.8.8 0 0 1 .44.67.44.44 0 0 1 0 .15l-3.97 10.11a1.81 1.81 0 0 1-.8.91H71c-.13-.06-.28-.15-.28-.32a2 2 0 0 1 .28-.56l1.14-2.9a20.42 20.42 0 0 1 2.12-.09 18.9 18.9 0 0 1 2.24.09c.12.31 1.08 3 1.08 3a1.28 1.28 0 0 1 .12.41.53.53 0 0 1-.22.41h3.4a1.81 1.81 0 0 1-.88-.96zm-5.84-4a15.37 15.37 0 0 1-1.64-.07l1.8-4.61L76 21.2a15.22 15.22 0 0 1-1.8.08zM112.55 14.34h-2.31a.41.41 0 0 1 .2.35 1.23 1.23 0 0 1-.09.38L108 22l-3-7.66-2.8 8-2.62-7.09a1.52 1.52 0 0 1-.1-.41.58.58 0 0 1 .25-.5h-3.5a2.11 2.11 0 0 1 .91 1.13l4 10.72h1.11l2.34-6.63 1.63 4.11a9.6 9.6 0 0 0 1.13 2.3 1.38 1.38 0 0 0 .75.22l3.6-10.69a2.06 2.06 0 0 1 .85-1.16zM85.09 14.34h-3.65A1.19 1.19 0 0 1 82 15.4v9.72a1.16 1.16 0 0 1-.6 1.05h3.64a1.14 1.14 0 0 1-.6-1.05V15.4a1.16 1.16 0 0 1 .65-1.06zM92.52 20.13a2.94 2.94 0 0 0 3-2.84c0-2.24-2.33-3-4.19-3H87a1.2 1.2 0 0 1 .56 1.07v9.72a1.16 1.16 0 0 1-.56 1.1h3.56a1.16 1.16 0 0 1-.56-1.05V20.6c1.54 0 2.43 1.61 3.12 2.77.44.72 1.55 2.53 2.36 2.77a4.92 4.92 0 0 0 1.39.12 7.83 7.83 0 0 0 2.25-.31c-2.5-.01-4.03-5.67-6.6-5.82zm-1.93-.59h-.56v-4.1a4.17 4.17 0 0 1 .6-.06c1.3 0 2.27.53 2.27 2a2.08 2.08 0 0 1-2.31 2.17z"/></svg>