<svg xmlns="http://www.w3.org/2000/svg" width="576" height="117.29" viewBox="0 0 576 117.29"><defs><style>.a{fill:rgba(255,255,255,.3)}.b{fill:none}</style></defs><path class="a" d="M358 82.25c-7.7 0-12.47-2.61-16.85-6.07v23.76h-13.3V39.87h13.31v4.45A28 28 0 0 1 358 38.8c9.54 0 17.18 2.62 22.77 7.41a18.37 18.37 0 0 1 6.81 14.26c.02 12.82-11.84 21.78-29.58 21.78zm11.7-30.84c-3-2.81-7-4.24-12.43-4.24-9.95 0-16.1 5.23-16.1 12.92a11.85 11.85 0 0 0 3.83 8.75c3 2.79 6.86 4.25 12.31 4.25s9.42-1.46 12.43-4.25a11.81 11.81 0 0 0 3.7-8.76 11.61 11.61 0 0 0-3.74-8.67zM444.51 33.37a11.27 11.27 0 0 1-7.24-2.24 4.78 4.78 0 0 1-2.18-3.8 5.07 5.07 0 0 1 2.18-3.86 11.9 11.9 0 0 1 7.1-2.23 12.06 12.06 0 0 1 7.23 2.23 5.09 5.09 0 0 1 2.18 3.86c0 3.37-4.15 6-9.28 6m7.17 48.07h-14.55V39.9h14.56zM482.89 82.83c-11.48 0-18.06-2.18-24-7.42l-.79-.77 1-.54 9-4.8.56-.35.55.46C473 71.8 476.4 74 482.89 74c4.67 0 8-1 9.85-2.48a2.19 2.19 0 0 0 1-1.83c0-3.41-6.76-4.45-11.65-5.18l-1.72-.2c-10.12-1.46-20.62-3.95-20.62-12.43 0-2.95 1.37-5.52 4-7.75 4.3-3.39 12.77-5.51 21.43-5.51 9.87 0 17.13 2.56 21.24 7l.71.76-10.13 5-.69.35-.56-.43a16.7 16.7 0 0 0-11.28-3.8c-4.64 0-8.59 1.3-8.59 3.7 0 3.59 7 4.51 12.11 5.15.79.18 1.6.18 2.18.37 9.89 1.48 19.7 4.16 19.7 12.63 0 10-14.82 13.53-27 13.53M156.64 81.07V57a8.41 8.41 0 0 0-2.89-6.72c-2.71-2.21-6.65-2.66-9.56-2.66-9.63 0-12.44 4.5-12.44 12.37v21.1h-14.47V39.9h14.47v4.65c3.87-3.5 9.25-5.75 17.07-5.75 7.27 0 13.5 1.88 17.36 5.13a13.52 13.52 0 0 1 4.93 10.86v26.28h-14.47M174.81 48.19v-8.57h9.54V28.45h14.55v11.17h15.25v8.57H198.9v19c0 4 1.72 6.55 8.21 6.55a16.33 16.33 0 0 0 7-1.27v8.49a37.22 37.22 0 0 1-10.72 1.35c-15.56 0-19.08-4.78-19.08-14.29V48.19zM263.25 69.33a23.6 23.6 0 0 1-13.57 3.92c-6.92.15-13.17-1.82-16.47-5.06a8.52 8.52 0 0 1-2.41-4.2h45.05c2.37 0 3.59-1 3.59-3.89a20.46 20.46 0 0 0-6.24-14c-5.14-5.08-14.57-8.16-24.93-8.16-10.63 0-20 3.62-25.77 9.25a18.2 18.2 0 0 0-5.81 13 18.55 18.55 0 0 0 5.81 13.33c5.6 5.46 15.24 8.79 26.15 8.79a49.1 49.1 0 0 0 15.25-2.22 31.44 31.44 0 0 0 5.87-2.7 23.22 23.22 0 0 0 5.09-4 13.62 13.62 0 0 0 2.4-3.24c.5-1-1.21-.81-2.3-.82h-11.71m.3-13.41H230c1.16-3.18 7.84-9.12 18.07-9.26s15.26 4.18 17.43 7.3c.95 1.69-.62 1.96-1.96 1.96zM321.86 39.53a31.52 31.52 0 0 0-5.46-.53c-6.53 0-13.17 4.09-16.83 7.53V40h-14.48v41.24h14.48V60.65c0-8 5.27-11.93 15.88-11.93a34.42 34.42 0 0 1 5.24.52l1.17.27zM430.81 39.53a31.06 31.06 0 0 0-5.45-.57c-6.54 0-13.19 4.09-16.85 7.53V40H394v41.24h14.46V60.65c0-8 5.28-11.93 15.88-11.93a34.19 34.19 0 0 1 5.25.52l1.16.27zM559.74 69.33a23.37 23.37 0 0 1-13.52 3.92c-6.91.15-13.16-1.82-16.49-5.06a8.11 8.11 0 0 1-2.38-4.2h45c2.34 0 3.6-1 3.6-3.89a20.83 20.83 0 0 0-6.22-14c-5.19-5.08-14.62-8.16-25-8.16-10.66 0-20 3.62-25.78 9.25a18.17 18.17 0 0 0-5.82 13A18.53 18.53 0 0 0 519 73.52c5.6 5.46 15.23 8.79 26.15 8.79a49.39 49.39 0 0 0 15.28-2.22 31.1 31.1 0 0 0 5.83-2.7 23.37 23.37 0 0 0 5.11-4 15.12 15.12 0 0 0 2.41-3.24c.48-1-1.23-.81-2.3-.82h-11.74m.34-13.41h-33.55c1.15-3.18 7.83-9.12 18.08-9.26S559.89 50.83 562 54c1 1.65-.6 1.92-1.92 1.92z"/><path class="b" d="M39.87 63.69zM35.71 63.69zM31.63 63.69zM46.19 63.69zM71.74 63.69H99c1.83 0 3.47 0 4.88-.16-1.41.12-3 .14-4.88.16zM109.88 58.17a8.27 8.27 0 0 1-.13 1.7 8.26 8.26 0 0 0 .13-1.7zM71.32 63.69zM54.65 63.69zM67.46 63.69zM93.8 52.49c.22-.42.1-1-.38-1.82-3.82-5.45-11.3-8.56-20.52-8.54-8.83 0-17.73 4-21.58 9.65a8.57 8.57 0 0 0-.85 1.49h40.77c1.09-.02 2.24-.14 2.56-.78zM72.38 74.45C64.11 74.45 56.13 71 52 66H36.21c4.15 10 16.7 19.64 36.34 19.62 20.15 0 28.26-7.07 33.54-14a7.42 7.42 0 0 0 .6-.94H88.2c-3.66 3.05-10.63 3.77-15.82 3.77zM105.25 63.37a5.69 5.69 0 0 0 3.69-1.68 3.67 3.67 0 0 0 .62-1.12 3.67 3.67 0 0 1-.62 1.12 5.69 5.69 0 0 1-3.69 1.68z"/><path class="a" d="M100.35 40.64q1.07.88 2 1.81-.93-.94-2-1.81zM109.69 56a16.76 16.76 0 0 1 .19 2.14 16.77 16.77 0 0 0-.19-2.14zM35.58 52.68l.25-.63zM39.35 46.16q.72-.91 1.54-1.8-.82.88-1.54 1.8zM95.64 37.39a34.74 34.74 0 0 1 4.71 3.24 34.74 34.74 0 0 0-4.71-3.24zM47.74 38.66q1.13-.73 2.35-1.4-1.21.66-2.35 1.4zM52.61 36a43.38 43.38 0 0 1 4.07-1.65A43.38 43.38 0 0 0 52.61 36zM105.72 46.34a24.26 24.26 0 0 1 2.38 4.16 24.26 24.26 0 0 0-2.38-4.16zM35.38 53.27c0-.15.12-.36.21-.59-.08.22-.16.44-.21.59zM62 63.69zM37.77 63.69zM33.7 63.69zM27.66 63.69zM41.9 63.69zM48.14 63.69zM93.8 52.49c.22-.42.1-1-.38-1.82-3.82-5.45-11.3-8.56-20.52-8.54-8.83 0-17.73 4-21.58 9.65a8.56 8.56 0 0 0-.85 1.49h40.77c1.09 0 2.23-.14 2.56-.78z"/><path class="a" d="M102.79 58.49a2.66 2.66 0 0 0 1-2.57c-.2-5.46-9.7-20.11-31.21-20.11-20.71 0-28.29 12-30.11 15.72a19 19 0 0 0-.81 1.73H44a12.91 12.91 0 0 1 .72-1.49c1.69-3.11 9.44-13.84 27.8-13.84 21.4 0 28.94 14.51 28.94 17.65a1.07 1.07 0 0 1-.31.88c-.6.56-1.41.85-6.76.85H0v2.12h94.41c6.92 0 7.71-.45 8.38-.95zM99.5 70.71l-.23.3C90.93 81.4 73.53 81.18 71.56 81.12 56.67 80.87 46.42 73.24 42.84 66h2.43c3.42 6 12.08 12.64 26.36 13 .67 0 16.43.67 25-8.29z"/><path class="b" d="M72.38 74.45C64.11 74.45 56.13 71 52 66H36.21c4.15 10 16.7 19.64 36.34 19.62 20.15 0 28.26-7.07 33.54-14a7.42 7.42 0 0 0 .6-.94H88.2c-3.66 3.05-10.63 3.77-15.82 3.77z"/><path class="a" d="M10.08 107.54a.87.87 0 0 0-.38-.83 2.67 2.67 0 0 0-1.21-.21h-.84v2.05h.9a2.59 2.59 0 0 0 1-.12.87.87 0 0 0 .53-.89z"/><path class="a" d="M8.74 104.21a4.31 4.31 0 0 0-3.15 1.31 4.29 4.29 0 0 0-1.3 3.15 4.34 4.34 0 0 0 1.29 3.17 4.25 4.25 0 0 0 3.15 1.31 4.25 4.25 0 0 0 3.14-1.31 4.47 4.47 0 0 0-3.14-7.63zm1.4 7.29v-.06V110.74a1.4 1.4 0 0 0-.53-1.3 2.42 2.42 0 0 0-1.12-.19h-.84v2.24h-1v-5.67h2a4.58 4.58 0 0 1 1.55.2 1.41 1.41 0 0 1 .88 1.44 1.24 1.24 0 0 1-.56 1.12 2.17 2.17 0 0 1-.82.27 1.4 1.4 0 0 1 1 .56 1.54 1.54 0 0 1 .31.88v.84a.87.87 0 0 0 .06.3v.07z"/><path class="a" d="M0 0v53.27h35.38c0-.15.12-.36.21-.59l.25-.63.11-.27a25.32 25.32 0 0 1 3.41-5.63q.72-.91 1.54-1.8a35.61 35.61 0 0 1 6.85-5.71q1.13-.73 2.35-1.4T52.61 36a43.38 43.38 0 0 1 4.07-1.65 48.27 48.27 0 0 1 15.89-2.61 46 46 0 0 1 23.05 5.68 34.74 34.74 0 0 1 4.71 3.24q1.07.88 2 1.81a28.36 28.36 0 0 1 3.34 3.89 24.26 24.26 0 0 1 2.38 4.16 20.53 20.53 0 0 1 1.38 4.28q.13.66.21 1.25a16.77 16.77 0 0 1 .19 2.14 8.26 8.26 0 0 1-.13 1.7 5.11 5.11 0 0 1-.19.7 3.67 3.67 0 0 1-.62 1.12 5.69 5.69 0 0 1-3.69 1.68c-.42.07-.86.12-1.33.16-1.41.12-3 .14-4.88.16H0v53.6h117.28V0zm12.39 112.34a5 5 0 0 1-3.66 1.52 5.16 5.16 0 0 1-5.16-5.19A5 5 0 0 1 5.09 105a5 5 0 0 1 3.65-1.5 5 5 0 0 1 3.66 1.5 5 5 0 0 1 1.52 3.65 5 5 0 0 1-1.53 3.69zm93.69-40.63c-5.27 6.89-13.39 13.93-33.54 14C52.91 85.69 40.36 76 36.21 66H52c4.15 5 12.13 8.41 20.41 8.41 5.19 0 12.16-.73 15.82-3.68h18.49a7.42 7.42 0 0 1-.64.98z"/></svg>