<svg xmlns="http://www.w3.org/2000/svg" width="652.48" height="148.5" viewBox="0 0 652.48 148.5"><defs><style>.a{fill:#333}</style></defs><title>expose-text</title><path class="a" d="M101.84 78c-5.33 18.11-21.94 33.24-47.73 33.24C25.35 111.22 0 90.55 0 55.18 0 21.73 24.71 0 51.56 0c32.38 0 51.77 20.67 51.77 54.33 0 4-.43 8.31-.43 8.74h-75c.64 13.85 12.36 23.86 26.42 23.86 13.21 0 20.45-6.6 23.86-16zM75.42 43.68C75 33.24 68.18 23 52 23c-14.7 0-22.8 11.08-23.44 20.67zM140.74 55.4L103.46 3.2h33.66c3.62 5.75 17.26 25.35 20.88 31.1l20.67-31.1h32.17l-36.65 51.34L212.12 108h-33.24l-21.94-32.15C153.1 81.6 139 102.27 135.42 108h-32zM222.19 148.5V3.2h27.48V16C254.37 7.88 266.08.85 281.85.85c30.68 0 48.36 23.44 48.36 54.54 0 31.75-19.81 55.18-49.43 55.18-14.49 0-25.14-5.75-30.25-12.78v50.71zm54.12-122.3c-14.49 0-26.21 10.87-26.21 29.4s11.72 29.62 26.21 29.62 26-10.87 26-29.62c-.01-18.53-11.51-29.39-26-29.39zM449.1 55.61c0 32.17-23.65 55.61-55 55.61s-55-23.44-55-55.61c0-32.39 23.65-55.61 55-55.61s55 23.22 55 55.61zm-28.34 0c0-19.81-12.78-29.83-26.63-29.83s-26.63 10-26.63 29.83c0 19.6 12.78 29.83 26.63 29.83s26.63-10.02 26.63-29.83zM480.61 73.5c.64 8.31 6.82 16 19.17 16 9.38 0 13.85-4.9 13.85-10.44 0-4.69-3.2-8.52-11.29-10.23l-13.85-3.2c-20.24-4.47-29.4-16.62-29.4-31.32 0-18.75 16.62-34.3 39.2-34.3 29.83 0 39.84 19 41.12 30.25l-23.65 5.33c-.85-6.18-5.33-14.06-17.26-14.06C491 21.52 485.08 26 485.08 32c0 5.11 3.83 8.31 9.59 9.37l14.91 3.2c20.67 4.26 31.11 16.83 31.11 32.17 0 17-13.21 34.52-40.69 34.52-31.53 0-42.4-20.45-43.68-32.39zM651 78c-5.33 18.11-21.95 33.24-47.73 33.24-28.76 0-54.12-20.67-54.12-56C549.15 21.73 573.86 0 600.71 0c32.39 0 51.77 20.67 51.77 54.33 0 4-.43 8.31-.43 8.74h-75c.64 13.85 12.36 23.86 26.42 23.86 13.21 0 20.45-6.6 23.86-16zm-26.42-34.3c-.44-10.46-7.25-20.7-23.45-20.7-14.7 0-22.8 11.08-23.44 20.67z"/></svg>