<svg xmlns="http://www.w3.org/2000/svg" viewBox="0 0 78.21 8" preserveAspectRatio="none"><path fill="#8C5CDD" d="M74.79 3.46C73.79 1.92 72.55 0 70.06 0s-3.73 1.92-4.73 3.46S63.61 6 62.27 6s-2-1-3.05-2.54S57 0 54.49 0s-3.73 1.92-4.73 3.46S48 6 46.7 6s-2-1-3.05-2.54S41.41 0 38.92 0s-3.73 1.92-4.73 3.46S32.47 6 31.14 6s-2-1-3.05-2.54S25.84 0 23.35 0s-3.73 1.92-4.73 3.46S16.9 6 15.57 6s-2-1-3.05-2.54S10.27 0 7.78 0 4.05 1.92 3.05 3.46 1.33 6 0 6v2c2.49 0 3.73-1.92 4.73-3.46S6.45 2 7.78 2s2 1 3.05 2.54S13.08 8 15.57 8s3.73-1.92 4.73-3.46S22 2 23.35 2s2 1 3.05 2.54S28.65 8 31.14 8s3.73-1.92 4.73-3.46S37.58 2 38.92 2s2 1 3.05 2.54S44.21 8 46.7 8s3.73-1.92 4.73-3.46S53.15 2 54.49 2s2 1 3.05 2.54S59.78 8 62.27 8 66 6.08 67 4.54 68.72 2 70.06 2s2 1 3.05 2.54S75.35 8 77.84 8h.37V6a2.41 2.41 0 0 1-.37 0c-1.33 0-2.03-1-3.05-2.54z"/></svg>