<?xml version="1.0" standalone="no"?>
<!DOCTYPE svg PUBLIC "-//W3C//DTD SVG 20010904//EN"
 "http://www.w3.org/TR/2001/REC-SVG-20010904/DTD/svg10.dtd">
<svg version="1.0" xmlns="http://www.w3.org/2000/svg"
 width="260.000000pt" height="260.000000pt" viewBox="0 0 260.000000 260.000000"
 preserveAspectRatio="xMidYMid meet">
<metadata>
Created by potrace 1.11, written by Peter Selinger 2001-2013
</metadata>
<g transform="translate(0.000000,260.000000) scale(0.100000,-0.100000)"
fill="#000000" stroke="none">
<path d="M1218 2445 c-2 -2 -23 -6 -48 -10 -172 -24 -357 -121 -489 -255 -89
-91 -183 -254 -207 -360 -32 -142 -33 -158 -33 -911 l-1 -757 150 1 150 1 0
39 c0 103 66 255 148 342 119 127 236 177 442 189 106 6 131 10 210 32 58 17
213 89 233 109 7 6 19 16 29 21 41 23 123 104 172 168 131 174 180 319 179
536 0 116 -4 147 -27 222 -50 168 -132 301 -251 411 -97 89 -264 175 -399 204
-61 13 -249 26 -258 18z m249 -324 c286 -97 442 -373 379 -667 -27 -129 -130
-272 -247 -347 -95 -61 -171 -80 -349 -92 -41 -2 -88 -7 -105 -10 -115 -22
-252 -82 -346 -151 -32 -24 -60 -44 -62 -44 -5 0 1 803 7 852 30 230 202 417
436 473 78 18 211 12 287 -14z"/>
</g>
</svg>
